<?xml version="1.0" standalone="no"?>
<!DOCTYPE svg PUBLIC "-//W3C//DTD SVG 1.1//EN" "http://www.w3.org/Graphics/SVG/1.1/DTD/svg11.dtd" >
<svg xmlns="http://www.w3.org/2000/svg" xmlns:xlink="http://www.w3.org/1999/xlink" version="1.1">
<metadata>
Created by FontForge 20201107 at Thu Sep 23 02:23:12 2021
 By 
Copyright (C) 2020 by Bobby Tannam under private license to Coinbase. All rights reserved.
</metadata>
<defs>
<font id="CoinbaseSans-Medium" horiz-adv-x="640" >
  <font-face 
    font-family="Coinbase Sans Medium"
    font-weight="500"
    font-stretch="normal"
    units-per-em="1000"
    panose-1="2 11 3 3 3 2 2 6 2 4"
    ascent="800"
    descent="-200"
    x-height="524"
    cap-height="704"
    bbox="-165 -238 2169 1022"
    underline-thickness="85"
    underline-position="-178"
    unicode-range="U+0020-FB02"
  />
<missing-glyph horiz-adv-x="662" 
d="M78 704h506v-704h-506v704zM513 68v568h-363v-568h363z" />
    <glyph glyph-name="fi" unicode="fi" horiz-adv-x="708" 
d="M580 585h-8q-34 0 -57 23t-23 54q0 33 23 55.5t57 22.5h8q34 0 56.5 -22.5t22.5 -55.5q0 -31 -22.5 -54t-56.5 -23zM130 0v418h-113v106h113v76q0 66 35.5 102t107.5 36h141v-101h-112q-22 0 -32.5 -10.5t-10.5 -33.5v-69h382v-524h-130v418h-251v-418h-130z" />
    <glyph glyph-name="fl" unicode="fl" horiz-adv-x="796" 
d="M130 0v418h-113v106h113v76q0 66 35.5 102t107.5 36h141v-101h-112q-22 0 -32.5 -10.5t-10.5 -33.5v-69h252v217h130v-584q0 -26 12.5 -38.5t38.5 -12.5h87v-107h-125q-72 0 -107.5 35.5t-35.5 102.5v281h-251v-418h-130z" />
    <glyph glyph-name="f_f" unicode="ff" horiz-adv-x="832" 
d="M130 0v418h-113v106h113v76q0 66 35.5 102t107.5 36h141v-101h-112q-22 0 -32.5 -10.5t-10.5 -33.5v-69h252v82q0 67 35.5 102.5t107.5 35.5h163v-101h-134q-22 0 -32.5 -10t-10.5 -33v-76h176v-106h-175v-418h-130v418h-251v-418h-130z" />
    <glyph glyph-name="f_f_i" unicode="ffi" horiz-adv-x="1089" 
d="M961 585h-8q-34 0 -57 23t-23 54q0 33 23 55.5t57 22.5h8q34 0 56.5 -22.5t22.5 -55.5q0 -31 -22.5 -54t-56.5 -23zM130 0v418h-113v106h113v76q0 66 35.5 102t107.5 36h141v-101h-112q-22 0 -32.5 -10.5t-10.5 -33.5v-69h252v76q0 66 35.5 102t107.5 36h141v-101h-112
q-22 0 -32.5 -10.5t-10.5 -33.5v-69h382v-524h-130v418h-251v-418h-130v418h-251v-418h-130z" />
    <glyph glyph-name="f_f_j" unicode="ffj" horiz-adv-x="1089" 
d="M960 585h-8q-34 0 -57 23t-23 54q0 33 23 55.5t57 22.5h8q34 0 57 -22.5t23 -55.5q0 -31 -23 -54t-57 -23zM130 0v418h-113v106h113v76q0 66 35.5 102t107.5 36h141v-101h-112q-22 0 -32.5 -10.5t-10.5 -33.5v-69h252v76q0 66 35.5 102t107.5 36h141v-101h-112
q-22 0 -32.5 -10.5t-10.5 -33.5v-69h381v-580q0 -67 -35.5 -102.5t-107.5 -35.5h-128v104h98q22 0 32.5 10.5t10.5 32.5v465h-250v-418h-130v418h-251v-418h-130z" />
    <glyph glyph-name="f_f_l" unicode="ffl" horiz-adv-x="1174" 
d="M130 0v418h-113v106h113v76q0 66 35.5 102t107.5 36h141v-101h-112q-22 0 -32.5 -10.5t-10.5 -33.5v-69h252v76q0 66 35.5 102t107.5 36h141v-101h-112q-22 0 -32.5 -10.5t-10.5 -33.5v-69h249v218h130v-584q0 -26 12.5 -38.5t38.5 -12.5h87v-107h-125q-72 0 -107.5 35.5
t-35.5 102.5v280h-248v-418h-130v418h-251v-418h-130z" />
    <glyph glyph-name="f_j" unicode="fj" horiz-adv-x="708" 
d="M580 585h-8q-34 0 -57 23t-23 54q0 33 23 55.5t57 22.5h8q34 0 57 -22.5t23 -55.5q0 -31 -23 -54t-57 -23zM130 0v418h-113v106h113v76q0 66 35.5 102t107.5 36h141v-101h-112q-22 0 -32.5 -10.5t-10.5 -33.5v-69h382v-580q0 -67 -35.5 -102.5t-107.5 -35.5h-128v104h98
q22 0 32.5 10.5t10.5 32.5v465h-251v-418h-130z" />
    <glyph glyph-name="j_j" unicode="jj" horiz-adv-x="543" 
d="M415 585h-8q-34 0 -57 23t-23 54q0 33 23 55.5t57 22.5h8q34 0 56.5 -22.5t22.5 -55.5q0 -31 -22.5 -54t-56.5 -23zM138 585h-8q-34 0 -57 23t-23 54q0 33 23 55.5t57 22.5h8q34 0 57 -22.5t23 -55.5q0 -31 -23 -54t-57 -23zM345 -47v571h130v-580q0 -67 -35.5 -102.5
t-107.5 -35.5h-90v104h60q22 0 32.5 10.5t10.5 32.5zM69 -47v571h130v-580q0 -67 -35.5 -102.5t-107.5 -35.5h-128v104h98q22 0 32.5 10.5t10.5 32.5z" />
    <glyph glyph-name=".notdef" horiz-adv-x="662" 
d="M78 704h506v-704h-506v704zM513 68v568h-363v-568h363z" />
    <glyph glyph-name=".null" horiz-adv-x="0" 
 />
    <glyph glyph-name="nonmarkingreturn" horiz-adv-x="333" 
 />
    <glyph glyph-name="space" unicode=" " horiz-adv-x="213" 
 />
    <glyph glyph-name="exclam" unicode="!" horiz-adv-x="282" 
d="M206 704v-243l-30 -209h-74l-31 209v243h135zM141 -10q-37 0 -63 26.5t-26 63.5t26 63t63 26t63 -26t26 -63t-26 -63.5t-63 -26.5z" />
    <glyph glyph-name="quotedbl" unicode="&#x22;" horiz-adv-x="430" 
d="M182 704l-15 -288h-96l-16 288h127zM375 704l-15 -288h-96l-16 288h127z" />
    <glyph glyph-name="numbersign" unicode="#" horiz-adv-x="774" 
d="M111 0l49 181h-122v100h148l39 142h-139v100h165l49 181h114l-49 -181h141l49 181h114l-49 -181h116v-100h-142l-39 -142h133v-100h-159l-49 -181h-114l49 181h-141l-49 -181h-114zM300 281h141l39 142h-141z" />
    <glyph glyph-name="dollar" unicode="$" horiz-adv-x="612" 
d="M253 -129v133q-101 12 -161 69.5t-61 141.5h129q1 -56 39.5 -85.5t104.5 -29.5q65 0 99.5 29t34.5 73q0 43 -28.5 60t-84.5 27l-77 14q-89 16 -145.5 61t-56.5 136q0 75 54.5 132t152.5 69v133h102v-134q98 -13 149.5 -69t53.5 -127h-130q-1 43 -32 72t-96 29
q-63 0 -93.5 -29t-30.5 -66q0 -44 29 -62t80 -27l76 -12q44 -7 81.5 -20.5t65 -36.5t43.5 -57.5t16 -82.5q0 -84 -58 -139.5t-154 -68.5v-133h-102z" />
    <glyph glyph-name="percent" unicode="%" horiz-adv-x="971" 
d="M234 317q-87 0 -138 54.5t-51 144.5t51.5 146t138.5 56t138.5 -56t51.5 -146t-52 -144.5t-139 -54.5zM177 0l250 350l249 354h120l-252 -354l-248 -350h-119zM234 411q41 0 64.5 28.5t23.5 76.5q0 49 -23 78.5t-64 29.5t-64 -29.5t-23 -78.5q0 -48 22.5 -76.5t63.5 -28.5
zM736 -16q-87 0 -138.5 55.5t-51.5 145.5t51.5 145.5t138.5 55.5t138.5 -55.5t51.5 -145.5t-51.5 -145.5t-138.5 -55.5zM736 78q41 0 64 29.5t23 77.5t-23 77.5t-64 29.5t-64 -29.5t-23 -77.5t23 -77.5t64 -29.5z" />
    <glyph glyph-name="ampersand" unicode="&#x26;" horiz-adv-x="766" 
d="M612 134q15 -15 29.5 -22.5t34.5 -7.5h72v-104h-108q-33 0 -53.5 10.5t-38.5 28.5l-52 51q-43 -48 -100.5 -76.5t-131.5 -28.5q-49 0 -90.5 14t-71.5 39.5t-47.5 61.5t-17.5 79q0 58 37 109t123 100q-38 40 -59.5 80t-21.5 85q0 71 53.5 119.5t146.5 48.5q47 0 84 -13
t62.5 -35t39 -51.5t13.5 -61.5q0 -63 -34 -104t-106 -84l110 -110l112 151h142l-173 -233zM237 552q0 -23 15 -47t57 -66q43 26 65 51.5t22 58.5t-21.5 55.5t-58.5 22.5q-35 0 -57 -21t-22 -54zM167 192q0 -45 30.5 -73t76.5 -28q37 0 72 19t70 61l-150 148
q-46 -30 -72.5 -58.5t-26.5 -68.5z" />
    <glyph glyph-name="quotesingle" unicode="'" horiz-adv-x="235" 
d="M181 704l-15 -288h-96l-16 288h127z" />
    <glyph glyph-name="parenleft" unicode="(" horiz-adv-x="326" 
d="M293 737q-18 -33 -40 -76.5t-40.5 -97.5t-31 -121t-12.5 -146t12.5 -145.5t31 -121t40.5 -98t40 -77.5h-126q-19 33 -40.5 77.5t-40 99t-30.5 121t-12 144.5t12 144t30.5 120.5t40 98.5t40.5 78h126z" />
    <glyph glyph-name="parenright" unicode=")" horiz-adv-x="326" 
d="M33 -147q18 33 40 76.5t40.5 97.5t31 121t12.5 146t-12.5 145.5t-31 121t-40.5 98t-40 77.5h126q19 -33 40.5 -77.5t40 -99t30.5 -121t12 -144.5t-12 -144t-30.5 -120.5t-40 -98.5t-40.5 -78h-126z" />
    <glyph glyph-name="asterisk" unicode="*" horiz-adv-x="491" 
d="M283 338h-76l3 121l-104 -63l-38 66l107 59l-107 59l38 66l104 -63l-3 121h76l-3 -122l105 64l39 -66l-108 -59l108 -59l-39 -66l-105 64z" />
    <glyph glyph-name="plus" unicode="+" 
d="M48 266v108h218v209h108v-209h218v-108h-218v-209h-108v209h-218z" />
    <glyph glyph-name="comma" unicode="," horiz-adv-x="279" 
d="M142 -145h-113l66 289h132z" />
    <glyph glyph-name="hyphen" unicode="-" horiz-adv-x="411" 
d="M57 336h297v-104h-297v104z" />
    <glyph glyph-name="period" unicode="." horiz-adv-x="282" 
d="M141 -10q-37 0 -63 26.5t-26 63.5t26 63t63 26t63 -26t26 -63t-26 -63.5t-63 -26.5z" />
    <glyph glyph-name="slash" unicode="/" horiz-adv-x="516" 
d="M496 804l-347 -904h-129l347 904h129z" />
    <glyph glyph-name="zero" unicode="0" horiz-adv-x="639" 
d="M319 719q122 0 192.5 -70.5t70.5 -192.5v-206q0 -123 -71 -193.5t-192 -70.5q-120 0 -191 70.5t-71 193.5v206q0 122 70.5 192.5t191.5 70.5zM319 102q64 0 97.5 41t33.5 108v204q0 66 -33.5 107t-97.5 41q-63 0 -96.5 -41t-33.5 -107v-204q0 -67 33.5 -108t96.5 -41z
" />
    <glyph glyph-name="one" unicode="1" horiz-adv-x="414" 
d="M200 0v471h-173v110h173v123h133v-704h-133z" />
    <glyph glyph-name="two" unicode="2" horiz-adv-x="587" 
d="M42 0v104q0 67 33.5 114.5t107.5 91.5l125 77q50 31 66 58.5t16 55.5v11q0 41 -26 70.5t-81 29.5q-51 0 -82 -28.5t-32 -85.5h-129q4 103 71.5 162t171.5 59q56 0 100.5 -16.5t75.5 -44.5t47.5 -66.5t16.5 -81.5q0 -63 -33.5 -115.5t-114.5 -102.5l-140 -87
q-34 -22 -48 -42.5t-14 -51.5h360v-111h-491z" />
    <glyph glyph-name="three" unicode="3" horiz-adv-x="597" 
d="M415 200v11q0 48 -33.5 78.5t-93.5 30.5h-95v94l180 180h-304v110h452v-110l-179 -179v-1q95 -10 151.5 -65.5t56.5 -145.5q0 -94 -69.5 -155.5t-189.5 -61.5q-59 0 -105.5 16.5t-78.5 45t-50 67t-20 82.5h132q3 -41 31 -73.5t93 -32.5q62 0 92 32.5t30 76.5z" />
    <glyph glyph-name="four" unicode="4" horiz-adv-x="619" 
d="M23 158v106l308 440h155v-436h109v-110h-109v-158h-131v158h-332zM150 269v-1h207v294h-1z" />
    <glyph glyph-name="five" unicode="5" horiz-adv-x="597" 
d="M69 300v404h449v-110h-333v-194h1q26 46 66.5 63.5t86.5 17.5q98 0 158 -67t60 -175q0 -54 -18 -101t-52 -80.5t-83 -52.5t-110 -19q-104 0 -174 58t-79 152h135q4 -42 35 -71.5t86 -29.5q61 0 93.5 38t32.5 99v10q0 60 -30.5 96.5t-88.5 36.5q-43 0 -73 -19.5t-46 -55.5
h-116z" />
    <glyph glyph-name="six" unicode="6" horiz-adv-x="610" 
d="M572 230q0 -53 -19.5 -98t-55 -77t-84.5 -50.5t-107 -18.5q-57 0 -106 19t-84 52t-54.5 78.5t-19.5 98.5q0 64 19.5 115.5t60.5 109.5l174 245h151l-185 -252h1q16 9 35 15t46 6q47 0 88.5 -17.5t72.5 -49.5t49 -77t18 -99zM176 239v-12q0 -57 36.5 -96.5t96.5 -39.5
q59 0 94.5 39t35.5 97v12q0 57 -34.5 95t-95.5 38q-57 0 -95 -37t-38 -96z" />
    <glyph glyph-name="seven" unicode="7" horiz-adv-x="534" 
d="M64 0l310 592h-354v112h494v-106l-309 -598h-141z" />
    <glyph glyph-name="eight" unicode="8" horiz-adv-x="618" 
d="M427 371v-1q66 -12 106 -59.5t40 -116.5q0 -43 -18 -81.5t-52 -66t-83 -44t-111 -16.5t-111.5 16.5t-83.5 44t-52 66t-18 81.5q0 69 40.5 116.5t105.5 59.5v1q-58 13 -92 54.5t-34 101.5q0 81 66 136.5t179 55.5q112 0 178.5 -55.5t66.5 -136.5q0 -60 -34.5 -101.5
t-92.5 -54.5zM192 522v-11q0 -40 33 -67t84 -27t83.5 27t32.5 67v11q0 40 -31.5 66t-84.5 26t-85 -26t-32 -66zM176 211v-12q0 -47 36 -78.5t97 -31.5t97 31.5t36 78.5v12q0 45 -35.5 77t-97.5 32t-97.5 -32t-35.5 -77z" />
    <glyph glyph-name="nine" unicode="9" horiz-adv-x="610" 
d="M38 474q0 53 19.5 98t55 77t84.5 50.5t107 18.5q57 0 106 -19t84 -52t54.5 -78.5t19.5 -98.5q0 -64 -19.5 -115.5t-60.5 -109.5l-174 -245h-151l185 252h-1q-16 -9 -35 -15t-46 -6q-47 0 -88.5 17.5t-72.5 49.5t-49 77t-18 99zM434 465v12q0 57 -36.5 96.5t-96.5 39.5
q-59 0 -94.5 -39t-35.5 -97v-12q0 -57 34.5 -95t95.5 -38q57 0 95 37t38 96z" />
    <glyph glyph-name="colon" unicode=":" horiz-adv-x="290" 
d="M141 -10q-37 0 -63 26.5t-26 63.5t26 63t63 26t63 -26t26 -63t-26 -63.5t-63 -26.5zM141 337q-37 0 -63 26.5t-26 63.5t26 63t63 26t63 -26t26 -63t-26 -63.5t-63 -26.5z" />
    <glyph glyph-name="semicolon" unicode=";" horiz-adv-x="282" 
d="M142 -145h-113l66 289h132zM141 337q-37 0 -63 26.5t-26 63.5t26 63t63 26t63 -26t26 -63t-26 -63.5t-63 -26.5z" />
    <glyph glyph-name="less" unicode="&#x3c;" 
d="M562 51l-523 232v107l523 234v-121l-396 -165l396 -166v-121z" />
    <glyph glyph-name="equal" unicode="=" 
d="M49 389v108h542v-108h-542zM49 143v108h542v-108h-542z" />
    <glyph glyph-name="greater" unicode="&#x3e;" 
d="M78 624l523 -232v-107l-523 -234v121l396 165l-396 166v121z" />
    <glyph glyph-name="question" unicode="?" horiz-adv-x="548" 
d="M309 240h-117q-1 69 27 106.5t61 63t61 49t28 64.5q0 40 -26.5 64.5t-75.5 24.5q-51 0 -79 -28t-30 -74h-130q2 93 67.5 151t172.5 58q55 0 99 -15t74 -41t46 -61.5t16 -76.5q0 -62 -30.5 -96.5t-66.5 -59.5t-66.5 -52.5t-30.5 -76.5zM252 -9q-34 0 -58.5 24.5
t-24.5 58.5q0 35 24.5 59t58.5 24t58 -24t24 -59q0 -34 -24 -58.5t-58 -24.5z" />
    <glyph glyph-name="at" unicode="@" horiz-adv-x="917" 
d="M649 -134q-37 -19 -82.5 -28t-98.5 -9q-92 0 -171 31t-135.5 86t-88.5 132t-32 167q0 88 31.5 166t88.5 135.5t137.5 91t176.5 33.5q86 0 160 -28.5t127 -79t83.5 -122t30.5 -156.5q0 -119 -53 -183t-133 -64q-48 0 -81.5 23t-43.5 65h-1q-16 -41 -53.5 -67t-91.5 -26
q-66 0 -108.5 33.5t-42.5 90.5q0 59 44 89.5t119 39.5l51 6q30 4 43 15.5t13 30.5q0 22 -15.5 38t-54.5 16q-38 0 -58.5 -15.5t-21.5 -40.5h-106q7 60 55 97.5t132 37.5q37 0 69.5 -8.5t57 -26.5t38.5 -47t14 -70v-145q0 -31 14 -45t35 -14t37.5 13.5t27.5 36.5t17 53.5
t6 64.5q0 69 -23.5 125t-65 95.5t-98.5 61t-124 21.5q-74 0 -136 -26t-107 -71.5t-70 -108t-25 -135.5q0 -74 25.5 -135t70.5 -104.5t106 -67.5t132 -24q55 0 98.5 10t80.5 27v-85zM540 218v26q-7 -6 -19.5 -11.5t-29.5 -7.5l-44 -7q-34 -5 -53 -18.5t-19 -35.5v-3
q0 -22 17.5 -35t48.5 -13q46 0 72.5 29.5t26.5 75.5z" />
    <glyph glyph-name="A" unicode="A" horiz-adv-x="693" 
d="M546 0l-53 147h-300l-52 -147h-138l265 704h155l267 -704h-144zM340 562l-106 -299h217l-109 299h-2z" />
    <glyph glyph-name="B" unicode="B" horiz-adv-x="696" 
d="M83 0v704h329q96 0 157 -50.5t61 -134.5q0 -57 -30 -95.5t-81 -54.5v-1q59 -16 95.5 -58.5t36.5 -108.5q0 -47 -17 -84.5t-47 -63t-72 -39.5t-91 -14h-341zM496 499v10q0 38 -24.5 60.5t-69.5 22.5h-186v-176h186q45 0 69.5 22.5t24.5 60.5zM516 205v10q0 44 -28 69.5
t-79 25.5h-193v-197h195q51 0 78 26t27 66z" />
    <glyph glyph-name="C" unicode="C" horiz-adv-x="698" 
d="M370 103q72 0 110.5 35.5t47.5 83.5h140q-19 -106 -97 -171t-197 -65q-81 0 -143.5 28.5t-104 78t-63 116.5t-21.5 143t21.5 143t63 116.5t104 78.5t143.5 29q118 0 196 -64t96 -164h-142q-10 49 -49 80t-105 31q-39 0 -73.5 -15t-60.5 -43.5t-41 -70.5t-15 -96v-49
q0 -54 15 -96t41 -70.5t60.5 -43.5t73.5 -15z" />
    <glyph glyph-name="D" unicode="D" horiz-adv-x="727" 
d="M351 704q80 0 142.5 -27.5t104.5 -75t64 -112t22 -137.5t-22 -137.5t-63.5 -112t-104 -75t-143.5 -27.5h-268v704h268zM352 588h-135v-472h135q40 0 75.5 14t62 41t42 66.5t15.5 89.5v51q0 50 -15.5 89.5t-42 66t-62 40.5t-75.5 14z" />
    <glyph glyph-name="E" unicode="E" horiz-adv-x="633" 
d="M83 704h499v-116h-365v-170h333v-114h-333v-188h365v-116h-499v704z" />
    <glyph glyph-name="F" unicode="F" horiz-adv-x="608" 
d="M83 704h493v-116h-359v-184h330v-116h-330v-288h-134v704z" />
    <glyph glyph-name="G" unicode="G" horiz-adv-x="735" 
d="M570 0v123h-1q-16 -58 -69 -97.5t-140 -39.5q-77 0 -136.5 29t-99.5 78.5t-61 116.5t-21 142q0 76 22 143.5t64.5 116.5t105 78t142.5 29q123 0 201.5 -61.5t98.5 -161.5h-147q-9 42 -45.5 74t-105.5 32q-41 0 -77 -15t-63 -43.5t-42.5 -70.5t-15.5 -96v-52
q0 -54 15.5 -96t42 -70.5t62.5 -43.5t77 -15q42 0 74.5 14.5t54.5 38t33 54t11 61.5h-182v109h313v-377h-111z" />
    <glyph glyph-name="H" unicode="H" horiz-adv-x="759" 
d="M83 704h134v-284h325v284h135v-704h-135v304h-325v-304h-134v704z" />
    <glyph glyph-name="I" unicode="I" horiz-adv-x="300" 
d="M83 704h134v-704h-134v704z" />
    <glyph glyph-name="J" unicode="J" horiz-adv-x="626" 
d="M298 -15q-60 0 -108 18.5t-80.5 51t-50 77.5t-17.5 98v65h134v-61q0 -63 32.5 -97.5t89.5 -34.5q56 0 88 34.5t32 97.5v470h135v-474q0 -53 -17.5 -98t-50 -77.5t-80 -51t-107.5 -18.5z" />
    <glyph glyph-name="K" unicode="K" horiz-adv-x="682" 
d="M216 704v-704h-134v704h134zM518 0l-300 365l282 339h164l-285 -337l308 -367h-169z" />
    <glyph glyph-name="L" unicode="L" horiz-adv-x="573" 
d="M83 704h134v-588h343v-116h-477v704z" />
    <glyph glyph-name="M" unicode="M" horiz-adv-x="917" 
d="M83 0v704h198l178 -494h1l177 494h197v-704h-130v560h-1l-201 -561h-94l-200 557h-1v-556h-124z" />
    <glyph glyph-name="N" unicode="N" horiz-adv-x="763" 
d="M83 0v704h156l312 -505h1v505h128v-704h-147l-319 523h-1v-523h-130z" />
    <glyph glyph-name="O" unicode="O" horiz-adv-x="751" 
d="M375 -14q-80 0 -142.5 29t-104.5 78t-64 116t-22 143t22 143t64 116.5t104.5 78.5t142.5 29t142.5 -29t104.5 -78.5t64 -116.5t22 -143t-22 -143t-63.5 -116t-104 -78t-143.5 -29zM375 103q40 0 76 15t62.5 43.5t42 70.5t15.5 96v49q0 54 -15.5 96t-42 70.5t-62.5 43.5
t-76 15t-75.5 -15t-62 -43.5t-42 -70.5t-15.5 -96v-49q0 -54 15.5 -96t42 -70.5t62 -43.5t75.5 -15z" />
    <glyph glyph-name="P" unicode="P" horiz-adv-x="670" 
d="M83 0v704h318q59 0 105 -16.5t77 -45.5t47 -69t16 -87q0 -94 -63 -155.5t-182 -61.5h-184v-269h-134zM510 481v11q0 46 -29 71.5t-84 25.5h-180v-206h180q55 0 84 26t29 72z" />
    <glyph glyph-name="Q" unicode="Q" horiz-adv-x="751" 
d="M375 -14q-80 0 -142.5 29t-104.5 78t-64 116t-22 143t22 143t64 116.5t104.5 78.5t142.5 29t142.5 -29t104.5 -78.5t64 -116.5t22 -143q0 -103 -40 -188.5t-117 -131.5l186 -216h-159l-149 174q-13 -2 -26.5 -3t-27.5 -1zM375 103q40 0 76 15t62.5 43.5t42 70.5t15.5 96
v49q0 54 -15.5 96t-42 70.5t-62.5 43.5t-76 15t-75.5 -15t-62 -43.5t-42 -70.5t-15.5 -96v-49q0 -54 15.5 -96t42 -70.5t62 -43.5t75.5 -15z" />
    <glyph glyph-name="R" unicode="R" horiz-adv-x="691" 
d="M83 0v704h319q59 0 105 -16t77 -45t47 -68.5t16 -86.5q0 -94 -61.5 -151t-175.5 -57h-16l296 -280h-188l-285 277v-277h-134zM511 480v11q0 48 -29 74t-84 26h-181v-210h181q55 0 84 26.5t29 72.5z" />
    <glyph glyph-name="S" unicode="S" horiz-adv-x="646" 
d="M323 -15q-133 0 -212 62.5t-80 161.5h136q1 -57 43 -87t114 -30t110.5 29t38.5 75q0 44 -30.5 62.5t-89.5 27.5l-93 14q-93 14 -153 62t-60 144q0 44 18.5 83t53.5 68t86.5 46t116.5 17q67 0 118.5 -17t86 -45.5t53 -67t19.5 -80.5h-136q-1 45 -35.5 74t-106.5 29
t-105 -29t-33 -67q0 -45 31 -64.5t85 -27.5l91 -14q46 -7 86.5 -21t69.5 -38t46 -60t17 -86t-21 -91t-58.5 -69.5t-90.5 -44.5t-116 -16z" />
    <glyph glyph-name="T" unicode="T" horiz-adv-x="608" 
d="M237 588h-225v116h584v-116h-225v-588h-134v588z" />
    <glyph glyph-name="U" unicode="U" horiz-adv-x="717" 
d="M359 -15q-68 0 -121 20.5t-89.5 55.5t-56 84t-19.5 106v453h135v-449q0 -72 40 -113t111 -41q70 0 110.5 41t40.5 113v449h134v-453q0 -57 -19.5 -106t-55.5 -84t-89.5 -55.5t-120.5 -20.5z" />
    <glyph glyph-name="V" unicode="V" horiz-adv-x="667" 
d="M265 -1l-261 705h143l189 -547h2l190 547h135l-252 -705h-146z" />
    <glyph glyph-name="W" unicode="W" horiz-adv-x="972" 
d="M9 704h141l137 -499h2l140 501h126l142 -504h2l134 502h131l-200 -705h-130l-147 506h-2l-145 -506h-124z" />
    <glyph glyph-name="X" unicode="X" horiz-adv-x="661" 
d="M249 363l-232 341h156l159 -237h1l157 237h151l-231 -340l246 -364h-156l-172 259h-1l-172 -259h-151z" />
    <glyph glyph-name="Y" unicode="Y" horiz-adv-x="641" 
d="M253 0v269l-249 435h146l171 -304h2l170 304h144l-250 -435v-269h-134z" />
    <glyph glyph-name="Z" unicode="Z" horiz-adv-x="614" 
d="M199 116h381v-116h-543v116l366 472h-356v116h518v-116z" />
    <glyph glyph-name="bracketleft" unicode="[" horiz-adv-x="392" 
d="M78 744h290v-103h-168v-691h168v-104h-290v898z" />
    <glyph glyph-name="backslash" unicode="\" horiz-adv-x="516" 
d="M20 804h129l347 -904h-129z" />
    <glyph glyph-name="bracketright" unicode="]" horiz-adv-x="392" 
d="M314 -154h-290v103h168v691h-168v104h290v-898z" />
    <glyph glyph-name="asciicircum" unicode="^" horiz-adv-x="571" 
d="M548 399h-151l-109 167h-4l-110 -167h-151l205 305h115z" />
    <glyph glyph-name="underscore" unicode="_" horiz-adv-x="612" 
d="M43 0h525v-84h-525v84z" />
    <glyph glyph-name="grave" unicode="`" horiz-adv-x="505" 
d="M240 742l67 -146h-100l-104 146h137z" />
    <glyph glyph-name="a" unicode="a" horiz-adv-x="577" 
d="M52 372q8 74 67 120t161 46q45 0 85 -10.5t69 -32.5t46.5 -57t17.5 -85v-217q0 -22 8.5 -28.5t26.5 -6.5h31v-101h-72q-54 0 -77 23t-22 62v5h-1q-19 -47 -64 -75.5t-109 -28.5q-81 0 -132.5 42t-51.5 116q0 76 53.5 115t145.5 52l64 10q37 5 53.5 18t16.5 38
q0 26 -20 46.5t-70 20.5q-46 0 -70.5 -19.5t-27.5 -52.5h-128zM370 212v49q-8 -7 -23.5 -14t-37.5 -10l-55 -8q-43 -7 -68 -24.5t-25 -47.5v-6q0 -31 22.5 -49t62.5 -18q57 0 90.5 35.5t33.5 92.5z" />
    <glyph glyph-name="b" unicode="b" horiz-adv-x="630" 
d="M68 0v742h130v-294h1q22 41 63 65.5t100 24.5q56 0 99 -22.5t72 -60.5t43.5 -88t14.5 -105t-14.5 -105.5t-43.5 -88t-72 -60t-99 -22.5q-64 0 -106.5 27.5t-64.5 74.5h-1v-88h-122zM461 238v46q0 69 -39 107.5t-93 38.5t-92.5 -39t-38.5 -107v-46q0 -68 38.5 -107
t92.5 -39t93 38.5t39 107.5z" />
    <glyph glyph-name="c" unicode="c" horiz-adv-x="566" 
d="M168 284v-46q0 -68 37.5 -107t91.5 -39q48 0 74.5 25t34.5 58h126q-13 -86 -75 -137.5t-159 -51.5q-65 0 -114 22t-81 59.5t-48 88t-16 106.5t16 106.5t48.5 88t81 59.5t113.5 22q97 0 159 -52t75 -137h-126q-8 32 -34.5 57t-74.5 25q-54 0 -91.5 -39.5t-37.5 -107.5z
" />
    <glyph glyph-name="d" unicode="d" horiz-adv-x="630" 
d="M562 0h-122v88h-1q-22 -47 -65 -74.5t-106 -27.5q-56 0 -99 22.5t-72 60t-43.5 88t-14.5 105.5t14.5 105t43.5 88t72 60.5t99 22.5q59 0 99.5 -24.5t63.5 -65.5h1v294h130v-742zM169 238q0 -69 39 -107.5t93 -38.5t92.5 39t38.5 107v46q0 68 -38.5 107t-92.5 39
t-93 -38.5t-39 -107.5v-46z" />
    <glyph glyph-name="e" unicode="e" horiz-adv-x="590" 
d="M303 -14q-66 0 -116 22.5t-82.5 60t-49 88t-16.5 105.5t16.5 105t49 88t81 60.5t112.5 22.5q63 0 110.5 -21.5t79 -57.5t47.5 -83.5t16 -99.5v-47h-382q1 -69 40 -107.5t97 -38.5q49 0 75.5 23t30.5 49h130q-13 -75 -78 -122t-161 -47zM298 441q-51 0 -86.5 -33
t-41.5 -92h251q-2 60 -36.5 92.5t-86.5 32.5z" />
    <glyph glyph-name="f" unicode="f" horiz-adv-x="451" 
d="M130 0v418h-113v106h113v82q0 67 35.5 102.5t107.5 35.5h163v-101h-134q-22 0 -32.5 -10t-10.5 -33v-76h176v-106h-175v-418h-130z" />
    <glyph glyph-name="g" unicode="g" horiz-adv-x="626" 
d="M53 -33h128q5 -30 33.5 -52t79.5 -22q66 0 100.5 36.5t34.5 108.5v72h-1q-23 -40 -63 -64t-100 -24q-55 0 -97.5 21t-71 56.5t-43 83t-14.5 99.5q0 50 14.5 96.5t42.5 82t70.5 56.5t98.5 21q65 0 106.5 -27t63.5 -70h1v83h123v-476q0 -119 -69 -186.5t-196 -67.5
q-110 0 -172 50.5t-69 122.5zM169 291v-24q0 -66 38 -102.5t92 -36.5t92 37.5t38 101.5v24q0 66 -38 103t-92 37t-92 -36.5t-38 -103.5z" />
    <glyph glyph-name="h" unicode="h" horiz-adv-x="610" 
d="M198 308v-308h-130v742h127v-292h1q22 43 63.5 65.5t94.5 22.5q84 0 139 -55.5t55 -154.5v-328h-130v314q0 57 -32.5 85.5t-74.5 28.5q-44 0 -78.5 -30t-34.5 -90z" />
    <glyph glyph-name="i" unicode="i" horiz-adv-x="265" 
d="M137 585h-8q-34 0 -57 23t-23 54q0 33 23 55.5t57 22.5h8q34 0 56.5 -22.5t22.5 -55.5q0 -31 -22.5 -54t-56.5 -23zM68 524h130v-524h-130v524z" />
    <glyph glyph-name="j" unicode="j" horiz-adv-x="267" 
d="M138 585h-8q-34 0 -57 23t-23 54q0 33 23 55.5t57 22.5h8q34 0 57 -22.5t23 -55.5q0 -31 -23 -54t-57 -23zM69 -47v571h130v-580q0 -67 -35.5 -102.5t-107.5 -35.5h-128v104h98q22 0 32.5 10.5t10.5 32.5z" />
    <glyph glyph-name="k" unicode="k" horiz-adv-x="575" 
d="M198 742v-742h-130v742h130zM561 524l-212 -234l232 -290h-161l-222 286l207 238h156z" />
    <glyph glyph-name="l" unicode="l" horiz-adv-x="348" 
d="M63 138v604h130v-584q0 -26 12.5 -38.5t38.5 -12.5h87v-107h-125q-72 0 -107.5 35.5t-35.5 102.5z" />
    <glyph glyph-name="m" unicode="m" horiz-adv-x="921" 
d="M68 0v524h122v-77h1q19 45 59.5 68t92.5 23q56 0 99 -26t64 -75h1q22 49 66.5 75t99.5 26q80 0 133 -53.5t53 -147.5v-337h-130v323q0 53 -30 79t-69 26q-40 0 -71 -27.5t-31 -83.5v-317h-130v323q0 53 -30 79t-68 26q-40 0 -71 -27.5t-31 -83.5v-317h-130z" />
    <glyph glyph-name="n" unicode="n" horiz-adv-x="610" 
d="M198 308v-308h-130v524h122v-84h1q21 49 64.5 73.5t98.5 24.5q84 0 139 -55.5t55 -154.5v-328h-130v314q0 57 -32.5 85.5t-74.5 28.5q-44 0 -78.5 -30t-34.5 -90z" />
    <glyph glyph-name="o" unicode="o" horiz-adv-x="603" 
d="M302 -14q-65 0 -114.5 22.5t-82.5 60.5t-49.5 88t-16.5 105t16.5 105t49.5 88t82.5 60.5t114.5 22.5t114 -22.5t82 -60.5t49.5 -88.5t16.5 -104.5q0 -55 -16.5 -105t-49 -88t-82 -60.5t-114.5 -22.5zM434 239v45q0 70 -38.5 108.5t-93.5 38.5q-56 0 -94.5 -39t-38.5 -108
v-45q0 -68 38.5 -107t94.5 -39q55 0 93.5 38.5t38.5 107.5z" />
    <glyph glyph-name="p" unicode="p" horiz-adv-x="630" 
d="M68 524h122v-88h1q22 46 65 74t106 28q56 0 99 -22.5t72 -60t43.5 -88t14.5 -105.5t-14.5 -105t-43.5 -88t-72 -60.5t-99 -22.5q-60 0 -100.5 24.5t-62.5 65.5h-1v-268h-130v716zM461 285q0 70 -39 108.5t-93 38.5t-92.5 -39.5t-38.5 -107.5v-45q0 -69 38.5 -107.5
t92.5 -38.5t93 38t39 108v45z" />
    <glyph glyph-name="q" unicode="q" horiz-adv-x="630" 
d="M562 524v-716h-130v268h-1q-23 -41 -63.5 -65.5t-99.5 -24.5q-56 0 -99 22.5t-72 60.5t-43.5 88t-14.5 105t14.5 105.5t43.5 88t72 60t99 22.5q63 0 106 -28t65 -74h1v88h122zM169 285v-45q0 -70 39 -108t93 -38t92.5 38.5t38.5 107.5v45q0 68 -38.5 107.5t-92.5 39.5
t-93 -38.5t-39 -108.5z" />
    <glyph glyph-name="r" unicode="r" horiz-adv-x="433" 
d="M68 0v524h124v-92h1q10 33 45 63t104 30h64v-119h-88q-66 0 -93 -30.5t-27 -82.5v-293h-130z" />
    <glyph glyph-name="s" unicode="s" horiz-adv-x="534" 
d="M32 156h133q1 -40 30.5 -58t75.5 -18q45 0 72 17t27 48t-25.5 44.5t-66.5 18.5l-76 10q-64 9 -110.5 44t-46.5 110q0 40 17 71t47 52.5t71.5 32.5t88.5 11q102 0 160 -47t61 -116h-131q-1 32 -24.5 51t-68.5 19q-43 0 -66.5 -17.5t-23.5 -44.5t19 -41t53 -18l76 -11
q35 -5 67 -15.5t56.5 -29t39 -46.5t14.5 -67q0 -40 -18 -72t-49 -54.5t-74 -34t-93 -11.5q-103 0 -168.5 47t-66.5 125z" />
    <glyph glyph-name="t" unicode="t" horiz-adv-x="460" 
d="M18 524h114v147h130v-147h162v-106h-162v-269q0 -23 10.5 -33.5t32.5 -10.5h119v-105h-149q-72 0 -107.5 35.5t-35.5 102.5v280h-114v106z" />
    <glyph glyph-name="u" unicode="u" horiz-adv-x="610" 
d="M412 216v308h130v-524h-122v84h-1q-21 -49 -64.5 -73.5t-98.5 -24.5q-84 0 -139 55.5t-55 154.5v328h130v-314q0 -57 32.5 -85.5t74.5 -28.5q44 0 78.5 30t34.5 90z" />
    <glyph glyph-name="v" unicode="v" horiz-adv-x="544" 
d="M537 524l-193 -526h-134l-203 526h143l128 -371h1l127 371h131z" />
    <glyph glyph-name="w" unicode="w" horiz-adv-x="814" 
d="M10 524h136l100 -357h1l106 357h123l106 -356h1l99 356h123l-158 -526h-130l-107 367h-1l-108 -367h-125z" />
    <glyph glyph-name="x" unicode="x" horiz-adv-x="547" 
d="M5 0l188 266l-181 258h149l113 -166h1l114 166h146l-181 -255l188 -269h-149l-120 177h-2l-120 -177h-146z" />
    <glyph glyph-name="y" unicode="y" horiz-adv-x="543" 
d="M326 -42q-31 -81 -78.5 -115t-125.5 -34h-110v105h104q31 0 47.5 11t29.5 45l17 46l-203 508h143l128 -362h1l127 362h131z" />
    <glyph glyph-name="z" unicode="z" horiz-adv-x="512" 
d="M38 0v104l272 316h-264v104h415v-105l-271 -315h294v-104h-446z" />
    <glyph glyph-name="braceleft" unicode="{" horiz-adv-x="435" 
d="M40 243v105q38 0 69.5 20.5t31.5 66.5v158q0 73 38 111.5t108 38.5h125v-103h-83q-34 0 -50 -16t-16 -51v-148q0 -29 -11 -52.5t-28.5 -39.5t-40.5 -25t-47 -9v-8q24 0 47 -9t40.5 -25t28.5 -39.5t11 -52.5v-148q0 -35 16 -51t50 -16h83v-104h-125q-70 0 -108 39t-38 112
v159q0 46 -31.5 66.5t-69.5 20.5z" />
    <glyph glyph-name="bar" unicode="|" horiz-adv-x="317" 
d="M102 804h113v-981h-113v981z" />
    <glyph glyph-name="braceright" unicode="}" horiz-adv-x="435" 
d="M395 347v-105q-38 0 -69.5 -20.5t-31.5 -66.5v-158q0 -73 -38 -111.5t-108 -38.5h-125v103h83q34 0 50 16t16 51v148q0 29 11 52.5t28.5 39.5t40.5 25t47 9v8q-24 0 -47 9t-40.5 25t-28.5 39.5t-11 52.5v148q0 35 -16 51t-50 16h-83v104h125q70 0 108 -39t38 -112v-159
q0 -46 31.5 -66.5t69.5 -20.5z" />
    <glyph glyph-name="asciitilde" unicode="~" horiz-adv-x="723" 
d="M48 190q0 62 15.5 107t41.5 73t61.5 41.5t74.5 13.5q41 0 73 -17t59 -37t52 -37t51 -17q36 0 53.5 29t17.5 80h128q0 -60 -15.5 -105t-42 -74t-62.5 -43t-76 -14q-41 0 -72.5 16.5t-57.5 36t-49.5 36t-49.5 16.5q-37 0 -56 -31t-19 -74h-127z" />
    <glyph glyph-name="uni00A0" unicode="&#xa0;" horiz-adv-x="220" 
 />
    <glyph glyph-name="exclamdown" unicode="&#xa1;" horiz-adv-x="282" 
d="M141 538q37 0 63 -26.5t26 -63.5t-26 -63t-63 -26t-63 26t-26 63t26 63.5t63 26.5zM76 -176v243l30 209h74l31 -209v-243h-135z" />
    <glyph glyph-name="cent" unicode="&#xa2;" horiz-adv-x="586" 
d="M252 -60v141q-52 8 -91.5 33t-65 61t-38.5 82t-13 96t13 96t39 82t65 61t91 33v139h102v-139q76 -13 124 -62.5t59 -122.5h-126q-8 32 -34.5 57t-74.5 25q-54 0 -91.5 -39.5t-37.5 -107.5v-46q0 -68 37.5 -107t91.5 -39q48 0 74.5 25t34.5 58h126q-12 -74 -60 -123
t-123 -62v-141h-102z" />
    <glyph glyph-name="sterling" unicode="&#xa3;" horiz-adv-x="673" 
d="M45 0v108h107v171h-103v101h103v121q0 50 18 90.5t48.5 68.5t73.5 43.5t92 15.5q51 0 91.5 -15t69.5 -40.5t45.5 -60.5t19.5 -75h-128q-4 39 -29 63t-68 24t-73 -27.5t-30 -81.5v-126h228v-101h-228v-171h337v-108h-574z" />
    <glyph glyph-name="currency" unicode="&#xa4;" horiz-adv-x="713" 
d="M356 83q-34 0 -65 8t-58 24l-96 -96l-92 91l95 95q-16 28 -25 59.5t-9 65.5t9 66t25 59l-95 95l92 92l96 -97q27 16 58 24t65 8t65 -8t58 -24l97 97l92 -92l-95 -95q16 -28 24.5 -59.5t8.5 -65.5t-8.5 -65.5t-24.5 -59.5l95 -95l-92 -91l-96 96q-28 -16 -59 -24t-65 -8z
M357 195q53 0 90 39t37 96t-37.5 96t-89.5 39q-54 0 -91 -39t-37 -96t37 -96t91 -39z" />
    <glyph glyph-name="yen" unicode="&#xa5;" horiz-adv-x="650" 
d="M258 0v136h-191v93h191v40l-29 50h-162v93h109l-167 292h146l171 -304h2l170 304h144l-168 -292h96v-93h-149l-29 -50v-40h178v-93h-178v-136h-134z" />
    <glyph glyph-name="brokenbar" unicode="&#xa6;" horiz-adv-x="317" 
d="M102 804h113v-350h-113v350zM102 172h113v-349h-113v349z" />
    <glyph glyph-name="section" unicode="&#xa7;" horiz-adv-x="621" 
d="M482 114v-1q28 -19 43 -49t15 -71q0 -44 -18 -79.5t-49 -60t-74 -37.5t-93 -13q-104 0 -169.5 49t-66.5 131h134q1 -43 29.5 -63t77.5 -20q45 0 72 20t27 55q0 42 -29 57.5t-74 27.5l-107 30q-34 9 -64.5 23t-53.5 34.5t-36.5 48t-13.5 64.5q0 53 29.5 91t79.5 57v1
q-28 21 -43.5 52t-15.5 74q0 44 17.5 78.5t47.5 58t72 35.5t90 12q104 0 162.5 -49.5t61.5 -121.5h-131q-1 35 -25.5 55.5t-70.5 20.5q-45 0 -68.5 -22t-23.5 -55q0 -34 21 -51t56 -27l109 -29q36 -10 70 -23t60 -32.5t42 -49t16 -71.5q0 -52 -28.5 -90t-77.5 -60zM381 161
q35 6 56 26.5t21 52.5q0 39 -29.5 59t-74.5 32l-118 32q-34 -6 -53.5 -27.5t-19.5 -52.5q0 -35 22.5 -55t60.5 -30z" />
    <glyph glyph-name="dieresis" unicode="&#xa8;" horiz-adv-x="507" 
d="M160 607h-4q-28 0 -47 19.5t-19 46.5q0 28 19 46.5t47 18.5h4q28 0 47.5 -18.5t19.5 -46.5q0 -27 -19.5 -46.5t-47.5 -19.5zM355 607h-4q-28 0 -47 19.5t-19 46.5q0 28 19 46.5t47 18.5h4q28 0 47.5 -18.5t19.5 -46.5q0 -27 -19.5 -46.5t-47.5 -19.5z" />
    <glyph glyph-name="copyright" unicode="&#xa9;" horiz-adv-x="819" 
d="M410 -16q-77 0 -144.5 28.5t-117 77.5t-78 116.5t-28.5 144.5t28.5 144.5t78 117t117 78t144.5 28.5t144 -28.5t116.5 -78t78 -117t28.5 -144.5t-28.5 -144.5t-78 -116.5t-116.5 -77.5t-144 -28.5zM410 54q64 0 118.5 23.5t93 63.5t60.5 94.5t22 115.5q0 62 -22 117
t-60.5 95t-93 63.5t-118.5 23.5q-65 0 -119 -23.5t-93 -63.5t-60.5 -95t-21.5 -117t21.5 -116t60.5 -94t93 -63.5t119 -23.5zM496 287h96q-12 -67 -61 -105t-118 -38q-87 0 -142 58t-55 148v3q0 90 54.5 148.5t142.5 58.5q70 0 118.5 -38.5t59.5 -101.5h-96q-5 28 -27.5 44
t-54.5 16q-48 0 -75.5 -36.5t-27.5 -90.5v-2q0 -56 27.5 -92t74.5 -36q33 0 55.5 17.5t28.5 46.5z" />
    <glyph glyph-name="ordfeminine" unicode="&#xaa;" horiz-adv-x="378" 
d="M48 616q5 43 41 70.5t97 27.5q52 0 92 -25t40 -87v-121q0 -11 5 -15t15 -4h18v-66h-46q-33 0 -46.5 14t-13.5 37v1h-1q-11 -27 -37 -43.5t-63 -16.5q-49 0 -80 25t-31 69q0 46 32.5 70t89.5 31l34 4q20 3 29.5 10.5t9.5 20.5q0 14 -10.5 24.5t-37.5 10.5q-26 0 -39 -10.5
t-14 -26.5h-84zM235 520v27q-4 -4 -13.5 -8t-22.5 -6l-26 -4q-25 -3 -38.5 -12.5t-13.5 -25.5v-3q0 -16 12 -26.5t34 -10.5q31 0 49.5 19.5t18.5 49.5z" />
    <glyph glyph-name="guillemotleft" unicode="&#xab;" horiz-adv-x="655" 
d="M210 60l-182 216l182 216h136l-178 -216l178 -216h-136zM471 60l-182 216l182 216h136l-178 -216l178 -216h-136z" />
    <glyph glyph-name="logicalnot" unicode="&#xac;" horiz-adv-x="646" 
d="M48 266v108h519v-317h-108v209h-411z" />
    <glyph glyph-name="uni00AD" unicode="&#xad;" horiz-adv-x="383" 
d="M57 336h297v-104h-297v104z" />
    <glyph glyph-name="registered" unicode="&#xae;" horiz-adv-x="541" 
d="M271 264q-47 0 -89.5 17.5t-73.5 48.5t-49 72.5t-18 89.5q0 47 18 88.5t49 72t73.5 48t89.5 17.5t89 -17.5t73 -48t49 -72t18 -88.5q0 -48 -18 -89.5t-49 -72.5t-73 -48.5t-89 -17.5zM271 314q37 0 69.5 14t56.5 37.5t38 56.5t14 70t-14 69.5t-38 56.5t-56.5 37.5
t-69.5 13.5q-75 0 -127 -51t-52 -126t52 -126.5t127 -51.5zM319 384l-83 79v-79h-57v222h113q41 0 59 -21t18 -53q0 -28 -19 -44.5t-46 -19.5l89 -84h-74zM281 559h-45v-56h45q16 0 23 8t7 21t-7 20t-23 7z" />
    <glyph glyph-name="macron" unicode="&#xaf;" horiz-adv-x="492" 
d="M108 716h276v-84h-276v84z" />
    <glyph glyph-name="degree" unicode="&#xb0;" horiz-adv-x="493" 
d="M246 315q-41 0 -78 15.5t-64 42t-43 63t-16 79.5q0 42 16 78.5t43 63t64 42t78 15.5q42 0 79 -15.5t64 -42t43 -63t16 -78.5q0 -43 -16 -79.5t-43.5 -63t-64.5 -42t-78 -15.5zM246 413q43 0 72.5 28.5t29.5 73.5t-29.5 73t-72.5 28q-42 0 -72 -28t-30 -73t30 -73.5
t72 -28.5z" />
    <glyph glyph-name="plusminus" unicode="&#xb1;" 
d="M48 361v108h218v141h108v-141h218v-108h-218v-141h-108v141h-218zM48 37v108h544v-108h-544z" />
    <glyph glyph-name="twosuperior" unicode="&#xb2;" horiz-adv-x="385" 
d="M44 290v66q0 40 19.5 68t63.5 53l73 43q28 16 37 31.5t9 30.5v6q0 22 -14 38.5t-44 16.5q-27 0 -44 -15.5t-18 -46.5h-84q2 62 43 97t103 35q68 0 106 -37.5t38 -88.5q0 -37 -20 -69t-69 -61l-83 -49q-17 -10 -24 -20.5t-7 -24.5h209v-73h-294z" />
    <glyph glyph-name="threesuperior" unicode="&#xb3;" horiz-adv-x="390" 
d="M260 409v6q0 25 -17.5 41.5t-50.5 16.5h-61v61l103 98h-174v72h271v-72l-102 -97v-1q54 -7 86.5 -39.5t32.5 -84.5q0 -56 -41.5 -92t-114.5 -36q-70 0 -109.5 36.5t-41.5 88.5h86q2 -22 16.5 -39t50.5 -17q34 0 50 16.5t16 41.5z" />
    <glyph glyph-name="acute" unicode="&#xb4;" horiz-adv-x="505" 
d="M259 742h137l-104 -146h-100z" />
    <glyph glyph-name="uni00B5" unicode="&#xb5;" horiz-adv-x="610" 
d="M412 216v308h130v-524h-122v84h-1q-21 -49 -64.5 -73.5t-98.5 -24.5q-84 0 -139 55.5t-55 154.5v328h130v-314q0 -57 32.5 -85.5t74.5 -28.5q44 0 78.5 30t34.5 90z" />
    <glyph glyph-name="paragraph" unicode="&#xb6;" horiz-adv-x="784" 
d="M434 -192h-116v369h-14q-66 0 -115.5 21.5t-83 57.5t-50 84t-16.5 101q0 52 17 100t50 84t83 57.5t115 21.5h440v-105h-105v-791h-117v791h-88v-791zM304 282h14v317h-14q-57 0 -96 -36.5t-39 -100.5v-45q0 -63 39 -99t96 -36z" />
    <glyph glyph-name="periodcentered" unicode="&#xb7;" horiz-adv-x="282" 
d="M141 272q-37 0 -63 26.5t-26 63.5t26 63t63 26t63 -26t26 -63t-26 -63.5t-63 -26.5z" />
    <glyph glyph-name="cedilla" unicode="&#xb8;" horiz-adv-x="500" 
d="M159 -224v55h87q21 0 39.5 6.5t18.5 25.5t-17 26.5t-48 7.5h-37v44l26 66h71l-24 -59q54 0 89.5 -21t35.5 -59q0 -48 -34 -70t-84 -22h-123z" />
    <glyph glyph-name="onesuperior" unicode="&#xb9;" horiz-adv-x="285" 
d="M137 290v269h-102v72h102v73h87v-414h-87z" />
    <glyph glyph-name="ordmasculine" unicode="&#xba;" horiz-adv-x="392" 
d="M198 388q-40 0 -69.5 13.5t-49 36t-29 52t-9.5 61.5t9.5 61.5t29 52t49 36t69.5 13.5q39 0 68.5 -13.5t49 -36t29.5 -52t10 -61.5t-9.5 -61.5t-29 -52t-49 -36t-69.5 -13.5zM270 537v28q0 38 -20.5 58.5t-51.5 20.5q-30 0 -51 -21t-21 -58v-28q0 -37 21 -58.5t51 -21.5
q31 0 51.5 21t20.5 59z" />
    <glyph glyph-name="guillemotright" unicode="&#xbb;" horiz-adv-x="655" 
d="M445 492l182 -216l-182 -216h-136l178 216l-178 216h136zM184 492l182 -216l-182 -216h-136l178 216l-178 216h136z" />
    <glyph glyph-name="onequarter" unicode="&#xbc;" horiz-adv-x="875" 
d="M152 290v269h-102v72h102v73h87v-414h-87zM148 0l490 704h103l-490 -704h-103zM483 89v69l177 256h102v-253h63v-72h-63v-89h-87v89h-192zM566 162v-1h111v161h-1z" />
    <glyph glyph-name="onehalf" unicode="&#xbd;" horiz-adv-x="952" 
d="M152 290v269h-102v72h102v73h87v-414h-87zM163 0l490 704h103l-490 -704h-103zM607 0v66q0 40 20 68t64 53l72 43q28 16 37 31.5t9 30.5v6q0 22 -13.5 38.5t-43.5 16.5q-28 0 -45 -15.5t-18 -46.5h-84q2 62 43 97t104 35q68 0 106 -37.5t38 -88.5q0 -37 -20.5 -69
t-69.5 -61l-83 -49q-16 -10 -23 -19.5t-7 -22.5v-3h209v-73h-295z" />
    <glyph glyph-name="threequarters" unicode="&#xbe;" horiz-adv-x="924" 
d="M269 409v6q0 25 -17.5 41.5t-50.5 16.5h-61v61l103 98h-174v72h271v-72l-102 -97v-1q54 -7 86.5 -39.5t32.5 -84.5q0 -56 -41.5 -92t-114.5 -36q-70 0 -109.5 36.5t-41.5 88.5h86q2 -22 16.5 -39t50.5 -17q34 0 50 16.5t16 41.5zM197 0l490 704h103l-490 -704h-103z
M532 89v69l177 256h102v-253h63v-72h-63v-89h-87v89h-192zM615 162v-1h111v161h-1z" />
    <glyph glyph-name="questiondown" unicode="&#xbf;" horiz-adv-x="539" 
d="M287 538q34 0 58.5 -24.5t24.5 -58.5q0 -35 -24.5 -59t-58.5 -24t-58 24t-24 59q0 34 24 58.5t58 24.5zM230 289h117q1 -69 -27 -106.5t-61 -63t-61 -49t-28 -64.5q0 -40 26.5 -64.5t75.5 -24.5q51 0 79 28t30 74h130q-2 -93 -67.5 -151t-172.5 -58q-55 0 -99 15t-74 41
t-46 61.5t-16 76.5q0 62 30.5 96.5t66.5 59.5t66.5 52.5t30.5 76.5z" />
    <glyph glyph-name="Agrave" unicode="&#xc0;" horiz-adv-x="693" 
d="M546 0l-53 147h-300l-52 -147h-138l265 704h155l267 -704h-144zM340 562l-106 -299h217l-109 299h-2zM331 923l67 -146h-100l-104 146h137z" />
    <glyph glyph-name="Aacute" unicode="&#xc1;" horiz-adv-x="693" 
d="M546 0l-53 147h-300l-52 -147h-138l265 704h155l267 -704h-144zM340 562l-106 -299h217l-109 299h-2zM365 923h137l-104 -146h-100z" />
    <glyph glyph-name="Acircumflex" unicode="&#xc2;" horiz-adv-x="693" 
d="M546 0l-53 147h-300l-52 -147h-138l265 704h155l267 -704h-144zM340 562l-106 -299h217l-109 299h-2zM542 777h-120l-68 83h-6l-66 -83h-104l118 146h129z" />
    <glyph glyph-name="Atilde" unicode="&#xc3;" horiz-adv-x="693" 
d="M546 0l-53 147h-300l-52 -147h-138l265 704h155l267 -704h-144zM340 562l-106 -299h217l-109 299h-2zM416 778q-30 0 -49 11t-33.5 24t-28 24t-32.5 11q-22 0 -33 -14.5t-11 -44.5h-64v6q0 60 30 94t83 34h1q30 0 49.5 -11t34.5 -24.5t29 -24.5t34 -11q21 0 32 14t11 43
h64v-5q0 -60 -31 -93t-85 -33h-1z" />
    <glyph glyph-name="Adieresis" unicode="&#xc4;" horiz-adv-x="693" 
d="M546 0l-53 147h-300l-52 -147h-138l265 704h155l267 -704h-144zM340 562l-106 -299h217l-109 299h-2zM257 788h-4q-28 0 -47 19.5t-19 46.5q0 28 19 46.5t47 18.5h4q28 0 47.5 -18.5t19.5 -46.5q0 -27 -19.5 -46.5t-47.5 -19.5zM452 788h-4q-28 0 -47 19.5t-19 46.5
q0 28 19 46.5t47 18.5h4q28 0 47.5 -18.5t19.5 -46.5q0 -27 -19.5 -46.5t-47.5 -19.5z" />
    <glyph glyph-name="Aring" unicode="&#xc5;" horiz-adv-x="693" 
d="M546 0l-53 147h-300l-52 -147h-138l265 704h155l267 -704h-144zM340 562l-106 -299h217l-109 299h-2zM351 771q-51 0 -90 32.5t-39 86.5t39 87t90 33q52 0 90.5 -33t38.5 -87t-38.5 -86.5t-90.5 -32.5zM351 832q25 0 41 15t16 43t-16 43t-41 15t-41.5 -15t-16.5 -43
t16.5 -43t41.5 -15z" />
    <glyph glyph-name="AE" unicode="&#xc6;" horiz-adv-x="983" 
d="M546 0l-53 147h-300l-52 -147h-138l265 704h664v-116h-465l64 -170h369v-114h-325l71 -188h286v-116h-386zM340 562l-106 -299h217l-109 299h-2z" />
    <glyph glyph-name="Ccedilla" unicode="&#xc7;" horiz-adv-x="698" 
d="M370 103q72 0 110.5 35.5t47.5 83.5h140q-19 -106 -97 -171t-197 -65q-81 0 -143.5 28.5t-104 78t-63 116.5t-21.5 143t21.5 143t63 116.5t104 78.5t143.5 29q118 0 196 -64t96 -164h-142q-10 49 -49 80t-105 31q-39 0 -73.5 -15t-60.5 -43.5t-41 -70.5t-15 -96v-49
q0 -54 15 -96t41 -70.5t60.5 -43.5t73.5 -15zM270 -224v55h87q21 0 39.5 6.5t18.5 25.5t-17 26.5t-48 7.5h-37v44l26 66h71l-24 -59q54 0 89.5 -21t35.5 -59q0 -48 -34 -70t-84 -22h-123z" />
    <glyph glyph-name="Egrave" unicode="&#xc8;" horiz-adv-x="633" 
d="M83 704h499v-116h-365v-170h333v-114h-333v-188h365v-116h-499v704zM326 923l67 -146h-100l-104 146h137z" />
    <glyph glyph-name="Eacute" unicode="&#xc9;" horiz-adv-x="633" 
d="M83 704h499v-116h-365v-170h333v-114h-333v-188h365v-116h-499v704zM360 923h137l-104 -146h-100z" />
    <glyph glyph-name="Ecircumflex" unicode="&#xca;" horiz-adv-x="633" 
d="M83 704h499v-116h-365v-170h333v-114h-333v-188h365v-116h-499v704zM536 777h-120l-68 83h-6l-66 -83h-104l118 146h129z" />
    <glyph glyph-name="Edieresis" unicode="&#xcb;" horiz-adv-x="633" 
d="M83 704h499v-116h-365v-170h333v-114h-333v-188h365v-116h-499v704zM251 788h-4q-28 0 -47 19.5t-19 46.5q0 28 19 46.5t47 18.5h4q28 0 47.5 -18.5t19.5 -46.5q0 -27 -19.5 -46.5t-47.5 -19.5zM446 788h-4q-28 0 -47 19.5t-19 46.5q0 28 19 46.5t47 18.5h4
q28 0 47.5 -18.5t19.5 -46.5q0 -27 -19.5 -46.5t-47.5 -19.5z" />
    <glyph glyph-name="Igrave" unicode="&#xcc;" horiz-adv-x="300" 
d="M83 704h134v-704h-134v704zM133 923l67 -146h-100l-104 146h137z" />
    <glyph glyph-name="Iacute" unicode="&#xcd;" horiz-adv-x="300" 
d="M83 704h134v-704h-134v704zM168 923h137l-104 -146h-100z" />
    <glyph glyph-name="Icircumflex" unicode="&#xce;" horiz-adv-x="300" 
d="M83 704h134v-704h-134v704zM344 777h-120l-68 83h-6l-66 -83h-104l118 146h129z" />
    <glyph glyph-name="Idieresis" unicode="&#xcf;" horiz-adv-x="300" 
d="M83 704h134v-704h-134v704zM59 788h-4q-28 0 -47 19.5t-19 46.5q0 28 19 46.5t47 18.5h4q28 0 47.5 -18.5t19.5 -46.5q0 -27 -19.5 -46.5t-47.5 -19.5zM254 788h-4q-28 0 -47 19.5t-19 46.5q0 28 19 46.5t47 18.5h4q28 0 47.5 -18.5t19.5 -46.5q0 -27 -19.5 -46.5
t-47.5 -19.5z" />
    <glyph glyph-name="Eth" unicode="&#xd0;" horiz-adv-x="744" 
d="M30 304v116h71v284h268q80 0 142.5 -27.5t104.5 -75t64 -112t22 -137.5t-22 -137.5t-63.5 -112t-104 -75t-143.5 -27.5h-268v304h-71zM370 588h-135v-168h139v-116h-139v-188h135q40 0 75.5 14t62 41t42 66.5t15.5 89.5v51q0 50 -15.5 89.5t-42 66t-62 40.5t-75.5 14z
" />
    <glyph glyph-name="Ntilde" unicode="&#xd1;" horiz-adv-x="763" 
d="M83 0v704h156l312 -505h1v505h128v-704h-147l-319 523h-1v-523h-130zM464 778q-30 0 -49 11t-33.5 24t-28 24t-32.5 11q-22 0 -33 -14.5t-11 -44.5h-64v6q0 60 30 94t83 34h1q30 0 49.5 -11t34.5 -24.5t29 -24.5t34 -11q21 0 32 14t11 43h64v-5q0 -60 -31 -93t-85 -33h-1
z" />
    <glyph glyph-name="Ograve" unicode="&#xd2;" horiz-adv-x="751" 
d="M375 -14q-80 0 -142.5 29t-104.5 78t-64 116t-22 143t22 143t64 116.5t104.5 78.5t142.5 29t142.5 -29t104.5 -78.5t64 -116.5t22 -143t-22 -143t-63.5 -116t-104 -78t-143.5 -29zM375 103q40 0 76 15t62.5 43.5t42 70.5t15.5 96v49q0 54 -15.5 96t-42 70.5t-62.5 43.5
t-76 15t-75.5 -15t-62 -43.5t-42 -70.5t-15.5 -96v-49q0 -54 15.5 -96t42 -70.5t62 -43.5t75.5 -15zM358 923l67 -146h-100l-104 146h137z" />
    <glyph glyph-name="Oacute" unicode="&#xd3;" horiz-adv-x="751" 
d="M375 -14q-80 0 -142.5 29t-104.5 78t-64 116t-22 143t22 143t64 116.5t104.5 78.5t142.5 29t142.5 -29t104.5 -78.5t64 -116.5t22 -143t-22 -143t-63.5 -116t-104 -78t-143.5 -29zM375 103q40 0 76 15t62.5 43.5t42 70.5t15.5 96v49q0 54 -15.5 96t-42 70.5t-62.5 43.5
t-76 15t-75.5 -15t-62 -43.5t-42 -70.5t-15.5 -96v-49q0 -54 15.5 -96t42 -70.5t62 -43.5t75.5 -15zM392 923h137l-104 -146h-100z" />
    <glyph glyph-name="Ocircumflex" unicode="&#xd4;" horiz-adv-x="751" 
d="M375 -14q-80 0 -142.5 29t-104.5 78t-64 116t-22 143t22 143t64 116.5t104.5 78.5t142.5 29t142.5 -29t104.5 -78.5t64 -116.5t22 -143t-22 -143t-63.5 -116t-104 -78t-143.5 -29zM375 103q40 0 76 15t62.5 43.5t42 70.5t15.5 96v49q0 54 -15.5 96t-42 70.5t-62.5 43.5
t-76 15t-75.5 -15t-62 -43.5t-42 -70.5t-15.5 -96v-49q0 -54 15.5 -96t42 -70.5t62 -43.5t75.5 -15zM569 777h-120l-68 83h-6l-66 -83h-104l118 146h129z" />
    <glyph glyph-name="Otilde" unicode="&#xd5;" horiz-adv-x="751" 
d="M375 -14q-80 0 -142.5 29t-104.5 78t-64 116t-22 143t22 143t64 116.5t104.5 78.5t142.5 29t142.5 -29t104.5 -78.5t64 -116.5t22 -143t-22 -143t-63.5 -116t-104 -78t-143.5 -29zM375 103q40 0 76 15t62.5 43.5t42 70.5t15.5 96v49q0 54 -15.5 96t-42 70.5t-62.5 43.5
t-76 15t-75.5 -15t-62 -43.5t-42 -70.5t-15.5 -96v-49q0 -54 15.5 -96t42 -70.5t62 -43.5t75.5 -15zM443 778q-30 0 -49 11t-33.5 24t-28 24t-32.5 11q-22 0 -33 -14.5t-11 -44.5h-64v6q0 60 30 94t83 34h1q30 0 49.5 -11t34.5 -24.5t29 -24.5t34 -11q21 0 32 14t11 43h64
v-5q0 -60 -31 -93t-85 -33h-1z" />
    <glyph glyph-name="Odieresis" unicode="&#xd6;" horiz-adv-x="751" 
d="M375 -14q-80 0 -142.5 29t-104.5 78t-64 116t-22 143t22 143t64 116.5t104.5 78.5t142.5 29t142.5 -29t104.5 -78.5t64 -116.5t22 -143t-22 -143t-63.5 -116t-104 -78t-143.5 -29zM375 103q40 0 76 15t62.5 43.5t42 70.5t15.5 96v49q0 54 -15.5 96t-42 70.5t-62.5 43.5
t-76 15t-75.5 -15t-62 -43.5t-42 -70.5t-15.5 -96v-49q0 -54 15.5 -96t42 -70.5t62 -43.5t75.5 -15zM283 788h-4q-28 0 -47 19.5t-19 46.5q0 28 19 46.5t47 18.5h4q28 0 47.5 -18.5t19.5 -46.5q0 -27 -19.5 -46.5t-47.5 -19.5zM478 788h-4q-28 0 -47 19.5t-19 46.5
q0 28 19 46.5t47 18.5h4q28 0 47.5 -18.5t19.5 -46.5q0 -27 -19.5 -46.5t-47.5 -19.5z" />
    <glyph glyph-name="multiply" unicode="&#xd7;" 
d="M152 76l-76 76l168 168l-161 161l76 76l161 -161l168 168l76 -76l-168 -168l161 -161l-76 -76l-161 161z" />
    <glyph glyph-name="Oslash" unicode="&#xd8;" horiz-adv-x="751" 
d="M48 -21l81 112q-43 50 -65 117.5t-22 143.5t22 143t64 116.5t104.5 78.5t142.5 29q51 0 95 -12t80 -34l77 106l76 -54l-82 -113q43 -49 65 -116.5t22 -143.5t-22 -143t-63.5 -116t-104 -78t-143.5 -29q-51 0 -95 11.5t-80 33.5l-77 -106zM180 328q0 -37 8 -69.5t21 -57.5
l269 372q-22 14 -48.5 21.5t-54.5 7.5q-40 0 -75.5 -15t-62 -43.5t-42 -70.5t-15.5 -96v-49zM375 103q40 0 76 15t62.5 43.5t42 70.5t15.5 96v49q0 37 -8 69t-21 57l-269 -371q22 -14 48 -21.5t54 -7.5z" />
    <glyph glyph-name="Ugrave" unicode="&#xd9;" horiz-adv-x="717" 
d="M359 -15q-68 0 -121 20.5t-89.5 55.5t-56 84t-19.5 106v453h135v-449q0 -72 40 -113t111 -41q70 0 110.5 41t40.5 113v449h134v-453q0 -57 -19.5 -106t-55.5 -84t-89.5 -55.5t-120.5 -20.5zM342 923l67 -146h-100l-104 146h137z" />
    <glyph glyph-name="Uacute" unicode="&#xda;" horiz-adv-x="717" 
d="M359 -15q-68 0 -121 20.5t-89.5 55.5t-56 84t-19.5 106v453h135v-449q0 -72 40 -113t111 -41q70 0 110.5 41t40.5 113v449h134v-453q0 -57 -19.5 -106t-55.5 -84t-89.5 -55.5t-120.5 -20.5zM376 923h137l-104 -146h-100z" />
    <glyph glyph-name="Ucircumflex" unicode="&#xdb;" horiz-adv-x="717" 
d="M359 -15q-68 0 -121 20.5t-89.5 55.5t-56 84t-19.5 106v453h135v-449q0 -72 40 -113t111 -41q70 0 110.5 41t40.5 113v449h134v-453q0 -57 -19.5 -106t-55.5 -84t-89.5 -55.5t-120.5 -20.5zM553 777h-120l-68 83h-6l-66 -83h-104l118 146h129z" />
    <glyph glyph-name="Udieresis" unicode="&#xdc;" horiz-adv-x="717" 
d="M359 -15q-68 0 -121 20.5t-89.5 55.5t-56 84t-19.5 106v453h135v-449q0 -72 40 -113t111 -41q70 0 110.5 41t40.5 113v449h134v-453q0 -57 -19.5 -106t-55.5 -84t-89.5 -55.5t-120.5 -20.5zM267 788h-4q-28 0 -47 19.5t-19 46.5q0 28 19 46.5t47 18.5h4q28 0 47.5 -18.5
t19.5 -46.5q0 -27 -19.5 -46.5t-47.5 -19.5zM462 788h-4q-28 0 -47 19.5t-19 46.5q0 28 19 46.5t47 18.5h4q28 0 47.5 -18.5t19.5 -46.5q0 -27 -19.5 -46.5t-47.5 -19.5z" />
    <glyph glyph-name="Yacute" unicode="&#xdd;" horiz-adv-x="632" 
d="M253 0v269l-249 435h146l171 -304h2l170 304h144l-250 -435v-269h-134zM335 923h137l-104 -146h-100z" />
    <glyph glyph-name="Thorn" unicode="&#xde;" horiz-adv-x="670" 
d="M83 0v704h134v-105h184q59 0 105 -16.5t77 -45.5t47 -69t16 -87q0 -94 -63 -155.5t-182 -61.5h-184v-164h-134zM510 376v11q0 46 -29 71.5t-84 25.5h-180v-206h180q55 0 84 26t29 72z" />
    <glyph glyph-name="germandbls" unicode="&#xdf;" horiz-adv-x="628" 
d="M67 0v503q0 110 66 174.5t178 64.5q107 0 167.5 -55t60.5 -137q0 -48 -23.5 -88.5t-74.5 -61.5v-1q78 -17 113.5 -69.5t35.5 -115.5q0 -93 -66 -153.5t-179 -60.5h-87v102h69q63 0 98.5 32.5t35.5 81.5v7q0 57 -35.5 87t-93.5 30h-43v99h26q47 0 73 28.5t26 70.5v7
q0 40 -28.5 67t-74.5 27q-55 0 -85.5 -36t-30.5 -102v-501h-128z" />
    <glyph glyph-name="agrave" unicode="&#xe0;" horiz-adv-x="577" 
d="M52 372q8 74 67 120t161 46q45 0 85 -10.5t69 -32.5t46.5 -57t17.5 -85v-217q0 -22 8.5 -28.5t26.5 -6.5h31v-101h-72q-54 0 -77 23t-22 62v5h-1q-19 -47 -64 -75.5t-109 -28.5q-81 0 -132.5 42t-51.5 116q0 76 53.5 115t145.5 52l64 10q37 5 53.5 18t16.5 38
q0 26 -20 46.5t-70 20.5q-46 0 -70.5 -19.5t-27.5 -52.5h-128zM370 212v49q-8 -7 -23.5 -14t-37.5 -10l-55 -8q-43 -7 -68 -24.5t-25 -47.5v-6q0 -31 22.5 -49t62.5 -18q57 0 90.5 35.5t33.5 92.5zM259 742l67 -146h-100l-104 146h137z" />
    <glyph glyph-name="aacute" unicode="&#xe1;" horiz-adv-x="577" 
d="M52 372q8 74 67 120t161 46q45 0 85 -10.5t69 -32.5t46.5 -57t17.5 -85v-217q0 -22 8.5 -28.5t26.5 -6.5h31v-101h-72q-54 0 -77 23t-22 62v5h-1q-19 -47 -64 -75.5t-109 -28.5q-81 0 -132.5 42t-51.5 116q0 76 53.5 115t145.5 52l64 10q37 5 53.5 18t16.5 38
q0 26 -20 46.5t-70 20.5q-46 0 -70.5 -19.5t-27.5 -52.5h-128zM370 212v49q-8 -7 -23.5 -14t-37.5 -10l-55 -8q-43 -7 -68 -24.5t-25 -47.5v-6q0 -31 22.5 -49t62.5 -18q57 0 90.5 35.5t33.5 92.5zM293 742h137l-104 -146h-100z" />
    <glyph glyph-name="acircumflex" unicode="&#xe2;" horiz-adv-x="577" 
d="M52 372q8 74 67 120t161 46q45 0 85 -10.5t69 -32.5t46.5 -57t17.5 -85v-217q0 -22 8.5 -28.5t26.5 -6.5h31v-101h-72q-54 0 -77 23t-22 62v5h-1q-19 -47 -64 -75.5t-109 -28.5q-81 0 -132.5 42t-51.5 116q0 76 53.5 115t145.5 52l64 10q37 5 53.5 18t16.5 38
q0 26 -20 46.5t-70 20.5q-46 0 -70.5 -19.5t-27.5 -52.5h-128zM370 212v49q-8 -7 -23.5 -14t-37.5 -10l-55 -8q-43 -7 -68 -24.5t-25 -47.5v-6q0 -31 22.5 -49t62.5 -18q57 0 90.5 35.5t33.5 92.5zM469 596h-120l-68 83h-6l-66 -83h-104l118 146h129z" />
    <glyph glyph-name="atilde" unicode="&#xe3;" horiz-adv-x="577" 
d="M52 372q8 74 67 120t161 46q45 0 85 -10.5t69 -32.5t46.5 -57t17.5 -85v-217q0 -22 8.5 -28.5t26.5 -6.5h31v-101h-72q-54 0 -77 23t-22 62v5h-1q-19 -47 -64 -75.5t-109 -28.5q-81 0 -132.5 42t-51.5 116q0 76 53.5 115t145.5 52l64 10q37 5 53.5 18t16.5 38
q0 26 -20 46.5t-70 20.5q-46 0 -70.5 -19.5t-27.5 -52.5h-128zM370 212v49q-8 -7 -23.5 -14t-37.5 -10l-55 -8q-43 -7 -68 -24.5t-25 -47.5v-6q0 -31 22.5 -49t62.5 -18q57 0 90.5 35.5t33.5 92.5zM344 597q-30 0 -49 11t-33.5 24t-28 24t-32.5 11q-22 0 -33 -14.5
t-11 -44.5h-64v6q0 60 30 94t83 34h1q30 0 49.5 -11t34.5 -24.5t29 -24.5t34 -11q21 0 32 14t11 43h64v-5q0 -60 -31 -93t-85 -33h-1z" />
    <glyph glyph-name="adieresis" unicode="&#xe4;" horiz-adv-x="577" 
d="M52 372q8 74 67 120t161 46q45 0 85 -10.5t69 -32.5t46.5 -57t17.5 -85v-217q0 -22 8.5 -28.5t26.5 -6.5h31v-101h-72q-54 0 -77 23t-22 62v5h-1q-19 -47 -64 -75.5t-109 -28.5q-81 0 -132.5 42t-51.5 116q0 76 53.5 115t145.5 52l64 10q37 5 53.5 18t16.5 38
q0 26 -20 46.5t-70 20.5q-46 0 -70.5 -19.5t-27.5 -52.5h-128zM370 212v49q-8 -7 -23.5 -14t-37.5 -10l-55 -8q-43 -7 -68 -24.5t-25 -47.5v-6q0 -31 22.5 -49t62.5 -18q57 0 90.5 35.5t33.5 92.5zM184 607h-4q-28 0 -47 19.5t-19 46.5q0 28 19 46.5t47 18.5h4
q28 0 47.5 -18.5t19.5 -46.5q0 -27 -19.5 -46.5t-47.5 -19.5zM379 607h-4q-28 0 -47 19.5t-19 46.5q0 28 19 46.5t47 18.5h4q28 0 47.5 -18.5t19.5 -46.5q0 -27 -19.5 -46.5t-47.5 -19.5z" />
    <glyph glyph-name="aring" unicode="&#xe5;" horiz-adv-x="577" 
d="M52 372q8 74 67 120t161 46q45 0 85 -10.5t69 -32.5t46.5 -57t17.5 -85v-217q0 -22 8.5 -28.5t26.5 -6.5h31v-101h-72q-54 0 -77 23t-22 62v5h-1q-19 -47 -64 -75.5t-109 -28.5q-81 0 -132.5 42t-51.5 116q0 76 53.5 115t145.5 52l64 10q37 5 53.5 18t16.5 38
q0 26 -20 46.5t-70 20.5q-46 0 -70.5 -19.5t-27.5 -52.5h-128zM370 212v49q-8 -7 -23.5 -14t-37.5 -10l-55 -8q-43 -7 -68 -24.5t-25 -47.5v-6q0 -31 22.5 -49t62.5 -18q57 0 90.5 35.5t33.5 92.5zM278 590q-51 0 -90 32.5t-39 86.5t39 87t90 33q52 0 90.5 -33t38.5 -87
t-38.5 -86.5t-90.5 -32.5zM278 651q25 0 41 15t16 43t-16 43t-41 15t-41.5 -15t-16.5 -43t16.5 -43t41.5 -15z" />
    <glyph glyph-name="ae" unicode="&#xe6;" horiz-adv-x="928" 
d="M451 432h1q28 47 75 76.5t116 29.5q60 0 106.5 -21.5t77.5 -57.5t47 -83.5t16 -99.5v-47h-386q1 -69 39.5 -107.5t98.5 -38.5q51 0 77.5 24t30.5 50h129q-13 -76 -76.5 -123.5t-155.5 -47.5q-85 0 -138.5 43t-77.5 110h-1q-13 -69 -72 -111t-139 -42q-81 0 -132.5 42
t-51.5 116q0 76 53.5 115t145.5 52l65 10q36 5 52.5 18t16.5 38t-20 46t-69 21q-47 0 -71.5 -19.5t-26.5 -52.5h-128q7 74 64.5 120t155.5 46q66 0 111.5 -25.5t66.5 -80.5zM634 441q-50 0 -86 -33t-43 -92h254q-3 60 -38 92.5t-87 32.5zM371 212v50q-7 -7 -23 -14.5
t-39 -10.5l-54 -8q-44 -7 -68.5 -24.5t-24.5 -47.5v-6q0 -31 22 -49t62 -18q57 0 91 35.5t34 92.5z" />
    <glyph glyph-name="ccedilla" unicode="&#xe7;" horiz-adv-x="569" 
d="M168 284v-46q0 -68 37.5 -107t91.5 -39q48 0 74.5 25t34.5 58h126q-13 -86 -75 -137.5t-159 -51.5q-65 0 -114 22t-81 59.5t-48 88t-16 106.5t16 106.5t48.5 88t81 59.5t113.5 22q97 0 159 -52t75 -137h-126q-8 32 -34.5 57t-74.5 25q-54 0 -91.5 -39.5t-37.5 -107.5z
M195 -224v55h87q21 0 39.5 6.5t18.5 25.5t-17 26.5t-48 7.5h-37v44l26 66h71l-24 -59q54 0 89.5 -21t35.5 -59q0 -48 -34 -70t-84 -22h-123z" />
    <glyph glyph-name="egrave" unicode="&#xe8;" horiz-adv-x="590" 
d="M303 -14q-66 0 -116 22.5t-82.5 60t-49 88t-16.5 105.5t16.5 105t49 88t81 60.5t112.5 22.5q63 0 110.5 -21.5t79 -57.5t47.5 -83.5t16 -99.5v-47h-382q1 -69 40 -107.5t97 -38.5q49 0 75.5 23t30.5 49h130q-13 -75 -78 -122t-161 -47zM298 441q-51 0 -86.5 -33
t-41.5 -92h251q-2 60 -36.5 92.5t-86.5 32.5zM281 743l67 -146h-100l-104 146h137z" />
    <glyph glyph-name="eacute" unicode="&#xe9;" horiz-adv-x="590" 
d="M303 -14q-66 0 -116 22.5t-82.5 60t-49 88t-16.5 105.5t16.5 105t49 88t81 60.5t112.5 22.5q63 0 110.5 -21.5t79 -57.5t47.5 -83.5t16 -99.5v-47h-382q1 -69 40 -107.5t97 -38.5q49 0 75.5 23t30.5 49h130q-13 -75 -78 -122t-161 -47zM298 441q-51 0 -86.5 -33
t-41.5 -92h251q-2 60 -36.5 92.5t-86.5 32.5zM315 743h137l-104 -146h-100z" />
    <glyph glyph-name="ecircumflex" unicode="&#xea;" horiz-adv-x="590" 
d="M303 -14q-66 0 -116 22.5t-82.5 60t-49 88t-16.5 105.5t16.5 105t49 88t81 60.5t112.5 22.5q63 0 110.5 -21.5t79 -57.5t47.5 -83.5t16 -99.5v-47h-382q1 -69 40 -107.5t97 -38.5q49 0 75.5 23t30.5 49h130q-13 -75 -78 -122t-161 -47zM298 441q-51 0 -86.5 -33
t-41.5 -92h251q-2 60 -36.5 92.5t-86.5 32.5zM492 597h-120l-68 83h-6l-66 -83h-104l118 146h129z" />
    <glyph glyph-name="edieresis" unicode="&#xeb;" horiz-adv-x="590" 
d="M303 -14q-66 0 -116 22.5t-82.5 60t-49 88t-16.5 105.5t16.5 105t49 88t81 60.5t112.5 22.5q63 0 110.5 -21.5t79 -57.5t47.5 -83.5t16 -99.5v-47h-382q1 -69 40 -107.5t97 -38.5q49 0 75.5 23t30.5 49h130q-13 -75 -78 -122t-161 -47zM298 441q-51 0 -86.5 -33
t-41.5 -92h251q-2 60 -36.5 92.5t-86.5 32.5zM207 608h-4q-28 0 -47 19.5t-19 46.5q0 28 19 46.5t47 18.5h4q28 0 47.5 -18.5t19.5 -46.5q0 -27 -19.5 -46.5t-47.5 -19.5zM402 608h-4q-28 0 -47 19.5t-19 46.5q0 28 19 46.5t47 18.5h4q28 0 47.5 -18.5t19.5 -46.5
q0 -27 -19.5 -46.5t-47.5 -19.5z" />
    <glyph glyph-name="igrave" unicode="&#xec;" horiz-adv-x="265" 
d="M68 524h130v-524h-130v524zM116 743l67 -146h-100l-104 146h137z" />
    <glyph glyph-name="iacute" unicode="&#xed;" horiz-adv-x="265" 
d="M68 524h130v-524h-130v524zM150 743h137l-104 -146h-100z" />
    <glyph glyph-name="icircumflex" unicode="&#xee;" horiz-adv-x="265" 
d="M68 524h130v-524h-130v524zM326 597h-120l-68 83h-6l-66 -83h-104l118 146h129z" />
    <glyph glyph-name="idieresis" unicode="&#xef;" horiz-adv-x="265" 
d="M68 524h130v-524h-130v524zM41 608h-4q-28 0 -47 19.5t-19 46.5q0 28 19 46.5t47 18.5h4q28 0 47.5 -18.5t19.5 -46.5q0 -27 -19.5 -46.5t-47.5 -19.5zM236 608h-4q-28 0 -47 19.5t-19 46.5q0 28 19 46.5t47 18.5h4q28 0 47.5 -18.5t19.5 -46.5q0 -27 -19.5 -46.5
t-47.5 -19.5z" />
    <glyph glyph-name="eth" unicode="&#xf0;" horiz-adv-x="596" 
d="M108 518v64l131 44q-19 14 -41 28t-45 27l77 73q36 -20 68 -42.5t60 -46.5l143 48v-64l-92 -31q74 -77 111 -169t37 -197q0 -53 -16.5 -101.5t-48.5 -85t-81 -58t-113 -21.5t-113 21t-81 56t-48.5 81.5t-16.5 97.5q0 49 15 93t44 77t72.5 52.5t99.5 19.5q60 0 102.5 -30
t65.5 -77h1q-16 57 -52.5 107.5t-89.5 96.5zM426 228v19q0 65 -37 100.5t-91 35.5t-91.5 -36.5t-37.5 -99.5v-19q0 -63 37.5 -99.5t91.5 -36.5t91 35.5t37 100.5z" />
    <glyph glyph-name="ntilde" unicode="&#xf1;" horiz-adv-x="612" 
d="M198 308v-308h-130v524h122v-84h1q21 49 64.5 73.5t98.5 24.5q84 0 139 -55.5t55 -154.5v-328h-130v314q0 57 -32.5 85.5t-74.5 28.5q-44 0 -78.5 -30t-34.5 -90zM384 598q-30 0 -49 11t-33.5 24t-28 24t-32.5 11q-22 0 -33 -14.5t-11 -44.5h-64v6q0 60 30 94t83 34h1
q30 0 49.5 -11t34.5 -24.5t29 -24.5t34 -11q21 0 32 14t11 43h64v-5q0 -60 -31 -93t-85 -33h-1z" />
    <glyph glyph-name="ograve" unicode="&#xf2;" horiz-adv-x="603" 
d="M302 -14q-65 0 -114.5 22.5t-82.5 60.5t-49.5 88t-16.5 105t16.5 105t49.5 88t82.5 60.5t114.5 22.5t114 -22.5t82 -60.5t49.5 -88.5t16.5 -104.5q0 -55 -16.5 -105t-49 -88t-82 -60.5t-114.5 -22.5zM434 239v45q0 70 -38.5 108.5t-93.5 38.5q-56 0 -94.5 -39t-38.5 -108
v-45q0 -68 38.5 -107t94.5 -39q55 0 93.5 38.5t38.5 107.5zM285 742l67 -146h-100l-104 146h137z" />
    <glyph glyph-name="oacute" unicode="&#xf3;" horiz-adv-x="603" 
d="M302 -14q-65 0 -114.5 22.5t-82.5 60.5t-49.5 88t-16.5 105t16.5 105t49.5 88t82.5 60.5t114.5 22.5t114 -22.5t82 -60.5t49.5 -88.5t16.5 -104.5q0 -55 -16.5 -105t-49 -88t-82 -60.5t-114.5 -22.5zM434 239v45q0 70 -38.5 108.5t-93.5 38.5q-56 0 -94.5 -39t-38.5 -108
v-45q0 -68 38.5 -107t94.5 -39q55 0 93.5 38.5t38.5 107.5zM319 742h137l-104 -146h-100z" />
    <glyph glyph-name="ocircumflex" unicode="&#xf4;" horiz-adv-x="603" 
d="M302 -14q-65 0 -114.5 22.5t-82.5 60.5t-49.5 88t-16.5 105t16.5 105t49.5 88t82.5 60.5t114.5 22.5t114 -22.5t82 -60.5t49.5 -88.5t16.5 -104.5q0 -55 -16.5 -105t-49 -88t-82 -60.5t-114.5 -22.5zM434 239v45q0 70 -38.5 108.5t-93.5 38.5q-56 0 -94.5 -39t-38.5 -108
v-45q0 -68 38.5 -107t94.5 -39q55 0 93.5 38.5t38.5 107.5zM496 596h-120l-68 83h-6l-66 -83h-104l118 146h129z" />
    <glyph glyph-name="otilde" unicode="&#xf5;" horiz-adv-x="603" 
d="M302 -14q-65 0 -114.5 22.5t-82.5 60.5t-49.5 88t-16.5 105t16.5 105t49.5 88t82.5 60.5t114.5 22.5t114 -22.5t82 -60.5t49.5 -88.5t16.5 -104.5q0 -55 -16.5 -105t-49 -88t-82 -60.5t-114.5 -22.5zM434 239v45q0 70 -38.5 108.5t-93.5 38.5q-56 0 -94.5 -39t-38.5 -108
v-45q0 -68 38.5 -107t94.5 -39q55 0 93.5 38.5t38.5 107.5zM370 597q-30 0 -49 11t-33.5 24t-28 24t-32.5 11q-22 0 -33 -14.5t-11 -44.5h-64v6q0 60 30 94t83 34h1q30 0 49.5 -11t34.5 -24.5t29 -24.5t34 -11q21 0 32 14t11 43h64v-5q0 -60 -31 -93t-85 -33h-1z" />
    <glyph glyph-name="odieresis" unicode="&#xf6;" horiz-adv-x="603" 
d="M302 -14q-65 0 -114.5 22.5t-82.5 60.5t-49.5 88t-16.5 105t16.5 105t49.5 88t82.5 60.5t114.5 22.5t114 -22.5t82 -60.5t49.5 -88.5t16.5 -104.5q0 -55 -16.5 -105t-49 -88t-82 -60.5t-114.5 -22.5zM434 239v45q0 70 -38.5 108.5t-93.5 38.5q-56 0 -94.5 -39t-38.5 -108
v-45q0 -68 38.5 -107t94.5 -39q55 0 93.5 38.5t38.5 107.5zM210 607h-4q-28 0 -47 19.5t-19 46.5q0 28 19 46.5t47 18.5h4q28 0 47.5 -18.5t19.5 -46.5q0 -27 -19.5 -46.5t-47.5 -19.5zM405 607h-4q-28 0 -47 19.5t-19 46.5q0 28 19 46.5t47 18.5h4q28 0 47.5 -18.5
t19.5 -46.5q0 -27 -19.5 -46.5t-47.5 -19.5z" />
    <glyph glyph-name="divide" unicode="&#xf7;" 
d="M322 439q-31 0 -52.5 22t-21.5 53t21.5 53t52.5 22t53 -22t22 -53t-22 -53t-53 -22zM48 266v108h544v-108h-544zM322 54q-31 0 -52.5 22t-21.5 53t21.5 53t52.5 22t53 -22t22 -53t-22 -53t-53 -22z" />
    <glyph glyph-name="oslash" unicode="&#xf8;" horiz-adv-x="605" 
d="M22 -10l75 89q-29 37 -43.5 84.5t-14.5 98.5q0 55 16.5 105t49.5 88t82.5 60.5t114.5 22.5q44 0 81.5 -11t66.5 -30l74 87l59 -51l-76 -90q28 -37 42.5 -83.5t14.5 -97.5q0 -55 -16.5 -105t-49 -88t-82 -60.5t-114.5 -22.5q-45 0 -82 11t-67 30l-73 -87zM169 239
q0 -17 3 -33t8 -29l196 232q-16 11 -34.5 16.5t-39.5 5.5q-56 0 -94.5 -39t-38.5 -108v-45zM434 239v45q0 17 -3 33t-7 29l-196 -231q16 -11 34.5 -16.5t39.5 -5.5q55 0 93.5 38.5t38.5 107.5z" />
    <glyph glyph-name="ugrave" unicode="&#xf9;" horiz-adv-x="612" 
d="M412 216v308h130v-524h-122v84h-1q-21 -49 -64.5 -73.5t-98.5 -24.5q-84 0 -139 55.5t-55 154.5v328h130v-314q0 -57 32.5 -85.5t74.5 -28.5q44 0 78.5 30t34.5 90zM286 743l67 -146h-100l-104 146h137z" />
    <glyph glyph-name="uacute" unicode="&#xfa;" horiz-adv-x="612" 
d="M412 216v308h130v-524h-122v84h-1q-21 -49 -64.5 -73.5t-98.5 -24.5q-84 0 -139 55.5t-55 154.5v328h130v-314q0 -57 32.5 -85.5t74.5 -28.5q44 0 78.5 30t34.5 90zM320 743h137l-104 -146h-100z" />
    <glyph glyph-name="ucircumflex" unicode="&#xfb;" horiz-adv-x="612" 
d="M412 216v308h130v-524h-122v84h-1q-21 -49 -64.5 -73.5t-98.5 -24.5q-84 0 -139 55.5t-55 154.5v328h130v-314q0 -57 32.5 -85.5t74.5 -28.5q44 0 78.5 30t34.5 90zM497 597h-120l-68 83h-6l-66 -83h-104l118 146h129z" />
    <glyph glyph-name="udieresis" unicode="&#xfc;" horiz-adv-x="612" 
d="M412 216v308h130v-524h-122v84h-1q-21 -49 -64.5 -73.5t-98.5 -24.5q-84 0 -139 55.5t-55 154.5v328h130v-314q0 -57 32.5 -85.5t74.5 -28.5q44 0 78.5 30t34.5 90zM212 608h-4q-28 0 -47 19.5t-19 46.5q0 28 19 46.5t47 18.5h4q28 0 47.5 -18.5t19.5 -46.5
q0 -27 -19.5 -46.5t-47.5 -19.5zM407 608h-4q-28 0 -47 19.5t-19 46.5q0 28 19 46.5t47 18.5h4q28 0 47.5 -18.5t19.5 -46.5q0 -27 -19.5 -46.5t-47.5 -19.5z" />
    <glyph glyph-name="yacute" unicode="&#xfd;" horiz-adv-x="543" 
d="M326 -42q-31 -81 -78.5 -115t-125.5 -34h-110v105h104q31 0 47.5 11t29.5 45l17 46l-203 508h143l128 -362h1l127 362h131zM299 743h137l-104 -146h-100z" />
    <glyph glyph-name="thorn" unicode="&#xfe;" horiz-adv-x="630" 
d="M67 -189v931h130v-294h1q22 41 63 65.5t100 24.5q56 0 99 -22.5t72 -60.5t43.5 -88t14.5 -105t-14.5 -105.5t-43.5 -88t-72 -60t-99 -22.5q-64 0 -106.5 27.5t-64.5 74.5h-1v-52h1v-225h-123zM460 238v46q0 69 -39 107.5t-93 38.5t-92.5 -39t-38.5 -107v-46
q0 -68 38.5 -107t92.5 -39t93 38.5t39 107.5z" />
    <glyph glyph-name="ydieresis" unicode="&#xff;" horiz-adv-x="543" 
d="M326 -42q-31 -81 -78.5 -115t-125.5 -34h-110v105h104q31 0 47.5 11t29.5 45l17 46l-203 508h143l128 -362h1l127 362h131zM190 608h-4q-28 0 -47 19.5t-19 46.5q0 28 19 46.5t47 18.5h4q28 0 47.5 -18.5t19.5 -46.5q0 -27 -19.5 -46.5t-47.5 -19.5zM385 608h-4
q-28 0 -47 19.5t-19 46.5q0 28 19 46.5t47 18.5h4q28 0 47.5 -18.5t19.5 -46.5q0 -27 -19.5 -46.5t-47.5 -19.5z" />
    <glyph glyph-name="Amacron" unicode="&#x100;" horiz-adv-x="693" 
d="M546 0l-53 147h-300l-52 -147h-138l265 704h155l267 -704h-144zM340 562l-106 -299h217l-109 299h-2zM211 897h276v-84h-276v84z" />
    <glyph glyph-name="amacron" unicode="&#x101;" horiz-adv-x="577" 
d="M52 372q8 74 67 120t161 46q45 0 85 -10.5t69 -32.5t46.5 -57t17.5 -85v-217q0 -22 8.5 -28.5t26.5 -6.5h31v-101h-72q-54 0 -77 23t-22 62v5h-1q-19 -47 -64 -75.5t-109 -28.5q-81 0 -132.5 42t-51.5 116q0 76 53.5 115t145.5 52l64 10q37 5 53.5 18t16.5 38
q0 26 -20 46.5t-70 20.5q-46 0 -70.5 -19.5t-27.5 -52.5h-128zM370 212v49q-8 -7 -23.5 -14t-37.5 -10l-55 -8q-43 -7 -68 -24.5t-25 -47.5v-6q0 -31 22.5 -49t62.5 -18q57 0 90.5 35.5t33.5 92.5zM138 716h276v-84h-276v84z" />
    <glyph glyph-name="Abreve" unicode="&#x102;" horiz-adv-x="693" 
d="M546 0l-53 147h-300l-52 -147h-138l265 704h155l267 -704h-144zM340 562l-106 -299h217l-109 299h-2zM341 777q-76 0 -118.5 43t-42.5 103h101q0 -32 17.5 -48.5t48.5 -16.5q32 0 48.5 17t16.5 48h100q0 -59 -42.5 -102.5t-117.5 -43.5h-11z" />
    <glyph glyph-name="abreve" unicode="&#x103;" horiz-adv-x="577" 
d="M52 372q8 74 67 120t161 46q45 0 85 -10.5t69 -32.5t46.5 -57t17.5 -85v-217q0 -22 8.5 -28.5t26.5 -6.5h31v-101h-72q-54 0 -77 23t-22 62v5h-1q-19 -47 -64 -75.5t-109 -28.5q-81 0 -132.5 42t-51.5 116q0 76 53.5 115t145.5 52l64 10q37 5 53.5 18t16.5 38
q0 26 -20 46.5t-70 20.5q-46 0 -70.5 -19.5t-27.5 -52.5h-128zM370 212v49q-8 -7 -23.5 -14t-37.5 -10l-55 -8q-43 -7 -68 -24.5t-25 -47.5v-6q0 -31 22.5 -49t62.5 -18q57 0 90.5 35.5t33.5 92.5zM268 596q-76 0 -118.5 43t-42.5 103h101q0 -32 17.5 -48.5t48.5 -16.5
q32 0 48.5 17t16.5 48h100q0 -59 -42.5 -102.5t-117.5 -43.5h-11z" />
    <glyph glyph-name="Aogonek" unicode="&#x104;" horiz-adv-x="693" 
d="M546 0l-53 147h-300l-52 -147h-138l265 704h155l267 -704h-144zM340 562l-106 -299h217l-109 299h-2zM615 31v-31q-35 -23 -54 -41.5t-19 -38.5q0 -15 12 -25t40 -10h70v-85h-101q-56 0 -83.5 28t-27.5 64q0 40 41 74t122 65z" />
    <glyph glyph-name="aogonek" unicode="&#x105;" horiz-adv-x="577" 
d="M52 372q8 74 67 120t161 46q45 0 85 -10.5t69 -32.5t46.5 -57t17.5 -85v-217q0 -22 8.5 -28.5t26.5 -6.5h31v-101h-72q-54 0 -77 23t-22 62v5h-1q-19 -47 -64 -75.5t-109 -28.5q-81 0 -132.5 42t-51.5 116q0 76 53.5 115t145.5 52l64 10q37 5 53.5 18t16.5 38
q0 26 -20 46.5t-70 20.5q-46 0 -70.5 -19.5t-27.5 -52.5h-128zM370 212v49q-8 -7 -23.5 -14t-37.5 -10l-55 -8q-43 -7 -68 -24.5t-25 -47.5v-6q0 -31 22.5 -49t62.5 -18q57 0 90.5 35.5t33.5 92.5zM564 31v-31q-35 -23 -54 -41.5t-19 -38.5q0 -15 12 -25t40 -10h70v-85h-101
q-56 0 -83.5 28t-27.5 64q0 40 41 74t122 65z" />
    <glyph glyph-name="Cacute" unicode="&#x106;" horiz-adv-x="698" 
d="M370 103q72 0 110.5 35.5t47.5 83.5h140q-19 -106 -97 -171t-197 -65q-81 0 -143.5 28.5t-104 78t-63 116.5t-21.5 143t21.5 143t63 116.5t104 78.5t143.5 29q118 0 196 -64t96 -164h-142q-10 49 -49 80t-105 31q-39 0 -73.5 -15t-60.5 -43.5t-41 -70.5t-15 -96v-49
q0 -54 15 -96t41 -70.5t60.5 -43.5t73.5 -15zM390 923h137l-104 -146h-100z" />
    <glyph glyph-name="cacute" unicode="&#x107;" horiz-adv-x="569" 
d="M168 284v-46q0 -68 37.5 -107t91.5 -39q48 0 74.5 25t34.5 58h126q-13 -86 -75 -137.5t-159 -51.5q-65 0 -114 22t-81 59.5t-48 88t-16 106.5t16 106.5t48.5 88t81 59.5t113.5 22q97 0 159 -52t75 -137h-126q-8 32 -34.5 57t-74.5 25q-54 0 -91.5 -39.5t-37.5 -107.5z
M317 743h137l-104 -146h-100z" />
    <glyph glyph-name="Ccircumflex" unicode="&#x108;" horiz-adv-x="698" 
d="M370 103q72 0 110.5 35.5t47.5 83.5h140q-19 -106 -97 -171t-197 -65q-81 0 -143.5 28.5t-104 78t-63 116.5t-21.5 143t21.5 143t63 116.5t104 78.5t143.5 29q118 0 196 -64t96 -164h-142q-10 49 -49 80t-105 31q-39 0 -73.5 -15t-60.5 -43.5t-41 -70.5t-15 -96v-49
q0 -54 15 -96t41 -70.5t60.5 -43.5t73.5 -15zM567 777h-120l-68 83h-6l-66 -83h-104l118 146h129z" />
    <glyph glyph-name="ccircumflex" unicode="&#x109;" horiz-adv-x="569" 
d="M168 284v-46q0 -68 37.5 -107t91.5 -39q48 0 74.5 25t34.5 58h126q-13 -86 -75 -137.5t-159 -51.5q-65 0 -114 22t-81 59.5t-48 88t-16 106.5t16 106.5t48.5 88t81 59.5t113.5 22q97 0 159 -52t75 -137h-126q-8 32 -34.5 57t-74.5 25q-54 0 -91.5 -39.5t-37.5 -107.5z
M493 597h-120l-68 83h-6l-66 -83h-104l118 146h129z" />
    <glyph glyph-name="Cdotaccent" unicode="&#x10a;" horiz-adv-x="698" 
d="M370 103q72 0 110.5 35.5t47.5 83.5h140q-19 -106 -97 -171t-197 -65q-81 0 -143.5 28.5t-104 78t-63 116.5t-21.5 143t21.5 143t63 116.5t104 78.5t143.5 29q118 0 196 -64t96 -164h-142q-10 49 -49 80t-105 31q-39 0 -73.5 -15t-60.5 -43.5t-41 -70.5t-15 -96v-49
q0 -54 15 -96t41 -70.5t60.5 -43.5t73.5 -15zM376 788h-4q-28 0 -47 19.5t-19 46.5q0 28 19 46.5t47 18.5h4q28 0 47.5 -18.5t19.5 -46.5q0 -27 -19.5 -46.5t-47.5 -19.5z" />
    <glyph glyph-name="cdotaccent" unicode="&#x10b;" horiz-adv-x="569" 
d="M168 284v-46q0 -68 37.5 -107t91.5 -39q48 0 74.5 25t34.5 58h126q-13 -86 -75 -137.5t-159 -51.5q-65 0 -114 22t-81 59.5t-48 88t-16 106.5t16 106.5t48.5 88t81 59.5t113.5 22q97 0 159 -52t75 -137h-126q-8 32 -34.5 57t-74.5 25q-54 0 -91.5 -39.5t-37.5 -107.5z
M302 608h-4q-28 0 -47 19.5t-19 46.5q0 28 19 46.5t47 18.5h4q28 0 47.5 -18.5t19.5 -46.5q0 -27 -19.5 -46.5t-47.5 -19.5z" />
    <glyph glyph-name="Ccaron" unicode="&#x10c;" horiz-adv-x="698" 
d="M370 103q72 0 110.5 35.5t47.5 83.5h140q-19 -106 -97 -171t-197 -65q-81 0 -143.5 28.5t-104 78t-63 116.5t-21.5 143t21.5 143t63 116.5t104 78.5t143.5 29q118 0 196 -64t96 -164h-142q-10 49 -49 80t-105 31q-39 0 -73.5 -15t-60.5 -43.5t-41 -70.5t-15 -96v-49
q0 -54 15 -96t41 -70.5t60.5 -43.5t73.5 -15zM186 923h120l68 -83h6l66 83h104l-118 -146h-129z" />
    <glyph glyph-name="ccaron" unicode="&#x10d;" horiz-adv-x="569" 
d="M168 284v-46q0 -68 37.5 -107t91.5 -39q48 0 74.5 25t34.5 58h126q-13 -86 -75 -137.5t-159 -51.5q-65 0 -114 22t-81 59.5t-48 88t-16 106.5t16 106.5t48.5 88t81 59.5t113.5 22q97 0 159 -52t75 -137h-126q-8 32 -34.5 57t-74.5 25q-54 0 -91.5 -39.5t-37.5 -107.5z
M113 743h120l68 -83h6l66 83h104l-118 -146h-129z" />
    <glyph glyph-name="Dcaron" unicode="&#x10e;" horiz-adv-x="727" 
d="M351 704q80 0 142.5 -27.5t104.5 -75t64 -112t22 -137.5t-22 -137.5t-63.5 -112t-104 -75t-143.5 -27.5h-268v704h268zM352 588h-135v-472h135q40 0 75.5 14t62 41t42 66.5t15.5 89.5v51q0 50 -15.5 89.5t-42 66t-62 40.5t-75.5 14zM159 922h120l68 -83h6l66 83h104
l-118 -146h-129z" />
    <glyph glyph-name="dcaron" unicode="&#x10f;" horiz-adv-x="705" 
d="M562 0h-122v88h-1q-22 -47 -65 -74.5t-106 -27.5q-56 0 -99 22.5t-72 60t-43.5 88t-14.5 105.5t14.5 105t43.5 88t72 60.5t99 22.5q59 0 99.5 -24.5t63.5 -65.5h1v294h130v-742zM169 238q0 -69 39 -107.5t93 -38.5t92.5 39t38.5 107v46q0 68 -38.5 107t-92.5 39
t-93 -38.5t-39 -107.5v-46zM678 738h137l-104 -146h-100z" />
    <glyph glyph-name="Dcroat" unicode="&#x110;" horiz-adv-x="744" 
d="M30 304v116h71v284h268q80 0 142.5 -27.5t104.5 -75t64 -112t22 -137.5t-22 -137.5t-63.5 -112t-104 -75t-143.5 -27.5h-268v304h-71zM370 588h-135v-168h139v-116h-139v-188h135q40 0 75.5 14t62 41t42 66.5t15.5 89.5v51q0 50 -15.5 89.5t-42 66t-62 40.5t-75.5 14z
" />
    <glyph glyph-name="dslash" unicode="&#x111;" horiz-adv-x="634" 
d="M562 0h-122v88h-1q-22 -47 -65 -74.5t-106 -27.5q-56 0 -99 22.5t-72 60t-43.5 88t-14.5 105.5t14.5 105t43.5 88t72 60.5t99 22.5q59 0 99.5 -24.5t63.5 -65.5h1v142h-139v77h139v75h130v-75h72v-77h-72v-590zM169 238q0 -69 39 -107.5t93 -38.5t92.5 39t38.5 107v46
q0 68 -38.5 107t-92.5 39t-93 -38.5t-39 -107.5v-46z" />
    <glyph glyph-name="Emacron" unicode="&#x112;" horiz-adv-x="633" 
d="M83 704h499v-116h-365v-170h333v-114h-333v-188h365v-116h-499v704zM205 897h276v-84h-276v84z" />
    <glyph glyph-name="emacron" unicode="&#x113;" horiz-adv-x="590" 
d="M303 -14q-66 0 -116 22.5t-82.5 60t-49 88t-16.5 105.5t16.5 105t49 88t81 60.5t112.5 22.5q63 0 110.5 -21.5t79 -57.5t47.5 -83.5t16 -99.5v-47h-382q1 -69 40 -107.5t97 -38.5q49 0 75.5 23t30.5 49h130q-13 -75 -78 -122t-161 -47zM298 441q-51 0 -86.5 -33
t-41.5 -92h251q-2 60 -36.5 92.5t-86.5 32.5zM161 717h276v-84h-276v84z" />
    <glyph glyph-name="Ebreve" unicode="&#x114;" horiz-adv-x="633" 
d="M83 704h499v-116h-365v-170h333v-114h-333v-188h365v-116h-499v704zM335 777q-76 0 -118.5 43t-42.5 103h101q0 -32 17.5 -48.5t48.5 -16.5q32 0 48.5 17t16.5 48h100q0 -59 -42.5 -102.5t-117.5 -43.5h-11z" />
    <glyph glyph-name="ebreve" unicode="&#x115;" horiz-adv-x="590" 
d="M303 -14q-66 0 -116 22.5t-82.5 60t-49 88t-16.5 105.5t16.5 105t49 88t81 60.5t112.5 22.5q63 0 110.5 -21.5t79 -57.5t47.5 -83.5t16 -99.5v-47h-382q1 -69 40 -107.5t97 -38.5q49 0 75.5 23t30.5 49h130q-13 -75 -78 -122t-161 -47zM298 441q-51 0 -86.5 -33
t-41.5 -92h251q-2 60 -36.5 92.5t-86.5 32.5zM291 597q-76 0 -118.5 43t-42.5 103h101q0 -32 17.5 -48.5t48.5 -16.5q32 0 48.5 17t16.5 48h100q0 -59 -42.5 -102.5t-117.5 -43.5h-11z" />
    <glyph glyph-name="Edotaccent" unicode="&#x116;" horiz-adv-x="633" 
d="M83 704h499v-116h-365v-170h333v-114h-333v-188h365v-116h-499v704zM345 788h-4q-28 0 -47 19.5t-19 46.5q0 28 19 46.5t47 18.5h4q28 0 47.5 -18.5t19.5 -46.5q0 -27 -19.5 -46.5t-47.5 -19.5z" />
    <glyph glyph-name="edotaccent" unicode="&#x117;" horiz-adv-x="590" 
d="M303 -14q-66 0 -116 22.5t-82.5 60t-49 88t-16.5 105.5t16.5 105t49 88t81 60.5t112.5 22.5q63 0 110.5 -21.5t79 -57.5t47.5 -83.5t16 -99.5v-47h-382q1 -69 40 -107.5t97 -38.5q49 0 75.5 23t30.5 49h130q-13 -75 -78 -122t-161 -47zM298 441q-51 0 -86.5 -33
t-41.5 -92h251q-2 60 -36.5 92.5t-86.5 32.5zM301 608h-4q-28 0 -47 19.5t-19 46.5q0 28 19 46.5t47 18.5h4q28 0 47.5 -18.5t19.5 -46.5q0 -27 -19.5 -46.5t-47.5 -19.5z" />
    <glyph glyph-name="Eogonek" unicode="&#x118;" horiz-adv-x="633" 
d="M83 704h499v-116h-365v-170h333v-114h-333v-188h365v-116h-499v704zM582 31v-31q-35 -23 -54 -41.5t-19 -38.5q0 -15 12 -25t40 -10h70v-85h-101q-56 0 -83.5 28t-27.5 64q0 40 41 74t122 65z" />
    <glyph glyph-name="eogonek" unicode="&#x119;" horiz-adv-x="590" 
d="M303 -14q-66 0 -116 22.5t-82.5 60t-49 88t-16.5 105.5t16.5 105t49 88t81 60.5t112.5 22.5q63 0 110.5 -21.5t79 -57.5t47.5 -83.5t16 -99.5v-47h-382q1 -69 40 -107.5t97 -38.5q49 0 75.5 23t30.5 49h130q-13 -75 -78 -122t-161 -47zM298 441q-51 0 -86.5 -33
t-41.5 -92h251q-2 60 -36.5 92.5t-86.5 32.5zM354 31v-31q-35 -23 -54 -41.5t-19 -38.5q0 -15 12 -25t40 -10h70v-85h-101q-56 0 -83.5 28t-27.5 64q0 40 41 74t122 65z" />
    <glyph glyph-name="Ecaron" unicode="&#x11a;" horiz-adv-x="633" 
d="M83 704h499v-116h-365v-170h333v-114h-333v-188h365v-116h-499v704zM156 923h120l68 -83h6l66 83h104l-118 -146h-129z" />
    <glyph glyph-name="ecaron" unicode="&#x11b;" horiz-adv-x="590" 
d="M303 -14q-66 0 -116 22.5t-82.5 60t-49 88t-16.5 105.5t16.5 105t49 88t81 60.5t112.5 22.5q63 0 110.5 -21.5t79 -57.5t47.5 -83.5t16 -99.5v-47h-382q1 -69 40 -107.5t97 -38.5q49 0 75.5 23t30.5 49h130q-13 -75 -78 -122t-161 -47zM298 441q-51 0 -86.5 -33
t-41.5 -92h251q-2 60 -36.5 92.5t-86.5 32.5zM111 743h120l68 -83h6l66 83h104l-118 -146h-129z" />
    <glyph glyph-name="Gcircumflex" unicode="&#x11c;" horiz-adv-x="735" 
d="M570 0v123h-1q-16 -58 -69 -97.5t-140 -39.5q-77 0 -136.5 29t-99.5 78.5t-61 116.5t-21 142q0 76 22 143.5t64.5 116.5t105 78t142.5 29q123 0 201.5 -61.5t98.5 -161.5h-147q-9 42 -45.5 74t-105.5 32q-41 0 -77 -15t-63 -43.5t-42.5 -70.5t-15.5 -96v-52
q0 -54 15.5 -96t42 -70.5t62.5 -43.5t77 -15q42 0 74.5 14.5t54.5 38t33 54t11 61.5h-182v109h313v-377h-111zM571 777h-120l-68 83h-6l-66 -83h-104l118 146h129z" />
    <glyph glyph-name="gcircumflex" unicode="&#x11d;" horiz-adv-x="620" 
d="M53 -33h128q5 -30 33.5 -52t79.5 -22q66 0 100.5 36.5t34.5 108.5v72h-1q-23 -40 -63 -64t-100 -24q-55 0 -97.5 21t-71 56.5t-43 83t-14.5 99.5q0 50 14.5 96.5t42.5 82t70.5 56.5t98.5 21q65 0 106.5 -27t63.5 -70h1v83h123v-476q0 -119 -69 -186.5t-196 -67.5
q-110 0 -172 50.5t-69 122.5zM169 291v-24q0 -66 38 -102.5t92 -36.5t92 37.5t38 101.5v24q0 66 -38 103t-92 37t-92 -36.5t-38 -103.5zM499 597h-120l-68 83h-6l-66 -83h-104l118 146h129z" />
    <glyph glyph-name="Gbreve" unicode="&#x11e;" horiz-adv-x="735" 
d="M570 0v123h-1q-16 -58 -69 -97.5t-140 -39.5q-77 0 -136.5 29t-99.5 78.5t-61 116.5t-21 142q0 76 22 143.5t64.5 116.5t105 78t142.5 29q123 0 201.5 -61.5t98.5 -161.5h-147q-9 42 -45.5 74t-105.5 32q-41 0 -77 -15t-63 -43.5t-42.5 -70.5t-15.5 -96v-52
q0 -54 15.5 -96t42 -70.5t62.5 -43.5t77 -15q42 0 74.5 14.5t54.5 38t33 54t11 61.5h-182v109h313v-377h-111zM371 777q-76 0 -118.5 43t-42.5 103h101q0 -32 17.5 -48.5t48.5 -16.5q32 0 48.5 17t16.5 48h100q0 -59 -42.5 -102.5t-117.5 -43.5h-11z" />
    <glyph glyph-name="gbreve" unicode="&#x11f;" horiz-adv-x="620" 
d="M53 -33h128q5 -30 33.5 -52t79.5 -22q66 0 100.5 36.5t34.5 108.5v72h-1q-23 -40 -63 -64t-100 -24q-55 0 -97.5 21t-71 56.5t-43 83t-14.5 99.5q0 50 14.5 96.5t42.5 82t70.5 56.5t98.5 21q65 0 106.5 -27t63.5 -70h1v83h123v-476q0 -119 -69 -186.5t-196 -67.5
q-110 0 -172 50.5t-69 122.5zM169 291v-24q0 -66 38 -102.5t92 -36.5t92 37.5t38 101.5v24q0 66 -38 103t-92 37t-92 -36.5t-38 -103.5zM298 597q-76 0 -118.5 43t-42.5 103h101q0 -32 17.5 -48.5t48.5 -16.5q32 0 48.5 17t16.5 48h100q0 -59 -42.5 -102.5t-117.5 -43.5h-11
z" />
    <glyph glyph-name="Gdotaccent" unicode="&#x120;" horiz-adv-x="735" 
d="M570 0v123h-1q-16 -58 -69 -97.5t-140 -39.5q-77 0 -136.5 29t-99.5 78.5t-61 116.5t-21 142q0 76 22 143.5t64.5 116.5t105 78t142.5 29q123 0 201.5 -61.5t98.5 -161.5h-147q-9 42 -45.5 74t-105.5 32q-41 0 -77 -15t-63 -43.5t-42.5 -70.5t-15.5 -96v-52
q0 -54 15.5 -96t42 -70.5t62.5 -43.5t77 -15q42 0 74.5 14.5t54.5 38t33 54t11 61.5h-182v109h313v-377h-111zM380 788h-4q-28 0 -47 19.5t-19 46.5q0 28 19 46.5t47 18.5h4q28 0 47.5 -18.5t19.5 -46.5q0 -27 -19.5 -46.5t-47.5 -19.5z" />
    <glyph glyph-name="gdotaccent" unicode="&#x121;" horiz-adv-x="620" 
d="M53 -33h128q5 -30 33.5 -52t79.5 -22q66 0 100.5 36.5t34.5 108.5v72h-1q-23 -40 -63 -64t-100 -24q-55 0 -97.5 21t-71 56.5t-43 83t-14.5 99.5q0 50 14.5 96.5t42.5 82t70.5 56.5t98.5 21q65 0 106.5 -27t63.5 -70h1v83h123v-476q0 -119 -69 -186.5t-196 -67.5
q-110 0 -172 50.5t-69 122.5zM169 291v-24q0 -66 38 -102.5t92 -36.5t92 37.5t38 101.5v24q0 66 -38 103t-92 37t-92 -36.5t-38 -103.5zM307 608h-4q-28 0 -47 19.5t-19 46.5q0 28 19 46.5t47 18.5h4q28 0 47.5 -18.5t19.5 -46.5q0 -27 -19.5 -46.5t-47.5 -19.5z" />
    <glyph glyph-name="uni0122" unicode="&#x122;" horiz-adv-x="735" 
d="M570 0v123h-1q-16 -58 -69 -97.5t-140 -39.5q-77 0 -136.5 29t-99.5 78.5t-61 116.5t-21 142q0 76 22 143.5t64.5 116.5t105 78t142.5 29q123 0 201.5 -61.5t98.5 -161.5h-147q-9 42 -45.5 74t-105.5 32q-41 0 -77 -15t-63 -43.5t-42.5 -70.5t-15.5 -96v-52
q0 -54 15.5 -96t42 -70.5t62.5 -43.5t77 -15q42 0 74.5 14.5t54.5 38t33 54t11 61.5h-182v109h313v-377h-111zM305 -92h137l-104 -146h-100z" />
    <glyph glyph-name="uni0123" unicode="&#x123;" horiz-adv-x="620" 
d="M53 -33h128q5 -30 33.5 -52t79.5 -22q66 0 100.5 36.5t34.5 108.5v72h-1q-23 -40 -63 -64t-100 -24q-55 0 -97.5 21t-71 56.5t-43 83t-14.5 99.5q0 50 14.5 96.5t42.5 82t70.5 56.5t98.5 21q65 0 106.5 -27t63.5 -70h1v83h123v-476q0 -119 -69 -186.5t-196 -67.5
q-110 0 -172 50.5t-69 122.5zM169 291v-24q0 -66 38 -102.5t92 -36.5t92 37.5t38 101.5v24q0 66 -38 103t-92 37t-92 -36.5t-38 -103.5z" />
    <glyph glyph-name="Hcircumflex" unicode="&#x124;" horiz-adv-x="759" 
d="M83 704h134v-284h325v284h135v-704h-135v304h-325v-304h-134v704zM573 777h-120l-68 83h-6l-66 -83h-104l118 146h129z" />
    <glyph glyph-name="hcircumflex" unicode="&#x125;" horiz-adv-x="612" 
d="M198 308v-308h-130v742h127v-292h1q22 43 63.5 65.5t94.5 22.5q84 0 139 -55.5t55 -154.5v-328h-130v314q0 57 -32.5 85.5t-74.5 28.5q-44 0 -78.5 -30t-34.5 -90zM504 777h-120l-68 83h-6l-66 -83h-104l118 146h129z" />
    <glyph glyph-name="Hbar" unicode="&#x126;" horiz-adv-x="759" 
d="M12 517v102h71v85h134v-85h325v85h135v-85h70v-102h-70v-517h-135v304h-325v-304h-134v517h-71zM217 420h325v97h-325v-97z" />
    <glyph glyph-name="hbar" unicode="&#x127;" horiz-adv-x="616" 
d="M201 308v-308h-130v590h-71v77h71v75h127v-75h143v-77h-143v-140h1q22 43 63.5 65.5t94.5 22.5q84 0 139 -55.5t55 -154.5v-328h-130v314q0 57 -32.5 85.5t-74.5 28.5q-44 0 -78.5 -30t-34.5 -90z" />
    <glyph glyph-name="Itilde" unicode="&#x128;" horiz-adv-x="300" 
d="M83 704h134v-704h-134v704zM218 778q-30 0 -49 11t-33.5 24t-28 24t-32.5 11q-22 0 -33 -14.5t-11 -44.5h-64v6q0 60 30 94t83 34h1q30 0 49.5 -11t34.5 -24.5t29 -24.5t34 -11q21 0 32 14t11 43h64v-5q0 -60 -31 -93t-85 -33h-1z" />
    <glyph glyph-name="itilde" unicode="&#x129;" horiz-adv-x="265" 
d="M68 524h130v-524h-130v524zM201 598q-30 0 -49 11t-33.5 24t-28 24t-32.5 11q-22 0 -33 -14.5t-11 -44.5h-64v6q0 60 30 94t83 34h1q30 0 49.5 -11t34.5 -24.5t29 -24.5t34 -11q21 0 32 14t11 43h64v-5q0 -60 -31 -93t-85 -33h-1z" />
    <glyph glyph-name="Imacron" unicode="&#x12a;" horiz-adv-x="300" 
d="M83 704h134v-704h-134v704zM13 897h276v-84h-276v84z" />
    <glyph glyph-name="imacron" unicode="&#x12b;" horiz-adv-x="265" 
d="M68 524h130v-524h-130v524zM-5 717h276v-84h-276v84z" />
    <glyph glyph-name="Ibreve" unicode="&#x12c;" horiz-adv-x="300" 
d="M83 704h134v-704h-134v704zM143 777q-76 0 -118.5 43t-42.5 103h101q0 -32 17.5 -48.5t48.5 -16.5q32 0 48.5 17t16.5 48h100q0 -59 -42.5 -102.5t-117.5 -43.5h-11z" />
    <glyph glyph-name="ibreve" unicode="&#x12d;" horiz-adv-x="265" 
d="M68 524h130v-524h-130v524zM125 597q-76 0 -118.5 43t-42.5 103h101q0 -32 17.5 -48.5t48.5 -16.5q32 0 48.5 17t16.5 48h100q0 -59 -42.5 -102.5t-117.5 -43.5h-11z" />
    <glyph glyph-name="Iogonek" unicode="&#x12e;" horiz-adv-x="300" 
d="M83 704h134v-704h-134v704zM216 31v-31q-35 -23 -54 -41.5t-19 -38.5q0 -15 12 -25t40 -10h70v-85h-101q-56 0 -83.5 28t-27.5 64q0 40 41 74t122 65z" />
    <glyph glyph-name="iogonek" unicode="&#x12f;" horiz-adv-x="265" 
d="M137 585h-8q-34 0 -57 23t-23 54q0 33 23 55.5t57 22.5h8q34 0 56.5 -22.5t22.5 -55.5q0 -31 -22.5 -54t-56.5 -23zM68 524h130v-524h-130v524zM198 31v-31q-35 -23 -54 -41.5t-19 -38.5q0 -15 12 -25t40 -10h70v-85h-101q-56 0 -83.5 28t-27.5 64q0 40 41 74t122 65z
" />
    <glyph glyph-name="Idotaccent" unicode="&#x130;" horiz-adv-x="300" 
d="M83 704h134v-704h-134v704zM153 788h-4q-28 0 -47 19.5t-19 46.5q0 28 19 46.5t47 18.5h4q28 0 47.5 -18.5t19.5 -46.5q0 -27 -19.5 -46.5t-47.5 -19.5z" />
    <glyph glyph-name="dotlessi" unicode="&#x131;" horiz-adv-x="265" 
d="M68 524h130v-524h-130v524z" />
    <glyph glyph-name="IJ" unicode="&#x132;" horiz-adv-x="906" 
d="M83 704h134v-704h-134v704zM590 -15q-60 0 -108 18.5t-80.5 51t-50 77.5t-17.5 98v65h134v-61q0 -63 32.5 -97.5t89.5 -34.5q56 0 88 34.5t32 97.5v470h135v-474q0 -53 -17.5 -98t-50 -77.5t-80 -51t-107.5 -18.5z" />
    <glyph glyph-name="ij" unicode="&#x133;" horiz-adv-x="546" 
d="M143 585h-8q-34 0 -57 23t-23 54q0 33 23 55.5t57 22.5h8q34 0 56.5 -22.5t22.5 -55.5q0 -31 -22.5 -54t-56.5 -23zM74 524h130v-524h-130v524zM410 585h-8q-34 0 -57 23t-23 54q0 33 23 55.5t57 22.5h8q34 0 57 -22.5t23 -55.5q0 -31 -23 -54t-57 -23zM341 -47v571h130
v-580q0 -67 -35.5 -102.5t-107.5 -35.5h-128v104h98q22 0 32.5 10.5t10.5 32.5z" />
    <glyph glyph-name="Jcircumflex" unicode="&#x134;" horiz-adv-x="615" 
d="M298 -15q-60 0 -108 18.5t-80.5 51t-50 77.5t-17.5 98v65h134v-61q0 -63 32.5 -97.5t89.5 -34.5q56 0 88 34.5t32 97.5v470h135v-474q0 -53 -17.5 -98t-50 -77.5t-80 -51t-107.5 -18.5zM669 777h-120l-68 83h-6l-66 -83h-104l118 146h129z" />
    <glyph glyph-name="jcircumflex" unicode="&#x135;" horiz-adv-x="267" 
d="M69 -47v571h130v-580q0 -67 -35.5 -102.5t-107.5 -35.5h-133v104h103q22 0 32.5 10.5t10.5 32.5zM329 597h-120l-68 83h-6l-66 -83h-104l118 146h129z" />
    <glyph glyph-name="uni0136" unicode="&#x136;" horiz-adv-x="698" 
d="M216 704v-704h-134v704h134zM518 0l-300 365l282 339h164l-285 -337l308 -367h-169zM303 -92h137l-104 -146h-100z" />
    <glyph glyph-name="uni0137" unicode="&#x137;" horiz-adv-x="575" 
d="M198 742v-742h-130v742h130zM561 524l-212 -234l232 -290h-161l-222 286l207 238h156zM242 -92h137l-104 -146h-100z" />
    <glyph glyph-name="kgreenlandic" unicode="&#x138;" horiz-adv-x="573" 
d="M561 524l-213 -248l233 -276h-162l-221 271l207 253h156zM198 524v-524h-130v524h130z" />
    <glyph glyph-name="Lacute" unicode="&#x139;" horiz-adv-x="573" 
d="M83 704h134v-588h343v-116h-477v704zM165 923h137l-104 -146h-100z" />
    <glyph glyph-name="lacute" unicode="&#x13a;" horiz-adv-x="348" 
d="M63 138v604h130v-584q0 -26 12.5 -38.5t38.5 -12.5h87v-107h-125q-72 0 -107.5 35.5t-35.5 102.5zM149 923h137l-104 -146h-100z" />
    <glyph glyph-name="uni013B" unicode="&#x13b;" horiz-adv-x="590" 
d="M83 704h134v-588h343v-116h-477v704zM295 -92h137l-104 -146h-100z" />
    <glyph glyph-name="uni013C" unicode="&#x13c;" horiz-adv-x="348" 
d="M63 138v604h130v-584q0 -26 12.5 -38.5t38.5 -12.5h87v-107h-125q-72 0 -107.5 35.5t-35.5 102.5zM155 -92h137l-104 -146h-100z" />
    <glyph glyph-name="Lcaron" unicode="&#x13d;" horiz-adv-x="590" 
d="M83 704h134v-588h343v-116h-477v704zM403 700h137l-104 -146h-100z" />
    <glyph glyph-name="lcaron" unicode="&#x13e;" horiz-adv-x="362" 
d="M63 138v604h130v-584q0 -26 12.5 -38.5t38.5 -12.5h87v-107h-125q-72 0 -107.5 35.5t-35.5 102.5zM309 738h137l-104 -146h-100z" />
    <glyph glyph-name="Ldot" unicode="&#x13f;" horiz-adv-x="573" 
d="M83 704h134v-588h343v-116h-477v704zM412 332q-37 0 -63 26.5t-26 63.5t26 63t63 26t63 -26t26 -63t-26 -63.5t-63 -26.5z" />
    <glyph glyph-name="ldot" unicode="&#x140;" horiz-adv-x="432" 
d="M63 138v604h130v-584q0 -26 12.5 -38.5t38.5 -12.5h87v-107h-125q-72 0 -107.5 35.5t-35.5 102.5z" />
    <glyph glyph-name="Lslash" unicode="&#x141;" horiz-adv-x="611" 
d="M25 219v124l96 39v322h134v-268l165 67v-124l-165 -67v-196h343v-116h-477v258z" />
    <glyph glyph-name="lslash" unicode="&#x142;" horiz-adv-x="405" 
d="M116 138v173l-85 -41v107l85 41v324h130v-262l116 55v-107l-116 -55v-215q0 -26 12.5 -38.5t38.5 -12.5h87v-107h-125q-72 0 -107.5 35.5t-35.5 102.5z" />
    <glyph glyph-name="Nacute" unicode="&#x143;" horiz-adv-x="763" 
d="M83 0v704h156l312 -505h1v505h128v-704h-147l-319 523h-1v-523h-130zM413 923h137l-104 -146h-100z" />
    <glyph glyph-name="nacute" unicode="&#x144;" horiz-adv-x="612" 
d="M198 308v-308h-130v524h122v-84h1q21 49 64.5 73.5t98.5 24.5q84 0 139 -55.5t55 -154.5v-328h-130v314q0 57 -32.5 85.5t-74.5 28.5q-44 0 -78.5 -30t-34.5 -90zM333 743h137l-104 -146h-100z" />
    <glyph glyph-name="uni0145" unicode="&#x145;" horiz-adv-x="780" 
d="M83 0v704h156l312 -505h1v505h128v-704h-147l-319 523h-1v-523h-130zM313 -92h137l-104 -146h-100z" />
    <glyph glyph-name="Ncaron" unicode="&#x147;" horiz-adv-x="763" 
d="M83 0v704h156l312 -505h1v505h128v-704h-147l-319 523h-1v-523h-130zM209 923h120l68 -83h6l66 83h104l-118 -146h-129z" />
    <glyph glyph-name="ncaron" unicode="&#x148;" horiz-adv-x="612" 
d="M198 308v-308h-130v524h122v-84h1q21 49 64.5 73.5t98.5 24.5q84 0 139 -55.5t55 -154.5v-328h-130v314q0 57 -32.5 85.5t-74.5 28.5q-44 0 -78.5 -30t-34.5 -90zM129 743h120l68 -83h6l66 83h104l-118 -146h-129z" />
    <glyph glyph-name="napostrophe" unicode="&#x149;" horiz-adv-x="617" 
d="M198 308v-308h-130v524h122v-84h1q21 49 64.5 73.5t98.5 24.5q84 0 139 -55.5t55 -154.5v-328h-130v314q0 57 -32.5 85.5t-74.5 28.5q-44 0 -78.5 -30t-34.5 -90z" />
    <glyph glyph-name="Eng" unicode="&#x14a;" horiz-adv-x="763" 
d="M83 0v704h156l312 -505h1v505h128v-704h-147l-319 523h-1v-523h-130z" />
    <glyph glyph-name="eng" unicode="&#x14b;" horiz-adv-x="617" 
d="M198 308v-308h-130v524h122v-84h1q21 49 64.5 73.5t98.5 24.5q84 0 139 -55.5t55 -154.5v-384q0 -67 -35.5 -102.5t-107.5 -35.5h-133v104h103q22 0 32.5 10.5t10.5 32.5v361q0 57 -32.5 85.5t-74.5 28.5q-44 0 -78.5 -30t-34.5 -90z" />
    <glyph glyph-name="Omacron" unicode="&#x14c;" horiz-adv-x="751" 
d="M375 -14q-80 0 -142.5 29t-104.5 78t-64 116t-22 143t22 143t64 116.5t104.5 78.5t142.5 29t142.5 -29t104.5 -78.5t64 -116.5t22 -143t-22 -143t-63.5 -116t-104 -78t-143.5 -29zM375 103q40 0 76 15t62.5 43.5t42 70.5t15.5 96v49q0 54 -15.5 96t-42 70.5t-62.5 43.5
t-76 15t-75.5 -15t-62 -43.5t-42 -70.5t-15.5 -96v-49q0 -54 15.5 -96t42 -70.5t62 -43.5t75.5 -15zM237 897h276v-84h-276v84z" />
    <glyph glyph-name="omacron" unicode="&#x14d;" horiz-adv-x="603" 
d="M302 -14q-65 0 -114.5 22.5t-82.5 60.5t-49.5 88t-16.5 105t16.5 105t49.5 88t82.5 60.5t114.5 22.5t114 -22.5t82 -60.5t49.5 -88.5t16.5 -104.5q0 -55 -16.5 -105t-49 -88t-82 -60.5t-114.5 -22.5zM434 239v45q0 70 -38.5 108.5t-93.5 38.5q-56 0 -94.5 -39t-38.5 -108
v-45q0 -68 38.5 -107t94.5 -39q55 0 93.5 38.5t38.5 107.5zM164 716h276v-84h-276v84z" />
    <glyph glyph-name="Obreve" unicode="&#x14e;" horiz-adv-x="751" 
d="M375 -14q-80 0 -142.5 29t-104.5 78t-64 116t-22 143t22 143t64 116.5t104.5 78.5t142.5 29t142.5 -29t104.5 -78.5t64 -116.5t22 -143t-22 -143t-63.5 -116t-104 -78t-143.5 -29zM375 103q40 0 76 15t62.5 43.5t42 70.5t15.5 96v49q0 54 -15.5 96t-42 70.5t-62.5 43.5
t-76 15t-75.5 -15t-62 -43.5t-42 -70.5t-15.5 -96v-49q0 -54 15.5 -96t42 -70.5t62 -43.5t75.5 -15zM368 777q-76 0 -118.5 43t-42.5 103h101q0 -32 17.5 -48.5t48.5 -16.5q32 0 48.5 17t16.5 48h100q0 -59 -42.5 -102.5t-117.5 -43.5h-11z" />
    <glyph glyph-name="obreve" unicode="&#x14f;" horiz-adv-x="603" 
d="M302 -14q-65 0 -114.5 22.5t-82.5 60.5t-49.5 88t-16.5 105t16.5 105t49.5 88t82.5 60.5t114.5 22.5t114 -22.5t82 -60.5t49.5 -88.5t16.5 -104.5q0 -55 -16.5 -105t-49 -88t-82 -60.5t-114.5 -22.5zM434 239v45q0 70 -38.5 108.5t-93.5 38.5q-56 0 -94.5 -39t-38.5 -108
v-45q0 -68 38.5 -107t94.5 -39q55 0 93.5 38.5t38.5 107.5zM295 596q-76 0 -118.5 43t-42.5 103h101q0 -32 17.5 -48.5t48.5 -16.5q32 0 48.5 17t16.5 48h100q0 -59 -42.5 -102.5t-117.5 -43.5h-11z" />
    <glyph glyph-name="Ohungarumlaut" unicode="&#x150;" horiz-adv-x="751" 
d="M375 -14q-80 0 -142.5 29t-104.5 78t-64 116t-22 143t22 143t64 116.5t104.5 78.5t142.5 29t142.5 -29t104.5 -78.5t64 -116.5t22 -143t-22 -143t-63.5 -116t-104 -78t-143.5 -29zM375 103q40 0 76 15t62.5 43.5t42 70.5t15.5 96v49q0 54 -15.5 96t-42 70.5t-62.5 43.5
t-76 15t-75.5 -15t-62 -43.5t-42 -70.5t-15.5 -96v-49q0 -54 15.5 -96t42 -70.5t62 -43.5t75.5 -15zM286 923h126l-105 -146h-88zM484 923h125l-104 -146h-88z" />
    <glyph glyph-name="ohungarumlaut" unicode="&#x151;" horiz-adv-x="603" 
d="M302 -14q-65 0 -114.5 22.5t-82.5 60.5t-49.5 88t-16.5 105t16.5 105t49.5 88t82.5 60.5t114.5 22.5t114 -22.5t82 -60.5t49.5 -88.5t16.5 -104.5q0 -55 -16.5 -105t-49 -88t-82 -60.5t-114.5 -22.5zM434 239v45q0 70 -38.5 108.5t-93.5 38.5q-56 0 -94.5 -39t-38.5 -108
v-45q0 -68 38.5 -107t94.5 -39q55 0 93.5 38.5t38.5 107.5zM213 742h126l-105 -146h-88zM411 742h125l-104 -146h-88z" />
    <glyph glyph-name="OE" unicode="&#x152;" horiz-adv-x="1061" 
d="M510 704h499v-116h-365v-170h333v-114h-333v-188h365v-116h-499v704z" />
    <glyph glyph-name="oe" unicode="&#x153;" horiz-adv-x="993" 
d="M502 409h2q27 57 78.5 93t124.5 36q61 0 107.5 -21.5t77.5 -57.5t47 -83.5t16 -99.5v-47h-386q1 -69 40 -107.5t98 -38.5q51 0 78 24t31 50h128q-13 -76 -76.5 -123.5t-154.5 -47.5q-78 0 -130 35.5t-79 92.5h-2q-26 -57 -78 -92.5t-128 -35.5q-63 0 -111 22.5
t-80.5 60.5t-49 88t-16.5 105t17 105t49 88t80.5 60.5t110.5 22.5q75 0 127 -36t79 -93zM700 441q-51 0 -87 -33t-43 -92h255q-3 60 -38 92.5t-87 32.5zM439 238v46q0 69 -39 107.5t-96 38.5t-96 -39t-39 -107v-46q0 -67 39 -106.5t96 -39.5t96 38.5t39 107.5z" />
    <glyph glyph-name="Racute" unicode="&#x154;" horiz-adv-x="691" 
d="M83 0v704h319q59 0 105 -16t77 -45t47 -68.5t16 -86.5q0 -94 -61.5 -151t-175.5 -57h-16l296 -280h-188l-285 277v-277h-134zM511 480v11q0 48 -29 74t-84 26h-181v-210h181q55 0 84 26.5t29 72.5zM343 923h137l-104 -146h-100z" />
    <glyph glyph-name="racute" unicode="&#x155;" horiz-adv-x="435" 
d="M68 0v524h124v-92h1q10 33 45 63t104 30h64v-119h-88q-66 0 -93 -30.5t-27 -82.5v-293h-130zM267 743h137l-104 -146h-100z" />
    <glyph glyph-name="uni0156" unicode="&#x156;" horiz-adv-x="708" 
d="M83 0v704h319q59 0 105 -16t77 -45t47 -68.5t16 -86.5q0 -94 -61.5 -151t-175.5 -57h-16l296 -280h-188l-285 277v-277h-134zM511 480v11q0 48 -29 74t-84 26h-181v-210h181q55 0 84 26.5t29 72.5zM300 -92h137l-104 -146h-100z" />
    <glyph glyph-name="uni0157" unicode="&#x157;" horiz-adv-x="433" 
d="M68 0v524h124v-92h1q10 33 45 63t104 30h64v-119h-88q-66 0 -93 -30.5t-27 -82.5v-293h-130zM71 -92h137l-104 -146h-100z" />
    <glyph glyph-name="Rcaron" unicode="&#x158;" horiz-adv-x="691" 
d="M83 0v704h319q59 0 105 -16t77 -45t47 -68.5t16 -86.5q0 -94 -61.5 -151t-175.5 -57h-16l296 -280h-188l-285 277v-277h-134zM511 480v11q0 48 -29 74t-84 26h-181v-210h181q55 0 84 26.5t29 72.5zM138 923h120l68 -83h6l66 83h104l-118 -146h-129z" />
    <glyph glyph-name="rcaron" unicode="&#x159;" horiz-adv-x="435" 
d="M68 0v524h124v-92h1q10 33 45 63t104 30h64v-119h-88q-66 0 -93 -30.5t-27 -82.5v-293h-130zM63 743h120l68 -83h6l66 83h104l-118 -146h-129z" />
    <glyph glyph-name="Sacute" unicode="&#x15a;" horiz-adv-x="646" 
d="M323 -15q-133 0 -212 62.5t-80 161.5h136q1 -57 43 -87t114 -30t110.5 29t38.5 75q0 44 -30.5 62.5t-89.5 27.5l-93 14q-93 14 -153 62t-60 144q0 44 18.5 83t53.5 68t86.5 46t116.5 17q67 0 118.5 -17t86 -45.5t53 -67t19.5 -80.5h-136q-1 45 -35.5 74t-106.5 29
t-105 -29t-33 -67q0 -45 31 -64.5t85 -27.5l91 -14q46 -7 86.5 -21t69.5 -38t46 -60t17 -86t-21 -91t-58.5 -69.5t-90.5 -44.5t-116 -16zM339 923h137l-104 -146h-100z" />
    <glyph glyph-name="sacute" unicode="&#x15b;" horiz-adv-x="534" 
d="M32 156h133q1 -40 30.5 -58t75.5 -18q45 0 72 17t27 48t-25.5 44.5t-66.5 18.5l-76 10q-64 9 -110.5 44t-46.5 110q0 40 17 71t47 52.5t71.5 32.5t88.5 11q102 0 160 -47t61 -116h-131q-1 32 -24.5 51t-68.5 19q-43 0 -66.5 -17.5t-23.5 -44.5t19 -41t53 -18l76 -11
q35 -5 67 -15.5t56.5 -29t39 -46.5t14.5 -67q0 -40 -18 -72t-49 -54.5t-74 -34t-93 -11.5q-103 0 -168.5 47t-66.5 125zM288 743h137l-104 -146h-100z" />
    <glyph glyph-name="Scircumflex" unicode="&#x15c;" horiz-adv-x="646" 
d="M323 -15q-133 0 -212 62.5t-80 161.5h136q1 -57 43 -87t114 -30t110.5 29t38.5 75q0 44 -30.5 62.5t-89.5 27.5l-93 14q-93 14 -153 62t-60 144q0 44 18.5 83t53.5 68t86.5 46t116.5 17q67 0 118.5 -17t86 -45.5t53 -67t19.5 -80.5h-136q-1 45 -35.5 74t-106.5 29
t-105 -29t-33 -67q0 -45 31 -64.5t85 -27.5l91 -14q46 -7 86.5 -21t69.5 -38t46 -60t17 -86t-21 -91t-58.5 -69.5t-90.5 -44.5t-116 -16zM515 777h-120l-68 83h-6l-66 -83h-104l118 146h129z" />
    <glyph glyph-name="scircumflex" unicode="&#x15d;" horiz-adv-x="534" 
d="M32 156h133q1 -40 30.5 -58t75.5 -18q45 0 72 17t27 48t-25.5 44.5t-66.5 18.5l-76 10q-64 9 -110.5 44t-46.5 110q0 40 17 71t47 52.5t71.5 32.5t88.5 11q102 0 160 -47t61 -116h-131q-1 32 -24.5 51t-68.5 19q-43 0 -66.5 -17.5t-23.5 -44.5t19 -41t53 -18l76 -11
q35 -5 67 -15.5t56.5 -29t39 -46.5t14.5 -67q0 -40 -18 -72t-49 -54.5t-74 -34t-93 -11.5q-103 0 -168.5 47t-66.5 125zM464 597h-120l-68 83h-6l-66 -83h-104l118 146h129z" />
    <glyph glyph-name="Scedilla" unicode="&#x15e;" horiz-adv-x="646" 
d="M323 -15q-133 0 -212 62.5t-80 161.5h136q1 -57 43 -87t114 -30t110.5 29t38.5 75q0 44 -30.5 62.5t-89.5 27.5l-93 14q-93 14 -153 62t-60 144q0 44 18.5 83t53.5 68t86.5 46t116.5 17q67 0 118.5 -17t86 -45.5t53 -67t19.5 -80.5h-136q-1 45 -35.5 74t-106.5 29
t-105 -29t-33 -67q0 -45 31 -64.5t85 -27.5l91 -14q46 -7 86.5 -21t69.5 -38t46 -60t17 -86t-21 -91t-58.5 -69.5t-90.5 -44.5t-116 -16zM219 -224v55h87q21 0 39.5 6.5t18.5 25.5t-17 26.5t-48 7.5h-37v44l26 66h71l-24 -59q54 0 89.5 -21t35.5 -59q0 -48 -34 -70t-84 -22
h-123z" />
    <glyph glyph-name="scedilla" unicode="&#x15f;" horiz-adv-x="534" 
d="M32 156h133q1 -40 30.5 -58t75.5 -18q45 0 72 17t27 48t-25.5 44.5t-66.5 18.5l-76 10q-64 9 -110.5 44t-46.5 110q0 40 17 71t47 52.5t71.5 32.5t88.5 11q102 0 160 -47t61 -116h-131q-1 32 -24.5 51t-68.5 19q-43 0 -66.5 -17.5t-23.5 -44.5t19 -41t53 -18l76 -11
q35 -5 67 -15.5t56.5 -29t39 -46.5t14.5 -67q0 -40 -18 -72t-49 -54.5t-74 -34t-93 -11.5q-103 0 -168.5 47t-66.5 125zM164 -224v55h87q21 0 39.5 6.5t18.5 25.5t-17 26.5t-48 7.5h-37v44l26 66h71l-24 -59q54 0 89.5 -21t35.5 -59q0 -48 -34 -70t-84 -22h-123z" />
    <glyph glyph-name="Scaron" unicode="&#x160;" horiz-adv-x="646" 
d="M323 -15q-133 0 -212 62.5t-80 161.5h136q1 -57 43 -87t114 -30t110.5 29t38.5 75q0 44 -30.5 62.5t-89.5 27.5l-93 14q-93 14 -153 62t-60 144q0 44 18.5 83t53.5 68t86.5 46t116.5 17q67 0 118.5 -17t86 -45.5t53 -67t19.5 -80.5h-136q-1 45 -35.5 74t-106.5 29
t-105 -29t-33 -67q0 -45 31 -64.5t85 -27.5l91 -14q46 -7 86.5 -21t69.5 -38t46 -60t17 -86t-21 -91t-58.5 -69.5t-90.5 -44.5t-116 -16zM135 923h120l68 -83h6l66 83h104l-118 -146h-129z" />
    <glyph glyph-name="scaron" unicode="&#x161;" horiz-adv-x="534" 
d="M32 156h133q1 -40 30.5 -58t75.5 -18q45 0 72 17t27 48t-25.5 44.5t-66.5 18.5l-76 10q-64 9 -110.5 44t-46.5 110q0 40 17 71t47 52.5t71.5 32.5t88.5 11q102 0 160 -47t61 -116h-131q-1 32 -24.5 51t-68.5 19q-43 0 -66.5 -17.5t-23.5 -44.5t19 -41t53 -18l76 -11
q35 -5 67 -15.5t56.5 -29t39 -46.5t14.5 -67q0 -40 -18 -72t-49 -54.5t-74 -34t-93 -11.5q-103 0 -168.5 47t-66.5 125zM83 743h120l68 -83h6l66 83h104l-118 -146h-129z" />
    <glyph glyph-name="Tcedilla" unicode="&#x162;" horiz-adv-x="608" 
d="M237 588h-225v116h584v-116h-225v-588h-134v588zM200 -224v55h87q21 0 39.5 6.5t18.5 25.5t-17 26.5t-48 7.5h-37v44l26 66h71l-24 -59q54 0 89.5 -21t35.5 -59q0 -48 -34 -70t-84 -22h-123z" />
    <glyph glyph-name="tcedilla" unicode="&#x163;" horiz-adv-x="460" 
d="M18 524h114v147h130v-147h162v-106h-162v-269q0 -23 10.5 -33.5t32.5 -10.5h119v-105h-149q-72 0 -107.5 35.5t-35.5 102.5v280h-114v106zM125 -224v55h87q21 0 39.5 6.5t18.5 25.5t-17 26.5t-48 7.5h-37v44l26 66h71l-24 -59q54 0 89.5 -21t35.5 -59q0 -48 -34 -70
t-84 -22h-123z" />
    <glyph glyph-name="Tcaron" unicode="&#x164;" horiz-adv-x="608" 
d="M237 588h-225v116h584v-116h-225v-588h-134v588zM117 923h120l68 -83h6l66 83h104l-118 -146h-129z" />
    <glyph glyph-name="tcaron" unicode="&#x165;" horiz-adv-x="460" 
d="M18 524h114v147h130v-147h162v-106h-162v-269q0 -23 10.5 -33.5t32.5 -10.5h119v-105h-149q-72 0 -107.5 35.5t-35.5 102.5v280h-114v106zM392 738h137l-104 -146h-100z" />
    <glyph glyph-name="Tbar" unicode="&#x166;" horiz-adv-x="608" 
d="M65 273v116h172v199h-225v116h584v-116h-225v-199h172v-116h-172v-273h-134v273h-172z" />
    <glyph glyph-name="tbar" unicode="&#x167;" horiz-adv-x="462" 
d="M18 215v101h114v102h-114v106h114v147h130v-147h162v-106h-162v-102h164v-101h-164v-66q0 -23 10.5 -33.5t32.5 -10.5h119v-105h-149q-72 0 -107.5 35.5t-35.5 102.5v77h-114z" />
    <glyph glyph-name="Utilde" unicode="&#x168;" horiz-adv-x="717" 
d="M359 -15q-68 0 -121 20.5t-89.5 55.5t-56 84t-19.5 106v453h135v-449q0 -72 40 -113t111 -41q70 0 110.5 41t40.5 113v449h134v-453q0 -57 -19.5 -106t-55.5 -84t-89.5 -55.5t-120.5 -20.5zM427 778q-30 0 -49 11t-33.5 24t-28 24t-32.5 11q-22 0 -33 -14.5t-11 -44.5
h-64v6q0 60 30 94t83 34h1q30 0 49.5 -11t34.5 -24.5t29 -24.5t34 -11q21 0 32 14t11 43h64v-5q0 -60 -31 -93t-85 -33h-1z" />
    <glyph glyph-name="utilde" unicode="&#x169;" horiz-adv-x="612" 
d="M412 216v308h130v-524h-122v84h-1q-21 -49 -64.5 -73.5t-98.5 -24.5q-84 0 -139 55.5t-55 154.5v328h130v-314q0 -57 32.5 -85.5t74.5 -28.5q44 0 78.5 30t34.5 90zM371 598q-30 0 -49 11t-33.5 24t-28 24t-32.5 11q-22 0 -33 -14.5t-11 -44.5h-64v6q0 60 30 94t83 34h1
q30 0 49.5 -11t34.5 -24.5t29 -24.5t34 -11q21 0 32 14t11 43h64v-5q0 -60 -31 -93t-85 -33h-1z" />
    <glyph glyph-name="Umacron" unicode="&#x16a;" horiz-adv-x="717" 
d="M359 -15q-68 0 -121 20.5t-89.5 55.5t-56 84t-19.5 106v453h135v-449q0 -72 40 -113t111 -41q70 0 110.5 41t40.5 113v449h134v-453q0 -57 -19.5 -106t-55.5 -84t-89.5 -55.5t-120.5 -20.5zM221 897h276v-84h-276v84z" />
    <glyph glyph-name="umacron" unicode="&#x16b;" horiz-adv-x="612" 
d="M412 216v308h130v-524h-122v84h-1q-21 -49 -64.5 -73.5t-98.5 -24.5q-84 0 -139 55.5t-55 154.5v328h130v-314q0 -57 32.5 -85.5t74.5 -28.5q44 0 78.5 30t34.5 90zM166 717h276v-84h-276v84z" />
    <glyph glyph-name="Ubreve" unicode="&#x16c;" horiz-adv-x="717" 
d="M359 -15q-68 0 -121 20.5t-89.5 55.5t-56 84t-19.5 106v453h135v-449q0 -72 40 -113t111 -41q70 0 110.5 41t40.5 113v449h134v-453q0 -57 -19.5 -106t-55.5 -84t-89.5 -55.5t-120.5 -20.5zM352 777q-76 0 -118.5 43t-42.5 103h101q0 -32 17.5 -48.5t48.5 -16.5
q32 0 48.5 17t16.5 48h100q0 -59 -42.5 -102.5t-117.5 -43.5h-11z" />
    <glyph glyph-name="ubreve" unicode="&#x16d;" horiz-adv-x="612" 
d="M412 216v308h130v-524h-122v84h-1q-21 -49 -64.5 -73.5t-98.5 -24.5q-84 0 -139 55.5t-55 154.5v328h130v-314q0 -57 32.5 -85.5t74.5 -28.5q44 0 78.5 30t34.5 90zM296 597q-76 0 -118.5 43t-42.5 103h101q0 -32 17.5 -48.5t48.5 -16.5q32 0 48.5 17t16.5 48h100
q0 -59 -42.5 -102.5t-117.5 -43.5h-11z" />
    <glyph glyph-name="Uring" unicode="&#x16e;" horiz-adv-x="717" 
d="M359 -15q-68 0 -121 20.5t-89.5 55.5t-56 84t-19.5 106v453h135v-449q0 -72 40 -113t111 -41q70 0 110.5 41t40.5 113v449h134v-453q0 -57 -19.5 -106t-55.5 -84t-89.5 -55.5t-120.5 -20.5zM362 771q-51 0 -90 32.5t-39 86.5t39 87t90 33q52 0 90.5 -33t38.5 -87
t-38.5 -86.5t-90.5 -32.5zM362 832q25 0 41 15t16 43t-16 43t-41 15t-41.5 -15t-16.5 -43t16.5 -43t41.5 -15z" />
    <glyph glyph-name="uring" unicode="&#x16f;" horiz-adv-x="612" 
d="M412 216v308h130v-524h-122v84h-1q-21 -49 -64.5 -73.5t-98.5 -24.5q-84 0 -139 55.5t-55 154.5v328h130v-314q0 -57 32.5 -85.5t74.5 -28.5q44 0 78.5 30t34.5 90zM306 591q-51 0 -90 32.5t-39 86.5t39 87t90 33q52 0 90.5 -33t38.5 -87t-38.5 -86.5t-90.5 -32.5z
M306 652q25 0 41 15t16 43t-16 43t-41 15t-41.5 -15t-16.5 -43t16.5 -43t41.5 -15z" />
    <glyph glyph-name="Uhungarumlaut" unicode="&#x170;" horiz-adv-x="717" 
d="M359 -15q-68 0 -121 20.5t-89.5 55.5t-56 84t-19.5 106v453h135v-449q0 -72 40 -113t111 -41q70 0 110.5 41t40.5 113v449h134v-453q0 -57 -19.5 -106t-55.5 -84t-89.5 -55.5t-120.5 -20.5zM270 923h126l-105 -146h-88zM468 923h125l-104 -146h-88z" />
    <glyph glyph-name="uhungarumlaut" unicode="&#x171;" horiz-adv-x="612" 
d="M412 216v308h130v-524h-122v84h-1q-21 -49 -64.5 -73.5t-98.5 -24.5q-84 0 -139 55.5t-55 154.5v328h130v-314q0 -57 32.5 -85.5t74.5 -28.5q44 0 78.5 30t34.5 90zM214 743h126l-105 -146h-88zM412 743h125l-104 -146h-88z" />
    <glyph glyph-name="Uogonek" unicode="&#x172;" horiz-adv-x="717" 
d="M359 -15q-68 0 -121 20.5t-89.5 55.5t-56 84t-19.5 106v453h135v-449q0 -72 40 -113t111 -41q70 0 110.5 41t40.5 113v449h134v-453q0 -57 -19.5 -106t-55.5 -84t-89.5 -55.5t-120.5 -20.5zM413 31v-31q-35 -23 -54 -41.5t-19 -38.5q0 -15 12 -25t40 -10h70v-85h-101
q-56 0 -83.5 28t-27.5 64q0 40 41 74t122 65z" />
    <glyph glyph-name="uogonek" unicode="&#x173;" horiz-adv-x="612" 
d="M412 216v308h130v-524h-122v84h-1q-21 -49 -64.5 -73.5t-98.5 -24.5q-84 0 -139 55.5t-55 154.5v328h130v-314q0 -57 32.5 -85.5t74.5 -28.5q44 0 78.5 30t34.5 90zM543 31v-31q-35 -23 -54 -41.5t-19 -38.5q0 -15 12 -25t40 -10h70v-85h-101q-56 0 -83.5 28t-27.5 64
q0 40 41 74t122 65z" />
    <glyph glyph-name="Wcircumflex" unicode="&#x174;" horiz-adv-x="971" 
d="M9 704h141l137 -499h2l140 501h126l142 -504h2l134 502h131l-200 -705h-130l-147 506h-2l-145 -506h-124zM682 777h-120l-68 83h-6l-66 -83h-104l118 146h129z" />
    <glyph glyph-name="wcircumflex" unicode="&#x175;" horiz-adv-x="814" 
d="M10 524h136l100 -357h1l106 357h123l106 -356h1l99 356h123l-158 -526h-130l-107 367h-1l-108 -367h-125zM607 597h-120l-68 83h-6l-66 -83h-104l118 146h129z" />
    <glyph glyph-name="Ycircumflex" unicode="&#x176;" horiz-adv-x="632" 
d="M253 0v269l-249 435h146l171 -304h2l170 304h144l-250 -435v-269h-134zM511 777h-120l-68 83h-6l-66 -83h-104l118 146h129z" />
    <glyph glyph-name="ycircumflex" unicode="&#x177;" horiz-adv-x="543" 
d="M326 -42q-31 -81 -78.5 -115t-125.5 -34h-110v105h104q31 0 47.5 11t29.5 45l17 46l-203 508h143l128 -362h1l127 362h131zM475 597h-120l-68 83h-6l-66 -83h-104l118 146h129z" />
    <glyph glyph-name="Ydieresis" unicode="&#x178;" horiz-adv-x="632" 
d="M253 0v269l-249 435h146l171 -304h2l170 304h144l-250 -435v-269h-134zM226 788h-4q-28 0 -47 19.5t-19 46.5q0 28 19 46.5t47 18.5h4q28 0 47.5 -18.5t19.5 -46.5q0 -27 -19.5 -46.5t-47.5 -19.5zM421 788h-4q-28 0 -47 19.5t-19 46.5q0 28 19 46.5t47 18.5h4
q28 0 47.5 -18.5t19.5 -46.5q0 -27 -19.5 -46.5t-47.5 -19.5z" />
    <glyph glyph-name="Zacute" unicode="&#x179;" horiz-adv-x="622" 
d="M199 116h381v-116h-543v116l366 472h-356v116h518v-116zM323 923h137l-104 -146h-100z" />
    <glyph glyph-name="zacute" unicode="&#x17a;" horiz-adv-x="515" 
d="M38 0v104l272 316h-264v104h415v-105l-271 -315h294v-104h-446zM280 743h137l-104 -146h-100z" />
    <glyph glyph-name="Zdotaccent" unicode="&#x17b;" horiz-adv-x="622" 
d="M199 116h381v-116h-543v116l366 472h-356v116h518v-116zM308 788h-4q-28 0 -47 19.5t-19 46.5q0 28 19 46.5t47 18.5h4q28 0 47.5 -18.5t19.5 -46.5q0 -27 -19.5 -46.5t-47.5 -19.5z" />
    <glyph glyph-name="zdotaccent" unicode="&#x17c;" horiz-adv-x="515" 
d="M38 0v104l272 316h-264v104h415v-105l-271 -315h294v-104h-446zM266 608h-4q-28 0 -47 19.5t-19 46.5q0 28 19 46.5t47 18.5h4q28 0 47.5 -18.5t19.5 -46.5q0 -27 -19.5 -46.5t-47.5 -19.5z" />
    <glyph glyph-name="Zcaron" unicode="&#x17d;" horiz-adv-x="622" 
d="M199 116h381v-116h-543v116l366 472h-356v116h518v-116zM118 923h120l68 -83h6l66 83h104l-118 -146h-129z" />
    <glyph glyph-name="zcaron" unicode="&#x17e;" horiz-adv-x="515" 
d="M38 0v104l272 316h-264v104h415v-105l-271 -315h294v-104h-446zM76 743h120l68 -83h6l66 83h104l-118 -146h-129z" />
    <glyph glyph-name="uni018F" unicode="&#x18f;" horiz-adv-x="753" 
d="M370 -14q-80 0 -142.5 29t-104.5 79.5t-63.5 119.5t-21.5 148v33h536q-2 46 -16.5 85t-39.5 67.5t-62 44.5t-84 16q-75 0 -119 -34t-58 -77h-142q13 46 39.5 86.5t66 70.5t93 47.5t120.5 17.5q80 0 143.5 -27.5t106.5 -76t66 -116t23 -146.5t-23.5 -147t-67.5 -116.5
t-107.5 -76t-142.5 -27.5zM373 96q45 0 80.5 15.5t60.5 42t39.5 61t16.5 72.5h-388q2 -39 15.5 -74t37.5 -60.5t58.5 -41t79.5 -15.5z" />
    <glyph glyph-name="florin" unicode="&#x192;" horiz-adv-x="622" 
d="M560 363h-194l-64 -365q-12 -67 -53.5 -102.5t-113.5 -35.5h-109v101h96q22 0 34.5 10.5t16.5 32.5l63 359h-94v104h112l18 99q12 67 53.5 102.5t113.5 35.5h148v-101h-135q-22 0 -34.5 -10.5t-16.5 -32.5l-17 -93h176v-104z" />
    <glyph glyph-name="Nhookleft" unicode="&#x19d;" horiz-adv-x="729" 
d="M83 0v704h156l312 -505h1v505h128v-704h-147l-319 523h-1v-523h-130zM84 -47v571h130v-580q0 -67 -35.5 -102.5t-107.5 -35.5h-133v104h103q22 0 32.5 10.5t10.5 32.5z" />
    <glyph glyph-name="uni01B5" unicode="&#x1b5;" horiz-adv-x="622" 
d="M199 116h381v-116h-543v116l148 191h-120v110h205l133 171h-356v116h518v-116l-133 -171h119v-110h-204z" />
    <glyph glyph-name="uni01B6" unicode="&#x1b6;" horiz-adv-x="526" 
d="M38 0v104l101 117h-81v92h160l92 107h-264v104h415v-105l-91 -106h107v-92h-186l-101 -117h294v-104h-446z" />
    <glyph glyph-name="Acaron" unicode="&#x1cd;" horiz-adv-x="693" 
d="M546 0l-53 147h-300l-52 -147h-138l265 704h155l267 -704h-144zM340 562l-106 -299h217l-109 299h-2zM161 923h120l68 -83h6l66 83h104l-118 -146h-129z" />
    <glyph glyph-name="acaron" unicode="&#x1ce;" horiz-adv-x="577" 
d="M52 372q8 74 67 120t161 46q45 0 85 -10.5t69 -32.5t46.5 -57t17.5 -85v-217q0 -22 8.5 -28.5t26.5 -6.5h31v-101h-72q-54 0 -77 23t-22 62v5h-1q-19 -47 -64 -75.5t-109 -28.5q-81 0 -132.5 42t-51.5 116q0 76 53.5 115t145.5 52l64 10q37 5 53.5 18t16.5 38
q0 26 -20 46.5t-70 20.5q-46 0 -70.5 -19.5t-27.5 -52.5h-128zM370 212v49q-8 -7 -23.5 -14t-37.5 -10l-55 -8q-43 -7 -68 -24.5t-25 -47.5v-6q0 -31 22.5 -49t62.5 -18q57 0 90.5 35.5t33.5 92.5zM88 742h120l68 -83h6l66 83h104l-118 -146h-129z" />
    <glyph glyph-name="Icaron" unicode="&#x1cf;" horiz-adv-x="300" 
d="M83 704h134v-704h-134v704zM-37 923h120l68 -83h6l66 83h104l-118 -146h-129z" />
    <glyph glyph-name="icaron" unicode="&#x1d0;" horiz-adv-x="265" 
d="M68 524h130v-524h-130v524zM-55 743h120l68 -83h6l66 83h104l-118 -146h-129z" />
    <glyph glyph-name="Ocaron" unicode="&#x1d1;" horiz-adv-x="751" 
d="M375 -14q-80 0 -142.5 29t-104.5 78t-64 116t-22 143t22 143t64 116.5t104.5 78.5t142.5 29t142.5 -29t104.5 -78.5t64 -116.5t22 -143t-22 -143t-63.5 -116t-104 -78t-143.5 -29zM375 103q40 0 76 15t62.5 43.5t42 70.5t15.5 96v49q0 54 -15.5 96t-42 70.5t-62.5 43.5
t-76 15t-75.5 -15t-62 -43.5t-42 -70.5t-15.5 -96v-49q0 -54 15.5 -96t42 -70.5t62 -43.5t75.5 -15zM188 923h120l68 -83h6l66 83h104l-118 -146h-129z" />
    <glyph glyph-name="ocaron" unicode="&#x1d2;" horiz-adv-x="603" 
d="M302 -14q-65 0 -114.5 22.5t-82.5 60.5t-49.5 88t-16.5 105t16.5 105t49.5 88t82.5 60.5t114.5 22.5t114 -22.5t82 -60.5t49.5 -88.5t16.5 -104.5q0 -55 -16.5 -105t-49 -88t-82 -60.5t-114.5 -22.5zM434 239v45q0 70 -38.5 108.5t-93.5 38.5q-56 0 -94.5 -39t-38.5 -108
v-45q0 -68 38.5 -107t94.5 -39q55 0 93.5 38.5t38.5 107.5zM115 742h120l68 -83h6l66 83h104l-118 -146h-129z" />
    <glyph glyph-name="Ucaron" unicode="&#x1d3;" horiz-adv-x="717" 
d="M359 -15q-68 0 -121 20.5t-89.5 55.5t-56 84t-19.5 106v453h135v-449q0 -72 40 -113t111 -41q70 0 110.5 41t40.5 113v449h134v-453q0 -57 -19.5 -106t-55.5 -84t-89.5 -55.5t-120.5 -20.5zM172 923h120l68 -83h6l66 83h104l-118 -146h-129z" />
    <glyph glyph-name="ucaron" unicode="&#x1d4;" horiz-adv-x="612" 
d="M412 216v308h130v-524h-122v84h-1q-21 -49 -64.5 -73.5t-98.5 -24.5q-84 0 -139 55.5t-55 154.5v328h130v-314q0 -57 32.5 -85.5t74.5 -28.5q44 0 78.5 30t34.5 90zM116 743h120l68 -83h6l66 83h104l-118 -146h-129z" />
    <glyph glyph-name="AEmacron" unicode="&#x1e2;" horiz-adv-x="983" 
d="M546 0l-53 147h-300l-52 -147h-138l265 704h664v-116h-465l64 -170h369v-114h-325l71 -188h286v-116h-386zM340 562l-106 -299h217l-109 299h-2zM262 897h276v-84h-276v84z" />
    <glyph glyph-name="aemacron" unicode="&#x1e3;" horiz-adv-x="928" 
d="M451 432h1q28 47 75 76.5t116 29.5q60 0 106.5 -21.5t77.5 -57.5t47 -83.5t16 -99.5v-47h-386q1 -69 39.5 -107.5t98.5 -38.5q51 0 77.5 24t30.5 50h129q-13 -76 -76.5 -123.5t-155.5 -47.5q-85 0 -138.5 43t-77.5 110h-1q-13 -69 -72 -111t-139 -42q-81 0 -132.5 42
t-51.5 116q0 76 53.5 115t145.5 52l65 10q36 5 52.5 18t16.5 38t-20 46t-69 21q-47 0 -71.5 -19.5t-26.5 -52.5h-128q7 74 64.5 120t155.5 46q66 0 111.5 -25.5t66.5 -80.5zM634 441q-50 0 -86 -33t-43 -92h254q-3 60 -38 92.5t-87 32.5zM371 212v50q-7 -7 -23 -14.5
t-39 -10.5l-54 -8q-44 -7 -68.5 -24.5t-24.5 -47.5v-6q0 -31 22 -49t62 -18q57 0 91 35.5t34 92.5zM318 716h276v-84h-276v84z" />
    <glyph glyph-name="Gcaron" unicode="&#x1e6;" horiz-adv-x="735" 
d="M570 0v123h-1q-16 -58 -69 -97.5t-140 -39.5q-77 0 -136.5 29t-99.5 78.5t-61 116.5t-21 142q0 76 22 143.5t64.5 116.5t105 78t142.5 29q123 0 201.5 -61.5t98.5 -161.5h-147q-9 42 -45.5 74t-105.5 32q-41 0 -77 -15t-63 -43.5t-42.5 -70.5t-15.5 -96v-52
q0 -54 15.5 -96t42 -70.5t62.5 -43.5t77 -15q42 0 74.5 14.5t54.5 38t33 54t11 61.5h-182v109h313v-377h-111zM191 923h120l68 -83h6l66 83h104l-118 -146h-129z" />
    <glyph glyph-name="gcaron" unicode="&#x1e7;" horiz-adv-x="620" 
d="M53 -33h128q5 -30 33.5 -52t79.5 -22q66 0 100.5 36.5t34.5 108.5v72h-1q-23 -40 -63 -64t-100 -24q-55 0 -97.5 21t-71 56.5t-43 83t-14.5 99.5q0 50 14.5 96.5t42.5 82t70.5 56.5t98.5 21q65 0 106.5 -27t63.5 -70h1v83h123v-476q0 -119 -69 -186.5t-196 -67.5
q-110 0 -172 50.5t-69 122.5zM169 291v-24q0 -66 38 -102.5t92 -36.5t92 37.5t38 101.5v24q0 66 -38 103t-92 37t-92 -36.5t-38 -103.5zM118 743h120l68 -83h6l66 83h104l-118 -146h-129z" />
    <glyph glyph-name="Oogonek" unicode="&#x1ea;" horiz-adv-x="751" 
d="M375 -14q-80 0 -142.5 29t-104.5 78t-64 116t-22 143t22 143t64 116.5t104.5 78.5t142.5 29t142.5 -29t104.5 -78.5t64 -116.5t22 -143t-22 -143t-63.5 -116t-104 -78t-143.5 -29zM375 103q40 0 76 15t62.5 43.5t42 70.5t15.5 96v49q0 54 -15.5 96t-42 70.5t-62.5 43.5
t-76 15t-75.5 -15t-62 -43.5t-42 -70.5t-15.5 -96v-49q0 -54 15.5 -96t42 -70.5t62 -43.5t75.5 -15zM429 31v-31q-35 -23 -54 -41.5t-19 -38.5q0 -15 12 -25t40 -10h70v-85h-101q-56 0 -83.5 28t-27.5 64q0 40 41 74t122 65z" />
    <glyph glyph-name="oogonek" unicode="&#x1eb;" horiz-adv-x="603" 
d="M302 -14q-65 0 -114.5 22.5t-82.5 60.5t-49.5 88t-16.5 105t16.5 105t49.5 88t82.5 60.5t114.5 22.5t114 -22.5t82 -60.5t49.5 -88.5t16.5 -104.5q0 -55 -16.5 -105t-49 -88t-82 -60.5t-114.5 -22.5zM434 239v45q0 70 -38.5 108.5t-93.5 38.5q-56 0 -94.5 -39t-38.5 -108
v-45q0 -68 38.5 -107t94.5 -39q55 0 93.5 38.5t38.5 107.5zM355 31v-31q-35 -23 -54 -41.5t-19 -38.5q0 -15 12 -25t40 -10h70v-85h-101q-56 0 -83.5 28t-27.5 64q0 40 41 74t122 65z" />
    <glyph glyph-name="uni01F9" unicode="&#x1f9;" horiz-adv-x="610" 
d="M198 308v-308h-130v524h122v-84h1q21 49 64.5 73.5t98.5 24.5q84 0 139 -55.5t55 -154.5v-328h-130v314q0 57 -32.5 85.5t-74.5 28.5q-44 0 -78.5 -30t-34.5 -90zM245 -92h137l-104 -146h-100z" />
    <glyph glyph-name="Aringacute" unicode="&#x1fa;" horiz-adv-x="693" 
d="M546 0l-53 147h-300l-52 -147h-138l265 704h155l267 -704h-144zM340 562l-106 -299h217l-109 299h-2zM351 643q-51 0 -90 32.5t-39 86.5q0 40 21.5 68.5t55.5 41.5l67 150h137l-102 -149q34 -13 56.5 -42t22.5 -69q0 -54 -38.5 -86.5t-90.5 -32.5zM351 704q25 0 41 15
t16 43t-16 43t-41 15t-41.5 -15t-16.5 -43t16.5 -43t41.5 -15z" />
    <glyph glyph-name="aringacute" unicode="&#x1fb;" horiz-adv-x="577" 
d="M52 372q8 74 67 120t161 46q45 0 85 -10.5t69 -32.5t46.5 -57t17.5 -85v-217q0 -22 8.5 -28.5t26.5 -6.5h31v-101h-72q-54 0 -77 23t-22 62v5h-1q-19 -47 -64 -75.5t-109 -28.5q-81 0 -132.5 42t-51.5 116q0 76 53.5 115t145.5 52l64 10q37 5 53.5 18t16.5 38
q0 26 -20 46.5t-70 20.5q-46 0 -70.5 -19.5t-27.5 -52.5h-128zM370 212v49q-8 -7 -23.5 -14t-37.5 -10l-55 -8q-43 -7 -68 -24.5t-25 -47.5v-6q0 -31 22.5 -49t62.5 -18q57 0 90.5 35.5t33.5 92.5zM276 473q-51 0 -90 32.5t-39 86.5q0 40 21.5 68.5t55.5 41.5l67 150h137
l-102 -149q34 -13 56.5 -42t22.5 -69q0 -54 -38.5 -86.5t-90.5 -32.5zM276 534q25 0 41 15t16 43t-16 43t-41 15t-41.5 -15t-16.5 -43t16.5 -43t41.5 -15z" />
    <glyph glyph-name="AEacute" unicode="&#x1fc;" horiz-adv-x="983" 
d="M546 0l-53 147h-300l-52 -147h-138l265 704h664v-116h-465l64 -170h369v-114h-325l71 -188h286v-116h-386zM340 562l-106 -299h217l-109 299h-2zM416 923h137l-104 -146h-100z" />
    <glyph glyph-name="aeacute" unicode="&#x1fd;" horiz-adv-x="928" 
d="M451 432h1q28 47 75 76.5t116 29.5q60 0 106.5 -21.5t77.5 -57.5t47 -83.5t16 -99.5v-47h-386q1 -69 39.5 -107.5t98.5 -38.5q51 0 77.5 24t30.5 50h129q-13 -76 -76.5 -123.5t-155.5 -47.5q-85 0 -138.5 43t-77.5 110h-1q-13 -69 -72 -111t-139 -42q-81 0 -132.5 42
t-51.5 116q0 76 53.5 115t145.5 52l65 10q36 5 52.5 18t16.5 38t-20 46t-69 21q-47 0 -71.5 -19.5t-26.5 -52.5h-128q7 74 64.5 120t155.5 46q66 0 111.5 -25.5t66.5 -80.5zM634 441q-50 0 -86 -33t-43 -92h254q-3 60 -38 92.5t-87 32.5zM371 212v50q-7 -7 -23 -14.5
t-39 -10.5l-54 -8q-44 -7 -68.5 -24.5t-24.5 -47.5v-6q0 -31 22 -49t62 -18q57 0 91 35.5t34 92.5zM473 742h137l-104 -146h-100z" />
    <glyph glyph-name="Oslashacute" unicode="&#x1fe;" horiz-adv-x="751" 
d="M48 -21l81 112q-43 50 -65 117.5t-22 143.5t22 143t64 116.5t104.5 78.5t142.5 29q51 0 95 -12t80 -34l77 106l76 -54l-82 -113q43 -49 65 -116.5t22 -143.5t-22 -143t-63.5 -116t-104 -78t-143.5 -29q-51 0 -95 11.5t-80 33.5l-77 -106zM180 328q0 -37 8 -69.5t21 -57.5
l269 372q-22 14 -48.5 21.5t-54.5 7.5q-40 0 -75.5 -15t-62 -43.5t-42 -70.5t-15.5 -96v-49zM375 103q40 0 76 15t62.5 43.5t42 70.5t15.5 96v49q0 37 -8 69t-21 57l-269 -371q22 -14 48 -21.5t54 -7.5zM392 923h137l-104 -146h-100z" />
    <glyph glyph-name="oslashacute" unicode="&#x1ff;" horiz-adv-x="603" 
d="M20 -10l75 89q-29 37 -43.5 84.5t-14.5 98.5q0 55 16.5 105t49.5 88t82.5 60.5t114.5 22.5q44 0 81.5 -11t66.5 -30l74 87l59 -51l-76 -90q28 -37 42.5 -83.5t14.5 -97.5q0 -55 -16.5 -105t-49 -88t-82 -60.5t-114.5 -22.5q-45 0 -82 11t-67 30l-73 -87zM167 239
q0 -17 3 -33t8 -29l196 232q-16 11 -34.5 16.5t-39.5 5.5q-56 0 -94.5 -39t-38.5 -108v-45zM432 239v45q0 17 -3 33t-7 29l-196 -231q16 -11 34.5 -16.5t39.5 -5.5q55 0 93.5 38.5t38.5 107.5zM315 742h137l-104 -146h-100z" />
    <glyph glyph-name="uni0218" unicode="&#x218;" horiz-adv-x="663" 
d="M323 -15q-133 0 -212 62.5t-80 161.5h136q1 -57 43 -87t114 -30t110.5 29t38.5 75q0 44 -30.5 62.5t-89.5 27.5l-93 14q-93 14 -153 62t-60 144q0 44 18.5 83t53.5 68t86.5 46t116.5 17q67 0 118.5 -17t86 -45.5t53 -67t19.5 -80.5h-136q-1 45 -35.5 74t-106.5 29
t-105 -29t-33 -67q0 -45 31 -64.5t85 -27.5l91 -14q46 -7 86.5 -21t69.5 -38t46 -60t17 -86t-21 -91t-58.5 -69.5t-90.5 -44.5t-116 -16zM260 -92h137l-104 -146h-100z" />
    <glyph glyph-name="uni0219" unicode="&#x219;" horiz-adv-x="534" 
d="M32 156h133q1 -40 30.5 -58t75.5 -18q45 0 72 17t27 48t-25.5 44.5t-66.5 18.5l-76 10q-64 9 -110.5 44t-46.5 110q0 40 17 71t47 52.5t71.5 32.5t88.5 11q102 0 160 -47t61 -116h-131q-1 32 -24.5 51t-68.5 19q-43 0 -66.5 -17.5t-23.5 -44.5t19 -41t53 -18l76 -11
q35 -5 67 -15.5t56.5 -29t39 -46.5t14.5 -67q0 -40 -18 -72t-49 -54.5t-74 -34t-93 -11.5q-103 0 -168.5 47t-66.5 125zM209 -92h137l-104 -146h-100z" />
    <glyph glyph-name="uni021A" unicode="&#x21a;" horiz-adv-x="625" 
d="M237 588h-225v116h584v-116h-225v-588h-134v588zM240 -92h137l-104 -146h-100z" />
    <glyph glyph-name="uni021B" unicode="&#x21b;" horiz-adv-x="460" 
d="M18 524h114v147h130v-147h162v-106h-162v-269q0 -23 10.5 -33.5t32.5 -10.5h119v-105h-149q-72 0 -107.5 35.5t-35.5 102.5v280h-114v106zM224 -92h137l-104 -146h-100z" />
    <glyph glyph-name="Ymacron" unicode="&#x232;" horiz-adv-x="632" 
d="M253 0v269l-249 435h146l171 -304h2l170 304h144l-250 -435v-269h-134zM180 897h276v-84h-276v84z" />
    <glyph glyph-name="ymacron" unicode="&#x233;" horiz-adv-x="543" 
d="M326 -42q-31 -81 -78.5 -115t-125.5 -34h-110v105h104q31 0 47.5 11t29.5 45l17 46l-203 508h143l128 -362h1l127 362h131zM144 717h276v-84h-276v84z" />
    <glyph glyph-name="dotlessj" unicode="&#x237;" horiz-adv-x="267" 
d="M69 -47v571h130v-580q0 -67 -35.5 -102.5t-107.5 -35.5h-133v104h103q22 0 32.5 10.5t10.5 32.5z" />
    <glyph glyph-name="uni0259" unicode="&#x259;" horiz-adv-x="593" 
d="M290 538q66 0 116 -22.5t82.5 -60t49 -88t16.5 -105.5t-16.5 -105t-49 -88t-81 -60.5t-112.5 -22.5q-63 0 -110.5 21.5t-79 57.5t-47.5 83.5t-16 99.5v47h382q-1 69 -40 107.5t-97 38.5q-49 0 -75.5 -23t-30.5 -49h-130q13 75 78 122t161 47zM295 83q51 0 86.5 33
t41.5 92h-251q2 -60 36.5 -92.5t86.5 -32.5z" />
    <glyph glyph-name="nhookleft" unicode="&#x272;" horiz-adv-x="594" 
d="M198 308v-308h-130v524h122v-84h1q21 49 64.5 73.5t98.5 24.5q84 0 139 -55.5t55 -154.5v-328h-130v314q0 57 -32.5 85.5t-74.5 28.5q-44 0 -78.5 -30t-34.5 -90zM67 -47v571h130v-580q0 -67 -35.5 -102.5t-107.5 -35.5h-133v104h103q22 0 32.5 10.5t10.5 32.5z" />
    <glyph glyph-name="circumflex" unicode="&#x2c6;" horiz-adv-x="502" 
d="M453 596h-120l-68 83h-6l-66 -83h-104l118 146h129z" />
    <glyph glyph-name="caron" unicode="&#x2c7;" horiz-adv-x="502" 
d="M66 742h120l68 -83h6l66 83h104l-118 -146h-129z" />
    <glyph glyph-name="breve" unicode="&#x2d8;" horiz-adv-x="504" 
d="M243 596q-76 0 -118.5 43t-42.5 103h101q0 -32 17.5 -48.5t48.5 -16.5q32 0 48.5 17t16.5 48h100q0 -59 -42.5 -102.5t-117.5 -43.5h-11z" />
    <glyph glyph-name="dotaccent" unicode="&#x2d9;" horiz-adv-x="504" 
d="M254 607h-4q-28 0 -47 19.5t-19 46.5q0 28 19 46.5t47 18.5h4q28 0 47.5 -18.5t19.5 -46.5q0 -27 -19.5 -46.5t-47.5 -19.5z" />
    <glyph glyph-name="ring" unicode="&#x2da;" horiz-adv-x="500" 
d="M252 590q-51 0 -90 32.5t-39 86.5t39 87t90 33q52 0 90.5 -33t38.5 -87t-38.5 -86.5t-90.5 -32.5zM252 651q25 0 41 15t16 43t-16 43t-41 15t-41.5 -15t-16.5 -43t16.5 -43t41.5 -15z" />
    <glyph glyph-name="ogonek" unicode="&#x2db;" horiz-adv-x="501" 
d="M293 31v-31q-35 -23 -54 -41.5t-19 -38.5q0 -15 12 -25t40 -10h70v-85h-101q-56 0 -83.5 28t-27.5 64q0 40 41 74t122 65z" />
    <glyph glyph-name="tilde" unicode="&#x2dc;" horiz-adv-x="498" 
d="M316 597q-30 0 -49 11t-33.5 24t-28 24t-32.5 11q-22 0 -33 -14.5t-11 -44.5h-64v6q0 60 30 94t83 34h1q30 0 49.5 -11t34.5 -24.5t29 -24.5t34 -11q21 0 32 14t11 43h64v-5q0 -60 -31 -93t-85 -33h-1z" />
    <glyph glyph-name="hungarumlaut" unicode="&#x2dd;" horiz-adv-x="507" 
d="M148 742h126l-105 -146h-88zM346 742h125l-104 -146h-88z" />
    <glyph glyph-name="uni0394" unicode="&#x394;" horiz-adv-x="629" 
d="M21 0v108l223 596h140l223 -596v-108h-586zM155 109h318l-159 443z" />
    <glyph glyph-name="uni03A9" unicode="&#x3a9;" horiz-adv-x="739" 
d="M61 0v108h148v3q-72 32 -114.5 105.5t-42.5 174.5q0 71 22 131.5t62.5 104t99.5 68t133 24.5q72 0 131 -24t100.5 -67t64 -103t22.5 -131q0 -102 -43 -176t-115 -107v-3h149v-108h-265v152q69 24 105.5 83.5t36.5 150.5q0 99 -51 161t-135 62q-86 0 -135.5 -61.5
t-49.5 -161.5q0 -91 36.5 -150.5t105.5 -83.5v-152h-265z" />
    <glyph glyph-name="uni0E3F" unicode="&#xe3f;" horiz-adv-x="694" 
d="M95 0v704h187v130h103v-130h13q96 0 157 -51t61 -139q0 -53 -30 -91t-81 -55q59 -16 95.5 -58.5t36.5 -108.5q0 -47 -17 -84.5t-47 -63t-71.5 -39.5t-90.5 -14h-26v-129h-103v129h-187zM491 499v10q0 40 -25 64t-70 24h-176v-185h176q45 0 70 23.5t25 63.5zM511 205v10
q0 47 -28.5 73.5t-79.5 26.5h-183v-206h185q51 0 78.5 27t27.5 69z" />
    <glyph glyph-name="Wgrave" unicode="&#x1e80;" horiz-adv-x="971" 
d="M9 704h141l137 -499h2l140 501h126l142 -504h2l134 502h131l-200 -705h-130l-147 506h-2l-145 -506h-124zM471 923l67 -146h-100l-104 146h137z" />
    <glyph glyph-name="wgrave" unicode="&#x1e81;" horiz-adv-x="814" 
d="M10 524h136l100 -357h1l106 357h123l106 -356h1l99 356h123l-158 -526h-130l-107 367h-1l-108 -367h-125zM396 743l67 -146h-100l-104 146h137z" />
    <glyph glyph-name="Wacute" unicode="&#x1e82;" horiz-adv-x="971" 
d="M9 704h141l137 -499h2l140 501h126l142 -504h2l134 502h131l-200 -705h-130l-147 506h-2l-145 -506h-124zM506 923h137l-104 -146h-100z" />
    <glyph glyph-name="wacute" unicode="&#x1e83;" horiz-adv-x="814" 
d="M10 524h136l100 -357h1l106 357h123l106 -356h1l99 356h123l-158 -526h-130l-107 367h-1l-108 -367h-125zM430 743h137l-104 -146h-100z" />
    <glyph glyph-name="Wdieresis" unicode="&#x1e84;" horiz-adv-x="971" 
d="M9 704h141l137 -499h2l140 501h126l142 -504h2l134 502h131l-200 -705h-130l-147 506h-2l-145 -506h-124zM397 788h-4q-28 0 -47 19.5t-19 46.5q0 28 19 46.5t47 18.5h4q28 0 47.5 -18.5t19.5 -46.5q0 -27 -19.5 -46.5t-47.5 -19.5zM592 788h-4q-28 0 -47 19.5t-19 46.5
q0 28 19 46.5t47 18.5h4q28 0 47.5 -18.5t19.5 -46.5q0 -27 -19.5 -46.5t-47.5 -19.5z" />
    <glyph glyph-name="wdieresis" unicode="&#x1e85;" horiz-adv-x="814" 
d="M10 524h136l100 -357h1l106 357h123l106 -356h1l99 356h123l-158 -526h-130l-107 367h-1l-108 -367h-125zM322 608h-4q-28 0 -47 19.5t-19 46.5q0 28 19 46.5t47 18.5h4q28 0 47.5 -18.5t19.5 -46.5q0 -27 -19.5 -46.5t-47.5 -19.5zM517 608h-4q-28 0 -47 19.5t-19 46.5
q0 28 19 46.5t47 18.5h4q28 0 47.5 -18.5t19.5 -46.5q0 -27 -19.5 -46.5t-47.5 -19.5z" />
    <glyph glyph-name="uni1E9E" unicode="&#x1e9e;" horiz-adv-x="707" 
d="M83 0v704h536v-111l-156 -181h21q90 0 137.5 -54.5t47.5 -137.5q0 -45 -16 -85t-46.5 -70t-75.5 -47.5t-104 -17.5h-128v111h117q57 0 88.5 29.5t31.5 76.5q0 54 -35 77t-99 23h-77v95l157 181h-266v-593h-133z" />
    <glyph glyph-name="Adotbelow" unicode="&#x1ea0;" horiz-adv-x="693" 
d="M546 0l-53 147h-300l-52 -147h-138l265 704h155l267 -704h-144zM340 562l-106 -299h217l-109 299h-2zM354 -230h-4q-28 0 -47 19.5t-19 46.5q0 28 19 46.5t47 18.5h4q28 0 47.5 -18.5t19.5 -46.5q0 -27 -19.5 -46.5t-47.5 -19.5z" />
    <glyph glyph-name="adotbelow" unicode="&#x1ea1;" horiz-adv-x="577" 
d="M52 372q8 74 67 120t161 46q45 0 85 -10.5t69 -32.5t46.5 -57t17.5 -85v-217q0 -22 8.5 -28.5t26.5 -6.5h31v-101h-72q-54 0 -77 23t-22 62v5h-1q-19 -47 -64 -75.5t-109 -28.5q-81 0 -132.5 42t-51.5 116q0 76 53.5 115t145.5 52l64 10q37 5 53.5 18t16.5 38
q0 26 -20 46.5t-70 20.5q-46 0 -70.5 -19.5t-27.5 -52.5h-128zM370 212v49q-8 -7 -23.5 -14t-37.5 -10l-55 -8q-43 -7 -68 -24.5t-25 -47.5v-6q0 -31 22.5 -49t62.5 -18q57 0 90.5 35.5t33.5 92.5zM223 -230h-4q-28 0 -47 19.5t-19 46.5q0 28 19 46.5t47 18.5h4
q28 0 47.5 -18.5t19.5 -46.5q0 -27 -19.5 -46.5t-47.5 -19.5z" />
    <glyph glyph-name="Edotbelow" unicode="&#x1eb8;" horiz-adv-x="633" 
d="M83 704h499v-116h-365v-170h333v-114h-333v-188h365v-116h-499v704zM348 -230h-4q-28 0 -47 19.5t-19 46.5q0 28 19 46.5t47 18.5h4q28 0 47.5 -18.5t19.5 -46.5q0 -27 -19.5 -46.5t-47.5 -19.5z" />
    <glyph glyph-name="edotbelow" unicode="&#x1eb9;" horiz-adv-x="590" 
d="M303 -14q-66 0 -116 22.5t-82.5 60t-49 88t-16.5 105.5t16.5 105t49 88t81 60.5t112.5 22.5q63 0 110.5 -21.5t79 -57.5t47.5 -83.5t16 -99.5v-47h-382q1 -69 40 -107.5t97 -38.5q49 0 75.5 23t30.5 49h130q-13 -75 -78 -122t-161 -47zM298 441q-51 0 -86.5 -33
t-41.5 -92h251q-2 60 -36.5 92.5t-86.5 32.5zM308 -230h-4q-28 0 -47 19.5t-19 46.5q0 28 19 46.5t47 18.5h4q28 0 47.5 -18.5t19.5 -46.5q0 -27 -19.5 -46.5t-47.5 -19.5z" />
    <glyph glyph-name="Etilde" unicode="&#x1ebc;" horiz-adv-x="633" 
d="M83 704h499v-116h-365v-170h333v-114h-333v-188h365v-116h-499v704zM411 778q-30 0 -49 11t-33.5 24t-28 24t-32.5 11q-22 0 -33 -14.5t-11 -44.5h-64v6q0 60 30 94t83 34h1q30 0 49.5 -11t34.5 -24.5t29 -24.5t34 -11q21 0 32 14t11 43h64v-5q0 -60 -31 -93t-85 -33h-1z
" />
    <glyph glyph-name="etilde" unicode="&#x1ebd;" horiz-adv-x="590" 
d="M303 -14q-66 0 -116 22.5t-82.5 60t-49 88t-16.5 105.5t16.5 105t49 88t81 60.5t112.5 22.5q63 0 110.5 -21.5t79 -57.5t47.5 -83.5t16 -99.5v-47h-382q1 -69 40 -107.5t97 -38.5q49 0 75.5 23t30.5 49h130q-13 -75 -78 -122t-161 -47zM298 441q-51 0 -86.5 -33
t-41.5 -92h251q-2 60 -36.5 92.5t-86.5 32.5zM366 598q-30 0 -49 11t-33.5 24t-28 24t-32.5 11q-22 0 -33 -14.5t-11 -44.5h-64v6q0 60 30 94t83 34h1q30 0 49.5 -11t34.5 -24.5t29 -24.5t34 -11q21 0 32 14t11 43h64v-5q0 -60 -31 -93t-85 -33h-1z" />
    <glyph glyph-name="Idotbelow" unicode="&#x1eca;" horiz-adv-x="300" 
d="M83 704h134v-704h-134v704zM156 -230h-4q-28 0 -47 19.5t-19 46.5q0 28 19 46.5t47 18.5h4q28 0 47.5 -18.5t19.5 -46.5q0 -27 -19.5 -46.5t-47.5 -19.5z" />
    <glyph glyph-name="idotbelow" unicode="&#x1ecb;" horiz-adv-x="265" 
d="M137 585h-8q-34 0 -57 23t-23 54q0 33 23 55.5t57 22.5h8q34 0 56.5 -22.5t22.5 -55.5q0 -31 -22.5 -54t-56.5 -23zM68 524h130v-524h-130v524zM139 -230h-4q-28 0 -47 19.5t-19 46.5q0 28 19 46.5t47 18.5h4q28 0 47.5 -18.5t19.5 -46.5q0 -27 -19.5 -46.5t-47.5 -19.5z
" />
    <glyph glyph-name="Odotbelow" unicode="&#x1ecc;" horiz-adv-x="751" 
d="M375 -14q-80 0 -142.5 29t-104.5 78t-64 116t-22 143t22 143t64 116.5t104.5 78.5t142.5 29t142.5 -29t104.5 -78.5t64 -116.5t22 -143t-22 -143t-63.5 -116t-104 -78t-143.5 -29zM375 103q40 0 76 15t62.5 43.5t42 70.5t15.5 96v49q0 54 -15.5 96t-42 70.5t-62.5 43.5
t-76 15t-75.5 -15t-62 -43.5t-42 -70.5t-15.5 -96v-49q0 -54 15.5 -96t42 -70.5t62 -43.5t75.5 -15zM380 -230h-4q-28 0 -47 19.5t-19 46.5q0 28 19 46.5t47 18.5h4q28 0 47.5 -18.5t19.5 -46.5q0 -27 -19.5 -46.5t-47.5 -19.5z" />
    <glyph glyph-name="odotbelow" unicode="&#x1ecd;" horiz-adv-x="603" 
d="M302 -14q-65 0 -114.5 22.5t-82.5 60.5t-49.5 88t-16.5 105t16.5 105t49.5 88t82.5 60.5t114.5 22.5t114 -22.5t82 -60.5t49.5 -88.5t16.5 -104.5q0 -55 -16.5 -105t-49 -88t-82 -60.5t-114.5 -22.5zM434 239v45q0 70 -38.5 108.5t-93.5 38.5q-56 0 -94.5 -39t-38.5 -108
v-45q0 -68 38.5 -107t94.5 -39q55 0 93.5 38.5t38.5 107.5zM308 -230h-4q-28 0 -47 19.5t-19 46.5q0 28 19 46.5t47 18.5h4q28 0 47.5 -18.5t19.5 -46.5q0 -27 -19.5 -46.5t-47.5 -19.5z" />
    <glyph glyph-name="Udotbelow" unicode="&#x1ee4;" horiz-adv-x="717" 
d="M359 -15q-68 0 -121 20.5t-89.5 55.5t-56 84t-19.5 106v453h135v-449q0 -72 40 -113t111 -41q70 0 110.5 41t40.5 113v449h134v-453q0 -57 -19.5 -106t-55.5 -84t-89.5 -55.5t-120.5 -20.5zM365 -230h-4q-28 0 -47 19.5t-19 46.5q0 28 19 46.5t47 18.5h4q28 0 47.5 -18.5
t19.5 -46.5q0 -27 -19.5 -46.5t-47.5 -19.5z" />
    <glyph glyph-name="udotbelow" unicode="&#x1ee5;" horiz-adv-x="612" 
d="M412 216v308h130v-524h-122v84h-1q-21 -49 -64.5 -73.5t-98.5 -24.5q-84 0 -139 55.5t-55 154.5v328h130v-314q0 -57 32.5 -85.5t74.5 -28.5q44 0 78.5 30t34.5 90zM293 -230h-4q-28 0 -47 19.5t-19 46.5q0 28 19 46.5t47 18.5h4q28 0 47.5 -18.5t19.5 -46.5
q0 -27 -19.5 -46.5t-47.5 -19.5z" />
    <glyph glyph-name="Ygrave" unicode="&#x1ef2;" horiz-adv-x="632" 
d="M253 0v269l-249 435h146l171 -304h2l170 304h144l-250 -435v-269h-134zM301 923l67 -146h-100l-104 146h137z" />
    <glyph glyph-name="ygrave" unicode="&#x1ef3;" horiz-adv-x="543" 
d="M326 -42q-31 -81 -78.5 -115t-125.5 -34h-110v105h104q31 0 47.5 11t29.5 45l17 46l-203 508h143l128 -362h1l127 362h131zM265 743l67 -146h-100l-104 146h137z" />
    <glyph glyph-name="Ytilde" unicode="&#x1ef8;" horiz-adv-x="632" 
d="M253 0v269l-249 435h146l171 -304h2l170 304h144l-250 -435v-269h-134zM386 778q-30 0 -49 11t-33.5 24t-28 24t-32.5 11q-22 0 -33 -14.5t-11 -44.5h-64v6q0 60 30 94t83 34h1q30 0 49.5 -11t34.5 -24.5t29 -24.5t34 -11q21 0 32 14t11 43h64v-5q0 -60 -31 -93t-85 -33
h-1z" />
    <glyph glyph-name="ytilde" unicode="&#x1ef9;" horiz-adv-x="543" 
d="M326 -42q-31 -81 -78.5 -115t-125.5 -34h-110v105h104q31 0 47.5 11t29.5 45l17 46l-203 508h143l128 -362h1l127 362h131zM350 598q-30 0 -49 11t-33.5 24t-28 24t-32.5 11q-22 0 -33 -14.5t-11 -44.5h-64v6q0 60 30 94t83 34h1q30 0 49.5 -11t34.5 -24.5t29 -24.5
t34 -11q21 0 32 14t11 43h64v-5q0 -60 -31 -93t-85 -33h-1z" />
    <glyph glyph-name="uni2007" unicode="&#x2007;" 
 />
    <glyph glyph-name="uni2008" unicode="&#x2008;" horiz-adv-x="276" 
 />
    <glyph glyph-name="thinspace" unicode="&#x2009;" horiz-adv-x="70" 
 />
    <glyph glyph-name="endash" unicode="&#x2013;" horiz-adv-x="637" 
d="M57 336h524v-104h-524v104z" />
    <glyph glyph-name="emdash" unicode="&#x2014;" horiz-adv-x="1026" 
d="M57 336h912v-104h-912v104z" />
    <glyph glyph-name="uni2015" unicode="&#x2015;" horiz-adv-x="1026" 
d="M57 336h912v-104h-912v104z" />
    <glyph glyph-name="quoteleft" unicode="&#x2018;" horiz-adv-x="278" 
d="M125 705h111l-65 -283h-129z" />
    <glyph glyph-name="quoteright" unicode="&#x2019;" horiz-adv-x="279" 
d="M157 422h-111l65 283h129z" />
    <glyph glyph-name="quotesinglbase" unicode="&#x201a;" horiz-adv-x="279" 
d="M142 -145h-113l66 289h132z" />
    <glyph glyph-name="quotedblleft" unicode="&#x201c;" horiz-adv-x="499" 
d="M125 704h111l-65 -283h-129zM346 704h111l-65 -283h-129z" />
    <glyph glyph-name="quotedblright" unicode="&#x201d;" horiz-adv-x="500" 
d="M375 422h-111l65 283h129zM154 422h-111l65 283h129z" />
    <glyph glyph-name="quotedblbase" unicode="&#x201e;" horiz-adv-x="495" 
d="M361 -138h-111l65 283h129zM140 -138h-111l65 283h129z" />
    <glyph glyph-name="dagger" unicode="&#x2020;" horiz-adv-x="571" 
d="M506 572v-103h-159v-316h-124v316h-158v103h158v132h124v-132h159z" />
    <glyph glyph-name="daggerdbl" unicode="&#x2021;" horiz-adv-x="571" 
d="M223 92v129h-158v102h158v152h-158v103h158v126h124v-126h159v-103h-159v-152h159v-102h-159v-129h-124z" />
    <glyph glyph-name="bullet" unicode="&#x2022;" horiz-adv-x="477" 
d="M244 152h-9q-35 0 -66 13.5t-54 36.5t-36 54t-13 65q0 70 49 119t120 49h9q70 0 118.5 -49t48.5 -119q0 -34 -13 -65t-35.5 -54t-53 -36.5t-65.5 -13.5z" />
    <glyph glyph-name="ellipsis" unicode="&#x2026;" horiz-adv-x="858" 
d="M141 -10q-37 0 -63 26.5t-26 63.5t26 63t63 26t63 -26t26 -63t-26 -63.5t-63 -26.5zM429 -10q-37 0 -63 26.5t-26 63.5t26 63t63 26t63 -26t26 -63t-26 -63.5t-63 -26.5zM717 -10q-37 0 -63 26.5t-26 63.5t26 63t63 26t63 -26t26 -63t-26 -63.5t-63 -26.5z" />
    <glyph glyph-name="perthousand" unicode="&#x2030;" horiz-adv-x="1393" 
d="M234 317q-87 0 -138 54.5t-51 144.5t51.5 146t138.5 56t138.5 -56t51.5 -146t-52 -144.5t-139 -54.5zM177 0l250 350l249 354h120l-252 -354l-248 -350h-119zM234 411q41 0 64.5 28.5t23.5 76.5q0 49 -23 78.5t-64 29.5t-64 -29.5t-23 -78.5q0 -48 22.5 -76.5t63.5 -28.5
zM1159 -16q-87 0 -138.5 55.5t-51.5 145.5t51.5 145.5t138.5 55.5t138.5 -55.5t51.5 -145.5t-51.5 -145.5t-138.5 -55.5zM736 -16q-87 0 -138.5 55.5t-51.5 145.5t51.5 145.5t138.5 55.5t138.5 -55.5t51.5 -145.5t-51.5 -145.5t-138.5 -55.5zM1159 78q41 0 64 29.5t23 77.5
t-23 77.5t-64 29.5t-64 -29.5t-23 -77.5t23 -77.5t64 -29.5zM736 78q41 0 64 29.5t23 77.5t-23 77.5t-64 29.5t-64 -29.5t-23 -77.5t23 -77.5t64 -29.5z" />
    <glyph glyph-name="guilsinglleft" unicode="&#x2039;" horiz-adv-x="394" 
d="M210 60l-182 216l182 216h136l-178 -216l178 -216h-136z" />
    <glyph glyph-name="guilsinglright" unicode="&#x203a;" horiz-adv-x="394" 
d="M184 492l182 -216l-182 -216h-136l178 216l-178 216h136z" />
    <glyph glyph-name="uni2042" unicode="&#x2042;" horiz-adv-x="1061" 
d="M568 338h-76l3 121l-104 -63l-38 66l107 59l-107 59l38 66l104 -63l-3 121h76l-3 -122l105 64l39 -66l-108 -59l108 -59l-39 -66l-105 64zM283 -11h-76l3 121l-104 -63l-38 66l107 59l-107 59l38 66l104 -63l-3 121h76l-3 -122l105 64l39 -66l-108 -59l108 -59l-39 -66
l-105 64zM853 -11h-76l3 121l-104 -63l-38 66l107 59l-107 59l38 66l104 -63l-3 121h76l-3 -122l105 64l39 -66l-108 -59l108 -59l-39 -66l-105 64z" />
    <glyph glyph-name="fraction" unicode="&#x2044;" horiz-adv-x="263" 
d="M-165 0l490 704h103l-490 -704h-103z" />
    <glyph glyph-name="uni2051" unicode="&#x2051;" horiz-adv-x="491" 
d="M283 378h-76l3 121l-104 -63l-38 66l107 59l-107 59l38 66l104 -63l-3 121h76l-3 -122l105 64l39 -66l-108 -59l108 -59l-39 -66l-105 64zM283 -51h-76l3 121l-104 -63l-38 66l107 59l-107 59l38 66l104 -63l-3 121h76l-3 -122l105 64l39 -66l-108 -59l108 -59l-39 -66
l-105 64z" />
    <glyph glyph-name="uni20A6" unicode="&#x20a6;" horiz-adv-x="736" 
d="M127 0v321h-85v78h85v305h186l91 -305h92v305h113v-305h85v-78h-85v-321h-185l-98 321h-91v-321h-108zM228 399h80l-74 225zM420 321l77 -246l6 246h-83z" />
    <glyph glyph-name="uni20A9" unicode="&#x20a9;" horiz-adv-x="1124" 
d="M1079 240h-160l-63 -240h-144l-56 240h-182l-61 -240h-143l-64 240h-161v78h140l-23 88h-117v78h96l-59 220h115l53 -220h193l54 220h139l53 -220h191l53 220h109l-58 -220h95v-78h-116l-23 -88h139v-78zM567 610l-32 -126h64l-30 126h-2zM290 318h112l21 88h-154z
M493 318h144l-20 88h-102zM729 318h112l21 88h-154zM344 93h2l36 147h-73zM784 90h2l36 150h-74z" />
    <glyph glyph-name="uni20AA" unicode="&#x20aa;" horiz-adv-x="805" 
d="M83 0v704h239q106 0 165 -53.5t59 -149.5v-307h-110v288q0 54 -29 84t-85 30h-130v-596h-109zM722 704v-704h-239q-106 0 -165 53.5t-59 149.5v307h110v-288q0 -54 29.5 -84t85.5 -30h129v596h109z" />
    <glyph glyph-name="Euro" unicode="&#x20ac;" horiz-adv-x="750" 
d="M422 95q70 0 105 36t44 83h133q-19 -102 -91.5 -165t-185.5 -63q-63 0 -112.5 17.5t-85.5 49t-60 75t-37 95.5h-107v92h94q-1 9 -1 18v19v19.5t1 19.5h-94v91h108q12 52 36.5 95.5t60.5 75t85.5 49t111.5 17.5q113 0 185 -62t90 -158h-135q-10 49 -45.5 80t-98.5 31
q-62 0 -104 -33t-60 -95h194v-91h-206v-7v-63v-6h206v-92h-194q18 -62 59.5 -95t103.5 -33z" />
    <glyph glyph-name="uni20B4" unicode="&#x20b4;" horiz-adv-x="644" 
d="M603 396h-562v78h368q8 11 12 24.5t4 28.5q0 39 -26.5 68t-82.5 29q-52 0 -78 -25t-27 -63h-130q1 37 16.5 70t45 58t73 40t99.5 15q57 0 101.5 -14t75.5 -38.5t47 -57t16 -69.5q0 -19 -4 -35.5t-11 -30.5h63v-78zM603 245h-380q-11 -12 -16.5 -26.5t-5.5 -33.5
q0 -44 30.5 -73t88.5 -29q54 0 86.5 25.5t33.5 74.5h130q-1 -87 -69 -142t-179 -55q-113 0 -181.5 51t-68.5 135q0 22 4.5 40t12.5 33h-48v78h562v-78z" />
    <glyph glyph-name="uni20B8" unicode="&#x20b8;" horiz-adv-x="620" 
d="M574 704v-109h-529v109h529zM247 410h-202v109h529v-109h-202v-410h-125v410z" />
    <glyph glyph-name="uni20B9" unicode="&#x20b9;" horiz-adv-x="632" 
d="M56 262v88h178q51 0 83 22t42 62h-303v89h302q-10 40 -41.5 61.5t-82.5 21.5h-178v98h538v-87h-177q25 -18 41.5 -42t24.5 -52h111v-89h-107q-12 -75 -73.5 -123.5t-168.5 -48.5h-20l296 -262h-173z" />
    <glyph glyph-name="uni20BA" unicode="&#x20ba;" horiz-adv-x="653" 
d="M497 375l-225 -115v-143q90 2 138.5 47t59.5 104h141q-22 -120 -113 -194t-229 -74h-127v194l-91 -47v101l91 46v81l-91 -46v100l91 47v228h130v-162l225 115v-101l-225 -115v-81l225 115v-100z" />
    <glyph glyph-name="uni20BD" unicode="&#x20bd;" horiz-adv-x="676" 
d="M125 0v146h-84v89h84v79h-84v88h84v302h278q115 0 176.5 -55.5t61.5 -139.5t-61 -139.5t-177 -55.5h-152v-79h280v-89h-280v-146h-126zM513 503v11q0 45 -29.5 69.5t-84.5 24.5h-148v-206h148q55 0 84.5 26.5t29.5 74.5z" />
    <glyph glyph-name="uni20BF" unicode="&#x20bf;" horiz-adv-x="696" 
d="M83 0v704h111v130h87v-130h78v130h87v-132q82 -8 133 -57t51 -126q0 -57 -30 -95.5t-81 -54.5v-1q59 -16 95.5 -58.5t36.5 -108.5q0 -89 -57.5 -141.5t-147.5 -58.5v-130h-87v129h-78v-129h-87v129h-111zM496 499v10q0 38 -24.5 60.5t-69.5 22.5h-186v-176h186
q45 0 69.5 22.5t24.5 60.5zM516 205v10q0 44 -28 69.5t-79 25.5h-193v-197h195q51 0 78 26t27 66z" />
    <glyph glyph-name="uni2116" unicode="&#x2116;" horiz-adv-x="1323" 
d="M1023 189q-65 0 -114 21t-81 56.5t-48.5 83.5t-16.5 102t16.5 102t49 83.5t81.5 56.5t113 21q65 0 114 -21t81.5 -56.5t49 -83.5t16.5 -102t-16.5 -102t-49 -83.5t-81.5 -56.5t-114 -21zM84 0v704h156l312 -505h1v505h128v-704h-147l-319 523h-1v-523h-130zM1154 436v30
q0 68 -38 105t-93 37q-54 0 -92 -38t-38 -104v-30q0 -66 38 -103.5t92 -37.5q55 0 93 36.5t38 104.5zM860 0v103h326v-103h-326z" />
    <glyph glyph-name="trademark" unicode="&#x2122;" horiz-adv-x="1001" 
d="M167 314v306h-142v84h373v-84h-141v-306h-90zM459 314v390h136l102 -244h6l100 244h136v-390h-102v252h-6l-107 -252h-57l-107 248h-5v-248h-96z" />
    <glyph glyph-name="onethird" unicode="&#x2153;" horiz-adv-x="973" 
d="M152 290v269h-102v72h102v73h87v-414h-87zM163 0l490 704h103l-490 -704h-103zM835 119v6q0 25 -18 41.5t-51 16.5h-60v61l102 98h-173v72h271v-72l-102 -97v-1q54 -7 86.5 -39.5t32.5 -84.5q0 -56 -41.5 -92t-114.5 -36q-71 0 -110 36.5t-41 88.5h85q2 -22 17 -39
t50 -17q34 0 50.5 16.5t16.5 41.5z" />
    <glyph glyph-name="twothirds" unicode="&#x2154;" horiz-adv-x="1029" 
d="M53 290v66q0 40 19.5 68t63.5 53l73 43q28 16 37 31.5t9 30.5v6q0 22 -14 38.5t-44 16.5q-27 0 -44 -15.5t-18 -46.5h-84q2 62 43 97t103 35q68 0 106 -37.5t38 -88.5q0 -37 -20 -69t-69 -61l-83 -49q-17 -10 -24 -20.5t-7 -24.5h209v-73h-294zM219 0l490 704h103
l-490 -704h-103zM891 119v6q0 25 -18 41.5t-51 16.5h-60v61l102 98h-173v72h271v-72l-102 -97v-1q54 -7 86.5 -39.5t32.5 -84.5q0 -56 -41.5 -92t-114.5 -36q-71 0 -110 36.5t-41 88.5h85q2 -22 17 -39t50 -17q34 0 50.5 16.5t16.5 41.5z" />
    <glyph glyph-name="uni215A" unicode="&#x215a;" horiz-adv-x="975" 
d="M67 463v241h270v-72h-194v-105q16 27 39.5 36.5t48.5 9.5q57 0 92.5 -39t35.5 -103t-42.5 -106.5t-114.5 -42.5q-63 0 -105 34t-47 91h88q2 -22 19.5 -38t45.5 -16q34 0 51.5 20t17.5 54v6q0 34 -17 52.5t-48 18.5q-23 0 -39 -10.5t-25 -30.5h-76zM196 0l490 704h103
l-490 -704h-103zM922 135q0 -62 -45 -102.5t-114 -40.5t-114 41.5t-45 104.5q0 39 11.5 69t35.5 64l101 143h100l-107 -145h1q8 4 18 6.5t24 2.5q54 0 94 -39.5t40 -103.5zM692 141v-7q0 -32 20.5 -53t52.5 -21q31 0 51 21t20 53v7q0 32 -19.5 52t-51.5 20q-31 0 -52 -19.5
t-21 -52.5z" />
    <glyph glyph-name="oneeighth" unicode="&#x215b;" horiz-adv-x="975" 
d="M152 290v269h-102v72h102v73h87v-414h-87zM163 0l490 704h103l-490 -704h-103zM840 218v-1q40 -7 62.5 -34.5t22.5 -67.5q0 -51 -41.5 -87t-116.5 -36t-117 36t-42 87q0 40 23.5 67.5t62.5 34.5v1q-34 7 -54 31.5t-20 59.5q0 48 39 81t108 33q68 0 107.5 -33t39.5 -81
q0 -35 -20 -59.5t-54 -31.5zM704 305v-7q0 -21 17.5 -35.5t45.5 -14.5q27 0 44.5 14.5t17.5 35.5v7q0 22 -17 35.5t-45 13.5q-29 0 -46 -13.5t-17 -35.5zM695 125v-7q0 -25 19 -42t53 -17t53.5 17t19.5 42v7q0 25 -19.5 42.5t-53.5 17.5t-53 -17.5t-19 -42.5z" />
    <glyph glyph-name="threeeighths" unicode="&#x215c;" horiz-adv-x="989" 
d="M269 409v6q0 25 -17.5 41.5t-50.5 16.5h-61v61l103 98h-174v72h271v-72l-102 -97v-1q54 -7 86.5 -39.5t32.5 -84.5q0 -56 -41.5 -92t-114.5 -36q-70 0 -109.5 36.5t-41.5 88.5h86q2 -22 16.5 -39t50.5 -17q34 0 50 16.5t16 41.5zM197 0l490 704h103l-490 -704h-103z
M854 218v-1q40 -7 62.5 -34.5t22.5 -67.5q0 -51 -41.5 -87t-116.5 -36t-117 36t-42 87q0 40 23.5 67.5t62.5 34.5v1q-34 7 -54 31.5t-20 59.5q0 48 39 81t108 33q68 0 107.5 -33t39.5 -81q0 -35 -20 -59.5t-54 -31.5zM718 305v-7q0 -21 17.5 -35.5t45.5 -14.5
q27 0 44.5 14.5t17.5 35.5v7q0 22 -17 35.5t-45 13.5q-29 0 -46 -13.5t-17 -35.5zM709 125v-7q0 -25 19 -42t53 -17t53.5 17t19.5 42v7q0 25 -19.5 42.5t-53.5 17.5t-53 -17.5t-19 -42.5z" />
    <glyph glyph-name="fiveeighths" unicode="&#x215d;" horiz-adv-x="988" 
d="M67 463v241h270v-72h-194v-105q16 27 39.5 36.5t48.5 9.5q57 0 92.5 -39t35.5 -103t-42.5 -106.5t-114.5 -42.5q-63 0 -105 34t-47 91h88q2 -22 19.5 -38t45.5 -16q34 0 51.5 20t17.5 54v6q0 34 -17 52.5t-48 18.5q-23 0 -39 -10.5t-25 -30.5h-76zM196 0l490 704h103
l-490 -704h-103zM853 218v-1q40 -7 62.5 -34.5t22.5 -67.5q0 -51 -41.5 -87t-116.5 -36t-117 36t-42 87q0 40 23.5 67.5t62.5 34.5v1q-34 7 -54 31.5t-20 59.5q0 48 39 81t108 33q68 0 107.5 -33t39.5 -81q0 -35 -20 -59.5t-54 -31.5zM717 305v-7q0 -21 17.5 -35.5
t45.5 -14.5q27 0 44.5 14.5t17.5 35.5v7q0 22 -17 35.5t-45 13.5q-29 0 -46 -13.5t-17 -35.5zM708 125v-7q0 -25 19 -42t53 -17t53.5 17t19.5 42v7q0 25 -19.5 42.5t-53.5 17.5t-53 -17.5t-19 -42.5z" />
    <glyph glyph-name="seveneighths" unicode="&#x215e;" horiz-adv-x="941" 
d="M75 290l178 340h-203v74h295v-69l-178 -345h-92zM128 0l490 704h103l-490 -704h-103zM805 218v-1q40 -7 62.5 -34.5t22.5 -67.5q0 -51 -41.5 -87t-116.5 -36t-117 36t-42 87q0 40 23.5 67.5t62.5 34.5v1q-34 7 -54 31.5t-20 59.5q0 48 39 81t108 33q68 0 107.5 -33
t39.5 -81q0 -35 -20 -59.5t-54 -31.5zM669 305v-7q0 -21 17.5 -35.5t45.5 -14.5q27 0 44.5 14.5t17.5 35.5v7q0 22 -17 35.5t-45 13.5q-29 0 -46 -13.5t-17 -35.5zM660 125v-7q0 -25 19 -42t53 -17t53.5 17t19.5 42v7q0 25 -19.5 42.5t-53.5 17.5t-53 -17.5t-19 -42.5z" />
    <glyph glyph-name="arrowleft" unicode="&#x2190;" horiz-adv-x="831" 
d="M764 371v-126h-495l225 -226h-163l-288 289l288 288h163l-225 -225h495z" />
    <glyph glyph-name="arrowup" unicode="&#x2191;" horiz-adv-x="701" 
d="M414 -1h-126v495l-226 -225v163l289 288l288 -288v-163l-225 225v-495z" />
    <glyph glyph-name="arrowright" unicode="&#x2192;" horiz-adv-x="831" 
d="M67 246v126h495l-225 226h163l288 -289l-288 -288h-163l225 225h-495z" />
    <glyph glyph-name="arrowdown" unicode="&#x2193;" horiz-adv-x="701" 
d="M287 704h126v-495l226 225v-163l-289 -288l-288 288v163l225 -225v495z" />
    <glyph glyph-name="uni2196" unicode="&#x2196;" horiz-adv-x="744" 
d="M665 98l-90 -89l-350 350v-319l-116 115l1 408h407l116 -115h-318z" />
    <glyph glyph-name="uni2197" unicode="&#x2197;" horiz-adv-x="745" 
d="M78 98l350 350h-318l116 115h407l1 -408l-116 -115v319l-350 -350z" />
    <glyph glyph-name="uni2198" unicode="&#x2198;" horiz-adv-x="745" 
d="M78 489l90 89l350 -350v319l116 -115l-1 -408h-407l-116 115h318z" />
    <glyph glyph-name="uni2199" unicode="&#x2199;" horiz-adv-x="744" 
d="M666 490l-350 -350h318l-116 -115h-407l-1 408l116 115v-319l350 350z" />
    <glyph glyph-name="minus" unicode="&#x2212;" 
d="M48 266v108h544v-108h-544z" />
    <glyph glyph-name="approxequal" unicode="&#x2248;" 
d="M50 353q0 37 9 69t27.5 56t48.5 38t71 14t70.5 -14.5t53 -31t45 -31t48.5 -14.5q36 0 51 24t16 53h100q0 -75 -40 -127.5t-118 -52.5q-40 0 -69.5 14.5t-54 31.5t-47 31.5t-48.5 14.5q-34 0 -48.5 -24t-15.5 -51h-99zM50 113q0 74 36.5 125.5t119.5 51.5q41 0 70.5 -14
t53 -31t45 -31t48.5 -14q36 0 51 24t16 53h100q0 -38 -10 -71t-29.5 -57.5t-49.5 -38.5t-69 -14q-40 0 -69.5 14.5t-54 32t-47 32t-48.5 14.5q-34 0 -48.5 -24.5t-15.5 -51.5h-99z" />
    <glyph glyph-name="notequal" unicode="&#x2260;" 
d="M124 7l56 135h-131v108h176l58 138h-234v108h279l57 136h116l-57 -136h147v-108h-192l-58 -138h250v-108h-295l-56 -135h-116z" />
    <glyph glyph-name="lessequal" unicode="&#x2264;" 
d="M562 197l-522 155v115l522 157v-121l-353 -92l353 -93v-121zM48 30v108h514v-108h-514z" />
    <glyph glyph-name="greaterequal" unicode="&#x2265;" 
d="M78 197v121l353 93l-353 92v121l522 -157v-115zM592 30h-514v108h514v-108z" />
    <glyph glyph-name="uni2460" unicode="&#x2460;" horiz-adv-x="792" 
d="M762 353q0 -84 -29.5 -152.5t-79.5 -116t-116.5 -73t-140.5 -25.5t-140.5 25.5t-116.5 73t-79.5 116t-29.5 152.5t29.5 152.5t79.5 115.5t116.5 72.5t140.5 25.5t140.5 -25.5t116.5 -72.5t79.5 -115.5t29.5 -152.5zM109 353q0 -68 23 -122.5t62 -92.5t91.5 -58.5
t110.5 -20.5t110.5 20.5t91.5 58.5t62 92.5t23 122.5q0 67 -23 121.5t-62 92.5t-91.5 58.5t-110.5 20.5t-110.5 -20.5t-91.5 -58.5t-62 -92.5t-23 -121.5zM368 148v269h-102v72h102v73h87v-414h-87z" />
    <glyph glyph-name="uni2461" unicode="&#x2461;" horiz-adv-x="792" 
d="M762 353q0 -84 -29.5 -152.5t-79.5 -116t-116.5 -73t-140.5 -25.5t-140.5 25.5t-116.5 73t-79.5 116t-29.5 152.5t29.5 152.5t79.5 115.5t116.5 72.5t140.5 25.5t140.5 -25.5t116.5 -72.5t79.5 -115.5t29.5 -152.5zM109 353q0 -68 23 -122.5t62 -92.5t91.5 -58.5
t110.5 -20.5t110.5 20.5t91.5 58.5t62 92.5t23 122.5q0 67 -23 121.5t-62 92.5t-91.5 58.5t-110.5 20.5t-110.5 -20.5t-91.5 -58.5t-62 -92.5t-23 -121.5zM250 148v66q0 40 20 68t64 53l72 43q28 16 37 31.5t9 30.5v6q0 22 -13.5 38.5t-43.5 16.5q-28 0 -45 -15.5t-18 -46.5
h-84q2 62 43 97t104 35q68 0 106 -37.5t38 -88.5q0 -37 -20.5 -69t-69.5 -61l-83 -49q-16 -10 -23 -19.5t-7 -22.5v-3h209v-73h-295z" />
    <glyph glyph-name="uni2462" unicode="&#x2462;" horiz-adv-x="792" 
d="M762 353q0 -84 -29.5 -152.5t-79.5 -116t-116.5 -73t-140.5 -25.5t-140.5 25.5t-116.5 73t-79.5 116t-29.5 152.5t29.5 152.5t79.5 115.5t116.5 72.5t140.5 25.5t140.5 -25.5t116.5 -72.5t79.5 -115.5t29.5 -152.5zM109 353q0 -68 23 -122.5t62 -92.5t91.5 -58.5
t110.5 -20.5t110.5 20.5t91.5 58.5t62 92.5t23 122.5q0 67 -23 121.5t-62 92.5t-91.5 58.5t-110.5 20.5t-110.5 -20.5t-91.5 -58.5t-62 -92.5t-23 -121.5zM462 267v6q0 25 -18 41.5t-51 16.5h-60v61l102 98h-173v72h271v-72l-102 -97v-1q54 -7 86.5 -39.5t32.5 -84.5
q0 -56 -41.5 -92t-114.5 -36q-71 0 -110 36.5t-41 88.5h85q2 -22 17 -39t50 -17q34 0 50.5 16.5t16.5 41.5z" />
    <glyph glyph-name="uni2463" unicode="&#x2463;" horiz-adv-x="792" 
d="M762 353q0 -84 -29.5 -152.5t-79.5 -116t-116.5 -73t-140.5 -25.5t-140.5 25.5t-116.5 73t-79.5 116t-29.5 152.5t29.5 152.5t79.5 115.5t116.5 72.5t140.5 25.5t140.5 -25.5t116.5 -72.5t79.5 -115.5t29.5 -152.5zM109 353q0 -68 23 -122.5t62 -92.5t91.5 -58.5
t110.5 -20.5t110.5 20.5t91.5 58.5t62 92.5t23 122.5q0 67 -23 121.5t-62 92.5t-91.5 58.5t-110.5 20.5t-110.5 -20.5t-91.5 -58.5t-62 -92.5t-23 -121.5zM220 238v69l177 256h102v-253h63v-72h-63v-89h-87v89h-192zM303 311v-1h111v161h-1z" />
    <glyph glyph-name="uni2464" unicode="&#x2464;" horiz-adv-x="792" 
d="M762 353q0 -84 -29.5 -152.5t-79.5 -116t-116.5 -73t-140.5 -25.5t-140.5 25.5t-116.5 73t-79.5 116t-29.5 152.5t29.5 152.5t79.5 115.5t116.5 72.5t140.5 25.5t140.5 -25.5t116.5 -72.5t79.5 -115.5t29.5 -152.5zM109 353q0 -68 23 -122.5t62 -92.5t91.5 -58.5
t110.5 -20.5t110.5 20.5t91.5 58.5t62 92.5t23 122.5q0 67 -23 121.5t-62 92.5t-91.5 58.5t-110.5 20.5t-110.5 -20.5t-91.5 -58.5t-62 -92.5t-23 -121.5zM258 321v241h270v-72h-194v-105q16 27 39.5 36.5t49.5 9.5q56 0 92 -39t36 -103t-42.5 -106.5t-115.5 -42.5
q-62 0 -104 34t-47 91h88q2 -22 19 -38t46 -16q33 0 51 20t18 54v6q0 34 -17.5 52.5t-48.5 18.5q-22 0 -38.5 -10.5t-25.5 -30.5h-76z" />
    <glyph glyph-name="uni2465" unicode="&#x2465;" horiz-adv-x="792" 
d="M762 353q0 -84 -29.5 -152.5t-79.5 -116t-116.5 -73t-140.5 -25.5t-140.5 25.5t-116.5 73t-79.5 116t-29.5 152.5t29.5 152.5t79.5 115.5t116.5 72.5t140.5 25.5t140.5 -25.5t116.5 -72.5t79.5 -115.5t29.5 -152.5zM109 353q0 -68 23 -122.5t62 -92.5t91.5 -58.5
t110.5 -20.5t110.5 20.5t91.5 58.5t62 92.5t23 122.5q0 67 -23 121.5t-62 92.5t-91.5 58.5t-110.5 20.5t-110.5 -20.5t-91.5 -58.5t-62 -92.5t-23 -121.5zM555 282q0 -62 -45 -102.5t-114 -40.5t-114 41.5t-45 104.5q0 39 11.5 69t35.5 64l101 143h100l-107 -145h1
q8 4 18 6.5t24 2.5q54 0 94 -39.5t40 -103.5zM325 288v-7q0 -32 20.5 -53t52.5 -21q31 0 51 21t20 53v7q0 32 -19.5 52t-51.5 20q-31 0 -52 -19.5t-21 -52.5z" />
    <glyph glyph-name="uni2466" unicode="&#x2466;" horiz-adv-x="792" 
d="M762 353q0 -84 -29.5 -152.5t-79.5 -116t-116.5 -73t-140.5 -25.5t-140.5 25.5t-116.5 73t-79.5 116t-29.5 152.5t29.5 152.5t79.5 115.5t116.5 72.5t140.5 25.5t140.5 -25.5t116.5 -72.5t79.5 -115.5t29.5 -152.5zM109 353q0 -68 23 -122.5t62 -92.5t91.5 -58.5
t110.5 -20.5t110.5 20.5t91.5 58.5t62 92.5t23 122.5q0 67 -23 121.5t-62 92.5t-91.5 58.5t-110.5 20.5t-110.5 -20.5t-91.5 -58.5t-62 -92.5t-23 -121.5zM273 148l179 340h-204v74h296v-69l-178 -345h-93z" />
    <glyph glyph-name="uni2467" unicode="&#x2467;" horiz-adv-x="792" 
d="M762 353q0 -84 -29.5 -152.5t-79.5 -116t-116.5 -73t-140.5 -25.5t-140.5 25.5t-116.5 73t-79.5 116t-29.5 152.5t29.5 152.5t79.5 115.5t116.5 72.5t140.5 25.5t140.5 -25.5t116.5 -72.5t79.5 -115.5t29.5 -152.5zM109 353q0 -68 23 -122.5t62 -92.5t91.5 -58.5
t110.5 -20.5t110.5 20.5t91.5 58.5t62 92.5t23 122.5q0 67 -23 121.5t-62 92.5t-91.5 58.5t-110.5 20.5t-110.5 -20.5t-91.5 -58.5t-62 -92.5t-23 -121.5zM469 365v-1q40 -7 62.5 -34.5t22.5 -67.5q0 -51 -41.5 -87t-116.5 -36t-117 36t-42 87q0 40 23.5 67.5t62.5 34.5v1
q-34 7 -54 31.5t-20 59.5q0 48 39 81t108 33q68 0 107.5 -33t39.5 -81q0 -35 -20 -59.5t-54 -31.5zM333 452v-7q0 -21 17.5 -35.5t45.5 -14.5q27 0 44.5 14.5t17.5 35.5v7q0 22 -17 35.5t-45 13.5q-29 0 -46 -13.5t-17 -35.5zM324 272v-7q0 -25 19 -42t53 -17t53.5 17
t19.5 42v7q0 25 -19.5 42.5t-53.5 17.5t-53 -17.5t-19 -42.5z" />
    <glyph glyph-name="uni2468" unicode="&#x2468;" horiz-adv-x="792" 
d="M762 353q0 -84 -29.5 -152.5t-79.5 -116t-116.5 -73t-140.5 -25.5t-140.5 25.5t-116.5 73t-79.5 116t-29.5 152.5t29.5 152.5t79.5 115.5t116.5 72.5t140.5 25.5t140.5 -25.5t116.5 -72.5t79.5 -115.5t29.5 -152.5zM109 353q0 -68 23 -122.5t62 -92.5t91.5 -58.5
t110.5 -20.5t110.5 20.5t91.5 58.5t62 92.5t23 122.5q0 67 -23 121.5t-62 92.5t-91.5 58.5t-110.5 20.5t-110.5 -20.5t-91.5 -58.5t-62 -92.5t-23 -121.5zM236 428q0 62 45.5 102.5t114.5 40.5t114 -41.5t45 -104.5q0 -39 -11.5 -69.5t-35.5 -64.5l-101 -142h-100l107 145
h-1q-8 -4 -18 -6.5t-24 -2.5q-54 0 -94.5 39.5t-40.5 103.5zM467 422v7q0 32 -20.5 53t-52.5 21q-31 0 -50.5 -21t-19.5 -53v-7q0 -32 19 -52t51 -20q31 0 52 19.5t21 52.5z" />
    <glyph glyph-name="uni24EA" unicode="&#x24ea;" horiz-adv-x="792" 
d="M762 353q0 -84 -29.5 -152.5t-79.5 -116t-116.5 -73t-140.5 -25.5t-140.5 25.5t-116.5 73t-79.5 116t-29.5 152.5t29.5 152.5t79.5 115.5t116.5 72.5t140.5 25.5t140.5 -25.5t116.5 -72.5t79.5 -115.5t29.5 -152.5zM109 353q0 -68 23 -122.5t62 -92t91.5 -58t110.5 -20.5
t110.5 20.5t91.5 58t62 92t23 122.5q0 67 -23 121t-62 92t-91.5 58.5t-110.5 20.5t-110.5 -20.5t-91.5 -58.5t-62 -92t-23 -121zM396 570q73 0 116 -42t43 -114v-119q0 -73 -43 -114.5t-116 -41.5q-72 0 -115 41.5t-43 114.5v119q0 72 43 114t115 42zM396 215q35 0 53 22.5
t18 58.5v117q0 35 -18 58t-53 23t-53.5 -23t-18.5 -58v-117q0 -36 18.5 -58.5t53.5 -22.5z" />
    <glyph glyph-name="uni24FF" unicode="&#x24ff;" horiz-adv-x="792" 
d="M762 353q0 -85 -29.5 -153.5t-79.5 -116t-116.5 -73t-140.5 -25.5t-140.5 25.5t-116.5 73t-79.5 116t-29.5 153.5q0 84 29.5 152.5t79.5 115.5t116.5 72.5t140.5 25.5t140.5 -25.5t116.5 -72.5t79.5 -115.5t29.5 -152.5zM396 570q-72 0 -115 -42t-43 -114v-119
q0 -73 43 -114.5t115 -41.5q73 0 116 41.5t43 114.5v119q0 72 -43 114t-116 42zM396 215q-35 0 -53.5 22.5t-18.5 58.5v117q0 35 18.5 58t53.5 23t53 -23t18 -58v-117q0 -36 -18 -58.5t-53 -22.5z" />
    <glyph glyph-name="uni25B4" unicode="&#x25b4;" horiz-adv-x="566" 
d="M60 182l223 363l223 -363h-446z" />
    <glyph glyph-name="uni25B5" unicode="&#x25b5;" horiz-adv-x="566" 
d="M60 182l223 363l223 -363h-446zM283 416l-104 -168h208z" />
    <glyph glyph-name="uni25B8" unicode="&#x25b8;" horiz-adv-x="566" 
d="M102 586l363 -223l-363 -223v446z" />
    <glyph glyph-name="uni25B9" unicode="&#x25b9;" horiz-adv-x="566" 
d="M102 586l363 -223l-363 -223v446zM336 363l-168 104v-208z" />
    <glyph glyph-name="uni25BE" unicode="&#x25be;" horiz-adv-x="566" 
d="M506 544l-223 -363l-223 363h446z" />
    <glyph glyph-name="uni25BF" unicode="&#x25bf;" horiz-adv-x="566" 
d="M506 544l-223 -363l-223 363h446zM283 310l104 168h-208z" />
    <glyph glyph-name="uni25C2" unicode="&#x25c2;" horiz-adv-x="566" 
d="M464 140l-363 223l363 223v-446z" />
    <glyph glyph-name="uni25C3" unicode="&#x25c3;" horiz-adv-x="566" 
d="M464 140l-363 223l363 223v-446zM230 363l168 -104v208z" />
    <glyph glyph-name="uni2776" unicode="&#x2776;" horiz-adv-x="792" 
d="M762 353q0 -85 -29.5 -153.5t-79.5 -116t-116.5 -73t-140.5 -25.5t-140.5 25.5t-116.5 73t-79.5 116t-29.5 153.5q0 84 29.5 152.5t79.5 115.5t116.5 72.5t140.5 25.5t140.5 -25.5t116.5 -72.5t79.5 -115.5t29.5 -152.5zM372 148h87v414h-87v-73h-102v-72h102v-269z" />
    <glyph glyph-name="uni2777" unicode="&#x2777;" horiz-adv-x="792" 
d="M762 353q0 -85 -29.5 -153.5t-79.5 -116t-116.5 -73t-140.5 -25.5t-140.5 25.5t-116.5 73t-79.5 116t-29.5 153.5q0 84 29.5 152.5t79.5 115.5t116.5 72.5t140.5 25.5t140.5 -25.5t116.5 -72.5t79.5 -115.5t29.5 -152.5zM250 148h295v73h-209v3q0 13 7 22.5t23 19.5
l83 49q49 29 69.5 61t20.5 69q0 51 -38 88.5t-106 37.5q-63 0 -104 -35t-43 -97h84q1 31 18 46.5t45 15.5q30 0 43.5 -16.5t13.5 -38.5v-6q0 -15 -9 -30.5t-37 -31.5l-72 -43q-44 -25 -64 -53t-20 -68v-66z" />
    <glyph glyph-name="uni2778" unicode="&#x2778;" horiz-adv-x="792" 
d="M762 353q0 -85 -29.5 -153.5t-79.5 -116t-116.5 -73t-140.5 -25.5t-140.5 25.5t-116.5 73t-79.5 116t-29.5 153.5q0 84 29.5 152.5t79.5 115.5t116.5 72.5t140.5 25.5t140.5 -25.5t116.5 -72.5t79.5 -115.5t29.5 -152.5zM462 267q0 -25 -16.5 -41.5t-50.5 -16.5
q-35 0 -50 17t-17 39h-85q2 -52 41 -88.5t110 -36.5q73 0 114.5 36t41.5 92q0 52 -32.5 84.5t-86.5 39.5v1l102 97v72h-271v-72h173l-102 -98v-61h60q33 0 51 -16.5t18 -41.5v-6z" />
    <glyph glyph-name="uni2779" unicode="&#x2779;" horiz-adv-x="792" 
d="M762 353q0 -85 -29.5 -153.5t-79.5 -116t-116.5 -73t-140.5 -25.5t-140.5 25.5t-116.5 73t-79.5 116t-29.5 153.5q0 84 29.5 152.5t79.5 115.5t116.5 72.5t140.5 25.5t140.5 -25.5t116.5 -72.5t79.5 -115.5t29.5 -152.5zM220 237h192v-89h87v89h63v72h-63v253h-102
l-177 -256v-69zM303 310l110 160h1v-161h-111v1z" />
    <glyph glyph-name="uni277A" unicode="&#x277a;" horiz-adv-x="792" 
d="M762 353q0 -85 -29.5 -153.5t-79.5 -116t-116.5 -73t-140.5 -25.5t-140.5 25.5t-116.5 73t-79.5 116t-29.5 153.5q0 84 29.5 152.5t79.5 115.5t116.5 72.5t140.5 25.5t140.5 -25.5t116.5 -72.5t79.5 -115.5t29.5 -152.5zM258 321h76q9 20 25.5 30.5t38.5 10.5
q31 0 48.5 -18.5t17.5 -52.5v-6q0 -34 -18 -54t-51 -20q-29 0 -46 16t-19 38h-88q5 -57 47 -91t104 -34q73 0 115.5 42.5t42.5 106.5t-36 103t-92 39q-26 0 -49.5 -9.5t-39.5 -36.5v105h194v72h-270v-241z" />
    <glyph glyph-name="uni277B" unicode="&#x277b;" horiz-adv-x="792" 
d="M762 353q0 -85 -29.5 -153.5t-79.5 -116t-116.5 -73t-140.5 -25.5t-140.5 25.5t-116.5 73t-79.5 116t-29.5 153.5q0 84 29.5 152.5t79.5 115.5t116.5 72.5t140.5 25.5t140.5 -25.5t116.5 -72.5t79.5 -115.5t29.5 -152.5zM557 282q0 64 -40 103.5t-94 39.5q-14 0 -24 -2.5
t-18 -6.5h-1l107 145h-100l-101 -143q-24 -34 -35.5 -64t-11.5 -69q0 -63 45 -104.5t114 -41.5t114 40.5t45 102.5zM327 288q0 33 21 52.5t52 19.5q32 0 51.5 -20t19.5 -52v-7q0 -32 -20 -53t-51 -21q-32 0 -52.5 21t-20.5 53v7z" />
    <glyph glyph-name="uni277C" unicode="&#x277c;" horiz-adv-x="792" 
d="M762 353q0 -85 -29.5 -153.5t-79.5 -116t-116.5 -73t-140.5 -25.5t-140.5 25.5t-116.5 73t-79.5 116t-29.5 153.5q0 84 29.5 152.5t79.5 115.5t116.5 72.5t140.5 25.5t140.5 -25.5t116.5 -72.5t79.5 -115.5t29.5 -152.5zM273 148h93l178 345v69h-296v-74h204z" />
    <glyph glyph-name="uni277D" unicode="&#x277d;" horiz-adv-x="792" 
d="M762 353q0 -85 -29.5 -153.5t-79.5 -116t-116.5 -73t-140.5 -25.5t-140.5 25.5t-116.5 73t-79.5 116t-29.5 153.5q0 84 29.5 152.5t79.5 115.5t116.5 72.5t140.5 25.5t140.5 -25.5t116.5 -72.5t79.5 -115.5t29.5 -152.5zM469 365q34 7 54 31.5t20 59.5q0 48 -39.5 81
t-107.5 33q-69 0 -108 -33t-39 -81q0 -35 20 -59.5t54 -31.5v-1q-39 -7 -62.5 -34.5t-23.5 -67.5q0 -51 42 -87t117 -36t116.5 36t41.5 87q0 40 -22.5 67.5t-62.5 34.5v1zM333 452q0 22 17 35.5t46 13.5q28 0 45 -13.5t17 -35.5v-7q0 -21 -17.5 -35.5t-44.5 -14.5
q-28 0 -45.5 14.5t-17.5 35.5v7zM324 272q0 25 19 42.5t53 17.5t53.5 -17.5t19.5 -42.5v-7q0 -25 -19.5 -42t-53.5 -17t-53 17t-19 42v7z" />
    <glyph glyph-name="uni277E" unicode="&#x277e;" horiz-adv-x="792" 
d="M762 353q0 -85 -29.5 -153.5t-79.5 -116t-116.5 -73t-140.5 -25.5t-140.5 25.5t-116.5 73t-79.5 116t-29.5 153.5q0 84 29.5 152.5t79.5 115.5t116.5 72.5t140.5 25.5t140.5 -25.5t116.5 -72.5t79.5 -115.5t29.5 -152.5zM236 428q0 -64 40.5 -103.5t94.5 -39.5
q14 0 24 2.5t18 6.5h1l-107 -145h100l101 142q24 34 35.5 64.5t11.5 69.5q0 63 -45 104.5t-114 41.5t-114.5 -40.5t-45.5 -102.5zM467 422q0 -33 -21 -52.5t-52 -19.5q-32 0 -51 20t-19 52v7q0 32 19.5 53t50.5 21q32 0 52.5 -21t20.5 -53v-7z" />
    <glyph glyph-name="commaaccent" unicode="&#xf6c3;" horiz-adv-x="282" 
d="M140 -201h-111l51 135h124z" />
    <glyph glyph-name="IJacute" horiz-adv-x="906" 
d="M83 704h134v-704h-134v704zM168 923h137l-104 -146h-100zM590 -15q-60 0 -108 18.5t-80.5 51t-50 77.5t-17.5 98v65h134v-61q0 -63 32.5 -97.5t89.5 -34.5q56 0 88 34.5t32 97.5v470h135v-474q0 -53 -17.5 -98t-50 -77.5t-80 -51t-107.5 -18.5zM783 924h137l-104 -146
h-100z" />
    <glyph glyph-name="Jacute" horiz-adv-x="613" 
d="M298 -15q-60 0 -108 18.5t-80.5 51t-50 77.5t-17.5 98v65h134v-61q0 -63 32.5 -97.5t89.5 -34.5q56 0 88 34.5t32 97.5v470h135v-474q0 -53 -17.5 -98t-50 -77.5t-80 -51t-107.5 -18.5zM491 924h137l-104 -146h-100z" />
    <glyph glyph-name="blackcircle" horiz-adv-x="570" 
d="M285 122q-34 0 -64 13t-52.5 35.5t-35.5 52.5t-13 64q0 68 48.5 116.5t116.5 48.5t116.5 -48.5t48.5 -116.5q0 -34 -13 -64t-35.5 -52.5t-52.5 -35.5t-64 -13z" />
    <glyph glyph-name="blackdiamond" horiz-adv-x="570" 
d="M285 74l-223 223l223 223l223 -223z" />
    <glyph glyph-name="blackdownpointingtriangle" horiz-adv-x="740" 
d="M376 -2l-326 668h640z" />
    <glyph glyph-name="blackleftpointingtriangle" horiz-adv-x="740" 
d="M30 326l603 326v-640z" />
    <glyph glyph-name="blackrightpointingtriangle" horiz-adv-x="740" 
d="M709 338l-603 -326v640z" />
    <glyph glyph-name="blacksquare" horiz-adv-x="570" 
d="M127 132v316h316v-316h-316z" />
    <glyph glyph-name="blacktriangle" horiz-adv-x="570" 
d="M141 74v446l363 -223z" />
    <glyph glyph-name="blackuppointingtriangle" horiz-adv-x="740" 
d="M364 668l326 -668h-640z" />
    <glyph glyph-name="commatest" horiz-adv-x="500" 
d="M12 -92h137l-104 -146h-100z" />
    <glyph glyph-name="dotbelow" horiz-adv-x="499" 
d="M254 -230h-4q-28 0 -47 19.5t-19 46.5q0 28 19 46.5t47 18.5h4q28 0 47.5 -18.5t19.5 -46.5q0 -27 -19.5 -46.5t-47.5 -19.5z" />
    <glyph glyph-name="idotaccent" horiz-adv-x="265" 
d="M68 524h130v-524h-130v524zM135 608h-4q-28 0 -47 19.5t-19 46.5q0 28 19 46.5t47 18.5h4q28 0 47.5 -18.5t19.5 -46.5q0 -27 -19.5 -46.5t-47.5 -19.5z" />
    <glyph glyph-name="ijacute" horiz-adv-x="546" 
d="M74 524h130v-524h-130v524zM156 743h137l-104 -146h-100zM341 -47v571h130v-580q0 -67 -35.5 -102.5t-107.5 -35.5h-133v104h103q22 0 32.5 10.5t10.5 32.5zM425 743h137l-104 -146h-100z" />
    <glyph glyph-name="jacute" horiz-adv-x="269" 
d="M69 -47v571h130v-580q0 -67 -35.5 -102.5t-107.5 -35.5h-133v104h103q22 0 32.5 10.5t10.5 32.5zM153 743h137l-104 -146h-100z" />
    <glyph glyph-name="ringacute" horiz-adv-x="498" 
d="M252 590q-51 0 -90 32.5t-39 86.5q0 40 21.5 68.5t55.5 41.5l67 150h137l-102 -149q34 -13 56.5 -42t22.5 -69q0 -54 -38.5 -86.5t-90.5 -32.5zM252 651q25 0 41 15t16 43t-16 43t-41 15t-41.5 -15t-16.5 -43t16.5 -43t41.5 -15z" />
    <glyph glyph-name="whitediamond" horiz-adv-x="570" 
d="M285 74l-223 223l223 223l223 -223zM158 297l127 -127l127 127l-127 127z" />
    <glyph glyph-name="whitedownpointingtriangle" horiz-adv-x="740" 
d="M376 -2l-326 668h640zM374 188l188 397h-381z" />
    <glyph glyph-name="whiteleftpointingtriangle" horiz-adv-x="740" 
d="M30 326l603 326v-640zM552 519l-349 -191l349 -185v376z" />
    <glyph glyph-name="whiterightpointingtriangle" horiz-adv-x="740" 
d="M709 338l-603 -326v640zM187 145l349 191l-349 185v-376z" />
    <glyph glyph-name="whitesquare" horiz-adv-x="570" 
d="M127 132v316h316v-316h-316zM194 381v-182h182v182h-182z" />
    <glyph glyph-name="whitetriangle" horiz-adv-x="570" 
d="M141 74v446l363 -223zM208 400v-206l167 103z" />
    <glyph glyph-name="whiteuppointingtriangle" horiz-adv-x="740" 
d="M364 668l326 -668h-640zM366 478l-188 -397h381z" />
    <glyph glyph-name="www" horiz-adv-x="2211" 
d="M10 524h136l100 -357h1l106 357h123l106 -356h1l105 356h134l107 -357h1l106 357h123l105 -356h1l106 356h133l107 -357h1l106 357h123l106 -356h1l99 356h122l-157 -526h-130l-107 367h-1l-108 -367h-118l-116 368h-1l-109 -368h-122l-108 367h-1l-107 -367h-119
l-114 367h-1l-111 -367h-122l-107 367h-1l-108 -367h-125z" />
    <glyph glyph-name="f_b" horiz-adv-x="1073" 
d="M130 0v418h-113v106h113v76q0 66 35.5 102t107.5 36h141v-101h-112q-22 0 -32.5 -10.5t-10.5 -33.5v-69h252v218h130v-294h1q22 41 63 65.5t100 24.5q56 0 99 -22.5t72 -60.5t43.5 -88t14.5 -105t-14.5 -105.5t-43.5 -88t-72 -60t-99 -22.5q-64 0 -106.5 27.5t-64.5 74.5
h-1v-88h-122v418h-251v-418h-130zM904 238v46q0 69 -39 107.5t-93 38.5t-92.5 -39t-38.5 -107v-46q0 -68 38.5 -107t92.5 -39t93 38.5t39 107.5z" />
    <glyph glyph-name="f_f_b" horiz-adv-x="1454" 
d="M130 0v418h-113v106h113v76q0 66 35.5 102t107.5 36h141v-101h-112q-22 0 -32.5 -10.5t-10.5 -33.5v-69h252v76q0 66 35.5 102t107.5 36h141v-101h-112q-22 0 -32.5 -10.5t-10.5 -33.5v-69h252v218h130v-294h1q22 41 63 65.5t100 24.5q56 0 99 -22.5t72 -60.5t43.5 -88
t14.5 -105t-14.5 -105.5t-43.5 -88t-72 -60t-99 -22.5q-64 0 -106.5 27.5t-64.5 74.5h-1v-88h-122v418h-251v-418h-130v418h-251v-418h-130zM1285 238v46q0 69 -39 107.5t-93 38.5t-92.5 -39t-38.5 -107v-46q0 -68 38.5 -107t92.5 -39t93 38.5t39 107.5z" />
    <glyph glyph-name="f_f_h" horiz-adv-x="1434" 
d="M130 0v418h-113v106h113v76q0 66 35.5 102t107.5 36h141v-101h-112q-22 0 -32.5 -10.5t-10.5 -33.5v-69h252v76q0 66 35.5 102t107.5 36h141v-101h-112q-22 0 -32.5 -10.5t-10.5 -33.5v-69h252v218h127v-292h1q22 43 63.5 65.5t94.5 22.5q84 0 139 -55.5t55 -154.5v-328
h-130v314q0 57 -32.5 85.5t-74.5 28.5q-44 0 -78.5 -30t-34.5 -90v-308h-130v418h-251v-418h-130v418h-251v-418h-130z" />
    <glyph glyph-name="f_f_k" horiz-adv-x="1399" 
d="M130 0v418h-113v106h113v76q0 66 35.5 102t107.5 36h141v-101h-112q-22 0 -32.5 -10.5t-10.5 -33.5v-69h252v76q0 66 35.5 102t107.5 36h141v-101h-112q-22 0 -32.5 -10.5t-10.5 -33.5v-69h252v218h130v-742h-130v418h-251v-418h-130v418h-251v-418h-130zM1385 524
l-212 -234l232 -290h-161l-222 286l207 238h156z" />
    <glyph glyph-name="f_f_t" horiz-adv-x="1219" 
d="M130 0v418h-113v106h113v76q0 66 35.5 102t107.5 36h141v-101h-112q-22 0 -32.5 -10.5t-10.5 -33.5v-69h252v76q0 66 35.5 102t107.5 36h141v-101h-112q-22 0 -32.5 -10.5t-10.5 -33.5v-69h252v147h130v-147h162v-106h-162v-269q0 -23 10.5 -33.5t32.5 -10.5h119v-105
h-149q-72 0 -107.5 35.5t-35.5 102.5v280h-251v-418h-130v418h-251v-418h-130z" />
    <glyph glyph-name="f_h" horiz-adv-x="1054" 
d="M130 0v418h-113v106h113v76q0 66 35.5 102t107.5 36h141v-101h-112q-22 0 -32.5 -10.5t-10.5 -33.5v-69h252v218h127v-292h1q22 43 63.5 65.5t94.5 22.5q84 0 139 -55.5t55 -154.5v-328h-130v314q0 57 -32.5 85.5t-74.5 28.5q-44 0 -78.5 -30t-34.5 -90v-308h-130v418
h-251v-418h-130z" />
    <glyph glyph-name="f_k" horiz-adv-x="1019" 
d="M130 0v418h-113v106h113v76q0 66 35.5 102t107.5 36h141v-101h-112q-22 0 -32.5 -10.5t-10.5 -33.5v-69h252v218h130v-742h-130v418h-251v-418h-130zM1004 524l-212 -234l232 -290h-161l-222 286l207 238h156z" />
    <glyph glyph-name="f_t" horiz-adv-x="839" 
d="M130 0v418h-113v106h113v76q0 66 35.5 102t107.5 36h141v-101h-112q-22 0 -32.5 -10.5t-10.5 -33.5v-69h252v147h130v-147h162v-106h-162v-269q0 -23 10.5 -33.5t32.5 -10.5h119v-105h-149q-72 0 -107.5 35.5t-35.5 102.5v280h-251v-418h-130z" />
    <glyph glyph-name="r_y" horiz-adv-x="942" 
d="M68 0v524h124v-93h1q10 32 45 62.5t104 30.5h207l128 -362h1l127 362h131l-211 -566q-31 -81 -78.5 -115t-125.5 -34h-110v105h104q31 0 47.5 11t29.5 45l17 46l-155 388h-136q-66 0 -93 -30.5t-27 -82.5v-291h-130z" />
    <glyph glyph-name="t_t" horiz-adv-x="837" 
d="M18 524h114v147h130v-147h248v147h130v-147h162v-106h-162v-269q0 -23 10.5 -33.5t32.5 -10.5h119v-105h-149q-72 0 -107.5 35.5t-35.5 102.5v280h-248v-269q0 -23 10.5 -33.5t32.5 -10.5h119v-105h-149q-72 0 -107.5 35.5t-35.5 102.5v280h-114v106z" />
    <glyph glyph-name="black_circle_downwards_arrow" horiz-adv-x="792" 
d="M762 353q0 -84 -29.5 -152.5t-79.5 -116t-116.5 -73t-140.5 -25.5t-140.5 25.5t-116.5 73t-79.5 116t-29.5 152.5t29.5 152.5t79.5 115.5t116.5 72.5t140.5 25.5t140.5 -25.5t116.5 -72.5t79.5 -115.5t29.5 -152.5zM353 575v-275l-142 142v-109l185 -185l186 185v109
l-143 -142v275h-86z" />
    <glyph glyph-name="black_circle_leftwards_arrow" horiz-adv-x="792" 
d="M762 353q0 -84 -29.5 -152.5t-79.5 -116t-116.5 -73t-140.5 -25.5t-140.5 25.5t-116.5 73t-79.5 116t-29.5 152.5t29.5 152.5t79.5 115.5t116.5 72.5t140.5 25.5t140.5 -25.5t116.5 -72.5t79.5 -115.5t29.5 -152.5zM609 396h-275l142 142h-109l-185 -185l185 -186h109
l-143 143h276v86z" />
    <glyph glyph-name="black_circle_north_east_arrow" horiz-adv-x="792" 
d="M762 353q0 -84 -29.5 -152.5t-79.5 -116t-116.5 -73t-140.5 -25.5t-140.5 25.5t-116.5 73t-79.5 116t-29.5 152.5t29.5 152.5t79.5 115.5t116.5 72.5t140.5 25.5t140.5 -25.5t116.5 -72.5t79.5 -115.5t29.5 -152.5zM275 179l195 195v-201l77 77v263h-263l-77 -77h202
l-195 -196z" />
    <glyph glyph-name="black_circle_north_west_arrow" horiz-adv-x="792" 
d="M762 353q0 -84 -29.5 -152.5t-79.5 -116t-116.5 -73t-140.5 -25.5t-140.5 25.5t-116.5 73t-79.5 116t-29.5 152.5t29.5 152.5t79.5 115.5t116.5 72.5t140.5 25.5t140.5 -25.5t116.5 -72.5t79.5 -115.5t29.5 -152.5zM578 242l-195 194h201l-77 77h-263v-262l77 -78v202
l195 -195z" />
    <glyph glyph-name="black_circle_rightwards_arrow" horiz-adv-x="792" 
d="M762 353q0 -84 -29.5 -152.5t-79.5 -116t-116.5 -73t-140.5 -25.5t-140.5 25.5t-116.5 73t-79.5 116t-29.5 152.5t29.5 152.5t79.5 115.5t116.5 72.5t140.5 25.5t140.5 -25.5t116.5 -72.5t79.5 -115.5t29.5 -152.5zM182 310h274l-142 -142h109l186 185l-186 186h-109
l143 -143h-275v-86z" />
    <glyph glyph-name="black_circle_south_east_arrow" horiz-adv-x="792" 
d="M762 353q0 -84 -29.5 -152.5t-79.5 -116t-116.5 -73t-140.5 -25.5t-140.5 25.5t-116.5 73t-79.5 116t-29.5 152.5t29.5 152.5t79.5 115.5t116.5 72.5t140.5 25.5t140.5 -25.5t116.5 -72.5t79.5 -115.5t29.5 -152.5zM275 520l-61 -62l195 -195h-201l77 -76h262v262l-76 77
v-201z" />
    <glyph glyph-name="black_circle_south_west_arrow" horiz-adv-x="792" 
d="M762 353q0 -84 -29.5 -152.5t-79.5 -116t-116.5 -73t-140.5 -25.5t-140.5 25.5t-116.5 73t-79.5 116t-29.5 152.5t29.5 152.5t79.5 115.5t116.5 72.5t140.5 25.5t140.5 -25.5t116.5 -72.5t79.5 -115.5t29.5 -152.5zM579 458l-61 62l-196 -195v201l-77 -77v-262h263l77 76
h-201z" />
    <glyph glyph-name="black_circle_upwards_arrow" horiz-adv-x="792" 
d="M762 353q0 -84 -29.5 -152.5t-79.5 -116t-116.5 -73t-140.5 -25.5t-140.5 25.5t-116.5 73t-79.5 116t-29.5 152.5t29.5 152.5t79.5 115.5t116.5 72.5t140.5 25.5t140.5 -25.5t116.5 -72.5t79.5 -115.5t29.5 -152.5zM439 148v275l142 -142v109l-185 185l-186 -185v-109
l143 142v-275h86z" />
    <glyph glyph-name="white_circle_downwards_arrow" horiz-adv-x="792" 
d="M762 353q0 -84 -29.5 -152.5t-79.5 -116t-116.5 -73t-140.5 -25.5t-140.5 25.5t-116.5 73t-79.5 116t-29.5 152.5t29.5 152.5t79.5 115.5t116.5 72.5t140.5 25.5t140.5 -25.5t116.5 -72.5t79.5 -115.5t29.5 -152.5zM109 353q0 -68 23 -122.5t62 -92.5t91.5 -58.5
t110.5 -20.5t110.5 20.5t91.5 58.5t62 92.5t23 122.5q0 67 -23 121.5t-62 92.5t-91.5 58.5t-110.5 20.5t-110.5 -20.5t-91.5 -58.5t-62 -92.5t-23 -121.5zM353 575h86v-275l143 142v-109l-186 -185l-185 185v109l142 -142v275z" />
    <glyph glyph-name="white_circle_leftwards_arrow" horiz-adv-x="792" 
d="M762 353q0 -84 -29.5 -152.5t-79.5 -116t-116.5 -73t-140.5 -25.5t-140.5 25.5t-116.5 73t-79.5 116t-29.5 152.5t29.5 152.5t79.5 115.5t116.5 72.5t140.5 25.5t140.5 -25.5t116.5 -72.5t79.5 -115.5t29.5 -152.5zM109 353q0 -68 23 -122.5t62 -92.5t91.5 -58.5
t110.5 -20.5t110.5 20.5t91.5 58.5t62 92.5t23 122.5q0 67 -23 121.5t-62 92.5t-91.5 58.5t-110.5 20.5t-110.5 -20.5t-91.5 -58.5t-62 -92.5t-23 -121.5zM609 396v-86h-276l143 -143h-109l-185 186l185 185h109l-142 -142h275z" />
    <glyph glyph-name="white_circle_north_east_arrow" horiz-adv-x="792" 
d="M762 353q0 -84 -29.5 -152.5t-79.5 -116t-116.5 -73t-140.5 -25.5t-140.5 25.5t-116.5 73t-79.5 116t-29.5 152.5t29.5 152.5t79.5 115.5t116.5 72.5t140.5 25.5t140.5 -25.5t116.5 -72.5t79.5 -115.5t29.5 -152.5zM109 353q0 -68 23 -122.5t62 -92.5t91.5 -58.5
t110.5 -20.5t110.5 20.5t91.5 58.5t62 92.5t23 122.5q0 67 -23 121.5t-62 92.5t-91.5 58.5t-110.5 20.5t-110.5 -20.5t-91.5 -58.5t-62 -92.5t-23 -121.5zM275 179l-61 61l195 196h-202l77 77h263v-263l-77 -77v201z" />
    <glyph glyph-name="white_circle_north_west_arrow" horiz-adv-x="792" 
d="M762 353q0 -84 -29.5 -152.5t-79.5 -116t-116.5 -73t-140.5 -25.5t-140.5 25.5t-116.5 73t-79.5 116t-29.5 152.5t29.5 152.5t79.5 115.5t116.5 72.5t140.5 25.5t140.5 -25.5t116.5 -72.5t79.5 -115.5t29.5 -152.5zM109 353q0 -68 23 -122.5t62 -92.5t91.5 -58.5
t110.5 -20.5t110.5 20.5t91.5 58.5t62 92.5t23 122.5q0 67 -23 121.5t-62 92.5t-91.5 58.5t-110.5 20.5t-110.5 -20.5t-91.5 -58.5t-62 -92.5t-23 -121.5zM578 242l-62 -62l-195 195v-202l-77 78v262h263l77 -77h-201z" />
    <glyph glyph-name="white_circle_rightwards_arrow" horiz-adv-x="792" 
d="M762 353q0 -84 -29.5 -152.5t-79.5 -116t-116.5 -73t-140.5 -25.5t-140.5 25.5t-116.5 73t-79.5 116t-29.5 152.5t29.5 152.5t79.5 115.5t116.5 72.5t140.5 25.5t140.5 -25.5t116.5 -72.5t79.5 -115.5t29.5 -152.5zM109 353q0 -68 23 -122.5t62 -92.5t91.5 -58.5
t110.5 -20.5t110.5 20.5t91.5 58.5t62 92.5t23 122.5q0 67 -23 121.5t-62 92.5t-91.5 58.5t-110.5 20.5t-110.5 -20.5t-91.5 -58.5t-62 -92.5t-23 -121.5zM182 310v86h275l-143 143h109l186 -186l-186 -185h-109l142 142h-274z" />
    <glyph glyph-name="white_circle_south_east_arrow" horiz-adv-x="792" 
d="M762 353q0 -84 -29.5 -152.5t-79.5 -116t-116.5 -73t-140.5 -25.5t-140.5 25.5t-116.5 73t-79.5 116t-29.5 152.5t29.5 152.5t79.5 115.5t116.5 72.5t140.5 25.5t140.5 -25.5t116.5 -72.5t79.5 -115.5t29.5 -152.5zM109 353q0 -68 23 -122.5t62 -92.5t91.5 -58.5
t110.5 -20.5t110.5 20.5t91.5 58.5t62 92.5t23 122.5q0 67 -23 121.5t-62 92.5t-91.5 58.5t-110.5 20.5t-110.5 -20.5t-91.5 -58.5t-62 -92.5t-23 -121.5zM275 520l196 -195v201l76 -77v-262h-262l-77 76h201l-195 195z" />
    <glyph glyph-name="white_circle_south_west_arrow" horiz-adv-x="792" 
d="M762 353q0 -84 -29.5 -152.5t-79.5 -116t-116.5 -73t-140.5 -25.5t-140.5 25.5t-116.5 73t-79.5 116t-29.5 152.5t29.5 152.5t79.5 115.5t116.5 72.5t140.5 25.5t140.5 -25.5t116.5 -72.5t79.5 -115.5t29.5 -152.5zM109 353q0 -68 23 -122.5t62 -92.5t91.5 -58.5
t110.5 -20.5t110.5 20.5t91.5 58.5t62 92.5t23 122.5q0 67 -23 121.5t-62 92.5t-91.5 58.5t-110.5 20.5t-110.5 -20.5t-91.5 -58.5t-62 -92.5t-23 -121.5zM579 458l-195 -195h201l-77 -76h-263v262l77 77v-201l196 195z" />
    <glyph glyph-name="white_circle_upwards_arrow" horiz-adv-x="792" 
d="M762 353q0 -84 -29.5 -152.5t-79.5 -116t-116.5 -73t-140.5 -25.5t-140.5 25.5t-116.5 73t-79.5 116t-29.5 152.5t29.5 152.5t79.5 115.5t116.5 72.5t140.5 25.5t140.5 -25.5t116.5 -72.5t79.5 -115.5t29.5 -152.5zM109 353q0 -68 23 -122.5t62 -92.5t91.5 -58.5
t110.5 -20.5t110.5 20.5t91.5 58.5t62 92.5t23 122.5q0 67 -23 121.5t-62 92.5t-91.5 58.5t-110.5 20.5t-110.5 -20.5t-91.5 -58.5t-62 -92.5t-23 -121.5zM439 148h-86v275l-143 -142v109l186 185l185 -185v-109l-142 142v-275z" />
    <glyph glyph-name="zero.zero" horiz-adv-x="639" 
d="M319 719q122 0 192.5 -70.5t70.5 -192.5v-206q0 -123 -71 -193.5t-192 -70.5q-120 0 -191 70.5t-71 193.5v206q0 122 70.5 192.5t191.5 70.5zM189 455v-169l242 255q-16 29 -44 45.5t-68 16.5q-63 0 -96.5 -41t-33.5 -107zM319 102q64 0 97.5 41t33.5 108v170l-243 -255
q16 -30 44 -47t68 -17z" />
    <glyph glyph-name="zero.tf.zero" 
d="M320 719q122 0 192.5 -72.5t70.5 -195.5v-196q0 -126 -71 -197.5t-192 -71.5q-120 0 -191.5 71.5t-71.5 197.5v196q0 123 71 195.5t192 72.5zM189 449v-165l242 255q-16 30 -43.5 47t-67.5 17q-63 0 -97 -42.5t-34 -111.5zM320 102q63 0 97 42.5t34 111.5v164l-242 -255
q16 -30 43.5 -46.5t67.5 -16.5z" />
    <glyph glyph-name="zero.tf" 
d="M320 719q122 0 192.5 -72.5t70.5 -195.5v-196q0 -126 -71 -197.5t-192 -71.5q-120 0 -191.5 71.5t-71.5 197.5v196q0 123 71 195.5t192 72.5zM320 102q63 0 97 42.5t34 111.5v193q0 69 -34 111.5t-97 42.5t-97 -42.5t-34 -111.5v-193q0 -69 34 -111.5t97 -42.5z" />
    <glyph glyph-name="one.tf" 
d="M83 0v110h192v361h-173v110h173v123h132v-594h181v-110h-505z" />
    <glyph glyph-name="two.tf" 
d="M64 0v104q0 67 37 115.5t115 90.5l141 75q52 28 68.5 57.5t16.5 57.5v11q0 42 -28 71.5t-88 29.5q-54 0 -88.5 -31t-35.5 -91h-129q2 54 21.5 96.5t52.5 72t79 45t100 15.5q58 0 104 -16.5t78 -44.5t49 -66.5t17 -81.5q0 -63 -33.5 -118t-116.5 -101l-155 -86
q-40 -22 -57 -42.5t-17 -51.5h390v-111h-521z" />
    <glyph glyph-name="three.tf" 
d="M445 200v11q0 48 -33.5 78t-93.5 30h-95v91l185 184h-315v110h458v-110l-183 -181v-3q96 -6 153.5 -62t57.5 -145q0 -94 -70 -155.5t-192 -61.5q-60 0 -106.5 16.5t-79 44.5t-50.5 66.5t-20 81.5h132q3 -40 32 -72t95 -32q63 0 94 32.5t31 76.5z" />
    <glyph glyph-name="four.tf" 
d="M42 156v106l287 442h164v-439h103v-109h-103v-156h-131v156h-320zM171 270v-5h194v301h-6z" />
    <glyph glyph-name="five.tf" 
d="M84 298v406h461v-110h-347v-196h5q24 47 66.5 65t89.5 18q101 0 163 -67t62 -175q0 -54 -18.5 -101t-53 -80.5t-84.5 -52.5t-113 -19q-107 0 -178 57.5t-81 150.5h135q4 -41 36.5 -70t89.5 -29q66 0 99.5 38t33.5 99v10q0 60 -32 96.5t-92 36.5q-45 0 -77 -20t-49 -57
h-116z" />
    <glyph glyph-name="six.tf" 
d="M586 231q0 -53 -19.5 -98t-55 -77.5t-84.5 -51t-107 -18.5t-107 19t-84.5 52t-55 79t-19.5 99q0 64 19 115.5t61 109.5l177 244h152l-217 -276h8q19 22 48 34t67 12q44 0 83.5 -17.5t69 -49t47 -77t17.5 -99.5zM188 240v-12q0 -57 37.5 -97t97.5 -40q59 0 95 39.5
t36 97.5v12q0 57 -34.5 95.5t-96.5 38.5q-59 0 -97 -37.5t-38 -96.5z" />
    <glyph glyph-name="seven.tf" 
d="M126 0l312 592h-380v112h520v-106l-311 -598h-141z" />
    <glyph glyph-name="eight.tf" 
d="M442 373v-5q66 -10 107 -57t41 -117q0 -43 -18.5 -81.5t-53 -66t-85 -44t-113.5 -16.5t-113.5 16.5t-85 44t-53 66t-18.5 81.5q0 70 41 117t107 57v5q-60 10 -95.5 52t-35.5 102q0 81 68.5 136.5t184.5 55.5t184.5 -55.5t68.5 -136.5q0 -60 -35.5 -102t-95.5 -52z
M196 522v-11q0 -40 35 -67t89 -27t89 27t35 67v11q0 40 -34 66t-90 26t-90 -26t-34 -66zM182 211v-12q0 -47 37.5 -78.5t100.5 -31.5t100.5 31.5t37.5 78.5v12q0 45 -36.5 77t-101.5 32t-101.5 -32t-36.5 -77z" />
    <glyph glyph-name="nine.tf" 
d="M54 473q0 53 19.5 98t55 77.5t84.5 51t107 18.5t107 -19t84.5 -52t55 -79t19.5 -99q0 -64 -19 -115.5t-61 -109.5l-177 -244h-152l217 276h-8q-19 -22 -48 -34t-67 -12q-44 0 -83.5 17.5t-69 49t-47 77t-17.5 99.5zM452 464v12q0 57 -37.5 97t-97.5 40q-59 0 -95 -39.5
t-36 -97.5v-12q0 -57 34.5 -95.5t96.5 -38.5q59 0 97 37.5t38 96.5z" />
    <glyph glyph-name="parenleft.tf" 
d="M509 737q-36 -38 -70.5 -85t-60.5 -101.5t-42.5 -118.5t-16.5 -136t16.5 -136t42.5 -119t60.5 -102t70.5 -85h-134q-36 37 -69 84.5t-57.5 103.5t-39.5 120t-15 134q0 71 15 134.5t39.5 119t57.5 102.5t69 85h134z" />
    <glyph glyph-name="parenright.tf" 
d="M131 -133q36 38 70.5 85t60.5 101.5t42.5 118.5t16.5 136t-16.5 136t-42.5 119t-60.5 102t-70.5 85h134q36 -37 69 -84.5t57.5 -103.5t39.5 -120t15 -134q0 -71 -15 -134.5t-39.5 -119t-57.5 -102.5t-69 -85h-134z" />
    <glyph glyph-name="bracketleft.tf" 
d="M199 744h333v-103h-212v-691h212v-104h-333v898z" />
    <glyph glyph-name="bracketright.tf" 
d="M441 -140h-333v103h212v691h-212v104h333v-898z" />
    <glyph glyph-name="braceleft.tf" 
d="M112 243v105q38 0 70 20.5t32 66.5v158q0 73 38 111.5t107 38.5h173v-103h-131q-34 0 -50 -16t-16 -51v-148q0 -29 -11 -52.5t-28.5 -39.5t-40.5 -25t-47 -9v-8q24 0 47 -9t40.5 -25t28.5 -39.5t11 -52.5v-148q0 -35 16 -51t50 -16h131v-104h-173q-69 0 -107 39t-38 112
v159q0 46 -32 66.5t-70 20.5z" />
    <glyph glyph-name="braceright.tf" 
d="M528 361v-105q-38 0 -70 -20.5t-32 -66.5v-158q0 -73 -38 -111.5t-107 -38.5h-173v103h131q34 0 50 16t16 51v148q0 29 11 52.5t28.5 39.5t40.5 25t47 9v8q-24 0 -47 9t-40.5 25t-28.5 39.5t-11 52.5v148q0 35 -16 51t-50 16h-131v104h173q69 0 107 -39t38 -112v-159
q0 -46 32 -66.5t70 -20.5z" />
    <glyph glyph-name="period.tf" 
d="M320 -10q-37 0 -64 27t-27 65q0 37 27 64t64 27t64 -27t27 -64q0 -38 -27 -65t-64 -27z" />
    <glyph glyph-name="comma.tf" 
d="M321 -147h-114l67 291h132z" />
    <glyph glyph-name="colon.tf" 
d="M320 -10q-37 0 -64 27t-27 65q0 37 27 64t64 27t64 -27t27 -64q0 -38 -27 -65t-64 -27zM320 334q-37 0 -64 27t-27 65q0 37 27 64t64 27t64 -27t27 -64q0 -38 -27 -65t-64 -27z" />
    <glyph glyph-name="semicolon.tf" 
d="M321 -147h-114l67 291h132zM320 334q-37 0 -64 27t-27 65q0 37 27 64t64 27t64 -27t27 -64q0 -38 -27 -65t-64 -27z" />
    <glyph glyph-name="plus.tf" 
d="M48 266v108h218v209h108v-209h218v-108h-218v-209h-108v209h-218z" />
    <glyph glyph-name="minus.tf" 
d="M48 266v108h544v-108h-544z" />
    <glyph glyph-name="plusminus.tf" 
d="M48 361v108h218v141h108v-141h218v-108h-218v-141h-108v141h-218zM48 37v108h544v-108h-544z" />
    <glyph glyph-name="divide.tf" 
d="M320 437q-31 0 -54 23t-23 56q0 31 23 54t54 23q32 0 55 -23t23 -54q0 -33 -23 -56t-55 -23zM48 265v109h544v-109h-544zM320 52q-31 0 -54 23t-23 56q0 31 23 54t54 23q32 0 55 -23t23 -54q0 -33 -23 -56t-55 -23z" />
    <glyph glyph-name="multiply.tf" 
d="M152 76l-76 76l168 168l-161 161l76 76l161 -161l168 168l76 -76l-168 -168l161 -161l-76 -76l-161 161z" />
    <glyph glyph-name="equal.tf" 
d="M49 389v108h542v-108h-542zM49 143v108h542v-108h-542z" />
    <glyph glyph-name="less.tf" 
d="M576 51l-523 232v107l523 234v-121l-397 -165l397 -166v-121z" />
    <glyph glyph-name="greater.tf" 
d="M61 624l523 -232v-107l-523 -234v121l397 165l-397 166v121z" />
    <glyph glyph-name="lessequal.tf" 
d="M580 197l-522 155v115l522 157v-121l-353 -92l353 -93v-121zM65 30v108h515v-108h-515z" />
    <glyph glyph-name="greaterequal.tf" 
d="M60 197v121l353 93l-353 92v121l522 -157v-115zM575 30h-515v108h515v-108z" />
    <glyph glyph-name="approxequal.tf" 
d="M50 353q0 37 9 69t27.5 56t48.5 38t71 14t70.5 -14.5t53 -31t45 -31t48.5 -14.5q36 0 51 24t16 53h100q0 -75 -40 -127.5t-118 -52.5q-40 0 -69.5 14.5t-54 31.5t-47 31.5t-48.5 14.5q-34 0 -48.5 -24t-15.5 -51h-99zM50 113q0 74 36.5 125.5t119.5 51.5q41 0 70.5 -14
t53 -31t45 -31t48.5 -14q36 0 51 24t16 53h100q0 -38 -10 -71t-29.5 -57.5t-49.5 -38.5t-69 -14q-40 0 -69.5 14.5t-54 32t-47 32t-48.5 14.5q-34 0 -48.5 -24.5t-15.5 -51.5h-99z" />
    <glyph glyph-name="notequal.tf" 
d="M121 7l57 136h-129v108h174l58 138h-232v108h277l56 135h116l-56 -135h149v-108h-194l-58 -138h252v-108h-297l-57 -136h-116z" />
    <glyph glyph-name="logicalnot.tf" 
d="M45 266v108h520v-317h-108v209h-412z" />
    <glyph glyph-name="f.short" horiz-adv-x="454" 
d="M130 0v418h-113v106h113v76q0 66 35.5 102t107.5 36h141v-101h-112q-22 0 -32.5 -10.5t-10.5 -33.5v-69h180v-106h-179v-418h-130z" />
    <glyph glyph-name="A.sc" horiz-adv-x="600" 
d="M462 0l-42 117h-246l-41 -117h-124l222 590h138l222 -590h-129zM295 464l-84 -242h172l-86 242h-2z" />
    <glyph glyph-name="Agrave.sc" horiz-adv-x="600" 
d="M462 0l-42 117h-246l-41 -117h-124l222 590h138l222 -590h-129zM295 464l-84 -242h172l-86 242h-2zM285 808l67 -146h-100l-104 146h137z" />
    <glyph glyph-name="Aacute.sc" horiz-adv-x="600" 
d="M462 0l-42 117h-246l-41 -117h-124l222 590h138l222 -590h-129zM295 464l-84 -242h172l-86 242h-2zM319 808h137l-104 -146h-100z" />
    <glyph glyph-name="Acircumflex.sc" horiz-adv-x="600" 
d="M462 0l-42 117h-246l-41 -117h-124l222 590h138l222 -590h-129zM295 464l-84 -242h172l-86 242h-2zM496 662h-120l-68 83h-6l-66 -83h-104l118 146h129z" />
    <glyph glyph-name="Atilde.sc" horiz-adv-x="600" 
d="M462 0l-42 117h-246l-41 -117h-124l222 590h138l222 -590h-129zM295 464l-84 -242h172l-86 242h-2zM370 663q-30 0 -49 11t-33.5 24t-28 24t-32.5 11q-22 0 -33 -14.5t-11 -44.5h-64v6q0 60 30 94t83 34h1q30 0 49.5 -11t34.5 -24.5t29 -24.5t34 -11q21 0 32 14t11 43h64
v-5q0 -60 -31 -93t-85 -33h-1z" />
    <glyph glyph-name="Adieresis.sc" horiz-adv-x="600" 
d="M462 0l-42 117h-246l-41 -117h-124l222 590h138l222 -590h-129zM295 464l-84 -242h172l-86 242h-2zM210 673h-4q-28 0 -47 19.5t-19 46.5q0 28 19 46.5t47 18.5h4q28 0 47.5 -18.5t19.5 -46.5q0 -27 -19.5 -46.5t-47.5 -19.5zM405 673h-4q-28 0 -47 19.5t-19 46.5
q0 28 19 46.5t47 18.5h4q28 0 47.5 -18.5t19.5 -46.5q0 -27 -19.5 -46.5t-47.5 -19.5z" />
    <glyph glyph-name="Aring.sc" horiz-adv-x="600" 
d="M462 0l-42 117h-246l-41 -117h-124l222 590h138l222 -590h-129zM295 464l-84 -242h172l-86 242h-2zM305 656q-51 0 -90 32.5t-39 86.5t39 87t90 33q52 0 90.5 -33t38.5 -87t-38.5 -86.5t-90.5 -32.5zM305 717q25 0 41 15t16 43t-16 43t-41 15t-41.5 -15t-16.5 -43
t16.5 -43t41.5 -15z" />
    <glyph glyph-name="Amacron.sc" horiz-adv-x="600" 
d="M462 0l-42 117h-246l-41 -117h-124l222 590h138l222 -590h-129zM295 464l-84 -242h172l-86 242h-2zM165 782h276v-84h-276v84z" />
    <glyph glyph-name="Abreve.sc" horiz-adv-x="600" 
d="M462 0l-42 117h-246l-41 -117h-124l222 590h138l222 -590h-129zM295 464l-84 -242h172l-86 242h-2zM295 662q-76 0 -118.5 43t-42.5 103h101q0 -32 17.5 -48.5t48.5 -16.5q32 0 48.5 17t16.5 48h100q0 -59 -42.5 -102.5t-117.5 -43.5h-11z" />
    <glyph glyph-name="Aogonek.sc" horiz-adv-x="600" 
d="M462 0l-42 117h-246l-41 -117h-124l222 590h138l222 -590h-129zM295 464l-84 -242h172l-86 242h-2zM578 31v-31q-35 -23 -54 -41.5t-19 -38.5q0 -15 12 -25t40 -10h70v-85h-101q-56 0 -83.5 28t-27.5 64q0 40 41 74t122 65z" />
    <glyph glyph-name="Acaron.sc" horiz-adv-x="600" 
d="M462 0l-42 117h-246l-41 -117h-124l222 590h138l222 -590h-129zM295 464l-84 -242h172l-86 242h-2zM115 808h120l68 -83h6l66 83h104l-118 -146h-129z" />
    <glyph glyph-name="Aringacute.sc" horiz-adv-x="600" 
d="M462 0l-42 117h-246l-41 -117h-124l222 590h138l222 -590h-129zM295 464l-84 -242h172l-86 242h-2zM297 532q-51 0 -90 32.5t-39 86.5q0 40 21.5 68.5t55.5 41.5l67 150h137l-102 -149q34 -13 56.5 -42t22.5 -69q0 -54 -38.5 -86.5t-90.5 -32.5zM297 593q25 0 41 15
t16 43t-16 43t-41 15t-41.5 -15t-16.5 -43t16.5 -43t41.5 -15z" />
    <glyph glyph-name="Adotbelow.sc" horiz-adv-x="600" 
d="M462 0l-42 117h-246l-41 -117h-124l222 590h138l222 -590h-129zM295 464l-84 -242h172l-86 242h-2zM308 -230h-4q-28 0 -47 19.5t-19 46.5q0 28 19 46.5t47 18.5h4q28 0 47.5 -18.5t19.5 -46.5q0 -27 -19.5 -46.5t-47.5 -19.5z" />
    <glyph glyph-name="B.sc" horiz-adv-x="600" 
d="M75 0v590h279q81 0 133.5 -42.5t52.5 -112.5q0 -49 -25.5 -81t-67.5 -45v-1q49 -13 79 -48.5t30 -90.5q0 -79 -54 -124t-137 -45h-290zM420 417v8q0 29 -19.5 47t-54.5 18h-152v-139h152q35 0 54.5 18t19.5 48zM436 173v9q0 35 -22 54.5t-62 19.5h-158v-155h159
q42 0 62.5 20.5t20.5 51.5z" />
    <glyph glyph-name="C.sc" horiz-adv-x="601" 
d="M317 93q60 0 90.5 29t37.5 66h125q-16 -90 -82 -145t-166 -55q-69 0 -121.5 24t-88 65t-53.5 97.5t-18 120.5q0 63 18.5 119.5t53.5 98t88 66t121 24.5q99 0 165.5 -55t81.5 -139h-127q-9 39 -40 64t-85 25q-62 0 -107 -47.5t-45 -134.5v-41q0 -87 45 -134.5t107 -47.5z
" />
    <glyph glyph-name="Ccedilla.sc" horiz-adv-x="601" 
d="M317 93q60 0 90.5 29t37.5 66h125q-16 -90 -82 -145t-166 -55q-69 0 -121.5 24t-88 65t-53.5 97.5t-18 120.5q0 63 18.5 119.5t53.5 98t88 66t121 24.5q99 0 165.5 -55t81.5 -139h-127q-9 39 -40 64t-85 25q-62 0 -107 -47.5t-45 -134.5v-41q0 -87 45 -134.5t107 -47.5z
M218 -224v55h87q21 0 39.5 6.5t18.5 25.5t-17 26.5t-48 7.5h-37v44l26 66h71l-24 -59q54 0 89.5 -21t35.5 -59q0 -48 -34 -70t-84 -22h-123z" />
    <glyph glyph-name="Cacute.sc" horiz-adv-x="601" 
d="M317 93q60 0 90.5 29t37.5 66h125q-16 -90 -82 -145t-166 -55q-69 0 -121.5 24t-88 65t-53.5 97.5t-18 120.5q0 63 18.5 119.5t53.5 98t88 66t121 24.5q99 0 165.5 -55t81.5 -139h-127q-9 39 -40 64t-85 25q-62 0 -107 -47.5t-45 -134.5v-41q0 -87 45 -134.5t107 -47.5z
M338 808h137l-104 -146h-100z" />
    <glyph glyph-name="Ccircumflex.sc" horiz-adv-x="601" 
d="M317 93q60 0 90.5 29t37.5 66h125q-16 -90 -82 -145t-166 -55q-69 0 -121.5 24t-88 65t-53.5 97.5t-18 120.5q0 63 18.5 119.5t53.5 98t88 66t121 24.5q99 0 165.5 -55t81.5 -139h-127q-9 39 -40 64t-85 25q-62 0 -107 -47.5t-45 -134.5v-41q0 -87 45 -134.5t107 -47.5z
M515 662h-120l-68 83h-6l-66 -83h-104l118 146h129z" />
    <glyph glyph-name="Cdotaccent.sc" horiz-adv-x="601" 
d="M317 93q60 0 90.5 29t37.5 66h125q-16 -90 -82 -145t-166 -55q-69 0 -121.5 24t-88 65t-53.5 97.5t-18 120.5q0 63 18.5 119.5t53.5 98t88 66t121 24.5q99 0 165.5 -55t81.5 -139h-127q-9 39 -40 64t-85 25q-62 0 -107 -47.5t-45 -134.5v-41q0 -87 45 -134.5t107 -47.5z
M323 673h-4q-28 0 -47 19.5t-19 46.5q0 28 19 46.5t47 18.5h4q28 0 47.5 -18.5t19.5 -46.5q0 -27 -19.5 -46.5t-47.5 -19.5z" />
    <glyph glyph-name="Ccaron.sc" horiz-adv-x="601" 
d="M317 93q60 0 90.5 29t37.5 66h125q-16 -90 -82 -145t-166 -55q-69 0 -121.5 24t-88 65t-53.5 97.5t-18 120.5q0 63 18.5 119.5t53.5 98t88 66t121 24.5q99 0 165.5 -55t81.5 -139h-127q-9 39 -40 64t-85 25q-62 0 -107 -47.5t-45 -134.5v-41q0 -87 45 -134.5t107 -47.5z
M134 808h120l68 -83h6l66 83h104l-118 -146h-129z" />
    <glyph glyph-name="D.sc" horiz-adv-x="627" 
d="M304 590q67 0 119.5 -23t88.5 -63t54.5 -94t18.5 -115q0 -62 -18.5 -116t-54 -93.5t-88 -62.5t-120.5 -23h-229v590h229zM304 486h-108v-382h108q64 0 111 44t47 125v45q0 80 -47 124t-111 44z" />
    <glyph glyph-name="Dcaron.sc" horiz-adv-x="627" 
d="M304 590q67 0 119.5 -23t88.5 -63t54.5 -94t18.5 -115q0 -62 -18.5 -116t-54 -93.5t-88 -62.5t-120.5 -23h-229v590h229zM304 486h-108v-382h108q64 0 111 44t47 125v45q0 80 -47 124t-111 44zM112 808h120l68 -83h6l66 83h104l-118 -146h-129z" />
    <glyph glyph-name="E.sc" horiz-adv-x="547" 
d="M75 590h422v-104h-301v-133h275v-102h-275v-147h301v-104h-422v590z" />
    <glyph glyph-name="Egrave.sc" horiz-adv-x="547" 
d="M75 590h422v-104h-301v-133h275v-102h-275v-147h301v-104h-422v590zM277 808l67 -146h-100l-104 146h137z" />
    <glyph glyph-name="Eacute.sc" horiz-adv-x="547" 
d="M75 590h422v-104h-301v-133h275v-102h-275v-147h301v-104h-422v590zM311 808h137l-104 -146h-100z" />
    <glyph glyph-name="Ecircumflex.sc" horiz-adv-x="547" 
d="M75 590h422v-104h-301v-133h275v-102h-275v-147h301v-104h-422v590zM488 662h-120l-68 83h-6l-66 -83h-104l118 146h129z" />
    <glyph glyph-name="Edieresis.sc" horiz-adv-x="547" 
d="M75 590h422v-104h-301v-133h275v-102h-275v-147h301v-104h-422v590zM202 673h-4q-28 0 -47 19.5t-19 46.5q0 28 19 46.5t47 18.5h4q28 0 47.5 -18.5t19.5 -46.5q0 -27 -19.5 -46.5t-47.5 -19.5zM397 673h-4q-28 0 -47 19.5t-19 46.5q0 28 19 46.5t47 18.5h4
q28 0 47.5 -18.5t19.5 -46.5q0 -27 -19.5 -46.5t-47.5 -19.5z" />
    <glyph glyph-name="Emacron.sc" horiz-adv-x="547" 
d="M75 590h422v-104h-301v-133h275v-102h-275v-147h301v-104h-422v590zM157 782h276v-84h-276v84z" />
    <glyph glyph-name="Ebreve.sc" horiz-adv-x="547" 
d="M75 590h422v-104h-301v-133h275v-102h-275v-147h301v-104h-422v590zM287 662q-76 0 -118.5 43t-42.5 103h101q0 -32 17.5 -48.5t48.5 -16.5q32 0 48.5 17t16.5 48h100q0 -59 -42.5 -102.5t-117.5 -43.5h-11z" />
    <glyph glyph-name="Edotaccent.sc" horiz-adv-x="547" 
d="M75 590h422v-104h-301v-133h275v-102h-275v-147h301v-104h-422v590zM296 673h-4q-28 0 -47 19.5t-19 46.5q0 28 19 46.5t47 18.5h4q28 0 47.5 -18.5t19.5 -46.5q0 -27 -19.5 -46.5t-47.5 -19.5z" />
    <glyph glyph-name="Eogonek.sc" horiz-adv-x="547" 
d="M75 590h422v-104h-301v-133h275v-102h-275v-147h301v-104h-422v590zM497 31v-31q-35 -23 -54 -41.5t-19 -38.5q0 -15 12 -25t40 -10h70v-85h-101q-56 0 -83.5 28t-27.5 64q0 40 41 74t122 65z" />
    <glyph glyph-name="Ecaron.sc" horiz-adv-x="547" 
d="M75 590h422v-104h-301v-133h275v-102h-275v-147h301v-104h-422v590zM107 808h120l68 -83h6l66 83h104l-118 -146h-129z" />
    <glyph glyph-name="Edotbelow.sc" horiz-adv-x="547" 
d="M75 590h422v-104h-301v-133h275v-102h-275v-147h301v-104h-422v590zM300 -230h-4q-28 0 -47 19.5t-19 46.5q0 28 19 46.5t47 18.5h4q28 0 47.5 -18.5t19.5 -46.5q0 -27 -19.5 -46.5t-47.5 -19.5z" />
    <glyph glyph-name="Etilde.sc" horiz-adv-x="547" 
d="M75 590h422v-104h-301v-133h275v-102h-275v-147h301v-104h-422v590zM362 663q-30 0 -49 11t-33.5 24t-28 24t-32.5 11q-22 0 -33 -14.5t-11 -44.5h-64v6q0 60 30 94t83 34h1q30 0 49.5 -11t34.5 -24.5t29 -24.5t34 -11q21 0 32 14t11 43h64v-5q0 -60 -31 -93t-85 -33h-1z
" />
    <glyph glyph-name="F.sc" horiz-adv-x="527" 
d="M75 590h418v-104h-297v-145h273v-104h-273v-237h-121v590z" />
    <glyph glyph-name="G.sc" horiz-adv-x="633" 
d="M482 0v99q-13 -46 -57 -78.5t-117 -32.5q-64 0 -114 24t-84 65.5t-51.5 98t-17.5 119.5q0 64 19 120.5t55 98t88.5 65.5t118.5 24q105 0 172 -52.5t83 -137.5h-131q-7 33 -35.5 59t-85.5 26q-66 0 -113 -47.5t-47 -134.5v-44q0 -87 46.5 -134.5t112.5 -47.5q34 0 60 11.5
t44 30t27 42.5t9 48h-146v96h263v-318h-99z" />
    <glyph glyph-name="Gcircumflex.sc" horiz-adv-x="633" 
d="M482 0v99q-13 -46 -57 -78.5t-117 -32.5q-64 0 -114 24t-84 65.5t-51.5 98t-17.5 119.5q0 64 19 120.5t55 98t88.5 65.5t118.5 24q105 0 172 -52.5t83 -137.5h-131q-7 33 -35.5 59t-85.5 26q-66 0 -113 -47.5t-47 -134.5v-44q0 -87 46.5 -134.5t112.5 -47.5q34 0 60 11.5
t44 30t27 42.5t9 48h-146v96h263v-318h-99zM518 662h-120l-68 83h-6l-66 -83h-104l118 146h129z" />
    <glyph glyph-name="Gbreve.sc" horiz-adv-x="633" 
d="M482 0v99q-13 -46 -57 -78.5t-117 -32.5q-64 0 -114 24t-84 65.5t-51.5 98t-17.5 119.5q0 64 19 120.5t55 98t88.5 65.5t118.5 24q105 0 172 -52.5t83 -137.5h-131q-7 33 -35.5 59t-85.5 26q-66 0 -113 -47.5t-47 -134.5v-44q0 -87 46.5 -134.5t112.5 -47.5q34 0 60 11.5
t44 30t27 42.5t9 48h-146v96h263v-318h-99zM317 662q-76 0 -118.5 43t-42.5 103h101q0 -32 17.5 -48.5t48.5 -16.5q32 0 48.5 17t16.5 48h100q0 -59 -42.5 -102.5t-117.5 -43.5h-11z" />
    <glyph glyph-name="Gdotaccent.sc" horiz-adv-x="633" 
d="M482 0v99q-13 -46 -57 -78.5t-117 -32.5q-64 0 -114 24t-84 65.5t-51.5 98t-17.5 119.5q0 64 19 120.5t55 98t88.5 65.5t118.5 24q105 0 172 -52.5t83 -137.5h-131q-7 33 -35.5 59t-85.5 26q-66 0 -113 -47.5t-47 -134.5v-44q0 -87 46.5 -134.5t112.5 -47.5q34 0 60 11.5
t44 30t27 42.5t9 48h-146v96h263v-318h-99zM327 673h-4q-28 0 -47 19.5t-19 46.5q0 28 19 46.5t47 18.5h4q28 0 47.5 -18.5t19.5 -46.5q0 -27 -19.5 -46.5t-47.5 -19.5z" />
    <glyph glyph-name="uni0122.sc" horiz-adv-x="633" 
d="M482 0v99q-13 -46 -57 -78.5t-117 -32.5q-64 0 -114 24t-84 65.5t-51.5 98t-17.5 119.5q0 64 19 120.5t55 98t88.5 65.5t118.5 24q105 0 172 -52.5t83 -137.5h-131q-7 33 -35.5 59t-85.5 26q-66 0 -113 -47.5t-47 -134.5v-44q0 -87 46.5 -134.5t112.5 -47.5q34 0 60 11.5
t44 30t27 42.5t9 48h-146v96h263v-318h-99zM220 -78h137l-104 -146h-100z" />
    <glyph glyph-name="Gcaron.sc" horiz-adv-x="633" 
d="M482 0v99q-13 -46 -57 -78.5t-117 -32.5q-64 0 -114 24t-84 65.5t-51.5 98t-17.5 119.5q0 64 19 120.5t55 98t88.5 65.5t118.5 24q105 0 172 -52.5t83 -137.5h-131q-7 33 -35.5 59t-85.5 26q-66 0 -113 -47.5t-47 -134.5v-44q0 -87 46.5 -134.5t112.5 -47.5q34 0 60 11.5
t44 30t27 42.5t9 48h-146v96h263v-318h-99zM137 808h120l68 -83h6l66 83h104l-118 -146h-129z" />
    <glyph glyph-name="H.sc" horiz-adv-x="654" 
d="M75 590h121v-236h263v236h120v-590h-120v251h-263v-251h-121v590z" />
    <glyph glyph-name="Hcircumflex.sc" horiz-adv-x="654" 
d="M75 590h121v-236h263v236h120v-590h-120v251h-263v-251h-121v590zM520 662h-120l-68 83h-6l-66 -83h-104l118 146h129z" />
    <glyph glyph-name="I.sc" horiz-adv-x="270" 
d="M75 590h121v-590h-121v590z" />
    <glyph glyph-name="Igrave.sc" horiz-adv-x="270" 
d="M75 590h121v-590h-121v590zM119 808l67 -146h-100l-104 146h137z" />
    <glyph glyph-name="Iacute.sc" horiz-adv-x="270" 
d="M75 590h121v-590h-121v590zM153 808h137l-104 -146h-100z" />
    <glyph glyph-name="Icircumflex.sc" horiz-adv-x="270" 
d="M75 590h121v-590h-121v590zM330 662h-120l-68 83h-6l-66 -83h-104l118 146h129z" />
    <glyph glyph-name="Idieresis.sc" horiz-adv-x="270" 
d="M75 590h121v-590h-121v590zM44 673h-4q-28 0 -47 19.5t-19 46.5q0 28 19 46.5t47 18.5h4q28 0 47.5 -18.5t19.5 -46.5q0 -27 -19.5 -46.5t-47.5 -19.5zM239 673h-4q-28 0 -47 19.5t-19 46.5q0 28 19 46.5t47 18.5h4q28 0 47.5 -18.5t19.5 -46.5q0 -27 -19.5 -46.5
t-47.5 -19.5z" />
    <glyph glyph-name="Itilde.sc" horiz-adv-x="270" 
d="M75 590h121v-590h-121v590zM204 663q-30 0 -49 11t-33.5 24t-28 24t-32.5 11q-22 0 -33 -14.5t-11 -44.5h-64v6q0 60 30 94t83 34h1q30 0 49.5 -11t34.5 -24.5t29 -24.5t34 -11q21 0 32 14t11 43h64v-5q0 -60 -31 -93t-85 -33h-1z" />
    <glyph glyph-name="Imacron.sc" horiz-adv-x="270" 
d="M75 590h121v-590h-121v590zM-2 782h276v-84h-276v84z" />
    <glyph glyph-name="Ibreve.sc" horiz-adv-x="270" 
d="M75 590h121v-590h-121v590zM129 662q-76 0 -118.5 43t-42.5 103h101q0 -32 17.5 -48.5t48.5 -16.5q32 0 48.5 17t16.5 48h100q0 -59 -42.5 -102.5t-117.5 -43.5h-11z" />
    <glyph glyph-name="Iogonek.sc" horiz-adv-x="270" 
d="M75 590h121v-590h-121v590zM194 31v-31q-35 -23 -54 -41.5t-19 -38.5q0 -15 12 -25t40 -10h70v-85h-101q-56 0 -83.5 28t-27.5 64q0 40 41 74t122 65z" />
    <glyph glyph-name="Idotaccent.sc" horiz-adv-x="270" 
d="M75 590h121v-590h-121v590zM138 673h-4q-28 0 -47 19.5t-19 46.5q0 28 19 46.5t47 18.5h4q28 0 47.5 -18.5t19.5 -46.5q0 -27 -19.5 -46.5t-47.5 -19.5z" />
    <glyph glyph-name="Icaron.sc" horiz-adv-x="270" 
d="M75 590h121v-590h-121v590zM-51 808h120l68 -83h6l66 83h104l-118 -146h-129z" />
    <glyph glyph-name="Idotbelow.sc" horiz-adv-x="270" 
d="M75 590h121v-590h-121v590zM141 -230h-4q-28 0 -47 19.5t-19 46.5q0 28 19 46.5t47 18.5h4q28 0 47.5 -18.5t19.5 -46.5q0 -27 -19.5 -46.5t-47.5 -19.5z" />
    <glyph glyph-name="J.sc" horiz-adv-x="545" 
d="M260 -13q-51 0 -91.5 16t-68.5 43.5t-43 65.5t-15 82v56h121v-52q0 -51 26 -78.5t71 -27.5q46 0 72 27.5t26 78.5v392h120v-396q0 -44 -14.5 -82t-42.5 -65.5t-69 -43.5t-92 -16z" />
    <glyph glyph-name="Jcircumflex.sc" horiz-adv-x="545" 
d="M260 -13q-51 0 -91.5 16t-68.5 43.5t-43 65.5t-15 82v56h121v-52q0 -51 26 -78.5t71 -27.5q46 0 72 27.5t26 78.5v392h120v-396q0 -44 -14.5 -82t-42.5 -65.5t-69 -43.5t-92 -16zM612 663h-120l-68 83h-6l-66 -83h-104l118 146h129z" />
    <glyph glyph-name="K.sc" horiz-adv-x="593" 
d="M195 590v-590h-120v590h120zM441 0l-245 306l229 284h146l-231 -281l251 -309h-150z" />
    <glyph glyph-name="uni0136.sc" horiz-adv-x="593" 
d="M195 590v-590h-120v590h120zM441 0l-245 306l229 284h146l-231 -281l251 -309h-150zM213 -78h137l-104 -146h-100z" />
    <glyph glyph-name="L.sc" horiz-adv-x="497" 
d="M75 590h121v-486h284v-104h-405v590z" />
    <glyph glyph-name="Lacute.sc" horiz-adv-x="497" 
d="M75 590h121v-486h284v-104h-405v590zM151 808h137l-104 -146h-100z" />
    <glyph glyph-name="uni013B.sc" horiz-adv-x="497" 
d="M75 590h121v-486h284v-104h-405v590zM187 -78h137l-104 -146h-100z" />
    <glyph glyph-name="Lcaron.sc" horiz-adv-x="513" 
d="M75 590h121v-486h284v-104h-405v590z" />
    <glyph glyph-name="M.sc" horiz-adv-x="787" 
d="M75 0v590h177l142 -399h1l141 399h176v-590h-116v462h-1l-163 -463h-83l-162 459h-1v-458h-111z" />
    <glyph glyph-name="N.sc" horiz-adv-x="658" 
d="M75 0v590h139l253 -411h1v411h114v-590h-130l-259 427h-1v-427h-117z" />
    <glyph glyph-name="Ntilde.sc" horiz-adv-x="658" 
d="M75 0v590h139l253 -411h1v411h114v-590h-130l-259 427h-1v-427h-117zM409 663q-30 0 -49 11t-33.5 24t-28 24t-32.5 11q-22 0 -33 -14.5t-11 -44.5h-64v6q0 60 30 94t83 34h1q30 0 49.5 -11t34.5 -24.5t29 -24.5t34 -11q21 0 32 14t11 43h64v-5q0 -60 -31 -93t-85 -33h-1
z" />
    <glyph glyph-name="Nacute.sc" horiz-adv-x="658" 
d="M75 0v590h139l253 -411h1v411h114v-590h-130l-259 427h-1v-427h-117zM358 808h137l-104 -146h-100z" />
    <glyph glyph-name="uni0145.sc" horiz-adv-x="658" 
d="M75 0v590h139l253 -411h1v411h114v-590h-130l-259 427h-1v-427h-117zM220 -78h137l-104 -146h-100z" />
    <glyph glyph-name="Ncaron.sc" horiz-adv-x="658" 
d="M75 0v590h139l253 -411h1v411h114v-590h-130l-259 427h-1v-427h-117zM154 808h120l68 -83h6l66 83h104l-118 -146h-129z" />
    <glyph glyph-name="O.sc" horiz-adv-x="645" 
d="M323 -12q-68 0 -120.5 24t-88.5 65.5t-54.5 97.5t-18.5 120q0 63 18.5 119.5t54.5 98t88.5 66t120.5 24.5q67 0 119.5 -24.5t88.5 -66t54.5 -98t18.5 -119.5q0 -64 -18.5 -120t-54 -97.5t-88 -65.5t-120.5 -24zM323 93q65 0 111.5 47.5t46.5 134.5v41q0 87 -46.5 134.5
t-111.5 47.5t-111.5 -47.5t-46.5 -134.5v-41q0 -87 46.5 -134.5t111.5 -47.5z" />
    <glyph glyph-name="Ograve.sc" horiz-adv-x="645" 
d="M323 -12q-68 0 -120.5 24t-88.5 65.5t-54.5 97.5t-18.5 120q0 63 18.5 119.5t54.5 98t88.5 66t120.5 24.5q67 0 119.5 -24.5t88.5 -66t54.5 -98t18.5 -119.5q0 -64 -18.5 -120t-54 -97.5t-88 -65.5t-120.5 -24zM323 93q65 0 111.5 47.5t46.5 134.5v41q0 87 -46.5 134.5
t-111.5 47.5t-111.5 -47.5t-46.5 -134.5v-41q0 -87 46.5 -134.5t111.5 -47.5zM306 808l67 -146h-100l-104 146h137z" />
    <glyph glyph-name="Oacute.sc" horiz-adv-x="645" 
d="M323 -12q-68 0 -120.5 24t-88.5 65.5t-54.5 97.5t-18.5 120q0 63 18.5 119.5t54.5 98t88.5 66t120.5 24.5q67 0 119.5 -24.5t88.5 -66t54.5 -98t18.5 -119.5q0 -64 -18.5 -120t-54 -97.5t-88 -65.5t-120.5 -24zM323 93q65 0 111.5 47.5t46.5 134.5v41q0 87 -46.5 134.5
t-111.5 47.5t-111.5 -47.5t-46.5 -134.5v-41q0 -87 46.5 -134.5t111.5 -47.5zM340 808h137l-104 -146h-100z" />
    <glyph glyph-name="Ocircumflex.sc" horiz-adv-x="645" 
d="M323 -12q-68 0 -120.5 24t-88.5 65.5t-54.5 97.5t-18.5 120q0 63 18.5 119.5t54.5 98t88.5 66t120.5 24.5q67 0 119.5 -24.5t88.5 -66t54.5 -98t18.5 -119.5q0 -64 -18.5 -120t-54 -97.5t-88 -65.5t-120.5 -24zM323 93q65 0 111.5 47.5t46.5 134.5v41q0 87 -46.5 134.5
t-111.5 47.5t-111.5 -47.5t-46.5 -134.5v-41q0 -87 46.5 -134.5t111.5 -47.5zM516 662h-120l-68 83h-6l-66 -83h-104l118 146h129z" />
    <glyph glyph-name="Otilde.sc" horiz-adv-x="645" 
d="M323 -12q-68 0 -120.5 24t-88.5 65.5t-54.5 97.5t-18.5 120q0 63 18.5 119.5t54.5 98t88.5 66t120.5 24.5q67 0 119.5 -24.5t88.5 -66t54.5 -98t18.5 -119.5q0 -64 -18.5 -120t-54 -97.5t-88 -65.5t-120.5 -24zM323 93q65 0 111.5 47.5t46.5 134.5v41q0 87 -46.5 134.5
t-111.5 47.5t-111.5 -47.5t-46.5 -134.5v-41q0 -87 46.5 -134.5t111.5 -47.5zM391 663q-30 0 -49 11t-33.5 24t-28 24t-32.5 11q-22 0 -33 -14.5t-11 -44.5h-64v6q0 60 30 94t83 34h1q30 0 49.5 -11t34.5 -24.5t29 -24.5t34 -11q21 0 32 14t11 43h64v-5q0 -60 -31 -93
t-85 -33h-1z" />
    <glyph glyph-name="Odieresis.sc" horiz-adv-x="645" 
d="M323 -12q-68 0 -120.5 24t-88.5 65.5t-54.5 97.5t-18.5 120q0 63 18.5 119.5t54.5 98t88.5 66t120.5 24.5q67 0 119.5 -24.5t88.5 -66t54.5 -98t18.5 -119.5q0 -64 -18.5 -120t-54 -97.5t-88 -65.5t-120.5 -24zM323 93q65 0 111.5 47.5t46.5 134.5v41q0 87 -46.5 134.5
t-111.5 47.5t-111.5 -47.5t-46.5 -134.5v-41q0 -87 46.5 -134.5t111.5 -47.5zM231 673h-4q-28 0 -47 19.5t-19 46.5q0 28 19 46.5t47 18.5h4q28 0 47.5 -18.5t19.5 -46.5q0 -27 -19.5 -46.5t-47.5 -19.5zM426 673h-4q-28 0 -47 19.5t-19 46.5q0 28 19 46.5t47 18.5h4
q28 0 47.5 -18.5t19.5 -46.5q0 -27 -19.5 -46.5t-47.5 -19.5z" />
    <glyph glyph-name="Omacron.sc" horiz-adv-x="645" 
d="M323 -12q-68 0 -120.5 24t-88.5 65.5t-54.5 97.5t-18.5 120q0 63 18.5 119.5t54.5 98t88.5 66t120.5 24.5q67 0 119.5 -24.5t88.5 -66t54.5 -98t18.5 -119.5q0 -64 -18.5 -120t-54 -97.5t-88 -65.5t-120.5 -24zM323 93q65 0 111.5 47.5t46.5 134.5v41q0 87 -46.5 134.5
t-111.5 47.5t-111.5 -47.5t-46.5 -134.5v-41q0 -87 46.5 -134.5t111.5 -47.5zM185 782h276v-84h-276v84z" />
    <glyph glyph-name="Obreve.sc" horiz-adv-x="645" 
d="M323 -12q-68 0 -120.5 24t-88.5 65.5t-54.5 97.5t-18.5 120q0 63 18.5 119.5t54.5 98t88.5 66t120.5 24.5q67 0 119.5 -24.5t88.5 -66t54.5 -98t18.5 -119.5q0 -64 -18.5 -120t-54 -97.5t-88 -65.5t-120.5 -24zM323 93q65 0 111.5 47.5t46.5 134.5v41q0 87 -46.5 134.5
t-111.5 47.5t-111.5 -47.5t-46.5 -134.5v-41q0 -87 46.5 -134.5t111.5 -47.5zM316 662q-76 0 -118.5 43t-42.5 103h101q0 -32 17.5 -48.5t48.5 -16.5q32 0 48.5 17t16.5 48h100q0 -59 -42.5 -102.5t-117.5 -43.5h-11z" />
    <glyph glyph-name="Ohungarumlaut.sc" horiz-adv-x="645" 
d="M323 -12q-68 0 -120.5 24t-88.5 65.5t-54.5 97.5t-18.5 120q0 63 18.5 119.5t54.5 98t88.5 66t120.5 24.5q67 0 119.5 -24.5t88.5 -66t54.5 -98t18.5 -119.5q0 -64 -18.5 -120t-54 -97.5t-88 -65.5t-120.5 -24zM323 93q65 0 111.5 47.5t46.5 134.5v41q0 87 -46.5 134.5
t-111.5 47.5t-111.5 -47.5t-46.5 -134.5v-41q0 -87 46.5 -134.5t111.5 -47.5zM233 808h126l-105 -146h-88zM431 808h125l-104 -146h-88z" />
    <glyph glyph-name="Ocaron.sc" horiz-adv-x="645" 
d="M323 -12q-68 0 -120.5 24t-88.5 65.5t-54.5 97.5t-18.5 120q0 63 18.5 119.5t54.5 98t88.5 66t120.5 24.5q67 0 119.5 -24.5t88.5 -66t54.5 -98t18.5 -119.5q0 -64 -18.5 -120t-54 -97.5t-88 -65.5t-120.5 -24zM323 93q65 0 111.5 47.5t46.5 134.5v41q0 87 -46.5 134.5
t-111.5 47.5t-111.5 -47.5t-46.5 -134.5v-41q0 -87 46.5 -134.5t111.5 -47.5zM136 808h120l68 -83h6l66 83h104l-118 -146h-129z" />
    <glyph glyph-name="Oogonek.sc" horiz-adv-x="645" 
d="M323 -12q-68 0 -120.5 24t-88.5 65.5t-54.5 97.5t-18.5 120q0 63 18.5 119.5t54.5 98t88.5 66t120.5 24.5q67 0 119.5 -24.5t88.5 -66t54.5 -98t18.5 -119.5q0 -64 -18.5 -120t-54 -97.5t-88 -65.5t-120.5 -24zM323 93q65 0 111.5 47.5t46.5 134.5v41q0 87 -46.5 134.5
t-111.5 47.5t-111.5 -47.5t-46.5 -134.5v-41q0 -87 46.5 -134.5t111.5 -47.5zM368 31v-31q-35 -23 -54 -41.5t-19 -38.5q0 -15 12 -25t40 -10h70v-85h-101q-56 0 -83.5 28t-27.5 64q0 40 41 74t122 65z" />
    <glyph glyph-name="Odotbelow.sc" horiz-adv-x="645" 
d="M323 -12q-68 0 -120.5 24t-88.5 65.5t-54.5 97.5t-18.5 120q0 63 18.5 119.5t54.5 98t88.5 66t120.5 24.5q67 0 119.5 -24.5t88.5 -66t54.5 -98t18.5 -119.5q0 -64 -18.5 -120t-54 -97.5t-88 -65.5t-120.5 -24zM323 93q65 0 111.5 47.5t46.5 134.5v41q0 87 -46.5 134.5
t-111.5 47.5t-111.5 -47.5t-46.5 -134.5v-41q0 -87 46.5 -134.5t111.5 -47.5zM328 -230h-4q-28 0 -47 19.5t-19 46.5q0 28 19 46.5t47 18.5h4q28 0 47.5 -18.5t19.5 -46.5q0 -27 -19.5 -46.5t-47.5 -19.5z" />
    <glyph glyph-name="P.sc" horiz-adv-x="580" 
d="M75 0v590h271q101 0 154 -53t53 -132t-53 -132t-154 -53h-150v-220h-121zM432 401v9q0 37 -23 57t-67 20h-146v-164h146q44 0 67 20.5t23 57.5z" />
    <glyph glyph-name="Q.sc" horiz-adv-x="645" 
d="M323 -12q-68 0 -120.5 24t-88.5 65.5t-54.5 97.5t-18.5 120q0 63 18.5 119.5t54.5 98t88.5 66t120.5 24.5q67 0 119.5 -24.5t88.5 -66t54.5 -98t18.5 -119.5q0 -86 -33.5 -157t-96.5 -110l155 -182h-142l-123 144q-10 -1 -20.5 -1.5t-20.5 -0.5zM323 93q65 0 111.5 47.5
t46.5 134.5v41q0 87 -46.5 134.5t-111.5 47.5t-111.5 -47.5t-46.5 -134.5v-41q0 -87 46.5 -134.5t111.5 -47.5z" />
    <glyph glyph-name="R.sc" horiz-adv-x="598" 
d="M75 0v590h271q101 0 154.5 -52.5t53.5 -130.5q0 -79 -51.5 -127.5t-149.5 -48.5h-1l241 -231h-169l-228 227v-227h-121zM433 400v9q0 39 -23 59.5t-68 20.5h-146v-168h146q45 0 68 21t23 58z" />
    <glyph glyph-name="Racute.sc" horiz-adv-x="598" 
d="M75 0v590h271q101 0 154.5 -52.5t53.5 -130.5q0 -79 -51.5 -127.5t-149.5 -48.5h-1l241 -231h-169l-228 227v-227h-121zM433 400v9q0 39 -23 59.5t-68 20.5h-146v-168h146q45 0 68 21t23 58zM298 808h137l-104 -146h-100z" />
    <glyph glyph-name="uni0156.sc" horiz-adv-x="598" 
d="M75 0v590h271q101 0 154.5 -52.5t53.5 -130.5q0 -79 -51.5 -127.5t-149.5 -48.5h-1l241 -231h-169l-228 227v-227h-121zM433 400v9q0 39 -23 59.5t-68 20.5h-146v-168h146q45 0 68 21t23 58zM208 -78h137l-104 -146h-100z" />
    <glyph glyph-name="Rcaron.sc" horiz-adv-x="598" 
d="M75 0v590h271q101 0 154.5 -52.5t53.5 -130.5q0 -79 -51.5 -127.5t-149.5 -48.5h-1l241 -231h-169l-228 227v-227h-121zM433 400v9q0 39 -23 59.5t-68 20.5h-146v-168h146q45 0 68 21t23 58zM94 808h120l68 -83h6l66 83h104l-118 -146h-129z" />
    <glyph glyph-name="S.sc" horiz-adv-x="558" 
d="M279 -13q-111 0 -178.5 53t-68.5 137h122q1 -46 34.5 -70t91.5 -24t88.5 23t30.5 59t-24 50t-73 21l-76 11q-79 12 -129.5 52.5t-50.5 122.5q0 38 15.5 71t45 57.5t73 38.5t98.5 14q57 0 100.5 -14t73 -38.5t45 -57t16.5 -68.5h-122q-1 37 -28 60t-86 23q-57 0 -83.5 -23
t-26.5 -53q0 -36 25 -51t69 -22l74 -11q78 -11 132 -49t54 -125q0 -84 -67.5 -135.5t-174.5 -51.5z" />
    <glyph glyph-name="Sacute.sc" horiz-adv-x="558" 
d="M279 -13q-111 0 -178.5 53t-68.5 137h122q1 -46 34.5 -70t91.5 -24t88.5 23t30.5 59t-24 50t-73 21l-76 11q-79 12 -129.5 52.5t-50.5 122.5q0 38 15.5 71t45 57.5t73 38.5t98.5 14q57 0 100.5 -14t73 -38.5t45 -57t16.5 -68.5h-122q-1 37 -28 60t-86 23q-57 0 -83.5 -23
t-26.5 -53q0 -36 25 -51t69 -22l74 -11q78 -11 132 -49t54 -125q0 -84 -67.5 -135.5t-174.5 -51.5zM295 808h137l-104 -146h-100z" />
    <glyph glyph-name="Scircumflex.sc" horiz-adv-x="558" 
d="M279 -13q-111 0 -178.5 53t-68.5 137h122q1 -46 34.5 -70t91.5 -24t88.5 23t30.5 59t-24 50t-73 21l-76 11q-79 12 -129.5 52.5t-50.5 122.5q0 38 15.5 71t45 57.5t73 38.5t98.5 14q57 0 100.5 -14t73 -38.5t45 -57t16.5 -68.5h-122q-1 37 -28 60t-86 23q-57 0 -83.5 -23
t-26.5 -53q0 -36 25 -51t69 -22l74 -11q78 -11 132 -49t54 -125q0 -84 -67.5 -135.5t-174.5 -51.5zM471 662h-120l-68 83h-6l-66 -83h-104l118 146h129z" />
    <glyph glyph-name="Scedilla.sc" horiz-adv-x="558" 
d="M279 -13q-111 0 -178.5 53t-68.5 137h122q1 -46 34.5 -70t91.5 -24t88.5 23t30.5 59t-24 50t-73 21l-76 11q-79 12 -129.5 52.5t-50.5 122.5q0 38 15.5 71t45 57.5t73 38.5t98.5 14q57 0 100.5 -14t73 -38.5t45 -57t16.5 -68.5h-122q-1 37 -28 60t-86 23q-57 0 -83.5 -23
t-26.5 -53q0 -36 25 -51t69 -22l74 -11q78 -11 132 -49t54 -125q0 -84 -67.5 -135.5t-174.5 -51.5zM175 -224v55h87q21 0 39.5 6.5t18.5 25.5t-17 26.5t-48 7.5h-37v44l26 66h71l-24 -59q54 0 89.5 -21t35.5 -59q0 -48 -34 -70t-84 -22h-123z" />
    <glyph glyph-name="Scaron.sc" horiz-adv-x="558" 
d="M279 -13q-111 0 -178.5 53t-68.5 137h122q1 -46 34.5 -70t91.5 -24t88.5 23t30.5 59t-24 50t-73 21l-76 11q-79 12 -129.5 52.5t-50.5 122.5q0 38 15.5 71t45 57.5t73 38.5t98.5 14q57 0 100.5 -14t73 -38.5t45 -57t16.5 -68.5h-122q-1 37 -28 60t-86 23q-57 0 -83.5 -23
t-26.5 -53q0 -36 25 -51t69 -22l74 -11q78 -11 132 -49t54 -125q0 -84 -67.5 -135.5t-174.5 -51.5zM91 808h120l68 -83h6l66 83h104l-118 -146h-129z" />
    <glyph glyph-name="uni0218.sc" horiz-adv-x="558" 
d="M279 -13q-111 0 -178.5 53t-68.5 137h122q1 -46 34.5 -70t91.5 -24t88.5 23t30.5 59t-24 50t-73 21l-76 11q-79 12 -129.5 52.5t-50.5 122.5q0 38 15.5 71t45 57.5t73 38.5t98.5 14q57 0 100.5 -14t73 -38.5t45 -57t16.5 -68.5h-122q-1 37 -28 60t-86 23q-57 0 -83.5 -23
t-26.5 -53q0 -36 25 -51t69 -22l74 -11q78 -11 132 -49t54 -125q0 -84 -67.5 -135.5t-174.5 -51.5zM185 -78h137l-104 -146h-100z" />
    <glyph glyph-name="T.sc" horiz-adv-x="528" 
d="M203 486h-186v104h493v-104h-187v-486h-120v486z" />
    <glyph glyph-name="Tcedilla.sc" horiz-adv-x="528" 
d="M203 486h-186v104h493v-104h-187v-486h-120v486zM160 -224v55h87q21 0 39.5 6.5t18.5 25.5t-17 26.5t-48 7.5h-37v44l26 66h71l-24 -59q54 0 89.5 -21t35.5 -59q0 -48 -34 -70t-84 -22h-123z" />
    <glyph glyph-name="Tcaron.sc" horiz-adv-x="528" 
d="M203 486h-186v104h493v-104h-187v-486h-120v486zM76 808h120l68 -83h6l66 83h104l-118 -146h-129z" />
    <glyph glyph-name="uni021A.sc" horiz-adv-x="528" 
d="M203 486h-186v104h493v-104h-187v-486h-120v486zM170 -78h137l-104 -146h-100z" />
    <glyph glyph-name="U.sc" horiz-adv-x="618" 
d="M309 -13q-57 0 -102 17t-76 47t-47.5 71t-16.5 89v379h120v-375q0 -58 32.5 -90.5t89.5 -32.5q56 0 88.5 32.5t32.5 90.5v375h120v-379q0 -48 -16.5 -89t-47 -71t-75.5 -47t-102 -17z" />
    <glyph glyph-name="Ugrave.sc" horiz-adv-x="618" 
d="M309 -13q-57 0 -102 17t-76 47t-47.5 71t-16.5 89v379h120v-375q0 -58 32.5 -90.5t89.5 -32.5q56 0 88.5 32.5t32.5 90.5v375h120v-379q0 -48 -16.5 -89t-47 -71t-75.5 -47t-102 -17zM292 809l67 -146h-100l-104 146h137z" />
    <glyph glyph-name="Uacute.sc" horiz-adv-x="618" 
d="M309 -13q-57 0 -102 17t-76 47t-47.5 71t-16.5 89v379h120v-375q0 -58 32.5 -90.5t89.5 -32.5q56 0 88.5 32.5t32.5 90.5v375h120v-379q0 -48 -16.5 -89t-47 -71t-75.5 -47t-102 -17zM326 809h137l-104 -146h-100z" />
    <glyph glyph-name="Ucircumflex.sc" horiz-adv-x="618" 
d="M309 -13q-57 0 -102 17t-76 47t-47.5 71t-16.5 89v379h120v-375q0 -58 32.5 -90.5t89.5 -32.5q56 0 88.5 32.5t32.5 90.5v375h120v-379q0 -48 -16.5 -89t-47 -71t-75.5 -47t-102 -17zM503 663h-120l-68 83h-6l-66 -83h-104l118 146h129z" />
    <glyph glyph-name="Udieresis.sc" horiz-adv-x="618" 
d="M309 -13q-57 0 -102 17t-76 47t-47.5 71t-16.5 89v379h120v-375q0 -58 32.5 -90.5t89.5 -32.5q56 0 88.5 32.5t32.5 90.5v375h120v-379q0 -48 -16.5 -89t-47 -71t-75.5 -47t-102 -17zM217 674h-4q-28 0 -47 19.5t-19 46.5q0 28 19 46.5t47 18.5h4q28 0 47.5 -18.5
t19.5 -46.5q0 -27 -19.5 -46.5t-47.5 -19.5zM412 674h-4q-28 0 -47 19.5t-19 46.5q0 28 19 46.5t47 18.5h4q28 0 47.5 -18.5t19.5 -46.5q0 -27 -19.5 -46.5t-47.5 -19.5z" />
    </font>
</defs>
</svg>
