<?xml version="1.0" standalone="no"?>
<!DOCTYPE svg PUBLIC "-//W3C//DTD SVG 1.1//EN" "http://www.w3.org/Graphics/SVG/1.1/DTD/svg11.dtd" >
<svg xmlns="http://www.w3.org/2000/svg" xmlns:xlink="http://www.w3.org/1999/xlink" version="1.1">
<metadata>
Created by FontForge 20201107 at Thu Sep 23 02:22:02 2021
 By 
Copyright (C) 2020 by Bobby Tannam under private license to Coinbase. All rights reserved.
</metadata>
<defs>
<font id="CoinbaseSans-Light" horiz-adv-x="792" >
  <font-face 
    font-family="Coinbase Sans Light"
    font-weight="300"
    font-stretch="normal"
    units-per-em="1000"
    panose-1="2 11 3 3 3 2 2 6 2 4"
    ascent="800"
    descent="-200"
    x-height="514"
    cap-height="704"
    bbox="-155 -217 2173 1005"
    underline-thickness="54"
    underline-position="-139"
    unicode-range="U+0020-FB02"
  />
<missing-glyph horiz-adv-x="652" 
d="M87 704h478v-704h-478v704zM520 43v618h-388v-618h388z" />
    <glyph glyph-name="fi" unicode="fi" horiz-adv-x="641" 
d="M137 0v453h-119v61h119v107q0 58 28.5 86.5t89.5 28.5h126v-59h-116q-31 0 -43.5 -13.5t-12.5 -44.5v-105h350v-514h-72v453h-278v-453h-72zM525 616h-4q-23 0 -39 15.5t-16 38.5t16 38.5t39 15.5h4q23 0 38.5 -15.5t15.5 -38.5t-15.5 -38.5t-38.5 -15.5z" />
    <glyph glyph-name="fl" unicode="fl" horiz-adv-x="731" 
d="M137 0v453h-119v61h119v107q0 58 28.5 86.5t89.5 28.5h126v-59h-116q-31 0 -43.5 -13.5t-12.5 -44.5v-105h277v228h73v-621q0 -31 13.5 -45.5t45.5 -14.5h94v-61h-107q-62 0 -90.5 29t-28.5 87v337h-277v-453h-72z" />
    <glyph glyph-name="f_f" unicode="ff" horiz-adv-x="760" 
d="M137 0v453h-119v61h119v107q0 58 28.5 86.5t89.5 28.5h126v-59h-116q-31 0 -43.5 -13.5t-12.5 -44.5v-105h278v113q0 58 28.5 87t89.5 29h137v-60h-127q-31 0 -43.5 -13.5t-12.5 -44.5v-111h182v-61h-182v-453h-72v453h-278v-453h-72z" />
    <glyph glyph-name="f_f_i" unicode="ffi" horiz-adv-x="990" 
d="M137 0v453h-119v61h119v107q0 58 28.5 86.5t89.5 28.5h126v-59h-116q-31 0 -43.5 -13.5t-12.5 -44.5v-105h278v107q0 58 28.5 86.5t89.5 28.5h126v-59h-116q-31 0 -43.5 -13.5t-12.5 -44.5v-105h350v-514h-72v453h-278v-453h-72v453h-278v-453h-72zM875 616h-4
q-23 0 -39 15.5t-16 38.5t16 38.5t39 15.5h4q23 0 38.5 -15.5t15.5 -38.5t-15.5 -38.5t-38.5 -15.5z" />
    <glyph glyph-name="f_f_j" unicode="ffj" horiz-adv-x="990" 
d="M137 0v453h-119v61h119v107q0 58 28.5 86.5t89.5 28.5h126v-59h-116q-31 0 -43.5 -13.5t-12.5 -44.5v-105h278v107q0 58 28.5 86.5t89.5 28.5h126v-59h-116q-31 0 -43.5 -13.5t-12.5 -44.5v-105h350v-590q0 -58 -28 -87t-90 -29h-101v61h90q31 0 44 13.5t13 43.5v527
h-278v-453h-72v453h-278v-453h-72zM875 616h-4q-23 0 -38.5 15.5t-15.5 38.5t15.5 38.5t38.5 15.5h4q23 0 39 -15.5t16 -38.5t-16 -38.5t-39 -15.5z" />
    <glyph glyph-name="f_f_l" unicode="ffl" horiz-adv-x="1080" 
d="M137 0v453h-119v61h119v107q0 58 28.5 86.5t89.5 28.5h126v-59h-116q-31 0 -43.5 -13.5t-12.5 -44.5v-105h278v107q0 58 28.5 86.5t89.5 28.5h126v-59h-116q-31 0 -43.5 -13.5t-12.5 -44.5v-105h276v228h73v-621q0 -31 13.5 -45.5t45.5 -14.5h94v-61h-107q-62 0 -90.5 29
t-28.5 87v337h-276v-453h-72v453h-278v-453h-72z" />
    <glyph glyph-name="f_j" unicode="fj" horiz-adv-x="641" 
d="M137 0v453h-119v61h119v107q0 58 28.5 86.5t89.5 28.5h126v-59h-116q-31 0 -43.5 -13.5t-12.5 -44.5v-105h350v-590q0 -58 -28 -87t-90 -29h-101v61h90q31 0 44 13.5t13 43.5v527h-278v-453h-72zM525 616h-4q-23 0 -38.5 15.5t-15.5 38.5t15.5 38.5t38.5 15.5h4
q23 0 39 -15.5t16 -38.5t-16 -38.5t-39 -15.5z" />
    <glyph glyph-name="j_j" unicode="jj" horiz-adv-x="485" 
d="M369 616h-3q-24 0 -39.5 15.5t-15.5 38.5t15.5 38.5t39.5 15.5h3q24 0 39.5 -15.5t15.5 -38.5t-15.5 -38.5t-39.5 -15.5zM120 616h-4q-23 0 -38.5 15.5t-15.5 38.5t15.5 38.5t38.5 15.5h4q23 0 39 -15.5t16 -38.5t-16 -38.5t-39 -15.5zM331 -74v588h72v-590
q0 -58 -28 -87t-90 -29h-75v61h64q31 0 44 13.5t13 43.5zM82 -74v588h72v-590q0 -58 -28 -87t-90 -29h-101v61h90q31 0 44 13.5t13 43.5z" />
    <glyph glyph-name=".notdef" horiz-adv-x="652" 
d="M87 704h478v-704h-478v704zM520 43v618h-388v-618h388z" />
    <glyph glyph-name=".null" horiz-adv-x="0" 
 />
    <glyph glyph-name="nonmarkingreturn" horiz-adv-x="333" 
 />
    <glyph glyph-name="space" unicode=" " horiz-adv-x="232" 
 />
    <glyph glyph-name="exclam" unicode="!" horiz-adv-x="248" 
d="M160 704v-277l-17 -213h-40l-17 213v277h74zM124 -8q-25 0 -41.5 16.5t-16.5 41.5t16.5 41.5t41.5 16.5t41.5 -16.5t16.5 -41.5t-16.5 -41.5t-41.5 -16.5z" />
    <glyph glyph-name="quotedbl" unicode="&#x22;" horiz-adv-x="343" 
d="M129 704l-9 -238h-54l-9 238h72zM286 704l-9 -238h-54l-9 238h72z" />
    <glyph glyph-name="numbersign" unicode="#" horiz-adv-x="749" 
d="M127 0l54 202h-135v58h151l49 184h-152v58h168l54 202h67l-54 -202h177l54 202h68l-54 -202h129v-58h-145l-49 -184h146v-58h-162l-54 -202h-68l54 202h-177l-54 -202h-67zM264 260h177l49 184h-177z" />
    <glyph glyph-name="dollar" unicode="$" horiz-adv-x="590" 
d="M263 -129v131q-104 8 -161 63.5t-61 135.5h72q4 -67 52.5 -104.5t129.5 -37.5q78 0 125.5 38t47.5 100q0 53 -35.5 79.5t-100.5 39.5l-86 16q-83 16 -135 59t-52 122q0 72 54 126.5t150 63.5v131h61v-131q50 -4 88 -20.5t63.5 -41.5t39 -57t15.5 -66h-73q-4 55 -45 91.5
t-118 36.5t-120 -38t-43 -92q0 -57 37 -82t96 -36l85 -15q86 -16 138.5 -58t52.5 -125q0 -84 -59 -137.5t-157 -60.5v-131h-61z" />
    <glyph glyph-name="percent" unicode="%" horiz-adv-x="951" 
d="M229 318q-82 0 -128 55t-46 142t48 144t130 57t130 -57t48 -144t-50 -142t-132 -55zM186 0l254 351l252 353h75l-255 -353l-251 -351h-75zM229 374q54 0 86 39t32 102q0 62 -30 103.5t-84 41.5t-84 -41.5t-30 -103.5q0 -63 28 -102t82 -39zM718 -14q-82 0 -129.5 56.5
t-47.5 143.5t47.5 144.5t129.5 57.5t130 -57.5t48 -144.5t-48 -143.5t-130 -56.5zM718 42q54 0 84 41t30 103q0 63 -30 104t-84 41t-84 -41t-30 -104q0 -62 30 -103t84 -41z" />
    <glyph glyph-name="ampersand" unicode="&#x26;" horiz-adv-x="725" 
d="M587 91q15 -16 31.5 -23t38.5 -7h55v-61h-69q-34 0 -56.5 10t-40.5 29l-56 60q-40 -51 -96 -82.5t-128 -31.5q-46 0 -86 14t-69 39t-45.5 60.5t-16.5 78.5q0 61 38 111t130 100q-40 43 -65.5 85t-25.5 90q0 65 48 111t129 46q42 0 74.5 -12.5t54.5 -33.5t33.5 -49
t11.5 -59q0 -68 -40.5 -109.5t-114.5 -82.5l161 -172l124 188h80l-159 -236zM195 564q0 -34 21 -67.5t66 -80.5q63 34 95 66.5t32 78.5q0 43 -28.5 72t-77.5 29t-78.5 -27.5t-29.5 -70.5zM121 181q0 -62 43 -98.5t105 -36.5q52 0 96 26.5t80 74.5l-188 199q-64 -37 -100 -74
t-36 -91z" />
    <glyph glyph-name="quotesingle" unicode="'" horiz-adv-x="186" 
d="M129 704l-9 -238h-54l-9 238h72z" />
    <glyph glyph-name="parenleft" unicode="(" horiz-adv-x="292" 
d="M252 729q-22 -35 -45 -78.5t-41.5 -96t-30.5 -116t-12 -138.5q0 -74 12 -137.5t30.5 -116.5t41.5 -97t45 -79h-71q-22 35 -45 79t-41.5 97t-30.5 116.5t-12 137.5t12 137t30.5 116t41.5 97t45 79h71z" />
    <glyph glyph-name="parenright" unicode=")" horiz-adv-x="292" 
d="M40 -129q22 35 45 78.5t41.5 96t30.5 116t12 138.5q0 74 -12 137.5t-30.5 116.5t-41.5 97t-45 79h71q22 -35 45 -79t41.5 -97t30.5 -116.5t12 -137.5t-12 -137t-30.5 -116t-41.5 -97t-45 -79h-71z" />
    <glyph glyph-name="asterisk" unicode="*" horiz-adv-x="481" 
d="M264 345h-48l3 143l-121 -74l-25 43l125 68l-125 69l25 42l121 -74l-3 142h48l-3 -142l123 74l24 -42l-125 -69l125 -68l-24 -43l-123 75z" />
    <glyph glyph-name="plus" unicode="+" horiz-adv-x="606" 
d="M42 289v62h230v226h61v-226h230v-62h-230v-226h-61v226h-230z" />
    <glyph glyph-name="comma" unicode="," horiz-adv-x="247" 
d="M100 -144h-65l72 238h75z" />
    <glyph glyph-name="hyphen" unicode="-" horiz-adv-x="392" 
d="M64 312h263v-60h-263v60z" />
    <glyph glyph-name="period" unicode="." horiz-adv-x="248" 
d="M124 -8q-25 0 -41.5 16.5t-16.5 41.5t16.5 41.5t41.5 16.5t41.5 -16.5t16.5 -41.5t-16.5 -41.5t-41.5 -16.5z" />
    <glyph glyph-name="slash" unicode="/" horiz-adv-x="477" 
d="M453 804l-356 -904h-73l356 904h73z" />
    <glyph glyph-name="zero" unicode="0" horiz-adv-x="597" 
d="M298 719q110 0 174 -68.5t64 -185.5v-223q0 -120 -64 -188t-174 -68q-108 0 -173 68t-65 188v223q0 117 64 185.5t174 68.5zM298 51q77 0 120.5 51t43.5 140v223q0 86 -43 137.5t-121 51.5q-76 0 -120 -51.5t-44 -137.5v-223q0 -89 44 -140t120 -51z" />
    <glyph glyph-name="one" unicode="1" horiz-adv-x="370" 
d="M202 0v521h-173v62h173v121h74v-704h-74z" />
    <glyph glyph-name="two" unicode="2" horiz-adv-x="555" 
d="M48 0v71q0 66 34 113t103 96l132 94q55 39 74.5 73.5t19.5 70.5v13q0 52 -35.5 89.5t-104.5 37.5q-68 0 -108 -40t-41 -110h-73q0 49 17.5 88.5t47 66.5t70 41.5t87.5 14.5q97 0 156 -54.5t59 -136.5q0 -56 -28 -105.5t-101 -101.5l-136 -97q-51 -37 -75.5 -70.5
t-24.5 -80.5v-10h379v-63h-452z" />
    <glyph glyph-name="three" unicode="3" horiz-adv-x="569" 
d="M437 195v13q0 64 -45 104t-123 40h-66v54l201 234h-332v64h415v-64l-197 -228v-1q101 -5 162 -61.5t61 -149.5t-64.5 -153.5t-171.5 -60.5q-56 0 -99 16t-72.5 43t-46 64t-18.5 78h73q2 -27 12.5 -52.5t30.5 -45t50 -31t71 -11.5q78 0 118.5 44t40.5 104z" />
    <glyph glyph-name="four" unicode="4" horiz-adv-x="591" 
d="M21 185v60l336 459h84v-457h118v-62h-118v-185h-73v185h-347zM96 248v-1h273v372h-1z" />
    <glyph glyph-name="five" unicode="5" horiz-adv-x="576" 
d="M78 316v388h413v-62h-346v-256h1q25 49 69.5 70t95.5 21q52 0 93 -18.5t68.5 -51t42 -77t14.5 -95.5q0 -52 -16.5 -98t-47.5 -79t-76 -52.5t-102 -19.5q-103 0 -165.5 57t-69.5 145h76q2 -56 43 -98t116 -42q42 0 73.5 14.5t52 39t30.5 57.5t10 70v12q0 36 -9 68
t-28.5 55.5t-49 37.5t-69.5 14q-54 0 -93 -26.5t-59 -73.5h-67z" />
    <glyph glyph-name="six" unicode="6" horiz-adv-x="582" 
d="M539 231q0 -52 -18 -97t-50.5 -77.5t-77.5 -51.5t-99 -19q-53 0 -97.5 19.5t-76.5 52.5t-50 79t-18 98q0 54 19 105.5t60 108.5l183 255h84l-203 -275h1q23 19 51.5 30t67.5 11q48 0 89.5 -17.5t71 -49t46.5 -75.5t17 -97zM125 237v-12q0 -33 11.5 -65t34 -57t54.5 -40
t72 -15q41 0 72.5 15t52.5 39t32 56.5t11 66.5v12q0 35 -10 66.5t-30.5 55t-52.5 37.5t-75 14q-39 0 -71 -14t-54 -37.5t-34.5 -55t-12.5 -66.5z" />
    <glyph glyph-name="seven" unicode="7" horiz-adv-x="501" 
d="M69 0l335 641h-382v63h459v-63l-333 -641h-79z" />
    <glyph glyph-name="eight" unicode="8" horiz-adv-x="600" 
d="M398 372v-1q62 -13 105 -60.5t43 -122.5q0 -44 -18.5 -81.5t-51 -64t-78 -41.5t-98.5 -15t-98.5 15t-78 41.5t-51 64t-18.5 81.5q0 75 43 122.5t105 60.5v1q-59 14 -93.5 58t-34.5 100q0 84 63.5 136.5t162.5 52.5t162.5 -52.5t63.5 -136.5q0 -56 -34.5 -100t-93.5 -58z
M146 532v-9q0 -51 43 -88t111 -37t111 37t43 88v9q0 54 -42.5 90t-111.5 36t-111.5 -36t-42.5 -90zM128 200v-12q0 -60 47.5 -101t124.5 -41t124.5 41t47.5 101v12q0 60 -47 100.5t-125 40.5t-125 -40.5t-47 -100.5z" />
    <glyph glyph-name="nine" unicode="9" horiz-adv-x="582" 
d="M43 473q0 52 18 97t50.5 77.5t77.5 51.5t99 19q53 0 97.5 -19.5t76.5 -52.5t50 -79t18 -98q0 -54 -19 -105.5t-60 -108.5l-183 -255h-84l203 275h-1q-23 -19 -51.5 -30t-67.5 -11q-48 0 -89.5 17.5t-71 49t-46.5 75.5t-17 97zM457 467v12q0 33 -11.5 65t-34 57t-54.5 40
t-72 15q-41 0 -72.5 -15t-52.5 -39t-32 -56.5t-11 -66.5v-12q0 -35 10 -66.5t30.5 -55t52.5 -37.5t75 -14q39 0 71 14t54 37.5t34.5 55t12.5 66.5z" />
    <glyph glyph-name="colon" unicode=":" horiz-adv-x="250" 
d="M124 -8q-25 0 -41.5 16.5t-16.5 41.5t16.5 41.5t41.5 16.5t41.5 -16.5t16.5 -41.5t-16.5 -41.5t-41.5 -16.5zM124 392q-25 0 -41.5 16.5t-16.5 41.5t16.5 41.5t41.5 16.5t41.5 -16.5t16.5 -41.5t-16.5 -41.5t-41.5 -16.5z" />
    <glyph glyph-name="semicolon" unicode=";" horiz-adv-x="248" 
d="M100 -144h-65l72 238h75zM126 392q-25 0 -41.5 16.5t-16.5 41.5t16.5 41.5t41.5 16.5t41.5 -16.5t16.5 -41.5t-16.5 -41.5t-41.5 -16.5z" />
    <glyph glyph-name="less" unicode="&#x3c;" horiz-adv-x="606" 
d="M533 80l-496 217v64l496 219v-68l-428 -182l428 -182v-68z" />
    <glyph glyph-name="equal" unicode="=" horiz-adv-x="606" 
d="M46 396v62h513v-62h-513zM46 182v62h513v-62h-513z" />
    <glyph glyph-name="greater" unicode="&#x3e;" horiz-adv-x="606" 
d="M73 580l496 -217v-64l-496 -219v68l428 182l-428 182v68z" />
    <glyph glyph-name="question" unicode="?" horiz-adv-x="508" 
d="M270 222h-68q0 71 30 109t65 66t65 57t30 80q0 48 -33.5 86t-107.5 38q-73 0 -108 -39.5t-37 -91.5h-72q1 83 60 137.5t158 54.5q51 0 91 -14.5t67 -39t41 -58.5t14 -72q0 -65 -30.5 -99.5t-67 -61.5t-67 -59t-30.5 -93zM238 -8q-25 0 -40.5 16t-15.5 41q0 24 15.5 40.5
t40.5 16.5q24 0 40.5 -16.5t16.5 -40.5q0 -25 -16.5 -41t-40.5 -16z" />
    <glyph glyph-name="at" unicode="@" horiz-adv-x="909" 
d="M657 -122q-40 -22 -88 -32.5t-104 -10.5q-89 0 -165 31t-131 85.5t-86.5 129.5t-31.5 163t31.5 165t86.5 133.5t131.5 89.5t166.5 33q82 0 154 -27.5t124 -77.5t82.5 -121.5t30.5 -158.5q0 -116 -47.5 -177t-119.5 -61q-43 0 -75.5 23t-38.5 71h-1q-17 -45 -57 -74.5
t-95 -29.5q-61 0 -102.5 31t-41.5 87q0 55 40 84.5t103 39.5l66 12q35 6 52.5 19t17.5 40t-21 50t-74 23q-47 0 -73.5 -20t-29.5 -54h-65q5 54 48 89.5t121 35.5q74 0 117.5 -35.5t43.5 -102.5v-155q0 -49 20 -67.5t47 -18.5q26 0 46.5 15.5t34 41.5t20.5 60.5t7 71.5
q0 75 -26 136.5t-71 104.5t-106 66.5t-131 23.5q-76 0 -141.5 -28.5t-112.5 -77.5t-74 -116t-27 -144q0 -76 27 -141.5t74 -112.5t112 -74t141 -27q55 0 103 11.5t88 34.5v-57zM562 228v42q-7 -9 -22.5 -17t-37.5 -12l-69 -13q-40 -8 -64 -25t-24 -48v-4q0 -33 25 -50.5
t64 -17.5q56 0 92 40t36 105z" />
    <glyph glyph-name="A" unicode="A" horiz-adv-x="655" 
d="M565 0l-73 190h-333l-72 -190h-79l275 704h84l280 -704h-82zM322 624l-139 -369h284l-143 369h-2z" />
    <glyph glyph-name="B" unicode="B" horiz-adv-x="678" 
d="M97 0v704h302q88 0 144.5 -49t56.5 -132q0 -59 -31 -99t-85 -56v-1q64 -14 101.5 -58.5t37.5 -113.5q0 -90 -61 -142.5t-154 -52.5h-311zM525 513v10q0 54 -36.5 85.5t-99.5 31.5h-217v-245h217q63 0 99.5 32t36.5 86zM547 193v10q0 60 -40.5 95t-109.5 35h-225v-269h225
q69 0 109.5 35.5t40.5 93.5z" />
    <glyph glyph-name="C" unicode="C" horiz-adv-x="684" 
d="M368 51q84 0 134 43.5t64 106.5h79q-20 -96 -92.5 -155.5t-182.5 -59.5q-78 0 -137.5 29.5t-99 79.5t-59.5 116.5t-20 140.5t20 140.5t59.5 116.5t99 80t137.5 30q109 0 180 -57t93 -150h-80q-16 63 -64.5 102.5t-129.5 39.5q-49 0 -92.5 -18.5t-76 -54.5t-51.5 -88.5
t-19 -120.5v-39q0 -68 19 -120.5t51.5 -88.5t75.5 -54.5t92 -18.5z" />
    <glyph glyph-name="D" unicode="D" horiz-adv-x="707" 
d="M337 704q79 0 139 -28.5t99 -76.5t58.5 -112t19.5 -135t-19.5 -135t-58.5 -112t-99 -76.5t-139 -28.5h-240v704h240zM338 639h-166v-574h166q49 0 92.5 18t76 51.5t51.5 83.5t19 114v40q0 64 -19 114t-51.5 83.5t-76 51.5t-92.5 18z" />
    <glyph glyph-name="E" unicode="E" horiz-adv-x="619" 
d="M97 704h467v-65h-392v-242h362v-64h-362v-268h392v-65h-467v704z" />
    <glyph glyph-name="F" unicode="F" horiz-adv-x="590" 
d="M97 704h460v-65h-385v-252h356v-65h-356v-322h-75v704z" />
    <glyph glyph-name="G" unicode="G" horiz-adv-x="719" 
d="M592 0v151h-1q-17 -70 -76 -117.5t-152 -47.5q-78 0 -136 29.5t-96.5 79.5t-57.5 116.5t-19 140.5t20.5 141t60 117t99.5 79.5t138 29.5q113 0 184.5 -55t93.5 -147h-82q-14 60 -63 98.5t-131 38.5q-50 0 -94.5 -18.5t-77.5 -54.5t-52.5 -88.5t-19.5 -120.5v-40
q0 -68 19 -120.5t51.5 -88.5t76.5 -54.5t93 -18.5q56 0 96.5 20t66 54t38 78.5t12.5 92.5h-231v63h303v-358h-63z" />
    <glyph glyph-name="H" unicode="H" horiz-adv-x="736" 
d="M97 704h75v-305h392v305h75v-704h-75v334h-392v-334h-75v704z" />
    <glyph glyph-name="I" unicode="I" horiz-adv-x="270" 
d="M97 704h75v-704h-75v704z" />
    <glyph glyph-name="J" unicode="J" horiz-adv-x="583" 
d="M272 -15q-53 0 -95 17.5t-70.5 48.5t-43.5 74.5t-15 94.5v57h74v-55q0 -78 39 -125t111 -47q73 0 111 47t38 125v482h75v-484q0 -51 -15 -94.5t-43.5 -74.5t-70.5 -48.5t-95 -17.5z" />
    <glyph glyph-name="K" unicode="K" horiz-adv-x="630" 
d="M172 704v-704h-75v704h75zM524 0l-352 357l340 347h95l-341 -342l359 -362h-101z" />
    <glyph glyph-name="L" unicode="L" horiz-adv-x="559" 
d="M97 704h75v-639h367v-65h-442v704z" />
    <glyph glyph-name="M" unicode="M" horiz-adv-x="886" 
d="M97 0v704h110l237 -604h1l234 604h109v-704h-73v619h-1l-239 -619h-64l-242 617h-1v-617h-71z" />
    <glyph glyph-name="N" unicode="N" horiz-adv-x="740" 
d="M97 0v704h95l376 -604h1v604h73v-704h-91l-379 612h-1v-612h-74z" />
    <glyph glyph-name="O" unicode="O" horiz-adv-x="739" 
d="M370 -14q-79 0 -139 29.5t-99 79.5t-58.5 116.5t-19.5 140.5t19.5 140.5t58.5 116.5t99 80t139 30t138.5 -30t98.5 -80t58.5 -116.5t19.5 -140.5t-19.5 -140.5t-58.5 -116.5t-98.5 -79.5t-138.5 -29.5zM370 51q49 0 92.5 18.5t76 54.5t51.5 88.5t19 120.5v39
q0 68 -19 120.5t-51.5 88.5t-76 54.5t-92.5 18.5t-93 -18.5t-76.5 -54.5t-51.5 -88.5t-19 -120.5v-39q0 -68 19 -120.5t51.5 -88.5t76.5 -54.5t93 -18.5z" />
    <glyph glyph-name="P" unicode="P" horiz-adv-x="645" 
d="M97 0v704h290q107 0 166.5 -54.5t59.5 -145.5t-59.5 -145.5t-166.5 -54.5h-215v-304h-75zM537 497v14q0 57 -38 92.5t-114 35.5h-213v-270h213q76 0 114 35.5t38 92.5z" />
    <glyph glyph-name="Q" unicode="Q" horiz-adv-x="739" 
d="M370 -14q-79 0 -139 29.5t-99 79.5t-58.5 116.5t-19.5 140.5t19.5 140.5t58.5 116.5t99 80t139 30t138.5 -30t98.5 -80t58.5 -116.5t19.5 -140.5q0 -54 -10.5 -105.5t-32 -94.5t-53.5 -77.5t-75 -56.5l193 -202h-94l-168 178q-17 -4 -36 -6t-39 -2zM370 51
q49 0 92.5 18.5t76 54.5t51.5 88.5t19 120.5v39q0 68 -19 120.5t-51.5 88.5t-76 54.5t-92.5 18.5t-93 -18.5t-76.5 -54.5t-51.5 -88.5t-19 -120.5v-39q0 -68 19 -120.5t51.5 -88.5t76.5 -54.5t93 -18.5z" />
    <glyph glyph-name="R" unicode="R" horiz-adv-x="663" 
d="M97 0v704h290q107 0 166.5 -54.5t59.5 -145.5q0 -90 -58.5 -143t-165.5 -53h-114l363 -308h-111l-354 308h-1v-308h-75zM537 497v13q0 59 -38 94.5t-114 35.5h-213v-272h213q76 0 114 35.5t38 93.5z" />
    <glyph glyph-name="S" unicode="S" horiz-adv-x="629" 
d="M315 -14q-64 0 -114 16t-84.5 43.5t-54 66t-21.5 83.5h76q4 -69 57 -108t142 -39q86 0 138 39t52 103q0 56 -37.5 85t-106.5 39l-105 17q-85 13 -141 57t-56 132q0 41 17 77.5t49 63.5t80 42.5t110 15.5q63 0 110 -16t78.5 -42.5t48 -62t18.5 -73.5h-76q-4 57 -49.5 94.5
t-130.5 37.5q-87 0 -133.5 -38.5t-46.5 -95.5q0 -56 39 -84t102 -38l104 -17q90 -14 145.5 -58.5t55.5 -131.5q0 -93 -73.5 -150.5t-192.5 -57.5z" />
    <glyph glyph-name="T" unicode="T" horiz-adv-x="587" 
d="M256 639h-241v65h558v-65h-242v-639h-75v639z" />
    <glyph glyph-name="U" unicode="U" horiz-adv-x="705" 
d="M352 -15q-63 0 -113 19t-83.5 53t-51 81t-17.5 103v463h75v-461q0 -87 49 -140t141 -53q93 0 142 53t49 140v461h74v-463q0 -56 -17.5 -103t-51 -81t-83.5 -53t-113 -19z" />
    <glyph glyph-name="V" unicode="V" horiz-adv-x="630" 
d="M275 0l-263 704h80l223 -616h2l225 616h76l-260 -704h-83z" />
    <glyph glyph-name="W" unicode="W" horiz-adv-x="939" 
d="M19 704h79l168 -599h2l164 599h81l168 -600h2l164 600h73l-197 -704h-81l-171 604h-2l-166 -604h-80z" />
    <glyph glyph-name="X" unicode="X" horiz-adv-x="619" 
d="M265 362l-239 342h88l196 -283h1l195 283h85l-238 -341l252 -363h-88l-209 303h-1l-208 -303h-85z" />
    <glyph glyph-name="Y" unicode="Y" horiz-adv-x="606" 
d="M266 0v283l-252 421h83l206 -346h2l205 346h82l-252 -421v-283h-74z" />
    <glyph glyph-name="Z" unicode="Z" horiz-adv-x="580" 
d="M123 65h423v-65h-511v65l413 574h-403v65h490v-65z" />
    <glyph glyph-name="bracketleft" unicode="[" horiz-adv-x="362" 
d="M95 732h243v-60h-173v-744h173v-60h-243v864z" />
    <glyph glyph-name="backslash" unicode="\" horiz-adv-x="477" 
d="M24 804h73l356 -904h-73z" />
    <glyph glyph-name="bracketright" unicode="]" horiz-adv-x="362" 
d="M267 -132h-243v60h173v744h-173v60h243v-864z" />
    <glyph glyph-name="asciicircum" unicode="^" horiz-adv-x="526" 
d="M486 410h-81l-140 221h-3l-140 -221h-83l192 294h64z" />
    <glyph glyph-name="underscore" unicode="_" horiz-adv-x="574" 
d="M49 0h476v-54h-476v54z" />
    <glyph glyph-name="grave" unicode="`" horiz-adv-x="501" 
d="M199 742l80 -140h-58l-104 140h82z" />
    <glyph glyph-name="a" unicode="a" horiz-adv-x="550" 
d="M65 374q6 66 58 110t145 44q89 0 141.5 -42.5t52.5 -123.5v-259q0 -26 10.5 -34.5t30.5 -8.5h32v-60h-52q-46 0 -66 20.5t-19 63.5v12h-1q-19 -48 -65.5 -79t-112.5 -31q-74 0 -124 39.5t-50 110.5q0 68 48 105.5t125 50.5l85 15q42 7 63 23t21 48q0 34 -26.5 63.5
t-92.5 29.5q-60 0 -93 -25.5t-38 -71.5h-72zM391 217v76q-7 -12 -25.5 -22.5t-46.5 -15.5l-88 -16q-52 -9 -83 -32t-31 -64v-6q0 -45 32.5 -69t81.5 -24q69 0 114.5 47.5t45.5 125.5z" />
    <glyph glyph-name="b" unicode="b" horiz-adv-x="614" 
d="M82 0v742h72v-328h1q24 53 71 83.5t111 30.5q51 0 93.5 -20.5t72 -56.5t46 -85.5t16.5 -108.5q0 -58 -16 -108t-45.5 -86t-71.5 -56.5t-95 -20.5q-66 0 -113.5 32t-71.5 86h-1v-104h-69zM492 240v34q0 45 -13.5 81t-36.5 61t-54 38t-65 13q-35 0 -66 -13.5t-53.5 -38.5
t-36 -61t-13.5 -80v-34q0 -44 13.5 -80t36 -61t53.5 -38.5t66 -13.5q34 0 65 13t54 37.5t36.5 60.5t13.5 82z" />
    <glyph glyph-name="c" unicode="c" horiz-adv-x="554" 
d="M122 274v-34q0 -88 50 -140.5t121 -52.5q60 0 96 32.5t49 79.5h72q-16 -78 -72.5 -125.5t-144.5 -47.5q-57 0 -102.5 20.5t-77 56.5t-48 85.5t-16.5 108.5t17 109t48.5 86t77 56t101.5 20q89 0 145.5 -47t70.5 -122h-72q-12 44 -47.5 76t-96.5 32q-71 0 -121 -52
t-50 -141z" />
    <glyph glyph-name="d" unicode="d" horiz-adv-x="614" 
d="M532 0h-69v104h-1q-24 -54 -71 -86t-113 -32q-53 0 -95.5 20.5t-72 56.5t-45.5 86t-16 108q0 59 16.5 108.5t46 85.5t72 56.5t94.5 20.5q63 0 110 -30.5t71 -83.5h1v328h72v-742zM122 240q0 -46 13.5 -82t36.5 -60.5t54 -37.5t65 -13q35 0 66 13.5t53.5 38.5t36 61
t13.5 80v34q0 44 -13.5 80t-36 61t-53.5 38.5t-66 13.5q-34 0 -65 -13t-54 -38t-36.5 -61t-13.5 -81v-34z" />
    <glyph glyph-name="e" unicode="e" horiz-adv-x="574" 
d="M293 -14q-58 0 -103.5 20.5t-76.5 56.5t-47.5 86t-16.5 108q0 59 17.5 109t49 86t76 56t98.5 20q55 0 99 -19.5t73.5 -54t45.5 -82.5t16 -104v-26h-402v-5q0 -88 49.5 -140.5t122.5 -52.5q66 0 102.5 33t43.5 70h75q-15 -70 -73.5 -115.5t-148.5 -45.5zM290 470
q-64 0 -112.5 -46.5t-54.5 -126.5h328q-2 81 -47 127t-114 46z" />
    <glyph glyph-name="f" unicode="f" horiz-adv-x="410" 
d="M137 0v453h-119v61h119v113q0 58 28.5 87t89.5 29h137v-60h-127q-31 0 -43.5 -13.5t-12.5 -44.5v-111h182v-61h-182v-453h-72z" />
    <glyph glyph-name="g" unicode="g" horiz-adv-x="607" 
d="M67 -49h74q7 -34 41 -66t105 -32q86 0 126.5 47.5t40.5 131.5v90h-1q-25 -51 -70 -81t-109 -30q-50 0 -92 19.5t-71.5 54t-45.5 82t-16 103.5q0 55 15.5 102.5t44.5 82t71 54t94 19.5q67 0 112.5 -30.5t68.5 -82.5h1v99h70v-480q0 -116 -63.5 -178t-176.5 -62
q-48 0 -86 12.5t-65.5 34t-44.5 50t-23 60.5zM122 284v-29q0 -43 13.5 -77t36 -57.5t52.5 -36t64 -12.5t64 13t52.5 36.5t36 57.5t13.5 76v29q0 41 -13.5 75t-36 58t-52.5 37t-64 13t-64 -12.5t-52.5 -35.5t-36 -57.5t-13.5 -77.5z" />
    <glyph glyph-name="h" unicode="h" horiz-adv-x="592" 
d="M154 301v-301h-72v742h70v-316h1q23 51 68.5 76.5t102.5 25.5q39 0 74 -13t61 -39t41.5 -65t15.5 -90v-321h-72v316q0 75 -41 112.5t-98 37.5q-30 0 -57.5 -10t-48 -30.5t-33 -51.5t-12.5 -73z" />
    <glyph glyph-name="i" unicode="i" horiz-adv-x="235" 
d="M120 616h-4q-23 0 -39 15.5t-16 38.5t16 38.5t39 15.5h4q23 0 38.5 -15.5t15.5 -38.5t-15.5 -38.5t-38.5 -15.5zM82 514h72v-514h-72v514z" />
    <glyph glyph-name="j" unicode="j" horiz-adv-x="236" 
d="M120 616h-4q-23 0 -38.5 15.5t-15.5 38.5t15.5 38.5t38.5 15.5h4q23 0 39 -15.5t16 -38.5t-16 -38.5t-39 -15.5zM82 -74v588h72v-590q0 -58 -28 -87t-90 -29h-101v61h90q31 0 44 13.5t13 43.5z" />
    <glyph glyph-name="k" unicode="k" horiz-adv-x="518" 
d="M154 742v-742h-72v742h72zM496 514l-251 -237l271 -277h-96l-266 274l251 240h91z" />
    <glyph glyph-name="l" unicode="l" horiz-adv-x="322" 
d="M77 116v626h73v-621q0 -31 13.5 -45.5t45.5 -14.5h94v-61h-107q-62 0 -90.5 29t-28.5 87z" />
    <glyph glyph-name="m" unicode="m" horiz-adv-x="898" 
d="M82 0v514h69v-81h1q20 48 62 71.5t95 23.5q56 0 100.5 -28t63.5 -83h1q22 55 67.5 83t101.5 28q37 0 69.5 -12.5t57 -36.5t38.5 -60.5t14 -83.5v-335h-72v330q0 69 -37 102.5t-88 33.5q-54 0 -95.5 -37.5t-41.5 -113.5v-315h-72v330q0 69 -37.5 102.5t-88.5 33.5
q-54 0 -95 -37.5t-41 -113.5v-315h-72z" />
    <glyph glyph-name="n" unicode="n" horiz-adv-x="592" 
d="M154 301v-301h-72v514h69v-91h1q22 53 68.5 79t103.5 26q39 0 74 -13t61 -39t41.5 -65t15.5 -90v-321h-72v316q0 75 -41 112.5t-98 37.5q-30 0 -57.5 -10t-48 -30.5t-33 -51.5t-12.5 -73z" />
    <glyph glyph-name="o" unicode="o" horiz-adv-x="589" 
d="M294 -14q-57 0 -102.5 20.5t-77 56.5t-48.5 86t-17 108q0 59 17.5 108.5t49 85.5t77 56.5t101.5 20.5t101.5 -20.5t77 -56.5t49 -85.5t17.5 -108.5q0 -58 -17 -108t-48.5 -86t-77 -56.5t-102.5 -20.5zM466 240v34q0 45 -13.5 81t-37 60.5t-55 38t-66.5 13.5t-66.5 -13.5
t-55 -38.5t-37 -61t-13.5 -80v-34q0 -44 13.5 -79.5t37 -60.5t55 -39t66.5 -14t66.5 13t55 38t37 61t13.5 81z" />
    <glyph glyph-name="p" unicode="p" horiz-adv-x="614" 
d="M82 514h69v-103h1q24 54 71.5 85.5t113.5 31.5q53 0 95 -20.5t71.5 -56.5t45.5 -86t16 -108q0 -59 -16.5 -108.5t-46 -85.5t-72 -56.5t-93.5 -20.5q-64 0 -111 30.5t-71 84.5h-1v-293h-72v706zM492 275q0 45 -13.5 81t-36.5 60.5t-54 37.5t-65 13t-65 -13.5t-54 -38.5
t-36.5 -60.5t-13.5 -79.5v-35q0 -44 13.5 -80t36.5 -60.5t54 -38t65 -13.5t65 13t54 37.5t36.5 60.5t13.5 81v35z" />
    <glyph glyph-name="q" unicode="q" horiz-adv-x="614" 
d="M532 514v-706h-72v293h-1q-24 -54 -71 -84.5t-110 -30.5q-52 0 -94.5 20.5t-72 56.5t-46 85.5t-16.5 108.5q0 58 16 108t45.5 86t72 56.5t95.5 20.5q66 0 113 -31.5t71 -85.5h1v103h69zM122 275v-35q0 -45 13.5 -81t36.5 -60.5t54 -37.5t65 -13q35 0 66 13.5t53.5 38
t36 60.5t13.5 80v35q0 44 -13.5 79.5t-36 60.5t-53.5 38.5t-66 13.5q-34 0 -65 -13t-54 -37.5t-36.5 -60.5t-13.5 -81z" />
    <glyph glyph-name="r" unicode="r" horiz-adv-x="394" 
d="M82 0v514h69v-85h1q13 35 47 62t97 27h73v-68h-87q-76 0 -102 -44t-26 -103v-303h-72z" />
    <glyph glyph-name="s" unicode="s" horiz-adv-x="508" 
d="M40 148h74q2 -54 43 -80t102 -26q60 0 97 26t37 70q0 39 -28.5 59t-78.5 27l-81 12q-69 10 -108.5 45t-39.5 97q0 67 55.5 109t142.5 42q48 0 84.5 -12.5t61 -33t38 -48.5t14.5 -58h-73q-2 43 -35 69.5t-91 26.5q-57 0 -91 -25t-34 -65q0 -36 24.5 -56t73.5 -27l81 -11
q78 -12 117.5 -49.5t39.5 -96.5q0 -73 -58 -115.5t-150 -42.5q-100 0 -157 45.5t-60 117.5z" />
    <glyph glyph-name="t" unicode="t" horiz-adv-x="420" 
d="M19 514h120v158h73v-158h173v-61h-173v-334q0 -31 12.5 -44.5t43.5 -13.5h117v-61h-127q-62 0 -90.5 29t-28.5 87v337h-120v61z" />
    <glyph glyph-name="u" unicode="u" horiz-adv-x="592" 
d="M438 213v301h72v-514h-69v91h-1q-22 -53 -68.5 -79t-103.5 -26q-39 0 -74 13t-61 39t-41.5 65t-15.5 90v321h72v-316q0 -75 41 -112.5t98 -37.5q30 0 57.5 10t48 30.5t33 51.5t12.5 73z" />
    <glyph glyph-name="v" unicode="v" horiz-adv-x="518" 
d="M500 514l-202 -514h-76l-205 514h80l164 -431h1l163 431h75z" />
    <glyph glyph-name="w" unicode="w" horiz-adv-x="800" 
d="M20 514h76l134 -426h1l133 426h76l137 -425h1l131 425h71l-165 -514h-77l-137 426h-1l-135 -426h-75z" />
    <glyph glyph-name="x" unicode="x" horiz-adv-x="505" 
d="M11 0l198 263l-187 251h85l146 -198h1l147 198h82l-188 -249l199 -265h-85l-157 213h-2l-157 -213h-82z" />
    <glyph glyph-name="y" unicode="y" horiz-adv-x="516" 
d="M269 -67q-26 -66 -60.5 -95.5t-111.5 -29.5h-78v61h76q46 0 64.5 15t38.5 63l27 66l-208 501h80l165 -416h1l162 416h74z" />
    <glyph glyph-name="z" unicode="z" horiz-adv-x="473" 
d="M38 0v61l301 393h-292v60h375v-61l-301 -392h323v-61h-406z" />
    <glyph glyph-name="braceleft" unicode="{" horiz-adv-x="394" 
d="M38 266v68q36 0 66 20.5t30 66.5v165q0 73 36 109t104 36h96v-59h-80q-44 0 -65.5 -21t-21.5 -67v-164q0 -54 -33 -85t-73 -31v-8q40 0 73 -31t33 -85v-165q0 -46 21.5 -66.5t65.5 -20.5h80v-60h-96q-68 0 -104 36t-36 109v166q0 46 -30 66.5t-66 20.5z" />
    <glyph glyph-name="bar" unicode="|" horiz-adv-x="282" 
d="M108 804h66v-989h-66v989z" />
    <glyph glyph-name="braceright" unicode="}" horiz-adv-x="394" 
d="M356 334v-68q-36 0 -66 -20.5t-30 -66.5v-165q0 -73 -36 -109t-104 -36h-96v59h80q44 0 65.5 21t21.5 67v164q0 54 33 85t73 31v8q-40 0 -73 31t-33 85v165q0 46 -21.5 66.5t-65.5 20.5h-80v60h96q68 0 104 -36t36 -109v-166q0 -46 30 -66.5t66 -20.5z" />
    <glyph glyph-name="asciitilde" unicode="~" horiz-adv-x="661" 
d="M52 215q0 97 44.5 147.5t113.5 50.5q38 0 69.5 -19.5t59.5 -42.5t55 -42.5t56 -19.5q38 0 63.5 31.5t25.5 98.5h70q0 -102 -45.5 -150.5t-111.5 -48.5q-39 0 -70.5 19.5t-59.5 42t-54 42t-55 19.5q-40 0 -65.5 -33t-25.5 -95h-70z" />
    <glyph glyph-name="uni00A0" unicode="&#xa0;" horiz-adv-x="238" 
 />
    <glyph glyph-name="exclamdown" unicode="&#xa1;" horiz-adv-x="248" 
d="M124 528q25 0 41.5 -16.5t16.5 -41.5t-16.5 -41.5t-41.5 -16.5t-41.5 16.5t-16.5 41.5t16.5 41.5t41.5 16.5zM88 -184v277l17 213h40l17 -213v-277h-74z" />
    <glyph glyph-name="cent" unicode="&#xa2;" horiz-adv-x="570" 
d="M268 -60v143q-51 4 -91.5 26.5t-68.5 57.5t-43 83t-15 103q0 112 58.5 186.5t159.5 83.5v141h61v-142q74 -9 121 -54t60 -113h-72q-12 44 -47.5 76t-96.5 32q-71 0 -121 -52t-50 -141v-34q0 -88 50 -140.5t121 -52.5q60 0 96 32.5t49 79.5h72q-15 -69 -62 -115t-120 -56
v-144h-61z" />
    <glyph glyph-name="sterling" unicode="&#xa3;" horiz-adv-x="632" 
d="M43 0v61h110v238h-109v59h109v149q0 51 17 90.5t46 66.5t68 41t82 14q47 0 83.5 -14.5t61.5 -39t39 -56t17 -65.5h-72q-3 44 -36 80t-94 36q-65 0 -102.5 -42.5t-37.5 -109.5v-150h249v-59h-249v-238h345v-61h-527z" />
    <glyph glyph-name="currency" unicode="&#xa4;" horiz-adv-x="686" 
d="M344 93q-40 0 -77 12.5t-67 34.5l-94 -94l-51 50l96 96q-21 29 -32.5 65.5t-11.5 76.5t11.5 76t32.5 65l-96 96l51 50l95 -95q29 22 66 34.5t77 12.5t76 -12t66 -34l94 94l51 -50l-95 -95q21 -29 32.5 -65.5t11.5 -76.5q0 -41 -11.5 -77.5t-32.5 -65.5l95 -95l-51 -50
l-94 94q-29 -22 -65.5 -34.5t-76.5 -12.5zM344 157q69 0 117 50t48 127q0 76 -48 126t-117 50t-117.5 -50t-48.5 -126q0 -77 48.5 -127t117.5 -50z" />
    <glyph glyph-name="yen" unicode="&#xa5;" horiz-adv-x="606" 
d="M267 0v151h-205v57h205v75l-21 35h-184v57h150l-197 329h83l206 -346h2l205 346h82l-197 -329h137v-57h-171l-21 -35v-75h192v-57h-192v-151h-74z" />
    <glyph glyph-name="brokenbar" unicode="&#xa6;" horiz-adv-x="282" 
d="M108 804h66v-340h-66v340zM108 156h66v-341h-66v341z" />
    <glyph glyph-name="section" unicode="&#xa7;" horiz-adv-x="585" 
d="M415 102v-1q40 -22 59 -54t19 -76q0 -79 -56 -125t-146 -46q-98 0 -153.5 45.5t-57.5 118.5h74q2 -54 40.5 -80.5t98.5 -26.5q58 0 93.5 28.5t35.5 77.5t-30 71.5t-81 38.5l-111 35q-72 22 -116 62.5t-44 102.5q0 55 35 95t95 54v1q-39 22 -59.5 55.5t-20.5 76.5
q0 74 56 119.5t145 45.5q48 0 85 -12.5t62 -33.5t38.5 -49t14.5 -59h-73q-3 43 -35.5 70t-92.5 27q-58 0 -93 -29t-35 -73q0 -40 25.5 -64.5t75.5 -40.5l111 -34q81 -25 124.5 -67t43.5 -107q0 -54 -34.5 -92t-92.5 -54zM347 133q56 4 89.5 32t33.5 73q0 47 -32 75.5
t-86 44.5l-114 35q-57 -3 -91 -33.5t-34 -77.5q0 -43 27.5 -68t81.5 -42z" />
    <glyph glyph-name="dieresis" unicode="&#xa8;" horiz-adv-x="501" 
d="M165 632h-2q-20 0 -33.5 13.5t-13.5 32.5q0 20 13.5 33.5t33.5 13.5h2q20 0 33.5 -13.5t13.5 -33.5q0 -19 -13.5 -32.5t-33.5 -13.5zM340 632h-2q-20 0 -33.5 13.5t-13.5 32.5q0 20 13.5 33.5t33.5 13.5h2q20 0 33.5 -13.5t13.5 -33.5q0 -19 -13.5 -32.5t-33.5 -13.5z
" />
    <glyph glyph-name="copyright" unicode="&#xa9;" horiz-adv-x="822" 
d="M411 -15q-78 0 -145 28t-115.5 77t-76.5 116.5t-28 145.5t28 146t76.5 117t115.5 77t145 28t145 -28t115.5 -77t76.5 -117t28 -146t-28 -145.5t-76.5 -116.5t-115.5 -77t-145 -28zM411 31q68 0 126 24.5t100 67.5t66 102t24 127t-24 127t-66 102t-100 67.5t-126 24.5
t-126 -24.5t-100 -67.5t-65.5 -102t-23.5 -127t23.5 -127t65.5 -102t100 -67.5t126 -24.5zM519 288h59q-9 -71 -58.5 -106.5t-109.5 -35.5q-78 0 -130 55t-52 148v3q0 95 53 150.5t132 55.5q28 0 55.5 -8t49.5 -24.5t37.5 -41.5t19.5 -59h-59q-7 43 -38 63t-65 20
q-53 0 -90 -41t-37 -115v-2q0 -71 35 -112.5t90 -41.5q37 0 69 22.5t39 69.5z" />
    <glyph glyph-name="ordfeminine" unicode="&#xaa;" horiz-adv-x="362" 
d="M54 621q4 41 36 67t89 26q52 0 85 -25t33 -79v-141q0 -14 6 -19t17 -5h19v-43h-34q-29 0 -41 12.5t-12 36.5v6h-1q-11 -28 -38.5 -45.5t-65.5 -17.5q-45 0 -74.5 23.5t-29.5 65.5t29.5 64.5t77.5 29.5l45 8q24 4 36 13t12 26q0 19 -14.5 34t-50.5 15q-33 0 -50.5 -14
t-19.5 -38h-54zM245 528v40q-4 -6 -14.5 -11.5t-26.5 -8.5l-45 -8q-29 -4 -46 -17t-17 -35v-3q0 -23 17 -36.5t44 -13.5q39 0 63.5 26t24.5 67z" />
    <glyph glyph-name="guillemotleft" unicode="&#xab;" horiz-adv-x="568" 
d="M210 66l-174 203l174 204h83l-174 -204l174 -203h-83zM429 66l-174 203l174 204h83l-174 -204l174 -203h-83z" />
    <glyph glyph-name="logicalnot" unicode="&#xac;" horiz-adv-x="625" 
d="M42 289v62h506v-288h-61v226h-445z" />
    <glyph glyph-name="uni00AD" unicode="&#xad;" horiz-adv-x="383" 
d="M64 312h263v-60h-263v60z" />
    <glyph glyph-name="registered" unicode="&#xae;" horiz-adv-x="527" 
d="M264 276q-46 0 -86.5 16.5t-70 46t-47 70t-17.5 87.5t17.5 87.5t47.5 70t70 46t86 16.5t86.5 -16.5t70 -46t46.5 -70t17 -87.5t-17 -87.5t-46.5 -70t-70 -46t-86.5 -16.5zM264 313q38 0 71 13.5t57.5 38t38.5 58t14 73.5t-14 73.5t-38.5 58t-57.5 38t-71 13.5t-71 -13.5
t-57.5 -38t-39 -58t-14.5 -73.5t14.5 -73.5t39 -58t57.5 -38t71 -13.5zM281 479h-7l101 -91h-56l-97 87v-87h-40v224h100q40 0 58.5 -19t18.5 -49q0 -32 -23.5 -48.5t-54.5 -16.5zM279 580h-57v-73h57q20 0 30 11t10 26q0 16 -9 26t-31 10z" />
    <glyph glyph-name="macron" unicode="&#xaf;" horiz-adv-x="496" 
d="M117 695h261v-49h-261v49z" />
    <glyph glyph-name="degree" unicode="&#xb0;" horiz-adv-x="481" 
d="M241 335q-39 0 -73.5 14.5t-60.5 39.5t-41 60t-15 76q0 40 15 75t40.5 60t60.5 39.5t74 14.5t73.5 -14.5t60 -39.5t40.5 -60t15 -75q0 -41 -15 -76t-40.5 -60t-60 -39.5t-73.5 -14.5zM241 392q54 0 92 38t38 95t-38 94.5t-92 37.5t-92.5 -37.5t-38.5 -94.5t38.5 -95
t92.5 -38z" />
    <glyph glyph-name="plusminus" unicode="&#xb1;" horiz-adv-x="606" 
d="M42 374v61h230v165h61v-165h230v-61h-230v-164h-61v164h-230zM42 42v61h521v-61h-521z" />
    <glyph glyph-name="twosuperior" unicode="&#xb2;" horiz-adv-x="366" 
d="M45 290v48q0 40 20 67.5t62 55.5l76 51q31 22 42 41t11 38v7q0 29 -18.5 49.5t-56.5 20.5q-37 0 -59 -21.5t-22 -59.5h-55q1 58 39.5 92t96.5 34q60 0 95 -33.5t35 -82.5q0 -34 -17 -64t-62 -60l-81 -55q-26 -19 -38.5 -36t-12.5 -42v-3h219v-47h-274z" />
    <glyph glyph-name="threesuperior" unicode="&#xb3;" horiz-adv-x="373" 
d="M271 405v8q0 34 -24 56t-67 22h-44v40l114 126h-190v47h252v-47l-113 -124v-1q58 -4 93 -37t35 -87t-39 -90t-104 -36q-67 0 -103 35t-39 85h55q2 -29 22.5 -52t65.5 -23q43 0 64.5 23t21.5 55z" />
    <glyph glyph-name="acute" unicode="&#xb4;" horiz-adv-x="501" 
d="M298 742h82l-104 -140h-59z" />
    <glyph glyph-name="uni00B5" unicode="&#xb5;" horiz-adv-x="592" 
d="M438 213v301h72v-514h-69v91h-1q-22 -53 -68.5 -79t-103.5 -26q-39 0 -74 13t-61 39t-41.5 65t-15.5 90v321h72v-316q0 -75 41 -112.5t98 -37.5q30 0 57.5 10t48 30.5t33 51.5t12.5 73z" />
    <glyph glyph-name="paragraph" unicode="&#xb6;" horiz-adv-x="705" 
d="M381 -192h-66v389h-18q-58 0 -104 19.5t-78 53t-49 80.5t-17 101t17.5 101t49.5 80.5t78 52.5t103 19h368v-59h-104v-837h-66v837h-114v-837zM297 256h18v389h-18q-36 0 -68 -12.5t-55.5 -35t-37.5 -55.5t-14 -74v-35q0 -40 14 -73t37.5 -56t55.5 -35.5t68 -12.5z" />
    <glyph glyph-name="periodcentered" unicode="&#xb7;" horiz-adv-x="248" 
d="M124 300q-25 0 -41.5 16.5t-16.5 41.5t16.5 41.5t41.5 16.5t41.5 -16.5t16.5 -41.5t-16.5 -41.5t-41.5 -16.5z" />
    <glyph glyph-name="cedilla" unicode="&#xb8;" horiz-adv-x="500" 
d="M154 -217v40h69q25 0 48 9.5t23 34.5q0 23 -19.5 33.5t-54.5 10.5h-28v29l30 72h44l-26 -66q45 0 77.5 -18.5t32.5 -57.5q0 -45 -35 -65.5t-79 -21.5h-82z" />
    <glyph glyph-name="onesuperior" unicode="&#xb9;" horiz-adv-x="260" 
d="M137 290v296h-102v47h102v71h55v-414h-55z" />
    <glyph glyph-name="ordmasculine" unicode="&#xba;" horiz-adv-x="382" 
d="M193 394q-70 0 -109 46.5t-39 113.5t39.5 113.5t108.5 46.5t108.5 -47t39.5 -113q0 -67 -39 -113.5t-109 -46.5zM286 542v23q0 49 -27.5 76.5t-65.5 27.5t-65.5 -28t-27.5 -76v-23q0 -47 27.5 -75.5t65.5 -28.5t65.5 27.5t27.5 76.5z" />
    <glyph glyph-name="guillemotright" unicode="&#xbb;" horiz-adv-x="568" 
d="M358 472l174 -203l-174 -204h-83l174 204l-174 203h83zM139 472l174 -203l-174 -204h-83l174 204l-174 203h83z" />
    <glyph glyph-name="onequarter" unicode="&#xbc;" horiz-adv-x="843" 
d="M152 290v296h-102v47h102v71h55v-414h-55zM158 0l469 704h64l-468 -704h-65zM469 103v45l193 266h64v-264h67v-47h-67v-103h-55v103h-202zM524 151v-1h147v202z" />
    <glyph glyph-name="onehalf" unicode="&#xbd;" horiz-adv-x="922" 
d="M152 290v296h-102v47h102v71h55v-414h-55zM173 0l469 704h64l-468 -704h-65zM598 0v48q0 40 19.5 67.5t61.5 55.5l77 51q31 22 41.5 41t10.5 38v7q0 29 -18.5 49.5t-56.5 20.5q-37 0 -58.5 -21.5t-22.5 -59.5h-54q1 58 39.5 92t95.5 34q60 0 95.5 -33.5t35.5 -82.5
q0 -34 -17 -64t-63 -60l-81 -55q-26 -19 -38 -36t-12 -40v-5h219v-47h-274z" />
    <glyph glyph-name="threequarters" unicode="&#xbe;" horiz-adv-x="891" 
d="M279 405v8q0 34 -24 56t-67 22h-44v40l114 126h-190v47h252v-47l-113 -124v-1q58 -4 93 -37t35 -87t-39 -90t-104 -36q-67 0 -103 35t-39 85h55q2 -29 22.5 -52t65.5 -23q43 0 64.5 23t21.5 55zM206 0l469 704h64l-468 -704h-65zM517 103v45l193 266h64v-264h67v-47h-67
v-103h-55v103h-202zM572 151v-1h147v202z" />
    <glyph glyph-name="questiondown" unicode="&#xbf;" horiz-adv-x="501" 
d="M263 529q25 0 40.5 -16t15.5 -41q0 -24 -15.5 -40.5t-40.5 -16.5q-24 0 -40.5 16.5t-16.5 40.5q0 25 16.5 41t40.5 16zM231 299h68q0 -71 -30 -109t-65 -66t-65 -57t-30 -80q0 -48 33.5 -86t107.5 -38q73 0 108 39.5t37 91.5h72q-1 -83 -60 -137.5t-158 -54.5
q-51 0 -91 14.5t-67 39t-41 58.5t-14 72q0 65 30.5 99.5t67 61.5t67 59t30.5 93z" />
    <glyph glyph-name="Agrave" unicode="&#xc0;" horiz-adv-x="655" 
d="M565 0l-73 190h-333l-72 -190h-79l275 704h84l280 -704h-82zM322 624l-139 -369h284l-143 369h-2zM274 932l80 -140h-58l-104 140h82z" />
    <glyph glyph-name="Aacute" unicode="&#xc1;" horiz-adv-x="655" 
d="M565 0l-73 190h-333l-72 -190h-79l275 704h84l280 -704h-82zM322 624l-139 -369h284l-143 369h-2zM377 932h82l-104 -140h-59z" />
    <glyph glyph-name="Acircumflex" unicode="&#xc2;" horiz-adv-x="655" 
d="M565 0l-73 190h-333l-72 -190h-79l275 704h84l280 -704h-82zM322 624l-139 -369h284l-143 369h-2zM488 792h-74l-85 102h-4l-84 -102h-65l119 140h75z" />
    <glyph glyph-name="Atilde" unicode="&#xc3;" horiz-adv-x="655" 
d="M565 0l-73 190h-333l-72 -190h-79l275 704h84l280 -704h-82zM322 624l-139 -369h284l-143 369h-2zM396 792q-31 0 -49 14.5t-32 31.5t-28 31.5t-37 14.5q-24 0 -38.5 -20t-14.5 -65h-41v3q0 60 25.5 94t70.5 34h2q31 0 49.5 -14.5t32.5 -31t28.5 -31t37.5 -14.5
q24 0 38.5 19t14.5 64h41v-3q0 -60 -26 -93.5t-72 -33.5h-2z" />
    <glyph glyph-name="Adieresis" unicode="&#xc4;" horiz-adv-x="655" 
d="M565 0l-73 190h-333l-72 -190h-79l275 704h84l280 -704h-82zM322 624l-139 -369h284l-143 369h-2zM241 822h-2q-20 0 -33.5 13.5t-13.5 32.5q0 20 13.5 33.5t33.5 13.5h2q20 0 33.5 -13.5t13.5 -33.5q0 -19 -13.5 -32.5t-33.5 -13.5zM416 822h-2q-20 0 -33.5 13.5
t-13.5 32.5q0 20 13.5 33.5t33.5 13.5h2q20 0 33.5 -13.5t13.5 -33.5q0 -19 -13.5 -32.5t-33.5 -13.5z" />
    <glyph glyph-name="Aring" unicode="&#xc5;" horiz-adv-x="655" 
d="M565 0l-73 190h-333l-72 -190h-79l275 704h84l280 -704h-82zM322 624l-139 -369h284l-143 369h-2zM327 770q-45 0 -78 28t-33 75t33 75t78 28t77.5 -28t32.5 -75t-32.5 -75t-77.5 -28zM327 810q27 0 46.5 16t19.5 47t-19.5 47t-46.5 16q-28 0 -47 -16t-19 -47t19 -47
t47 -16z" />
    <glyph glyph-name="AE" unicode="&#xc6;" horiz-adv-x="946" 
d="M565 0l-73 190h-333l-72 -190h-79l275 704h609v-65h-499l96 -242h373v-64h-347l106 -268h271v-65h-327zM322 624l-139 -369h284l-143 369h-2z" />
    <glyph glyph-name="Ccedilla" unicode="&#xc7;" horiz-adv-x="684" 
d="M368 51q84 0 134 43.5t64 106.5h79q-20 -96 -92.5 -155.5t-182.5 -59.5q-78 0 -137.5 29.5t-99 79.5t-59.5 116.5t-20 140.5t20 140.5t59.5 116.5t99 80t137.5 30q109 0 180 -57t93 -150h-80q-16 63 -64.5 102.5t-129.5 39.5q-49 0 -92.5 -18.5t-76 -54.5t-51.5 -88.5
t-19 -120.5v-39q0 -68 19 -120.5t51.5 -88.5t75.5 -54.5t92 -18.5zM281 -217v40h69q25 0 48 9.5t23 34.5q0 23 -19.5 33.5t-54.5 10.5h-28v29l30 72h44l-26 -66q45 0 77.5 -18.5t32.5 -57.5q0 -45 -35 -65.5t-79 -21.5h-82z" />
    <glyph glyph-name="Egrave" unicode="&#xc8;" horiz-adv-x="619" 
d="M97 704h467v-65h-392v-242h362v-64h-362v-268h392v-65h-467v704zM290 932l80 -140h-58l-104 140h82z" />
    <glyph glyph-name="Eacute" unicode="&#xc9;" horiz-adv-x="619" 
d="M97 704h467v-65h-392v-242h362v-64h-362v-268h392v-65h-467v704zM394 932h82l-104 -140h-59z" />
    <glyph glyph-name="Ecircumflex" unicode="&#xca;" horiz-adv-x="619" 
d="M97 704h467v-65h-392v-242h362v-64h-362v-268h392v-65h-467v704zM505 792h-74l-85 102h-4l-84 -102h-65l119 140h75z" />
    <glyph glyph-name="Edieresis" unicode="&#xcb;" horiz-adv-x="619" 
d="M97 704h467v-65h-392v-242h362v-64h-362v-268h392v-65h-467v704zM258 822h-2q-20 0 -33.5 13.5t-13.5 32.5q0 20 13.5 33.5t33.5 13.5h2q20 0 33.5 -13.5t13.5 -33.5q0 -19 -13.5 -32.5t-33.5 -13.5zM433 822h-2q-20 0 -33.5 13.5t-13.5 32.5q0 20 13.5 33.5t33.5 13.5h2
q20 0 33.5 -13.5t13.5 -33.5q0 -19 -13.5 -32.5t-33.5 -13.5z" />
    <glyph glyph-name="Igrave" unicode="&#xcc;" horiz-adv-x="270" 
d="M97 704h75v-704h-75v704zM82 932l80 -140h-58l-104 140h82z" />
    <glyph glyph-name="Iacute" unicode="&#xcd;" horiz-adv-x="270" 
d="M97 704h75v-704h-75v704zM186 932h82l-104 -140h-59z" />
    <glyph glyph-name="Icircumflex" unicode="&#xce;" horiz-adv-x="270" 
d="M97 704h75v-704h-75v704zM297 792h-74l-85 102h-4l-84 -102h-65l119 140h75z" />
    <glyph glyph-name="Idieresis" unicode="&#xcf;" horiz-adv-x="270" 
d="M97 704h75v-704h-75v704zM50 822h-2q-20 0 -33.5 13.5t-13.5 32.5q0 20 13.5 33.5t33.5 13.5h2q20 0 33.5 -13.5t13.5 -33.5q0 -19 -13.5 -32.5t-33.5 -13.5zM225 822h-2q-20 0 -33.5 13.5t-13.5 32.5q0 20 13.5 33.5t33.5 13.5h2q20 0 33.5 -13.5t13.5 -33.5
q0 -19 -13.5 -32.5t-33.5 -13.5z" />
    <glyph glyph-name="Eth" unicode="&#xd0;" horiz-adv-x="719" 
d="M30 334v65h79v305h240q79 0 139 -28.5t99 -76.5t58.5 -112t19.5 -135t-19.5 -135t-58.5 -112t-99 -76.5t-139 -28.5h-240v334h-79zM350 639h-166v-240h190v-65h-190v-269h166q49 0 92.5 18t76 51.5t51.5 83.5t19 114v40q0 64 -19 114t-51.5 83.5t-76 51.5t-92.5 18z" />
    <glyph glyph-name="Ntilde" unicode="&#xd1;" horiz-adv-x="740" 
d="M97 0v704h95l376 -604h1v604h73v-704h-91l-379 612h-1v-612h-74zM455 792q-31 0 -49 14.5t-32 31.5t-28 31.5t-37 14.5q-24 0 -38.5 -20t-14.5 -65h-41v3q0 60 25.5 94t70.5 34h2q31 0 49.5 -14.5t32.5 -31t28.5 -31t37.5 -14.5q24 0 38.5 19t14.5 64h41v-3
q0 -60 -26 -93.5t-72 -33.5h-2z" />
    <glyph glyph-name="Ograve" unicode="&#xd2;" horiz-adv-x="739" 
d="M370 -14q-79 0 -139 29.5t-99 79.5t-58.5 116.5t-19.5 140.5t19.5 140.5t58.5 116.5t99 80t139 30t138.5 -30t98.5 -80t58.5 -116.5t19.5 -140.5t-19.5 -140.5t-58.5 -116.5t-98.5 -79.5t-138.5 -29.5zM370 51q49 0 92.5 18.5t76 54.5t51.5 88.5t19 120.5v39
q0 68 -19 120.5t-51.5 88.5t-76 54.5t-92.5 18.5t-93 -18.5t-76.5 -54.5t-51.5 -88.5t-19 -120.5v-39q0 -68 19 -120.5t51.5 -88.5t76.5 -54.5t93 -18.5zM317 932l80 -140h-58l-104 140h82z" />
    <glyph glyph-name="Oacute" unicode="&#xd3;" horiz-adv-x="739" 
d="M370 -14q-79 0 -139 29.5t-99 79.5t-58.5 116.5t-19.5 140.5t19.5 140.5t58.5 116.5t99 80t139 30t138.5 -30t98.5 -80t58.5 -116.5t19.5 -140.5t-19.5 -140.5t-58.5 -116.5t-98.5 -79.5t-138.5 -29.5zM370 51q49 0 92.5 18.5t76 54.5t51.5 88.5t19 120.5v39
q0 68 -19 120.5t-51.5 88.5t-76 54.5t-92.5 18.5t-93 -18.5t-76.5 -54.5t-51.5 -88.5t-19 -120.5v-39q0 -68 19 -120.5t51.5 -88.5t76.5 -54.5t93 -18.5zM421 932h82l-104 -140h-59z" />
    <glyph glyph-name="Ocircumflex" unicode="&#xd4;" horiz-adv-x="739" 
d="M370 -14q-79 0 -139 29.5t-99 79.5t-58.5 116.5t-19.5 140.5t19.5 140.5t58.5 116.5t99 80t139 30t138.5 -30t98.5 -80t58.5 -116.5t19.5 -140.5t-19.5 -140.5t-58.5 -116.5t-98.5 -79.5t-138.5 -29.5zM370 51q49 0 92.5 18.5t76 54.5t51.5 88.5t19 120.5v39
q0 68 -19 120.5t-51.5 88.5t-76 54.5t-92.5 18.5t-93 -18.5t-76.5 -54.5t-51.5 -88.5t-19 -120.5v-39q0 -68 19 -120.5t51.5 -88.5t76.5 -54.5t93 -18.5zM531 792h-74l-85 102h-4l-84 -102h-65l119 140h75z" />
    <glyph glyph-name="Otilde" unicode="&#xd5;" horiz-adv-x="739" 
d="M370 -14q-79 0 -139 29.5t-99 79.5t-58.5 116.5t-19.5 140.5t19.5 140.5t58.5 116.5t99 80t139 30t138.5 -30t98.5 -80t58.5 -116.5t19.5 -140.5t-19.5 -140.5t-58.5 -116.5t-98.5 -79.5t-138.5 -29.5zM370 51q49 0 92.5 18.5t76 54.5t51.5 88.5t19 120.5v39
q0 68 -19 120.5t-51.5 88.5t-76 54.5t-92.5 18.5t-93 -18.5t-76.5 -54.5t-51.5 -88.5t-19 -120.5v-39q0 -68 19 -120.5t51.5 -88.5t76.5 -54.5t93 -18.5zM440 792q-31 0 -49 14.5t-32 31.5t-28 31.5t-37 14.5q-24 0 -38.5 -20t-14.5 -65h-41v3q0 60 25.5 94t70.5 34h2
q31 0 49.5 -14.5t32.5 -31t28.5 -31t37.5 -14.5q24 0 38.5 19t14.5 64h41v-3q0 -60 -26 -93.5t-72 -33.5h-2z" />
    <glyph glyph-name="Odieresis" unicode="&#xd6;" horiz-adv-x="739" 
d="M370 -14q-79 0 -139 29.5t-99 79.5t-58.5 116.5t-19.5 140.5t19.5 140.5t58.5 116.5t99 80t139 30t138.5 -30t98.5 -80t58.5 -116.5t19.5 -140.5t-19.5 -140.5t-58.5 -116.5t-98.5 -79.5t-138.5 -29.5zM370 51q49 0 92.5 18.5t76 54.5t51.5 88.5t19 120.5v39
q0 68 -19 120.5t-51.5 88.5t-76 54.5t-92.5 18.5t-93 -18.5t-76.5 -54.5t-51.5 -88.5t-19 -120.5v-39q0 -68 19 -120.5t51.5 -88.5t76.5 -54.5t93 -18.5zM285 822h-2q-20 0 -33.5 13.5t-13.5 32.5q0 20 13.5 33.5t33.5 13.5h2q20 0 33.5 -13.5t13.5 -33.5q0 -19 -13.5 -32.5
t-33.5 -13.5zM460 822h-2q-20 0 -33.5 13.5t-13.5 32.5q0 20 13.5 33.5t33.5 13.5h2q20 0 33.5 -13.5t13.5 -33.5q0 -19 -13.5 -32.5t-33.5 -13.5z" />
    <glyph glyph-name="multiply" unicode="&#xd7;" horiz-adv-x="606" 
d="M129 103l-43 43l174 174l-172 172l43 43l172 -172l174 174l43 -43l-174 -174l172 -172l-43 -43l-172 172z" />
    <glyph glyph-name="Oslash" unicode="&#xd8;" horiz-adv-x="739" 
d="M44 -11l86 108q-38 50 -57 116t-19 139q0 74 19.5 140.5t58.5 116.5t99 80t139 30q63 0 113.5 -19t87.5 -52l80 100l44 -33l-86 -108q38 -50 57 -116.5t19 -138.5q0 -74 -19.5 -140.5t-58.5 -116.5t-98.5 -79.5t-138.5 -29.5q-63 0 -113.5 18.5t-88.5 51.5l-80 -100z
M130 333q0 -54 12.5 -99t34.5 -79l350 438q-31 30 -71.5 45.5t-85.5 15.5q-49 0 -93 -18.5t-76.5 -54.5t-51.5 -88.5t-19 -120.5v-39zM370 51q49 0 92.5 18.5t76 54.5t51.5 88.5t19 120.5v39q0 54 -12 98.5t-34 78.5l-350 -437q31 -30 71.5 -45.5t85.5 -15.5z" />
    <glyph glyph-name="Ugrave" unicode="&#xd9;" horiz-adv-x="705" 
d="M352 -15q-63 0 -113 19t-83.5 53t-51 81t-17.5 103v463h75v-461q0 -87 49 -140t141 -53q93 0 142 53t49 140v461h74v-463q0 -56 -17.5 -103t-51 -81t-83.5 -53t-113 -19zM301 933l80 -140h-58l-104 140h82z" />
    <glyph glyph-name="Uacute" unicode="&#xda;" horiz-adv-x="705" 
d="M352 -15q-63 0 -113 19t-83.5 53t-51 81t-17.5 103v463h75v-461q0 -87 49 -140t141 -53q93 0 142 53t49 140v461h74v-463q0 -56 -17.5 -103t-51 -81t-83.5 -53t-113 -19zM405 933h82l-104 -140h-59z" />
    <glyph glyph-name="Ucircumflex" unicode="&#xdb;" horiz-adv-x="705" 
d="M352 -15q-63 0 -113 19t-83.5 53t-51 81t-17.5 103v463h75v-461q0 -87 49 -140t141 -53q93 0 142 53t49 140v461h74v-463q0 -56 -17.5 -103t-51 -81t-83.5 -53t-113 -19zM515 793h-74l-85 102h-4l-84 -102h-65l119 140h75z" />
    <glyph glyph-name="Udieresis" unicode="&#xdc;" horiz-adv-x="705" 
d="M352 -15q-63 0 -113 19t-83.5 53t-51 81t-17.5 103v463h75v-461q0 -87 49 -140t141 -53q93 0 142 53t49 140v461h74v-463q0 -56 -17.5 -103t-51 -81t-83.5 -53t-113 -19zM269 823h-2q-20 0 -33.5 13.5t-13.5 32.5q0 20 13.5 33.5t33.5 13.5h2q20 0 33.5 -13.5t13.5 -33.5
q0 -19 -13.5 -32.5t-33.5 -13.5zM444 823h-2q-20 0 -33.5 13.5t-13.5 32.5q0 20 13.5 33.5t33.5 13.5h2q20 0 33.5 -13.5t13.5 -33.5q0 -19 -13.5 -32.5t-33.5 -13.5z" />
    <glyph glyph-name="Yacute" unicode="&#xdd;" horiz-adv-x="603" 
d="M266 0v283l-252 421h83l206 -346h2l205 346h82l-252 -421v-283h-74zM354 932h82l-104 -140h-59z" />
    <glyph glyph-name="Thorn" unicode="&#xde;" horiz-adv-x="645" 
d="M97 0v704h75v-115h215q107 0 166.5 -54.5t59.5 -145.5t-59.5 -145.5t-166.5 -54.5h-215v-189h-75zM537 382v13q0 58 -38 93.5t-114 35.5h-213v-271h213q76 0 114 35.5t38 93.5z" />
    <glyph glyph-name="germandbls" unicode="&#xdf;" horiz-adv-x="586" 
d="M81 0v519q0 102 57.5 162.5t156.5 60.5q46 0 83 -14.5t63 -39t39.5 -58.5t13.5 -72q0 -52 -25 -94.5t-82 -65.5v-1q75 -16 114 -68t39 -120q0 -92 -65.5 -150.5t-176.5 -58.5h-75v60h67q86 0 131.5 40.5t45.5 106.5v5q0 69 -41.5 109.5t-113.5 40.5h-52v59h37
q57 0 92 36.5t35 94.5v5q0 23 -8 46t-24.5 40.5t-41 28.5t-56.5 11q-68 0 -104.5 -45t-36.5 -119v-519h-72z" />
    <glyph glyph-name="agrave" unicode="&#xe0;" horiz-adv-x="550" 
d="M65 374q6 66 58 110t145 44q89 0 141.5 -42.5t52.5 -123.5v-259q0 -26 10.5 -34.5t30.5 -8.5h32v-60h-52q-46 0 -66 20.5t-19 63.5v12h-1q-19 -48 -65.5 -79t-112.5 -31q-74 0 -124 39.5t-50 110.5q0 68 48 105.5t125 50.5l85 15q42 7 63 23t21 48q0 34 -26.5 63.5
t-92.5 29.5q-60 0 -93 -25.5t-38 -71.5h-72zM391 217v76q-7 -12 -25.5 -22.5t-46.5 -15.5l-88 -16q-52 -9 -83 -32t-31 -64v-6q0 -45 32.5 -69t81.5 -24q69 0 114.5 47.5t45.5 125.5zM214 742l80 -140h-58l-104 140h82z" />
    <glyph glyph-name="aacute" unicode="&#xe1;" horiz-adv-x="550" 
d="M65 374q6 66 58 110t145 44q89 0 141.5 -42.5t52.5 -123.5v-259q0 -26 10.5 -34.5t30.5 -8.5h32v-60h-52q-46 0 -66 20.5t-19 63.5v12h-1q-19 -48 -65.5 -79t-112.5 -31q-74 0 -124 39.5t-50 110.5q0 68 48 105.5t125 50.5l85 15q42 7 63 23t21 48q0 34 -26.5 63.5
t-92.5 29.5q-60 0 -93 -25.5t-38 -71.5h-72zM391 217v76q-7 -12 -25.5 -22.5t-46.5 -15.5l-88 -16q-52 -9 -83 -32t-31 -64v-6q0 -45 32.5 -69t81.5 -24q69 0 114.5 47.5t45.5 125.5zM318 742h82l-104 -140h-59z" />
    <glyph glyph-name="acircumflex" unicode="&#xe2;" horiz-adv-x="550" 
d="M65 374q6 66 58 110t145 44q89 0 141.5 -42.5t52.5 -123.5v-259q0 -26 10.5 -34.5t30.5 -8.5h32v-60h-52q-46 0 -66 20.5t-19 63.5v12h-1q-19 -48 -65.5 -79t-112.5 -31q-74 0 -124 39.5t-50 110.5q0 68 48 105.5t125 50.5l85 15q42 7 63 23t21 48q0 34 -26.5 63.5
t-92.5 29.5q-60 0 -93 -25.5t-38 -71.5h-72zM391 217v76q-7 -12 -25.5 -22.5t-46.5 -15.5l-88 -16q-52 -9 -83 -32t-31 -64v-6q0 -45 32.5 -69t81.5 -24q69 0 114.5 47.5t45.5 125.5zM429 602h-74l-85 102h-4l-84 -102h-65l119 140h75z" />
    <glyph glyph-name="atilde" unicode="&#xe3;" horiz-adv-x="550" 
d="M65 374q6 66 58 110t145 44q89 0 141.5 -42.5t52.5 -123.5v-259q0 -26 10.5 -34.5t30.5 -8.5h32v-60h-52q-46 0 -66 20.5t-19 63.5v12h-1q-19 -48 -65.5 -79t-112.5 -31q-74 0 -124 39.5t-50 110.5q0 68 48 105.5t125 50.5l85 15q42 7 63 23t21 48q0 34 -26.5 63.5
t-92.5 29.5q-60 0 -93 -25.5t-38 -71.5h-72zM391 217v76q-7 -12 -25.5 -22.5t-46.5 -15.5l-88 -16q-52 -9 -83 -32t-31 -64v-6q0 -45 32.5 -69t81.5 -24q69 0 114.5 47.5t45.5 125.5zM337 602q-31 0 -49 14.5t-32 31.5t-28 31.5t-37 14.5q-24 0 -38.5 -20t-14.5 -65h-41v3
q0 60 25.5 94t70.5 34h2q31 0 49.5 -14.5t32.5 -31t28.5 -31t37.5 -14.5q24 0 38.5 19t14.5 64h41v-3q0 -60 -26 -93.5t-72 -33.5h-2z" />
    <glyph glyph-name="adieresis" unicode="&#xe4;" horiz-adv-x="550" 
d="M65 374q6 66 58 110t145 44q89 0 141.5 -42.5t52.5 -123.5v-259q0 -26 10.5 -34.5t30.5 -8.5h32v-60h-52q-46 0 -66 20.5t-19 63.5v12h-1q-19 -48 -65.5 -79t-112.5 -31q-74 0 -124 39.5t-50 110.5q0 68 48 105.5t125 50.5l85 15q42 7 63 23t21 48q0 34 -26.5 63.5
t-92.5 29.5q-60 0 -93 -25.5t-38 -71.5h-72zM391 217v76q-7 -12 -25.5 -22.5t-46.5 -15.5l-88 -16q-52 -9 -83 -32t-31 -64v-6q0 -45 32.5 -69t81.5 -24q69 0 114.5 47.5t45.5 125.5zM182 632h-2q-20 0 -33.5 13.5t-13.5 32.5q0 20 13.5 33.5t33.5 13.5h2q20 0 33.5 -13.5
t13.5 -33.5q0 -19 -13.5 -32.5t-33.5 -13.5zM357 632h-2q-20 0 -33.5 13.5t-13.5 32.5q0 20 13.5 33.5t33.5 13.5h2q20 0 33.5 -13.5t13.5 -33.5q0 -19 -13.5 -32.5t-33.5 -13.5z" />
    <glyph glyph-name="aring" unicode="&#xe5;" horiz-adv-x="550" 
d="M65 374q6 66 58 110t145 44q89 0 141.5 -42.5t52.5 -123.5v-259q0 -26 10.5 -34.5t30.5 -8.5h32v-60h-52q-46 0 -66 20.5t-19 63.5v12h-1q-19 -48 -65.5 -79t-112.5 -31q-74 0 -124 39.5t-50 110.5q0 68 48 105.5t125 50.5l85 15q42 7 63 23t21 48q0 34 -26.5 63.5
t-92.5 29.5q-60 0 -93 -25.5t-38 -71.5h-72zM391 217v76q-7 -12 -25.5 -22.5t-46.5 -15.5l-88 -16q-52 -9 -83 -32t-31 -64v-6q0 -45 32.5 -69t81.5 -24q69 0 114.5 47.5t45.5 125.5zM268 580q-45 0 -78 28t-33 75t33 75t78 28t77.5 -28t32.5 -75t-32.5 -75t-77.5 -28z
M268 620q27 0 46.5 16t19.5 47t-19.5 47t-46.5 16q-28 0 -47 -16t-19 -47t19 -47t47 -16z" />
    <glyph glyph-name="ae" unicode="&#xe6;" horiz-adv-x="922" 
d="M440 401h1q29 58 79.5 92.5t119.5 34.5q56 0 100 -19.5t74 -54t46 -82.5t16 -104v-27h-410v-4q0 -87 50 -140t126 -53q34 0 60.5 9.5t45 24.5t30 34t14.5 38h75q-16 -70 -74.5 -117t-148.5 -47q-86 0 -141 47t-76 125h-1q-4 -37 -21.5 -69t-45 -54.5t-63 -35.5t-75.5 -13
q-75 0 -124.5 39.5t-49.5 110.5q0 68 48 105.5t125 50.5l84 15q42 7 63.5 23t21.5 48t-26.5 62.5t-93.5 30.5q-60 0 -93 -25.5t-37 -71.5h-72q6 66 57 110t143 44q75 0 118.5 -33t54.5 -94zM638 470q-66 0 -116 -46.5t-55 -127.5h336q-2 81 -48 127.5t-117 46.5zM392 217v75
q-7 -11 -25.5 -22t-46.5 -15l-88 -16q-52 -9 -82.5 -32t-30.5 -64v-6q0 -45 32 -69t81 -24q70 0 115 47.5t45 125.5z" />
    <glyph glyph-name="ccedilla" unicode="&#xe7;" horiz-adv-x="555" 
d="M122 274v-34q0 -88 50 -140.5t121 -52.5q60 0 96 32.5t49 79.5h72q-16 -78 -72.5 -125.5t-144.5 -47.5q-57 0 -102.5 20.5t-77 56.5t-48 85.5t-16.5 108.5t17 109t48.5 86t77 56t101.5 20q89 0 145.5 -47t70.5 -122h-72q-12 44 -47.5 76t-96.5 32q-71 0 -121 -52
t-50 -141zM204 -217v40h69q25 0 48 9.5t23 34.5q0 23 -19.5 33.5t-54.5 10.5h-28v29l30 72h44l-26 -66q45 0 77.5 -18.5t32.5 -57.5q0 -45 -35 -65.5t-79 -21.5h-82z" />
    <glyph glyph-name="egrave" unicode="&#xe8;" horiz-adv-x="574" 
d="M293 -14q-58 0 -103.5 20.5t-76.5 56.5t-47.5 86t-16.5 108q0 59 17.5 109t49 86t76 56t98.5 20q55 0 99 -19.5t73.5 -54t45.5 -82.5t16 -104v-26h-402v-5q0 -88 49.5 -140.5t122.5 -52.5q66 0 102.5 33t43.5 70h75q-15 -70 -73.5 -115.5t-148.5 -45.5zM290 470
q-64 0 -112.5 -46.5t-54.5 -126.5h328q-2 81 -47 127t-114 46zM237 742l80 -140h-58l-104 140h82z" />
    <glyph glyph-name="eacute" unicode="&#xe9;" horiz-adv-x="574" 
d="M293 -14q-58 0 -103.5 20.5t-76.5 56.5t-47.5 86t-16.5 108q0 59 17.5 109t49 86t76 56t98.5 20q55 0 99 -19.5t73.5 -54t45.5 -82.5t16 -104v-26h-402v-5q0 -88 49.5 -140.5t122.5 -52.5q66 0 102.5 33t43.5 70h75q-15 -70 -73.5 -115.5t-148.5 -45.5zM290 470
q-64 0 -112.5 -46.5t-54.5 -126.5h328q-2 81 -47 127t-114 46zM340 742h82l-104 -140h-59z" />
    <glyph glyph-name="ecircumflex" unicode="&#xea;" horiz-adv-x="574" 
d="M293 -14q-58 0 -103.5 20.5t-76.5 56.5t-47.5 86t-16.5 108q0 59 17.5 109t49 86t76 56t98.5 20q55 0 99 -19.5t73.5 -54t45.5 -82.5t16 -104v-26h-402v-5q0 -88 49.5 -140.5t122.5 -52.5q66 0 102.5 33t43.5 70h75q-15 -70 -73.5 -115.5t-148.5 -45.5zM290 470
q-64 0 -112.5 -46.5t-54.5 -126.5h328q-2 81 -47 127t-114 46zM451 602h-74l-85 102h-4l-84 -102h-65l119 140h75z" />
    <glyph glyph-name="edieresis" unicode="&#xeb;" horiz-adv-x="574" 
d="M293 -14q-58 0 -103.5 20.5t-76.5 56.5t-47.5 86t-16.5 108q0 59 17.5 109t49 86t76 56t98.5 20q55 0 99 -19.5t73.5 -54t45.5 -82.5t16 -104v-26h-402v-5q0 -88 49.5 -140.5t122.5 -52.5q66 0 102.5 33t43.5 70h75q-15 -70 -73.5 -115.5t-148.5 -45.5zM290 470
q-64 0 -112.5 -46.5t-54.5 -126.5h328q-2 81 -47 127t-114 46zM204 632h-2q-20 0 -33.5 13.5t-13.5 32.5q0 20 13.5 33.5t33.5 13.5h2q20 0 33.5 -13.5t13.5 -33.5q0 -19 -13.5 -32.5t-33.5 -13.5zM379 632h-2q-20 0 -33.5 13.5t-13.5 32.5q0 20 13.5 33.5t33.5 13.5h2
q20 0 33.5 -13.5t13.5 -33.5q0 -19 -13.5 -32.5t-33.5 -13.5z" />
    <glyph glyph-name="igrave" unicode="&#xec;" horiz-adv-x="235" 
d="M82 514h72v-514h-72v514zM65 742l80 -140h-58l-104 140h82z" />
    <glyph glyph-name="iacute" unicode="&#xed;" horiz-adv-x="235" 
d="M82 514h72v-514h-72v514zM169 742h82l-104 -140h-59z" />
    <glyph glyph-name="icircumflex" unicode="&#xee;" horiz-adv-x="235" 
d="M82 514h72v-514h-72v514zM280 602h-74l-85 102h-4l-84 -102h-65l119 140h75z" />
    <glyph glyph-name="idieresis" unicode="&#xef;" horiz-adv-x="235" 
d="M82 514h72v-514h-72v514zM33 632h-2q-20 0 -33.5 13.5t-13.5 32.5q0 20 13.5 33.5t33.5 13.5h2q20 0 33.5 -13.5t13.5 -33.5q0 -19 -13.5 -32.5t-33.5 -13.5zM208 632h-2q-20 0 -33.5 13.5t-13.5 32.5q0 20 13.5 33.5t33.5 13.5h2q20 0 33.5 -13.5t13.5 -33.5
q0 -19 -13.5 -32.5t-33.5 -13.5z" />
    <glyph glyph-name="eth" unicode="&#xf0;" horiz-adv-x="583" 
d="M139 548v46l130 44q-20 16 -42 30.5t-45 28.5l41 45q31 -19 59 -39t53 -42l145 50v-46l-109 -37q82 -83 121.5 -180.5t39.5 -201.5q0 -56 -16.5 -103.5t-47.5 -82t-76.5 -54.5t-101.5 -20t-101 19.5t-76 53.5t-47.5 81.5t-16.5 102.5t16.5 101.5t47 80t73.5 52.5t96 19
q59 0 103 -28t69 -76h1q-19 58 -56 111.5t-91 102.5zM459 229v26q0 42 -13.5 76t-36 57.5t-53.5 36t-66 12.5q-69 0 -118.5 -49.5t-49.5 -132.5v-26q0 -82 49.5 -132t118.5 -50q35 0 66 12.5t53.5 35.5t36 57t13.5 77z" />
    <glyph glyph-name="ntilde" unicode="&#xf1;" horiz-adv-x="593" 
d="M154 301v-301h-72v514h69v-91h1q22 53 68.5 79t103.5 26q39 0 74 -13t61 -39t41.5 -65t15.5 -90v-321h-72v316q0 75 -41 112.5t-98 37.5q-30 0 -57.5 -10t-48 -30.5t-33 -51.5t-12.5 -73zM380 602q-31 0 -49 14.5t-32 31.5t-28 31.5t-37 14.5q-24 0 -38.5 -20t-14.5 -65
h-41v3q0 60 25.5 94t70.5 34h2q31 0 49.5 -14.5t32.5 -31t28.5 -31t37.5 -14.5q24 0 38.5 19t14.5 64h41v-3q0 -60 -26 -93.5t-72 -33.5h-2z" />
    <glyph glyph-name="ograve" unicode="&#xf2;" horiz-adv-x="589" 
d="M294 -14q-57 0 -102.5 20.5t-77 56.5t-48.5 86t-17 108q0 59 17.5 108.5t49 85.5t77 56.5t101.5 20.5t101.5 -20.5t77 -56.5t49 -85.5t17.5 -108.5q0 -58 -17 -108t-48.5 -86t-77 -56.5t-102.5 -20.5zM466 240v34q0 45 -13.5 81t-37 60.5t-55 38t-66.5 13.5t-66.5 -13.5
t-55 -38.5t-37 -61t-13.5 -80v-34q0 -44 13.5 -79.5t37 -60.5t55 -39t66.5 -14t66.5 13t55 38t37 61t13.5 81zM242 742l80 -140h-58l-104 140h82z" />
    <glyph glyph-name="oacute" unicode="&#xf3;" horiz-adv-x="589" 
d="M294 -14q-57 0 -102.5 20.5t-77 56.5t-48.5 86t-17 108q0 59 17.5 108.5t49 85.5t77 56.5t101.5 20.5t101.5 -20.5t77 -56.5t49 -85.5t17.5 -108.5q0 -58 -17 -108t-48.5 -86t-77 -56.5t-102.5 -20.5zM466 240v34q0 45 -13.5 81t-37 60.5t-55 38t-66.5 13.5t-66.5 -13.5
t-55 -38.5t-37 -61t-13.5 -80v-34q0 -44 13.5 -79.5t37 -60.5t55 -39t66.5 -14t66.5 13t55 38t37 61t13.5 81zM346 742h82l-104 -140h-59z" />
    <glyph glyph-name="ocircumflex" unicode="&#xf4;" horiz-adv-x="589" 
d="M294 -14q-57 0 -102.5 20.5t-77 56.5t-48.5 86t-17 108q0 59 17.5 108.5t49 85.5t77 56.5t101.5 20.5t101.5 -20.5t77 -56.5t49 -85.5t17.5 -108.5q0 -58 -17 -108t-48.5 -86t-77 -56.5t-102.5 -20.5zM466 240v34q0 45 -13.5 81t-37 60.5t-55 38t-66.5 13.5t-66.5 -13.5
t-55 -38.5t-37 -61t-13.5 -80v-34q0 -44 13.5 -79.5t37 -60.5t55 -39t66.5 -14t66.5 13t55 38t37 61t13.5 81zM456 602h-74l-85 102h-4l-84 -102h-65l119 140h75z" />
    <glyph glyph-name="otilde" unicode="&#xf5;" horiz-adv-x="589" 
d="M294 -14q-57 0 -102.5 20.5t-77 56.5t-48.5 86t-17 108q0 59 17.5 108.5t49 85.5t77 56.5t101.5 20.5t101.5 -20.5t77 -56.5t49 -85.5t17.5 -108.5q0 -58 -17 -108t-48.5 -86t-77 -56.5t-102.5 -20.5zM466 240v34q0 45 -13.5 81t-37 60.5t-55 38t-66.5 13.5t-66.5 -13.5
t-55 -38.5t-37 -61t-13.5 -80v-34q0 -44 13.5 -79.5t37 -60.5t55 -39t66.5 -14t66.5 13t55 38t37 61t13.5 81zM365 602q-31 0 -49 14.5t-32 31.5t-28 31.5t-37 14.5q-24 0 -38.5 -20t-14.5 -65h-41v3q0 60 25.5 94t70.5 34h2q31 0 49.5 -14.5t32.5 -31t28.5 -31t37.5 -14.5
q24 0 38.5 19t14.5 64h41v-3q0 -60 -26 -93.5t-72 -33.5h-2z" />
    <glyph glyph-name="odieresis" unicode="&#xf6;" horiz-adv-x="589" 
d="M294 -14q-57 0 -102.5 20.5t-77 56.5t-48.5 86t-17 108q0 59 17.5 108.5t49 85.5t77 56.5t101.5 20.5t101.5 -20.5t77 -56.5t49 -85.5t17.5 -108.5q0 -58 -17 -108t-48.5 -86t-77 -56.5t-102.5 -20.5zM466 240v34q0 45 -13.5 81t-37 60.5t-55 38t-66.5 13.5t-66.5 -13.5
t-55 -38.5t-37 -61t-13.5 -80v-34q0 -44 13.5 -79.5t37 -60.5t55 -39t66.5 -14t66.5 13t55 38t37 61t13.5 81zM210 632h-2q-20 0 -33.5 13.5t-13.5 32.5q0 20 13.5 33.5t33.5 13.5h2q20 0 33.5 -13.5t13.5 -33.5q0 -19 -13.5 -32.5t-33.5 -13.5zM385 632h-2
q-20 0 -33.5 13.5t-13.5 32.5q0 20 13.5 33.5t33.5 13.5h2q20 0 33.5 -13.5t13.5 -33.5q0 -19 -13.5 -32.5t-33.5 -13.5z" />
    <glyph glyph-name="divide" unicode="&#xf7;" horiz-adv-x="606" 
d="M308 461q-23 0 -38 15t-15 38q0 22 15 37.5t38 15.5q22 0 37.5 -15.5t15.5 -37.5q0 -23 -15.5 -38t-37.5 -15zM42 289v62h521v-62h-521zM308 77q-23 0 -38 15t-15 38q0 22 15 37.5t38 15.5q22 0 37.5 -15.5t15.5 -37.5q0 -23 -15.5 -38t-37.5 -15z" />
    <glyph glyph-name="oslash" unicode="&#xf8;" horiz-adv-x="593" 
d="M25 -11l78 88q-26 35 -40 81.5t-14 98.5q0 59 17.5 108.5t49 85.5t77 56.5t101.5 20.5q48 0 88.5 -15t71.5 -43l78 88l36 -32l-82 -92q25 -34 39 -79.5t14 -97.5q0 -58 -17 -108t-48.5 -86t-77 -56.5t-102.5 -20.5q-48 0 -87.5 14.5t-69.5 40.5l-76 -85zM122 240
q0 -32 7.5 -60t20.5 -50l260 291q-23 22 -53 34t-63 12q-35 0 -66.5 -13.5t-55 -38.5t-37 -61t-13.5 -80v-34zM466 240v34q0 31 -7 58.5t-19 49.5l-259 -291q23 -21 52 -32.5t61 -11.5q35 0 66.5 13t55 38t37 61t13.5 81z" />
    <glyph glyph-name="ugrave" unicode="&#xf9;" horiz-adv-x="593" 
d="M438 213v301h72v-514h-69v91h-1q-22 -53 -68.5 -79t-103.5 -26q-39 0 -74 13t-61 39t-41.5 65t-15.5 90v321h72v-316q0 -75 41 -112.5t98 -37.5q30 0 57.5 10t48 30.5t33 51.5t12.5 73zM238 742l80 -140h-58l-104 140h82z" />
    <glyph glyph-name="uacute" unicode="&#xfa;" horiz-adv-x="593" 
d="M438 213v301h72v-514h-69v91h-1q-22 -53 -68.5 -79t-103.5 -26q-39 0 -74 13t-61 39t-41.5 65t-15.5 90v321h72v-316q0 -75 41 -112.5t98 -37.5q30 0 57.5 10t48 30.5t33 51.5t12.5 73zM341 742h82l-104 -140h-59z" />
    <glyph glyph-name="ucircumflex" unicode="&#xfb;" horiz-adv-x="593" 
d="M438 213v301h72v-514h-69v91h-1q-22 -53 -68.5 -79t-103.5 -26q-39 0 -74 13t-61 39t-41.5 65t-15.5 90v321h72v-316q0 -75 41 -112.5t98 -37.5q30 0 57.5 10t48 30.5t33 51.5t12.5 73zM452 602h-74l-85 102h-4l-84 -102h-65l119 140h75z" />
    <glyph glyph-name="udieresis" unicode="&#xfc;" horiz-adv-x="593" 
d="M438 213v301h72v-514h-69v91h-1q-22 -53 -68.5 -79t-103.5 -26q-39 0 -74 13t-61 39t-41.5 65t-15.5 90v321h72v-316q0 -75 41 -112.5t98 -37.5q30 0 57.5 10t48 30.5t33 51.5t12.5 73zM205 632h-2q-20 0 -33.5 13.5t-13.5 32.5q0 20 13.5 33.5t33.5 13.5h2
q20 0 33.5 -13.5t13.5 -33.5q0 -19 -13.5 -32.5t-33.5 -13.5zM380 632h-2q-20 0 -33.5 13.5t-13.5 32.5q0 20 13.5 33.5t33.5 13.5h2q20 0 33.5 -13.5t13.5 -33.5q0 -19 -13.5 -32.5t-33.5 -13.5z" />
    <glyph glyph-name="yacute" unicode="&#xfd;" horiz-adv-x="516" 
d="M269 -67q-26 -66 -60.5 -95.5t-111.5 -29.5h-78v61h76q46 0 64.5 15t38.5 63l27 66l-208 501h80l165 -416h1l162 416h74zM316 742h82l-104 -140h-59z" />
    <glyph glyph-name="thorn" unicode="&#xfe;" horiz-adv-x="618" 
d="M82 -189v931h72v-328h1q24 53 71 83.5t111 30.5q51 0 93.5 -20.5t72 -56.5t46 -85.5t16.5 -108.5q0 -58 -16 -108t-45.5 -86t-71.5 -56.5t-95 -20.5q-66 0 -113.5 32t-71.5 86h-1v-68h1v-225h-70zM492 240v34q0 45 -13.5 81t-36.5 61t-54 38t-65 13q-35 0 -66 -13.5
t-53.5 -38.5t-36 -61t-13.5 -80v-34q0 -44 13.5 -80t36 -61t53.5 -38.5t66 -13.5q34 0 65 13t54 37.5t36.5 60.5t13.5 82z" />
    <glyph glyph-name="ydieresis" unicode="&#xff;" horiz-adv-x="516" 
d="M269 -67q-26 -66 -60.5 -95.5t-111.5 -29.5h-78v61h76q46 0 64.5 15t38.5 63l27 66l-208 501h80l165 -416h1l162 416h74zM180 632h-2q-20 0 -33.5 13.5t-13.5 32.5q0 20 13.5 33.5t33.5 13.5h2q20 0 33.5 -13.5t13.5 -33.5q0 -19 -13.5 -32.5t-33.5 -13.5zM355 632h-2
q-20 0 -33.5 13.5t-13.5 32.5q0 20 13.5 33.5t33.5 13.5h2q20 0 33.5 -13.5t13.5 -33.5q0 -19 -13.5 -32.5t-33.5 -13.5z" />
    <glyph glyph-name="Amacron" unicode="&#x100;" horiz-adv-x="655" 
d="M565 0l-73 190h-333l-72 -190h-79l275 704h84l280 -704h-82zM322 624l-139 -369h284l-143 369h-2zM195 885h261v-49h-261v49z" />
    <glyph glyph-name="amacron" unicode="&#x101;" horiz-adv-x="550" 
d="M65 374q6 66 58 110t145 44q89 0 141.5 -42.5t52.5 -123.5v-259q0 -26 10.5 -34.5t30.5 -8.5h32v-60h-52q-46 0 -66 20.5t-19 63.5v12h-1q-19 -48 -65.5 -79t-112.5 -31q-74 0 -124 39.5t-50 110.5q0 68 48 105.5t125 50.5l85 15q42 7 63 23t21 48q0 34 -26.5 63.5
t-92.5 29.5q-60 0 -93 -25.5t-38 -71.5h-72zM391 217v76q-7 -12 -25.5 -22.5t-46.5 -15.5l-88 -16q-52 -9 -83 -32t-31 -64v-6q0 -45 32.5 -69t81.5 -24q69 0 114.5 47.5t45.5 125.5zM136 695h261v-49h-261v49z" />
    <glyph glyph-name="Abreve" unicode="&#x102;" horiz-adv-x="655" 
d="M565 0l-73 190h-333l-72 -190h-79l275 704h84l280 -704h-82zM322 624l-139 -369h284l-143 369h-2zM323 792q-69 0 -106 41.5t-37 98.5h59q0 -45 23.5 -69t63.5 -24q43 0 66.5 25t23.5 68h57q0 -57 -38 -98.5t-107 -41.5h-5z" />
    <glyph glyph-name="abreve" unicode="&#x103;" horiz-adv-x="550" 
d="M65 374q6 66 58 110t145 44q89 0 141.5 -42.5t52.5 -123.5v-259q0 -26 10.5 -34.5t30.5 -8.5h32v-60h-52q-46 0 -66 20.5t-19 63.5v12h-1q-19 -48 -65.5 -79t-112.5 -31q-74 0 -124 39.5t-50 110.5q0 68 48 105.5t125 50.5l85 15q42 7 63 23t21 48q0 34 -26.5 63.5
t-92.5 29.5q-60 0 -93 -25.5t-38 -71.5h-72zM391 217v76q-7 -12 -25.5 -22.5t-46.5 -15.5l-88 -16q-52 -9 -83 -32t-31 -64v-6q0 -45 32.5 -69t81.5 -24q69 0 114.5 47.5t45.5 125.5zM264 602q-69 0 -106 41.5t-37 98.5h59q0 -45 23.5 -69t63.5 -24q43 0 66.5 25t23.5 68h57
q0 -57 -38 -98.5t-107 -41.5h-5z" />
    <glyph glyph-name="Aogonek" unicode="&#x104;" horiz-adv-x="655" 
d="M565 0l-73 190h-333l-72 -190h-79l275 704h84l280 -704h-82zM322 624l-139 -369h284l-143 369h-2zM616 26v-26q-46 -28 -68.5 -52t-22.5 -49q0 -21 16.5 -35t50.5 -14h61v-53h-71q-56 0 -83.5 26.5t-27.5 61.5q0 40 37.5 75t107.5 66z" />
    <glyph glyph-name="aogonek" unicode="&#x105;" horiz-adv-x="550" 
d="M65 374q6 66 58 110t145 44q89 0 141.5 -42.5t52.5 -123.5v-259q0 -26 10.5 -34.5t30.5 -8.5h32v-60h-52q-46 0 -66 20.5t-19 63.5v12h-1q-19 -48 -65.5 -79t-112.5 -31q-74 0 -124 39.5t-50 110.5q0 68 48 105.5t125 50.5l85 15q42 7 63 23t21 48q0 34 -26.5 63.5
t-92.5 29.5q-60 0 -93 -25.5t-38 -71.5h-72zM391 217v76q-7 -12 -25.5 -22.5t-46.5 -15.5l-88 -16q-52 -9 -83 -32t-31 -64v-6q0 -45 32.5 -69t81.5 -24q69 0 114.5 47.5t45.5 125.5zM535 26v-26q-46 -28 -68.5 -52t-22.5 -49q0 -21 16.5 -35t50.5 -14h61v-53h-71
q-56 0 -83.5 26.5t-27.5 61.5q0 40 37.5 75t107.5 66z" />
    <glyph glyph-name="Cacute" unicode="&#x106;" horiz-adv-x="684" 
d="M368 51q84 0 134 43.5t64 106.5h79q-20 -96 -92.5 -155.5t-182.5 -59.5q-78 0 -137.5 29.5t-99 79.5t-59.5 116.5t-20 140.5t20 140.5t59.5 116.5t99 80t137.5 30q109 0 180 -57t93 -150h-80q-16 63 -64.5 102.5t-129.5 39.5q-49 0 -92.5 -18.5t-76 -54.5t-51.5 -88.5
t-19 -120.5v-39q0 -68 19 -120.5t51.5 -88.5t75.5 -54.5t92 -18.5zM422 932h82l-104 -140h-59z" />
    <glyph glyph-name="cacute" unicode="&#x107;" horiz-adv-x="555" 
d="M122 274v-34q0 -88 50 -140.5t121 -52.5q60 0 96 32.5t49 79.5h72q-16 -78 -72.5 -125.5t-144.5 -47.5q-57 0 -102.5 20.5t-77 56.5t-48 85.5t-16.5 108.5t17 109t48.5 86t77 56t101.5 20q89 0 145.5 -47t70.5 -122h-72q-12 44 -47.5 76t-96.5 32q-71 0 -121 -52
t-50 -141zM345 742h82l-104 -140h-59z" />
    <glyph glyph-name="Ccircumflex" unicode="&#x108;" horiz-adv-x="684" 
d="M368 51q84 0 134 43.5t64 106.5h79q-20 -96 -92.5 -155.5t-182.5 -59.5q-78 0 -137.5 29.5t-99 79.5t-59.5 116.5t-20 140.5t20 140.5t59.5 116.5t99 80t137.5 30q109 0 180 -57t93 -150h-80q-16 63 -64.5 102.5t-129.5 39.5q-49 0 -92.5 -18.5t-76 -54.5t-51.5 -88.5
t-19 -120.5v-39q0 -68 19 -120.5t51.5 -88.5t75.5 -54.5t92 -18.5zM532 792h-74l-85 102h-4l-84 -102h-65l119 140h75z" />
    <glyph glyph-name="ccircumflex" unicode="&#x109;" horiz-adv-x="555" 
d="M122 274v-34q0 -88 50 -140.5t121 -52.5q60 0 96 32.5t49 79.5h72q-16 -78 -72.5 -125.5t-144.5 -47.5q-57 0 -102.5 20.5t-77 56.5t-48 85.5t-16.5 108.5t17 109t48.5 86t77 56t101.5 20q89 0 145.5 -47t70.5 -122h-72q-12 44 -47.5 76t-96.5 32q-71 0 -121 -52
t-50 -141zM456 602h-74l-85 102h-4l-84 -102h-65l119 140h75z" />
    <glyph glyph-name="Cdotaccent" unicode="&#x10a;" horiz-adv-x="684" 
d="M368 51q84 0 134 43.5t64 106.5h79q-20 -96 -92.5 -155.5t-182.5 -59.5q-78 0 -137.5 29.5t-99 79.5t-59.5 116.5t-20 140.5t20 140.5t59.5 116.5t99 80t137.5 30q109 0 180 -57t93 -150h-80q-16 63 -64.5 102.5t-129.5 39.5q-49 0 -92.5 -18.5t-76 -54.5t-51.5 -88.5
t-19 -120.5v-39q0 -68 19 -120.5t51.5 -88.5t75.5 -54.5t92 -18.5zM371 822h-2q-20 0 -33.5 13.5t-13.5 32.5q0 20 13.5 33.5t33.5 13.5h2q20 0 33.5 -13.5t13.5 -33.5q0 -19 -13.5 -32.5t-33.5 -13.5z" />
    <glyph glyph-name="cdotaccent" unicode="&#x10b;" horiz-adv-x="555" 
d="M122 274v-34q0 -88 50 -140.5t121 -52.5q60 0 96 32.5t49 79.5h72q-16 -78 -72.5 -125.5t-144.5 -47.5q-57 0 -102.5 20.5t-77 56.5t-48 85.5t-16.5 108.5t17 109t48.5 86t77 56t101.5 20q89 0 145.5 -47t70.5 -122h-72q-12 44 -47.5 76t-96.5 32q-71 0 -121 -52
t-50 -141zM295 632h-2q-20 0 -33.5 13.5t-13.5 32.5q0 20 13.5 33.5t33.5 13.5h2q20 0 33.5 -13.5t13.5 -33.5q0 -19 -13.5 -32.5t-33.5 -13.5z" />
    <glyph glyph-name="Ccaron" unicode="&#x10c;" horiz-adv-x="684" 
d="M368 51q84 0 134 43.5t64 106.5h79q-20 -96 -92.5 -155.5t-182.5 -59.5q-78 0 -137.5 29.5t-99 79.5t-59.5 116.5t-20 140.5t20 140.5t59.5 116.5t99 80t137.5 30q109 0 180 -57t93 -150h-80q-16 63 -64.5 102.5t-129.5 39.5q-49 0 -92.5 -18.5t-76 -54.5t-51.5 -88.5
t-19 -120.5v-39q0 -68 19 -120.5t51.5 -88.5t75.5 -54.5t92 -18.5zM211 932h74l85 -102h4l84 102h65l-119 -140h-75z" />
    <glyph glyph-name="ccaron" unicode="&#x10d;" horiz-adv-x="555" 
d="M122 274v-34q0 -88 50 -140.5t121 -52.5q60 0 96 32.5t49 79.5h72q-16 -78 -72.5 -125.5t-144.5 -47.5q-57 0 -102.5 20.5t-77 56.5t-48 85.5t-16.5 108.5t17 109t48.5 86t77 56t101.5 20q89 0 145.5 -47t70.5 -122h-72q-12 44 -47.5 76t-96.5 32q-71 0 -121 -52
t-50 -141zM134 742h74l85 -102h4l84 102h65l-119 -140h-75z" />
    <glyph glyph-name="Dcaron" unicode="&#x10e;" horiz-adv-x="707" 
d="M337 704q79 0 139 -28.5t99 -76.5t58.5 -112t19.5 -135t-19.5 -135t-58.5 -112t-99 -76.5t-139 -28.5h-240v704h240zM338 639h-166v-574h166q49 0 92.5 18t76 51.5t51.5 83.5t19 114v40q0 64 -19 114t-51.5 83.5t-76 51.5t-92.5 18zM176 929h74l85 -102h4l84 102h65
l-119 -140h-75z" />
    <glyph glyph-name="dcaron" unicode="&#x10f;" horiz-adv-x="644" 
d="M532 0h-69v104h-1q-24 -54 -71 -86t-113 -32q-53 0 -95.5 20.5t-72 56.5t-45.5 86t-16 108q0 59 16.5 108.5t46 85.5t72 56.5t94.5 20.5q63 0 110 -30.5t71 -83.5h1v328h72v-742zM122 240q0 -46 13.5 -82t36.5 -60.5t54 -37.5t65 -13q35 0 66 13.5t53.5 38.5t36 61
t13.5 80v34q0 44 -13.5 80t-36 61t-53.5 38.5t-66 13.5q-34 0 -65 -13t-54 -38t-36.5 -61t-13.5 -81v-34zM672 747h82l-104 -140h-59z" />
    <glyph glyph-name="Dcroat" unicode="&#x110;" horiz-adv-x="719" 
d="M30 334v65h79v305h240q79 0 139 -28.5t99 -76.5t58.5 -112t19.5 -135t-19.5 -135t-58.5 -112t-99 -76.5t-139 -28.5h-240v334h-79zM350 639h-166v-240h190v-65h-190v-269h166q49 0 92.5 18t76 51.5t51.5 83.5t19 114v40q0 64 -19 114t-51.5 83.5t-76 51.5t-92.5 18z" />
    <glyph glyph-name="dslash" unicode="&#x111;" horiz-adv-x="619" 
d="M532 0h-69v104h-1q-24 -54 -71 -86t-113 -32q-53 0 -95.5 20.5t-72 56.5t-45.5 86t-16 108q0 59 16.5 108.5t46 85.5t72 56.5t94.5 20.5q63 0 110 -30.5t71 -83.5h1v190h-136v51h136v87h72v-87h87v-51h-87v-604zM122 240q0 -46 13.5 -82t36.5 -60.5t54 -37.5t65 -13
q35 0 66 13.5t53.5 38.5t36 61t13.5 80v34q0 44 -13.5 80t-36 61t-53.5 38.5t-66 13.5q-34 0 -65 -13t-54 -38t-36.5 -61t-13.5 -81v-34z" />
    <glyph glyph-name="Emacron" unicode="&#x112;" horiz-adv-x="619" 
d="M97 704h467v-65h-392v-242h362v-64h-362v-268h392v-65h-467v704zM212 885h261v-49h-261v49z" />
    <glyph glyph-name="emacron" unicode="&#x113;" horiz-adv-x="574" 
d="M293 -14q-58 0 -103.5 20.5t-76.5 56.5t-47.5 86t-16.5 108q0 59 17.5 109t49 86t76 56t98.5 20q55 0 99 -19.5t73.5 -54t45.5 -82.5t16 -104v-26h-402v-5q0 -88 49.5 -140.5t122.5 -52.5q66 0 102.5 33t43.5 70h75q-15 -70 -73.5 -115.5t-148.5 -45.5zM290 470
q-64 0 -112.5 -46.5t-54.5 -126.5h328q-2 81 -47 127t-114 46zM158 695h261v-49h-261v49z" />
    <glyph glyph-name="Ebreve" unicode="&#x114;" horiz-adv-x="619" 
d="M97 704h467v-65h-392v-242h362v-64h-362v-268h392v-65h-467v704zM340 792q-69 0 -106 41.5t-37 98.5h59q0 -45 23.5 -69t63.5 -24q43 0 66.5 25t23.5 68h57q0 -57 -38 -98.5t-107 -41.5h-5z" />
    <glyph glyph-name="ebreve" unicode="&#x115;" horiz-adv-x="574" 
d="M293 -14q-58 0 -103.5 20.5t-76.5 56.5t-47.5 86t-16.5 108q0 59 17.5 109t49 86t76 56t98.5 20q55 0 99 -19.5t73.5 -54t45.5 -82.5t16 -104v-26h-402v-5q0 -88 49.5 -140.5t122.5 -52.5q66 0 102.5 33t43.5 70h75q-15 -70 -73.5 -115.5t-148.5 -45.5zM290 470
q-64 0 -112.5 -46.5t-54.5 -126.5h328q-2 81 -47 127t-114 46zM286 602q-69 0 -106 41.5t-37 98.5h59q0 -45 23.5 -69t63.5 -24q43 0 66.5 25t23.5 68h57q0 -57 -38 -98.5t-107 -41.5h-5z" />
    <glyph glyph-name="Edotaccent" unicode="&#x116;" horiz-adv-x="619" 
d="M97 704h467v-65h-392v-242h362v-64h-362v-268h392v-65h-467v704zM344 822h-2q-20 0 -33.5 13.5t-13.5 32.5q0 20 13.5 33.5t33.5 13.5h2q20 0 33.5 -13.5t13.5 -33.5q0 -19 -13.5 -32.5t-33.5 -13.5z" />
    <glyph glyph-name="edotaccent" unicode="&#x117;" horiz-adv-x="574" 
d="M293 -14q-58 0 -103.5 20.5t-76.5 56.5t-47.5 86t-16.5 108q0 59 17.5 109t49 86t76 56t98.5 20q55 0 99 -19.5t73.5 -54t45.5 -82.5t16 -104v-26h-402v-5q0 -88 49.5 -140.5t122.5 -52.5q66 0 102.5 33t43.5 70h75q-15 -70 -73.5 -115.5t-148.5 -45.5zM290 470
q-64 0 -112.5 -46.5t-54.5 -126.5h328q-2 81 -47 127t-114 46zM290 632h-2q-20 0 -33.5 13.5t-13.5 32.5q0 20 13.5 33.5t33.5 13.5h2q20 0 33.5 -13.5t13.5 -33.5q0 -19 -13.5 -32.5t-33.5 -13.5z" />
    <glyph glyph-name="Eogonek" unicode="&#x118;" horiz-adv-x="619" 
d="M97 704h467v-65h-392v-242h362v-64h-362v-268h392v-65h-467v704zM564 26v-26q-46 -28 -68.5 -52t-22.5 -49q0 -21 16.5 -35t50.5 -14h61v-53h-71q-56 0 -83.5 26.5t-27.5 61.5q0 40 37.5 75t107.5 66z" />
    <glyph glyph-name="eogonek" unicode="&#x119;" horiz-adv-x="574" 
d="M293 -14q-58 0 -103.5 20.5t-76.5 56.5t-47.5 86t-16.5 108q0 59 17.5 109t49 86t76 56t98.5 20q55 0 99 -19.5t73.5 -54t45.5 -82.5t16 -104v-26h-402v-5q0 -88 49.5 -140.5t122.5 -52.5q66 0 102.5 33t43.5 70h75q-15 -70 -73.5 -115.5t-148.5 -45.5zM290 470
q-64 0 -112.5 -46.5t-54.5 -126.5h328q-2 81 -47 127t-114 46zM338 26v-26q-46 -28 -68.5 -52t-22.5 -49q0 -21 16.5 -35t50.5 -14h61v-53h-71q-56 0 -83.5 26.5t-27.5 61.5q0 40 37.5 75t107.5 66z" />
    <glyph glyph-name="Ecaron" unicode="&#x11a;" horiz-adv-x="619" 
d="M97 704h467v-65h-392v-242h362v-64h-362v-268h392v-65h-467v704zM183 932h74l85 -102h4l84 102h65l-119 -140h-75z" />
    <glyph glyph-name="ecaron" unicode="&#x11b;" horiz-adv-x="574" 
d="M293 -14q-58 0 -103.5 20.5t-76.5 56.5t-47.5 86t-16.5 108q0 59 17.5 109t49 86t76 56t98.5 20q55 0 99 -19.5t73.5 -54t45.5 -82.5t16 -104v-26h-402v-5q0 -88 49.5 -140.5t122.5 -52.5q66 0 102.5 33t43.5 70h75q-15 -70 -73.5 -115.5t-148.5 -45.5zM290 470
q-64 0 -112.5 -46.5t-54.5 -126.5h328q-2 81 -47 127t-114 46zM130 742h74l85 -102h4l84 102h65l-119 -140h-75z" />
    <glyph glyph-name="Gcircumflex" unicode="&#x11c;" horiz-adv-x="719" 
d="M592 0v151h-1q-17 -70 -76 -117.5t-152 -47.5q-78 0 -136 29.5t-96.5 79.5t-57.5 116.5t-19 140.5t20.5 141t60 117t99.5 79.5t138 29.5q113 0 184.5 -55t93.5 -147h-82q-14 60 -63 98.5t-131 38.5q-50 0 -94.5 -18.5t-77.5 -54.5t-52.5 -88.5t-19.5 -120.5v-40
q0 -68 19 -120.5t51.5 -88.5t76.5 -54.5t93 -18.5q56 0 96.5 20t66 54t38 78.5t12.5 92.5h-231v63h303v-358h-63zM536 792h-74l-85 102h-4l-84 -102h-65l119 140h75z" />
    <glyph glyph-name="gcircumflex" unicode="&#x11d;" horiz-adv-x="606" 
d="M67 -49h74q7 -34 41 -66t105 -32q86 0 126.5 47.5t40.5 131.5v90h-1q-25 -51 -70 -81t-109 -30q-50 0 -92 19.5t-71.5 54t-45.5 82t-16 103.5q0 55 15.5 102.5t44.5 82t71 54t94 19.5q67 0 112.5 -30.5t68.5 -82.5h1v99h70v-480q0 -116 -63.5 -178t-176.5 -62
q-48 0 -86 12.5t-65.5 34t-44.5 50t-23 60.5zM122 284v-29q0 -43 13.5 -77t36 -57.5t52.5 -36t64 -12.5t64 13t52.5 36.5t36 57.5t13.5 76v29q0 41 -13.5 75t-36 58t-52.5 37t-64 13t-64 -12.5t-52.5 -35.5t-36 -57.5t-13.5 -77.5zM448 602h-74l-85 102h-4l-84 -102h-65
l119 140h75z" />
    <glyph glyph-name="Gbreve" unicode="&#x11e;" horiz-adv-x="719" 
d="M592 0v151h-1q-17 -70 -76 -117.5t-152 -47.5q-78 0 -136 29.5t-96.5 79.5t-57.5 116.5t-19 140.5t20.5 141t60 117t99.5 79.5t138 29.5q113 0 184.5 -55t93.5 -147h-82q-14 60 -63 98.5t-131 38.5q-50 0 -94.5 -18.5t-77.5 -54.5t-52.5 -88.5t-19.5 -120.5v-40
q0 -68 19 -120.5t51.5 -88.5t76.5 -54.5t93 -18.5q56 0 96.5 20t66 54t38 78.5t12.5 92.5h-231v63h303v-358h-63zM370 792q-69 0 -106 41.5t-37 98.5h59q0 -45 23.5 -69t63.5 -24q43 0 66.5 25t23.5 68h57q0 -57 -38 -98.5t-107 -41.5h-5z" />
    <glyph glyph-name="gbreve" unicode="&#x11f;" horiz-adv-x="606" 
d="M67 -49h74q7 -34 41 -66t105 -32q86 0 126.5 47.5t40.5 131.5v90h-1q-25 -51 -70 -81t-109 -30q-50 0 -92 19.5t-71.5 54t-45.5 82t-16 103.5q0 55 15.5 102.5t44.5 82t71 54t94 19.5q67 0 112.5 -30.5t68.5 -82.5h1v99h70v-480q0 -116 -63.5 -178t-176.5 -62
q-48 0 -86 12.5t-65.5 34t-44.5 50t-23 60.5zM122 284v-29q0 -43 13.5 -77t36 -57.5t52.5 -36t64 -12.5t64 13t52.5 36.5t36 57.5t13.5 76v29q0 41 -13.5 75t-36 58t-52.5 37t-64 13t-64 -12.5t-52.5 -35.5t-36 -57.5t-13.5 -77.5zM283 602q-69 0 -106 41.5t-37 98.5h59
q0 -45 23.5 -69t63.5 -24q43 0 66.5 25t23.5 68h57q0 -57 -38 -98.5t-107 -41.5h-5z" />
    <glyph glyph-name="Gdotaccent" unicode="&#x120;" horiz-adv-x="719" 
d="M592 0v151h-1q-17 -70 -76 -117.5t-152 -47.5q-78 0 -136 29.5t-96.5 79.5t-57.5 116.5t-19 140.5t20.5 141t60 117t99.5 79.5t138 29.5q113 0 184.5 -55t93.5 -147h-82q-14 60 -63 98.5t-131 38.5q-50 0 -94.5 -18.5t-77.5 -54.5t-52.5 -88.5t-19.5 -120.5v-40
q0 -68 19 -120.5t51.5 -88.5t76.5 -54.5t93 -18.5q56 0 96.5 20t66 54t38 78.5t12.5 92.5h-231v63h303v-358h-63zM375 822h-2q-20 0 -33.5 13.5t-13.5 32.5q0 20 13.5 33.5t33.5 13.5h2q20 0 33.5 -13.5t13.5 -33.5q0 -19 -13.5 -32.5t-33.5 -13.5z" />
    <glyph glyph-name="gdotaccent" unicode="&#x121;" horiz-adv-x="606" 
d="M67 -49h74q7 -34 41 -66t105 -32q86 0 126.5 47.5t40.5 131.5v90h-1q-25 -51 -70 -81t-109 -30q-50 0 -92 19.5t-71.5 54t-45.5 82t-16 103.5q0 55 15.5 102.5t44.5 82t71 54t94 19.5q67 0 112.5 -30.5t68.5 -82.5h1v99h70v-480q0 -116 -63.5 -178t-176.5 -62
q-48 0 -86 12.5t-65.5 34t-44.5 50t-23 60.5zM122 284v-29q0 -43 13.5 -77t36 -57.5t52.5 -36t64 -12.5t64 13t52.5 36.5t36 57.5t13.5 76v29q0 41 -13.5 75t-36 58t-52.5 37t-64 13t-64 -12.5t-52.5 -35.5t-36 -57.5t-13.5 -77.5zM288 632h-2q-20 0 -33.5 13.5t-13.5 32.5
q0 20 13.5 33.5t33.5 13.5h2q20 0 33.5 -13.5t13.5 -33.5q0 -19 -13.5 -32.5t-33.5 -13.5z" />
    <glyph glyph-name="uni0122" unicode="&#x122;" horiz-adv-x="719" 
d="M592 0v151h-1q-17 -70 -76 -117.5t-152 -47.5q-78 0 -136 29.5t-96.5 79.5t-57.5 116.5t-19 140.5t20.5 141t60 117t99.5 79.5t138 29.5q113 0 184.5 -55t93.5 -147h-82q-14 60 -63 98.5t-131 38.5q-50 0 -94.5 -18.5t-77.5 -54.5t-52.5 -88.5t-19.5 -120.5v-40
q0 -68 19 -120.5t51.5 -88.5t76.5 -54.5t93 -18.5q56 0 96.5 20t66 54t38 78.5t12.5 92.5h-231v63h303v-358h-63zM337 -71h82l-104 -140h-59z" />
    <glyph glyph-name="uni0123" unicode="&#x123;" horiz-adv-x="606" 
d="M67 -49h74q7 -34 41 -66t105 -32q86 0 126.5 47.5t40.5 131.5v90h-1q-25 -51 -70 -81t-109 -30q-50 0 -92 19.5t-71.5 54t-45.5 82t-16 103.5q0 55 15.5 102.5t44.5 82t71 54t94 19.5q67 0 112.5 -30.5t68.5 -82.5h1v99h70v-480q0 -116 -63.5 -178t-176.5 -62
q-48 0 -86 12.5t-65.5 34t-44.5 50t-23 60.5zM122 284v-29q0 -43 13.5 -77t36 -57.5t52.5 -36t64 -12.5t64 13t52.5 36.5t36 57.5t13.5 76v29q0 41 -13.5 75t-36 58t-52.5 37t-64 13t-64 -12.5t-52.5 -35.5t-36 -57.5t-13.5 -77.5z" />
    <glyph glyph-name="Hcircumflex" unicode="&#x124;" horiz-adv-x="736" 
d="M97 704h75v-305h392v305h75v-704h-75v334h-392v-334h-75v704zM530 792h-74l-85 102h-4l-84 -102h-65l119 140h75z" />
    <glyph glyph-name="hcircumflex" unicode="&#x125;" horiz-adv-x="593" 
d="M154 301v-301h-72v742h70v-316h1q23 51 68.5 76.5t102.5 25.5q39 0 74 -13t61 -39t41.5 -65t15.5 -90v-321h-72v316q0 75 -41 112.5t-98 37.5q-30 0 -57.5 -10t-48 -30.5t-33 -51.5t-12.5 -73zM470 792h-74l-85 102h-4l-84 -102h-65l119 140h75z" />
    <glyph glyph-name="Hbar" unicode="&#x126;" horiz-adv-x="736" 
d="M18 538v60h79v106h75v-106h392v106h75v-106h80v-60h-80v-538h-75v334h-392v-334h-75v538h-79zM172 399h392v139h-392v-139z" />
    <glyph glyph-name="hbar" unicode="&#x127;" horiz-adv-x="601" 
d="M155 301v-301h-72v604h-83v51h83v87h70v-87h142v-51h-142v-178h1q23 51 68.5 76.5t102.5 25.5q39 0 74 -13t61 -39t41.5 -65t15.5 -90v-321h-72v316q0 75 -41 112.5t-98 37.5q-30 0 -57.5 -10t-48 -30.5t-33 -51.5t-12.5 -73z" />
    <glyph glyph-name="Itilde" unicode="&#x128;" horiz-adv-x="270" 
d="M97 704h75v-704h-75v704zM205 792q-31 0 -49 14.5t-32 31.5t-28 31.5t-37 14.5q-24 0 -38.5 -20t-14.5 -65h-41v3q0 60 25.5 94t70.5 34h2q31 0 49.5 -14.5t32.5 -31t28.5 -31t37.5 -14.5q24 0 38.5 19t14.5 64h41v-3q0 -60 -26 -93.5t-72 -33.5h-2z" />
    <glyph glyph-name="itilde" unicode="&#x129;" horiz-adv-x="235" 
d="M82 514h72v-514h-72v514zM188 602q-31 0 -49 14.5t-32 31.5t-28 31.5t-37 14.5q-24 0 -38.5 -20t-14.5 -65h-41v3q0 60 25.5 94t70.5 34h2q31 0 49.5 -14.5t32.5 -31t28.5 -31t37.5 -14.5q24 0 38.5 19t14.5 64h41v-3q0 -60 -26 -93.5t-72 -33.5h-2z" />
    <glyph glyph-name="Imacron" unicode="&#x12a;" horiz-adv-x="270" 
d="M97 704h75v-704h-75v704zM4 885h261v-49h-261v49z" />
    <glyph glyph-name="imacron" unicode="&#x12b;" horiz-adv-x="235" 
d="M82 514h72v-514h-72v514zM-13 695h261v-49h-261v49z" />
    <glyph glyph-name="Ibreve" unicode="&#x12c;" horiz-adv-x="270" 
d="M97 704h75v-704h-75v704zM132 792q-69 0 -106 41.5t-37 98.5h59q0 -45 23.5 -69t63.5 -24q43 0 66.5 25t23.5 68h57q0 -57 -38 -98.5t-107 -41.5h-5z" />
    <glyph glyph-name="ibreve" unicode="&#x12d;" horiz-adv-x="235" 
d="M82 514h72v-514h-72v514zM114 602q-69 0 -106 41.5t-37 98.5h59q0 -45 23.5 -69t63.5 -24q43 0 66.5 25t23.5 68h57q0 -57 -38 -98.5t-107 -41.5h-5z" />
    <glyph glyph-name="Iogonek" unicode="&#x12e;" horiz-adv-x="270" 
d="M97 704h75v-704h-75v704zM168 26v-26q-46 -28 -68.5 -52t-22.5 -49q0 -21 16.5 -35t50.5 -14h61v-53h-71q-56 0 -83.5 26.5t-27.5 61.5q0 40 37.5 75t107.5 66z" />
    <glyph glyph-name="iogonek" unicode="&#x12f;" horiz-adv-x="235" 
d="M120 616h-4q-23 0 -39 15.5t-16 38.5t16 38.5t39 15.5h4q23 0 38.5 -15.5t15.5 -38.5t-15.5 -38.5t-38.5 -15.5zM82 514h72v-514h-72v514zM154 26v-26q-46 -28 -68.5 -52t-22.5 -49q0 -21 16.5 -35t50.5 -14h61v-53h-71q-56 0 -83.5 26.5t-27.5 61.5q0 40 37.5 75
t107.5 66z" />
    <glyph glyph-name="Idotaccent" unicode="&#x130;" horiz-adv-x="270" 
d="M97 704h75v-704h-75v704zM136 822h-2q-20 0 -33.5 13.5t-13.5 32.5q0 20 13.5 33.5t33.5 13.5h2q20 0 33.5 -13.5t13.5 -33.5q0 -19 -13.5 -32.5t-33.5 -13.5z" />
    <glyph glyph-name="dotlessi" unicode="&#x131;" horiz-adv-x="235" 
d="M82 514h72v-514h-72v514z" />
    <glyph glyph-name="IJ" unicode="&#x132;" horiz-adv-x="842" 
d="M97 704h75v-704h-75v704zM539 -15q-53 0 -95 17.5t-70.5 48.5t-43.5 74.5t-15 94.5v57h74v-55q0 -78 39 -125t111 -47q73 0 111 47t38 125v482h75v-484q0 -51 -15 -94.5t-43.5 -74.5t-70.5 -48.5t-95 -17.5z" />
    <glyph glyph-name="ij" unicode="&#x133;" horiz-adv-x="478" 
d="M122 616h-4q-23 0 -39 15.5t-16 38.5t16 38.5t39 15.5h4q23 0 38.5 -15.5t15.5 -38.5t-15.5 -38.5t-38.5 -15.5zM84 514h72v-514h-72v514zM359 616h-4q-23 0 -38.5 15.5t-15.5 38.5t15.5 38.5t38.5 15.5h4q23 0 39 -15.5t16 -38.5t-16 -38.5t-39 -15.5zM321 -74v588h72
v-590q0 -58 -28 -87t-90 -29h-101v61h90q31 0 44 13.5t13 43.5z" />
    <glyph glyph-name="Jcircumflex" unicode="&#x134;" horiz-adv-x="580" 
d="M272 -15q-53 0 -95 17.5t-70.5 48.5t-43.5 74.5t-15 94.5v57h74v-55q0 -78 39 -125t111 -47q73 0 111 47t38 125v482h75v-484q0 -51 -15 -94.5t-43.5 -74.5t-70.5 -48.5t-95 -17.5zM617 793h-74l-85 102h-4l-84 -102h-65l119 140h75z" />
    <glyph glyph-name="jcircumflex" unicode="&#x135;" horiz-adv-x="236" 
d="M82 -74v588h72v-590q0 -58 -28 -87t-90 -29h-102v61h91q31 0 44 13.5t13 43.5zM280 602h-74l-85 102h-4l-84 -102h-65l119 140h75z" />
    <glyph glyph-name="uni0136" unicode="&#x136;" horiz-adv-x="635" 
d="M172 704v-704h-75v704h75zM524 0l-352 357l340 347h95l-341 -342l359 -362h-101zM308 -71h82l-104 -140h-59z" />
    <glyph glyph-name="uni0137" unicode="&#x137;" horiz-adv-x="518" 
d="M154 742v-742h-72v742h72zM496 514l-251 -237l271 -277h-96l-266 274l251 240h91zM247 -71h82l-104 -140h-59z" />
    <glyph glyph-name="kgreenlandic" unicode="&#x138;" horiz-adv-x="508" 
d="M492 514l-247 -241l265 -273h-96l-259 269l246 245h91zM155 514v-514h-73v514h73z" />
    <glyph glyph-name="Lacute" unicode="&#x139;" horiz-adv-x="559" 
d="M97 704h75v-639h367v-65h-442v704zM186 932h82l-104 -140h-59z" />
    <glyph glyph-name="lacute" unicode="&#x13a;" horiz-adv-x="322" 
d="M77 116v626h73v-621q0 -31 13.5 -45.5t45.5 -14.5h94v-61h-107q-62 0 -90.5 29t-28.5 87zM166 932h82l-104 -140h-59z" />
    <glyph glyph-name="uni013B" unicode="&#x13b;" horiz-adv-x="564" 
d="M97 704h75v-639h367v-65h-442v704zM306 -71h82l-104 -140h-59z" />
    <glyph glyph-name="uni013C" unicode="&#x13c;" horiz-adv-x="322" 
d="M77 116v626h73v-621q0 -31 13.5 -45.5t45.5 -14.5h94v-61h-107q-62 0 -90.5 29t-28.5 87zM174 -71h82l-104 -140h-59z" />
    <glyph glyph-name="Lcaron" unicode="&#x13d;" horiz-adv-x="564" 
d="M97 704h75v-639h367v-65h-442v704zM414 709h82l-104 -140h-59z" />
    <glyph glyph-name="lcaron" unicode="&#x13e;" horiz-adv-x="347" 
d="M77 116v626h73v-621q0 -31 13.5 -45.5t45.5 -14.5h94v-61h-107q-62 0 -90.5 29t-28.5 87zM290 747h82l-104 -140h-59z" />
    <glyph glyph-name="Ldot" unicode="&#x13f;" horiz-adv-x="559" 
d="M97 704h75v-639h367v-65h-442v704zM389 360q-25 0 -41.5 16.5t-16.5 41.5t16.5 41.5t41.5 16.5t41.5 -16.5t16.5 -41.5t-16.5 -41.5t-41.5 -16.5z" />
    <glyph glyph-name="ldot" unicode="&#x140;" horiz-adv-x="369" 
d="M77 116v626h73v-621q0 -31 13.5 -45.5t45.5 -14.5h94v-61h-107q-62 0 -90.5 29t-28.5 87z" />
    <glyph glyph-name="Lslash" unicode="&#x141;" horiz-adv-x="591" 
d="M38 257v67l91 35v345h75v-316l201 78v-66l-201 -78v-257h367v-65h-442v292z" />
    <glyph glyph-name="lslash" unicode="&#x142;" horiz-adv-x="369" 
d="M116 116v255l-84 -38v60l84 38v311h73v-278l135 61v-60l-135 -61v-283q0 -31 13.5 -45.5t45.5 -14.5h94v-61h-107q-62 0 -90.5 29t-28.5 87z" />
    <glyph glyph-name="Nacute" unicode="&#x143;" horiz-adv-x="740" 
d="M97 0v704h95l376 -604h1v604h73v-704h-91l-379 612h-1v-612h-74zM436 932h82l-104 -140h-59z" />
    <glyph glyph-name="nacute" unicode="&#x144;" horiz-adv-x="593" 
d="M154 301v-301h-72v514h69v-91h1q22 53 68.5 79t103.5 26q39 0 74 -13t61 -39t41.5 -65t15.5 -90v-321h-72v316q0 75 -41 112.5t-98 37.5q-30 0 -57.5 -10t-48 -30.5t-33 -51.5t-12.5 -73zM360 742h82l-104 -140h-59z" />
    <glyph glyph-name="uni0145" unicode="&#x145;" horiz-adv-x="745" 
d="M97 0v704h95l376 -604h1v604h73v-704h-91l-379 612h-1v-612h-74zM339 -71h82l-104 -140h-59z" />
    <glyph glyph-name="Ncaron" unicode="&#x147;" horiz-adv-x="740" 
d="M97 0v704h95l376 -604h1v604h73v-704h-91l-379 612h-1v-612h-74zM225 932h74l85 -102h4l84 102h65l-119 -140h-75z" />
    <glyph glyph-name="ncaron" unicode="&#x148;" horiz-adv-x="593" 
d="M154 301v-301h-72v514h69v-91h1q22 53 68.5 79t103.5 26q39 0 74 -13t61 -39t41.5 -65t15.5 -90v-321h-72v316q0 75 -41 112.5t-98 37.5q-30 0 -57.5 -10t-48 -30.5t-33 -51.5t-12.5 -73zM150 742h74l85 -102h4l84 102h65l-119 -140h-75z" />
    <glyph glyph-name="napostrophe" unicode="&#x149;" horiz-adv-x="601" 
d="M154 301v-301h-72v514h69v-91h1q22 53 68.5 79t103.5 26q39 0 74 -13t61 -39t41.5 -65t15.5 -90v-321h-72v316q0 75 -41 112.5t-98 37.5q-30 0 -57.5 -10t-48 -30.5t-33 -51.5t-12.5 -73z" />
    <glyph glyph-name="Eng" unicode="&#x14a;" horiz-adv-x="740" 
d="M97 0v704h95l376 -604h1v604h73v-704h-91l-379 612h-1v-612h-74z" />
    <glyph glyph-name="eng" unicode="&#x14b;" horiz-adv-x="601" 
d="M154 301v-301h-72v514h69v-91h1q22 53 68.5 79t103.5 26q39 0 74 -13t61 -39t41.5 -65t15.5 -90v-397q0 -58 -28 -87t-90 -29h-102v61h91q31 0 44 13.5t13 43.5v390q0 75 -41 112.5t-98 37.5q-30 0 -57.5 -10t-48 -30.5t-33 -51.5t-12.5 -73z" />
    <glyph glyph-name="Omacron" unicode="&#x14c;" horiz-adv-x="739" 
d="M370 -14q-79 0 -139 29.5t-99 79.5t-58.5 116.5t-19.5 140.5t19.5 140.5t58.5 116.5t99 80t139 30t138.5 -30t98.5 -80t58.5 -116.5t19.5 -140.5t-19.5 -140.5t-58.5 -116.5t-98.5 -79.5t-138.5 -29.5zM370 51q49 0 92.5 18.5t76 54.5t51.5 88.5t19 120.5v39
q0 68 -19 120.5t-51.5 88.5t-76 54.5t-92.5 18.5t-93 -18.5t-76.5 -54.5t-51.5 -88.5t-19 -120.5v-39q0 -68 19 -120.5t51.5 -88.5t76.5 -54.5t93 -18.5zM239 885h261v-49h-261v49z" />
    <glyph glyph-name="omacron" unicode="&#x14d;" horiz-adv-x="589" 
d="M294 -14q-57 0 -102.5 20.5t-77 56.5t-48.5 86t-17 108q0 59 17.5 108.5t49 85.5t77 56.5t101.5 20.5t101.5 -20.5t77 -56.5t49 -85.5t17.5 -108.5q0 -58 -17 -108t-48.5 -86t-77 -56.5t-102.5 -20.5zM466 240v34q0 45 -13.5 81t-37 60.5t-55 38t-66.5 13.5t-66.5 -13.5
t-55 -38.5t-37 -61t-13.5 -80v-34q0 -44 13.5 -79.5t37 -60.5t55 -39t66.5 -14t66.5 13t55 38t37 61t13.5 81zM163 695h261v-49h-261v49z" />
    <glyph glyph-name="Obreve" unicode="&#x14e;" horiz-adv-x="739" 
d="M370 -14q-79 0 -139 29.5t-99 79.5t-58.5 116.5t-19.5 140.5t19.5 140.5t58.5 116.5t99 80t139 30t138.5 -30t98.5 -80t58.5 -116.5t19.5 -140.5t-19.5 -140.5t-58.5 -116.5t-98.5 -79.5t-138.5 -29.5zM370 51q49 0 92.5 18.5t76 54.5t51.5 88.5t19 120.5v39
q0 68 -19 120.5t-51.5 88.5t-76 54.5t-92.5 18.5t-93 -18.5t-76.5 -54.5t-51.5 -88.5t-19 -120.5v-39q0 -68 19 -120.5t51.5 -88.5t76.5 -54.5t93 -18.5zM366 792q-69 0 -106 41.5t-37 98.5h59q0 -45 23.5 -69t63.5 -24q43 0 66.5 25t23.5 68h57q0 -57 -38 -98.5t-107 -41.5
h-5z" />
    <glyph glyph-name="obreve" unicode="&#x14f;" horiz-adv-x="589" 
d="M294 -14q-57 0 -102.5 20.5t-77 56.5t-48.5 86t-17 108q0 59 17.5 108.5t49 85.5t77 56.5t101.5 20.5t101.5 -20.5t77 -56.5t49 -85.5t17.5 -108.5q0 -58 -17 -108t-48.5 -86t-77 -56.5t-102.5 -20.5zM466 240v34q0 45 -13.5 81t-37 60.5t-55 38t-66.5 13.5t-66.5 -13.5
t-55 -38.5t-37 -61t-13.5 -80v-34q0 -44 13.5 -79.5t37 -60.5t55 -39t66.5 -14t66.5 13t55 38t37 61t13.5 81zM291 602q-69 0 -106 41.5t-37 98.5h59q0 -45 23.5 -69t63.5 -24q43 0 66.5 25t23.5 68h57q0 -57 -38 -98.5t-107 -41.5h-5z" />
    <glyph glyph-name="Ohungarumlaut" unicode="&#x150;" horiz-adv-x="739" 
d="M370 -14q-79 0 -139 29.5t-99 79.5t-58.5 116.5t-19.5 140.5t19.5 140.5t58.5 116.5t99 80t139 30t138.5 -30t98.5 -80t58.5 -116.5t19.5 -140.5t-19.5 -140.5t-58.5 -116.5t-98.5 -79.5t-138.5 -29.5zM370 51q49 0 92.5 18.5t76 54.5t51.5 88.5t19 120.5v39
q0 68 -19 120.5t-51.5 88.5t-76 54.5t-92.5 18.5t-93 -18.5t-76.5 -54.5t-51.5 -88.5t-19 -120.5v-39q0 -68 19 -120.5t51.5 -88.5t76.5 -54.5t93 -18.5zM339 932h77l-105 -140h-53zM502 932h77l-104 -140h-54z" />
    <glyph glyph-name="ohungarumlaut" unicode="&#x151;" horiz-adv-x="589" 
d="M294 -14q-57 0 -102.5 20.5t-77 56.5t-48.5 86t-17 108q0 59 17.5 108.5t49 85.5t77 56.5t101.5 20.5t101.5 -20.5t77 -56.5t49 -85.5t17.5 -108.5q0 -58 -17 -108t-48.5 -86t-77 -56.5t-102.5 -20.5zM466 240v34q0 45 -13.5 81t-37 60.5t-55 38t-66.5 13.5t-66.5 -13.5
t-55 -38.5t-37 -61t-13.5 -80v-34q0 -44 13.5 -79.5t37 -60.5t55 -39t66.5 -14t66.5 13t55 38t37 61t13.5 81zM264 742h77l-105 -140h-53zM427 742h77l-104 -140h-54z" />
    <glyph glyph-name="OE" unicode="&#x152;" horiz-adv-x="1059" 
d="M534 704h467v-65h-392v-242h362v-64h-362v-268h392v-65h-467v704z" />
    <glyph glyph-name="oe" unicode="&#x153;" horiz-adv-x="1001" 
d="M508 370h2q24 72 79 115t130 43q56 0 100 -19.5t74 -54t46 -82.5t16 -104v-27h-410v-4q0 -87 50 -140t126 -53q34 0 60.5 9.5t45 24.5t30 34t14.5 38h75q-16 -70 -74.5 -117t-148.5 -47q-81 0 -135.5 42.5t-78.5 113.5h-2q-24 -71 -79 -113.5t-134 -42.5
q-57 0 -102.5 20.5t-77 56.5t-48.5 86t-17 108q0 59 17.5 108.5t49 85.5t77 56.5t101.5 20.5q78 0 133.5 -43t80.5 -115zM716 470q-66 0 -115.5 -46.5t-54.5 -127.5h336q-2 81 -48 127.5t-118 46.5zM472 240v34q0 45 -14 81t-37.5 60.5t-55.5 38t-68 13.5t-68 -13.5
t-55.5 -38.5t-37.5 -61t-14 -80v-34q0 -44 14 -79.5t37.5 -60.5t55.5 -39t68 -14t68 13t55.5 38t37.5 61t14 81z" />
    <glyph glyph-name="Racute" unicode="&#x154;" horiz-adv-x="663" 
d="M97 0v704h290q107 0 166.5 -54.5t59.5 -145.5q0 -90 -58.5 -143t-165.5 -53h-114l363 -308h-111l-354 308h-1v-308h-75zM537 497v13q0 59 -38 94.5t-114 35.5h-213v-272h213q76 0 114 35.5t38 93.5zM372 932h82l-104 -140h-59z" />
    <glyph glyph-name="racute" unicode="&#x155;" horiz-adv-x="394" 
d="M82 0v514h69v-85h1q13 35 47 62t97 27h73v-68h-87q-76 0 -102 -44t-26 -103v-303h-72zM272 742h82l-104 -140h-59z" />
    <glyph glyph-name="uni0156" unicode="&#x156;" horiz-adv-x="668" 
d="M97 0v704h290q107 0 166.5 -54.5t59.5 -145.5q0 -90 -58.5 -143t-165.5 -53h-114l363 -308h-111l-354 308h-1v-308h-75zM537 497v13q0 59 -38 94.5t-114 35.5h-213v-272h213q76 0 114 35.5t38 93.5zM321 -71h82l-104 -140h-59z" />
    <glyph glyph-name="uni0157" unicode="&#x157;" horiz-adv-x="394" 
d="M82 0v514h69v-85h1q13 35 47 62t97 27h73v-68h-87q-76 0 -102 -44t-26 -103v-303h-72zM86 -71h82l-104 -140h-59z" />
    <glyph glyph-name="Rcaron" unicode="&#x158;" horiz-adv-x="663" 
d="M97 0v704h290q107 0 166.5 -54.5t59.5 -145.5q0 -90 -58.5 -143t-165.5 -53h-114l363 -308h-111l-354 308h-1v-308h-75zM537 497v13q0 59 -38 94.5t-114 35.5h-213v-272h213q76 0 114 35.5t38 93.5zM162 932h74l85 -102h4l84 102h65l-119 -140h-75z" />
    <glyph glyph-name="rcaron" unicode="&#x159;" horiz-adv-x="394" 
d="M82 0v514h69v-85h1q13 35 47 62t97 27h73v-68h-87q-76 0 -102 -44t-26 -103v-303h-72zM62 742h74l85 -102h4l84 102h65l-119 -140h-75z" />
    <glyph glyph-name="Sacute" unicode="&#x15a;" horiz-adv-x="629" 
d="M315 -14q-64 0 -114 16t-84.5 43.5t-54 66t-21.5 83.5h76q4 -69 57 -108t142 -39q86 0 138 39t52 103q0 56 -37.5 85t-106.5 39l-105 17q-85 13 -141 57t-56 132q0 41 17 77.5t49 63.5t80 42.5t110 15.5q63 0 110 -16t78.5 -42.5t48 -62t18.5 -73.5h-76q-4 57 -49.5 94.5
t-130.5 37.5q-87 0 -133.5 -38.5t-46.5 -95.5q0 -56 39 -84t102 -38l104 -17q90 -14 145.5 -58.5t55.5 -131.5q0 -93 -73.5 -150.5t-192.5 -57.5zM367 932h82l-104 -140h-59z" />
    <glyph glyph-name="sacute" unicode="&#x15b;" horiz-adv-x="508" 
d="M40 148h74q2 -54 43 -80t102 -26q60 0 97 26t37 70q0 39 -28.5 59t-78.5 27l-81 12q-69 10 -108.5 45t-39.5 97q0 67 55.5 109t142.5 42q48 0 84.5 -12.5t61 -33t38 -48.5t14.5 -58h-73q-2 43 -35 69.5t-91 26.5q-57 0 -91 -25t-34 -65q0 -36 24.5 -56t73.5 -27l81 -11
q78 -12 117.5 -49.5t39.5 -96.5q0 -73 -58 -115.5t-150 -42.5q-100 0 -157 45.5t-60 117.5zM306 742h82l-104 -140h-59z" />
    <glyph glyph-name="Scircumflex" unicode="&#x15c;" horiz-adv-x="629" 
d="M315 -14q-64 0 -114 16t-84.5 43.5t-54 66t-21.5 83.5h76q4 -69 57 -108t142 -39q86 0 138 39t52 103q0 56 -37.5 85t-106.5 39l-105 17q-85 13 -141 57t-56 132q0 41 17 77.5t49 63.5t80 42.5t110 15.5q63 0 110 -16t78.5 -42.5t48 -62t18.5 -73.5h-76q-4 57 -49.5 94.5
t-130.5 37.5q-87 0 -133.5 -38.5t-46.5 -95.5q0 -56 39 -84t102 -38l104 -17q90 -14 145.5 -58.5t55.5 -131.5q0 -93 -73.5 -150.5t-192.5 -57.5zM478 792h-74l-85 102h-4l-84 -102h-65l119 140h75z" />
    <glyph glyph-name="scircumflex" unicode="&#x15d;" horiz-adv-x="508" 
d="M40 148h74q2 -54 43 -80t102 -26q60 0 97 26t37 70q0 39 -28.5 59t-78.5 27l-81 12q-69 10 -108.5 45t-39.5 97q0 67 55.5 109t142.5 42q48 0 84.5 -12.5t61 -33t38 -48.5t14.5 -58h-73q-2 43 -35 69.5t-91 26.5q-57 0 -91 -25t-34 -65q0 -36 24.5 -56t73.5 -27l81 -11
q78 -12 117.5 -49.5t39.5 -96.5q0 -73 -58 -115.5t-150 -42.5q-100 0 -157 45.5t-60 117.5zM417 602h-74l-85 102h-4l-84 -102h-65l119 140h75z" />
    <glyph glyph-name="Scedilla" unicode="&#x15e;" horiz-adv-x="629" 
d="M315 -14q-64 0 -114 16t-84.5 43.5t-54 66t-21.5 83.5h76q4 -69 57 -108t142 -39q86 0 138 39t52 103q0 56 -37.5 85t-106.5 39l-105 17q-85 13 -141 57t-56 132q0 41 17 77.5t49 63.5t80 42.5t110 15.5q63 0 110 -16t78.5 -42.5t48 -62t18.5 -73.5h-76q-4 57 -49.5 94.5
t-130.5 37.5q-87 0 -133.5 -38.5t-46.5 -95.5q0 -56 39 -84t102 -38l104 -17q90 -14 145.5 -58.5t55.5 -131.5q0 -93 -73.5 -150.5t-192.5 -57.5zM228 -217v40h69q25 0 48 9.5t23 34.5q0 23 -19.5 33.5t-54.5 10.5h-28v29l30 72h44l-26 -66q45 0 77.5 -18.5t32.5 -57.5
q0 -45 -35 -65.5t-79 -21.5h-82z" />
    <glyph glyph-name="scedilla" unicode="&#x15f;" horiz-adv-x="508" 
d="M40 148h74q2 -54 43 -80t102 -26q60 0 97 26t37 70q0 39 -28.5 59t-78.5 27l-81 12q-69 10 -108.5 45t-39.5 97q0 67 55.5 109t142.5 42q48 0 84.5 -12.5t61 -33t38 -48.5t14.5 -58h-73q-2 43 -35 69.5t-91 26.5q-57 0 -91 -25t-34 -65q0 -36 24.5 -56t73.5 -27l81 -11
q78 -12 117.5 -49.5t39.5 -96.5q0 -73 -58 -115.5t-150 -42.5q-100 0 -157 45.5t-60 117.5zM169 -217v40h69q25 0 48 9.5t23 34.5q0 23 -19.5 33.5t-54.5 10.5h-28v29l30 72h44l-26 -66q45 0 77.5 -18.5t32.5 -57.5q0 -45 -35 -65.5t-79 -21.5h-82z" />
    <glyph glyph-name="Scaron" unicode="&#x160;" horiz-adv-x="629" 
d="M315 -14q-64 0 -114 16t-84.5 43.5t-54 66t-21.5 83.5h76q4 -69 57 -108t142 -39q86 0 138 39t52 103q0 56 -37.5 85t-106.5 39l-105 17q-85 13 -141 57t-56 132q0 41 17 77.5t49 63.5t80 42.5t110 15.5q63 0 110 -16t78.5 -42.5t48 -62t18.5 -73.5h-76q-4 57 -49.5 94.5
t-130.5 37.5q-87 0 -133.5 -38.5t-46.5 -95.5q0 -56 39 -84t102 -38l104 -17q90 -14 145.5 -58.5t55.5 -131.5q0 -93 -73.5 -150.5t-192.5 -57.5zM156 932h74l85 -102h4l84 102h65l-119 -140h-75z" />
    <glyph glyph-name="scaron" unicode="&#x161;" horiz-adv-x="508" 
d="M40 148h74q2 -54 43 -80t102 -26q60 0 97 26t37 70q0 39 -28.5 59t-78.5 27l-81 12q-69 10 -108.5 45t-39.5 97q0 67 55.5 109t142.5 42q48 0 84.5 -12.5t61 -33t38 -48.5t14.5 -58h-73q-2 43 -35 69.5t-91 26.5q-57 0 -91 -25t-34 -65q0 -36 24.5 -56t73.5 -27l81 -11
q78 -12 117.5 -49.5t39.5 -96.5q0 -73 -58 -115.5t-150 -42.5q-100 0 -157 45.5t-60 117.5zM96 742h74l85 -102h4l84 102h65l-119 -140h-75z" />
    <glyph glyph-name="Tcedilla" unicode="&#x162;" horiz-adv-x="587" 
d="M256 639h-241v65h558v-65h-242v-639h-75v639zM205 -217v40h69q25 0 48 9.5t23 34.5q0 23 -19.5 33.5t-54.5 10.5h-28v29l30 72h44l-26 -66q45 0 77.5 -18.5t32.5 -57.5q0 -45 -35 -65.5t-79 -21.5h-82z" />
    <glyph glyph-name="tcedilla" unicode="&#x163;" horiz-adv-x="420" 
d="M19 514h120v158h73v-158h173v-61h-173v-334q0 -31 12.5 -44.5t43.5 -13.5h117v-61h-127q-62 0 -90.5 29t-28.5 87v337h-120v61zM141 -217v40h69q25 0 48 9.5t23 34.5q0 23 -19.5 33.5t-54.5 10.5h-28v29l30 72h44l-26 -66q45 0 77.5 -18.5t32.5 -57.5q0 -45 -35 -65.5
t-79 -21.5h-82z" />
    <glyph glyph-name="Tcaron" unicode="&#x164;" horiz-adv-x="587" 
d="M256 639h-241v65h558v-65h-242v-639h-75v639zM134 932h74l85 -102h4l84 102h65l-119 -140h-75z" />
    <glyph glyph-name="tcaron" unicode="&#x165;" horiz-adv-x="420" 
d="M19 514h120v158h73v-158h173v-61h-173v-334q0 -31 12.5 -44.5t43.5 -13.5h117v-61h-127q-62 0 -90.5 29t-28.5 87v337h-120v61zM373 747h82l-104 -140h-59z" />
    <glyph glyph-name="Tbar" unicode="&#x166;" horiz-adv-x="587" 
d="M65 324v65h191v250h-241v65h558v-65h-242v-250h191v-65h-191v-324h-75v324h-191z" />
    <glyph glyph-name="tbar" unicode="&#x167;" horiz-adv-x="423" 
d="M19 240v58h120v155h-120v61h120v158h73v-158h173v-61h-173v-155h176v-58h-176v-121q0 -31 12.5 -44.5t43.5 -13.5h117v-61h-127q-62 0 -90.5 29t-28.5 87v124h-120z" />
    <glyph glyph-name="Utilde" unicode="&#x168;" horiz-adv-x="705" 
d="M352 -15q-63 0 -113 19t-83.5 53t-51 81t-17.5 103v463h75v-461q0 -87 49 -140t141 -53q93 0 142 53t49 140v461h74v-463q0 -56 -17.5 -103t-51 -81t-83.5 -53t-113 -19zM424 793q-31 0 -49 14.5t-32 31.5t-28 31.5t-37 14.5q-24 0 -38.5 -20t-14.5 -65h-41v3
q0 60 25.5 94t70.5 34h2q31 0 49.5 -14.5t32.5 -31t28.5 -31t37.5 -14.5q24 0 38.5 19t14.5 64h41v-3q0 -60 -26 -93.5t-72 -33.5h-2z" />
    <glyph glyph-name="utilde" unicode="&#x169;" horiz-adv-x="593" 
d="M438 213v301h72v-514h-69v91h-1q-22 -53 -68.5 -79t-103.5 -26q-39 0 -74 13t-61 39t-41.5 65t-15.5 90v321h72v-316q0 -75 41 -112.5t98 -37.5q30 0 57.5 10t48 30.5t33 51.5t12.5 73zM360 602q-31 0 -49 14.5t-32 31.5t-28 31.5t-37 14.5q-24 0 -38.5 -20t-14.5 -65
h-41v3q0 60 25.5 94t70.5 34h2q31 0 49.5 -14.5t32.5 -31t28.5 -31t37.5 -14.5q24 0 38.5 19t14.5 64h41v-3q0 -60 -26 -93.5t-72 -33.5h-2z" />
    <glyph glyph-name="Umacron" unicode="&#x16a;" horiz-adv-x="705" 
d="M352 -15q-63 0 -113 19t-83.5 53t-51 81t-17.5 103v463h75v-461q0 -87 49 -140t141 -53q93 0 142 53t49 140v461h74v-463q0 -56 -17.5 -103t-51 -81t-83.5 -53t-113 -19zM223 886h261v-49h-261v49z" />
    <glyph glyph-name="umacron" unicode="&#x16b;" horiz-adv-x="593" 
d="M438 213v301h72v-514h-69v91h-1q-22 -53 -68.5 -79t-103.5 -26q-39 0 -74 13t-61 39t-41.5 65t-15.5 90v321h72v-316q0 -75 41 -112.5t98 -37.5q30 0 57.5 10t48 30.5t33 51.5t12.5 73zM159 695h261v-49h-261v49z" />
    <glyph glyph-name="Ubreve" unicode="&#x16c;" horiz-adv-x="705" 
d="M352 -15q-63 0 -113 19t-83.5 53t-51 81t-17.5 103v463h75v-461q0 -87 49 -140t141 -53q93 0 142 53t49 140v461h74v-463q0 -56 -17.5 -103t-51 -81t-83.5 -53t-113 -19zM350 793q-69 0 -106 41.5t-37 98.5h59q0 -45 23.5 -69t63.5 -24q43 0 66.5 25t23.5 68h57
q0 -57 -38 -98.5t-107 -41.5h-5z" />
    <glyph glyph-name="ubreve" unicode="&#x16d;" horiz-adv-x="593" 
d="M438 213v301h72v-514h-69v91h-1q-22 -53 -68.5 -79t-103.5 -26q-39 0 -74 13t-61 39t-41.5 65t-15.5 90v321h72v-316q0 -75 41 -112.5t98 -37.5q30 0 57.5 10t48 30.5t33 51.5t12.5 73zM287 602q-69 0 -106 41.5t-37 98.5h59q0 -45 23.5 -69t63.5 -24q43 0 66.5 25
t23.5 68h57q0 -57 -38 -98.5t-107 -41.5h-5z" />
    <glyph glyph-name="Uring" unicode="&#x16e;" horiz-adv-x="705" 
d="M352 -15q-63 0 -113 19t-83.5 53t-51 81t-17.5 103v463h75v-461q0 -87 49 -140t141 -53q93 0 142 53t49 140v461h74v-463q0 -56 -17.5 -103t-51 -81t-83.5 -53t-113 -19zM354 771q-45 0 -78 28t-33 75t33 75t78 28t77.5 -28t32.5 -75t-32.5 -75t-77.5 -28zM354 811
q27 0 46.5 16t19.5 47t-19.5 47t-46.5 16q-28 0 -47 -16t-19 -47t19 -47t47 -16z" />
    <glyph glyph-name="uring" unicode="&#x16f;" horiz-adv-x="593" 
d="M438 213v301h72v-514h-69v91h-1q-22 -53 -68.5 -79t-103.5 -26q-39 0 -74 13t-61 39t-41.5 65t-15.5 90v321h72v-316q0 -75 41 -112.5t98 -37.5q30 0 57.5 10t48 30.5t33 51.5t12.5 73zM291 580q-45 0 -78 28t-33 75t33 75t78 28t77.5 -28t32.5 -75t-32.5 -75t-77.5 -28z
M291 620q27 0 46.5 16t19.5 47t-19.5 47t-46.5 16q-28 0 -47 -16t-19 -47t19 -47t47 -16z" />
    <glyph glyph-name="Uhungarumlaut" unicode="&#x170;" horiz-adv-x="705" 
d="M352 -15q-63 0 -113 19t-83.5 53t-51 81t-17.5 103v463h75v-461q0 -87 49 -140t141 -53q93 0 142 53t49 140v461h74v-463q0 -56 -17.5 -103t-51 -81t-83.5 -53t-113 -19zM323 933h77l-105 -140h-53zM486 933h77l-104 -140h-54z" />
    <glyph glyph-name="uhungarumlaut" unicode="&#x171;" horiz-adv-x="593" 
d="M438 213v301h72v-514h-69v91h-1q-22 -53 -68.5 -79t-103.5 -26q-39 0 -74 13t-61 39t-41.5 65t-15.5 90v321h72v-316q0 -75 41 -112.5t98 -37.5q30 0 57.5 10t48 30.5t33 51.5t12.5 73zM260 742h77l-105 -140h-53zM423 742h77l-104 -140h-54z" />
    <glyph glyph-name="Uogonek" unicode="&#x172;" horiz-adv-x="705" 
d="M352 -15q-63 0 -113 19t-83.5 53t-51 81t-17.5 103v463h75v-461q0 -87 49 -140t141 -53q93 0 142 53t49 140v461h74v-463q0 -56 -17.5 -103t-51 -81t-83.5 -53t-113 -19zM401 26v-26q-46 -28 -68.5 -52t-22.5 -49q0 -21 16.5 -35t50.5 -14h61v-53h-71q-56 0 -83.5 26.5
t-27.5 61.5q0 40 37.5 75t107.5 66z" />
    <glyph glyph-name="uogonek" unicode="&#x173;" horiz-adv-x="593" 
d="M438 213v301h72v-514h-69v91h-1q-22 -53 -68.5 -79t-103.5 -26q-39 0 -74 13t-61 39t-41.5 65t-15.5 90v321h72v-316q0 -75 41 -112.5t98 -37.5q30 0 57.5 10t48 30.5t33 51.5t12.5 73zM499 26v-26q-46 -28 -68.5 -52t-22.5 -49q0 -21 16.5 -35t50.5 -14h61v-53h-71
q-56 0 -83.5 26.5t-27.5 61.5q0 40 37.5 75t107.5 66z" />
    <glyph glyph-name="Wcircumflex" unicode="&#x174;" horiz-adv-x="939" 
d="M19 704h79l168 -599h2l164 599h81l168 -600h2l164 600h73l-197 -704h-81l-171 604h-2l-166 -604h-80zM633 792h-74l-85 102h-4l-84 -102h-65l119 140h75z" />
    <glyph glyph-name="wcircumflex" unicode="&#x175;" horiz-adv-x="800" 
d="M20 514h76l134 -426h1l133 426h76l137 -425h1l131 425h71l-165 -514h-77l-137 426h-1l-135 -426h-75zM564 602h-74l-85 102h-4l-84 -102h-65l119 140h75z" />
    <glyph glyph-name="Ycircumflex" unicode="&#x176;" horiz-adv-x="603" 
d="M266 0v283l-252 421h83l206 -346h2l205 346h82l-252 -421v-283h-74zM465 792h-74l-85 102h-4l-84 -102h-65l119 140h75z" />
    <glyph glyph-name="ycircumflex" unicode="&#x177;" horiz-adv-x="516" 
d="M269 -67q-26 -66 -60.5 -95.5t-111.5 -29.5h-78v61h76q46 0 64.5 15t38.5 63l27 66l-208 501h80l165 -416h1l162 416h74zM426 602h-74l-85 102h-4l-84 -102h-65l119 140h75z" />
    <glyph glyph-name="Ydieresis" unicode="&#x178;" horiz-adv-x="603" 
d="M266 0v283l-252 421h83l206 -346h2l205 346h82l-252 -421v-283h-74zM218 822h-2q-20 0 -33.5 13.5t-13.5 32.5q0 20 13.5 33.5t33.5 13.5h2q20 0 33.5 -13.5t13.5 -33.5q0 -19 -13.5 -32.5t-33.5 -13.5zM393 822h-2q-20 0 -33.5 13.5t-13.5 32.5q0 20 13.5 33.5
t33.5 13.5h2q20 0 33.5 -13.5t13.5 -33.5q0 -19 -13.5 -32.5t-33.5 -13.5z" />
    <glyph glyph-name="Zacute" unicode="&#x179;" horiz-adv-x="583" 
d="M123 65h423v-65h-511v65l413 574h-403v65h490v-65zM346 932h82l-104 -140h-59z" />
    <glyph glyph-name="zacute" unicode="&#x17a;" horiz-adv-x="474" 
d="M38 0v61l301 393h-292v60h375v-61l-301 -392h323v-61h-406zM290 742h82l-104 -140h-59z" />
    <glyph glyph-name="Zdotaccent" unicode="&#x17b;" horiz-adv-x="583" 
d="M123 65h423v-65h-511v65l413 574h-403v65h490v-65zM296 822h-2q-20 0 -33.5 13.5t-13.5 32.5q0 20 13.5 33.5t33.5 13.5h2q20 0 33.5 -13.5t13.5 -33.5q0 -19 -13.5 -32.5t-33.5 -13.5z" />
    <glyph glyph-name="zdotaccent" unicode="&#x17c;" horiz-adv-x="474" 
d="M38 0v61l301 393h-292v60h375v-61l-301 -392h323v-61h-406zM240 632h-2q-20 0 -33.5 13.5t-13.5 32.5q0 20 13.5 33.5t33.5 13.5h2q20 0 33.5 -13.5t13.5 -33.5q0 -19 -13.5 -32.5t-33.5 -13.5z" />
    <glyph glyph-name="Zcaron" unicode="&#x17d;" horiz-adv-x="583" 
d="M123 65h423v-65h-511v65l413 574h-403v65h490v-65zM135 932h74l85 -102h4l84 102h65l-119 -140h-75z" />
    <glyph glyph-name="zcaron" unicode="&#x17e;" horiz-adv-x="474" 
d="M38 0v61l301 393h-292v60h375v-61l-301 -392h323v-61h-406zM80 742h74l85 -102h4l84 102h65l-119 -140h-75z" />
    <glyph glyph-name="uni018F" unicode="&#x18f;" horiz-adv-x="741" 
d="M365 -14q-75 0 -134.5 27.5t-100 75.5t-62.5 114.5t-22 142.5v27h566q-2 58 -18.5 109.5t-47 90t-76 61t-105.5 22.5q-44 0 -80.5 -11.5t-63.5 -31t-45.5 -44.5t-28.5 -52h-80q13 40 38 77t62 64.5t86.5 44t110.5 16.5q76 0 136.5 -27.5t102 -76t63.5 -116t22 -146.5
q0 -78 -22 -145.5t-63.5 -116.5t-101.5 -77t-136 -28zM366 48q57 0 102 22t75.5 58t47 83.5t19.5 98.5h-485q2 -53 19 -100.5t47 -83.5t74 -57t101 -21z" />
    <glyph glyph-name="florin" unicode="&#x192;" horiz-adv-x="575" 
d="M506 422h-188l-78 -446q-10 -58 -43.5 -87t-94.5 -29h-94v60h93q31 0 46.5 13.5t20.5 43.5l78 445h-108v61h120l18 105q10 58 43.5 87t94.5 29h127v-60h-126q-31 0 -46.5 -13.5t-20.5 -43.5l-18 -104h176v-61z" />
    <glyph glyph-name="Nhookleft" unicode="&#x19d;" horiz-adv-x="729" 
d="M97 0v704h95l376 -604h1v604h73v-704h-91l-379 612h-1v-612h-74zM97 -74v588h72v-590q0 -58 -28 -87t-90 -29h-102v61h91q31 0 44 13.5t13 43.5z" />
    <glyph glyph-name="uni01B5" unicode="&#x1b5;" horiz-adv-x="583" 
d="M123 65h423v-65h-511v65l189 263h-159v63h205l178 248h-403v65h490v-65l-178 -248h168v-63h-213z" />
    <glyph glyph-name="uni01B6" unicode="&#x1b6;" horiz-adv-x="496" 
d="M38 0v61l132 172h-102v57h146l125 164h-292v60h375v-61l-125 -163h146v-57h-190l-132 -172h323v-61h-406z" />
    <glyph glyph-name="Acaron" unicode="&#x1cd;" horiz-adv-x="655" 
d="M565 0l-73 190h-333l-72 -190h-79l275 704h84l280 -704h-82zM322 624l-139 -369h284l-143 369h-2zM167 932h74l85 -102h4l84 102h65l-119 -140h-75z" />
    <glyph glyph-name="acaron" unicode="&#x1ce;" horiz-adv-x="550" 
d="M65 374q6 66 58 110t145 44q89 0 141.5 -42.5t52.5 -123.5v-259q0 -26 10.5 -34.5t30.5 -8.5h32v-60h-52q-46 0 -66 20.5t-19 63.5v12h-1q-19 -48 -65.5 -79t-112.5 -31q-74 0 -124 39.5t-50 110.5q0 68 48 105.5t125 50.5l85 15q42 7 63 23t21 48q0 34 -26.5 63.5
t-92.5 29.5q-60 0 -93 -25.5t-38 -71.5h-72zM391 217v76q-7 -12 -25.5 -22.5t-46.5 -15.5l-88 -16q-52 -9 -83 -32t-31 -64v-6q0 -45 32.5 -69t81.5 -24q69 0 114.5 47.5t45.5 125.5zM107 742h74l85 -102h4l84 102h65l-119 -140h-75z" />
    <glyph glyph-name="Icaron" unicode="&#x1cf;" horiz-adv-x="270" 
d="M97 704h75v-704h-75v704zM-24 932h74l85 -102h4l84 102h65l-119 -140h-75z" />
    <glyph glyph-name="icaron" unicode="&#x1d0;" horiz-adv-x="235" 
d="M82 514h72v-514h-72v514zM-42 742h74l85 -102h4l84 102h65l-119 -140h-75z" />
    <glyph glyph-name="Ocaron" unicode="&#x1d1;" horiz-adv-x="739" 
d="M370 -14q-79 0 -139 29.5t-99 79.5t-58.5 116.5t-19.5 140.5t19.5 140.5t58.5 116.5t99 80t139 30t138.5 -30t98.5 -80t58.5 -116.5t19.5 -140.5t-19.5 -140.5t-58.5 -116.5t-98.5 -79.5t-138.5 -29.5zM370 51q49 0 92.5 18.5t76 54.5t51.5 88.5t19 120.5v39
q0 68 -19 120.5t-51.5 88.5t-76 54.5t-92.5 18.5t-93 -18.5t-76.5 -54.5t-51.5 -88.5t-19 -120.5v-39q0 -68 19 -120.5t51.5 -88.5t76.5 -54.5t93 -18.5zM210 932h74l85 -102h4l84 102h65l-119 -140h-75z" />
    <glyph glyph-name="ocaron" unicode="&#x1d2;" horiz-adv-x="589" 
d="M294 -14q-57 0 -102.5 20.5t-77 56.5t-48.5 86t-17 108q0 59 17.5 108.5t49 85.5t77 56.5t101.5 20.5t101.5 -20.5t77 -56.5t49 -85.5t17.5 -108.5q0 -58 -17 -108t-48.5 -86t-77 -56.5t-102.5 -20.5zM466 240v34q0 45 -13.5 81t-37 60.5t-55 38t-66.5 13.5t-66.5 -13.5
t-55 -38.5t-37 -61t-13.5 -80v-34q0 -44 13.5 -79.5t37 -60.5t55 -39t66.5 -14t66.5 13t55 38t37 61t13.5 81zM135 742h74l85 -102h4l84 102h65l-119 -140h-75z" />
    <glyph glyph-name="Ucaron" unicode="&#x1d3;" horiz-adv-x="705" 
d="M352 -15q-63 0 -113 19t-83.5 53t-51 81t-17.5 103v463h75v-461q0 -87 49 -140t141 -53q93 0 142 53t49 140v461h74v-463q0 -56 -17.5 -103t-51 -81t-83.5 -53t-113 -19zM194 933h74l85 -102h4l84 102h65l-119 -140h-75z" />
    <glyph glyph-name="ucaron" unicode="&#x1d4;" horiz-adv-x="593" 
d="M438 213v301h72v-514h-69v91h-1q-22 -53 -68.5 -79t-103.5 -26q-39 0 -74 13t-61 39t-41.5 65t-15.5 90v321h72v-316q0 -75 41 -112.5t98 -37.5q30 0 57.5 10t48 30.5t33 51.5t12.5 73zM131 742h74l85 -102h4l84 102h65l-119 -140h-75z" />
    <glyph glyph-name="AEmacron" unicode="&#x1e2;" horiz-adv-x="946" 
d="M565 0l-73 190h-333l-72 -190h-79l275 704h609v-65h-499l96 -242h373v-64h-347l106 -268h271v-65h-327zM322 624l-139 -369h284l-143 369h-2zM231 885h261v-49h-261v49z" />
    <glyph glyph-name="aemacron" unicode="&#x1e3;" horiz-adv-x="922" 
d="M440 401h1q29 58 79.5 92.5t119.5 34.5q56 0 100 -19.5t74 -54t46 -82.5t16 -104v-27h-410v-4q0 -87 50 -140t126 -53q34 0 60.5 9.5t45 24.5t30 34t14.5 38h75q-16 -70 -74.5 -117t-148.5 -47q-86 0 -141 47t-76 125h-1q-4 -37 -21.5 -69t-45 -54.5t-63 -35.5t-75.5 -13
q-75 0 -124.5 39.5t-49.5 110.5q0 68 48 105.5t125 50.5l84 15q42 7 63.5 23t21.5 48t-26.5 62.5t-93.5 30.5q-60 0 -93 -25.5t-37 -71.5h-72q6 66 57 110t143 44q75 0 118.5 -33t54.5 -94zM638 470q-66 0 -116 -46.5t-55 -127.5h336q-2 81 -48 127.5t-117 46.5zM392 217v75
q-7 -11 -25.5 -22t-46.5 -15l-88 -16q-52 -9 -82.5 -32t-30.5 -64v-6q0 -45 32 -69t81 -24q70 0 115 47.5t45 125.5zM322 694h261v-49h-261v49z" />
    <glyph glyph-name="Gcaron" unicode="&#x1e6;" horiz-adv-x="719" 
d="M592 0v151h-1q-17 -70 -76 -117.5t-152 -47.5q-78 0 -136 29.5t-96.5 79.5t-57.5 116.5t-19 140.5t20.5 141t60 117t99.5 79.5t138 29.5q113 0 184.5 -55t93.5 -147h-82q-14 60 -63 98.5t-131 38.5q-50 0 -94.5 -18.5t-77.5 -54.5t-52.5 -88.5t-19.5 -120.5v-40
q0 -68 19 -120.5t51.5 -88.5t76.5 -54.5t93 -18.5q56 0 96.5 20t66 54t38 78.5t12.5 92.5h-231v63h303v-358h-63zM214 932h74l85 -102h4l84 102h65l-119 -140h-75z" />
    <glyph glyph-name="gcaron" unicode="&#x1e7;" horiz-adv-x="606" 
d="M67 -49h74q7 -34 41 -66t105 -32q86 0 126.5 47.5t40.5 131.5v90h-1q-25 -51 -70 -81t-109 -30q-50 0 -92 19.5t-71.5 54t-45.5 82t-16 103.5q0 55 15.5 102.5t44.5 82t71 54t94 19.5q67 0 112.5 -30.5t68.5 -82.5h1v99h70v-480q0 -116 -63.5 -178t-176.5 -62
q-48 0 -86 12.5t-65.5 34t-44.5 50t-23 60.5zM122 284v-29q0 -43 13.5 -77t36 -57.5t52.5 -36t64 -12.5t64 13t52.5 36.5t36 57.5t13.5 76v29q0 41 -13.5 75t-36 58t-52.5 37t-64 13t-64 -12.5t-52.5 -35.5t-36 -57.5t-13.5 -77.5zM127 742h74l85 -102h4l84 102h65
l-119 -140h-75z" />
    <glyph glyph-name="Oogonek" unicode="&#x1ea;" horiz-adv-x="739" 
d="M370 -14q-79 0 -139 29.5t-99 79.5t-58.5 116.5t-19.5 140.5t19.5 140.5t58.5 116.5t99 80t139 30t138.5 -30t98.5 -80t58.5 -116.5t19.5 -140.5t-19.5 -140.5t-58.5 -116.5t-98.5 -79.5t-138.5 -29.5zM370 51q49 0 92.5 18.5t76 54.5t51.5 88.5t19 120.5v39
q0 68 -19 120.5t-51.5 88.5t-76 54.5t-92.5 18.5t-93 -18.5t-76.5 -54.5t-51.5 -88.5t-19 -120.5v-39q0 -68 19 -120.5t51.5 -88.5t76.5 -54.5t93 -18.5zM419 26v-26q-46 -28 -68.5 -52t-22.5 -49q0 -21 16.5 -35t50.5 -14h61v-53h-71q-56 0 -83.5 26.5t-27.5 61.5
q0 40 37.5 75t107.5 66z" />
    <glyph glyph-name="oogonek" unicode="&#x1eb;" horiz-adv-x="589" 
d="M294 -14q-57 0 -102.5 20.5t-77 56.5t-48.5 86t-17 108q0 59 17.5 108.5t49 85.5t77 56.5t101.5 20.5t101.5 -20.5t77 -56.5t49 -85.5t17.5 -108.5q0 -58 -17 -108t-48.5 -86t-77 -56.5t-102.5 -20.5zM466 240v34q0 45 -13.5 81t-37 60.5t-55 38t-66.5 13.5t-66.5 -13.5
t-55 -38.5t-37 -61t-13.5 -80v-34q0 -44 13.5 -79.5t37 -60.5t55 -39t66.5 -14t66.5 13t55 38t37 61t13.5 81zM338 26v-26q-46 -28 -68.5 -52t-22.5 -49q0 -21 16.5 -35t50.5 -14h61v-53h-71q-56 0 -83.5 26.5t-27.5 61.5q0 40 37.5 75t107.5 66z" />
    <glyph glyph-name="uni01F9" unicode="&#x1f9;" horiz-adv-x="592" 
d="M154 301v-301h-72v514h69v-91h1q22 53 68.5 79t103.5 26q39 0 74 -13t61 -39t41.5 -65t15.5 -90v-321h-72v316q0 75 -41 112.5t-98 37.5q-30 0 -57.5 -10t-48 -30.5t-33 -51.5t-12.5 -73zM266 -71h82l-104 -140h-59z" />
    <glyph glyph-name="Aringacute" unicode="&#x1fa;" horiz-adv-x="655" 
d="M565 0l-73 190h-333l-72 -190h-79l275 704h84l280 -704h-82zM322 624l-139 -369h284l-143 369h-2zM328 664q-45 0 -78 28t-33 75q0 40 24 66t59 34l78 138h82l-101 -139q34 -8 56.5 -34t22.5 -65q0 -47 -32.5 -75t-77.5 -28zM328 704q27 0 46.5 16t19.5 47t-19.5 47
t-46.5 16q-28 0 -47 -16t-19 -47t19 -47t47 -16z" />
    <glyph glyph-name="aringacute" unicode="&#x1fb;" horiz-adv-x="550" 
d="M65 374q6 66 58 110t145 44q89 0 141.5 -42.5t52.5 -123.5v-259q0 -26 10.5 -34.5t30.5 -8.5h32v-60h-52q-46 0 -66 20.5t-19 63.5v12h-1q-19 -48 -65.5 -79t-112.5 -31q-74 0 -124 39.5t-50 110.5q0 68 48 105.5t125 50.5l85 15q42 7 63 23t21 48q0 34 -26.5 63.5
t-92.5 29.5q-60 0 -93 -25.5t-38 -71.5h-72zM391 217v76q-7 -12 -25.5 -22.5t-46.5 -15.5l-88 -16q-52 -9 -83 -32t-31 -64v-6q0 -45 32.5 -69t81.5 -24q69 0 114.5 47.5t45.5 125.5zM267 477q-45 0 -78 28t-33 75q0 40 24 66t59 34l78 138h82l-101 -139q34 -8 56.5 -34
t22.5 -65q0 -47 -32.5 -75t-77.5 -28zM267 517q27 0 46.5 16t19.5 47t-19.5 47t-46.5 16q-28 0 -47 -16t-19 -47t19 -47t47 -16z" />
    <glyph glyph-name="AEacute" unicode="&#x1fc;" horiz-adv-x="946" 
d="M565 0l-73 190h-333l-72 -190h-79l275 704h609v-65h-499l96 -242h373v-64h-347l106 -268h271v-65h-327zM322 624l-139 -369h284l-143 369h-2zM413 932h82l-104 -140h-59z" />
    <glyph glyph-name="aeacute" unicode="&#x1fd;" horiz-adv-x="922" 
d="M440 401h1q29 58 79.5 92.5t119.5 34.5q56 0 100 -19.5t74 -54t46 -82.5t16 -104v-27h-410v-4q0 -87 50 -140t126 -53q34 0 60.5 9.5t45 24.5t30 34t14.5 38h75q-16 -70 -74.5 -117t-148.5 -47q-86 0 -141 47t-76 125h-1q-4 -37 -21.5 -69t-45 -54.5t-63 -35.5t-75.5 -13
q-75 0 -124.5 39.5t-49.5 110.5q0 68 48 105.5t125 50.5l84 15q42 7 63.5 23t21.5 48t-26.5 62.5t-93.5 30.5q-60 0 -93 -25.5t-37 -71.5h-72q6 66 57 110t143 44q75 0 118.5 -33t54.5 -94zM638 470q-66 0 -116 -46.5t-55 -127.5h336q-2 81 -48 127.5t-117 46.5zM392 217v75
q-7 -11 -25.5 -22t-46.5 -15l-88 -16q-52 -9 -82.5 -32t-30.5 -64v-6q0 -45 32 -69t81 -24q70 0 115 47.5t45 125.5zM504 741h82l-104 -140h-59z" />
    <glyph glyph-name="Oslashacute" unicode="&#x1fe;" horiz-adv-x="739" 
d="M44 -11l86 108q-38 50 -57 116t-19 139q0 74 19.5 140.5t58.5 116.5t99 80t139 30q63 0 113.5 -19t87.5 -52l80 100l44 -33l-86 -108q38 -50 57 -116.5t19 -138.5q0 -74 -19.5 -140.5t-58.5 -116.5t-98.5 -79.5t-138.5 -29.5q-63 0 -113.5 18.5t-88.5 51.5l-80 -100z
M130 333q0 -54 12.5 -99t34.5 -79l350 438q-31 30 -71.5 45.5t-85.5 15.5q-49 0 -93 -18.5t-76.5 -54.5t-51.5 -88.5t-19 -120.5v-39zM370 51q49 0 92.5 18.5t76 54.5t51.5 88.5t19 120.5v39q0 54 -12 98.5t-34 78.5l-350 -437q31 -30 71.5 -45.5t85.5 -15.5zM422 932h82
l-104 -140h-59z" />
    <glyph glyph-name="oslashacute" unicode="&#x1ff;" horiz-adv-x="593" 
d="M25 -11l78 88q-26 35 -40 81.5t-14 98.5q0 59 17.5 108.5t49 85.5t77 56.5t101.5 20.5q48 0 88.5 -15t71.5 -43l78 88l36 -32l-82 -92q25 -34 39 -79.5t14 -97.5q0 -58 -17 -108t-48.5 -86t-77 -56.5t-102.5 -20.5q-48 0 -87.5 14.5t-69.5 40.5l-76 -85zM122 240
q0 -32 7.5 -60t20.5 -50l260 291q-23 22 -53 34t-63 12q-35 0 -66.5 -13.5t-55 -38.5t-37 -61t-13.5 -80v-34zM466 240v34q0 31 -7 58.5t-19 49.5l-259 -291q23 -21 52 -32.5t61 -11.5q35 0 66.5 13t55 38t37 61t13.5 81zM346 742h82l-104 -140h-59z" />
    <glyph glyph-name="uni0218" unicode="&#x218;" horiz-adv-x="634" 
d="M315 -14q-64 0 -114 16t-84.5 43.5t-54 66t-21.5 83.5h76q4 -69 57 -108t142 -39q86 0 138 39t52 103q0 56 -37.5 85t-106.5 39l-105 17q-85 13 -141 57t-56 132q0 41 17 77.5t49 63.5t80 42.5t110 15.5q63 0 110 -16t78.5 -42.5t48 -62t18.5 -73.5h-76q-4 57 -49.5 94.5
t-130.5 37.5q-87 0 -133.5 -38.5t-46.5 -95.5q0 -56 39 -84t102 -38l104 -17q90 -14 145.5 -58.5t55.5 -131.5q0 -93 -73.5 -150.5t-192.5 -57.5zM281 -71h82l-104 -140h-59z" />
    <glyph glyph-name="uni0219" unicode="&#x219;" horiz-adv-x="508" 
d="M40 148h74q2 -54 43 -80t102 -26q60 0 97 26t37 70q0 39 -28.5 59t-78.5 27l-81 12q-69 10 -108.5 45t-39.5 97q0 67 55.5 109t142.5 42q48 0 84.5 -12.5t61 -33t38 -48.5t14.5 -58h-73q-2 43 -35 69.5t-91 26.5q-57 0 -91 -25t-34 -65q0 -36 24.5 -56t73.5 -27l81 -11
q78 -12 117.5 -49.5t39.5 -96.5q0 -73 -58 -115.5t-150 -42.5q-100 0 -157 45.5t-60 117.5zM223 -71h82l-104 -140h-59z" />
    <glyph glyph-name="uni021A" unicode="&#x21a;" horiz-adv-x="593" 
d="M256 639h-241v65h558v-65h-242v-639h-75v639zM256 -71h82l-104 -140h-59z" />
    <glyph glyph-name="uni021B" unicode="&#x21b;" horiz-adv-x="420" 
d="M19 514h120v158h73v-158h173v-61h-173v-334q0 -31 12.5 -44.5t43.5 -13.5h117v-61h-127q-62 0 -90.5 29t-28.5 87v337h-120v61zM245 -71h82l-104 -140h-59z" />
    <glyph glyph-name="Ymacron" unicode="&#x232;" horiz-adv-x="603" 
d="M266 0v283l-252 421h83l206 -346h2l205 346h82l-252 -421v-283h-74zM172 885h261v-49h-261v49z" />
    <glyph glyph-name="ymacron" unicode="&#x233;" horiz-adv-x="516" 
d="M269 -67q-26 -66 -60.5 -95.5t-111.5 -29.5h-78v61h76q46 0 64.5 15t38.5 63l27 66l-208 501h80l165 -416h1l162 416h74zM134 695h261v-49h-261v49z" />
    <glyph glyph-name="dotlessj" unicode="&#x237;" horiz-adv-x="236" 
d="M82 -74v588h72v-590q0 -58 -28 -87t-90 -29h-102v61h91q31 0 44 13.5t13 43.5z" />
    <glyph glyph-name="uni0259" unicode="&#x259;" horiz-adv-x="579" 
d="M286 528q58 0 103.5 -20.5t76.5 -56.5t47.5 -86t16.5 -108q0 -59 -17.5 -109t-49 -86t-76 -56t-98.5 -20q-55 0 -99 19.5t-73.5 54t-45.5 82.5t-16 104v26h402v5q0 88 -49.5 140.5t-122.5 52.5q-66 0 -102.5 -33t-43.5 -70h-75q15 70 73.5 115.5t148.5 45.5zM289 44
q64 0 112.5 46.5t54.5 126.5h-328q2 -81 47 -127t114 -46z" />
    <glyph glyph-name="nhookleft" unicode="&#x272;" horiz-adv-x="594" 
d="M154 301v-301h-72v514h69v-91h1q22 53 68.5 79t103.5 26q39 0 74 -13t61 -39t41.5 -65t15.5 -90v-321h-72v316q0 75 -41 112.5t-98 37.5q-30 0 -57.5 -10t-48 -30.5t-33 -51.5t-12.5 -73zM82 -74v588h72v-590q0 -58 -28 -87t-90 -29h-102v61h91q31 0 44 13.5t13 43.5z
" />
    <glyph glyph-name="circumflex" unicode="&#x2c6;" horiz-adv-x="499" 
d="M414 602h-74l-85 102h-4l-84 -102h-65l119 140h75z" />
    <glyph glyph-name="caron" unicode="&#x2c7;" horiz-adv-x="499" 
d="M95 742h74l85 -102h4l84 102h65l-119 -140h-75z" />
    <glyph glyph-name="breve" unicode="&#x2d8;" horiz-adv-x="500" 
d="M246 602q-69 0 -106 41.5t-37 98.5h59q0 -45 23.5 -69t63.5 -24q43 0 66.5 25t23.5 68h57q0 -57 -38 -98.5t-107 -41.5h-5z" />
    <glyph glyph-name="dotaccent" unicode="&#x2d9;" horiz-adv-x="500" 
d="M251 632h-2q-20 0 -33.5 13.5t-13.5 32.5q0 20 13.5 33.5t33.5 13.5h2q20 0 33.5 -13.5t13.5 -33.5q0 -19 -13.5 -32.5t-33.5 -13.5z" />
    <glyph glyph-name="ring" unicode="&#x2da;" horiz-adv-x="498" 
d="M250 580q-45 0 -78 28t-33 75t33 75t78 28t77.5 -28t32.5 -75t-32.5 -75t-77.5 -28zM250 620q27 0 46.5 16t19.5 47t-19.5 47t-46.5 16q-28 0 -47 -16t-19 -47t19 -47t47 -16z" />
    <glyph glyph-name="ogonek" unicode="&#x2db;" horiz-adv-x="499" 
d="M291 26v-26q-46 -28 -68.5 -52t-22.5 -49q0 -21 16.5 -35t50.5 -14h61v-53h-71q-56 0 -83.5 26.5t-27.5 61.5q0 40 37.5 75t107.5 66z" />
    <glyph glyph-name="tilde" unicode="&#x2dc;" horiz-adv-x="498" 
d="M319 602q-31 0 -49 14.5t-32 31.5t-28 31.5t-37 14.5q-24 0 -38.5 -20t-14.5 -65h-41v3q0 60 25.5 94t70.5 34h2q31 0 49.5 -14.5t32.5 -31t28.5 -31t37.5 -14.5q24 0 38.5 19t14.5 64h41v-3q0 -60 -26 -93.5t-72 -33.5h-2z" />
    <glyph glyph-name="hungarumlaut" unicode="&#x2dd;" horiz-adv-x="501" 
d="M215 742h77l-105 -140h-53zM378 742h77l-104 -140h-54z" />
    <glyph glyph-name="uni0394" unicode="&#x394;" horiz-adv-x="604" 
d="M25 0v62l240 642h75l239 -642v-62h-554zM101 62h401l-200 551z" />
    <glyph glyph-name="uni03A9" unicode="&#x3a9;" horiz-adv-x="711" 
d="M71 0v62h163v3q-81 34 -127.5 116t-46.5 198q0 74 20 136.5t58 107.5t93 70.5t124 25.5q68 0 123 -25t93 -70t58.5 -107.5t20.5 -136.5q0 -117 -46 -198.5t-127 -116.5v-3h162v-62h-231v93q83 27 125.5 101.5t42.5 181.5q0 57 -14 108t-41 89t-69 60.5t-97 22.5t-97 -22
t-69 -60t-41 -89.5t-14 -108.5q0 -107 43.5 -181.5t125.5 -101.5v-93h-232z" />
    <glyph glyph-name="uni0E3F" unicode="&#xe3f;" horiz-adv-x="684" 
d="M109 0v704h194v130h61v-130h31q87 0 143.5 -49.5t56.5 -133.5q0 -59 -31 -98.5t-86 -55.5q64 -16 101.5 -59.5t37.5 -112.5q0 -90 -60 -142.5t-153 -52.5h-40v-129h-61v129h-194zM524 513v10q0 55 -37 87.5t-100 32.5h-207v-250h207q63 0 100 32.5t37 87.5zM546 193v10
q0 61 -41 97t-110 36h-215v-275h215q70 0 110.5 36t40.5 96z" />
    <glyph glyph-name="Wgrave" unicode="&#x1e80;" horiz-adv-x="939" 
d="M19 704h79l168 -599h2l164 599h81l168 -600h2l164 600h73l-197 -704h-81l-171 604h-2l-166 -604h-80zM418 932l80 -140h-58l-104 140h82z" />
    <glyph glyph-name="wgrave" unicode="&#x1e81;" horiz-adv-x="800" 
d="M20 514h76l134 -426h1l133 426h76l137 -425h1l131 425h71l-165 -514h-77l-137 426h-1l-135 -426h-75zM350 742l80 -140h-58l-104 140h82z" />
    <glyph glyph-name="Wacute" unicode="&#x1e82;" horiz-adv-x="939" 
d="M19 704h79l168 -599h2l164 599h81l168 -600h2l164 600h73l-197 -704h-81l-171 604h-2l-166 -604h-80zM522 932h82l-104 -140h-59z" />
    <glyph glyph-name="wacute" unicode="&#x1e83;" horiz-adv-x="800" 
d="M20 514h76l134 -426h1l133 426h76l137 -425h1l131 425h71l-165 -514h-77l-137 426h-1l-135 -426h-75zM453 742h82l-104 -140h-59z" />
    <glyph glyph-name="Wdieresis" unicode="&#x1e84;" horiz-adv-x="939" 
d="M19 704h79l168 -599h2l164 599h81l168 -600h2l164 600h73l-197 -704h-81l-171 604h-2l-166 -604h-80zM386 822h-2q-20 0 -33.5 13.5t-13.5 32.5q0 20 13.5 33.5t33.5 13.5h2q20 0 33.5 -13.5t13.5 -33.5q0 -19 -13.5 -32.5t-33.5 -13.5zM561 822h-2q-20 0 -33.5 13.5
t-13.5 32.5q0 20 13.5 33.5t33.5 13.5h2q20 0 33.5 -13.5t13.5 -33.5q0 -19 -13.5 -32.5t-33.5 -13.5z" />
    <glyph glyph-name="wdieresis" unicode="&#x1e85;" horiz-adv-x="800" 
d="M20 514h76l134 -426h1l133 426h76l137 -425h1l131 425h71l-165 -514h-77l-137 426h-1l-135 -426h-75zM317 632h-2q-20 0 -33.5 13.5t-13.5 32.5q0 20 13.5 33.5t33.5 13.5h2q20 0 33.5 -13.5t13.5 -33.5q0 -19 -13.5 -32.5t-33.5 -13.5zM492 632h-2q-20 0 -33.5 13.5
t-13.5 32.5q0 20 13.5 33.5t33.5 13.5h2q20 0 33.5 -13.5t13.5 -33.5q0 -19 -13.5 -32.5t-33.5 -13.5z" />
    <glyph glyph-name="uni1E9E" unicode="&#x1e9e;" horiz-adv-x="689" 
d="M97 0v704h501v-63l-204 -237h41q101 0 154.5 -53.5t53.5 -140.5q0 -43 -15 -81.5t-44 -67t-72 -45t-99 -16.5h-143v63h138q80 0 120 43t40 101q0 68 -40.5 103.5t-118.5 35.5h-95v58l204 237h-346v-641h-75z" />
    <glyph glyph-name="Adotbelow" unicode="&#x1ea0;" horiz-adv-x="655" 
d="M565 0l-73 190h-333l-72 -190h-79l275 704h84l280 -704h-82zM322 624l-139 -369h284l-143 369h-2zM328 -192h-2q-20 0 -33.5 13.5t-13.5 33.5q0 19 13.5 32.5t33.5 13.5h2q20 0 33.5 -13.5t13.5 -32.5q0 -20 -13.5 -33.5t-33.5 -13.5z" />
    <glyph glyph-name="adotbelow" unicode="&#x1ea1;" horiz-adv-x="550" 
d="M65 374q6 66 58 110t145 44q89 0 141.5 -42.5t52.5 -123.5v-259q0 -26 10.5 -34.5t30.5 -8.5h32v-60h-52q-46 0 -66 20.5t-19 63.5v12h-1q-19 -48 -65.5 -79t-112.5 -31q-74 0 -124 39.5t-50 110.5q0 68 48 105.5t125 50.5l85 15q42 7 63 23t21 48q0 34 -26.5 63.5
t-92.5 29.5q-60 0 -93 -25.5t-38 -71.5h-72zM391 217v76q-7 -12 -25.5 -22.5t-46.5 -15.5l-88 -16q-52 -9 -83 -32t-31 -64v-6q0 -45 32.5 -69t81.5 -24q69 0 114.5 47.5t45.5 125.5zM225 -192h-2q-20 0 -33.5 13.5t-13.5 33.5q0 19 13.5 32.5t33.5 13.5h2q20 0 33.5 -13.5
t13.5 -32.5q0 -20 -13.5 -33.5t-33.5 -13.5z" />
    <glyph glyph-name="Edotbelow" unicode="&#x1eb8;" horiz-adv-x="619" 
d="M97 704h467v-65h-392v-242h362v-64h-362v-268h392v-65h-467v704zM345 -192h-2q-20 0 -33.5 13.5t-13.5 33.5q0 19 13.5 32.5t33.5 13.5h2q20 0 33.5 -13.5t13.5 -32.5q0 -20 -13.5 -33.5t-33.5 -13.5z" />
    <glyph glyph-name="edotbelow" unicode="&#x1eb9;" horiz-adv-x="574" 
d="M293 -14q-58 0 -103.5 20.5t-76.5 56.5t-47.5 86t-16.5 108q0 59 17.5 109t49 86t76 56t98.5 20q55 0 99 -19.5t73.5 -54t45.5 -82.5t16 -104v-26h-402v-5q0 -88 49.5 -140.5t122.5 -52.5q66 0 102.5 33t43.5 70h75q-15 -70 -73.5 -115.5t-148.5 -45.5zM290 470
q-64 0 -112.5 -46.5t-54.5 -126.5h328q-2 81 -47 127t-114 46zM295 -192h-2q-20 0 -33.5 13.5t-13.5 33.5q0 19 13.5 32.5t33.5 13.5h2q20 0 33.5 -13.5t13.5 -32.5q0 -20 -13.5 -33.5t-33.5 -13.5z" />
    <glyph glyph-name="Etilde" unicode="&#x1ebc;" horiz-adv-x="619" 
d="M97 704h467v-65h-392v-242h362v-64h-362v-268h392v-65h-467v704zM413 792q-31 0 -49 14.5t-32 31.5t-28 31.5t-37 14.5q-24 0 -38.5 -20t-14.5 -65h-41v3q0 60 25.5 94t70.5 34h2q31 0 49.5 -14.5t32.5 -31t28.5 -31t37.5 -14.5q24 0 38.5 19t14.5 64h41v-3
q0 -60 -26 -93.5t-72 -33.5h-2z" />
    <glyph glyph-name="etilde" unicode="&#x1ebd;" horiz-adv-x="574" 
d="M293 -14q-58 0 -103.5 20.5t-76.5 56.5t-47.5 86t-16.5 108q0 59 17.5 109t49 86t76 56t98.5 20q55 0 99 -19.5t73.5 -54t45.5 -82.5t16 -104v-26h-402v-5q0 -88 49.5 -140.5t122.5 -52.5q66 0 102.5 33t43.5 70h75q-15 -70 -73.5 -115.5t-148.5 -45.5zM290 470
q-64 0 -112.5 -46.5t-54.5 -126.5h328q-2 81 -47 127t-114 46zM359 602q-31 0 -49 14.5t-32 31.5t-28 31.5t-37 14.5q-24 0 -38.5 -20t-14.5 -65h-41v3q0 60 25.5 94t70.5 34h2q31 0 49.5 -14.5t32.5 -31t28.5 -31t37.5 -14.5q24 0 38.5 19t14.5 64h41v-3q0 -60 -26 -93.5
t-72 -33.5h-2z" />
    <glyph glyph-name="Idotbelow" unicode="&#x1eca;" horiz-adv-x="270" 
d="M97 704h75v-704h-75v704zM137 -192h-2q-20 0 -33.5 13.5t-13.5 33.5q0 19 13.5 32.5t33.5 13.5h2q20 0 33.5 -13.5t13.5 -32.5q0 -20 -13.5 -33.5t-33.5 -13.5z" />
    <glyph glyph-name="idotbelow" unicode="&#x1ecb;" horiz-adv-x="235" 
d="M120 616h-4q-23 0 -39 15.5t-16 38.5t16 38.5t39 15.5h4q23 0 38.5 -15.5t15.5 -38.5t-15.5 -38.5t-38.5 -15.5zM82 514h72v-514h-72v514zM122 -192h-2q-20 0 -33.5 13.5t-13.5 33.5q0 19 13.5 32.5t33.5 13.5h2q20 0 33.5 -13.5t13.5 -32.5q0 -20 -13.5 -33.5
t-33.5 -13.5z" />
    <glyph glyph-name="Odotbelow" unicode="&#x1ecc;" horiz-adv-x="739" 
d="M370 -14q-79 0 -139 29.5t-99 79.5t-58.5 116.5t-19.5 140.5t19.5 140.5t58.5 116.5t99 80t139 30t138.5 -30t98.5 -80t58.5 -116.5t19.5 -140.5t-19.5 -140.5t-58.5 -116.5t-98.5 -79.5t-138.5 -29.5zM370 51q49 0 92.5 18.5t76 54.5t51.5 88.5t19 120.5v39
q0 68 -19 120.5t-51.5 88.5t-76 54.5t-92.5 18.5t-93 -18.5t-76.5 -54.5t-51.5 -88.5t-19 -120.5v-39q0 -68 19 -120.5t51.5 -88.5t76.5 -54.5t93 -18.5zM372 -192h-2q-20 0 -33.5 13.5t-13.5 33.5q0 19 13.5 32.5t33.5 13.5h2q20 0 33.5 -13.5t13.5 -32.5
q0 -20 -13.5 -33.5t-33.5 -13.5z" />
    <glyph glyph-name="odotbelow" unicode="&#x1ecd;" horiz-adv-x="589" 
d="M294 -14q-57 0 -102.5 20.5t-77 56.5t-48.5 86t-17 108q0 59 17.5 108.5t49 85.5t77 56.5t101.5 20.5t101.5 -20.5t77 -56.5t49 -85.5t17.5 -108.5q0 -58 -17 -108t-48.5 -86t-77 -56.5t-102.5 -20.5zM466 240v34q0 45 -13.5 81t-37 60.5t-55 38t-66.5 13.5t-66.5 -13.5
t-55 -38.5t-37 -61t-13.5 -80v-34q0 -44 13.5 -79.5t37 -60.5t55 -39t66.5 -14t66.5 13t55 38t37 61t13.5 81zM297 -192h-2q-20 0 -33.5 13.5t-13.5 33.5q0 19 13.5 32.5t33.5 13.5h2q20 0 33.5 -13.5t13.5 -32.5q0 -20 -13.5 -33.5t-33.5 -13.5z" />
    <glyph glyph-name="Udotbelow" unicode="&#x1ee4;" horiz-adv-x="705" 
d="M352 -15q-63 0 -113 19t-83.5 53t-51 81t-17.5 103v463h75v-461q0 -87 49 -140t141 -53q93 0 142 53t49 140v461h74v-463q0 -56 -17.5 -103t-51 -81t-83.5 -53t-113 -19zM354 -192h-2q-20 0 -33.5 13.5t-13.5 33.5q0 19 13.5 32.5t33.5 13.5h2q20 0 33.5 -13.5
t13.5 -32.5q0 -20 -13.5 -33.5t-33.5 -13.5z" />
    <glyph glyph-name="udotbelow" unicode="&#x1ee5;" horiz-adv-x="593" 
d="M438 213v301h72v-514h-69v91h-1q-22 -53 -68.5 -79t-103.5 -26q-39 0 -74 13t-61 39t-41.5 65t-15.5 90v321h72v-316q0 -75 41 -112.5t98 -37.5q30 0 57.5 10t48 30.5t33 51.5t12.5 73zM300 -192h-2q-20 0 -33.5 13.5t-13.5 33.5q0 19 13.5 32.5t33.5 13.5h2
q20 0 33.5 -13.5t13.5 -32.5q0 -20 -13.5 -33.5t-33.5 -13.5z" />
    <glyph glyph-name="Ygrave" unicode="&#x1ef2;" horiz-adv-x="603" 
d="M266 0v283l-252 421h83l206 -346h2l205 346h82l-252 -421v-283h-74zM250 932l80 -140h-58l-104 140h82z" />
    <glyph glyph-name="ygrave" unicode="&#x1ef3;" horiz-adv-x="516" 
d="M269 -67q-26 -66 -60.5 -95.5t-111.5 -29.5h-78v61h76q46 0 64.5 15t38.5 63l27 66l-208 501h80l165 -416h1l162 416h74zM212 742l80 -140h-58l-104 140h82z" />
    <glyph glyph-name="Ytilde" unicode="&#x1ef8;" horiz-adv-x="603" 
d="M266 0v283l-252 421h83l206 -346h2l205 346h82l-252 -421v-283h-74zM373 792q-31 0 -49 14.5t-32 31.5t-28 31.5t-37 14.5q-24 0 -38.5 -20t-14.5 -65h-41v3q0 60 25.5 94t70.5 34h2q31 0 49.5 -14.5t32.5 -31t28.5 -31t37.5 -14.5q24 0 38.5 19t14.5 64h41v-3
q0 -60 -26 -93.5t-72 -33.5h-2z" />
    <glyph glyph-name="ytilde" unicode="&#x1ef9;" horiz-adv-x="516" 
d="M269 -67q-26 -66 -60.5 -95.5t-111.5 -29.5h-78v61h76q46 0 64.5 15t38.5 63l27 66l-208 501h80l165 -416h1l162 416h74zM335 602q-31 0 -49 14.5t-32 31.5t-28 31.5t-37 14.5q-24 0 -38.5 -20t-14.5 -65h-41v3q0 60 25.5 94t70.5 34h2q31 0 49.5 -14.5t32.5 -31
t28.5 -31t37.5 -14.5q24 0 38.5 19t14.5 64h41v-3q0 -60 -26 -93.5t-72 -33.5h-2z" />
    <glyph glyph-name="uni2007" unicode="&#x2007;" horiz-adv-x="631" 
 />
    <glyph glyph-name="uni2008" unicode="&#x2008;" horiz-adv-x="231" 
 />
    <glyph glyph-name="thinspace" unicode="&#x2009;" horiz-adv-x="70" 
 />
    <glyph glyph-name="endash" unicode="&#x2013;" horiz-adv-x="606" 
d="M64 312h477v-60h-477v60z" />
    <glyph glyph-name="emdash" unicode="&#x2014;" horiz-adv-x="1009" 
d="M64 312h880v-60h-880v60z" />
    <glyph glyph-name="uni2015" unicode="&#x2015;" horiz-adv-x="1009" 
d="M64 312h880v-60h-880v60z" />
    <glyph glyph-name="quoteleft" unicode="&#x2018;" horiz-adv-x="241" 
d="M129 704h64l-71 -236h-75z" />
    <glyph glyph-name="quoteright" unicode="&#x2019;" horiz-adv-x="241" 
d="M113 469h-64l71 236h75z" />
    <glyph glyph-name="quotesinglbase" unicode="&#x201a;" horiz-adv-x="247" 
d="M100 -144h-65l72 238h75z" />
    <glyph glyph-name="quotedblleft" unicode="&#x201c;" horiz-adv-x="413" 
d="M129 704h64l-71 -236h-75zM301 704h64l-71 -236h-75z" />
    <glyph glyph-name="quotedblright" unicode="&#x201d;" horiz-adv-x="413" 
d="M284 468h-64l71 236h75zM112 468h-64l71 236h75z" />
    <glyph glyph-name="quotedblbase" unicode="&#x201e;" horiz-adv-x="417" 
d="M272 -142h-64l71 236h75zM100 -142h-64l71 236h75z" />
    <glyph glyph-name="dagger" unicode="&#x2020;" horiz-adv-x="517" 
d="M462 571v-59h-169v-351h-68v351h-170v59h170v133h68v-133h169z" />
    <glyph glyph-name="daggerdbl" unicode="&#x2021;" horiz-adv-x="517" 
d="M225 142v126h-170v58h170v195h-170v58h170v125h68v-125h169v-58h-169v-195h169v-58h-169v-126h-68z" />
    <glyph glyph-name="bullet" unicode="&#x2022;" horiz-adv-x="440" 
d="M224 185h-7q-59 0 -98 40t-39 98t39 97.5t98 39.5h7q59 0 98 -39.5t39 -97.5t-39 -98t-98 -40z" />
    <glyph glyph-name="ellipsis" unicode="&#x2026;" horiz-adv-x="730" 
d="M124 -8q-25 0 -41.5 16.5t-16.5 41.5t16.5 41.5t41.5 16.5t41.5 -16.5t16.5 -41.5t-16.5 -41.5t-41.5 -16.5zM365 -8q-25 0 -41.5 16.5t-16.5 41.5t16.5 41.5t41.5 16.5t41.5 -16.5t16.5 -41.5t-16.5 -41.5t-41.5 -16.5zM606 -8q-25 0 -41.5 16.5t-16.5 41.5t16.5 41.5
t41.5 16.5t41.5 -16.5t16.5 -41.5t-16.5 -41.5t-41.5 -16.5z" />
    <glyph glyph-name="perthousand" unicode="&#x2030;" horiz-adv-x="1358" 
d="M229 318q-82 0 -128 55t-46 142t48 144t130 57t130 -57t48 -144t-50 -142t-132 -55zM186 0l254 351l252 353h75l-255 -353l-251 -351h-75zM229 374q54 0 86 39t32 102q0 62 -30 103.5t-84 41.5t-84 -41.5t-30 -103.5q0 -63 28 -102t82 -39zM1125 -14q-82 0 -129.5 56.5
t-47.5 143.5t47.5 144.5t129.5 57.5t130 -57.5t48 -144.5t-48 -143.5t-130 -56.5zM718 -14q-82 0 -129.5 56.5t-47.5 143.5t47.5 144.5t129.5 57.5t130 -57.5t48 -144.5t-48 -143.5t-130 -56.5zM1125 42q54 0 84 41t30 103q0 63 -30 104t-84 41t-84 -41t-30 -104
q0 -62 30 -103t84 -41zM718 42q54 0 84 41t30 103q0 63 -30 104t-84 41t-84 -41t-30 -104q0 -62 30 -103t84 -41z" />
    <glyph glyph-name="guilsinglleft" unicode="&#x2039;" horiz-adv-x="349" 
d="M210 66l-174 203l174 204h83l-174 -204l174 -203h-83z" />
    <glyph glyph-name="guilsinglright" unicode="&#x203a;" horiz-adv-x="349" 
d="M139 472l174 -203l-174 -204h-83l174 204l-174 203h83z" />
    <glyph glyph-name="uni2042" unicode="&#x2042;" horiz-adv-x="1072" 
d="M559 345h-48l3 143l-121 -74l-25 43l125 68l-125 69l25 42l121 -74l-3 142h48l-3 -142l123 74l24 -42l-125 -69l125 -68l-24 -43l-123 75zM264 -4h-48l3 143l-121 -74l-25 43l125 68l-125 69l25 42l121 -74l-3 142h48l-3 -142l123 74l24 -42l-125 -69l125 -68l-24 -43
l-123 75zM855 -4h-48l3 143l-121 -74l-25 43l125 68l-125 69l25 42l121 -74l-3 142h48l-3 -142l123 74l24 -42l-125 -69l125 -68l-24 -43l-123 75z" />
    <glyph glyph-name="fraction" unicode="&#x2044;" horiz-adv-x="224" 
d="M-155 0l469 704h64l-468 -704h-65z" />
    <glyph glyph-name="uni2051" unicode="&#x2051;" horiz-adv-x="481" 
d="M264 385h-48l3 143l-121 -74l-25 43l125 68l-125 69l25 42l121 -74l-3 142h48l-3 -142l123 74l24 -42l-125 -69l125 -68l-24 -43l-123 75zM264 -44h-48l3 143l-121 -74l-25 43l125 68l-125 69l25 42l121 -74l-3 142h48l-3 -142l123 74l24 -42l-125 -69l125 -68l-24 -43
l-123 75z" />
    <glyph glyph-name="uni20A6" unicode="&#x20a6;" horiz-adv-x="706" 
d="M135 0v327h-87v52h87v325h102l137 -325h131v325h67v-325h87v-52h-87v-327h-101l-139 327h-132v-327h-65zM197 379h116l-113 262zM393 327l112 -262l3 262h-115z" />
    <glyph glyph-name="uni20A9" unicode="&#x20a9;" horiz-adv-x="1065" 
d="M1009 254h-152l-68 -254h-85l-67 254h-203l-67 -254h-85l-70 254h-157v52h143l-31 110h-112v52h98l-65 236h69l63 -236h211l62 236h84l62 -236h212l61 236h65l-63 -236h95v-52h-109l-29 -110h138v-52zM534 637l-44 -169h91l-45 169h-2zM262 306h127l29 110h-185zM447 306
h176l-29 110h-118zM682 306h127l28 110h-184zM325 70h2l48 184h-99zM745 69h2l48 185h-99z" />
    <glyph glyph-name="uni20AA" unicode="&#x20aa;" horiz-adv-x="769" 
d="M97 0v704h213q91 0 142 -46t51 -134v-351h-66v346q0 61 -33.5 92.5t-93.5 31.5h-147v-643h-66zM672 704v-704h-212q-92 0 -142.5 46t-50.5 134v351h65v-346q0 -61 33.5 -92.5t93.5 -31.5h147v643h66z" />
    <glyph glyph-name="Euro" unicode="&#x20ac;" horiz-adv-x="725" 
d="M421 49q78 0 122 43t58 106h77q-20 -94 -86.5 -153t-169.5 -59q-60 0 -108 19.5t-83 53.5t-58.5 81t-34.5 101h-103v56h95q-1 13 -2 27t-1 28q0 13 0.5 25.5t1.5 25.5h-94v56h102q11 55 34 103t58.5 82.5t83.5 54.5t109 20q102 0 167.5 -56.5t86.5 -148.5h-78
q-16 63 -59 102.5t-118 39.5q-78 0 -135.5 -51t-76.5 -146h254v-56h-261q-1 -7 -1 -14.5v-14.5v-43v-17.5t1 -16.5h261v-56h-253q19 -93 76.5 -142.5t134.5 -49.5z" />
    <glyph glyph-name="uni20B4" unicode="&#x20b4;" horiz-adv-x="615" 
d="M572 412h-529v52h374q13 13 19.5 32.5t6.5 42.5q0 51 -37 87t-103 36q-65 0 -99.5 -33t-38.5 -84h-73q2 34 15.5 66t39.5 55.5t65 38t90 14.5q50 0 90 -14t67 -37.5t41.5 -56t14.5 -68.5q0 -22 -5 -42.5t-15 -36.5h77v-52zM572 255h-386q-16 -15 -24.5 -35.5t-8.5 -45.5
q0 -58 41.5 -94t109.5 -36q69 0 111 34t46 96h72q-4 -81 -63 -134.5t-165 -53.5q-101 0 -162 50.5t-61 133.5q0 25 6 46t16 39h-61v52h529v-52z" />
    <glyph glyph-name="uni20B8" unicode="&#x20b8;" horiz-adv-x="610" 
d="M562 704v-63h-513v63h513zM269 487h-220v63h513v-63h-221v-487h-72v487z" />
    <glyph glyph-name="uni20B9" unicode="&#x20b9;" horiz-adv-x="634" 
d="M66 302v55h178q72 0 111.5 32t46.5 85h-336v55h336q-7 54 -46.5 85.5t-111.5 31.5h-178v58h521v-52h-197q34 -20 55 -51.5t27 -71.5h115v-55h-114q-8 -79 -66.5 -125.5t-158.5 -46.5h-89l329 -302h-100z" />
    <glyph glyph-name="uni20BA" unicode="&#x20ba;" horiz-adv-x="591" 
d="M431 385l-218 -117v-203q54 1 97 17.5t74.5 44t52 65.5t30.5 81h78q-13 -61 -42 -111.5t-71.5 -86t-99 -55.5t-124.5 -20h-67v230l-86 -46v60l86 46v108l-86 -46v59l86 46v247h72v-209l218 116v-59l-218 -116v-108l218 116v-59z" />
    <glyph glyph-name="uni20BD" unicode="&#x20bd;" horiz-adv-x="655" 
d="M137 0v156h-88v55h88v107h-88v55h88v331h249q107 0 165.5 -52.5t58.5 -140.5t-58.5 -140.5t-165.5 -52.5h-178v-107h296v-55h-296v-156h-71zM538 505v13q0 57 -38 93t-116 36h-176v-274h176q77 0 115.5 36t38.5 96z" />
    <glyph glyph-name="uni20BF" unicode="&#x20bf;" horiz-adv-x="678" 
d="M97 0v704h102v130h57v-130h98v130h56v-130q84 -3 137 -51.5t53 -129.5q0 -59 -31 -99t-85 -56v-1q64 -14 101.5 -58.5t37.5 -113.5q0 -45 -16 -81.5t-44.5 -61.5t-67.5 -38.5t-85 -13.5v-129h-56v129h-98v-129h-57v129h-102zM525 513v10q0 54 -36.5 85.5t-99.5 31.5h-217
v-245h217q63 0 99.5 32t36.5 86zM547 193v10q0 60 -40.5 95t-109.5 35h-225v-269h225q69 0 109.5 35.5t40.5 93.5z" />
    <glyph glyph-name="uni2116" unicode="&#x2116;" horiz-adv-x="1259" 
d="M977 201q-55 0 -98.5 19t-74 52.5t-46.5 80.5t-16 101q0 55 16.5 102t47 80.5t74 52.5t97.5 19t97.5 -19t74 -53t47 -80.5t16.5 -101.5q0 -54 -16 -101t-46.5 -80.5t-74 -52.5t-98.5 -19zM98 0v704h95l376 -604h1v604h73v-704h-91l-379 612h-1v-612h-74zM1139 439v30
q0 83 -47.5 130t-114.5 47t-114.5 -48t-47.5 -129v-30q0 -80 47.5 -128.5t114.5 -48.5t114.5 46.5t47.5 130.5zM814 0v59h326v-59h-326z" />
    <glyph glyph-name="trademark" unicode="&#x2122;" horiz-adv-x="943" 
d="M174 314v339h-143v51h342v-51h-143v-339h-56zM445 314v390h85l128 -310h5l130 310h85v-390h-59v318h-4l-136 -318h-43l-130 314h-5v-314h-56z" />
    <glyph glyph-name="onethird" unicode="&#x2153;" horiz-adv-x="941" 
d="M152 290v296h-102v47h102v71h55v-414h-55zM173 0l469 704h64l-468 -704h-65zM835 115v8q0 34 -24 56t-67 22h-45v40l114 126h-190v47h252v-47l-112 -124v-1q58 -4 93 -37t35 -87t-39 -90t-105 -36t-102.5 35t-39.5 85h55q2 -29 23 -52t65 -23q43 0 65 23t22 55z" />
    <glyph glyph-name="twothirds" unicode="&#x2154;" horiz-adv-x="978" 
d="M50 290v48q0 40 20 67.5t62 55.5l76 51q31 22 42 41t11 38v7q0 29 -18.5 49.5t-56.5 20.5q-37 0 -59 -21.5t-22 -59.5h-55q1 58 39.5 92t96.5 34q60 0 95 -33.5t35 -82.5q0 -34 -17 -64t-62 -60l-81 -55q-26 -19 -38.5 -36t-12.5 -42v-3h219v-47h-274zM210 0l469 704h64
l-468 -704h-65zM872 115v8q0 34 -24 56t-67 22h-45v40l114 126h-190v47h252v-47l-112 -124v-1q58 -4 93 -37t35 -87t-39 -90t-105 -36t-102.5 35t-39.5 85h55q2 -29 23 -52t65 -23q43 0 65 23t22 55z" />
    <glyph glyph-name="uni215A" unicode="&#x215a;" horiz-adv-x="943" 
d="M65 473v231h251v-47h-201v-137q16 28 41 40t54 12q60 0 94 -40.5t34 -102.5t-39 -104.5t-108 -42.5q-60 0 -98.5 33.5t-42.5 86.5h56q1 -30 23.5 -52t62.5 -22q46 0 68 28.5t22 68.5v6q0 41 -21 68t-64 27q-30 0 -50.5 -14t-31.5 -39h-50zM201 0l469 704h64l-468 -704
h-65zM887 136q0 -62 -41.5 -103t-106.5 -41q-64 0 -105 42.5t-41 103.5q0 34 11 64t35 64l105 148h64l-116 -157q13 9 28 14.5t35 5.5q56 0 94 -39.5t38 -101.5zM647 139v-7q0 -37 25.5 -66t68.5 -29t67.5 28.5t24.5 66.5v7q0 39 -23 67t-69 28q-42 0 -68 -27.5t-26 -67.5z
" />
    <glyph glyph-name="oneeighth" unicode="&#x215b;" horiz-adv-x="948" 
d="M152 290v296h-102v47h102v71h55v-414h-55zM173 0l469 704h64l-468 -704h-65zM812 219v-1q37 -7 62 -35t25 -71q0 -52 -41.5 -86t-107.5 -34t-107 34t-41 86q0 43 24.5 71t61.5 35v1q-34 7 -54.5 32.5t-20.5 59.5q0 49 38.5 80.5t98.5 31.5q61 0 99 -31.5t38 -80.5
q0 -34 -20.5 -59.5t-54.5 -32.5zM667 311v-6q0 -28 23 -47.5t60 -19.5t60 19.5t23 47.5v6q0 28 -22.5 47.5t-60.5 19.5t-60.5 -19.5t-22.5 -47.5zM657 120v-7q0 -33 25 -55t68 -22t68.5 22t25.5 55v7q0 32 -25.5 54t-68.5 22t-68 -22t-25 -54z" />
    <glyph glyph-name="threeeighths" unicode="&#x215c;" horiz-adv-x="961" 
d="M279 405v8q0 34 -24 56t-67 22h-44v40l114 126h-190v47h252v-47l-113 -124v-1q58 -4 93 -37t35 -87t-39 -90t-104 -36q-67 0 -103 35t-39 85h55q2 -29 22.5 -52t65.5 -23q43 0 64.5 23t21.5 55zM206 0l469 704h64l-468 -704h-65zM825 219v-1q37 -7 62 -35t25 -71
q0 -52 -41.5 -86t-107.5 -34t-107 34t-41 86q0 43 24.5 71t61.5 35v1q-34 7 -54.5 32.5t-20.5 59.5q0 49 38.5 80.5t98.5 31.5q61 0 99 -31.5t38 -80.5q0 -34 -20.5 -59.5t-54.5 -32.5zM680 311v-6q0 -28 23 -47.5t60 -19.5t60 19.5t23 47.5v6q0 28 -22.5 47.5t-60.5 19.5
t-60.5 -19.5t-22.5 -47.5zM670 120v-7q0 -33 25 -55t68 -22t68.5 22t25.5 55v7q0 32 -25.5 54t-68.5 22t-68 -22t-25 -54z" />
    <glyph glyph-name="fiveeighths" unicode="&#x215d;" horiz-adv-x="956" 
d="M65 473v231h251v-47h-201v-137q16 28 41 40t54 12q60 0 94 -40.5t34 -102.5t-39 -104.5t-108 -42.5q-60 0 -98.5 33.5t-42.5 86.5h56q1 -30 23.5 -52t62.5 -22q46 0 68 28.5t22 68.5v6q0 41 -21 68t-64 27q-30 0 -50.5 -14t-31.5 -39h-50zM201 0l469 704h64l-468 -704
h-65zM820 219v-1q37 -7 62 -35t25 -71q0 -52 -41.5 -86t-107.5 -34t-107 34t-41 86q0 43 24.5 71t61.5 35v1q-34 7 -54.5 32.5t-20.5 59.5q0 49 38.5 80.5t98.5 31.5q61 0 99 -31.5t38 -80.5q0 -34 -20.5 -59.5t-54.5 -32.5zM675 311v-6q0 -28 23 -47.5t60 -19.5t60 19.5
t23 47.5v6q0 28 -22.5 47.5t-60.5 19.5t-60.5 -19.5t-22.5 -47.5zM665 120v-7q0 -33 25 -55t68 -22t68.5 22t25.5 55v7q0 32 -25.5 54t-68.5 22t-68 -22t-25 -54z" />
    <glyph glyph-name="seveneighths" unicode="&#x215e;" horiz-adv-x="914" 
d="M77 290l192 367h-219v47h277v-46l-191 -368h-59zM139 0l469 704h64l-468 -704h-65zM777 219v-1q37 -7 62 -35t25 -71q0 -52 -41.5 -86t-107.5 -34t-107 34t-41 86q0 43 24.5 71t61.5 35v1q-34 7 -54.5 32.5t-20.5 59.5q0 49 38.5 80.5t98.5 31.5q61 0 99 -31.5t38 -80.5
q0 -34 -20.5 -59.5t-54.5 -32.5zM632 311v-6q0 -28 23 -47.5t60 -19.5t60 19.5t23 47.5v6q0 28 -22.5 47.5t-60.5 19.5t-60.5 -19.5t-22.5 -47.5zM622 120v-7q0 -33 25 -55t68 -22t68.5 22t25.5 55v7q0 32 -25.5 54t-68.5 22t-68 -22t-25 -54z" />
    <glyph glyph-name="arrowleft" unicode="&#x2190;" horiz-adv-x="832" 
d="M761 323v-66h-598l239 -239h-89l-272 272l272 272h89l-239 -239h598z" />
    <glyph glyph-name="arrowup" unicode="&#x2191;" horiz-adv-x="677" 
d="M371 0h-66v598l-239 -239v89l272 272l272 -272v-89l-239 239v-598z" />
    <glyph glyph-name="arrowright" unicode="&#x2192;" horiz-adv-x="832" 
d="M71 257v66h598l-239 239h89l272 -272l-272 -272h-89l239 239h-598z" />
    <glyph glyph-name="arrowdown" unicode="&#x2193;" horiz-adv-x="677" 
d="M306 704h66v-598l239 239v-89l-272 -272l-272 272v89l239 -239v598z" />
    <glyph glyph-name="uni2196" unicode="&#x2196;" horiz-adv-x="770" 
d="M655 66l-47 -46l-423 422v-338l-63 63v385h385l63 -63h-338z" />
    <glyph glyph-name="uni2197" unicode="&#x2197;" horiz-adv-x="771" 
d="M113 66l423 423h-338l63 63h385v-385l-63 -63v338l-423 -422z" />
    <glyph glyph-name="uni2198" unicode="&#x2198;" horiz-adv-x="771" 
d="M113 510l47 46l423 -422v338l63 -63v-385h-385l-63 63h338z" />
    <glyph glyph-name="uni2199" unicode="&#x2199;" horiz-adv-x="770" 
d="M658 510l-423 -423h338l-63 -63h-385v385l63 63v-338l423 422z" />
    <glyph glyph-name="minus" unicode="&#x2212;" horiz-adv-x="606" 
d="M42 289v62h521v-62h-521z" />
    <glyph glyph-name="approxequal" unicode="&#x2248;" horiz-adv-x="606" 
d="M50 354q0 27 7.5 52.5t23.5 45t41 31.5t59 12q37 0 67.5 -15.5t58 -34.5t54.5 -34.5t58 -15.5q34 0 55 26t22 61h60q0 -61 -37.5 -104t-98.5 -43q-42 0 -74 16t-59 34.5t-52 34.5t-54 16q-35 0 -52.5 -26t-18.5 -56h-60zM50 129q0 26 7.5 51.5t23.5 45t41 31.5t59 12
q37 0 67.5 -15.5t58 -34t54.5 -34t58 -15.5q34 0 55 26t22 60h60q0 -61 -37.5 -103.5t-98.5 -42.5q-42 0 -74 15.5t-59 34.5t-52 34.5t-54 15.5q-35 0 -52.5 -25.5t-18.5 -55.5h-60z" />
    <glyph glyph-name="notequal" unicode="&#x2260;" horiz-adv-x="606" 
d="M127 22l76 160h-157v62h186l73 152h-259v62h288l76 160h64l-76 -160h161v-62h-191l-72 -152h263v-62h-293l-76 -160h-63z" />
    <glyph glyph-name="lessequal" unicode="&#x2264;" horiz-adv-x="606" 
d="M533 194l-493 159v66l493 161v-70l-399 -123l399 -124v-69zM42 40v61h491v-61h-491z" />
    <glyph glyph-name="greaterequal" unicode="&#x2265;" horiz-adv-x="606" 
d="M73 194v69l399 124l-399 123v70l493 -161v-66zM564 40h-491v61h491v-61z" />
    <glyph glyph-name="uni2460" unicode="&#x2460;" 
d="M762 353q0 -84 -29.5 -152.5t-79.5 -116t-116.5 -73t-140.5 -25.5t-140.5 25.5t-116.5 73t-79.5 116t-29.5 152.5t29.5 152.5t79.5 115.5t116.5 72.5t140.5 25.5t140.5 -25.5t116.5 -72.5t79.5 -115.5t29.5 -152.5zM84 353q0 -73 25 -132t67.5 -100t99.5 -63t120 -22
t120 22t99.5 63t67.5 100t25 132q0 72 -25 131t-67.5 100t-99.5 63t-120 22t-120 -22t-99.5 -63t-67.5 -100t-25 -131zM378 148v296h-102v47h102v71h56v-414h-56z" />
    <glyph glyph-name="uni2461" unicode="&#x2461;" 
d="M762 353q0 -84 -29.5 -152.5t-79.5 -116t-116.5 -73t-140.5 -25.5t-140.5 25.5t-116.5 73t-79.5 116t-29.5 152.5t29.5 152.5t79.5 115.5t116.5 72.5t140.5 25.5t140.5 -25.5t116.5 -72.5t79.5 -115.5t29.5 -152.5zM84 353q0 -73 25 -132t67.5 -100t99.5 -63t120 -22
t120 22t99.5 63t67.5 100t25 132q0 72 -25 131t-67.5 100t-99.5 63t-120 22t-120 -22t-99.5 -63t-67.5 -100t-25 -131zM260 148v48q0 40 19.5 67.5t61.5 55.5l77 51q31 22 41.5 41t10.5 38v7q0 29 -18.5 49.5t-56.5 20.5q-37 0 -58.5 -21.5t-22.5 -59.5h-54q1 58 39.5 92
t95.5 34q60 0 95.5 -33.5t35.5 -82.5q0 -34 -17 -64t-63 -60l-81 -55q-26 -19 -38 -36t-12 -40v-5h219v-47h-274z" />
    <glyph glyph-name="uni2462" unicode="&#x2462;" 
d="M762 353q0 -84 -29.5 -152.5t-79.5 -116t-116.5 -73t-140.5 -25.5t-140.5 25.5t-116.5 73t-79.5 116t-29.5 152.5t29.5 152.5t79.5 115.5t116.5 72.5t140.5 25.5t140.5 -25.5t116.5 -72.5t79.5 -115.5t29.5 -152.5zM84 353q0 -73 25 -132t67.5 -100t99.5 -63t120 -22
t120 22t99.5 63t67.5 100t25 132q0 72 -25 131t-67.5 100t-99.5 63t-120 22t-120 -22t-99.5 -63t-67.5 -100t-25 -131zM483 263v8q0 34 -24 56t-67 22h-45v40l114 126h-190v47h252v-47l-112 -124v-1q58 -4 93 -37t35 -87t-39 -90t-105 -36t-102.5 35t-39.5 85h55
q2 -29 23 -52t65 -23q43 0 65 23t22 55z" />
    <glyph glyph-name="uni2463" unicode="&#x2463;" 
d="M762 353q0 -84 -29.5 -152.5t-79.5 -116t-116.5 -73t-140.5 -25.5t-140.5 25.5t-116.5 73t-79.5 116t-29.5 152.5t29.5 152.5t79.5 115.5t116.5 72.5t140.5 25.5t140.5 -25.5t116.5 -72.5t79.5 -115.5t29.5 -152.5zM84 353q0 -73 25 -132t67.5 -100t99.5 -63t120 -22
t120 22t99.5 63t67.5 100t25 132q0 72 -25 131t-67.5 100t-99.5 63t-120 22t-120 -22t-99.5 -63t-67.5 -100t-25 -131zM215 251v45l193 266h64v-264h67v-47h-67v-103h-55v103h-202zM270 299v-1h147v202z" />
    <glyph glyph-name="uni2464" unicode="&#x2464;" 
d="M762 353q0 -84 -29.5 -152.5t-79.5 -116t-116.5 -73t-140.5 -25.5t-140.5 25.5t-116.5 73t-79.5 116t-29.5 152.5t29.5 152.5t79.5 115.5t116.5 72.5t140.5 25.5t140.5 -25.5t116.5 -72.5t79.5 -115.5t29.5 -152.5zM84 353q0 -73 25 -132t67.5 -100t99.5 -63t120 -22
t120 22t99.5 63t67.5 100t25 132q0 72 -25 131t-67.5 100t-99.5 63t-120 22t-120 -22t-99.5 -63t-67.5 -100t-25 -131zM268 331v231h251v-47h-201v-137q15 28 40.5 40t54.5 12q60 0 94 -40.5t34 -102.5t-39 -104.5t-108 -42.5q-61 0 -99.5 33.5t-42.5 86.5h57
q1 -30 23.5 -52t61.5 -22q46 0 68.5 28.5t22.5 68.5v6q0 41 -21 68t-64 27q-30 0 -51 -14t-31 -39h-50z" />
    <glyph glyph-name="uni2465" unicode="&#x2465;" 
d="M762 353q0 -84 -29.5 -152.5t-79.5 -116t-116.5 -73t-140.5 -25.5t-140.5 25.5t-116.5 73t-79.5 116t-29.5 152.5t29.5 152.5t79.5 115.5t116.5 72.5t140.5 25.5t140.5 -25.5t116.5 -72.5t79.5 -115.5t29.5 -152.5zM84 353q0 -73 25 -132t67.5 -100t99.5 -63t120 -22
t120 22t99.5 63t67.5 100t25 132q0 72 -25 131t-67.5 100t-99.5 63t-120 22t-120 -22t-99.5 -63t-67.5 -100t-25 -131zM544 283q0 -62 -41.5 -103t-106.5 -41q-64 0 -105 42.5t-41 103.5q0 34 11 64t35 64l105 148h64l-116 -157q13 9 28 14.5t35 5.5q56 0 94 -39.5
t38 -101.5zM304 286v-7q0 -37 25.5 -66t68.5 -29t67.5 28.5t24.5 66.5v7q0 39 -23 67t-69 28q-42 0 -68 -27.5t-26 -67.5z" />
    <glyph glyph-name="uni2466" unicode="&#x2466;" 
d="M762 353q0 -84 -29.5 -152.5t-79.5 -116t-116.5 -73t-140.5 -25.5t-140.5 25.5t-116.5 73t-79.5 116t-29.5 152.5t29.5 152.5t79.5 115.5t116.5 72.5t140.5 25.5t140.5 -25.5t116.5 -72.5t79.5 -115.5t29.5 -152.5zM84 353q0 -73 25 -132t67.5 -100t99.5 -63t120 -22
t120 22t99.5 63t67.5 100t25 132q0 72 -25 131t-67.5 100t-99.5 63t-120 22t-120 -22t-99.5 -63t-67.5 -100t-25 -131zM285 148l192 367h-219v47h276v-46l-190 -368h-59z" />
    <glyph glyph-name="uni2467" unicode="&#x2467;" 
d="M762 353q0 -84 -29.5 -152.5t-79.5 -116t-116.5 -73t-140.5 -25.5t-140.5 25.5t-116.5 73t-79.5 116t-29.5 152.5t29.5 152.5t79.5 115.5t116.5 72.5t140.5 25.5t140.5 -25.5t116.5 -72.5t79.5 -115.5t29.5 -152.5zM84 353q0 -73 25 -132t67.5 -100t99.5 -63t120 -22
t120 22t99.5 63t67.5 100t25 132q0 72 -25 131t-67.5 100t-99.5 63t-120 22t-120 -22t-99.5 -63t-67.5 -100t-25 -131zM458 366v-1q37 -7 62 -35t25 -71q0 -52 -41.5 -86t-107.5 -34t-107 34t-41 86q0 43 24.5 71t61.5 35v1q-34 7 -54.5 32.5t-20.5 59.5q0 49 38.5 80.5
t98.5 31.5q61 0 99 -31.5t38 -80.5q0 -34 -20.5 -59.5t-54.5 -32.5zM313 458v-6q0 -28 23 -47.5t60 -19.5t60 19.5t23 47.5v6q0 28 -22.5 47.5t-60.5 19.5t-60.5 -19.5t-22.5 -47.5zM303 267v-7q0 -33 25 -55t68 -22t68.5 22t25.5 55v7q0 32 -25.5 54t-68.5 22t-68 -22
t-25 -54z" />
    <glyph glyph-name="uni2468" unicode="&#x2468;" 
d="M762 353q0 -84 -29.5 -152.5t-79.5 -116t-116.5 -73t-140.5 -25.5t-140.5 25.5t-116.5 73t-79.5 116t-29.5 152.5t29.5 152.5t79.5 115.5t116.5 72.5t140.5 25.5t140.5 -25.5t116.5 -72.5t79.5 -115.5t29.5 -152.5zM84 353q0 -73 25 -132t67.5 -100t99.5 -63t120 -22
t120 22t99.5 63t67.5 100t25 132q0 72 -25 131t-67.5 100t-99.5 63t-120 22t-120 -22t-99.5 -63t-67.5 -100t-25 -131zM249 427q0 62 41.5 103t106.5 41q64 0 105 -42.5t41 -103.5q0 -34 -11 -64t-35 -64l-106 -148h-63l116 157h-1q-12 -9 -27 -14.5t-35 -5.5
q-57 0 -94.5 39.5t-37.5 101.5zM488 424v7q0 37 -25 66t-68 29q-44 0 -67.5 -28.5t-23.5 -66.5v-7q0 -40 22.5 -67.5t68.5 -27.5q41 0 67 27.5t26 67.5z" />
    <glyph glyph-name="uni24EA" unicode="&#x24ea;" 
d="M762 353q0 -85 -29.5 -153.5t-79.5 -116t-116.5 -73t-140.5 -25.5t-140.5 25.5t-116.5 73t-79.5 116t-29.5 153.5q0 84 29.5 152.5t79.5 115.5t116.5 72.5t140.5 25.5t140.5 -25.5t116.5 -72.5t79.5 -115.5t29.5 -152.5zM86 353q0 -73 25 -132t67 -99.5t98.5 -62.5
t119.5 -22t119.5 22t98.5 62.5t67 99.5t25 132q0 72 -25 130.5t-67 99t-98.5 62.5t-119.5 22t-119.5 -22t-98.5 -62.5t-67 -99t-25 -130.5zM396 570q67 0 106 -41t39 -110v-128q0 -71 -39.5 -111.5t-105.5 -40.5q-67 0 -106 40.5t-39 111.5v128q0 69 39 110t106 41zM396 187
q43 0 66 28t23 76v127q0 47 -23 75.5t-66 28.5t-66.5 -28.5t-23.5 -75.5v-127q0 -48 23.5 -76t66.5 -28z" />
    <glyph glyph-name="uni24FF" unicode="&#x24ff;" 
d="M762 353q0 -85 -29.5 -153.5t-79.5 -116t-116.5 -73t-140.5 -25.5t-140.5 25.5t-116.5 73t-79.5 116t-29.5 153.5q0 84 29.5 152.5t79.5 115.5t116.5 72.5t140.5 25.5t140.5 -25.5t116.5 -72.5t79.5 -115.5t29.5 -152.5zM396 570q-67 0 -106 -41t-39 -110v-128
q0 -71 39 -111.5t106 -40.5q66 0 105.5 40.5t39.5 111.5v128q0 69 -39 110t-106 41zM396 187q-43 0 -66.5 28t-23.5 76v127q0 47 23.5 75.5t66.5 28.5t66 -28.5t23 -75.5v-127q0 -48 -23 -76t-66 -28z" />
    <glyph glyph-name="uni25B4" unicode="&#x25b4;" horiz-adv-x="566" 
d="M60 182l223 363l223 -363h-446z" />
    <glyph glyph-name="uni25B5" unicode="&#x25b5;" horiz-adv-x="566" 
d="M60 182l223 363l223 -363h-446zM283 462l-147 -239h294z" />
    <glyph glyph-name="uni25B8" unicode="&#x25b8;" horiz-adv-x="566" 
d="M102 586l363 -223l-363 -223v446z" />
    <glyph glyph-name="uni25B9" unicode="&#x25b9;" horiz-adv-x="566" 
d="M102 586l363 -223l-363 -223v446zM382 363l-239 147v-294z" />
    <glyph glyph-name="uni25BE" unicode="&#x25be;" horiz-adv-x="566" 
d="M506 544l-223 -363l-223 363h446z" />
    <glyph glyph-name="uni25BF" unicode="&#x25bf;" horiz-adv-x="566" 
d="M506 544l-223 -363l-223 363h446zM283 264l147 239h-294z" />
    <glyph glyph-name="uni25C2" unicode="&#x25c2;" horiz-adv-x="566" 
d="M464 140l-363 223l363 223v-446z" />
    <glyph glyph-name="uni25C3" unicode="&#x25c3;" horiz-adv-x="566" 
d="M464 140l-363 223l363 223v-446zM184 363l239 -147v294z" />
    <glyph glyph-name="uni2776" unicode="&#x2776;" 
d="M762 353q0 -85 -29.5 -153.5t-79.5 -116t-116.5 -73t-140.5 -25.5t-140.5 25.5t-116.5 73t-79.5 116t-29.5 153.5q0 84 29.5 152.5t79.5 115.5t116.5 72.5t140.5 25.5t140.5 -25.5t116.5 -72.5t79.5 -115.5t29.5 -152.5zM379 148h56v414h-56v-71h-102v-47h102v-296z" />
    <glyph glyph-name="uni2777" unicode="&#x2777;" 
d="M762 353q0 -85 -29.5 -153.5t-79.5 -116t-116.5 -73t-140.5 -25.5t-140.5 25.5t-116.5 73t-79.5 116t-29.5 153.5q0 84 29.5 152.5t79.5 115.5t116.5 72.5t140.5 25.5t140.5 -25.5t116.5 -72.5t79.5 -115.5t29.5 -152.5zM260 148h274v47h-219v5q0 23 12 40t38 36l81 55
q46 30 63 60t17 64q0 49 -35.5 82.5t-95.5 33.5q-57 0 -95.5 -34t-39.5 -92h54q1 38 22.5 59.5t58.5 21.5q38 0 56.5 -20.5t18.5 -49.5v-7q0 -19 -10.5 -38t-41.5 -41l-77 -51q-42 -28 -61.5 -55.5t-19.5 -67.5v-48z" />
    <glyph glyph-name="uni2778" unicode="&#x2778;" 
d="M762 353q0 -85 -29.5 -153.5t-79.5 -116t-116.5 -73t-140.5 -25.5t-140.5 25.5t-116.5 73t-79.5 116t-29.5 153.5q0 84 29.5 152.5t79.5 115.5t116.5 72.5t140.5 25.5t140.5 -25.5t116.5 -72.5t79.5 -115.5t29.5 -152.5zM483 263q0 -32 -22 -55t-65 -23q-44 0 -65 23
t-23 52h-55q3 -50 39.5 -85t102.5 -35t105 36t39 90t-35 87t-93 37v1l112 124v47h-252v-47h190l-114 -126v-40h45q43 0 67 -22t24 -56v-8z" />
    <glyph glyph-name="uni2779" unicode="&#x2779;" 
d="M762 353q0 -85 -29.5 -153.5t-79.5 -116t-116.5 -73t-140.5 -25.5t-140.5 25.5t-116.5 73t-79.5 116t-29.5 153.5q0 84 29.5 152.5t79.5 115.5t116.5 72.5t140.5 25.5t140.5 -25.5t116.5 -72.5t79.5 -115.5t29.5 -152.5zM215 251h202v-103h55v103h67v47h-67v264h-64
l-193 -266v-45zM270 299l147 201v-202h-147v1z" />
    <glyph glyph-name="uni277A" unicode="&#x277a;" 
d="M762 353q0 -85 -29.5 -153.5t-79.5 -116t-116.5 -73t-140.5 -25.5t-140.5 25.5t-116.5 73t-79.5 116t-29.5 153.5q0 84 29.5 152.5t79.5 115.5t116.5 72.5t140.5 25.5t140.5 -25.5t116.5 -72.5t79.5 -115.5t29.5 -152.5zM268 331h50q10 25 31 39t51 14q43 0 64 -27
t21 -68v-6q0 -40 -22.5 -68.5t-68.5 -28.5q-39 0 -61.5 22t-23.5 52h-57q4 -53 42.5 -86.5t99.5 -33.5q69 0 108 42.5t39 104.5t-34 102.5t-94 40.5q-29 0 -54.5 -12t-40.5 -40v137h201v47h-251v-231z" />
    <glyph glyph-name="uni277B" unicode="&#x277b;" 
d="M762 353q0 -85 -29.5 -153.5t-79.5 -116t-116.5 -73t-140.5 -25.5t-140.5 25.5t-116.5 73t-79.5 116t-29.5 153.5q0 84 29.5 152.5t79.5 115.5t116.5 72.5t140.5 25.5t140.5 -25.5t116.5 -72.5t79.5 -115.5t29.5 -152.5zM544 283q0 62 -38 101.5t-94 39.5q-20 0 -35 -5.5
t-28 -14.5l116 157h-64l-105 -148q-24 -34 -35 -64t-11 -64q0 -61 41 -103.5t105 -42.5q65 0 106.5 41t41.5 103zM304 286q0 40 26 67.5t68 27.5q46 0 69 -28t23 -67v-7q0 -38 -24.5 -66.5t-67.5 -28.5t-68.5 29t-25.5 66v7z" />
    <glyph glyph-name="uni277C" unicode="&#x277c;" 
d="M762 353q0 -85 -29.5 -153.5t-79.5 -116t-116.5 -73t-140.5 -25.5t-140.5 25.5t-116.5 73t-79.5 116t-29.5 153.5q0 84 29.5 152.5t79.5 115.5t116.5 72.5t140.5 25.5t140.5 -25.5t116.5 -72.5t79.5 -115.5t29.5 -152.5zM285 148h59l190 368v46h-276v-47h219z" />
    <glyph glyph-name="uni277D" unicode="&#x277d;" 
d="M762 353q0 -85 -29.5 -153.5t-79.5 -116t-116.5 -73t-140.5 -25.5t-140.5 25.5t-116.5 73t-79.5 116t-29.5 153.5q0 84 29.5 152.5t79.5 115.5t116.5 72.5t140.5 25.5t140.5 -25.5t116.5 -72.5t79.5 -115.5t29.5 -152.5zM458 366q34 7 54.5 32.5t20.5 59.5q0 49 -38 80.5
t-99 31.5q-60 0 -98.5 -31.5t-38.5 -80.5q0 -34 20.5 -59.5t54.5 -32.5v-1q-37 -7 -61.5 -35t-24.5 -71q0 -52 41 -86t107 -34t107.5 34t41.5 86q0 43 -25 71t-62 35v1zM313 458q0 28 22.5 47.5t60.5 19.5t60.5 -19.5t22.5 -47.5v-6q0 -28 -23 -47.5t-60 -19.5t-60 19.5
t-23 47.5v6zM303 267q0 32 25 54t68 22t68.5 -22t25.5 -54v-7q0 -33 -25.5 -55t-68.5 -22t-68 22t-25 55v7z" />
    <glyph glyph-name="uni277E" unicode="&#x277e;" 
d="M762 353q0 -85 -29.5 -153.5t-79.5 -116t-116.5 -73t-140.5 -25.5t-140.5 25.5t-116.5 73t-79.5 116t-29.5 153.5q0 84 29.5 152.5t79.5 115.5t116.5 72.5t140.5 25.5t140.5 -25.5t116.5 -72.5t79.5 -115.5t29.5 -152.5zM248 427q0 -62 37.5 -101.5t94.5 -39.5
q20 0 35 5.5t27 14.5h1l-116 -157h63l106 148q24 34 35 64t11 64q0 61 -41 103.5t-105 42.5q-65 0 -106.5 -41t-41.5 -103zM487 424q0 -40 -26 -67.5t-67 -27.5q-46 0 -68.5 27.5t-22.5 67.5v7q0 38 23.5 66.5t67.5 28.5q43 0 68 -29t25 -66v-7z" />
    <glyph glyph-name="commaaccent" unicode="&#xf6c3;" horiz-adv-x="248" 
d="M100 -207h-65l42 122h73z" />
    <glyph glyph-name="IJacute" horiz-adv-x="842" 
d="M97 704h75v-704h-75v704zM186 932h82l-104 -140h-59zM539 -15q-53 0 -95 17.5t-70.5 48.5t-43.5 74.5t-15 94.5v57h74v-55q0 -78 39 -125t111 -47q73 0 111 47t38 125v482h75v-484q0 -51 -15 -94.5t-43.5 -74.5t-70.5 -48.5t-95 -17.5zM769 934h82l-104 -140h-59z" />
    <glyph glyph-name="Jacute" horiz-adv-x="575" 
d="M272 -15q-53 0 -95 17.5t-70.5 48.5t-43.5 74.5t-15 94.5v57h74v-55q0 -78 39 -125t111 -47q73 0 111 47t38 125v482h75v-484q0 -51 -15 -94.5t-43.5 -74.5t-70.5 -48.5t-95 -17.5zM502 934h82l-104 -140h-59z" />
    <glyph glyph-name="blackcircle" horiz-adv-x="570" 
d="M285 122q-34 0 -64 13t-52.5 35.5t-35.5 52.5t-13 64q0 68 48.5 116.5t116.5 48.5t116.5 -48.5t48.5 -116.5q0 -34 -13 -64t-35.5 -52.5t-52.5 -35.5t-64 -13z" />
    <glyph glyph-name="blackdiamond" horiz-adv-x="570" 
d="M285 74l-223 223l223 223l223 -223z" />
    <glyph glyph-name="blackdownpointingtriangle" horiz-adv-x="740" 
d="M376 -2l-326 668h640z" />
    <glyph glyph-name="blackleftpointingtriangle" horiz-adv-x="740" 
d="M30 326l603 326v-640z" />
    <glyph glyph-name="blackrightpointingtriangle" horiz-adv-x="740" 
d="M709 338l-603 -326v640z" />
    <glyph glyph-name="blacksquare" horiz-adv-x="570" 
d="M127 132v316h316v-316h-316z" />
    <glyph glyph-name="blacktriangle" horiz-adv-x="570" 
d="M141 74v446l363 -223z" />
    <glyph glyph-name="blackuppointingtriangle" horiz-adv-x="740" 
d="M364 668l326 -668h-640z" />
    <glyph glyph-name="commatest" horiz-adv-x="500" 
d="M54 -71h82l-104 -140h-59z" />
    <glyph glyph-name="dotbelow" horiz-adv-x="499" 
d="M251 -192h-2q-20 0 -33.5 13.5t-13.5 33.5q0 19 13.5 32.5t33.5 13.5h2q20 0 33.5 -13.5t13.5 -32.5q0 -20 -13.5 -33.5t-33.5 -13.5z" />
    <glyph glyph-name="idotaccent" horiz-adv-x="235" 
d="M82 514h72v-514h-72v514zM119 632h-2q-20 0 -33.5 13.5t-13.5 32.5q0 20 13.5 33.5t33.5 13.5h2q20 0 33.5 -13.5t13.5 -33.5q0 -19 -13.5 -32.5t-33.5 -13.5z" />
    <glyph glyph-name="ijacute" horiz-adv-x="478" 
d="M83 514h72v-514h-72v514zM170 742h82l-104 -140h-59zM321 -74v588h72v-590q0 -58 -28 -87t-90 -29h-102v61h91q31 0 44 13.5t13 43.5zM410 743h82l-104 -140h-59z" />
    <glyph glyph-name="jacute" horiz-adv-x="244" 
d="M82 -74v588h72v-590q0 -58 -28 -87t-90 -29h-102v61h91q31 0 44 13.5t13 43.5zM171 743h82l-104 -140h-59z" />
    <glyph glyph-name="ringacute" horiz-adv-x="498" 
d="M250 580q-45 0 -78 28t-33 75q0 40 24 66t59 34l78 138h82l-101 -139q34 -8 56.5 -34t22.5 -65q0 -47 -32.5 -75t-77.5 -28zM250 620q27 0 46.5 16t19.5 47t-19.5 47t-46.5 16q-28 0 -47 -16t-19 -47t19 -47t47 -16z" />
    <glyph glyph-name="whitediamond" horiz-adv-x="570" 
d="M285 74l-223 223l223 223l223 -223zM124 297l161 -161l161 161l-161 161z" />
    <glyph glyph-name="whitedownpointingtriangle" horiz-adv-x="740" 
d="M376 -2l-326 668h640zM375 120l235 496h-477z" />
    <glyph glyph-name="whiteleftpointingtriangle" horiz-adv-x="740" 
d="M30 326l603 326v-640zM583 570l-447 -242l447 -236v478z" />
    <glyph glyph-name="whiterightpointingtriangle" horiz-adv-x="740" 
d="M709 338l-603 -326v640zM156 94l447 242l-447 236v-478z" />
    <glyph glyph-name="whitesquare" horiz-adv-x="570" 
d="M127 132v316h316v-316h-316zM171 404v-228h228v228h-228z" />
    <glyph glyph-name="whitetriangle" horiz-adv-x="570" 
d="M141 74v446l363 -223zM185 441v-288l236 144z" />
    <glyph glyph-name="whiteuppointingtriangle" horiz-adv-x="740" 
d="M364 668l326 -668h-640zM365 546l-235 -496h477z" />
    <glyph glyph-name="www" horiz-adv-x="2202" 
d="M20 514h76l134 -426h1l134 426h75l137 -425h1l133 425h79l136 -426h1l134 426h75l137 -425h1l134 425h78l137 -426h1l133 426h76l137 -425h1l130 425h72l-166 -514h-77l-136 426h-1l-135 -426h-73l-141 427h-1l-135 -427h-74l-137 426h-1l-135 -426h-73l-139 427h-1
l-136 -427h-74l-137 426h-1l-135 -426h-75z" />
    <glyph glyph-name="f_b" horiz-adv-x="1019" 
d="M137 0v453h-119v61h119v107q0 58 28.5 86.5t89.5 28.5h126v-59h-116q-31 0 -43.5 -13.5t-12.5 -44.5v-105h278v228h72v-328h1q24 53 71 83.5t111 30.5q51 0 93.5 -20.5t72 -56.5t46 -85.5t16.5 -108.5q0 -58 -16 -108t-45.5 -86t-71.5 -56.5t-95 -20.5q-66 0 -113.5 32
t-71.5 86h-1v-104h-69v453h-278v-453h-72zM897 240v34q0 45 -13.5 81t-36.5 61t-54 38t-65 13q-35 0 -66 -13.5t-53.5 -38.5t-36 -61t-13.5 -80v-34q0 -44 13.5 -80t36 -61t53.5 -38.5t66 -13.5q34 0 65 13t54 37.5t36.5 60.5t13.5 82z" />
    <glyph glyph-name="f_f_b" horiz-adv-x="1369" 
d="M137 0v453h-119v61h119v107q0 58 28.5 86.5t89.5 28.5h126v-59h-116q-31 0 -43.5 -13.5t-12.5 -44.5v-105h278v107q0 58 28.5 86.5t89.5 28.5h126v-59h-116q-31 0 -43.5 -13.5t-12.5 -44.5v-105h278v228h72v-328h1q24 53 71 83.5t111 30.5q51 0 93.5 -20.5t72 -56.5
t46 -85.5t16.5 -108.5q0 -58 -16 -108t-45.5 -86t-71.5 -56.5t-95 -20.5q-66 0 -113.5 32t-71.5 86h-1v-104h-69v453h-278v-453h-72v453h-278v-453h-72zM1247 240v34q0 45 -13.5 81t-36.5 61t-54 38t-65 13q-35 0 -66 -13.5t-53.5 -38.5t-36 -61t-13.5 -80v-34
q0 -44 13.5 -80t36 -61t53.5 -38.5t66 -13.5q34 0 65 13t54 37.5t36.5 60.5t13.5 82z" />
    <glyph glyph-name="f_f_h" horiz-adv-x="1347" 
d="M137 0v453h-119v61h119v107q0 58 28.5 86.5t89.5 28.5h126v-59h-116q-31 0 -43.5 -13.5t-12.5 -44.5v-105h278v107q0 58 28.5 86.5t89.5 28.5h126v-59h-116q-31 0 -43.5 -13.5t-12.5 -44.5v-105h278v228h70v-316h1q23 51 68.5 76.5t102.5 25.5q39 0 74 -13t61 -39
t41.5 -65t15.5 -90v-321h-72v316q0 75 -41 112.5t-98 37.5q-30 0 -57.5 -10t-48 -30.5t-33 -51.5t-12.5 -73v-301h-72v453h-278v-453h-72v453h-278v-453h-72z" />
    <glyph glyph-name="f_f_k" horiz-adv-x="1273" 
d="M137 0v453h-119v61h119v107q0 58 28.5 86.5t89.5 28.5h126v-59h-116q-31 0 -43.5 -13.5t-12.5 -44.5v-105h278v107q0 58 28.5 86.5t89.5 28.5h126v-59h-116q-31 0 -43.5 -13.5t-12.5 -44.5v-105h278v228h72v-742h-72v453h-278v-453h-72v453h-278v-453h-72zM1251 514
l-251 -237l271 -277h-96l-266 274l251 240h91z" />
    <glyph glyph-name="f_f_t" horiz-adv-x="1117" 
d="M137 0v453h-119v61h119v107q0 58 28.5 86.5t89.5 28.5h126v-59h-116q-31 0 -43.5 -13.5t-12.5 -44.5v-105h278v107q0 58 28.5 86.5t89.5 28.5h126v-59h-116q-31 0 -43.5 -13.5t-12.5 -44.5v-105h277v158h73v-158h173v-61h-173v-334q0 -31 12.5 -44.5t43.5 -13.5h117v-61
h-127q-62 0 -90.5 29t-28.5 87v337h-277v-453h-72v453h-278v-453h-72z" />
    <glyph glyph-name="f_h" horiz-adv-x="997" 
d="M137 0v453h-119v61h119v107q0 58 28.5 86.5t89.5 28.5h126v-59h-116q-31 0 -43.5 -13.5t-12.5 -44.5v-105h278v228h70v-316h1q23 51 68.5 76.5t102.5 25.5q39 0 74 -13t61 -39t41.5 -65t15.5 -90v-321h-72v316q0 75 -41 112.5t-98 37.5q-30 0 -57.5 -10t-48 -30.5
t-33 -51.5t-12.5 -73v-301h-72v453h-278v-453h-72z" />
    <glyph glyph-name="f_k" horiz-adv-x="923" 
d="M137 0v453h-119v61h119v107q0 58 28.5 86.5t89.5 28.5h126v-59h-116q-31 0 -43.5 -13.5t-12.5 -44.5v-105h278v228h72v-742h-72v453h-278v-453h-72zM901 514l-251 -237l271 -277h-96l-266 274l251 240h91z" />
    <glyph glyph-name="f_t" horiz-adv-x="767" 
d="M137 0v453h-119v61h119v107q0 58 28.5 86.5t89.5 28.5h126v-59h-116q-31 0 -43.5 -13.5t-12.5 -44.5v-105h277v158h73v-158h173v-61h-173v-334q0 -31 12.5 -44.5t43.5 -13.5h117v-61h-127q-62 0 -90.5 29t-28.5 87v337h-277v-453h-72z" />
    <glyph glyph-name="r_y" horiz-adv-x="887" 
d="M82 0v514h69v-89h1q13 36 47 62.5t97 26.5h172l165 -416h1l162 416h74l-230 -581q-26 -66 -60.5 -95.5t-111.5 -29.5h-78v61h76q46 0 64.5 15t38.5 63l27 66l-180 434h-134q-76 0 -102 -44t-26 -103v-300h-72z" />
    <glyph glyph-name="t_t" horiz-adv-x="761" 
d="M19 514h120v158h73v-158h268v158h73v-158h173v-61h-173v-334q0 -31 12.5 -44.5t43.5 -13.5h117v-61h-127q-62 0 -90.5 29t-28.5 87v337h-268v-334q0 -31 12.5 -44.5t43.5 -13.5h117v-61h-127q-62 0 -90.5 29t-28.5 87v337h-120v61z" />
    <glyph glyph-name="black_circle_downwards_arrow" 
d="M762 353q0 -84 -29.5 -152.5t-79.5 -116t-116.5 -73t-140.5 -25.5t-140.5 25.5t-116.5 73t-79.5 116t-29.5 152.5t29.5 152.5t79.5 115.5t116.5 72.5t140.5 25.5t140.5 -25.5t116.5 -72.5t79.5 -115.5t29.5 -152.5zM369 580v-332l-183 182v-72l210 -210l210 210v72
l-183 -182v332h-54z" />
    <glyph glyph-name="black_circle_leftwards_arrow" 
d="M762 353q0 -84 -29.5 -152.5t-79.5 -116t-116.5 -73t-140.5 -25.5t-140.5 25.5t-116.5 73t-79.5 116t-29.5 152.5t29.5 152.5t79.5 115.5t116.5 72.5t140.5 25.5t140.5 -25.5t116.5 -72.5t79.5 -115.5t29.5 -152.5zM612 380h-332l183 183h-73l-210 -210l210 -210h73
l-183 183h332v54z" />
    <glyph glyph-name="black_circle_north_east_arrow" 
d="M762 353q0 -84 -29.5 -152.5t-79.5 -116t-116.5 -73t-140.5 -25.5t-140.5 25.5t-116.5 73t-79.5 116t-29.5 152.5t29.5 152.5t79.5 115.5t116.5 72.5t140.5 25.5t140.5 -25.5t116.5 -72.5t79.5 -115.5t29.5 -152.5zM263 191l235 236v-259l50 52v296h-296l-52 -50h259
l-235 -236z" />
    <glyph glyph-name="black_circle_north_west_arrow" 
d="M762 353q0 -84 -29.5 -152.5t-79.5 -116t-116.5 -73t-140.5 -25.5t-140.5 25.5t-116.5 73t-79.5 116t-29.5 152.5t29.5 152.5t79.5 115.5t116.5 72.5t140.5 25.5t140.5 -25.5t116.5 -72.5t79.5 -115.5t29.5 -152.5zM568 231l-235 235h258l-51 50h-297v-296l51 -52v260
l235 -236z" />
    <glyph glyph-name="black_circle_rightwards_arrow" 
d="M762 353q0 -84 -29.5 -152.5t-79.5 -116t-116.5 -73t-140.5 -25.5t-140.5 25.5t-116.5 73t-79.5 116t-29.5 152.5t29.5 152.5t79.5 115.5t116.5 72.5t140.5 25.5t140.5 -25.5t116.5 -72.5t79.5 -115.5t29.5 -152.5zM180 326h333l-183 -183h72l210 210l-210 210h-72
l183 -183h-333v-54z" />
    <glyph glyph-name="black_circle_south_east_arrow" 
d="M762 353q0 -84 -29.5 -152.5t-79.5 -116t-116.5 -73t-140.5 -25.5t-140.5 25.5t-116.5 73t-79.5 116t-29.5 152.5t29.5 152.5t79.5 115.5t116.5 72.5t140.5 25.5t140.5 -25.5t116.5 -72.5t79.5 -115.5t29.5 -152.5zM263 504l-39 -39l235 -235h-259l52 -51h297v297l-51 52
v-260z" />
    <glyph glyph-name="black_circle_south_west_arrow" 
d="M762 353q0 -84 -29.5 -152.5t-79.5 -116t-116.5 -73t-140.5 -25.5t-140.5 25.5t-116.5 73t-79.5 116t-29.5 152.5t29.5 152.5t79.5 115.5t116.5 72.5t140.5 25.5t140.5 -25.5t116.5 -72.5t79.5 -115.5t29.5 -152.5zM569 465l-39 39l-236 -236v260l-50 -52v-297h296l52 51
h-259z" />
    <glyph glyph-name="black_circle_upwards_arrow" 
d="M762 353q0 -84 -29.5 -152.5t-79.5 -116t-116.5 -73t-140.5 -25.5t-140.5 25.5t-116.5 73t-79.5 116t-29.5 152.5t29.5 152.5t79.5 115.5t116.5 72.5t140.5 25.5t140.5 -25.5t116.5 -72.5t79.5 -115.5t29.5 -152.5zM423 148v332l183 -183v73l-210 210l-210 -210v-73
l183 183v-332h54z" />
    <glyph glyph-name="white_circle_downwards_arrow" 
d="M762 353q0 -84 -29.5 -152.5t-79.5 -116t-116.5 -73t-140.5 -25.5t-140.5 25.5t-116.5 73t-79.5 116t-29.5 152.5t29.5 152.5t79.5 115.5t116.5 72.5t140.5 25.5t140.5 -25.5t116.5 -72.5t79.5 -115.5t29.5 -152.5zM84 353q0 -73 25 -132t67.5 -100t99.5 -63t120 -22
t120 22t99.5 63t67.5 100t25 132q0 72 -25 131t-67.5 100t-99.5 63t-120 22t-120 -22t-99.5 -63t-67.5 -100t-25 -131zM369 580h54v-332l183 182v-72l-210 -210l-210 210v72l183 -182v332z" />
    <glyph glyph-name="white_circle_leftwards_arrow" 
d="M762 353q0 -84 -29.5 -152.5t-79.5 -116t-116.5 -73t-140.5 -25.5t-140.5 25.5t-116.5 73t-79.5 116t-29.5 152.5t29.5 152.5t79.5 115.5t116.5 72.5t140.5 25.5t140.5 -25.5t116.5 -72.5t79.5 -115.5t29.5 -152.5zM84 353q0 -73 25 -132t67.5 -100t99.5 -63t120 -22
t120 22t99.5 63t67.5 100t25 132q0 72 -25 131t-67.5 100t-99.5 63t-120 22t-120 -22t-99.5 -63t-67.5 -100t-25 -131zM612 380v-54h-332l183 -183h-73l-210 210l210 210h73l-183 -183h332z" />
    <glyph glyph-name="white_circle_north_east_arrow" 
d="M762 353q0 -84 -29.5 -152.5t-79.5 -116t-116.5 -73t-140.5 -25.5t-140.5 25.5t-116.5 73t-79.5 116t-29.5 152.5t29.5 152.5t79.5 115.5t116.5 72.5t140.5 25.5t140.5 -25.5t116.5 -72.5t79.5 -115.5t29.5 -152.5zM84 353q0 -73 25 -132t67.5 -100t99.5 -63t120 -22
t120 22t99.5 63t67.5 100t25 132q0 72 -25 131t-67.5 100t-99.5 63t-120 22t-120 -22t-99.5 -63t-67.5 -100t-25 -131zM263 191l-39 39l235 236h-259l52 50h296v-296l-50 -52v259z" />
    <glyph glyph-name="white_circle_north_west_arrow" 
d="M762 353q0 -84 -29.5 -152.5t-79.5 -116t-116.5 -73t-140.5 -25.5t-140.5 25.5t-116.5 73t-79.5 116t-29.5 152.5t29.5 152.5t79.5 115.5t116.5 72.5t140.5 25.5t140.5 -25.5t116.5 -72.5t79.5 -115.5t29.5 -152.5zM84 353q0 -73 25 -132t67.5 -100t99.5 -63t120 -22
t120 22t99.5 63t67.5 100t25 132q0 72 -25 131t-67.5 100t-99.5 63t-120 22t-120 -22t-99.5 -63t-67.5 -100t-25 -131zM568 231l-39 -39l-235 236v-260l-51 52v296h297l51 -50h-258z" />
    <glyph glyph-name="white_circle_rightwards_arrow" 
d="M762 353q0 -84 -29.5 -152.5t-79.5 -116t-116.5 -73t-140.5 -25.5t-140.5 25.5t-116.5 73t-79.5 116t-29.5 152.5t29.5 152.5t79.5 115.5t116.5 72.5t140.5 25.5t140.5 -25.5t116.5 -72.5t79.5 -115.5t29.5 -152.5zM84 353q0 -73 25 -132t67.5 -100t99.5 -63t120 -22
t120 22t99.5 63t67.5 100t25 132q0 72 -25 131t-67.5 100t-99.5 63t-120 22t-120 -22t-99.5 -63t-67.5 -100t-25 -131zM180 326v54h333l-183 183h72l210 -210l-210 -210h-72l183 183h-333z" />
    <glyph glyph-name="white_circle_south_east_arrow" 
d="M762 353q0 -84 -29.5 -152.5t-79.5 -116t-116.5 -73t-140.5 -25.5t-140.5 25.5t-116.5 73t-79.5 116t-29.5 152.5t29.5 152.5t79.5 115.5t116.5 72.5t140.5 25.5t140.5 -25.5t116.5 -72.5t79.5 -115.5t29.5 -152.5zM84 353q0 -73 25 -132t67.5 -100t99.5 -63t120 -22
t120 22t99.5 63t67.5 100t25 132q0 72 -25 131t-67.5 100t-99.5 63t-120 22t-120 -22t-99.5 -63t-67.5 -100t-25 -131zM263 504l235 -236v260l51 -52v-297h-297l-52 51h259l-235 235z" />
    <glyph glyph-name="white_circle_south_west_arrow" 
d="M762 353q0 -84 -29.5 -152.5t-79.5 -116t-116.5 -73t-140.5 -25.5t-140.5 25.5t-116.5 73t-79.5 116t-29.5 152.5t29.5 152.5t79.5 115.5t116.5 72.5t140.5 25.5t140.5 -25.5t116.5 -72.5t79.5 -115.5t29.5 -152.5zM84 353q0 -73 25 -132t67.5 -100t99.5 -63t120 -22
t120 22t99.5 63t67.5 100t25 132q0 72 -25 131t-67.5 100t-99.5 63t-120 22t-120 -22t-99.5 -63t-67.5 -100t-25 -131zM569 465l-236 -235h259l-52 -51h-296v297l50 52v-260l236 236z" />
    <glyph glyph-name="white_circle_upwards_arrow" 
d="M762 353q0 -84 -29.5 -152.5t-79.5 -116t-116.5 -73t-140.5 -25.5t-140.5 25.5t-116.5 73t-79.5 116t-29.5 152.5t29.5 152.5t79.5 115.5t116.5 72.5t140.5 25.5t140.5 -25.5t116.5 -72.5t79.5 -115.5t29.5 -152.5zM84 353q0 -73 25 -132t67.5 -100t99.5 -63t120 -22
t120 22t99.5 63t67.5 100t25 132q0 72 -25 131t-67.5 100t-99.5 63t-120 22t-120 -22t-99.5 -63t-67.5 -100t-25 -131zM423 148h-54v332l-183 -183v73l210 210l210 -210v-73l-183 183v-332z" />
    <glyph glyph-name="zero.zero" horiz-adv-x="597" 
d="M298 719q110 0 174 -68.5t64 -185.5v-223q0 -120 -64 -188t-174 -68q-108 0 -173 68t-65 188v223q0 117 64 185.5t174 68.5zM134 242v-8v-8l316 320q-16 51 -55.5 79.5t-96.5 28.5q-76 0 -120 -51.5t-44 -137.5v-223zM298 51q77 0 120.5 51t43.5 140v223v5.5v4.5
l-315 -319q17 -50 56.5 -77.5t94.5 -27.5z" />
    <glyph glyph-name="zero.tf.zero" horiz-adv-x="640" 
d="M320 719q116 0 184 -76t68 -207v-165q0 -134 -68 -209.5t-184 -75.5q-115 0 -183.5 75.5t-68.5 209.5v165q0 131 68 207t184 76zM142 271q0 -15 1 -28.5t3 -26.5l331 335q-21 49 -61.5 76t-95.5 27q-82 0 -130 -59.5t-48 -159.5v-164zM320 51q82 0 130 59t48 161v164
q0 13 -1 26t-3 25l-330 -334q22 -49 62 -75t94 -26z" />
    <glyph glyph-name="zero.tf" horiz-adv-x="640" 
d="M320 719q116 0 184 -76t68 -207v-165q0 -134 -68 -209.5t-184 -75.5q-115 0 -183.5 75.5t-68.5 209.5v165q0 131 68 207t184 76zM320 51q82 0 130 59t48 161v164q0 100 -47.5 159.5t-130.5 59.5q-82 0 -130 -59.5t-48 -159.5v-164q0 -102 48 -161t130 -59z" />
    <glyph glyph-name="one.tf" horiz-adv-x="640" 
d="M106 0v62h192v459h-173v62h173v121h74v-642h190v-62h-456z" />
    <glyph glyph-name="two.tf" horiz-adv-x="640" 
d="M78 0v71q0 66 37 114.5t115 94.5l150 89q63 38 83 74.5t20 72.5v13q0 54 -38 91.5t-115 37.5q-75 0 -119 -43.5t-44 -118.5h-73q0 53 18 94.5t49.5 70t75 43.5t93.5 15q104 0 166 -54t62 -139q0 -56 -28 -108.5t-109 -101.5l-156 -92q-59 -36 -86.5 -70t-27.5 -81v-10
h424v-63h-497z" />
    <glyph glyph-name="three.tf" horiz-adv-x="640" 
d="M492 195v13q0 64 -45.5 104t-123.5 40h-65v53l205 235h-355v64h434v-64l-201 -230v-1q102 -3 164 -60t62 -149q0 -93 -67 -153.5t-177 -60.5q-58 0 -103 15.5t-76 42.5t-48 63t-19 76h74q4 -53 45.5 -94.5t126.5 -41.5q83 0 126 44t43 104z" />
    <glyph glyph-name="four.tf" horiz-adv-x="640" 
d="M56 183v61l322 460h90v-459h116v-62h-116v-183h-74v183h-338zM131 249v-4h264v375h-4z" />
    <glyph glyph-name="five.tf" horiz-adv-x="640" 
d="M92 310v394h437v-62h-371v-262h4q24 51 71.5 74t104.5 23q55 0 98 -18.5t72 -51t44 -77t15 -95.5q0 -53 -17.5 -98.5t-50 -79t-80.5 -52.5t-109 -19q-106 0 -172 55t-72 140h75q3 -53 47.5 -93t122.5 -40q46 0 80 14.5t56 39t33 57.5t11 70v12q0 36 -10 68t-30 55.5
t-52 37.5t-75 14q-59 0 -101 -28t-63 -78h-68z" />
    <glyph glyph-name="six.tf" horiz-adv-x="640" 
d="M568 233q0 -52 -18.5 -97.5t-51 -78.5t-79 -52t-101.5 -19q-54 0 -99.5 19.5t-78 53t-50.5 79.5t-18 99q0 55 18.5 107t61.5 111l186 249h85l-220 -282h6q25 25 57.5 39t78.5 14q48 0 89 -18t70.5 -50t46.5 -76.5t17 -97.5zM145 239v-12q0 -33 12 -65.5t34.5 -57.5
t55.5 -40.5t74 -15.5q43 0 75.5 15t54.5 39.5t33 57t11 67.5v12q0 35 -10.5 67t-32 56t-54.5 38.5t-77 14.5q-40 0 -72.5 -14t-55.5 -38t-35.5 -56t-12.5 -68z" />
    <glyph glyph-name="seven.tf" horiz-adv-x="640" 
d="M147 0l342 641h-417v63h494v-63l-340 -641h-79z" />
    <glyph glyph-name="eight.tf" horiz-adv-x="640" 
d="M419 373v-3q63 -12 106 -59.5t43 -122.5q0 -44 -18.5 -81.5t-51.5 -64t-78.5 -41.5t-99.5 -15t-99.5 15t-78.5 41.5t-51.5 64t-18.5 81.5q0 75 43 122.5t106 59.5v3q-60 13 -95.5 56.5t-35.5 100.5q0 42 17 77t47.5 59.5t73 38.5t92.5 14t92.5 -14t73 -38.5t47.5 -59.5
t17 -77q0 -57 -35.5 -100.5t-95.5 -56.5zM162 532v-9q0 -51 44.5 -88t113.5 -37t113.5 37t44.5 88v9q0 54 -43.5 90t-114.5 36t-114.5 -36t-43.5 -90zM147 200v-12q0 -60 47.5 -101t125.5 -41t125.5 41t47.5 101v12q0 60 -47 100.5t-126 40.5t-126 -40.5t-47 -100.5z" />
    <glyph glyph-name="nine.tf" horiz-adv-x="640" 
d="M72 471q0 52 18.5 97.5t51 78.5t79 52t101.5 19q54 0 99.5 -19.5t78 -53t50.5 -79.5t18 -99q0 -55 -18.5 -107t-61.5 -111l-186 -249h-85l220 282h-6q-25 -25 -57.5 -39t-78.5 -14q-48 0 -89 18t-70.5 50t-46.5 76.5t-17 97.5zM495 465v12q0 33 -12 65.5t-34.5 57.5
t-55.5 40.5t-74 15.5q-43 0 -75.5 -15t-54.5 -39.5t-33 -57t-11 -67.5v-12q0 -35 10.5 -67t32 -56t54.5 -38.5t77 -14.5q40 0 72.5 14t55.5 38t35.5 56t12.5 68z" />
    <glyph glyph-name="parenleft.tf" horiz-adv-x="640" 
d="M460 729q-39 -39 -73.5 -85.5t-59.5 -100.5t-39.5 -115t-14.5 -128t14.5 -128t39.5 -114.5t59.5 -101t73.5 -86.5h-77q-78 78 -129.5 187.5t-51.5 242.5t51.5 242t129.5 187h77z" />
    <glyph glyph-name="parenright.tf" horiz-adv-x="640" 
d="M180 -125q39 39 73.5 85.5t59.5 100.5t39.5 115t14.5 128t-14.5 128t-39.5 114.5t-59.5 101t-73.5 86.5h77q78 -78 129.5 -187.5t51.5 -242.5t-51.5 -242t-129.5 -187h-77z" />
    <glyph glyph-name="bracketleft.tf" horiz-adv-x="640" 
d="M218 732h312v-60h-243v-744h243v-60h-312v864z" />
    <glyph glyph-name="bracketright.tf" horiz-adv-x="640" 
d="M422 -128h-312v60h243v744h-243v60h312v-864z" />
    <glyph glyph-name="braceleft.tf" horiz-adv-x="640" 
d="M137 266v68q35 0 65 20.5t30 66.5v165q0 73 36.5 109t103.5 36h158v-59h-142q-44 0 -65.5 -21t-21.5 -67v-164q0 -54 -33 -85t-73 -31v-8q40 0 73 -31t33 -85v-165q0 -46 21.5 -66.5t65.5 -20.5h142v-60h-158q-67 0 -103.5 36t-36.5 109v166q0 46 -30 66.5t-65 20.5z" />
    <glyph glyph-name="braceright.tf" horiz-adv-x="640" 
d="M503 338v-68q-35 0 -65 -20.5t-30 -66.5v-165q0 -73 -36.5 -109t-103.5 -36h-158v59h142q44 0 65.5 21t21.5 67v164q0 54 33 85t73 31v8q-40 0 -73 31t-33 85v165q0 46 -21.5 66.5t-65.5 20.5h-142v60h158q67 0 103.5 -36t36.5 -109v-166q0 -46 30 -66.5t65 -20.5z" />
    <glyph glyph-name="period.tf" horiz-adv-x="640" 
d="M320 -8q-25 0 -42 17t-17 42t17 42t42 17t42 -17t17 -42t-17 -42t-42 -17z" />
    <glyph glyph-name="comma.tf" horiz-adv-x="640" 
d="M296 -152h-68l75 246h75z" />
    <glyph glyph-name="colon.tf" horiz-adv-x="640" 
d="M320 -8q-25 0 -42 17t-17 42t17 42t42 17t42 -17t17 -42t-17 -42t-42 -17zM320 388q-25 0 -42 17t-17 42t17 42t42 17t42 -17t17 -42t-17 -42t-42 -17z" />
    <glyph glyph-name="semicolon.tf" horiz-adv-x="640" 
d="M296 -152h-68l75 246h75zM320 388q-25 0 -42 17t-17 42t17 42t42 17t42 -17t17 -42t-17 -42t-42 -17z" />
    <glyph glyph-name="plus.tf" horiz-adv-x="640" 
d="M60 289v62h229v226h62v-226h229v-62h-229v-226h-62v226h-229z" />
    <glyph glyph-name="minus.tf" horiz-adv-x="640" 
d="M60 289v62h520v-62h-520z" />
    <glyph glyph-name="plusminus.tf" horiz-adv-x="640" 
d="M60 374v61h229v165h62v-165h229v-61h-229v-164h-62v164h-229zM60 42v61h520v-61h-520z" />
    <glyph glyph-name="divide.tf" horiz-adv-x="640" 
d="M320 458q-24 0 -40 16t-16 41q0 24 16 40t40 16q25 0 40.5 -16t15.5 -40q0 -25 -15.5 -41t-40.5 -16zM60 288v61h520v-61h-520zM320 71q-24 0 -40 16t-16 41q0 24 16 40t40 16q25 0 40.5 -16t15.5 -40q0 -25 -15.5 -41t-40.5 -16z" />
    <glyph glyph-name="multiply.tf" horiz-adv-x="640" 
d="M146 103l-43 43l174 174l-172 172l43 43l172 -172l174 174l43 -43l-174 -174l172 -172l-43 -43l-172 172z" />
    <glyph glyph-name="equal.tf" horiz-adv-x="640" 
d="M63 396v62h514v-62h-514zM63 182v62h514v-62h-514z" />
    <glyph glyph-name="less.tf" horiz-adv-x="640" 
d="M555 80l-497 217v64l497 219v-68l-428 -182l428 -182v-68z" />
    <glyph glyph-name="greater.tf" horiz-adv-x="640" 
d="M84 580l497 -217v-64l-497 -219v68l428 182l-428 182v68z" />
    <glyph glyph-name="lessequal.tf" horiz-adv-x="640" 
d="M563 194l-493 159v66l493 161v-70l-400 -123l400 -124v-69zM72 40v61h491v-61h-491z" />
    <glyph glyph-name="greaterequal.tf" horiz-adv-x="640" 
d="M77 194v69l400 124l-400 123v70l493 -161v-66zM568 40h-491v61h491v-61z" />
    <glyph glyph-name="approxequal.tf" horiz-adv-x="640" 
d="M67 354q0 27 7.5 52.5t24 45t41.5 31.5t59 12q37 0 67.5 -15.5t57.5 -34.5t54 -34.5t58 -15.5q35 0 55.5 26t21.5 61h60q0 -61 -37.5 -104t-98.5 -43q-42 0 -74 16t-59 34.5t-52 34.5t-54 16q-35 0 -52.5 -26t-18.5 -56h-60zM67 129q0 26 7.5 51.5t24 45t41.5 31.5t59 12
q37 0 67.5 -15.5t57.5 -34t54 -34t58 -15.5q35 0 55.5 26t21.5 60h60q0 -61 -37.5 -103.5t-98.5 -42.5q-42 0 -74 15.5t-59 34.5t-52 34.5t-54 15.5q-35 0 -52.5 -25.5t-18.5 -55.5h-60z" />
    <glyph glyph-name="notequal.tf" horiz-adv-x="640" 
d="M143 22l76 160h-156v62h186l72 152h-258v62h288l76 160h63l-76 -160h163v-62h-192l-73 -152h265v-62h-294l-76 -160h-64z" />
    <glyph glyph-name="logicalnot.tf" horiz-adv-x="640" 
d="M52 289v62h506v-288h-61v226h-445z" />
    <glyph glyph-name="f.short" horiz-adv-x="414" 
d="M137 0v453h-119v61h119v107q0 58 28.5 86.5t89.5 28.5h126v-59h-116q-31 0 -43.5 -13.5t-12.5 -44.5v-105h186v-61h-186v-453h-72z" />
    <glyph glyph-name="A.sc" horiz-adv-x="566" 
d="M478 0l-59 155h-276l-58 -155h-72l230 590h77l233 -590h-75zM279 516l-114 -302h231l-115 302h-2z" />
    <glyph glyph-name="Agrave.sc" horiz-adv-x="566" 
d="M478 0l-59 155h-276l-58 -155h-72l230 590h77l233 -590h-75zM279 516l-114 -302h231l-115 302h-2zM230 818l80 -140h-58l-104 140h82z" />
    <glyph glyph-name="Aacute.sc" horiz-adv-x="566" 
d="M478 0l-59 155h-276l-58 -155h-72l230 590h77l233 -590h-75zM279 516l-114 -302h231l-115 302h-2zM333 818h82l-104 -140h-59z" />
    <glyph glyph-name="Acircumflex.sc" horiz-adv-x="566" 
d="M478 0l-59 155h-276l-58 -155h-72l230 590h77l233 -590h-75zM279 516l-114 -302h231l-115 302h-2zM444 678h-74l-85 102h-4l-84 -102h-65l119 140h75z" />
    <glyph glyph-name="Atilde.sc" horiz-adv-x="566" 
d="M478 0l-59 155h-276l-58 -155h-72l230 590h77l233 -590h-75zM279 516l-114 -302h231l-115 302h-2zM352 678q-31 0 -49 14.5t-32 31.5t-28 31.5t-37 14.5q-24 0 -38.5 -20t-14.5 -65h-41v3q0 60 25.5 94t70.5 34h2q31 0 49.5 -14.5t32.5 -31t28.5 -31t37.5 -14.5
q24 0 38.5 19t14.5 64h41v-3q0 -60 -26 -93.5t-72 -33.5h-2z" />
    <glyph glyph-name="Adieresis.sc" horiz-adv-x="566" 
d="M478 0l-59 155h-276l-58 -155h-72l230 590h77l233 -590h-75zM279 516l-114 -302h231l-115 302h-2zM197 708h-2q-20 0 -33.5 13.5t-13.5 32.5q0 20 13.5 33.5t33.5 13.5h2q20 0 33.5 -13.5t13.5 -33.5q0 -19 -13.5 -32.5t-33.5 -13.5zM372 708h-2q-20 0 -33.5 13.5
t-13.5 32.5q0 20 13.5 33.5t33.5 13.5h2q20 0 33.5 -13.5t13.5 -33.5q0 -19 -13.5 -32.5t-33.5 -13.5z" />
    <glyph glyph-name="Aring.sc" horiz-adv-x="566" 
d="M478 0l-59 155h-276l-58 -155h-72l230 590h77l233 -590h-75zM279 516l-114 -302h231l-115 302h-2zM283 656q-45 0 -78 28t-33 75t33 75t78 28t77.5 -28t32.5 -75t-32.5 -75t-77.5 -28zM283 696q27 0 46.5 16t19.5 47t-19.5 47t-46.5 16q-28 0 -47 -16t-19 -47t19 -47
t47 -16z" />
    <glyph glyph-name="Amacron.sc" horiz-adv-x="566" 
d="M478 0l-59 155h-276l-58 -155h-72l230 590h77l233 -590h-75zM279 516l-114 -302h231l-115 302h-2zM151 771h261v-49h-261v49z" />
    <glyph glyph-name="Abreve.sc" horiz-adv-x="566" 
d="M478 0l-59 155h-276l-58 -155h-72l230 590h77l233 -590h-75zM279 516l-114 -302h231l-115 302h-2zM279 678q-69 0 -106 41.5t-37 98.5h59q0 -45 23.5 -69t63.5 -24q43 0 66.5 25t23.5 68h57q0 -57 -38 -98.5t-107 -41.5h-5z" />
    <glyph glyph-name="Aogonek.sc" horiz-adv-x="566" 
d="M478 0l-59 155h-276l-58 -155h-72l230 590h77l233 -590h-75zM279 516l-114 -302h231l-115 302h-2zM543 26v-26q-46 -28 -68.5 -52t-22.5 -49q0 -21 16.5 -35t50.5 -14h61v-53h-71q-56 0 -83.5 26.5t-27.5 61.5q0 40 37.5 75t107.5 66z" />
    <glyph glyph-name="Acaron.sc" horiz-adv-x="566" 
d="M478 0l-59 155h-276l-58 -155h-72l230 590h77l233 -590h-75zM279 516l-114 -302h231l-115 302h-2zM123 818h74l85 -102h4l84 102h65l-119 -140h-75z" />
    <glyph glyph-name="Aringacute.sc" horiz-adv-x="566" 
d="M478 0l-59 155h-276l-58 -155h-72l230 590h77l233 -590h-75zM279 516l-114 -302h231l-115 302h-2zM264 562q-45 0 -78 28t-33 75q0 40 24 66t59 34l78 138h82l-101 -139q34 -8 56.5 -34t22.5 -65q0 -47 -32.5 -75t-77.5 -28zM264 602q27 0 46.5 16t19.5 47t-19.5 47
t-46.5 16q-28 0 -47 -16t-19 -47t19 -47t47 -16z" />
    <glyph glyph-name="Adotbelow.sc" horiz-adv-x="566" 
d="M478 0l-59 155h-276l-58 -155h-72l230 590h77l233 -590h-75zM279 516l-114 -302h231l-115 302h-2zM284 -192h-2q-20 0 -33.5 13.5t-13.5 33.5q0 19 13.5 32.5t33.5 13.5h2q20 0 33.5 -13.5t13.5 -32.5q0 -20 -13.5 -33.5t-33.5 -13.5z" />
    <glyph glyph-name="B.sc" horiz-adv-x="583" 
d="M87 0v590h255q75 0 123 -41.5t48 -110.5q0 -49 -26 -83t-71 -47q53 -12 84 -49.5t31 -94.5q0 -76 -51 -120t-129 -44h-264zM443 429v8q0 43 -29 68.5t-80 25.5h-179v-198h179q51 0 80 26t29 70zM461 163v9q0 48 -32 76.5t-89 28.5h-185v-218h186q56 0 88 28.5t32 75.5z
" />
    <glyph glyph-name="C.sc" horiz-adv-x="587" 
d="M315 48q69 0 109.5 35.5t52.5 86.5h72q-17 -81 -78 -131.5t-154 -50.5q-66 0 -116.5 24.5t-83.5 66.5t-50 98t-17 118t17 118t50 98t83.5 67t116.5 25q93 0 153 -49t78 -127h-74q-13 51 -52.5 83t-105.5 32q-40 0 -75.5 -15t-62 -44t-42 -72t-15.5 -98v-35
q0 -55 15.5 -98t42 -72t61.5 -44.5t75 -15.5z" />
    <glyph glyph-name="Ccedilla.sc" horiz-adv-x="587" 
d="M315 48q69 0 109.5 35.5t52.5 86.5h72q-17 -81 -78 -131.5t-154 -50.5q-66 0 -116.5 24.5t-83.5 66.5t-50 98t-17 118t17 118t50 98t83.5 67t116.5 25q93 0 153 -49t78 -127h-74q-13 51 -52.5 83t-105.5 32q-40 0 -75.5 -15t-62 -44t-42 -72t-15.5 -98v-35
q0 -55 15.5 -98t42 -72t61.5 -44.5t75 -15.5zM229 -217v40h69q25 0 48 9.5t23 34.5q0 23 -19.5 33.5t-54.5 10.5h-28v29l30 72h44l-26 -66q45 0 77.5 -18.5t32.5 -57.5q0 -45 -35 -65.5t-79 -21.5h-82z" />
    <glyph glyph-name="Cacute.sc" horiz-adv-x="587" 
d="M315 48q69 0 109.5 35.5t52.5 86.5h72q-17 -81 -78 -131.5t-154 -50.5q-66 0 -116.5 24.5t-83.5 66.5t-50 98t-17 118t17 118t50 98t83.5 67t116.5 25q93 0 153 -49t78 -127h-74q-13 51 -52.5 83t-105.5 32q-40 0 -75.5 -15t-62 -44t-42 -72t-15.5 -98v-35
q0 -55 15.5 -98t42 -72t61.5 -44.5t75 -15.5zM369 818h82l-104 -140h-59z" />
    <glyph glyph-name="Ccircumflex.sc" horiz-adv-x="587" 
d="M315 48q69 0 109.5 35.5t52.5 86.5h72q-17 -81 -78 -131.5t-154 -50.5q-66 0 -116.5 24.5t-83.5 66.5t-50 98t-17 118t17 118t50 98t83.5 67t116.5 25q93 0 153 -49t78 -127h-74q-13 51 -52.5 83t-105.5 32q-40 0 -75.5 -15t-62 -44t-42 -72t-15.5 -98v-35
q0 -55 15.5 -98t42 -72t61.5 -44.5t75 -15.5zM479 678h-74l-85 102h-4l-84 -102h-65l119 140h75z" />
    <glyph glyph-name="Cdotaccent.sc" horiz-adv-x="587" 
d="M315 48q69 0 109.5 35.5t52.5 86.5h72q-17 -81 -78 -131.5t-154 -50.5q-66 0 -116.5 24.5t-83.5 66.5t-50 98t-17 118t17 118t50 98t83.5 67t116.5 25q93 0 153 -49t78 -127h-74q-13 51 -52.5 83t-105.5 32q-40 0 -75.5 -15t-62 -44t-42 -72t-15.5 -98v-35
q0 -55 15.5 -98t42 -72t61.5 -44.5t75 -15.5zM319 708h-2q-20 0 -33.5 13.5t-13.5 32.5q0 20 13.5 33.5t33.5 13.5h2q20 0 33.5 -13.5t13.5 -33.5q0 -19 -13.5 -32.5t-33.5 -13.5z" />
    <glyph glyph-name="Ccaron.sc" horiz-adv-x="587" 
d="M315 48q69 0 109.5 35.5t52.5 86.5h72q-17 -81 -78 -131.5t-154 -50.5q-66 0 -116.5 24.5t-83.5 66.5t-50 98t-17 118t17 118t50 98t83.5 67t116.5 25q93 0 153 -49t78 -127h-74q-13 51 -52.5 83t-105.5 32q-40 0 -75.5 -15t-62 -44t-42 -72t-15.5 -98v-35
q0 -55 15.5 -98t42 -72t61.5 -44.5t75 -15.5zM158 818h74l85 -102h4l84 102h65l-119 -140h-75z" />
    <glyph glyph-name="D.sc" horiz-adv-x="608" 
d="M291 590q66 0 116.5 -24t83.5 -64t49.5 -94t16.5 -113q0 -60 -16.5 -113.5t-49.5 -94t-83.5 -64t-116.5 -23.5h-204v590h204zM292 530h-136v-470h136q40 0 75.5 14.5t62 42t42 68.5t15.5 93v34q0 52 -15.5 93t-42 68.5t-62 42t-75.5 14.5z" />
    <glyph glyph-name="Dcaron.sc" horiz-adv-x="608" 
d="M291 590q66 0 116.5 -24t83.5 -64t49.5 -94t16.5 -113q0 -60 -16.5 -113.5t-49.5 -94t-83.5 -64t-116.5 -23.5h-204v590h204zM292 530h-136v-470h136q40 0 75.5 14.5t62 42t42 68.5t15.5 93v34q0 52 -15.5 93t-42 68.5t-62 42t-75.5 14.5zM129 815h74l85 -102h4l84 102
h65l-119 -140h-75z" />
    <glyph glyph-name="E.sc" horiz-adv-x="533" 
d="M87 590h394v-60h-325v-195h300v-59h-300v-216h325v-60h-394v590z" />
    <glyph glyph-name="Egrave.sc" horiz-adv-x="533" 
d="M87 590h394v-60h-325v-195h300v-59h-300v-216h325v-60h-394v590zM241 818l80 -140h-58l-104 140h82z" />
    <glyph glyph-name="Eacute.sc" horiz-adv-x="533" 
d="M87 590h394v-60h-325v-195h300v-59h-300v-216h325v-60h-394v590zM345 818h82l-104 -140h-59z" />
    <glyph glyph-name="Ecircumflex.sc" horiz-adv-x="533" 
d="M87 590h394v-60h-325v-195h300v-59h-300v-216h325v-60h-394v590zM455 678h-74l-85 102h-4l-84 -102h-65l119 140h75z" />
    <glyph glyph-name="Edieresis.sc" horiz-adv-x="533" 
d="M87 590h394v-60h-325v-195h300v-59h-300v-216h325v-60h-394v590zM209 708h-2q-20 0 -33.5 13.5t-13.5 32.5q0 20 13.5 33.5t33.5 13.5h2q20 0 33.5 -13.5t13.5 -33.5q0 -19 -13.5 -32.5t-33.5 -13.5zM384 708h-2q-20 0 -33.5 13.5t-13.5 32.5q0 20 13.5 33.5t33.5 13.5h2
q20 0 33.5 -13.5t13.5 -33.5q0 -19 -13.5 -32.5t-33.5 -13.5z" />
    <glyph glyph-name="Emacron.sc" horiz-adv-x="533" 
d="M87 590h394v-60h-325v-195h300v-59h-300v-216h325v-60h-394v590zM162 771h261v-49h-261v49z" />
    <glyph glyph-name="Ebreve.sc" horiz-adv-x="533" 
d="M87 590h394v-60h-325v-195h300v-59h-300v-216h325v-60h-394v590zM290 678q-69 0 -106 41.5t-37 98.5h59q0 -45 23.5 -69t63.5 -24q43 0 66.5 25t23.5 68h57q0 -57 -38 -98.5t-107 -41.5h-5z" />
    <glyph glyph-name="Edotaccent.sc" horiz-adv-x="533" 
d="M87 590h394v-60h-325v-195h300v-59h-300v-216h325v-60h-394v590zM295 708h-2q-20 0 -33.5 13.5t-13.5 32.5q0 20 13.5 33.5t33.5 13.5h2q20 0 33.5 -13.5t13.5 -33.5q0 -19 -13.5 -32.5t-33.5 -13.5z" />
    <glyph glyph-name="Eogonek.sc" horiz-adv-x="533" 
d="M87 590h394v-60h-325v-195h300v-59h-300v-216h325v-60h-394v590zM481 26v-26q-46 -28 -68.5 -52t-22.5 -49q0 -21 16.5 -35t50.5 -14h61v-53h-71q-56 0 -83.5 26.5t-27.5 61.5q0 40 37.5 75t107.5 66z" />
    <glyph glyph-name="Ecaron.sc" horiz-adv-x="533" 
d="M87 590h394v-60h-325v-195h300v-59h-300v-216h325v-60h-394v590zM134 818h74l85 -102h4l84 102h65l-119 -140h-75z" />
    <glyph glyph-name="Edotbelow.sc" horiz-adv-x="533" 
d="M87 590h394v-60h-325v-195h300v-59h-300v-216h325v-60h-394v590zM295 -192h-2q-20 0 -33.5 13.5t-13.5 33.5q0 19 13.5 32.5t33.5 13.5h2q20 0 33.5 -13.5t13.5 -32.5q0 -20 -13.5 -33.5t-33.5 -13.5z" />
    <glyph glyph-name="Etilde.sc" horiz-adv-x="533" 
d="M87 590h394v-60h-325v-195h300v-59h-300v-216h325v-60h-394v590zM364 678q-31 0 -49 14.5t-32 31.5t-28 31.5t-37 14.5q-24 0 -38.5 -20t-14.5 -65h-41v3q0 60 25.5 94t70.5 34h2q31 0 49.5 -14.5t32.5 -31t28.5 -31t37.5 -14.5q24 0 38.5 19t14.5 64h41v-3
q0 -60 -26 -93.5t-72 -33.5h-2z" />
    <glyph glyph-name="F.sc" horiz-adv-x="509" 
d="M87 590h388v-60h-319v-204h295v-60h-295v-266h-69v590z" />
    <glyph glyph-name="G.sc" horiz-adv-x="617" 
d="M500 0v124q-15 -57 -64 -96.5t-125 -39.5q-65 0 -114 24.5t-81.5 66.5t-49 98t-16.5 118t17 118t51 98t84.5 67t116.5 25q96 0 156.5 -47t78.5 -125h-76q-11 49 -50.5 80t-107.5 31q-41 0 -77 -15t-63 -44t-43 -72t-16 -98v-36q0 -55 15.5 -98t42 -72t62.5 -44.5
t76 -15.5q45 0 78.5 16.5t54.5 43.5t31.5 63t10.5 75h-189v57h255v-302h-58z" />
    <glyph glyph-name="Gcircumflex.sc" horiz-adv-x="617" 
d="M500 0v124q-15 -57 -64 -96.5t-125 -39.5q-65 0 -114 24.5t-81.5 66.5t-49 98t-16.5 118t17 118t51 98t84.5 67t116.5 25q96 0 156.5 -47t78.5 -125h-76q-11 49 -50.5 80t-107.5 31q-41 0 -77 -15t-63 -44t-43 -72t-16 -98v-36q0 -55 15.5 -98t42 -72t62.5 -44.5
t76 -15.5q45 0 78.5 16.5t54.5 43.5t31.5 63t10.5 75h-189v57h255v-302h-58zM482 678h-74l-85 102h-4l-84 -102h-65l119 140h75z" />
    <glyph glyph-name="Gbreve.sc" horiz-adv-x="617" 
d="M500 0v124q-15 -57 -64 -96.5t-125 -39.5q-65 0 -114 24.5t-81.5 66.5t-49 98t-16.5 118t17 118t51 98t84.5 67t116.5 25q96 0 156.5 -47t78.5 -125h-76q-11 49 -50.5 80t-107.5 31q-41 0 -77 -15t-63 -44t-43 -72t-16 -98v-36q0 -55 15.5 -98t42 -72t62.5 -44.5
t76 -15.5q45 0 78.5 16.5t54.5 43.5t31.5 63t10.5 75h-189v57h255v-302h-58zM317 678q-69 0 -106 41.5t-37 98.5h59q0 -45 23.5 -69t63.5 -24q43 0 66.5 25t23.5 68h57q0 -57 -38 -98.5t-107 -41.5h-5z" />
    <glyph glyph-name="Gdotaccent.sc" horiz-adv-x="617" 
d="M500 0v124q-15 -57 -64 -96.5t-125 -39.5q-65 0 -114 24.5t-81.5 66.5t-49 98t-16.5 118t17 118t51 98t84.5 67t116.5 25q96 0 156.5 -47t78.5 -125h-76q-11 49 -50.5 80t-107.5 31q-41 0 -77 -15t-63 -44t-43 -72t-16 -98v-36q0 -55 15.5 -98t42 -72t62.5 -44.5
t76 -15.5q45 0 78.5 16.5t54.5 43.5t31.5 63t10.5 75h-189v57h255v-302h-58zM321 708h-2q-20 0 -33.5 13.5t-13.5 32.5q0 20 13.5 33.5t33.5 13.5h2q20 0 33.5 -13.5t13.5 -33.5q0 -19 -13.5 -32.5t-33.5 -13.5z" />
    <glyph glyph-name="uni0122.sc" horiz-adv-x="617" 
d="M500 0v124q-15 -57 -64 -96.5t-125 -39.5q-65 0 -114 24.5t-81.5 66.5t-49 98t-16.5 118t17 118t51 98t84.5 67t116.5 25q96 0 156.5 -47t78.5 -125h-76q-11 49 -50.5 80t-107.5 31q-41 0 -77 -15t-63 -44t-43 -72t-16 -98v-36q0 -55 15.5 -98t42 -72t62.5 -44.5
t76 -15.5q45 0 78.5 16.5t54.5 43.5t31.5 63t10.5 75h-189v57h255v-302h-58zM261 -57h82l-104 -140h-59z" />
    <glyph glyph-name="Gcaron.sc" horiz-adv-x="617" 
d="M500 0v124q-15 -57 -64 -96.5t-125 -39.5q-65 0 -114 24.5t-81.5 66.5t-49 98t-16.5 118t17 118t51 98t84.5 67t116.5 25q96 0 156.5 -47t78.5 -125h-76q-11 49 -50.5 80t-107.5 31q-41 0 -77 -15t-63 -44t-43 -72t-16 -98v-36q0 -55 15.5 -98t42 -72t62.5 -44.5
t76 -15.5q45 0 78.5 16.5t54.5 43.5t31.5 63t10.5 75h-189v57h255v-302h-58zM161 818h74l85 -102h4l84 102h65l-119 -140h-75z" />
    <glyph glyph-name="H.sc" horiz-adv-x="633" 
d="M87 590h69v-254h321v254h69v-590h-69v276h-321v-276h-69v590z" />
    <glyph glyph-name="Hcircumflex.sc" horiz-adv-x="633" 
d="M87 590h69v-254h321v254h69v-590h-69v276h-321v-276h-69v590zM478 678h-74l-85 102h-4l-84 -102h-65l119 140h75z" />
    <glyph glyph-name="I.sc" horiz-adv-x="242" 
d="M87 590h69v-590h-69v590z" />
    <glyph glyph-name="Igrave.sc" horiz-adv-x="242" 
d="M87 590h69v-590h-69v590zM69 818l80 -140h-58l-104 140h82z" />
    <glyph glyph-name="Iacute.sc" horiz-adv-x="242" 
d="M87 590h69v-590h-69v590zM173 818h82l-104 -140h-59z" />
    <glyph glyph-name="Icircumflex.sc" horiz-adv-x="242" 
d="M87 590h69v-590h-69v590zM283 678h-74l-85 102h-4l-84 -102h-65l119 140h75z" />
    <glyph glyph-name="Idieresis.sc" horiz-adv-x="242" 
d="M87 590h69v-590h-69v590zM37 708h-2q-20 0 -33.5 13.5t-13.5 32.5q0 20 13.5 33.5t33.5 13.5h2q20 0 33.5 -13.5t13.5 -33.5q0 -19 -13.5 -32.5t-33.5 -13.5zM212 708h-2q-20 0 -33.5 13.5t-13.5 32.5q0 20 13.5 33.5t33.5 13.5h2q20 0 33.5 -13.5t13.5 -33.5
q0 -19 -13.5 -32.5t-33.5 -13.5z" />
    <glyph glyph-name="Itilde.sc" horiz-adv-x="242" 
d="M87 590h69v-590h-69v590zM192 678q-31 0 -49 14.5t-32 31.5t-28 31.5t-37 14.5q-24 0 -38.5 -20t-14.5 -65h-41v3q0 60 25.5 94t70.5 34h2q31 0 49.5 -14.5t32.5 -31t28.5 -31t37.5 -14.5q24 0 38.5 19t14.5 64h41v-3q0 -60 -26 -93.5t-72 -33.5h-2z" />
    <glyph glyph-name="Imacron.sc" horiz-adv-x="242" 
d="M87 590h69v-590h-69v590zM-9 771h261v-49h-261v49z" />
    <glyph glyph-name="Ibreve.sc" horiz-adv-x="242" 
d="M87 590h69v-590h-69v590zM118 678q-69 0 -106 41.5t-37 98.5h59q0 -45 23.5 -69t63.5 -24q43 0 66.5 25t23.5 68h57q0 -57 -38 -98.5t-107 -41.5h-5z" />
    <glyph glyph-name="Iogonek.sc" horiz-adv-x="242" 
d="M87 590h69v-590h-69v590zM152 26v-26q-46 -28 -68.5 -52t-22.5 -49q0 -21 16.5 -35t50.5 -14h61v-53h-71q-56 0 -83.5 26.5t-27.5 61.5q0 40 37.5 75t107.5 66z" />
    <glyph glyph-name="Idotaccent.sc" horiz-adv-x="242" 
d="M87 590h69v-590h-69v590zM123 708h-2q-20 0 -33.5 13.5t-13.5 32.5q0 20 13.5 33.5t33.5 13.5h2q20 0 33.5 -13.5t13.5 -33.5q0 -19 -13.5 -32.5t-33.5 -13.5z" />
    <glyph glyph-name="Icaron.sc" horiz-adv-x="242" 
d="M87 590h69v-590h-69v590zM-38 818h74l85 -102h4l84 102h65l-119 -140h-75z" />
    <glyph glyph-name="Idotbelow.sc" horiz-adv-x="242" 
d="M87 590h69v-590h-69v590zM124 -192h-2q-20 0 -33.5 13.5t-13.5 33.5q0 19 13.5 32.5t33.5 13.5h2q20 0 33.5 -13.5t13.5 -32.5q0 -20 -13.5 -33.5t-33.5 -13.5z" />
    <glyph glyph-name="J.sc" horiz-adv-x="506" 
d="M237 -13q-91 0 -141 55.5t-50 142.5v49h69v-47q0 -63 32 -101t90 -38q60 0 91 38t31 101v403h69v-405q0 -87 -50.5 -142.5t-140.5 -55.5z" />
    <glyph glyph-name="Jcircumflex.sc" horiz-adv-x="506" 
d="M237 -13q-91 0 -141 55.5t-50 142.5v49h69v-47q0 -63 32 -101t90 -38q60 0 91 38t31 101v403h69v-405q0 -87 -50.5 -142.5t-140.5 -55.5zM555 679h-74l-85 102h-4l-84 -102h-65l119 140h75z" />
    <glyph glyph-name="K.sc" horiz-adv-x="546" 
d="M156 590v-590h-69v590h69zM445 0l-289 300l279 290h86l-280 -287l296 -303h-92z" />
    <glyph glyph-name="uni0136.sc" horiz-adv-x="546" 
d="M156 590v-590h-69v590h69zM445 0l-289 300l279 290h86l-280 -287l296 -303h-92zM224 -57h82l-104 -140h-59z" />
    <glyph glyph-name="L.sc" horiz-adv-x="483" 
d="M87 590h69v-530h305v-60h-374v590z" />
    <glyph glyph-name="Lacute.sc" horiz-adv-x="483" 
d="M87 590h69v-530h305v-60h-374v590zM172 818h82l-104 -140h-59z" />
    <glyph glyph-name="uni013B.sc" horiz-adv-x="483" 
d="M87 590h69v-530h305v-60h-374v590zM213 -57h82l-104 -140h-59z" />
    <glyph glyph-name="Lcaron.sc" horiz-adv-x="488" 
d="M87 590h69v-530h305v-60h-374v590z" />
    <glyph glyph-name="M.sc" horiz-adv-x="759" 
d="M87 0v590h101l192 -494h1l190 494h101v-590h-68v512h-1l-195 -512h-57l-198 511h-1v-511h-65z" />
    <glyph glyph-name="N.sc" horiz-adv-x="635" 
d="M87 0v590h86l308 -496h1v496h66v-590h-82l-311 503h-1v-503h-67z" />
    <glyph glyph-name="Ntilde.sc" horiz-adv-x="635" 
d="M87 0v590h86l308 -496h1v496h66v-590h-82l-311 503h-1v-503h-67zM400 678q-31 0 -49 14.5t-32 31.5t-28 31.5t-37 14.5q-24 0 -38.5 -20t-14.5 -65h-41v3q0 60 25.5 94t70.5 34h2q31 0 49.5 -14.5t32.5 -31t28.5 -31t37.5 -14.5q24 0 38.5 19t14.5 64h41v-3
q0 -60 -26 -93.5t-72 -33.5h-2z" />
    <glyph glyph-name="Nacute.sc" horiz-adv-x="635" 
d="M87 0v590h86l308 -496h1v496h66v-590h-82l-311 503h-1v-503h-67zM381 818h82l-104 -140h-59z" />
    <glyph glyph-name="uni0145.sc" horiz-adv-x="635" 
d="M87 0v590h86l308 -496h1v496h66v-590h-82l-311 503h-1v-503h-67zM247 -57h82l-104 -140h-59z" />
    <glyph glyph-name="Ncaron.sc" horiz-adv-x="635" 
d="M87 0v590h86l308 -496h1v496h66v-590h-82l-311 503h-1v-503h-67zM171 818h74l85 -102h4l84 102h65l-119 -140h-75z" />
    <glyph glyph-name="O.sc" horiz-adv-x="633" 
d="M317 -12q-67 0 -117.5 24.5t-83.5 66.5t-49.5 98t-16.5 118t17 118t50 98t83.5 67t116.5 25t116.5 -25t83.5 -67t49.5 -98t16.5 -118t-16.5 -118t-49.5 -98t-83.5 -66.5t-116.5 -24.5zM317 48q40 0 76 15.5t62.5 44.5t42 72t15.5 98v35q0 55 -15.5 98t-42 72t-62.5 44
t-76 15t-76 -15t-62.5 -44t-42 -72t-15.5 -98v-35q0 -55 15.5 -98t42 -72t62.5 -44.5t76 -15.5z" />
    <glyph glyph-name="Ograve.sc" horiz-adv-x="633" 
d="M317 -12q-67 0 -117.5 24.5t-83.5 66.5t-49.5 98t-16.5 118t17 118t50 98t83.5 67t116.5 25t116.5 -25t83.5 -67t49.5 -98t16.5 -118t-16.5 -118t-49.5 -98t-83.5 -66.5t-116.5 -24.5zM317 48q40 0 76 15.5t62.5 44.5t42 72t15.5 98v35q0 55 -15.5 98t-42 72t-62.5 44
t-76 15t-76 -15t-62.5 -44t-42 -72t-15.5 -98v-35q0 -55 15.5 -98t42 -72t62.5 -44.5t76 -15.5zM264 818l80 -140h-58l-104 140h82z" />
    <glyph glyph-name="Oacute.sc" horiz-adv-x="633" 
d="M317 -12q-67 0 -117.5 24.5t-83.5 66.5t-49.5 98t-16.5 118t17 118t50 98t83.5 67t116.5 25t116.5 -25t83.5 -67t49.5 -98t16.5 -118t-16.5 -118t-49.5 -98t-83.5 -66.5t-116.5 -24.5zM317 48q40 0 76 15.5t62.5 44.5t42 72t15.5 98v35q0 55 -15.5 98t-42 72t-62.5 44
t-76 15t-76 -15t-62.5 -44t-42 -72t-15.5 -98v-35q0 -55 15.5 -98t42 -72t62.5 -44.5t76 -15.5zM368 818h82l-104 -140h-59z" />
    <glyph glyph-name="Ocircumflex.sc" horiz-adv-x="633" 
d="M317 -12q-67 0 -117.5 24.5t-83.5 66.5t-49.5 98t-16.5 118t17 118t50 98t83.5 67t116.5 25t116.5 -25t83.5 -67t49.5 -98t16.5 -118t-16.5 -118t-49.5 -98t-83.5 -66.5t-116.5 -24.5zM317 48q40 0 76 15.5t62.5 44.5t42 72t15.5 98v35q0 55 -15.5 98t-42 72t-62.5 44
t-76 15t-76 -15t-62.5 -44t-42 -72t-15.5 -98v-35q0 -55 15.5 -98t42 -72t62.5 -44.5t76 -15.5zM479 678h-74l-85 102h-4l-84 -102h-65l119 140h75z" />
    <glyph glyph-name="Otilde.sc" horiz-adv-x="633" 
d="M317 -12q-67 0 -117.5 24.5t-83.5 66.5t-49.5 98t-16.5 118t17 118t50 98t83.5 67t116.5 25t116.5 -25t83.5 -67t49.5 -98t16.5 -118t-16.5 -118t-49.5 -98t-83.5 -66.5t-116.5 -24.5zM317 48q40 0 76 15.5t62.5 44.5t42 72t15.5 98v35q0 55 -15.5 98t-42 72t-62.5 44
t-76 15t-76 -15t-62.5 -44t-42 -72t-15.5 -98v-35q0 -55 15.5 -98t42 -72t62.5 -44.5t76 -15.5zM387 678q-31 0 -49 14.5t-32 31.5t-28 31.5t-37 14.5q-24 0 -38.5 -20t-14.5 -65h-41v3q0 60 25.5 94t70.5 34h2q31 0 49.5 -14.5t32.5 -31t28.5 -31t37.5 -14.5q24 0 38.5 19
t14.5 64h41v-3q0 -60 -26 -93.5t-72 -33.5h-2z" />
    <glyph glyph-name="Odieresis.sc" horiz-adv-x="633" 
d="M317 -12q-67 0 -117.5 24.5t-83.5 66.5t-49.5 98t-16.5 118t17 118t50 98t83.5 67t116.5 25t116.5 -25t83.5 -67t49.5 -98t16.5 -118t-16.5 -118t-49.5 -98t-83.5 -66.5t-116.5 -24.5zM317 48q40 0 76 15.5t62.5 44.5t42 72t15.5 98v35q0 55 -15.5 98t-42 72t-62.5 44
t-76 15t-76 -15t-62.5 -44t-42 -72t-15.5 -98v-35q0 -55 15.5 -98t42 -72t62.5 -44.5t76 -15.5zM232 708h-2q-20 0 -33.5 13.5t-13.5 32.5q0 20 13.5 33.5t33.5 13.5h2q20 0 33.5 -13.5t13.5 -33.5q0 -19 -13.5 -32.5t-33.5 -13.5zM407 708h-2q-20 0 -33.5 13.5t-13.5 32.5
q0 20 13.5 33.5t33.5 13.5h2q20 0 33.5 -13.5t13.5 -33.5q0 -19 -13.5 -32.5t-33.5 -13.5z" />
    <glyph glyph-name="Omacron.sc" horiz-adv-x="633" 
d="M317 -12q-67 0 -117.5 24.5t-83.5 66.5t-49.5 98t-16.5 118t17 118t50 98t83.5 67t116.5 25t116.5 -25t83.5 -67t49.5 -98t16.5 -118t-16.5 -118t-49.5 -98t-83.5 -66.5t-116.5 -24.5zM317 48q40 0 76 15.5t62.5 44.5t42 72t15.5 98v35q0 55 -15.5 98t-42 72t-62.5 44
t-76 15t-76 -15t-62.5 -44t-42 -72t-15.5 -98v-35q0 -55 15.5 -98t42 -72t62.5 -44.5t76 -15.5zM186 771h261v-49h-261v49z" />
    <glyph glyph-name="Obreve.sc" horiz-adv-x="633" 
d="M317 -12q-67 0 -117.5 24.5t-83.5 66.5t-49.5 98t-16.5 118t17 118t50 98t83.5 67t116.5 25t116.5 -25t83.5 -67t49.5 -98t16.5 -118t-16.5 -118t-49.5 -98t-83.5 -66.5t-116.5 -24.5zM317 48q40 0 76 15.5t62.5 44.5t42 72t15.5 98v35q0 55 -15.5 98t-42 72t-62.5 44
t-76 15t-76 -15t-62.5 -44t-42 -72t-15.5 -98v-35q0 -55 15.5 -98t42 -72t62.5 -44.5t76 -15.5zM313 678q-69 0 -106 41.5t-37 98.5h59q0 -45 23.5 -69t63.5 -24q43 0 66.5 25t23.5 68h57q0 -57 -38 -98.5t-107 -41.5h-5z" />
    <glyph glyph-name="Ohungarumlaut.sc" horiz-adv-x="633" 
d="M317 -12q-67 0 -117.5 24.5t-83.5 66.5t-49.5 98t-16.5 118t17 118t50 98t83.5 67t116.5 25t116.5 -25t83.5 -67t49.5 -98t16.5 -118t-16.5 -118t-49.5 -98t-83.5 -66.5t-116.5 -24.5zM317 48q40 0 76 15.5t62.5 44.5t42 72t15.5 98v35q0 55 -15.5 98t-42 72t-62.5 44
t-76 15t-76 -15t-62.5 -44t-42 -72t-15.5 -98v-35q0 -55 15.5 -98t42 -72t62.5 -44.5t76 -15.5zM286 818h77l-105 -140h-53zM449 818h77l-104 -140h-54z" />
    <glyph glyph-name="Ocaron.sc" horiz-adv-x="633" 
d="M317 -12q-67 0 -117.5 24.5t-83.5 66.5t-49.5 98t-16.5 118t17 118t50 98t83.5 67t116.5 25t116.5 -25t83.5 -67t49.5 -98t16.5 -118t-16.5 -118t-49.5 -98t-83.5 -66.5t-116.5 -24.5zM317 48q40 0 76 15.5t62.5 44.5t42 72t15.5 98v35q0 55 -15.5 98t-42 72t-62.5 44
t-76 15t-76 -15t-62.5 -44t-42 -72t-15.5 -98v-35q0 -55 15.5 -98t42 -72t62.5 -44.5t76 -15.5zM157 818h74l85 -102h4l84 102h65l-119 -140h-75z" />
    <glyph glyph-name="Oogonek.sc" horiz-adv-x="633" 
d="M317 -12q-67 0 -117.5 24.5t-83.5 66.5t-49.5 98t-16.5 118t17 118t50 98t83.5 67t116.5 25t116.5 -25t83.5 -67t49.5 -98t16.5 -118t-16.5 -118t-49.5 -98t-83.5 -66.5t-116.5 -24.5zM317 48q40 0 76 15.5t62.5 44.5t42 72t15.5 98v35q0 55 -15.5 98t-42 72t-62.5 44
t-76 15t-76 -15t-62.5 -44t-42 -72t-15.5 -98v-35q0 -55 15.5 -98t42 -72t62.5 -44.5t76 -15.5zM359 26v-26q-46 -28 -68.5 -52t-22.5 -49q0 -21 16.5 -35t50.5 -14h61v-53h-71q-56 0 -83.5 26.5t-27.5 61.5q0 40 37.5 75t107.5 66z" />
    <glyph glyph-name="Odotbelow.sc" horiz-adv-x="633" 
d="M317 -12q-67 0 -117.5 24.5t-83.5 66.5t-49.5 98t-16.5 118t17 118t50 98t83.5 67t116.5 25t116.5 -25t83.5 -67t49.5 -98t16.5 -118t-16.5 -118t-49.5 -98t-83.5 -66.5t-116.5 -24.5zM317 48q40 0 76 15.5t62.5 44.5t42 72t15.5 98v35q0 55 -15.5 98t-42 72t-62.5 44
t-76 15t-76 -15t-62.5 -44t-42 -72t-15.5 -98v-35q0 -55 15.5 -98t42 -72t62.5 -44.5t76 -15.5zM319 -192h-2q-20 0 -33.5 13.5t-13.5 33.5q0 19 13.5 32.5t33.5 13.5h2q20 0 33.5 -13.5t13.5 -32.5q0 -20 -13.5 -33.5t-33.5 -13.5z" />
    <glyph glyph-name="P.sc" horiz-adv-x="556" 
d="M87 0v590h245q92 0 141.5 -46.5t49.5 -123.5q0 -76 -49.5 -122.5t-141.5 -46.5h-176v-251h-69zM453 415v11q0 48 -30.5 76t-92.5 28h-174v-219h174q62 0 92.5 28.5t30.5 75.5z" />
    <glyph glyph-name="Q.sc" horiz-adv-x="633" 
d="M317 -12q-67 0 -117.5 24.5t-83.5 66.5t-49.5 98t-16.5 118t17 118t50 98t83.5 67t116.5 25t116.5 -25t83.5 -67t49.5 -98t16.5 -118q0 -90 -35.5 -165.5t-105.5 -112.5l160 -171h-85l-138 148q-15 -3 -30.5 -4.5t-31.5 -1.5zM317 48q40 0 76 15.5t62.5 44.5t42 72
t15.5 98v35q0 55 -15.5 98t-42 72t-62.5 44t-76 15t-76 -15t-62.5 -44t-42 -72t-15.5 -98v-35q0 -55 15.5 -98t42 -72t62.5 -44.5t76 -15.5z" />
    <glyph glyph-name="R.sc" horiz-adv-x="571" 
d="M87 0v590h245q92 0 142 -46.5t50 -122.5t-49.5 -121.5t-140.5 -45.5h-83l296 -254h-102l-289 254v-254h-69zM454 415v10q0 49 -30.5 77.5t-93.5 28.5h-174v-221h174q63 0 93.5 28.5t30.5 76.5z" />
    <glyph glyph-name="Racute.sc" horiz-adv-x="571" 
d="M87 0v590h245q92 0 142 -46.5t50 -122.5t-49.5 -121.5t-140.5 -45.5h-83l296 -254h-102l-289 254v-254h-69zM454 415v10q0 49 -30.5 77.5t-93.5 28.5h-174v-221h174q63 0 93.5 28.5t30.5 76.5zM327 818h82l-104 -140h-59z" />
    <glyph glyph-name="uni0156.sc" horiz-adv-x="571" 
d="M87 0v590h245q92 0 142 -46.5t50 -122.5t-49.5 -121.5t-140.5 -45.5h-83l296 -254h-102l-289 254v-254h-69zM454 415v10q0 49 -30.5 77.5t-93.5 28.5h-174v-221h174q63 0 93.5 28.5t30.5 76.5zM233 -57h82l-104 -140h-59z" />
    <glyph glyph-name="Rcaron.sc" horiz-adv-x="571" 
d="M87 0v590h245q92 0 142 -46.5t50 -122.5t-49.5 -121.5t-140.5 -45.5h-83l296 -254h-102l-289 254v-254h-69zM454 415v10q0 49 -30.5 77.5t-93.5 28.5h-174v-221h174q63 0 93.5 28.5t30.5 76.5zM117 818h74l85 -102h4l84 102h65l-119 -140h-75z" />
    <glyph glyph-name="S.sc" horiz-adv-x="542" 
d="M271 -12q-107 0 -167.5 50.5t-63.5 126.5h70q3 -57 46 -88.5t116 -31.5q70 0 112.5 31.5t42.5 83.5q0 46 -30.5 68.5t-87.5 31.5l-87 14q-72 11 -119 48t-47 112q0 35 14 66t41.5 53.5t68 36t92.5 13.5q53 0 93 -13.5t66.5 -36.5t40.5 -53t16 -62h-71q-3 48 -39.5 78
t-106.5 30q-72 0 -109 -31t-37 -77t32 -69t83 -31l85 -13q77 -12 124 -49.5t47 -111.5q0 -79 -62 -127.5t-163 -48.5z" />
    <glyph glyph-name="Sacute.sc" horiz-adv-x="542" 
d="M271 -12q-107 0 -167.5 50.5t-63.5 126.5h70q3 -57 46 -88.5t116 -31.5q70 0 112.5 31.5t42.5 83.5q0 46 -30.5 68.5t-87.5 31.5l-87 14q-72 11 -119 48t-47 112q0 35 14 66t41.5 53.5t68 36t92.5 13.5q53 0 93 -13.5t66.5 -36.5t40.5 -53t16 -62h-71q-3 48 -39.5 78
t-106.5 30q-72 0 -109 -31t-37 -77t32 -69t83 -31l85 -13q77 -12 124 -49.5t47 -111.5q0 -79 -62 -127.5t-163 -48.5zM323 818h82l-104 -140h-59z" />
    <glyph glyph-name="Scircumflex.sc" horiz-adv-x="542" 
d="M271 -12q-107 0 -167.5 50.5t-63.5 126.5h70q3 -57 46 -88.5t116 -31.5q70 0 112.5 31.5t42.5 83.5q0 46 -30.5 68.5t-87.5 31.5l-87 14q-72 11 -119 48t-47 112q0 35 14 66t41.5 53.5t68 36t92.5 13.5q53 0 93 -13.5t66.5 -36.5t40.5 -53t16 -62h-71q-3 48 -39.5 78
t-106.5 30q-72 0 -109 -31t-37 -77t32 -69t83 -31l85 -13q77 -12 124 -49.5t47 -111.5q0 -79 -62 -127.5t-163 -48.5zM434 678h-74l-85 102h-4l-84 -102h-65l119 140h75z" />
    <glyph glyph-name="Scedilla.sc" horiz-adv-x="542" 
d="M271 -12q-107 0 -167.5 50.5t-63.5 126.5h70q3 -57 46 -88.5t116 -31.5q70 0 112.5 31.5t42.5 83.5q0 46 -30.5 68.5t-87.5 31.5l-87 14q-72 11 -119 48t-47 112q0 35 14 66t41.5 53.5t68 36t92.5 13.5q53 0 93 -13.5t66.5 -36.5t40.5 -53t16 -62h-71q-3 48 -39.5 78
t-106.5 30q-72 0 -109 -31t-37 -77t32 -69t83 -31l85 -13q77 -12 124 -49.5t47 -111.5q0 -79 -62 -127.5t-163 -48.5zM184 -217v40h69q25 0 48 9.5t23 34.5q0 23 -19.5 33.5t-54.5 10.5h-28v29l30 72h44l-26 -66q45 0 77.5 -18.5t32.5 -57.5q0 -45 -35 -65.5t-79 -21.5h-82z
" />
    </font>
</defs>
</svg>
