<?xml version="1.0" standalone="no"?>
<!DOCTYPE svg PUBLIC "-//W3C//DTD SVG 1.1//EN" "http://www.w3.org/Graphics/SVG/1.1/DTD/svg11.dtd" >
<svg xmlns="http://www.w3.org/2000/svg" xmlns:xlink="http://www.w3.org/1999/xlink" version="1.1">
<metadata>
Created by FontForge 20201107 at Thu Sep 23 02:22:20 2021
 By 
Copyright (C) 2020 by Bobby Tannam under private license to Coinbase. All rights reserved.
</metadata>
<defs>
<font id="CoinbaseSans-ExtraLight" horiz-adv-x="792" >
  <font-face 
    font-family="Coinbase Sans Extra Light"
    font-weight="250"
    font-stretch="normal"
    units-per-em="1000"
    panose-1="2 11 3 3 3 2 2 6 2 4"
    ascent="800"
    descent="-200"
    x-height="510"
    cap-height="704"
    bbox="-150 -213 2174 997"
    underline-thickness="40"
    underline-position="-120"
    unicode-range="U+0020-FB02"
  />
<missing-glyph horiz-adv-x="648" 
d="M91 704h465v-704h-465v704zM524 32v640h-400v-640h400z" />
    <glyph glyph-name="fi" unicode="fi" horiz-adv-x="610" 
d="M140 0v469h-122v41h122v120q0 54 25 80t82 26h119v-41h-117q-34 0 -48.5 -15t-14.5 -49v-121h336v-510h-46v469h-290v-469h-46zM500 630h-2q-19 0 -31 12t-12 31t12 31t31 12h2q19 0 31 -12t12 -31t-12 -31t-31 -12z" />
    <glyph glyph-name="fl" unicode="fl" horiz-adv-x="702" 
d="M140 0v469h-122v41h122v120q0 54 25 80t82 26h119v-41h-117q-34 0 -48.5 -15t-14.5 -49v-121h290v232h46v-637q0 -34 14.5 -49t48.5 -15h97v-41h-99q-57 0 -82 26t-25 80v363h-290v-469h-46z" />
    <glyph glyph-name="f_f" unicode="ff" horiz-adv-x="728" 
d="M140 0v469h-122v41h122v120q0 54 25 80t82 26h119v-41h-117q-34 0 -48.5 -15t-14.5 -49v-121h290v126q0 54 25 80t82 26h125v-41h-123q-34 0 -48.5 -15t-14.5 -49v-127h185v-41h-185v-469h-46v469h-290v-469h-46z" />
    <glyph glyph-name="f_f_i" unicode="ffi" horiz-adv-x="946" 
d="M140 0v469h-122v41h122v120q0 54 25 80t82 26h119v-41h-117q-34 0 -48.5 -15t-14.5 -49v-121h290v120q0 54 25 80t82 26h119v-41h-117q-34 0 -48.5 -15t-14.5 -49v-121h336v-510h-46v469h-290v-469h-46v469h-290v-469h-46zM836 630h-2q-19 0 -31 12t-12 31t12 31t31 12h2
q19 0 31 -12t12 -31t-12 -31t-31 -12z" />
    <glyph glyph-name="f_f_j" unicode="ffj" horiz-adv-x="946" 
d="M140 0v469h-122v41h122v120q0 54 25 80t82 26h119v-41h-117q-34 0 -48.5 -15t-14.5 -49v-121h290v120q0 54 25 80t82 26h119v-41h-117q-34 0 -48.5 -15t-14.5 -49v-121h336v-595q0 -54 -25 -80t-82 -26h-88v41h86q34 0 48.5 15t14.5 49v555h-290v-469h-46v469h-290v-469
h-46zM836 630h-2q-19 0 -31 12t-12 31t12 31t31 12h2q19 0 31 -12t12 -31t-12 -31t-31 -12z" />
    <glyph glyph-name="f_f_l" unicode="ffl" horiz-adv-x="1038" 
d="M140 0v469h-122v41h122v120q0 54 25 80t82 26h119v-41h-117q-34 0 -48.5 -15t-14.5 -49v-121h290v120q0 54 25 80t82 26h119v-41h-117q-34 0 -48.5 -15t-14.5 -49v-121h290v232h46v-637q0 -34 14.5 -49t48.5 -15h97v-41h-99q-57 0 -82 26t-25 80v363h-290v-469h-46v469
h-290v-469h-46z" />
    <glyph glyph-name="f_j" unicode="fj" horiz-adv-x="610" 
d="M140 0v469h-122v41h122v120q0 54 25 80t82 26h119v-41h-117q-34 0 -48.5 -15t-14.5 -49v-121h336v-595q0 -54 -25 -80t-82 -26h-88v41h86q34 0 48.5 15t14.5 49v555h-290v-469h-46zM500 630h-2q-19 0 -31 12t-12 31t12 31t31 12h2q19 0 31 -12t12 -31t-12 -31t-31 -12z
" />
    <glyph glyph-name="j_j" unicode="jj" horiz-adv-x="459" 
d="M349 630h-2q-19 0 -31 12t-12 31t12 31t31 12h2q19 0 31 -12t12 -31t-12 -31t-31 -12zM112 630h-2q-19 0 -31 12t-12 31t12 31t31 12h2q19 0 31 -12t12 -31t-12 -31t-31 -12zM325 -86v596h46v-595q0 -54 -25 -80t-82 -26h-68v41h66q34 0 48.5 15t14.5 49zM88 -86v596h46
v-595q0 -54 -25 -80t-82 -26h-88v41h86q34 0 48.5 15t14.5 49z" />
    <glyph glyph-name=".notdef" horiz-adv-x="648" 
d="M91 704h465v-704h-465v704zM524 32v640h-400v-640h400z" />
    <glyph glyph-name=".null" horiz-adv-x="0" 
 />
    <glyph glyph-name="nonmarkingreturn" horiz-adv-x="333" 
 />
    <glyph glyph-name="space" unicode=" " horiz-adv-x="240" 
 />
    <glyph glyph-name="exclam" unicode="!" horiz-adv-x="232" 
d="M139 704v-292l-11 -215h-24l-11 215v292h46zM116 -8q-19 0 -31.5 12.5t-12.5 31.5t12.5 31.5t31.5 12.5t31.5 -12.5t12.5 -31.5t-12.5 -31.5t-31.5 -12.5z" />
    <glyph glyph-name="quotedbl" unicode="&#x22;" horiz-adv-x="304" 
d="M106 704l-6 -215h-36l-6 215h48zM246 704l-6 -215h-36l-6 215h48z" />
    <glyph glyph-name="numbersign" unicode="#" horiz-adv-x="738" 
d="M134 0l57 211h-141v40h151l55 202h-158v40h168l57 211h46l-57 -211h194l57 211h46l-57 -211h136v-40h-146l-55 -202h153v-40h-163l-57 -211h-46l57 211h-194l-57 -211h-46zM247 251h194l55 202h-194z" />
    <glyph glyph-name="dollar" unicode="$" horiz-adv-x="580" 
d="M268 -129v131q-104 6 -160.5 60.5t-61.5 132.5h46q6 -72 59 -113t140 -41q84 0 137.5 42t53.5 111q0 58 -39 89.5t-108 44.5l-89 17q-81 16 -131 58t-50 116q0 71 53.5 124t149.5 60v131h42v-130q51 -3 89.5 -18.5t63.5 -40t38.5 -56t15.5 -65.5h-47q-5 61 -50.5 100.5
t-128.5 39.5t-131.5 -41.5t-48.5 -103.5q0 -63 40 -91t103 -40l90 -17q85 -16 134.5 -57.5t49.5 -119.5q0 -83 -59.5 -135.5t-158.5 -57.5v-130h-42z" />
    <glyph glyph-name="percent" unicode="%" horiz-adv-x="942" 
d="M227 318q-80 0 -123.5 55t-43.5 141q0 43 12 80t34 64t54 42.5t72 15.5t72 -15.5t54 -42.5t34 -64t12 -80q0 -86 -48.5 -141t-128.5 -55zM190 0l256 351l253 353h55l-257 -353l-252 -351h-55zM227 358q60 0 95.5 43.5t35.5 112.5t-33 115.5t-93 46.5t-93 -46.5
t-33 -115.5t30.5 -112.5t90.5 -43.5zM710 -14q-80 0 -126 57.5t-46 143.5q0 43 12 80t34 64t54 42.5t72 15.5t72 -15.5t54 -42.5t34 -64t12 -80q0 -86 -46 -143.5t-126 -57.5zM710 26q60 0 93 46t33 115t-33 115.5t-93 46.5t-93 -46.5t-33 -115.5t33 -115t93 -46z" />
    <glyph glyph-name="ampersand" unicode="&#x26;" horiz-adv-x="706" 
d="M576 71q14 -16 32 -23t40 -7h48v-41h-51q-35 0 -58.5 10t-41.5 29l-58 64q-39 -52 -94 -85t-127 -33q-45 0 -84 13.5t-67.5 38.5t-44.5 60.5t-16 78.5q0 62 38.5 111.5t133.5 100.5q-41 45 -68 87.5t-27 91.5q0 62 45 107t121 45q40 0 70.5 -12.5t51 -33t31 -48
t10.5 -56.5q0 -71 -44.5 -112.5t-118.5 -80.5l185 -202l130 205h51l-151 -238zM176 569q0 -40 24.5 -77.5t68.5 -84.5q72 36 109 72t37 87q0 48 -31.5 80t-86.5 32q-54 0 -87.5 -30.5t-33.5 -78.5zM100 176q0 -70 48.5 -110t117.5 -40q60 0 108 30t83 79l-203 223
q-73 -40 -113.5 -81t-40.5 -101z" />
    <glyph glyph-name="quotesingle" unicode="'" horiz-adv-x="164" 
d="M106 704l-6 -215h-36l-6 215h48z" />
    <glyph glyph-name="parenleft" unicode="(" horiz-adv-x="276" 
d="M234 726q-24 -35 -47.5 -79t-42 -96t-30.5 -114.5t-12 -134.5t12 -134.5t30.5 -114.5t42 -96t47.5 -79h-47q-23 35 -46.5 79t-42 96t-30.5 114.5t-12 134.5t12 134t30.5 114t42 96t46.5 80h47z" />
    <glyph glyph-name="parenright" unicode=")" horiz-adv-x="276" 
d="M42 -122q24 35 47.5 79t42 96t30.5 114.5t12 134.5t-12 134.5t-30.5 114.5t-42 96t-47.5 79h47q23 -35 46.5 -79t42 -96t30.5 -114.5t12 -134.5t-12 -134t-30.5 -114t-42 -96t-46.5 -80h-47z" />
    <glyph glyph-name="asterisk" unicode="*" horiz-adv-x="477" 
d="M256 349h-36l3 152l-129 -79l-18 32l133 73l-133 73l18 31l129 -78l-3 151h36l-3 -152l130 79l18 -31l-133 -73l133 -73l-18 -32l-130 79z" />
    <glyph glyph-name="plus" unicode="+" horiz-adv-x="590" 
d="M40 300v40h235v235h40v-235h235v-40h-235v-235h-40v235h-235z" />
    <glyph glyph-name="comma" unicode="," horiz-adv-x="232" 
d="M81 -144h-43l74 215h50z" />
    <glyph glyph-name="hyphen" unicode="-" horiz-adv-x="383" 
d="M68 301h247v-40h-247v40z" />
    <glyph glyph-name="period" unicode="." horiz-adv-x="232" 
d="M116 -8q-19 0 -31.5 12.5t-12.5 31.5t12.5 31.5t31.5 12.5t31.5 -12.5t12.5 -31.5t-12.5 -31.5t-31.5 -12.5z" />
    <glyph glyph-name="slash" unicode="/" horiz-adv-x="460" 
d="M434 804l-360 -904h-48l360 904h48z" />
    <glyph glyph-name="zero" unicode="0" horiz-adv-x="578" 
d="M289 719q105 0 166 -67.5t61 -182.5v-231q0 -118 -61.5 -185t-165.5 -67t-165.5 67t-61.5 185v231q0 115 61.5 182.5t165.5 67.5zM289 28q82 0 130.5 55.5t48.5 154.5v231q0 96 -48 152t-131 56q-82 0 -130.5 -56t-48.5 -152v-231q0 -99 48.5 -154.5t130.5 -55.5z" />
    <glyph glyph-name="one" unicode="1" horiz-adv-x="350" 
d="M203 0v543h-173v41h173v120h47v-704h-47z" />
    <glyph glyph-name="two" unicode="2" horiz-adv-x="540" 
d="M50 0v56q0 65 34 112.5t102 98.5l135 101q58 43 78.5 80.5t20.5 77.5v14q0 57 -39 98t-115 41t-120.5 -45.5t-44.5 -121.5h-48q0 48 16.5 86.5t45 65t67.5 41t84 14.5q90 0 146.5 -51t56.5 -132q0 -53 -25 -101t-95 -101l-135 -101q-58 -43 -87.5 -83t-29.5 -94v-15h388
v-41h-435z" />
    <glyph glyph-name="three" unicode="3" horiz-adv-x="556" 
d="M447 192v14q0 72 -50.5 116.5t-136.5 44.5h-52v36l210 258h-345v43h399v-43l-206 -251v-1q104 -2 167 -59t63 -151q0 -46 -16.5 -85t-46 -67.5t-71 -44.5t-91.5 -16q-54 0 -96 16t-70.5 42.5t-44 62.5t-18.5 76h48q2 -31 14 -59t34 -49.5t55.5 -34.5t77.5 -13
q43 0 76 13.5t55 36t33.5 52.5t11.5 63z" />
    <glyph glyph-name="four" unicode="4" horiz-adv-x="578" 
d="M20 197v39l349 468h52v-466h122v-41h-122v-197h-47v197h-354zM71 239v-1h303v406h-1z" />
    <glyph glyph-name="five" unicode="5" horiz-adv-x="567" 
d="M82 324v380h397v-41h-352v-283h1q25 50 71 73t100 23t94.5 -19t68 -51.5t41 -77t13.5 -94.5q0 -52 -15.5 -97.5t-45 -78.5t-73 -52.5t-99.5 -19.5q-101 0 -161 56.5t-65 141.5h49q1 -31 13 -59.5t34.5 -50t55 -34.5t74.5 -13q47 0 82 16.5t57.5 44.5t33.5 64.5t11 75.5
v12q0 38 -10 73.5t-31 62t-53.5 42.5t-78.5 16q-60 0 -102.5 -29.5t-64.5 -80.5h-45z" />
    <glyph glyph-name="six" unicode="6" horiz-adv-x="570" 
d="M524 231q0 -51 -17.5 -96t-48.5 -78t-74.5 -52t-95.5 -19q-51 0 -93.5 19.5t-73.5 53t-48 79t-17 97.5q0 50 19 101.5t60 108.5l187 259h54l-211 -285h1q26 23 59 36.5t77 13.5q49 0 89.5 -17.5t70 -49t46 -75.5t16.5 -96zM102 236v-12q0 -35 12.5 -70t37 -63t59.5 -45.5
t80 -17.5q47 0 82 17t58 44t34.5 62.5t11.5 72.5v12q0 37 -11 72t-33.5 61t-57.5 42t-84 16q-43 0 -78 -15.5t-59.5 -42t-38 -61t-13.5 -72.5z" />
    <glyph glyph-name="seven" unicode="7" horiz-adv-x="486" 
d="M71 0l346 663h-395v41h444v-44l-344 -660h-51z" />
    <glyph glyph-name="eight" unicode="8" horiz-adv-x="592" 
d="M385 372v-1q60 -13 104.5 -61t44.5 -124q0 -45 -18.5 -82t-50.5 -63t-75.5 -40.5t-93.5 -14.5t-93.5 14.5t-75.5 40.5t-50.5 63t-18.5 82q0 76 44.5 124t104.5 61v1q-59 16 -94 60.5t-35 99.5q0 42 16.5 76.5t46 59t69.5 38t86 13.5t86 -13.5t69.5 -38t46 -59t16.5 -76.5
q0 -55 -35 -99.5t-94 -60.5zM125 536v-8q0 -57 48 -98t123 -41t123 41t48 98v8q0 60 -47 101t-124 41t-124 -41t-47 -101zM107 195v-12q0 -66 52.5 -111t136.5 -45t136.5 45t52.5 111v12q0 66 -51.5 110.5t-137.5 44.5t-137.5 -44.5t-51.5 -110.5z" />
    <glyph glyph-name="nine" unicode="9" horiz-adv-x="570" 
d="M46 473q0 51 17.5 96t48.5 78t74.5 52t95.5 19q51 0 93.5 -19.5t73.5 -53t48 -79t17 -97.5q0 -50 -19 -101.5t-60 -108.5l-187 -259h-54l211 285h-1q-26 -23 -59 -36.5t-77 -13.5q-49 0 -89.5 17.5t-70 49t-46 75.5t-16.5 96zM468 468v12q0 35 -12.5 70t-37 63
t-59.5 45.5t-80 17.5q-47 0 -82 -17t-58 -44t-34.5 -62.5t-11.5 -72.5v-12q0 -37 11 -72t33.5 -61t57.5 -42t84 -16q43 0 78 15.5t59.5 42t38 61t13.5 72.5z" />
    <glyph glyph-name="colon" unicode=":" horiz-adv-x="232" 
d="M116 -8q-19 0 -31.5 12.5t-12.5 31.5t12.5 31.5t31.5 12.5t31.5 -12.5t12.5 -31.5t-12.5 -31.5t-31.5 -12.5zM116 415q-19 0 -31.5 12.5t-12.5 31.5t12.5 31.5t31.5 12.5t31.5 -12.5t12.5 -31.5t-12.5 -31.5t-31.5 -12.5z" />
    <glyph glyph-name="semicolon" unicode=";" horiz-adv-x="232" 
d="M81 -144h-43l74 215h50zM118 415q-19 0 -31.5 12.5t-12.5 31.5t12.5 31.5t31.5 12.5t31.5 -12.5t12.5 -31.5t-12.5 -31.5t-31.5 -12.5z" />
    <glyph glyph-name="less" unicode="&#x3c;" horiz-adv-x="590" 
d="M520 93l-484 211v44l484 212v-44l-442 -190l442 -189v-44z" />
    <glyph glyph-name="equal" unicode="=" horiz-adv-x="590" 
d="M45 400v40h500v-40h-500zM45 200v40h500v-40h-500z" />
    <glyph glyph-name="greater" unicode="&#x3e;" horiz-adv-x="590" 
d="M70 560l484 -211v-44l-484 -212v44l442 190l-442 189v44z" />
    <glyph glyph-name="question" unicode="?" horiz-adv-x="490" 
d="M253 214h-46q0 71 30.5 110t67 67.5t67 60t30.5 87.5q0 26 -8.5 51t-27.5 45t-49 32t-73 12q-41 0 -71.5 -12t-50 -32t-29.5 -46t-11 -54h-46q2 78 57 131t151 53q100 0 152 -52.5t52 -127.5q0 -66 -30.5 -100.5t-67 -62t-67 -62t-30.5 -100.5zM231 -8q-19 0 -31.5 12.5
t-12.5 31.5t12.5 31.5t31.5 12.5t31.5 -12.5t12.5 -31.5t-12.5 -31.5t-31.5 -12.5z" />
    <glyph glyph-name="at" unicode="@" horiz-adv-x="906" 
d="M661 -116q-40 -24 -90 -35.5t-107 -11.5q-88 0 -163 31t-129 85.5t-85 129t-31 161.5q0 88 31 164.5t85.5 132.5t129.5 88.5t162 32.5q80 0 151 -27t123 -77t82 -121t30 -159q0 -115 -45 -175t-114 -60q-40 0 -72.5 23t-36.5 74h-1q-17 -46 -58 -77.5t-96 -31.5
q-59 0 -100 30.5t-41 85.5q0 54 38 82.5t96 39.5l72 14q37 7 56.5 21t19.5 44t-23 56t-82 26q-51 0 -80.5 -22t-33.5 -60h-46q4 52 44.5 86.5t115.5 34.5q74 0 113.5 -36t39.5 -96v-161q0 -55 22.5 -76t52.5 -21q29 0 51 16.5t36.5 43.5t22 63t7.5 76q0 78 -27 141.5
t-73.5 108t-109.5 69t-134 24.5q-78 0 -144.5 -29.5t-115 -80t-76 -120t-27.5 -147.5t27.5 -145.5t75.5 -116t115 -76.5t145 -28q55 0 105 12t92 38v-44zM572 232v51q-7 -11 -23.5 -21t-41.5 -14l-80 -16q-44 -9 -70 -27t-26 -54v-5q0 -37 28.5 -56.5t71.5 -19.5
q60 0 100.5 44.5t40.5 117.5z" />
    <glyph glyph-name="A" unicode="A" horiz-adv-x="638" 
d="M574 0l-83 210h-348l-81 -210h-51l279 704h52l285 -704h-53zM314 651l-155 -400h316l-159 400h-2z" />
    <glyph glyph-name="B" unicode="B" horiz-adv-x="670" 
d="M104 0v704h289q85 0 139.5 -48.5t54.5 -131.5q0 -60 -31.5 -100.5t-87.5 -55.5v-1q66 -14 104 -59.5t38 -114.5q0 -89 -59 -141t-150 -52h-297zM538 519v10q0 61 -42 97t-113 36h-231v-276h231q71 0 113 36t42 97zM561 188v10q0 67 -46 106.5t-124 39.5h-239v-302h239
q78 0 124 39.5t46 106.5z" />
    <glyph glyph-name="C" unicode="C" horiz-adv-x="678" 
d="M368 28q90 0 144.5 46.5t70.5 116.5h51q-21 -91 -90.5 -148t-175.5 -57q-77 0 -135.5 30t-96.5 80t-57.5 116.5t-19.5 139.5t19.5 139.5t57.5 117t96.5 80.5t135.5 30q106 0 174 -54t90 -144h-52q-18 70 -71 113t-140 43q-54 0 -101.5 -20.5t-83 -59.5t-56 -96
t-20.5 -131v-35q0 -74 20.5 -131t56 -96t83 -59.5t100.5 -20.5z" />
    <glyph glyph-name="D" unicode="D" horiz-adv-x="698" 
d="M331 704q79 0 137 -29t96 -77t56.5 -112t18.5 -134t-18.5 -134t-56.5 -112.5t-96 -77t-137 -28.5h-227v704h227zM332 662h-180v-620h180q53 0 100 19.5t82 56.5t55.5 92t20.5 125v34q0 70 -20.5 125t-55.5 92t-82 56.5t-100 19.5z" />
    <glyph glyph-name="E" unicode="E" horiz-adv-x="612" 
d="M104 704h452v-42h-404v-274h375v-42h-375v-304h404v-42h-452v704z" />
    <glyph glyph-name="F" unicode="F" horiz-adv-x="582" 
d="M104 704h444v-42h-396v-283h367v-42h-367v-337h-48v704z" />
    <glyph glyph-name="G" unicode="G" horiz-adv-x="712" 
d="M602 0v164h-1q-18 -76 -80 -127t-156 -51q-78 0 -136 30t-95.5 80t-56 116.5t-18.5 139.5t19.5 139.5t58.5 117t97.5 80.5t136.5 30q107 0 176 -52.5t91 -140.5h-52q-17 68 -71.5 109.5t-142.5 41.5q-54 0 -102.5 -20.5t-84 -59.5t-56.5 -96t-21 -131v-35
q0 -74 20.5 -131t55.5 -96t82 -59.5t100 -20.5q62 0 106 22.5t72 60.5t41 89t13 107h-254v42h299v-349h-41z" />
    <glyph glyph-name="H" unicode="H" horiz-adv-x="726" 
d="M104 704h48v-315h422v315h48v-704h-48v347h-422v-347h-48v704z" />
    <glyph glyph-name="I" unicode="I" horiz-adv-x="256" 
d="M104 704h48v-704h-48v704z" />
    <glyph glyph-name="J" unicode="J" horiz-adv-x="564" 
d="M260 -15q-101 0 -155.5 64t-54.5 166v54h47v-53q0 -84 42.5 -136.5t120.5 -52.5q81 0 121.5 52.5t40.5 136.5v488h48v-489q0 -102 -55 -166t-155 -64z" />
    <glyph glyph-name="K" unicode="K" horiz-adv-x="606" 
d="M152 704v-704h-48v704h48zM527 0l-375 354l366 350h63l-366 -345l382 -359h-70z" />
    <glyph glyph-name="L" unicode="L" horiz-adv-x="552" 
d="M104 704h48v-662h378v-42h-426v704z" />
    <glyph glyph-name="M" unicode="M" horiz-adv-x="872" 
d="M104 0v704h70l263 -654h1l260 654h70v-704h-48v645h-1l-256 -645h-51l-260 644h-1v-644h-47z" />
    <glyph glyph-name="N" unicode="N" horiz-adv-x="729" 
d="M104 0v704h67l405 -648h1v648h48v-704h-66l-406 652h-1v-652h-48z" />
    <glyph glyph-name="O" unicode="O" horiz-adv-x="734" 
d="M367 -14q-79 0 -137 30t-96 80t-56.5 116.5t-18.5 139.5t18.5 139.5t56.5 117t96 80.5t137 30t137 -30t96 -80.5t56.5 -117t18.5 -139.5t-18.5 -139.5t-56.5 -116.5t-96 -80t-137 -30zM367 28q53 0 100.5 20.5t82.5 59.5t55.5 96t20.5 131v35q0 74 -20.5 131t-55.5 96
t-82.5 59.5t-100.5 20.5t-100.5 -20.5t-82.5 -59.5t-55.5 -96t-20.5 -131v-35q0 -74 20.5 -131t55.5 -96t82.5 -59.5t100.5 -20.5z" />
    <glyph glyph-name="P" unicode="P" horiz-adv-x="633" 
d="M104 0v704h276q103 0 160.5 -51t57.5 -141t-57.5 -141t-160.5 -51h-228v-320h-48zM549 505v14q0 63 -42 103t-128 40h-227v-300h227q86 0 128 40t42 103z" />
    <glyph glyph-name="Q" unicode="Q" horiz-adv-x="734" 
d="M367 -14q-79 0 -137 30t-96 80t-56.5 116.5t-18.5 139.5t18.5 139.5t56.5 117t96 80.5t137 30t137 -30t96 -80.5t56.5 -117t18.5 -139.5q0 -56 -11 -108.5t-33 -97t-55.5 -79t-78.5 -55.5l196 -196h-64l-180 180q-19 -5 -39.5 -7.5t-42.5 -2.5zM367 28q53 0 100.5 20.5
t82.5 59.5t55.5 96t20.5 131v35q0 74 -20.5 131t-55.5 96t-82.5 59.5t-100.5 20.5t-100.5 -20.5t-82.5 -59.5t-55.5 -96t-20.5 -131v-35q0 -74 20.5 -131t55.5 -96t82.5 -59.5t100.5 -20.5z" />
    <glyph glyph-name="R" unicode="R" horiz-adv-x="650" 
d="M104 0v704h276q103 0 160.5 -51t57.5 -141t-57.5 -141t-160.5 -51h-157l391 -320h-76l-386 321v-321h-48zM549 505v14q0 63 -42 103t-128 40h-227v-300h227q86 0 128 40t42 103z" />
    <glyph glyph-name="S" unicode="S" horiz-adv-x="621" 
d="M312 -14q-63 0 -112 15.5t-82 43t-51 64.5t-21 80h48q6 -75 64 -118t154 -43q93 0 151 43.5t58 116.5q0 60 -41 93.5t-114 45.5l-110 18q-82 13 -136 55t-54 126q0 40 16 75t47 61t77.5 41.5t106.5 15.5q61 0 106 -15.5t75 -41.5t45.5 -60t18.5 -70h-49q-6 63 -56 104
t-141 41q-94 0 -146 -43t-52 -108q0 -61 42.5 -93t108.5 -43l110 -18q90 -15 142 -59t52 -125q0 -90 -70.5 -146t-186.5 -56z" />
    <glyph glyph-name="T" unicode="T" horiz-adv-x="578" 
d="M265 662h-249v42h546v-42h-249v-662h-48v662z" />
    <glyph glyph-name="U" unicode="U" horiz-adv-x="699" 
d="M349 -15q-62 0 -110 18.5t-80 51.5t-49 79.5t-17 102.5v467h48v-466q0 -93 53.5 -152t154.5 -59q102 0 155.5 59t53.5 152v466h47v-467q0 -56 -17 -102.5t-49 -79.5t-80 -51.5t-110 -18.5z" />
    <glyph glyph-name="V" unicode="V" horiz-adv-x="614" 
d="M280 0l-264 704h52l238 -647h2l240 647h50l-264 -704h-54z" />
    <glyph glyph-name="W" unicode="W" horiz-adv-x="924" 
d="M24 704h50l183 -644h2l175 644h60l180 -644h2l177 644h47l-195 -704h-59l-182 649h-2l-176 -649h-59z" />
    <glyph glyph-name="X" unicode="X" horiz-adv-x="600" 
d="M272 362l-242 342h58l212 -303h1l212 303h56l-242 -342l255 -362h-57l-226 323h-1l-224 -323h-56z" />
    <glyph glyph-name="Y" unicode="Y" horiz-adv-x="590" 
d="M272 0v290l-254 414h55l222 -365h2l221 365h54l-253 -414v-290h-47z" />
    <glyph glyph-name="Z" unicode="Z" horiz-adv-x="565" 
d="M88 42h443v-42h-497v42l434 620h-424v42h478v-42z" />
    <glyph glyph-name="bracketleft" unicode="[" horiz-adv-x="349" 
d="M103 726h221v-40h-175v-768h175v-40h-221v848z" />
    <glyph glyph-name="backslash" unicode="\" horiz-adv-x="460" 
d="M26 804h48l360 -904h-48z" />
    <glyph glyph-name="bracketright" unicode="]" horiz-adv-x="349" 
d="M246 -122h-221v40h175v768h-175v40h221v-848z" />
    <glyph glyph-name="asciicircum" unicode="^" horiz-adv-x="506" 
d="M459 415h-51l-154 245h-2l-154 -245h-51l185 289h42z" />
    <glyph glyph-name="underscore" unicode="_" horiz-adv-x="557" 
d="M51 0h455v-40h-455v40z" />
    <glyph glyph-name="grave" unicode="`" horiz-adv-x="499" 
d="M180 742l87 -138h-40l-104 138h57z" />
    <glyph glyph-name="a" unicode="a" horiz-adv-x="538" 
d="M71 374q5 64 53.5 107t138.5 43q88 0 135.5 -43t47.5 -115v-278q0 -28 11 -37.5t32 -9.5h33v-41h-43q-43 0 -61 20t-17 63v16h-1q-19 -49 -67 -81t-114 -32q-71 0 -120 38.5t-49 107.5q0 65 45.5 102t115.5 50l94 17q44 8 67.5 25t23.5 53q0 37 -29 70.5t-104 33.5
q-66 0 -102.5 -29t-42.5 -80h-47zM400 220v87q-7 -14 -26.5 -26t-50.5 -18l-103 -19q-56 -10 -89.5 -36t-33.5 -72v-6q0 -51 36.5 -77.5t90.5 -26.5q75 0 125.5 53.5t50.5 140.5z" />
    <glyph glyph-name="b" unicode="b" horiz-adv-x="607" 
d="M88 0v742h46v-344h1q25 59 74.5 92.5t115.5 33.5q50 0 92 -19.5t72 -54.5t47 -85t17 -110t-16.5 -109.5t-46 -85t-72 -55t-93.5 -19.5q-67 0 -116.5 33.5t-73.5 91.5h-1v-111h-46zM506 240v30q0 50 -15 89.5t-40 67t-59 42t-72 14.5t-72 -15t-59 -42.5t-40 -67t-15 -88.5
v-30q0 -48 15 -87.5t40 -67.5t59 -43t72 -15t72 14.5t59 41.5t40 67t15 90z" />
    <glyph glyph-name="c" unicode="c" horiz-adv-x="548" 
d="M101 270v-30q0 -48 15 -87.5t40.5 -67.5t60.5 -43t74 -15q65 0 106 35.5t55 89.5h48q-18 -75 -71.5 -120.5t-137.5 -45.5q-54 0 -98 19.5t-74.5 55t-47.5 85t-17 109.5q0 121 66.5 195t170.5 74q84 0 138.5 -45t69.5 -116h-48q-13 50 -53 85t-107 35q-39 0 -74 -15
t-60.5 -42.5t-40.5 -67t-15 -88.5z" />
    <glyph glyph-name="d" unicode="d" horiz-adv-x="607" 
d="M519 0h-46v111h-1q-24 -58 -73.5 -91.5t-116.5 -33.5q-51 0 -93.5 19.5t-72 55t-46 85t-16.5 109.5t17 110t47 85t72 54.5t92 19.5q66 0 115.5 -33.5t74.5 -92.5h1v344h46v-742zM101 240q0 -50 15 -90t40 -67t59 -41.5t72 -14.5t72 15t59 43t40 67.5t15 87.5v30
q0 49 -15 88.5t-40 67t-59 42.5t-72 15t-72 -14.5t-59 -42t-40 -67t-15 -89.5v-30z" />
    <glyph glyph-name="e" unicode="e" horiz-adv-x="566" 
d="M289 -14q-54 0 -98 20t-74 55t-46.5 85t-16.5 109q0 60 17.5 110t48.5 85t73.5 54.5t92.5 19.5q104 0 165 -71.5t61 -187.5v-17h-411v-8q0 -96 54 -154.5t134 -58.5q36 0 65 10.5t49.5 26.5t33 37t16.5 42h50q-16 -67 -71.5 -112t-142.5 -45zM286 483q-35 0 -67 -13.5
t-57 -38.5t-41 -61t-19 -81h363q-3 91 -53 142.5t-126 51.5z" />
    <glyph glyph-name="f" unicode="f" horiz-adv-x="392" 
d="M140 0v469h-122v41h122v126q0 54 25 80t82 26h125v-41h-123q-34 0 -48.5 -15t-14.5 -49v-127h185v-41h-185v-469h-46z" />
    <glyph glyph-name="g" unicode="g" horiz-adv-x="599" 
d="M73 -56h50q4 -18 15 -37t30 -35t47 -26.5t68 -10.5q96 0 139 53t43 141v99h-1q-25 -57 -72.5 -89.5t-113.5 -32.5q-49 0 -90 18.5t-70.5 52.5t-46.5 82t-17 106q0 57 16 105t45.5 82t71 53t91.5 19q68 0 115 -32t71 -89h1v107h46v-482q0 -115 -60.5 -174.5t-167.5 -59.5
q-90 0 -142.5 45t-67.5 105zM101 280v-30q0 -47 14.5 -85t39.5 -64t58 -40t70 -14t70 14t58 40.5t39.5 64t14.5 84.5v30q0 46 -14.5 83.5t-39.5 64t-58 41t-70 14.5t-70 -14t-58 -39.5t-39.5 -63.5t-14.5 -86z" />
    <glyph glyph-name="h" unicode="h" horiz-adv-x="584" 
d="M134 297v-297h-46v742h45v-327h1q23 55 70 82t106 27q38 0 73 -12.5t61.5 -38.5t42 -65t15.5 -91v-317h-46v317q0 84 -45 125t-108 41q-34 0 -64.5 -11.5t-53.5 -34.5t-37 -58t-14 -82z" />
    <glyph glyph-name="i" unicode="i" horiz-adv-x="222" 
d="M112 630h-2q-19 0 -31 12t-12 31t12 31t31 12h2q19 0 31 -12t12 -31t-12 -31t-31 -12zM88 510h46v-510h-46v510z" />
    <glyph glyph-name="j" unicode="j" horiz-adv-x="222" 
d="M112 630h-2q-19 0 -31 12t-12 31t12 31t31 12h2q19 0 31 -12t12 -31t-12 -31t-31 -12zM88 -86v596h46v-595q0 -54 -25 -80t-82 -26h-88v41h86q34 0 48.5 15t14.5 49z" />
    <glyph glyph-name="k" unicode="k" horiz-adv-x="492" 
d="M134 742v-742h-46v742h46zM467 510l-269 -239l288 -271h-66l-286 269l271 241h62z" />
    <glyph glyph-name="l" unicode="l" horiz-adv-x="310" 
d="M84 106v636h46v-637q0 -34 14.5 -49t48.5 -15h97v-41h-99q-57 0 -82 26t-25 80z" />
    <glyph glyph-name="m" unicode="m" horiz-adv-x="888" 
d="M88 0v510h45v-83h1q21 49 63.5 73t95.5 24q57 0 102 -29t63 -87h1q22 58 68 87t102 29q36 0 68 -11.5t56.5 -35.5t38.5 -59.5t14 -83.5v-334h-46v334q0 75 -40.5 112t-97.5 37q-30 0 -58 -10.5t-48.5 -31.5t-33 -52.5t-12.5 -74.5v-314h-46v334q0 75 -40.5 112t-97.5 37
q-30 0 -58 -10.5t-48.5 -31.5t-33 -52.5t-12.5 -74.5v-314h-46z" />
    <glyph glyph-name="n" unicode="n" horiz-adv-x="584" 
d="M134 297v-297h-46v510h45v-95h1q24 55 71 82t105 27q38 0 73 -12.5t61.5 -38.5t42 -65t15.5 -91v-317h-46v317q0 84 -45 125t-108 41q-34 0 -64.5 -11.5t-53.5 -34.5t-37 -58t-14 -82z" />
    <glyph glyph-name="o" unicode="o" horiz-adv-x="582" 
d="M291 -14q-53 0 -97 20t-75 55t-48 85t-17 109q0 60 17.5 110t49 85t75.5 54.5t95 19.5t95 -19.5t75.5 -54.5t49 -85t17.5 -110q0 -59 -17 -109t-48 -85t-75 -55t-97 -20zM481 240v30q0 49 -15.5 89t-41 67t-60.5 42t-73 15t-73 -15t-60.5 -42.5t-41 -67t-15.5 -88.5v-30
q0 -48 15.5 -87.5t41 -67t60.5 -43t73 -15.5t73 14.5t60.5 42t41 67t15.5 89.5z" />
    <glyph glyph-name="p" unicode="p" horiz-adv-x="607" 
d="M88 510h46v-111h1q24 58 73.5 91.5t116.5 33.5q51 0 93.5 -19.5t72 -55t46 -85t16.5 -109.5t-17 -110t-47 -85t-72 -54.5t-92 -19.5q-66 0 -115.5 33.5t-74.5 92.5h-1v-304h-46v702zM506 270q0 50 -15 90t-40 67t-59 41.5t-72 14.5t-72 -15t-59 -43t-40 -67.5t-15 -87.5
v-30q0 -49 15 -88.5t40 -67t59 -42.5t72 -15t72 14.5t59 42t40 67t15 89.5v30z" />
    <glyph glyph-name="q" unicode="q" horiz-adv-x="607" 
d="M519 510v-702h-46v304h-1q-25 -59 -74.5 -92.5t-115.5 -33.5q-50 0 -92 19.5t-72 54.5t-47 85t-17 110t16.5 109.5t46 85t72 55t93.5 19.5q67 0 116.5 -33.5t73.5 -91.5h1v111h46zM101 270v-30q0 -50 15 -89.5t40 -67t59 -42t72 -14.5t72 15t59 42.5t40 67t15 88.5v30
q0 48 -15 87.5t-40 67.5t-59 43t-72 15t-72 -14.5t-59 -41.5t-40 -67t-15 -90z" />
    <glyph glyph-name="r" unicode="r" horiz-adv-x="376" 
d="M88 0v510h45v-83h1q13 37 46.5 62t94.5 25h77v-44h-86q-40 0 -66 -13.5t-40.5 -36t-20 -52t-5.5 -60.5v-308h-46z" />
    <glyph glyph-name="s" unicode="s" horiz-adv-x="496" 
d="M44 144h47q3 -60 48.5 -89.5t113.5 -29.5q67 0 108.5 29.5t41.5 79.5q0 43 -30 66.5t-84 31.5l-82 12q-72 10 -108.5 45t-36.5 91q0 63 51 104t135 41q47 0 82 -12.5t58 -32.5t35.5 -47t13.5 -55h-47q-4 47 -40.5 77t-101.5 30q-63 0 -101.5 -28.5t-38.5 -73.5
q0 -40 26.5 -63t83.5 -31l82 -12q82 -12 115.5 -50.5t33.5 -89.5q0 -70 -54 -111t-143 -41q-98 0 -151.5 44.5t-56.5 114.5z" />
    <glyph glyph-name="t" unicode="t" horiz-adv-x="402" 
d="M19 510h124v162h46v-162h178v-41h-178v-364q0 -34 14.5 -49t48.5 -15h116v-41h-118q-57 0 -82 26t-25 80v363h-124v41z" />
    <glyph glyph-name="u" unicode="u" horiz-adv-x="584" 
d="M450 213v297h46v-510h-45v95h-1q-24 -55 -71 -82t-105 -27q-38 0 -73 12.5t-61.5 38.5t-42 65t-15.5 91v317h46v-317q0 -84 45 -125t108 -41q34 0 64.5 11.5t53.5 34.5t37 58t14 82z" />
    <glyph glyph-name="v" unicode="v" horiz-adv-x="506" 
d="M484 510l-206 -510h-51l-205 510h51l180 -458h1l180 458h50z" />
    <glyph glyph-name="w" unicode="w" horiz-adv-x="793" 
d="M24 510h49l150 -457h1l145 457h55l151 -456h1l145 456h48l-169 -510h-53l-150 453h-1l-147 -453h-53z" />
    <glyph glyph-name="x" unicode="x" horiz-adv-x="486" 
d="M14 0l203 262l-191 248h56l162 -213h1l162 213h53l-191 -246l203 -264h-56l-174 229h-1l-174 -229h-53z" />
    <glyph glyph-name="y" unicode="y" horiz-adv-x="504" 
d="M243 -78q-12 -29 -23.5 -50.5t-28.5 -35.5t-42 -21t-63 -7h-63v41h63q26 0 43 3.5t29 13t21 27t21 44.5l31 74l-209 499h51l182 -441h1l177 441h49z" />
    <glyph glyph-name="z" unicode="z" horiz-adv-x="456" 
d="M38 0v41l314 428h-305v41h358v-41l-314 -428h335v-41h-388z" />
    <glyph glyph-name="braceleft" unicode="{" horiz-adv-x="376" 
d="M38 276v52q34 0 63 20.5t29 66.5v168q0 73 36 108t102 35h83v-40h-79q-49 0 -72.5 -23t-23.5 -74v-172q0 -51 -30 -81t-67 -30v-8q37 0 67 -30t30 -81v-172q0 -51 23.5 -74t72.5 -23h79v-40h-83q-66 0 -102 35t-36 108v168q0 46 -29 66.5t-63 20.5z" />
    <glyph glyph-name="bar" unicode="|" horiz-adv-x="266" 
d="M110 804h46v-992h-46v992z" />
    <glyph glyph-name="braceright" unicode="}" horiz-adv-x="376" 
d="M338 328v-52q-34 0 -63 -20.5t-29 -66.5v-168q0 -73 -36 -108t-102 -35h-83v40h79q49 0 72.5 23t23.5 74v172q0 51 30 81t67 30v8q-37 0 -67 30t-30 81v172q0 51 -23.5 74t-72.5 23h-79v40h83q66 0 102 -35t36 -108v-168q0 -46 29 -66.5t63 -20.5z" />
    <glyph glyph-name="asciitilde" unicode="~" horiz-adv-x="633" 
d="M54 227q0 84 38.5 132.5t103.5 48.5q37 0 68.5 -20.5t59.5 -45.5t55.5 -45.5t58.5 -20.5q39 0 68 33t29 107h44q0 -94 -39.5 -138.5t-99.5 -44.5q-38 0 -70 20.5t-60.5 45.5t-56 45.5t-57.5 20.5q-41 0 -69.5 -34t-28.5 -104h-44z" />
    <glyph glyph-name="uni00A0" unicode="&#xa0;" horiz-adv-x="246" 
 />
    <glyph glyph-name="exclamdown" unicode="&#xa1;" horiz-adv-x="232" 
d="M116 524q19 0 31.5 -12.5t12.5 -31.5t-12.5 -31.5t-31.5 -12.5t-31.5 12.5t-12.5 31.5t12.5 31.5t31.5 12.5zM93 -188v292l11 215h24l11 -215v-292h-46z" />
    <glyph glyph-name="cent" unicode="&#xa2;" horiz-adv-x="562" 
d="M275 -60v144q-101 6 -161 80t-60 189q0 116 61.5 189.5t159.5 79.5v142h42v-143q73 -7 121 -50.5t61 -109.5h-48q-13 50 -53 85t-107 35q-39 0 -74 -15t-60.5 -42.5t-40.5 -67t-15 -88.5v-30q0 -48 15 -87.5t40.5 -67.5t60.5 -43t74 -15q65 0 106 35.5t55 89.5h48
q-16 -69 -63.5 -113.5t-119.5 -51.5v-145h-42z" />
    <glyph glyph-name="sterling" unicode="&#xa3;" horiz-adv-x="614" 
d="M42 0v40h111v268h-111v40h111v161q0 51 17 90.5t45 66t65.5 40t77.5 13.5q45 0 79.5 -14.5t58 -38t36.5 -54t16 -61.5h-47q-1 23 -11 46t-28 41.5t-44.5 30t-61.5 11.5q-75 0 -116 -49t-41 -122v-161h259v-40h-259v-268h349v-40h-506z" />
    <glyph glyph-name="currency" unicode="&#xa4;" horiz-adv-x="674" 
d="M338 98q-43 0 -82 14.5t-69 40.5l-95 -95l-32 32l96 96q-23 30 -36 68t-13 81t13 81t36 68l-96 96l32 32l95 -95q30 26 69 40.5t82 14.5t81.5 -14.5t68.5 -39.5l94 94l32 -32l-95 -95q23 -30 36 -68.5t13 -81.5t-13 -81.5t-36 -68.5l95 -95l-32 -32l-94 94
q-30 -25 -68.5 -39.5t-81.5 -14.5zM338 140q38 0 71.5 14.5t58 40t38.5 61.5t14 79t-14 79t-38.5 61.5t-58 40t-71.5 14.5t-71.5 -14.5t-58 -40t-39 -61.5t-14.5 -79t14.5 -79t39 -61.5t58 -40t71.5 -14.5z" />
    <glyph glyph-name="yen" unicode="&#xa5;" horiz-adv-x="586" 
d="M272 0v158h-212v40h212v92l-17 28h-195v40h170l-212 346h55l222 -365h2l221 365h54l-211 -346h156v-40h-181l-17 -28v-92h198v-40h-198v-158h-47z" />
    <glyph glyph-name="brokenbar" unicode="&#xa6;" horiz-adv-x="266" 
d="M110 804h46v-336h-46v336zM110 148h46v-336h-46v336z" />
    <glyph glyph-name="section" unicode="&#xa7;" horiz-adv-x="569" 
d="M385 97v-1q46 -24 66.5 -56.5t20.5 -78.5q0 -75 -51.5 -119t-136.5 -44q-95 0 -146 44.5t-54 113.5h47q3 -59 46 -88.5t108 -29.5q64 0 103 33t39 87q0 52 -30.5 77.5t-84.5 43.5l-112 37q-75 25 -115.5 65.5t-40.5 97.5t37.5 97t101.5 53v1q-44 23 -67 57t-23 77
q0 67 52 111.5t138 44.5q47 0 82 -12.5t58 -32.5t35.5 -46.5t13.5 -54.5h-47q-4 46 -40.5 76t-101.5 30t-104.5 -32t-39.5 -81q0 -43 27.5 -71t83.5 -46l112 -36q84 -27 121.5 -72t37.5 -101q0 -55 -36.5 -93t-99.5 -51zM331 120q66 4 105.5 35.5t39.5 82.5q0 50 -34 81.5
t-91 50.5l-112 36q-67 -1 -108 -35.5t-41 -88.5q0 -46 30 -74t91 -48z" />
    <glyph glyph-name="dieresis" unicode="&#xa8;" horiz-adv-x="499" 
d="M168 643h-2q-16 0 -27 11t-11 27t11 27t27 11h2q16 0 27 -11t11 -27t-11 -27t-27 -11zM334 643h-2q-16 0 -27 11t-11 27t11 27t27 11h2q16 0 27 -11t11 -27t-11 -27t-27 -11z" />
    <glyph glyph-name="copyright" unicode="&#xa9;" horiz-adv-x="823" 
d="M412 -15q-78 0 -145.5 28t-116 76.5t-76 116t-27.5 146.5t27.5 146.5t76 116.5t116 77t145.5 28t145 -28t115.5 -77t76 -116.5t27.5 -146.5t-27.5 -146.5t-76 -116t-115.5 -76.5t-145 -28zM412 21q69 0 129 25t103.5 69t68 105t24.5 132t-24.5 132t-68 105t-103.5 69.5
t-129 25.5t-129 -25.5t-103.5 -69.5t-68 -105t-24.5 -132t24.5 -132t68 -105t103.5 -69t129 -25zM530 288h42q-4 -36 -19.5 -62.5t-38 -44t-50 -26t-55.5 -8.5q-74 0 -125 53t-51 148v4q0 97 52.5 151.5t127.5 54.5q25 0 50.5 -7.5t47.5 -23.5t37.5 -41t19.5 -59h-42
q-7 50 -43 71.5t-70 21.5q-56 0 -97 -42.5t-41 -125.5v-2q0 -78 38.5 -122t96.5 -44q39 0 76 25t44 79z" />
    <glyph glyph-name="ordfeminine" unicode="&#xaa;" horiz-adv-x="354" 
d="M57 624q4 39 34 64.5t84 25.5q52 0 82.5 -25.5t30.5 -74.5v-151q0 -15 6.5 -20.5t17.5 -5.5h19v-33h-29q-27 0 -38.5 12t-10.5 37v8h-1q-11 -28 -39 -46.5t-66 -18.5q-43 0 -72.5 23t-29.5 64q0 40 28 62.5t73 29.5l50 9q25 4 38 14t13 29q0 20 -16 37.5t-56 17.5
q-36 0 -55.5 -15.5t-22.5 -42.5h-40zM249 532v45q-4 -7 -15 -13t-28 -9l-53 -10q-31 -5 -49.5 -19t-18.5 -39v-3q0 -27 19.5 -41.5t48.5 -14.5q42 0 69 29t27 75z" />
    <glyph glyph-name="guillemotleft" unicode="&#xab;" horiz-adv-x="529" 
d="M210 68l-170 198l170 198h59l-172 -198l172 -198h-59zM410 68l-170 198l170 198h59l-172 -198l172 -198h-59z" />
    <glyph glyph-name="logicalnot" unicode="&#xac;" horiz-adv-x="616" 
d="M40 300v40h500v-275h-40v235h-460z" />
    <glyph glyph-name="uni00AD" unicode="&#xad;" horiz-adv-x="383" 
d="M68 301h247v-40h-247v40z" />
    <glyph glyph-name="registered" unicode="&#xae;" horiz-adv-x="521" 
d="M261 281q-45 0 -85 16t-69 45t-46 69t-17 87t17 87t46 69t69 45t85 16t84.5 -16t68.5 -45t46 -69t17 -87t-17 -87t-46 -69t-68.5 -45t-84.5 -16zM261 313q38 0 71.5 14t58 38t38.5 58.5t14 74.5t-14 74.5t-38.5 58.5t-58 38t-71.5 14t-71.5 -14t-58 -38t-39 -58.5
t-14.5 -74.5t14.5 -74.5t39 -58.5t58 -38t71.5 -14zM277 484h-17l107 -94h-48l-103 92v-92h-33v225h95q38 0 57.5 -18.5t19.5 -47.5q0 -32 -23.5 -48.5t-54.5 -16.5zM279 590h-63v-82h63q22 0 32.5 13t10.5 29t-10 28t-33 12z" />
    <glyph glyph-name="macron" unicode="&#xaf;" horiz-adv-x="497" 
d="M121 686h255v-33h-255v33z" />
    <glyph glyph-name="degree" unicode="&#xb0;" horiz-adv-x="476" 
d="M238 344q-38 0 -71.5 14t-58.5 38.5t-39.5 58.5t-14.5 74t14.5 74t39.5 58.5t58.5 38.5t71.5 14t71.5 -14t58.5 -38.5t39.5 -58.5t14.5 -74t-14.5 -74t-39.5 -58.5t-58.5 -38.5t-71.5 -14zM238 383q59 0 101 41.5t42 104.5t-42 105t-101 42t-101 -42t-42 -105t42 -104.5
t101 -41.5z" />
    <glyph glyph-name="plusminus" unicode="&#xb1;" horiz-adv-x="590" 
d="M315 205h-40v175h-235v40h235v175h40v-175h235v-40h-235v-175zM40 44v40h510v-40h-510z" />
    <glyph glyph-name="twosuperior" unicode="&#xb2;" horiz-adv-x="357" 
d="M46 290v40q0 39 20 67t61 57l78 55q33 24 44 44.5t11 41.5v8q0 31 -20.5 53.5t-62.5 22.5q-41 0 -65 -24t-24 -66h-41q1 57 38 90.5t92 33.5q57 0 91 -31.5t34 -80.5q0 -33 -16 -61.5t-59 -59.5l-80 -57q-31 -22 -45.5 -43t-14.5 -49v-6h224v-35h-265z" />
    <glyph glyph-name="threesuperior" unicode="&#xb3;" horiz-adv-x="365" 
d="M276 404v8q0 39 -27 63t-74 24h-37v30l119 139h-197v36h243v-36l-117 -136v-1q60 -2 96 -35.5t36 -87.5t-38 -90t-100 -36q-65 0 -100 34.5t-38 83.5h41q2 -33 25.5 -58.5t72.5 -25.5q46 0 70.5 26t24.5 62z" />
    <glyph glyph-name="acute" unicode="&#xb4;" horiz-adv-x="499" 
d="M315 742h57l-104 -138h-40z" />
    <glyph glyph-name="uni00B5" unicode="&#xb5;" horiz-adv-x="584" 
d="M450 213v297h46v-510h-45v95h-1q-24 -55 -71 -82t-105 -27q-38 0 -73 12.5t-61.5 38.5t-42 65t-15.5 91v317h46v-317q0 -84 45 -125t108 -41q34 0 64.5 11.5t53.5 34.5t37 58t14 82z" />
    <glyph glyph-name="paragraph" unicode="&#xb6;" horiz-adv-x="670" 
d="M357 -192h-43v398h-20q-54 0 -98.5 18.5t-76 51t-48.5 78.5t-17 101q0 56 18 102t49.5 78.5t75.5 50.5t97 18h336v-38h-104v-858h-43v858h-126v-858zM294 244h20v422h-20q-40 0 -75 -14t-61 -39t-41.5 -61.5t-15.5 -81.5v-30q0 -44 15.5 -80.5t41.5 -62t61 -39.5t75 -14z
" />
    <glyph glyph-name="periodcentered" unicode="&#xb7;" horiz-adv-x="232" 
d="M116 312q-19 0 -31.5 12.5t-12.5 31.5t12.5 31.5t31.5 12.5t31.5 -12.5t12.5 -31.5t-12.5 -31.5t-31.5 -12.5z" />
    <glyph glyph-name="cedilla" unicode="&#xb8;" horiz-adv-x="500" 
d="M151 -213v33h61q28 0 53 11t25 37q0 25 -20.5 37t-57.5 12h-25v23l32 74h32l-27 -68q40 0 72 -17.5t32 -57.5q0 -43 -35.5 -63.5t-77.5 -20.5h-64z" />
    <glyph glyph-name="onesuperior" unicode="&#xb9;" horiz-adv-x="248" 
d="M137 290v308h-102v35h102v71h41v-414h-41z" />
    <glyph glyph-name="ordmasculine" unicode="&#xba;" horiz-adv-x="377" 
d="M191 396q-66 0 -105 45t-39 114t39.5 114t104.5 45q64 0 103.5 -45t39.5 -114t-38.5 -114t-104.5 -45zM294 545v20q0 54 -30.5 84.5t-72.5 30.5t-72.5 -31.5t-30.5 -83.5v-20q0 -52 30.5 -83.5t72.5 -31.5t72.5 30.5t30.5 84.5z" />
    <glyph glyph-name="guillemotright" unicode="&#xbb;" horiz-adv-x="529" 
d="M319 464l170 -198l-170 -198h-59l172 198l-172 198h59zM119 464l170 -198l-170 -198h-59l172 198l-172 198h59z" />
    <glyph glyph-name="onequarter" unicode="&#xbc;" horiz-adv-x="828" 
d="M152 290v308h-102v35h102v71h41v-414h-41zM163 0l459 704h47l-459 -704h-47zM463 110v33l199 271h47v-269h69v-35h-69v-110h-41v110h-205zM505 146v-1h163v221z" />
    <glyph glyph-name="onehalf" unicode="&#xbd;" horiz-adv-x="908" 
d="M152 290v308h-102v35h102v71h41v-414h-41zM178 0l459 704h47l-459 -704h-47zM593 0v40q0 39 20 67t61 57l78 55q33 24 44 44.5t11 41.5v8q0 31 -20.5 53.5t-62.5 22.5q-41 0 -65 -24t-24 -66h-41q1 57 38 90.5t92 33.5q57 0 91 -31.5t34 -80.5q0 -33 -16 -61.5t-59 -59.5
l-80 -57q-31 -22 -45.5 -43t-14.5 -49v-6h224v-35h-265z" />
    <glyph glyph-name="threequarters" unicode="&#xbe;" horiz-adv-x="876" 
d="M284 404v8q0 39 -27 63t-74 24h-37v30l119 139h-197v36h243v-36l-117 -136v-1q60 -2 96 -35.5t36 -87.5t-38 -90t-100 -36q-65 0 -100 34.5t-38 83.5h41q2 -33 25.5 -58.5t72.5 -25.5q46 0 70.5 26t24.5 62zM211 0l459 704h47l-459 -704h-47zM511 110v33l199 271h47v-269
h69v-35h-69v-110h-41v110h-205zM553 146v-1h163v221z" />
    <glyph glyph-name="questiondown" unicode="&#xbf;" horiz-adv-x="484" 
d="M253 525q19 0 31.5 -12.5t12.5 -31.5t-12.5 -31.5t-31.5 -12.5t-31.5 12.5t-12.5 31.5t12.5 31.5t31.5 12.5zM231 303h46q0 -71 -30.5 -110t-67 -67.5t-67 -60t-30.5 -87.5q0 -26 8.5 -51t27.5 -45t49 -32t73 -12q41 0 71.5 12t50 32t29.5 46t11 54h46q-2 -78 -57 -131
t-151 -53q-100 0 -152 52.5t-52 127.5q0 66 30.5 100.5t67 62t67 62t30.5 100.5z" />
    <glyph glyph-name="Agrave" unicode="&#xc0;" horiz-adv-x="638" 
d="M574 0l-83 210h-348l-81 -210h-51l279 704h52l285 -704h-53zM314 651l-155 -400h316l-159 400h-2zM247 936l87 -138h-40l-104 138h57z" />
    <glyph glyph-name="Aacute" unicode="&#xc1;" horiz-adv-x="638" 
d="M574 0l-83 210h-348l-81 -210h-51l279 704h52l285 -704h-53zM314 651l-155 -400h316l-159 400h-2zM382 936h57l-104 -138h-40z" />
    <glyph glyph-name="Acircumflex" unicode="&#xc2;" horiz-adv-x="638" 
d="M574 0l-83 210h-348l-81 -210h-51l279 704h52l285 -704h-53zM314 651l-155 -400h316l-159 400h-2zM463 798h-52l-93 112h-3l-93 -112h-47l119 138h51z" />
    <glyph glyph-name="Atilde" unicode="&#xc3;" horiz-adv-x="638" 
d="M574 0l-83 210h-348l-81 -210h-51l279 704h52l285 -704h-53zM314 651l-155 -400h316l-159 400h-2zM388 799q-31 0 -49 16t-32 34.5t-28.5 34.5t-38.5 16q-25 0 -41 -22.5t-16 -73.5h-31v2q0 59 24 93.5t65 34.5h2q31 0 49 -16t32 -34.5t28.5 -34.5t39.5 -16t41 21.5
t16 72.5h31v-2q0 -60 -24 -93t-66 -33h-2z" />
    <glyph glyph-name="Adieresis" unicode="&#xc4;" horiz-adv-x="638" 
d="M574 0l-83 210h-348l-81 -210h-51l279 704h52l285 -704h-53zM314 651l-155 -400h316l-159 400h-2zM235 837h-2q-16 0 -27 11t-11 27t11 27t27 11h2q16 0 27 -11t11 -27t-11 -27t-27 -11zM401 837h-2q-16 0 -27 11t-11 27t11 27t27 11h2q16 0 27 -11t11 -27t-11 -27
t-27 -11z" />
    <glyph glyph-name="Aring" unicode="&#xc5;" horiz-adv-x="638" 
d="M574 0l-83 210h-348l-81 -210h-51l279 704h52l285 -704h-53zM314 651l-155 -400h316l-159 400h-2zM316 770q-41 0 -71.5 25.5t-30.5 69.5t30.5 69.5t71.5 25.5q42 0 72 -25.5t30 -69.5t-30 -69.5t-72 -25.5zM316 800q28 0 49 17t21 48t-21 48t-49 17t-48.5 -17t-20.5 -48
t20.5 -48t48.5 -17z" />
    <glyph glyph-name="AE" unicode="&#xc6;" horiz-adv-x="930" 
d="M574 0l-83 210h-348l-81 -210h-51l279 704h584v-42h-515l111 -274h375v-42h-358l123 -304h264v-42h-300zM314 651l-155 -400h316l-159 400h-2z" />
    <glyph glyph-name="Ccedilla" unicode="&#xc7;" horiz-adv-x="678" 
d="M368 28q90 0 144.5 46.5t70.5 116.5h51q-21 -91 -90.5 -148t-175.5 -57q-77 0 -135.5 30t-96.5 80t-57.5 116.5t-19.5 139.5t19.5 139.5t57.5 117t96.5 80.5t135.5 30q106 0 174 -54t90 -144h-52q-18 70 -71 113t-140 43q-54 0 -101.5 -20.5t-83 -59.5t-56 -96
t-20.5 -131v-35q0 -74 20.5 -131t56 -96t83 -59.5t100.5 -20.5zM286 -213v33h61q28 0 53 11t25 37q0 25 -20.5 37t-57.5 12h-25v23l32 74h32l-27 -68q40 0 72 -17.5t32 -57.5q0 -43 -35.5 -63.5t-77.5 -20.5h-64z" />
    <glyph glyph-name="Egrave" unicode="&#xc8;" horiz-adv-x="612" 
d="M104 704h452v-42h-404v-274h375v-42h-375v-304h404v-42h-452v704zM274 936l87 -138h-40l-104 138h57z" />
    <glyph glyph-name="Eacute" unicode="&#xc9;" horiz-adv-x="612" 
d="M104 704h452v-42h-404v-274h375v-42h-375v-304h404v-42h-452v704zM409 936h57l-104 -138h-40z" />
    <glyph glyph-name="Ecircumflex" unicode="&#xca;" horiz-adv-x="612" 
d="M104 704h452v-42h-404v-274h375v-42h-375v-304h404v-42h-452v704zM490 798h-52l-93 112h-3l-93 -112h-47l119 138h51z" />
    <glyph glyph-name="Edieresis" unicode="&#xcb;" horiz-adv-x="612" 
d="M104 704h452v-42h-404v-274h375v-42h-375v-304h404v-42h-452v704zM262 837h-2q-16 0 -27 11t-11 27t11 27t27 11h2q16 0 27 -11t11 -27t-11 -27t-27 -11zM428 837h-2q-16 0 -27 11t-11 27t11 27t27 11h2q16 0 27 -11t11 -27t-11 -27t-27 -11z" />
    <glyph glyph-name="Igrave" unicode="&#xcc;" horiz-adv-x="256" 
d="M104 704h48v-704h-48v704zM59 936l87 -138h-40l-104 138h57z" />
    <glyph glyph-name="Iacute" unicode="&#xcd;" horiz-adv-x="256" 
d="M104 704h48v-704h-48v704zM194 936h57l-104 -138h-40z" />
    <glyph glyph-name="Icircumflex" unicode="&#xce;" horiz-adv-x="256" 
d="M104 704h48v-704h-48v704zM275 798h-52l-93 112h-3l-93 -112h-47l119 138h51z" />
    <glyph glyph-name="Idieresis" unicode="&#xcf;" horiz-adv-x="256" 
d="M104 704h48v-704h-48v704zM47 837h-2q-16 0 -27 11t-11 27t11 27t27 11h2q16 0 27 -11t11 -27t-11 -27t-27 -11zM213 837h-2q-16 0 -27 11t-11 27t11 27t27 11h2q16 0 27 -11t11 -27t-11 -27t-27 -11z" />
    <glyph glyph-name="Eth" unicode="&#xd0;" horiz-adv-x="708" 
d="M30 347v42h84v315h227q79 0 137 -29t96 -77t56.5 -112t18.5 -134t-18.5 -134t-56.5 -112.5t-96 -77t-137 -28.5h-227v347h-84zM342 662h-180v-273h212v-42h-212v-305h180q53 0 100 19.5t82 56.5t55.5 92t20.5 125v34q0 70 -20.5 125t-55.5 92t-82 56.5t-100 19.5z" />
    <glyph glyph-name="Ntilde" unicode="&#xd1;" horiz-adv-x="729" 
d="M104 0v704h67l405 -648h1v648h48v-704h-66l-406 652h-1v-652h-48zM451 799q-31 0 -49 16t-32 34.5t-28.5 34.5t-38.5 16q-25 0 -41 -22.5t-16 -73.5h-31v2q0 59 24 93.5t65 34.5h2q31 0 49 -16t32 -34.5t28.5 -34.5t39.5 -16t41 21.5t16 72.5h31v-2q0 -60 -24 -93
t-66 -33h-2z" />
    <glyph glyph-name="Ograve" unicode="&#xd2;" horiz-adv-x="734" 
d="M367 -14q-79 0 -137 30t-96 80t-56.5 116.5t-18.5 139.5t18.5 139.5t56.5 117t96 80.5t137 30t137 -30t96 -80.5t56.5 -117t18.5 -139.5t-18.5 -139.5t-56.5 -116.5t-96 -80t-137 -30zM367 28q53 0 100.5 20.5t82.5 59.5t55.5 96t20.5 131v35q0 74 -20.5 131t-55.5 96
t-82.5 59.5t-100.5 20.5t-100.5 -20.5t-82.5 -59.5t-55.5 -96t-20.5 -131v-35q0 -74 20.5 -131t55.5 -96t82.5 -59.5t100.5 -20.5zM298 936l87 -138h-40l-104 138h57z" />
    <glyph glyph-name="Oacute" unicode="&#xd3;" horiz-adv-x="734" 
d="M367 -14q-79 0 -137 30t-96 80t-56.5 116.5t-18.5 139.5t18.5 139.5t56.5 117t96 80.5t137 30t137 -30t96 -80.5t56.5 -117t18.5 -139.5t-18.5 -139.5t-56.5 -116.5t-96 -80t-137 -30zM367 28q53 0 100.5 20.5t82.5 59.5t55.5 96t20.5 131v35q0 74 -20.5 131t-55.5 96
t-82.5 59.5t-100.5 20.5t-100.5 -20.5t-82.5 -59.5t-55.5 -96t-20.5 -131v-35q0 -74 20.5 -131t55.5 -96t82.5 -59.5t100.5 -20.5zM433 936h57l-104 -138h-40z" />
    <glyph glyph-name="Ocircumflex" unicode="&#xd4;" horiz-adv-x="734" 
d="M367 -14q-79 0 -137 30t-96 80t-56.5 116.5t-18.5 139.5t18.5 139.5t56.5 117t96 80.5t137 30t137 -30t96 -80.5t56.5 -117t18.5 -139.5t-18.5 -139.5t-56.5 -116.5t-96 -80t-137 -30zM367 28q53 0 100.5 20.5t82.5 59.5t55.5 96t20.5 131v35q0 74 -20.5 131t-55.5 96
t-82.5 59.5t-100.5 20.5t-100.5 -20.5t-82.5 -59.5t-55.5 -96t-20.5 -131v-35q0 -74 20.5 -131t55.5 -96t82.5 -59.5t100.5 -20.5zM514 798h-52l-93 112h-3l-93 -112h-47l119 138h51z" />
    <glyph glyph-name="Otilde" unicode="&#xd5;" horiz-adv-x="734" 
d="M367 -14q-79 0 -137 30t-96 80t-56.5 116.5t-18.5 139.5t18.5 139.5t56.5 117t96 80.5t137 30t137 -30t96 -80.5t56.5 -117t18.5 -139.5t-18.5 -139.5t-56.5 -116.5t-96 -80t-137 -30zM367 28q53 0 100.5 20.5t82.5 59.5t55.5 96t20.5 131v35q0 74 -20.5 131t-55.5 96
t-82.5 59.5t-100.5 20.5t-100.5 -20.5t-82.5 -59.5t-55.5 -96t-20.5 -131v-35q0 -74 20.5 -131t55.5 -96t82.5 -59.5t100.5 -20.5zM439 799q-31 0 -49 16t-32 34.5t-28.5 34.5t-38.5 16q-25 0 -41 -22.5t-16 -73.5h-31v2q0 59 24 93.5t65 34.5h2q31 0 49 -16t32 -34.5
t28.5 -34.5t39.5 -16t41 21.5t16 72.5h31v-2q0 -60 -24 -93t-66 -33h-2z" />
    <glyph glyph-name="Odieresis" unicode="&#xd6;" horiz-adv-x="734" 
d="M367 -14q-79 0 -137 30t-96 80t-56.5 116.5t-18.5 139.5t18.5 139.5t56.5 117t96 80.5t137 30t137 -30t96 -80.5t56.5 -117t18.5 -139.5t-18.5 -139.5t-56.5 -116.5t-96 -80t-137 -30zM367 28q53 0 100.5 20.5t82.5 59.5t55.5 96t20.5 131v35q0 74 -20.5 131t-55.5 96
t-82.5 59.5t-100.5 20.5t-100.5 -20.5t-82.5 -59.5t-55.5 -96t-20.5 -131v-35q0 -74 20.5 -131t55.5 -96t82.5 -59.5t100.5 -20.5zM286 837h-2q-16 0 -27 11t-11 27t11 27t27 11h2q16 0 27 -11t11 -27t-11 -27t-27 -11zM452 837h-2q-16 0 -27 11t-11 27t11 27t27 11h2
q16 0 27 -11t11 -27t-11 -27t-27 -11z" />
    <glyph glyph-name="multiply" unicode="&#xd7;" horiz-adv-x="590" 
d="M118 115l-28 28l177 177l-177 177l28 28l177 -177l177 177l28 -28l-177 -177l177 -177l-28 -28l-177 177z" />
    <glyph glyph-name="Oslash" unicode="&#xd8;" horiz-adv-x="734" 
d="M43 -7l89 106q-37 50 -55 115.5t-18 137.5q0 73 18.5 139.5t56.5 117t96 80.5t137 30q68 0 121.5 -22.5t90.5 -62.5l83 100l29 -23l-88 -106q37 -50 54.5 -115.5t17.5 -137.5q0 -73 -18.5 -139.5t-56.5 -116.5t-96 -80t-137 -30q-68 0 -121 22.5t-90 61.5l-84 -100z
M108 335q0 -61 14.5 -111.5t39.5 -87.5l387 462q-35 39 -82 59t-100 20t-100.5 -20.5t-82.5 -59.5t-55.5 -96t-20.5 -131v-35zM367 28q53 0 100.5 20.5t82.5 59.5t55.5 96t20.5 131v35q0 61 -14.5 111.5t-39.5 87.5l-386 -463q35 -38 82 -58t99 -20z" />
    <glyph glyph-name="Ugrave" unicode="&#xd9;" horiz-adv-x="699" 
d="M349 -15q-62 0 -110 18.5t-80 51.5t-49 79.5t-17 102.5v467h48v-466q0 -93 53.5 -152t154.5 -59q102 0 155.5 59t53.5 152v466h47v-467q0 -56 -17 -102.5t-49 -79.5t-80 -51.5t-110 -18.5zM282 937l87 -138h-40l-104 138h57z" />
    <glyph glyph-name="Uacute" unicode="&#xda;" horiz-adv-x="699" 
d="M349 -15q-62 0 -110 18.5t-80 51.5t-49 79.5t-17 102.5v467h48v-466q0 -93 53.5 -152t154.5 -59q102 0 155.5 59t53.5 152v466h47v-467q0 -56 -17 -102.5t-49 -79.5t-80 -51.5t-110 -18.5zM417 937h57l-104 -138h-40z" />
    <glyph glyph-name="Ucircumflex" unicode="&#xdb;" horiz-adv-x="699" 
d="M349 -15q-62 0 -110 18.5t-80 51.5t-49 79.5t-17 102.5v467h48v-466q0 -93 53.5 -152t154.5 -59q102 0 155.5 59t53.5 152v466h47v-467q0 -56 -17 -102.5t-49 -79.5t-80 -51.5t-110 -18.5zM498 799h-52l-93 112h-3l-93 -112h-47l119 138h51z" />
    <glyph glyph-name="Udieresis" unicode="&#xdc;" horiz-adv-x="699" 
d="M349 -15q-62 0 -110 18.5t-80 51.5t-49 79.5t-17 102.5v467h48v-466q0 -93 53.5 -152t154.5 -59q102 0 155.5 59t53.5 152v466h47v-467q0 -56 -17 -102.5t-49 -79.5t-80 -51.5t-110 -18.5zM270 838h-2q-16 0 -27 11t-11 27t11 27t27 11h2q16 0 27 -11t11 -27t-11 -27
t-27 -11zM436 838h-2q-16 0 -27 11t-11 27t11 27t27 11h2q16 0 27 -11t11 -27t-11 -27t-27 -11z" />
    <glyph glyph-name="Yacute" unicode="&#xdd;" horiz-adv-x="590" 
d="M272 0v290l-254 414h55l222 -365h2l221 365h54l-253 -414v-290h-47zM362 936h57l-104 -138h-40z" />
    <glyph glyph-name="Thorn" unicode="&#xde;" horiz-adv-x="633" 
d="M104 0v704h48v-120h228q103 0 160.5 -51t57.5 -141t-57.5 -141t-160.5 -51h-228v-200h-48zM549 385v14q0 63 -42 103t-128 40h-227v-300h227q86 0 128 40t42 103z" />
    <glyph glyph-name="germandbls" unicode="&#xdf;" horiz-adv-x="567" 
d="M88 0v526q0 99 53.5 157.5t146.5 58.5q43 0 77.5 -14t58.5 -38.5t37 -57.5t13 -70q0 -54 -25.5 -97.5t-85.5 -66.5v-1q75 -16 114.5 -68.5t39.5 -122.5q0 -91 -65 -148.5t-175 -57.5h-70v41h67q95 0 145 44.5t50 117.5v4q0 75 -44 120t-122 45h-56v41h42q62 0 100.5 39.5
t38.5 105.5v4q0 25 -8.5 50t-26 45t-44 33t-63.5 13q-73 0 -112.5 -49.5t-39.5 -126.5v-527h-46z" />
    <glyph glyph-name="agrave" unicode="&#xe0;" horiz-adv-x="538" 
d="M71 374q5 64 53.5 107t138.5 43q88 0 135.5 -43t47.5 -115v-278q0 -28 11 -37.5t32 -9.5h33v-41h-43q-43 0 -61 20t-17 63v16h-1q-19 -49 -67 -81t-114 -32q-71 0 -120 38.5t-49 107.5q0 65 45.5 102t115.5 50l94 17q44 8 67.5 25t23.5 53q0 37 -29 70.5t-104 33.5
q-66 0 -102.5 -29t-42.5 -80h-47zM400 220v87q-7 -14 -26.5 -26t-50.5 -18l-103 -19q-56 -10 -89.5 -36t-33.5 -72v-6q0 -51 36.5 -77.5t90.5 -26.5q75 0 125.5 53.5t50.5 140.5zM194 742l87 -138h-40l-104 138h57z" />
    <glyph glyph-name="aacute" unicode="&#xe1;" horiz-adv-x="538" 
d="M71 374q5 64 53.5 107t138.5 43q88 0 135.5 -43t47.5 -115v-278q0 -28 11 -37.5t32 -9.5h33v-41h-43q-43 0 -61 20t-17 63v16h-1q-19 -49 -67 -81t-114 -32q-71 0 -120 38.5t-49 107.5q0 65 45.5 102t115.5 50l94 17q44 8 67.5 25t23.5 53q0 37 -29 70.5t-104 33.5
q-66 0 -102.5 -29t-42.5 -80h-47zM400 220v87q-7 -14 -26.5 -26t-50.5 -18l-103 -19q-56 -10 -89.5 -36t-33.5 -72v-6q0 -51 36.5 -77.5t90.5 -26.5q75 0 125.5 53.5t50.5 140.5zM329 742h57l-104 -138h-40z" />
    <glyph glyph-name="acircumflex" unicode="&#xe2;" horiz-adv-x="538" 
d="M71 374q5 64 53.5 107t138.5 43q88 0 135.5 -43t47.5 -115v-278q0 -28 11 -37.5t32 -9.5h33v-41h-43q-43 0 -61 20t-17 63v16h-1q-19 -49 -67 -81t-114 -32q-71 0 -120 38.5t-49 107.5q0 65 45.5 102t115.5 50l94 17q44 8 67.5 25t23.5 53q0 37 -29 70.5t-104 33.5
q-66 0 -102.5 -29t-42.5 -80h-47zM400 220v87q-7 -14 -26.5 -26t-50.5 -18l-103 -19q-56 -10 -89.5 -36t-33.5 -72v-6q0 -51 36.5 -77.5t90.5 -26.5q75 0 125.5 53.5t50.5 140.5zM410 604h-52l-93 112h-3l-93 -112h-47l119 138h51z" />
    <glyph glyph-name="atilde" unicode="&#xe3;" horiz-adv-x="538" 
d="M71 374q5 64 53.5 107t138.5 43q88 0 135.5 -43t47.5 -115v-278q0 -28 11 -37.5t32 -9.5h33v-41h-43q-43 0 -61 20t-17 63v16h-1q-19 -49 -67 -81t-114 -32q-71 0 -120 38.5t-49 107.5q0 65 45.5 102t115.5 50l94 17q44 8 67.5 25t23.5 53q0 37 -29 70.5t-104 33.5
q-66 0 -102.5 -29t-42.5 -80h-47zM400 220v87q-7 -14 -26.5 -26t-50.5 -18l-103 -19q-56 -10 -89.5 -36t-33.5 -72v-6q0 -51 36.5 -77.5t90.5 -26.5q75 0 125.5 53.5t50.5 140.5zM335 605q-31 0 -49 16t-32 34.5t-28.5 34.5t-38.5 16q-25 0 -41 -22.5t-16 -73.5h-31v2
q0 59 24 93.5t65 34.5h2q31 0 49 -16t32 -34.5t28.5 -34.5t39.5 -16t41 21.5t16 72.5h31v-2q0 -60 -24 -93t-66 -33h-2z" />
    <glyph glyph-name="adieresis" unicode="&#xe4;" horiz-adv-x="538" 
d="M71 374q5 64 53.5 107t138.5 43q88 0 135.5 -43t47.5 -115v-278q0 -28 11 -37.5t32 -9.5h33v-41h-43q-43 0 -61 20t-17 63v16h-1q-19 -49 -67 -81t-114 -32q-71 0 -120 38.5t-49 107.5q0 65 45.5 102t115.5 50l94 17q44 8 67.5 25t23.5 53q0 37 -29 70.5t-104 33.5
q-66 0 -102.5 -29t-42.5 -80h-47zM400 220v87q-7 -14 -26.5 -26t-50.5 -18l-103 -19q-56 -10 -89.5 -36t-33.5 -72v-6q0 -51 36.5 -77.5t90.5 -26.5q75 0 125.5 53.5t50.5 140.5zM182 643h-2q-16 0 -27 11t-11 27t11 27t27 11h2q16 0 27 -11t11 -27t-11 -27t-27 -11z
M348 643h-2q-16 0 -27 11t-11 27t11 27t27 11h2q16 0 27 -11t11 -27t-11 -27t-27 -11z" />
    <glyph glyph-name="aring" unicode="&#xe5;" horiz-adv-x="538" 
d="M71 374q5 64 53.5 107t138.5 43q88 0 135.5 -43t47.5 -115v-278q0 -28 11 -37.5t32 -9.5h33v-41h-43q-43 0 -61 20t-17 63v16h-1q-19 -49 -67 -81t-114 -32q-71 0 -120 38.5t-49 107.5q0 65 45.5 102t115.5 50l94 17q44 8 67.5 25t23.5 53q0 37 -29 70.5t-104 33.5
q-66 0 -102.5 -29t-42.5 -80h-47zM400 220v87q-7 -14 -26.5 -26t-50.5 -18l-103 -19q-56 -10 -89.5 -36t-33.5 -72v-6q0 -51 36.5 -77.5t90.5 -26.5q75 0 125.5 53.5t50.5 140.5zM263 576q-41 0 -71.5 25.5t-30.5 69.5t30.5 69.5t71.5 25.5q42 0 72 -25.5t30 -69.5
t-30 -69.5t-72 -25.5zM263 606q28 0 49 17t21 48t-21 48t-49 17t-48.5 -17t-20.5 -48t20.5 -48t48.5 -17z" />
    <glyph glyph-name="ae" unicode="&#xe6;" horiz-adv-x="920" 
d="M435 387h1q29 63 81.5 100t121.5 37q107 0 169 -71.5t62 -187.5v-19h-421v-6q0 -96 55 -154.5t138 -58.5q38 0 67.5 11t50.5 28t34 38.5t17 42.5h50q-16 -68 -72.5 -114.5t-146.5 -46.5q-85 0 -141.5 49.5t-75.5 131.5h-1q-3 -39 -20 -72t-44 -57.5t-63 -38t-76 -13.5
q-71 0 -120 38.5t-49 107.5q0 65 45.5 102t115.5 50l94 17q44 8 67.5 25t23.5 53q0 18 -7 36.5t-22 33.5t-41 24.5t-63 9.5q-66 0 -102.5 -29t-42.5 -80h-47q5 64 53.5 107t138.5 43q79 0 121 -36.5t49 -100.5zM639 483q-37 0 -70 -14t-58.5 -39t-41.5 -61.5t-19 -81.5h373
q-2 91 -53 143.5t-131 52.5zM402 220v87q-7 -14 -26.5 -26t-50.5 -18l-103 -19q-56 -10 -89.5 -36t-33.5 -72v-6q0 -51 36.5 -77.5t90.5 -26.5q75 0 125.5 53.5t50.5 140.5z" />
    <glyph glyph-name="ccedilla" unicode="&#xe7;" horiz-adv-x="548" 
d="M101 270v-30q0 -48 15 -87.5t40.5 -67.5t60.5 -43t74 -15q65 0 106 35.5t55 89.5h48q-18 -75 -71.5 -120.5t-137.5 -45.5q-54 0 -98 19.5t-74.5 55t-47.5 85t-17 109.5q0 121 66.5 195t170.5 74q84 0 138.5 -45t69.5 -116h-48q-13 50 -53 85t-107 35q-39 0 -74 -15
t-60.5 -42.5t-40.5 -67t-15 -88.5zM207 -213v33h61q28 0 53 11t25 37q0 25 -20.5 37t-57.5 12h-25v23l32 74h32l-27 -68q40 0 72 -17.5t32 -57.5q0 -43 -35.5 -63.5t-77.5 -20.5h-64z" />
    <glyph glyph-name="egrave" unicode="&#xe8;" horiz-adv-x="566" 
d="M289 -14q-54 0 -98 20t-74 55t-46.5 85t-16.5 109q0 60 17.5 110t48.5 85t73.5 54.5t92.5 19.5q104 0 165 -71.5t61 -187.5v-17h-411v-8q0 -96 54 -154.5t134 -58.5q36 0 65 10.5t49.5 26.5t33 37t16.5 42h50q-16 -67 -71.5 -112t-142.5 -45zM286 483q-35 0 -67 -13.5
t-57 -38.5t-41 -61t-19 -81h363q-3 91 -53 142.5t-126 51.5zM216 742l87 -138h-40l-104 138h57z" />
    <glyph glyph-name="eacute" unicode="&#xe9;" horiz-adv-x="566" 
d="M289 -14q-54 0 -98 20t-74 55t-46.5 85t-16.5 109q0 60 17.5 110t48.5 85t73.5 54.5t92.5 19.5q104 0 165 -71.5t61 -187.5v-17h-411v-8q0 -96 54 -154.5t134 -58.5q36 0 65 10.5t49.5 26.5t33 37t16.5 42h50q-16 -67 -71.5 -112t-142.5 -45zM286 483q-35 0 -67 -13.5
t-57 -38.5t-41 -61t-19 -81h363q-3 91 -53 142.5t-126 51.5zM351 742h57l-104 -138h-40z" />
    <glyph glyph-name="ecircumflex" unicode="&#xea;" horiz-adv-x="566" 
d="M289 -14q-54 0 -98 20t-74 55t-46.5 85t-16.5 109q0 60 17.5 110t48.5 85t73.5 54.5t92.5 19.5q104 0 165 -71.5t61 -187.5v-17h-411v-8q0 -96 54 -154.5t134 -58.5q36 0 65 10.5t49.5 26.5t33 37t16.5 42h50q-16 -67 -71.5 -112t-142.5 -45zM286 483q-35 0 -67 -13.5
t-57 -38.5t-41 -61t-19 -81h363q-3 91 -53 142.5t-126 51.5zM432 604h-52l-93 112h-3l-93 -112h-47l119 138h51z" />
    <glyph glyph-name="edieresis" unicode="&#xeb;" horiz-adv-x="566" 
d="M289 -14q-54 0 -98 20t-74 55t-46.5 85t-16.5 109q0 60 17.5 110t48.5 85t73.5 54.5t92.5 19.5q104 0 165 -71.5t61 -187.5v-17h-411v-8q0 -96 54 -154.5t134 -58.5q36 0 65 10.5t49.5 26.5t33 37t16.5 42h50q-16 -67 -71.5 -112t-142.5 -45zM286 483q-35 0 -67 -13.5
t-57 -38.5t-41 -61t-19 -81h363q-3 91 -53 142.5t-126 51.5zM204 643h-2q-16 0 -27 11t-11 27t11 27t27 11h2q16 0 27 -11t11 -27t-11 -27t-27 -11zM370 643h-2q-16 0 -27 11t-11 27t11 27t27 11h2q16 0 27 -11t11 -27t-11 -27t-27 -11z" />
    <glyph glyph-name="igrave" unicode="&#xec;" horiz-adv-x="222" 
d="M88 510h46v-510h-46v510zM42 742l87 -138h-40l-104 138h57z" />
    <glyph glyph-name="iacute" unicode="&#xed;" horiz-adv-x="222" 
d="M88 510h46v-510h-46v510zM177 742h57l-104 -138h-40z" />
    <glyph glyph-name="icircumflex" unicode="&#xee;" horiz-adv-x="222" 
d="M88 510h46v-510h-46v510zM258 604h-52l-93 112h-3l-93 -112h-47l119 138h51z" />
    <glyph glyph-name="idieresis" unicode="&#xef;" horiz-adv-x="222" 
d="M88 510h46v-510h-46v510zM30 643h-2q-16 0 -27 11t-11 27t11 27t27 11h2q16 0 27 -11t11 -27t-11 -27t-27 -11zM196 643h-2q-16 0 -27 11t-11 27t11 27t27 11h2q16 0 27 -11t11 -27t-11 -27t-27 -11z" />
    <glyph glyph-name="eth" unicode="&#xf0;" horiz-adv-x="577" 
d="M153 561v38l129 45q-19 16 -41 31.5t-46 29.5l25 31q29 -18 55.5 -37.5t49.5 -39.5l145 51v-38l-115 -40q86 -85 126 -184.5t40 -203.5q0 -57 -17 -105t-47.5 -81.5t-73.5 -52.5t-96 -19q-52 0 -95.5 19t-73.5 52.5t-47 81.5t-17 105t17.5 105t48 82t73.5 52.5t94 18.5
q58 0 103.5 -27.5t71.5 -75.5h1q-20 57 -57.5 112.5t-92.5 105.5zM474 229v30q0 47 -15 84.5t-40.5 63.5t-59.5 40t-72 14t-72 -14.5t-59 -40.5t-40 -63.5t-15 -83.5v-30q0 -46 15 -83t40 -63.5t59 -41t72 -14.5t72 14t59.5 40t40.5 63.5t15 84.5z" />
    <glyph glyph-name="ntilde" unicode="&#xf1;" horiz-adv-x="584" 
d="M134 297v-297h-46v510h45v-95h1q24 55 71 82t105 27q38 0 73 -12.5t61.5 -38.5t42 -65t15.5 -91v-317h-46v317q0 84 -45 125t-108 41q-34 0 -64.5 -11.5t-53.5 -34.5t-37 -58t-14 -82zM378 605q-31 0 -49 16t-32 34.5t-28.5 34.5t-38.5 16q-25 0 -41 -22.5t-16 -73.5h-31
v2q0 59 24 93.5t65 34.5h2q31 0 49 -16t32 -34.5t28.5 -34.5t39.5 -16t41 21.5t16 72.5h31v-2q0 -60 -24 -93t-66 -33h-2z" />
    <glyph glyph-name="ograve" unicode="&#xf2;" horiz-adv-x="582" 
d="M291 -14q-53 0 -97 20t-75 55t-48 85t-17 109q0 60 17.5 110t49 85t75.5 54.5t95 19.5t95 -19.5t75.5 -54.5t49 -85t17.5 -110q0 -59 -17 -109t-48 -85t-75 -55t-97 -20zM481 240v30q0 49 -15.5 89t-41 67t-60.5 42t-73 15t-73 -15t-60.5 -42.5t-41 -67t-15.5 -88.5v-30
q0 -48 15.5 -87.5t41 -67t60.5 -43t73 -15.5t73 14.5t60.5 42t41 67t15.5 89.5zM222 742l87 -138h-40l-104 138h57z" />
    <glyph glyph-name="oacute" unicode="&#xf3;" horiz-adv-x="582" 
d="M291 -14q-53 0 -97 20t-75 55t-48 85t-17 109q0 60 17.5 110t49 85t75.5 54.5t95 19.5t95 -19.5t75.5 -54.5t49 -85t17.5 -110q0 -59 -17 -109t-48 -85t-75 -55t-97 -20zM481 240v30q0 49 -15.5 89t-41 67t-60.5 42t-73 15t-73 -15t-60.5 -42.5t-41 -67t-15.5 -88.5v-30
q0 -48 15.5 -87.5t41 -67t60.5 -43t73 -15.5t73 14.5t60.5 42t41 67t15.5 89.5zM357 742h57l-104 -138h-40z" />
    <glyph glyph-name="ocircumflex" unicode="&#xf4;" horiz-adv-x="582" 
d="M291 -14q-53 0 -97 20t-75 55t-48 85t-17 109q0 60 17.5 110t49 85t75.5 54.5t95 19.5t95 -19.5t75.5 -54.5t49 -85t17.5 -110q0 -59 -17 -109t-48 -85t-75 -55t-97 -20zM481 240v30q0 49 -15.5 89t-41 67t-60.5 42t-73 15t-73 -15t-60.5 -42.5t-41 -67t-15.5 -88.5v-30
q0 -48 15.5 -87.5t41 -67t60.5 -43t73 -15.5t73 14.5t60.5 42t41 67t15.5 89.5zM438 604h-52l-93 112h-3l-93 -112h-47l119 138h51z" />
    <glyph glyph-name="otilde" unicode="&#xf5;" horiz-adv-x="582" 
d="M291 -14q-53 0 -97 20t-75 55t-48 85t-17 109q0 60 17.5 110t49 85t75.5 54.5t95 19.5t95 -19.5t75.5 -54.5t49 -85t17.5 -110q0 -59 -17 -109t-48 -85t-75 -55t-97 -20zM481 240v30q0 49 -15.5 89t-41 67t-60.5 42t-73 15t-73 -15t-60.5 -42.5t-41 -67t-15.5 -88.5v-30
q0 -48 15.5 -87.5t41 -67t60.5 -43t73 -15.5t73 14.5t60.5 42t41 67t15.5 89.5zM363 605q-31 0 -49 16t-32 34.5t-28.5 34.5t-38.5 16q-25 0 -41 -22.5t-16 -73.5h-31v2q0 59 24 93.5t65 34.5h2q31 0 49 -16t32 -34.5t28.5 -34.5t39.5 -16t41 21.5t16 72.5h31v-2
q0 -60 -24 -93t-66 -33h-2z" />
    <glyph glyph-name="odieresis" unicode="&#xf6;" horiz-adv-x="582" 
d="M291 -14q-53 0 -97 20t-75 55t-48 85t-17 109q0 60 17.5 110t49 85t75.5 54.5t95 19.5t95 -19.5t75.5 -54.5t49 -85t17.5 -110q0 -59 -17 -109t-48 -85t-75 -55t-97 -20zM481 240v30q0 49 -15.5 89t-41 67t-60.5 42t-73 15t-73 -15t-60.5 -42.5t-41 -67t-15.5 -88.5v-30
q0 -48 15.5 -87.5t41 -67t60.5 -43t73 -15.5t73 14.5t60.5 42t41 67t15.5 89.5zM210 643h-2q-16 0 -27 11t-11 27t11 27t27 11h2q16 0 27 -11t11 -27t-11 -27t-27 -11zM376 643h-2q-16 0 -27 11t-11 27t11 27t27 11h2q16 0 27 -11t11 -27t-11 -27t-27 -11z" />
    <glyph glyph-name="divide" unicode="&#xf7;" horiz-adv-x="590" 
d="M300 469q-19 0 -30.5 12t-11.5 30q0 19 11.5 30.5t30.5 11.5q18 0 30 -11.5t12 -30.5q0 -18 -12 -30t-30 -12zM40 300v40h510v-40h-510zM300 86q-19 0 -30.5 12t-11.5 30q0 19 11.5 30.5t30.5 11.5q18 0 30 -11.5t12 -30.5q0 -18 -12 -30t-30 -12z" />
    <glyph glyph-name="oslash" unicode="&#xf8;" horiz-adv-x="588" 
d="M27 -12l80 88q-25 34 -39 80t-14 99q0 60 17.5 110t49 85t75.5 54.5t95 19.5q49 0 90.5 -17.5t72.5 -49.5l81 89l26 -24l-84 -92q24 -34 37.5 -78.5t13.5 -96.5q0 -59 -17 -109t-48 -85t-75 -55t-97 -20q-49 0 -89.5 16.5t-71.5 46.5l-77 -85zM101 240q0 -38 10 -71
t27 -59l287 315q-25 28 -60 43t-74 15q-38 0 -73 -15t-60.5 -42.5t-41 -67t-15.5 -88.5v-30zM481 240v30q0 37 -9 69.5t-25 57.5l-286 -315q25 -26 59 -40.5t71 -14.5q38 0 73 14.5t60.5 42t41 67t15.5 89.5z" />
    <glyph glyph-name="ugrave" unicode="&#xf9;" horiz-adv-x="584" 
d="M450 213v297h46v-510h-45v95h-1q-24 -55 -71 -82t-105 -27q-38 0 -73 12.5t-61.5 38.5t-42 65t-15.5 91v317h46v-317q0 -84 45 -125t108 -41q34 0 64.5 11.5t53.5 34.5t37 58t14 82zM215 742l87 -138h-40l-104 138h57z" />
    <glyph glyph-name="uacute" unicode="&#xfa;" horiz-adv-x="584" 
d="M450 213v297h46v-510h-45v95h-1q-24 -55 -71 -82t-105 -27q-38 0 -73 12.5t-61.5 38.5t-42 65t-15.5 91v317h46v-317q0 -84 45 -125t108 -41q34 0 64.5 11.5t53.5 34.5t37 58t14 82zM350 742h57l-104 -138h-40z" />
    <glyph glyph-name="ucircumflex" unicode="&#xfb;" horiz-adv-x="584" 
d="M450 213v297h46v-510h-45v95h-1q-24 -55 -71 -82t-105 -27q-38 0 -73 12.5t-61.5 38.5t-42 65t-15.5 91v317h46v-317q0 -84 45 -125t108 -41q34 0 64.5 11.5t53.5 34.5t37 58t14 82zM431 604h-52l-93 112h-3l-93 -112h-47l119 138h51z" />
    <glyph glyph-name="udieresis" unicode="&#xfc;" horiz-adv-x="584" 
d="M450 213v297h46v-510h-45v95h-1q-24 -55 -71 -82t-105 -27q-38 0 -73 12.5t-61.5 38.5t-42 65t-15.5 91v317h46v-317q0 -84 45 -125t108 -41q34 0 64.5 11.5t53.5 34.5t37 58t14 82zM203 643h-2q-16 0 -27 11t-11 27t11 27t27 11h2q16 0 27 -11t11 -27t-11 -27t-27 -11z
M369 643h-2q-16 0 -27 11t-11 27t11 27t27 11h2q16 0 27 -11t11 -27t-11 -27t-27 -11z" />
    <glyph glyph-name="yacute" unicode="&#xfd;" horiz-adv-x="504" 
d="M243 -78q-12 -29 -23.5 -50.5t-28.5 -35.5t-42 -21t-63 -7h-63v41h63q26 0 43 3.5t29 13t21 27t21 44.5l31 74l-209 499h51l182 -441h1l177 441h49zM323 742h57l-104 -138h-40z" />
    <glyph glyph-name="thorn" unicode="&#xfe;" horiz-adv-x="612" 
d="M88 0v742h46v-344h1q25 59 74.5 92.5t115.5 33.5q50 0 92 -19.5t72 -54.5t47 -85t17 -110t-16.5 -109.5t-46 -85t-72 -55t-93.5 -19.5q-67 0 -116.5 33.5t-73.5 91.5h-1v-75h1v-225h-46v189h-1zM506 240v30q0 50 -15 89.5t-40 67t-59 42t-72 14.5t-72 -15t-59 -42.5
t-40 -67t-15 -88.5v-30q0 -48 15 -87.5t40 -67.5t59 -43t72 -15t72 14.5t59 41.5t40 67t15 90z" />
    <glyph glyph-name="ydieresis" unicode="&#xff;" horiz-adv-x="504" 
d="M243 -78q-12 -29 -23.5 -50.5t-28.5 -35.5t-42 -21t-63 -7h-63v41h63q26 0 43 3.5t29 13t21 27t21 44.5l31 74l-209 499h51l182 -441h1l177 441h49zM176 643h-2q-16 0 -27 11t-11 27t11 27t27 11h2q16 0 27 -11t11 -27t-11 -27t-27 -11zM342 643h-2q-16 0 -27 11t-11 27
t11 27t27 11h2q16 0 27 -11t11 -27t-11 -27t-27 -11z" />
    <glyph glyph-name="Amacron" unicode="&#x100;" horiz-adv-x="638" 
d="M574 0l-83 210h-348l-81 -210h-51l279 704h52l285 -704h-53zM314 651l-155 -400h316l-159 400h-2zM188 880h255v-33h-255v33z" />
    <glyph glyph-name="amacron" unicode="&#x101;" horiz-adv-x="538" 
d="M71 374q5 64 53.5 107t138.5 43q88 0 135.5 -43t47.5 -115v-278q0 -28 11 -37.5t32 -9.5h33v-41h-43q-43 0 -61 20t-17 63v16h-1q-19 -49 -67 -81t-114 -32q-71 0 -120 38.5t-49 107.5q0 65 45.5 102t115.5 50l94 17q44 8 67.5 25t23.5 53q0 37 -29 70.5t-104 33.5
q-66 0 -102.5 -29t-42.5 -80h-47zM400 220v87q-7 -14 -26.5 -26t-50.5 -18l-103 -19q-56 -10 -89.5 -36t-33.5 -72v-6q0 -51 36.5 -77.5t90.5 -26.5q75 0 125.5 53.5t50.5 140.5zM135 686h255v-33h-255v33z" />
    <glyph glyph-name="Abreve" unicode="&#x102;" horiz-adv-x="638" 
d="M574 0l-83 210h-348l-81 -210h-51l279 704h52l285 -704h-53zM314 651l-155 -400h316l-159 400h-2zM314 798q-65 0 -100 40.5t-35 97.5h41q0 -51 26 -78.5t70 -27.5q47 0 74 28.5t27 77.5h38q0 -56 -36 -97t-102 -41h-3z" />
    <glyph glyph-name="abreve" unicode="&#x103;" horiz-adv-x="538" 
d="M71 374q5 64 53.5 107t138.5 43q88 0 135.5 -43t47.5 -115v-278q0 -28 11 -37.5t32 -9.5h33v-41h-43q-43 0 -61 20t-17 63v16h-1q-19 -49 -67 -81t-114 -32q-71 0 -120 38.5t-49 107.5q0 65 45.5 102t115.5 50l94 17q44 8 67.5 25t23.5 53q0 37 -29 70.5t-104 33.5
q-66 0 -102.5 -29t-42.5 -80h-47zM400 220v87q-7 -14 -26.5 -26t-50.5 -18l-103 -19q-56 -10 -89.5 -36t-33.5 -72v-6q0 -51 36.5 -77.5t90.5 -26.5q75 0 125.5 53.5t50.5 140.5zM261 604q-65 0 -100 40.5t-35 97.5h41q0 -51 26 -78.5t70 -27.5q47 0 74 28.5t27 77.5h38
q0 -56 -36 -97t-102 -41h-3z" />
    <glyph glyph-name="Aogonek" unicode="&#x104;" horiz-adv-x="638" 
d="M574 0l-83 210h-348l-81 -210h-51l279 704h52l285 -704h-53zM314 651l-155 -400h316l-159 400h-2zM617 23v-23q-50 -29 -74.5 -56t-24.5 -55q0 -23 18 -39t55 -16h58v-38h-58q-55 0 -82.5 26t-27.5 60q0 40 35.5 75.5t100.5 65.5z" />
    <glyph glyph-name="aogonek" unicode="&#x105;" horiz-adv-x="538" 
d="M71 374q5 64 53.5 107t138.5 43q88 0 135.5 -43t47.5 -115v-278q0 -28 11 -37.5t32 -9.5h33v-41h-43q-43 0 -61 20t-17 63v16h-1q-19 -49 -67 -81t-114 -32q-71 0 -120 38.5t-49 107.5q0 65 45.5 102t115.5 50l94 17q44 8 67.5 25t23.5 53q0 37 -29 70.5t-104 33.5
q-66 0 -102.5 -29t-42.5 -80h-47zM400 220v87q-7 -14 -26.5 -26t-50.5 -18l-103 -19q-56 -10 -89.5 -36t-33.5 -72v-6q0 -51 36.5 -77.5t90.5 -26.5q75 0 125.5 53.5t50.5 140.5zM522 23v-23q-50 -29 -74.5 -56t-24.5 -55q0 -23 18 -39t55 -16h58v-38h-58q-55 0 -82.5 26
t-27.5 60q0 40 35.5 75.5t100.5 65.5z" />
    <glyph glyph-name="Cacute" unicode="&#x106;" horiz-adv-x="678" 
d="M368 28q90 0 144.5 46.5t70.5 116.5h51q-21 -91 -90.5 -148t-175.5 -57q-77 0 -135.5 30t-96.5 80t-57.5 116.5t-19.5 139.5t19.5 139.5t57.5 117t96.5 80.5t135.5 30q106 0 174 -54t90 -144h-52q-18 70 -71 113t-140 43q-54 0 -101.5 -20.5t-83 -59.5t-56 -96
t-20.5 -131v-35q0 -74 20.5 -131t56 -96t83 -59.5t100.5 -20.5zM435 936h57l-104 -138h-40z" />
    <glyph glyph-name="cacute" unicode="&#x107;" horiz-adv-x="548" 
d="M101 270v-30q0 -48 15 -87.5t40.5 -67.5t60.5 -43t74 -15q65 0 106 35.5t55 89.5h48q-18 -75 -71.5 -120.5t-137.5 -45.5q-54 0 -98 19.5t-74.5 55t-47.5 85t-17 109.5q0 121 66.5 195t170.5 74q84 0 138.5 -45t69.5 -116h-48q-13 50 -53 85t-107 35q-39 0 -74 -15
t-60.5 -42.5t-40.5 -67t-15 -88.5zM357 742h57l-104 -138h-40z" />
    <glyph glyph-name="Ccircumflex" unicode="&#x108;" horiz-adv-x="678" 
d="M368 28q90 0 144.5 46.5t70.5 116.5h51q-21 -91 -90.5 -148t-175.5 -57q-77 0 -135.5 30t-96.5 80t-57.5 116.5t-19.5 139.5t19.5 139.5t57.5 117t96.5 80.5t135.5 30q106 0 174 -54t90 -144h-52q-18 70 -71 113t-140 43q-54 0 -101.5 -20.5t-83 -59.5t-56 -96
t-20.5 -131v-35q0 -74 20.5 -131t56 -96t83 -59.5t100.5 -20.5zM516 798h-52l-93 112h-3l-93 -112h-47l119 138h51z" />
    <glyph glyph-name="ccircumflex" unicode="&#x109;" horiz-adv-x="548" 
d="M101 270v-30q0 -48 15 -87.5t40.5 -67.5t60.5 -43t74 -15q65 0 106 35.5t55 89.5h48q-18 -75 -71.5 -120.5t-137.5 -45.5q-54 0 -98 19.5t-74.5 55t-47.5 85t-17 109.5q0 121 66.5 195t170.5 74q84 0 138.5 -45t69.5 -116h-48q-13 50 -53 85t-107 35q-39 0 -74 -15
t-60.5 -42.5t-40.5 -67t-15 -88.5zM438 604h-52l-93 112h-3l-93 -112h-47l119 138h51z" />
    <glyph glyph-name="Cdotaccent" unicode="&#x10a;" horiz-adv-x="678" 
d="M368 28q90 0 144.5 46.5t70.5 116.5h51q-21 -91 -90.5 -148t-175.5 -57q-77 0 -135.5 30t-96.5 80t-57.5 116.5t-19.5 139.5t19.5 139.5t57.5 117t96.5 80.5t135.5 30q106 0 174 -54t90 -144h-52q-18 70 -71 113t-140 43q-54 0 -101.5 -20.5t-83 -59.5t-56 -96
t-20.5 -131v-35q0 -74 20.5 -131t56 -96t83 -59.5t100.5 -20.5zM370 837h-2q-16 0 -27 11t-11 27t11 27t27 11h2q16 0 27 -11t11 -27t-11 -27t-27 -11z" />
    <glyph glyph-name="cdotaccent" unicode="&#x10b;" horiz-adv-x="548" 
d="M101 270v-30q0 -48 15 -87.5t40.5 -67.5t60.5 -43t74 -15q65 0 106 35.5t55 89.5h48q-18 -75 -71.5 -120.5t-137.5 -45.5q-54 0 -98 19.5t-74.5 55t-47.5 85t-17 109.5q0 121 66.5 195t170.5 74q84 0 138.5 -45t69.5 -116h-48q-13 50 -53 85t-107 35q-39 0 -74 -15
t-60.5 -42.5t-40.5 -67t-15 -88.5zM292 643h-2q-16 0 -27 11t-11 27t11 27t27 11h2q16 0 27 -11t11 -27t-11 -27t-27 -11z" />
    <glyph glyph-name="Ccaron" unicode="&#x10c;" horiz-adv-x="678" 
d="M368 28q90 0 144.5 46.5t70.5 116.5h51q-21 -91 -90.5 -148t-175.5 -57q-77 0 -135.5 30t-96.5 80t-57.5 116.5t-19.5 139.5t19.5 139.5t57.5 117t96.5 80.5t135.5 30q106 0 174 -54t90 -144h-52q-18 70 -71 113t-140 43q-54 0 -101.5 -20.5t-83 -59.5t-56 -96
t-20.5 -131v-35q0 -74 20.5 -131t56 -96t83 -59.5t100.5 -20.5zM222 936h52l93 -112h3l93 112h47l-119 -138h-51z" />
    <glyph glyph-name="ccaron" unicode="&#x10d;" horiz-adv-x="548" 
d="M101 270v-30q0 -48 15 -87.5t40.5 -67.5t60.5 -43t74 -15q65 0 106 35.5t55 89.5h48q-18 -75 -71.5 -120.5t-137.5 -45.5q-54 0 -98 19.5t-74.5 55t-47.5 85t-17 109.5q0 121 66.5 195t170.5 74q84 0 138.5 -45t69.5 -116h-48q-13 50 -53 85t-107 35q-39 0 -74 -15
t-60.5 -42.5t-40.5 -67t-15 -88.5zM144 742h52l93 -112h3l93 112h47l-119 -138h-51z" />
    <glyph glyph-name="Dcaron" unicode="&#x10e;" horiz-adv-x="698" 
d="M331 704q79 0 137 -29t96 -77t56.5 -112t18.5 -134t-18.5 -134t-56.5 -112.5t-96 -77t-137 -28.5h-227v704h227zM332 662h-180v-620h180q53 0 100 19.5t82 56.5t55.5 92t20.5 125v34q0 70 -20.5 125t-55.5 92t-82 56.5t-100 19.5zM184 932h52l93 -112h3l93 112h47
l-119 -138h-51z" />
    <glyph glyph-name="dcaron" unicode="&#x10f;" horiz-adv-x="616" 
d="M519 0h-46v111h-1q-24 -58 -73.5 -91.5t-116.5 -33.5q-51 0 -93.5 19.5t-72 55t-46 85t-16.5 109.5t17 110t47 85t72 54.5t92 19.5q66 0 115.5 -33.5t74.5 -92.5h1v344h46v-742zM101 240q0 -50 15 -90t40 -67t59 -41.5t72 -14.5t72 15t59 43t40 67.5t15 87.5v30
q0 49 -15 88.5t-40 67t-59 42.5t-72 15t-72 -14.5t-59 -42t-40 -67t-15 -89.5v-30zM669 750h57l-104 -138h-40z" />
    <glyph glyph-name="Dcroat" unicode="&#x110;" horiz-adv-x="708" 
d="M30 347v42h84v315h227q79 0 137 -29t96 -77t56.5 -112t18.5 -134t-18.5 -134t-56.5 -112.5t-96 -77t-137 -28.5h-227v347h-84zM342 662h-180v-273h212v-42h-212v-305h180q53 0 100 19.5t82 56.5t55.5 92t20.5 125v34q0 70 -20.5 125t-55.5 92t-82 56.5t-100 19.5z" />
    <glyph glyph-name="dslash" unicode="&#x111;" horiz-adv-x="612" 
d="M519 0h-46v111h-1q-24 -58 -73.5 -91.5t-116.5 -33.5q-51 0 -93.5 19.5t-72 55t-46 85t-16.5 109.5t17 110t47 85t72 54.5t92 19.5q66 0 115.5 -33.5t74.5 -92.5h1v213h-135v39h135v92h46v-92h93v-39h-93v-611zM101 240q0 -50 15 -90t40 -67t59 -41.5t72 -14.5t72 15
t59 43t40 67.5t15 87.5v30q0 49 -15 88.5t-40 67t-59 42.5t-72 15t-72 -14.5t-59 -42t-40 -67t-15 -89.5v-30z" />
    <glyph glyph-name="Emacron" unicode="&#x112;" horiz-adv-x="612" 
d="M104 704h452v-42h-404v-274h375v-42h-375v-304h404v-42h-452v704zM215 880h255v-33h-255v33z" />
    <glyph glyph-name="emacron" unicode="&#x113;" horiz-adv-x="566" 
d="M289 -14q-54 0 -98 20t-74 55t-46.5 85t-16.5 109q0 60 17.5 110t48.5 85t73.5 54.5t92.5 19.5q104 0 165 -71.5t61 -187.5v-17h-411v-8q0 -96 54 -154.5t134 -58.5q36 0 65 10.5t49.5 26.5t33 37t16.5 42h50q-16 -67 -71.5 -112t-142.5 -45zM286 483q-35 0 -67 -13.5
t-57 -38.5t-41 -61t-19 -81h363q-3 91 -53 142.5t-126 51.5zM157 686h255v-33h-255v33z" />
    <glyph glyph-name="Ebreve" unicode="&#x114;" horiz-adv-x="612" 
d="M104 704h452v-42h-404v-274h375v-42h-375v-304h404v-42h-452v704zM341 798q-65 0 -100 40.5t-35 97.5h41q0 -51 26 -78.5t70 -27.5q47 0 74 28.5t27 77.5h38q0 -56 -36 -97t-102 -41h-3z" />
    <glyph glyph-name="ebreve" unicode="&#x115;" horiz-adv-x="566" 
d="M289 -14q-54 0 -98 20t-74 55t-46.5 85t-16.5 109q0 60 17.5 110t48.5 85t73.5 54.5t92.5 19.5q104 0 165 -71.5t61 -187.5v-17h-411v-8q0 -96 54 -154.5t134 -58.5q36 0 65 10.5t49.5 26.5t33 37t16.5 42h50q-16 -67 -71.5 -112t-142.5 -45zM286 483q-35 0 -67 -13.5
t-57 -38.5t-41 -61t-19 -81h363q-3 91 -53 142.5t-126 51.5zM283 604q-65 0 -100 40.5t-35 97.5h41q0 -51 26 -78.5t70 -27.5q47 0 74 28.5t27 77.5h38q0 -56 -36 -97t-102 -41h-3z" />
    <glyph glyph-name="Edotaccent" unicode="&#x116;" horiz-adv-x="612" 
d="M104 704h452v-42h-404v-274h375v-42h-375v-304h404v-42h-452v704zM344 837h-2q-16 0 -27 11t-11 27t11 27t27 11h2q16 0 27 -11t11 -27t-11 -27t-27 -11z" />
    <glyph glyph-name="edotaccent" unicode="&#x117;" horiz-adv-x="566" 
d="M289 -14q-54 0 -98 20t-74 55t-46.5 85t-16.5 109q0 60 17.5 110t48.5 85t73.5 54.5t92.5 19.5q104 0 165 -71.5t61 -187.5v-17h-411v-8q0 -96 54 -154.5t134 -58.5q36 0 65 10.5t49.5 26.5t33 37t16.5 42h50q-16 -67 -71.5 -112t-142.5 -45zM286 483q-35 0 -67 -13.5
t-57 -38.5t-41 -61t-19 -81h363q-3 91 -53 142.5t-126 51.5zM286 643h-2q-16 0 -27 11t-11 27t11 27t27 11h2q16 0 27 -11t11 -27t-11 -27t-27 -11z" />
    <glyph glyph-name="Eogonek" unicode="&#x118;" horiz-adv-x="612" 
d="M104 704h452v-42h-404v-274h375v-42h-375v-304h404v-42h-452v704zM556 23v-23q-50 -29 -74.5 -56t-24.5 -55q0 -23 18 -39t55 -16h58v-38h-58q-55 0 -82.5 26t-27.5 60q0 40 35.5 75.5t100.5 65.5z" />
    <glyph glyph-name="eogonek" unicode="&#x119;" horiz-adv-x="566" 
d="M289 -14q-54 0 -98 20t-74 55t-46.5 85t-16.5 109q0 60 17.5 110t48.5 85t73.5 54.5t92.5 19.5q104 0 165 -71.5t61 -187.5v-17h-411v-8q0 -96 54 -154.5t134 -58.5q36 0 65 10.5t49.5 26.5t33 37t16.5 42h50q-16 -67 -71.5 -112t-142.5 -45zM286 483q-35 0 -67 -13.5
t-57 -38.5t-41 -61t-19 -81h363q-3 91 -53 142.5t-126 51.5zM331 23v-23q-50 -29 -74.5 -56t-24.5 -55q0 -23 18 -39t55 -16h58v-38h-58q-55 0 -82.5 26t-27.5 60q0 40 35.5 75.5t100.5 65.5z" />
    <glyph glyph-name="Ecaron" unicode="&#x11a;" horiz-adv-x="612" 
d="M104 704h452v-42h-404v-274h375v-42h-375v-304h404v-42h-452v704zM196 936h52l93 -112h3l93 112h47l-119 -138h-51z" />
    <glyph glyph-name="ecaron" unicode="&#x11b;" horiz-adv-x="566" 
d="M289 -14q-54 0 -98 20t-74 55t-46.5 85t-16.5 109q0 60 17.5 110t48.5 85t73.5 54.5t92.5 19.5q104 0 165 -71.5t61 -187.5v-17h-411v-8q0 -96 54 -154.5t134 -58.5q36 0 65 10.5t49.5 26.5t33 37t16.5 42h50q-16 -67 -71.5 -112t-142.5 -45zM286 483q-35 0 -67 -13.5
t-57 -38.5t-41 -61t-19 -81h363q-3 91 -53 142.5t-126 51.5zM138 742h52l93 -112h3l93 112h47l-119 -138h-51z" />
    <glyph glyph-name="Gcircumflex" unicode="&#x11c;" horiz-adv-x="712" 
d="M602 0v164h-1q-18 -76 -80 -127t-156 -51q-78 0 -136 30t-95.5 80t-56 116.5t-18.5 139.5t19.5 139.5t58.5 117t97.5 80.5t136.5 30q107 0 176 -52.5t91 -140.5h-52q-17 68 -71.5 109.5t-142.5 41.5q-54 0 -102.5 -20.5t-84 -59.5t-56.5 -96t-21 -131v-35
q0 -74 20.5 -131t55.5 -96t82 -59.5t100 -20.5q62 0 106 22.5t72 60.5t41 89t13 107h-254v42h299v-349h-41zM519 798h-52l-93 112h-3l-93 -112h-47l119 138h51z" />
    <glyph glyph-name="gcircumflex" unicode="&#x11d;" horiz-adv-x="599" 
d="M73 -56h50q4 -18 15 -37t30 -35t47 -26.5t68 -10.5q96 0 139 53t43 141v99h-1q-25 -57 -72.5 -89.5t-113.5 -32.5q-49 0 -90 18.5t-70.5 52.5t-46.5 82t-17 106q0 57 16 105t45.5 82t71 53t91.5 19q68 0 115 -32t71 -89h1v107h46v-482q0 -115 -60.5 -174.5t-167.5 -59.5
q-90 0 -142.5 45t-67.5 105zM101 280v-30q0 -47 14.5 -85t39.5 -64t58 -40t70 -14t70 14t58 40.5t39.5 64t14.5 84.5v30q0 46 -14.5 83.5t-39.5 64t-58 41t-70 14.5t-70 -14t-58 -39.5t-39.5 -63.5t-14.5 -86zM425 604h-52l-93 112h-3l-93 -112h-47l119 138h51z" />
    <glyph glyph-name="Gbreve" unicode="&#x11e;" horiz-adv-x="712" 
d="M602 0v164h-1q-18 -76 -80 -127t-156 -51q-78 0 -136 30t-95.5 80t-56 116.5t-18.5 139.5t19.5 139.5t58.5 117t97.5 80.5t136.5 30q107 0 176 -52.5t91 -140.5h-52q-17 68 -71.5 109.5t-142.5 41.5q-54 0 -102.5 -20.5t-84 -59.5t-56.5 -96t-21 -131v-35
q0 -74 20.5 -131t55.5 -96t82 -59.5t100 -20.5q62 0 106 22.5t72 60.5t41 89t13 107h-254v42h299v-349h-41zM370 798q-65 0 -100 40.5t-35 97.5h41q0 -51 26 -78.5t70 -27.5q47 0 74 28.5t27 77.5h38q0 -56 -36 -97t-102 -41h-3z" />
    <glyph glyph-name="gbreve" unicode="&#x11f;" horiz-adv-x="599" 
d="M73 -56h50q4 -18 15 -37t30 -35t47 -26.5t68 -10.5q96 0 139 53t43 141v99h-1q-25 -57 -72.5 -89.5t-113.5 -32.5q-49 0 -90 18.5t-70.5 52.5t-46.5 82t-17 106q0 57 16 105t45.5 82t71 53t91.5 19q68 0 115 -32t71 -89h1v107h46v-482q0 -115 -60.5 -174.5t-167.5 -59.5
q-90 0 -142.5 45t-67.5 105zM101 280v-30q0 -47 14.5 -85t39.5 -64t58 -40t70 -14t70 14t58 40.5t39.5 64t14.5 84.5v30q0 46 -14.5 83.5t-39.5 64t-58 41t-70 14.5t-70 -14t-58 -39.5t-39.5 -63.5t-14.5 -86zM276 604q-65 0 -100 40.5t-35 97.5h41q0 -51 26 -78.5t70 -27.5
q47 0 74 28.5t27 77.5h38q0 -56 -36 -97t-102 -41h-3z" />
    <glyph glyph-name="Gdotaccent" unicode="&#x120;" horiz-adv-x="712" 
d="M602 0v164h-1q-18 -76 -80 -127t-156 -51q-78 0 -136 30t-95.5 80t-56 116.5t-18.5 139.5t19.5 139.5t58.5 117t97.5 80.5t136.5 30q107 0 176 -52.5t91 -140.5h-52q-17 68 -71.5 109.5t-142.5 41.5q-54 0 -102.5 -20.5t-84 -59.5t-56.5 -96t-21 -131v-35
q0 -74 20.5 -131t55.5 -96t82 -59.5t100 -20.5q62 0 106 22.5t72 60.5t41 89t13 107h-254v42h299v-349h-41zM373 837h-2q-16 0 -27 11t-11 27t11 27t27 11h2q16 0 27 -11t11 -27t-11 -27t-27 -11z" />
    <glyph glyph-name="gdotaccent" unicode="&#x121;" horiz-adv-x="599" 
d="M73 -56h50q4 -18 15 -37t30 -35t47 -26.5t68 -10.5q96 0 139 53t43 141v99h-1q-25 -57 -72.5 -89.5t-113.5 -32.5q-49 0 -90 18.5t-70.5 52.5t-46.5 82t-17 106q0 57 16 105t45.5 82t71 53t91.5 19q68 0 115 -32t71 -89h1v107h46v-482q0 -115 -60.5 -174.5t-167.5 -59.5
q-90 0 -142.5 45t-67.5 105zM101 280v-30q0 -47 14.5 -85t39.5 -64t58 -40t70 -14t70 14t58 40.5t39.5 64t14.5 84.5v30q0 46 -14.5 83.5t-39.5 64t-58 41t-70 14.5t-70 -14t-58 -39.5t-39.5 -63.5t-14.5 -86zM279 643h-2q-16 0 -27 11t-11 27t11 27t27 11h2q16 0 27 -11
t11 -27t-11 -27t-27 -11z" />
    <glyph glyph-name="uni0122" unicode="&#x122;" horiz-adv-x="712" 
d="M602 0v164h-1q-18 -76 -80 -127t-156 -51q-78 0 -136 30t-95.5 80t-56 116.5t-18.5 139.5t19.5 139.5t58.5 117t97.5 80.5t136.5 30q107 0 176 -52.5t91 -140.5h-52q-17 68 -71.5 109.5t-142.5 41.5q-54 0 -102.5 -20.5t-84 -59.5t-56.5 -96t-21 -131v-35
q0 -74 20.5 -131t55.5 -96t82 -59.5t100 -20.5q62 0 106 22.5t72 60.5t41 89t13 107h-254v42h299v-349h-41zM351 -62h57l-104 -138h-40z" />
    <glyph glyph-name="uni0123" unicode="&#x123;" horiz-adv-x="599" 
d="M73 -56h50q4 -18 15 -37t30 -35t47 -26.5t68 -10.5q96 0 139 53t43 141v99h-1q-25 -57 -72.5 -89.5t-113.5 -32.5q-49 0 -90 18.5t-70.5 52.5t-46.5 82t-17 106q0 57 16 105t45.5 82t71 53t91.5 19q68 0 115 -32t71 -89h1v107h46v-482q0 -115 -60.5 -174.5t-167.5 -59.5
q-90 0 -142.5 45t-67.5 105zM101 280v-30q0 -47 14.5 -85t39.5 -64t58 -40t70 -14t70 14t58 40.5t39.5 64t14.5 84.5v30q0 46 -14.5 83.5t-39.5 64t-58 41t-70 14.5t-70 -14t-58 -39.5t-39.5 -63.5t-14.5 -86z" />
    <glyph glyph-name="Hcircumflex" unicode="&#x124;" horiz-adv-x="726" 
d="M104 704h48v-315h422v315h48v-704h-48v347h-422v-347h-48v704zM510 798h-52l-93 112h-3l-93 -112h-47l119 138h51z" />
    <glyph glyph-name="hcircumflex" unicode="&#x125;" horiz-adv-x="584" 
d="M134 297v-297h-46v742h45v-327h1q23 55 70 82t106 27q38 0 73 -12.5t61.5 -38.5t42 -65t15.5 -91v-317h-46v317q0 84 -45 125t-108 41q-34 0 -64.5 -11.5t-53.5 -34.5t-37 -58t-14 -82zM455 798h-52l-93 112h-3l-93 -112h-47l119 138h51z" />
    <glyph glyph-name="Hbar" unicode="&#x126;" horiz-adv-x="726" 
d="M20 547v42h84v115h48v-115h422v115h48v-115h84v-42h-84v-547h-48v347h-422v-347h-48v547h-84zM152 389h422v158h-422v-158z" />
    <glyph glyph-name="hbar" unicode="&#x127;" horiz-adv-x="594" 
d="M134 297v-297h-46v611h-88v39h88v92h45v-92h141v-39h-141v-196h1q23 55 70 82t106 27q38 0 73 -12.5t61.5 -38.5t42 -65t15.5 -91v-317h-46v317q0 84 -45 125t-108 41q-34 0 -64.5 -11.5t-53.5 -34.5t-37 -58t-14 -82z" />
    <glyph glyph-name="Itilde" unicode="&#x128;" horiz-adv-x="256" 
d="M104 704h48v-704h-48v704zM200 799q-31 0 -49 16t-32 34.5t-28.5 34.5t-38.5 16q-25 0 -41 -22.5t-16 -73.5h-31v2q0 59 24 93.5t65 34.5h2q31 0 49 -16t32 -34.5t28.5 -34.5t39.5 -16t41 21.5t16 72.5h31v-2q0 -60 -24 -93t-66 -33h-2z" />
    <glyph glyph-name="itilde" unicode="&#x129;" horiz-adv-x="222" 
d="M88 510h46v-510h-46v510zM183 605q-31 0 -49 16t-32 34.5t-28.5 34.5t-38.5 16q-25 0 -41 -22.5t-16 -73.5h-31v2q0 59 24 93.5t65 34.5h2q31 0 49 -16t32 -34.5t28.5 -34.5t39.5 -16t41 21.5t16 72.5h31v-2q0 -60 -24 -93t-66 -33h-2z" />
    <glyph glyph-name="Imacron" unicode="&#x12a;" horiz-adv-x="256" 
d="M104 704h48v-704h-48v704zM0 880h255v-33h-255v33z" />
    <glyph glyph-name="imacron" unicode="&#x12b;" horiz-adv-x="222" 
d="M88 510h46v-510h-46v510zM-17 686h255v-33h-255v33z" />
    <glyph glyph-name="Ibreve" unicode="&#x12c;" horiz-adv-x="256" 
d="M104 704h48v-704h-48v704zM126 798q-65 0 -100 40.5t-35 97.5h41q0 -51 26 -78.5t70 -27.5q47 0 74 28.5t27 77.5h38q0 -56 -36 -97t-102 -41h-3z" />
    <glyph glyph-name="ibreve" unicode="&#x12d;" horiz-adv-x="222" 
d="M88 510h46v-510h-46v510zM109 604q-65 0 -100 40.5t-35 97.5h41q0 -51 26 -78.5t70 -27.5q47 0 74 28.5t27 77.5h38q0 -56 -36 -97t-102 -41h-3z" />
    <glyph glyph-name="Iogonek" unicode="&#x12e;" horiz-adv-x="256" 
d="M104 704h48v-704h-48v704zM146 23v-23q-50 -29 -74.5 -56t-24.5 -55q0 -23 18 -39t55 -16h58v-38h-58q-55 0 -82.5 26t-27.5 60q0 40 35.5 75.5t100.5 65.5z" />
    <glyph glyph-name="iogonek" unicode="&#x12f;" horiz-adv-x="222" 
d="M112 630h-2q-19 0 -31 12t-12 31t12 31t31 12h2q19 0 31 -12t12 -31t-12 -31t-31 -12zM88 510h46v-510h-46v510zM134 23v-23q-50 -29 -74.5 -56t-24.5 -55q0 -23 18 -39t55 -16h58v-38h-58q-55 0 -82.5 26t-27.5 60q0 40 35.5 75.5t100.5 65.5z" />
    <glyph glyph-name="Idotaccent" unicode="&#x130;" horiz-adv-x="256" 
d="M104 704h48v-704h-48v704zM129 837h-2q-16 0 -27 11t-11 27t11 27t27 11h2q16 0 27 -11t11 -27t-11 -27t-27 -11z" />
    <glyph glyph-name="dotlessi" unicode="&#x131;" horiz-adv-x="222" 
d="M88 510h46v-510h-46v510z" />
    <glyph glyph-name="IJ" unicode="&#x132;" horiz-adv-x="814" 
d="M104 704h48v-704h-48v704zM516 -15q-101 0 -155.5 64t-54.5 166v54h47v-53q0 -84 42.5 -136.5t120.5 -52.5q81 0 121.5 52.5t40.5 136.5v488h48v-489q0 -102 -55 -166t-155 -64z" />
    <glyph glyph-name="ij" unicode="&#x133;" horiz-adv-x="448" 
d="M112 630h-2q-19 0 -31 12t-12 31t12 31t31 12h2q19 0 31 -12t12 -31t-12 -31t-31 -12zM88 510h46v-510h-46v510zM336 630h-2q-19 0 -31 12t-12 31t12 31t31 12h2q19 0 31 -12t12 -31t-12 -31t-31 -12zM312 -86v596h46v-595q0 -54 -25 -80t-82 -26h-88v41h86q34 0 48.5 15
t14.5 49z" />
    <glyph glyph-name="Jcircumflex" unicode="&#x134;" horiz-adv-x="564" 
d="M260 -15q-101 0 -155.5 64t-54.5 166v54h47v-53q0 -84 42.5 -136.5t120.5 -52.5q81 0 121.5 52.5t40.5 136.5v488h48v-489q0 -102 -55 -166t-155 -64zM593 799h-52l-93 112h-3l-93 -112h-47l119 138h51z" />
    <glyph glyph-name="jcircumflex" unicode="&#x135;" horiz-adv-x="222" 
d="M88 -86v596h46v-595q0 -54 -25 -80t-82 -26h-88v41h86q34 0 48.5 15t14.5 49zM258 604h-52l-93 112h-3l-93 -112h-47l119 138h51z" />
    <glyph glyph-name="uni0136" unicode="&#x136;" horiz-adv-x="606" 
d="M152 704v-704h-48v704h48zM527 0l-375 354l366 350h63l-366 -345l382 -359h-70zM311 -62h57l-104 -138h-40z" />
    <glyph glyph-name="uni0137" unicode="&#x137;" horiz-adv-x="492" 
d="M134 742v-742h-46v742h46zM467 510l-269 -239l288 -271h-66l-286 269l271 241h62zM249 -62h57l-104 -138h-40z" />
    <glyph glyph-name="kgreenlandic" unicode="&#x138;" horiz-adv-x="478" 
d="M461 510l-263 -239l280 -271h-67l-276 269l264 241h62zM135 510v-510h-47v510h47z" />
    <glyph glyph-name="Lacute" unicode="&#x139;" horiz-adv-x="552" 
d="M104 704h48v-662h378v-42h-426v704zM195 936h57l-104 -138h-40z" />
    <glyph glyph-name="lacute" unicode="&#x13a;" horiz-adv-x="310" 
d="M84 106v636h46v-637q0 -34 14.5 -49t48.5 -15h97v-41h-99q-57 0 -82 26t-25 80zM173 936h57l-104 -138h-40z" />
    <glyph glyph-name="uni013B" unicode="&#x13b;" horiz-adv-x="552" 
d="M104 704h48v-662h378v-42h-426v704zM311 -62h57l-104 -138h-40z" />
    <glyph glyph-name="uni013C" unicode="&#x13c;" horiz-adv-x="310" 
d="M84 106v636h46v-637q0 -34 14.5 -49t48.5 -15h97v-41h-99q-57 0 -82 26t-25 80zM182 -62h57l-104 -138h-40z" />
    <glyph glyph-name="Lcaron" unicode="&#x13d;" horiz-adv-x="552" 
d="M104 704h48v-662h378v-42h-426v704zM419 712h57l-104 -138h-40z" />
    <glyph glyph-name="lcaron" unicode="&#x13e;" horiz-adv-x="340" 
d="M84 106v636h46v-637q0 -34 14.5 -49t48.5 -15h97v-41h-99q-57 0 -82 26t-25 80zM281 750h57l-104 -138h-40z" />
    <glyph glyph-name="Ldot" unicode="&#x13f;" horiz-adv-x="552" 
d="M104 704h48v-662h378v-42h-426v704zM379 372q-19 0 -31.5 12.5t-12.5 31.5t12.5 31.5t31.5 12.5t31.5 -12.5t12.5 -31.5t-12.5 -31.5t-31.5 -12.5z" />
    <glyph glyph-name="ldot" unicode="&#x140;" horiz-adv-x="341" 
d="M84 106v636h46v-637q0 -34 14.5 -49t48.5 -15h97v-41h-99q-57 0 -82 26t-25 80z" />
    <glyph glyph-name="Lslash" unicode="&#x141;" horiz-adv-x="582" 
d="M44 274v41l90 34v355h48v-336l216 82v-41l-216 -82v-285h378v-42h-426v308z" />
    <glyph glyph-name="lslash" unicode="&#x142;" horiz-adv-x="353" 
d="M117 106v292l-84 -37v39l84 37v305h46v-285l144 63v-39l-144 -63v-313q0 -34 14.5 -49t48.5 -15h97v-41h-99q-57 0 -82 26t-25 80z" />
    <glyph glyph-name="Nacute" unicode="&#x143;" horiz-adv-x="729" 
d="M104 0v704h67l405 -648h1v648h48v-704h-66l-406 652h-1v-652h-48zM445 936h57l-104 -138h-40z" />
    <glyph glyph-name="nacute" unicode="&#x144;" horiz-adv-x="584" 
d="M134 297v-297h-46v510h45v-95h1q24 55 71 82t105 27q38 0 73 -12.5t61.5 -38.5t42 -65t15.5 -91v-317h-46v317q0 84 -45 125t-108 41q-34 0 -64.5 -11.5t-53.5 -34.5t-37 -58t-14 -82zM372 742h57l-104 -138h-40z" />
    <glyph glyph-name="uni0145" unicode="&#x145;" horiz-adv-x="729" 
d="M104 0v704h67l405 -648h1v648h48v-704h-66l-406 652h-1v-652h-48zM351 -62h57l-104 -138h-40z" />
    <glyph glyph-name="Ncaron" unicode="&#x147;" horiz-adv-x="729" 
d="M104 0v704h67l405 -648h1v648h48v-704h-66l-406 652h-1v-652h-48zM232 936h52l93 -112h3l93 112h47l-119 -138h-51z" />
    <glyph glyph-name="ncaron" unicode="&#x148;" horiz-adv-x="584" 
d="M134 297v-297h-46v510h45v-95h1q24 55 71 82t105 27q38 0 73 -12.5t61.5 -38.5t42 -65t15.5 -91v-317h-46v317q0 84 -45 125t-108 41q-34 0 -64.5 -11.5t-53.5 -34.5t-37 -58t-14 -82zM159 742h52l93 -112h3l93 112h47l-119 -138h-51z" />
    <glyph glyph-name="napostrophe" unicode="&#x149;" horiz-adv-x="594" 
d="M134 297v-297h-46v510h45v-95h1q24 55 71 82t105 27q38 0 73 -12.5t61.5 -38.5t42 -65t15.5 -91v-317h-46v317q0 84 -45 125t-108 41q-34 0 -64.5 -11.5t-53.5 -34.5t-37 -58t-14 -82z" />
    <glyph glyph-name="Eng" unicode="&#x14a;" horiz-adv-x="729" 
d="M104 0v704h67l405 -648h1v648h48v-704h-66l-406 652h-1v-652h-48zM579 -86v596h46v-595q0 -54 -25 -80t-82 -26h-88v41h86q34 0 48.5 15t14.5 49z" />
    <glyph glyph-name="eng" unicode="&#x14b;" horiz-adv-x="594" 
d="M134 297v-297h-46v510h45v-95h1q24 55 71 82t105 27q38 0 73 -12.5t61.5 -38.5t42 -65t15.5 -91v-402q0 -54 -25 -80t-82 -26h-88v41h86q34 0 48.5 15t14.5 49v403q0 84 -45 125t-108 41q-34 0 -64.5 -11.5t-53.5 -34.5t-37 -58t-14 -82z" />
    <glyph glyph-name="Omacron" unicode="&#x14c;" horiz-adv-x="734" 
d="M367 -14q-79 0 -137 30t-96 80t-56.5 116.5t-18.5 139.5t18.5 139.5t56.5 117t96 80.5t137 30t137 -30t96 -80.5t56.5 -117t18.5 -139.5t-18.5 -139.5t-56.5 -116.5t-96 -80t-137 -30zM367 28q53 0 100.5 20.5t82.5 59.5t55.5 96t20.5 131v35q0 74 -20.5 131t-55.5 96
t-82.5 59.5t-100.5 20.5t-100.5 -20.5t-82.5 -59.5t-55.5 -96t-20.5 -131v-35q0 -74 20.5 -131t55.5 -96t82.5 -59.5t100.5 -20.5zM239 880h255v-33h-255v33z" />
    <glyph glyph-name="omacron" unicode="&#x14d;" horiz-adv-x="582" 
d="M291 -14q-53 0 -97 20t-75 55t-48 85t-17 109q0 60 17.5 110t49 85t75.5 54.5t95 19.5t95 -19.5t75.5 -54.5t49 -85t17.5 -110q0 -59 -17 -109t-48 -85t-75 -55t-97 -20zM481 240v30q0 49 -15.5 89t-41 67t-60.5 42t-73 15t-73 -15t-60.5 -42.5t-41 -67t-15.5 -88.5v-30
q0 -48 15.5 -87.5t41 -67t60.5 -43t73 -15.5t73 14.5t60.5 42t41 67t15.5 89.5zM163 686h255v-33h-255v33z" />
    <glyph glyph-name="Obreve" unicode="&#x14e;" horiz-adv-x="734" 
d="M367 -14q-79 0 -137 30t-96 80t-56.5 116.5t-18.5 139.5t18.5 139.5t56.5 117t96 80.5t137 30t137 -30t96 -80.5t56.5 -117t18.5 -139.5t-18.5 -139.5t-56.5 -116.5t-96 -80t-137 -30zM367 28q53 0 100.5 20.5t82.5 59.5t55.5 96t20.5 131v35q0 74 -20.5 131t-55.5 96
t-82.5 59.5t-100.5 20.5t-100.5 -20.5t-82.5 -59.5t-55.5 -96t-20.5 -131v-35q0 -74 20.5 -131t55.5 -96t82.5 -59.5t100.5 -20.5zM365 798q-65 0 -100 40.5t-35 97.5h41q0 -51 26 -78.5t70 -27.5q47 0 74 28.5t27 77.5h38q0 -56 -36 -97t-102 -41h-3z" />
    <glyph glyph-name="obreve" unicode="&#x14f;" horiz-adv-x="582" 
d="M291 -14q-53 0 -97 20t-75 55t-48 85t-17 109q0 60 17.5 110t49 85t75.5 54.5t95 19.5t95 -19.5t75.5 -54.5t49 -85t17.5 -110q0 -59 -17 -109t-48 -85t-75 -55t-97 -20zM481 240v30q0 49 -15.5 89t-41 67t-60.5 42t-73 15t-73 -15t-60.5 -42.5t-41 -67t-15.5 -88.5v-30
q0 -48 15.5 -87.5t41 -67t60.5 -43t73 -15.5t73 14.5t60.5 42t41 67t15.5 89.5zM289 604q-65 0 -100 40.5t-35 97.5h41q0 -51 26 -78.5t70 -27.5q47 0 74 28.5t27 77.5h38q0 -56 -36 -97t-102 -41h-3z" />
    <glyph glyph-name="Ohungarumlaut" unicode="&#x150;" horiz-adv-x="734" 
d="M367 -14q-79 0 -137 30t-96 80t-56.5 116.5t-18.5 139.5t18.5 139.5t56.5 117t96 80.5t137 30t137 -30t96 -80.5t56.5 -117t18.5 -139.5t-18.5 -139.5t-56.5 -116.5t-96 -80t-137 -30zM367 28q53 0 100.5 20.5t82.5 59.5t55.5 96t20.5 131v35q0 74 -20.5 131t-55.5 96
t-82.5 59.5t-100.5 20.5t-100.5 -20.5t-82.5 -59.5t-55.5 -96t-20.5 -131v-35q0 -74 20.5 -131t55.5 -96t82.5 -59.5t100.5 -20.5zM363 936h55l-105 -138h-38zM511 936h55l-105 -138h-38z" />
    <glyph glyph-name="ohungarumlaut" unicode="&#x151;" horiz-adv-x="582" 
d="M291 -14q-53 0 -97 20t-75 55t-48 85t-17 109q0 60 17.5 110t49 85t75.5 54.5t95 19.5t95 -19.5t75.5 -54.5t49 -85t17.5 -110q0 -59 -17 -109t-48 -85t-75 -55t-97 -20zM481 240v30q0 49 -15.5 89t-41 67t-60.5 42t-73 15t-73 -15t-60.5 -42.5t-41 -67t-15.5 -88.5v-30
q0 -48 15.5 -87.5t41 -67t60.5 -43t73 -15.5t73 14.5t60.5 42t41 67t15.5 89.5zM287 742h55l-105 -138h-38zM435 742h55l-105 -138h-38z" />
    <glyph glyph-name="OE" unicode="&#x152;" horiz-adv-x="1058" 
d="M546 704h452v-42h-404v-274h375v-42h-375v-304h404v-42h-452v704z" />
    <glyph glyph-name="oe" unicode="&#x153;" horiz-adv-x="1005" 
d="M510 353h2q23 78 80 124.5t132 46.5q107 0 169 -71.5t62 -187.5v-19h-421v-6q0 -96 55 -154.5t138 -58.5q38 0 67.5 11t50.5 28t34 38.5t17 42.5h50q-16 -68 -72.5 -114.5t-146.5 -46.5q-82 0 -138 45.5t-78 122.5h-2q-22 -77 -78.5 -122.5t-136.5 -45.5q-54 0 -98.5 20
t-76 55t-48.5 85t-17 109q0 60 18 110t49.5 85t75.5 54.5t97 19.5q78 0 135.5 -46.5t80.5 -124.5zM487 240v30q0 49 -15.5 89t-41.5 67t-61 42t-75 15t-75 -15t-61 -42.5t-41.5 -67t-15.5 -88.5v-30q0 -48 15.5 -87.5t41.5 -67t61 -43t75 -15.5t75 14.5t61 42t41.5 67
t15.5 89.5zM724 483q-37 0 -70 -14t-58.5 -39t-41.5 -61.5t-19 -81.5h373q-2 91 -53 143.5t-131 52.5z" />
    <glyph glyph-name="Racute" unicode="&#x154;" horiz-adv-x="650" 
d="M104 0v704h276q103 0 160.5 -51t57.5 -141t-57.5 -141t-160.5 -51h-157l391 -320h-76l-386 321v-321h-48zM549 505v14q0 63 -42 103t-128 40h-227v-300h227q86 0 128 40t42 103zM385 936h57l-104 -138h-40z" />
    <glyph glyph-name="racute" unicode="&#x155;" horiz-adv-x="376" 
d="M88 0v510h45v-83h1q13 37 46.5 62t94.5 25h77v-44h-86q-40 0 -66 -13.5t-40.5 -36t-20 -52t-5.5 -60.5v-308h-46zM274 742h57l-104 -138h-40z" />
    <glyph glyph-name="uni0156" unicode="&#x156;" horiz-adv-x="650" 
d="M104 0v704h276q103 0 160.5 -51t57.5 -141t-57.5 -141t-160.5 -51h-157l391 -320h-76l-386 321v-321h-48zM549 505v14q0 63 -42 103t-128 40h-227v-300h227q86 0 128 40t42 103zM331 -62h57l-104 -138h-40z" />
    <glyph glyph-name="uni0157" unicode="&#x157;" horiz-adv-x="376" 
d="M88 0v510h45v-83h1q13 37 46.5 62t94.5 25h77v-44h-86q-40 0 -66 -13.5t-40.5 -36t-20 -52t-5.5 -60.5v-308h-46zM93 -62h57l-104 -138h-40z" />
    <glyph glyph-name="Rcaron" unicode="&#x158;" horiz-adv-x="650" 
d="M104 0v704h276q103 0 160.5 -51t57.5 -141t-57.5 -141t-160.5 -51h-157l391 -320h-76l-386 321v-321h-48zM549 505v14q0 63 -42 103t-128 40h-227v-300h227q86 0 128 40t42 103zM172 936h52l93 -112h3l93 112h47l-119 -138h-51z" />
    <glyph glyph-name="rcaron" unicode="&#x159;" horiz-adv-x="376" 
d="M88 0v510h45v-83h1q13 37 46.5 62t94.5 25h77v-44h-86q-40 0 -66 -13.5t-40.5 -36t-20 -52t-5.5 -60.5v-308h-46zM61 742h52l93 -112h3l93 112h47l-119 -138h-51z" />
    <glyph glyph-name="Sacute" unicode="&#x15a;" horiz-adv-x="621" 
d="M312 -14q-63 0 -112 15.5t-82 43t-51 64.5t-21 80h48q6 -75 64 -118t154 -43q93 0 151 43.5t58 116.5q0 60 -41 93.5t-114 45.5l-110 18q-82 13 -136 55t-54 126q0 40 16 75t47 61t77.5 41.5t106.5 15.5q61 0 106 -15.5t75 -41.5t45.5 -60t18.5 -70h-49q-6 63 -56 104
t-141 41q-94 0 -146 -43t-52 -108q0 -61 42.5 -93t108.5 -43l110 -18q90 -15 142 -59t52 -125q0 -90 -70.5 -146t-186.5 -56zM379 936h57l-104 -138h-40z" />
    <glyph glyph-name="sacute" unicode="&#x15b;" horiz-adv-x="496" 
d="M44 144h47q3 -60 48.5 -89.5t113.5 -29.5q67 0 108.5 29.5t41.5 79.5q0 43 -30 66.5t-84 31.5l-82 12q-72 10 -108.5 45t-36.5 91q0 63 51 104t135 41q47 0 82 -12.5t58 -32.5t35.5 -47t13.5 -55h-47q-4 47 -40.5 77t-101.5 30q-63 0 -101.5 -28.5t-38.5 -73.5
q0 -40 26.5 -63t83.5 -31l82 -12q82 -12 115.5 -50.5t33.5 -89.5q0 -70 -54 -111t-143 -41q-98 0 -151.5 44.5t-56.5 114.5zM314 742h57l-104 -138h-40z" />
    <glyph glyph-name="Scircumflex" unicode="&#x15c;" horiz-adv-x="621" 
d="M312 -14q-63 0 -112 15.5t-82 43t-51 64.5t-21 80h48q6 -75 64 -118t154 -43q93 0 151 43.5t58 116.5q0 60 -41 93.5t-114 45.5l-110 18q-82 13 -136 55t-54 126q0 40 16 75t47 61t77.5 41.5t106.5 15.5q61 0 106 -15.5t75 -41.5t45.5 -60t18.5 -70h-49q-6 63 -56 104
t-141 41q-94 0 -146 -43t-52 -108q0 -61 42.5 -93t108.5 -43l110 -18q90 -15 142 -59t52 -125q0 -90 -70.5 -146t-186.5 -56zM460 798h-52l-93 112h-3l-93 -112h-47l119 138h51z" />
    <glyph glyph-name="scircumflex" unicode="&#x15d;" horiz-adv-x="496" 
d="M44 144h47q3 -60 48.5 -89.5t113.5 -29.5q67 0 108.5 29.5t41.5 79.5q0 43 -30 66.5t-84 31.5l-82 12q-72 10 -108.5 45t-36.5 91q0 63 51 104t135 41q47 0 82 -12.5t58 -32.5t35.5 -47t13.5 -55h-47q-4 47 -40.5 77t-101.5 30q-63 0 -101.5 -28.5t-38.5 -73.5
q0 -40 26.5 -63t83.5 -31l82 -12q82 -12 115.5 -50.5t33.5 -89.5q0 -70 -54 -111t-143 -41q-98 0 -151.5 44.5t-56.5 114.5zM395 604h-52l-93 112h-3l-93 -112h-47l119 138h51z" />
    <glyph glyph-name="Scedilla" unicode="&#x15e;" horiz-adv-x="621" 
d="M312 -14q-63 0 -112 15.5t-82 43t-51 64.5t-21 80h48q6 -75 64 -118t154 -43q93 0 151 43.5t58 116.5q0 60 -41 93.5t-114 45.5l-110 18q-82 13 -136 55t-54 126q0 40 16 75t47 61t77.5 41.5t106.5 15.5q61 0 106 -15.5t75 -41.5t45.5 -60t18.5 -70h-49q-6 63 -56 104
t-141 41q-94 0 -146 -43t-52 -108q0 -61 42.5 -93t108.5 -43l110 -18q90 -15 142 -59t52 -125q0 -90 -70.5 -146t-186.5 -56zM231 -213v33h61q28 0 53 11t25 37q0 25 -20.5 37t-57.5 12h-25v23l32 74h32l-27 -68q40 0 72 -17.5t32 -57.5q0 -43 -35.5 -63.5t-77.5 -20.5h-64z
" />
    <glyph glyph-name="scedilla" unicode="&#x15f;" horiz-adv-x="496" 
d="M44 144h47q3 -60 48.5 -89.5t113.5 -29.5q67 0 108.5 29.5t41.5 79.5q0 43 -30 66.5t-84 31.5l-82 12q-72 10 -108.5 45t-36.5 91q0 63 51 104t135 41q47 0 82 -12.5t58 -32.5t35.5 -47t13.5 -55h-47q-4 47 -40.5 77t-101.5 30q-63 0 -101.5 -28.5t-38.5 -73.5
q0 -40 26.5 -63t83.5 -31l82 -12q82 -12 115.5 -50.5t33.5 -89.5q0 -70 -54 -111t-143 -41q-98 0 -151.5 44.5t-56.5 114.5zM170 -213v33h61q28 0 53 11t25 37q0 25 -20.5 37t-57.5 12h-25v23l32 74h32l-27 -68q40 0 72 -17.5t32 -57.5q0 -43 -35.5 -63.5t-77.5 -20.5h-64z
" />
    <glyph glyph-name="Scaron" unicode="&#x160;" horiz-adv-x="621" 
d="M312 -14q-63 0 -112 15.5t-82 43t-51 64.5t-21 80h48q6 -75 64 -118t154 -43q93 0 151 43.5t58 116.5q0 60 -41 93.5t-114 45.5l-110 18q-82 13 -136 55t-54 126q0 40 16 75t47 61t77.5 41.5t106.5 15.5q61 0 106 -15.5t75 -41.5t45.5 -60t18.5 -70h-49q-6 63 -56 104
t-141 41q-94 0 -146 -43t-52 -108q0 -61 42.5 -93t108.5 -43l110 -18q90 -15 142 -59t52 -125q0 -90 -70.5 -146t-186.5 -56zM166 936h52l93 -112h3l93 112h47l-119 -138h-51z" />
    <glyph glyph-name="scaron" unicode="&#x161;" horiz-adv-x="496" 
d="M44 144h47q3 -60 48.5 -89.5t113.5 -29.5q67 0 108.5 29.5t41.5 79.5q0 43 -30 66.5t-84 31.5l-82 12q-72 10 -108.5 45t-36.5 91q0 63 51 104t135 41q47 0 82 -12.5t58 -32.5t35.5 -47t13.5 -55h-47q-4 47 -40.5 77t-101.5 30q-63 0 -101.5 -28.5t-38.5 -73.5
q0 -40 26.5 -63t83.5 -31l82 -12q82 -12 115.5 -50.5t33.5 -89.5q0 -70 -54 -111t-143 -41q-98 0 -151.5 44.5t-56.5 114.5zM101 742h52l93 -112h3l93 112h47l-119 -138h-51z" />
    <glyph glyph-name="Tcedilla" unicode="&#x162;" horiz-adv-x="578" 
d="M265 662h-249v42h546v-42h-249v-662h-48v662zM206 -213v33h61q28 0 53 11t25 37q0 25 -20.5 37t-57.5 12h-25v23l32 74h32l-27 -68q40 0 72 -17.5t32 -57.5q0 -43 -35.5 -63.5t-77.5 -20.5h-64z" />
    <glyph glyph-name="tcedilla" unicode="&#x163;" horiz-adv-x="402" 
d="M19 510h124v162h46v-162h178v-41h-178v-364q0 -34 14.5 -49t48.5 -15h116v-41h-118q-57 0 -82 26t-25 80v363h-124v41zM147 -213v33h61q28 0 53 11t25 37q0 25 -20.5 37t-57.5 12h-25v23l32 74h32l-27 -68q40 0 72 -17.5t32 -57.5q0 -43 -35.5 -63.5t-77.5 -20.5h-64z
" />
    <glyph glyph-name="Tcaron" unicode="&#x164;" horiz-adv-x="578" 
d="M265 662h-249v42h546v-42h-249v-662h-48v662zM142 936h52l93 -112h3l93 112h47l-119 -138h-51z" />
    <glyph glyph-name="tcaron" unicode="&#x165;" horiz-adv-x="402" 
d="M19 510h124v162h46v-162h178v-41h-178v-364q0 -34 14.5 -49t48.5 -15h116v-41h-118q-57 0 -82 26t-25 80v363h-124v41zM365 750h57l-104 -138h-40z" />
    <glyph glyph-name="Tbar" unicode="&#x166;" horiz-adv-x="578" 
d="M65 347v42h200v273h-249v42h546v-42h-249v-273h200v-42h-200v-347h-48v347h-200z" />
    <glyph glyph-name="tbar" unicode="&#x167;" horiz-adv-x="406" 
d="M19 251v39h124v179h-124v41h124v162h46v-162h178v-41h-178v-179h182v-39h-182v-146q0 -34 14.5 -49t48.5 -15h116v-41h-118q-57 0 -82 26t-25 80v145h-124z" />
    <glyph glyph-name="Utilde" unicode="&#x168;" horiz-adv-x="699" 
d="M349 -15q-62 0 -110 18.5t-80 51.5t-49 79.5t-17 102.5v467h48v-466q0 -93 53.5 -152t154.5 -59q102 0 155.5 59t53.5 152v466h47v-467q0 -56 -17 -102.5t-49 -79.5t-80 -51.5t-110 -18.5zM423 800q-31 0 -49 16t-32 34.5t-28.5 34.5t-38.5 16q-25 0 -41 -22.5t-16 -73.5
h-31v2q0 59 24 93.5t65 34.5h2q31 0 49 -16t32 -34.5t28.5 -34.5t39.5 -16t41 21.5t16 72.5h31v-2q0 -60 -24 -93t-66 -33h-2z" />
    <glyph glyph-name="utilde" unicode="&#x169;" horiz-adv-x="584" 
d="M450 213v297h46v-510h-45v95h-1q-24 -55 -71 -82t-105 -27q-38 0 -73 12.5t-61.5 38.5t-42 65t-15.5 91v317h46v-317q0 -84 45 -125t108 -41q34 0 64.5 11.5t53.5 34.5t37 58t14 82zM356 605q-31 0 -49 16t-32 34.5t-28.5 34.5t-38.5 16q-25 0 -41 -22.5t-16 -73.5h-31v2
q0 59 24 93.5t65 34.5h2q31 0 49 -16t32 -34.5t28.5 -34.5t39.5 -16t41 21.5t16 72.5h31v-2q0 -60 -24 -93t-66 -33h-2z" />
    <glyph glyph-name="Umacron" unicode="&#x16a;" horiz-adv-x="699" 
d="M349 -15q-62 0 -110 18.5t-80 51.5t-49 79.5t-17 102.5v467h48v-466q0 -93 53.5 -152t154.5 -59q102 0 155.5 59t53.5 152v466h47v-467q0 -56 -17 -102.5t-49 -79.5t-80 -51.5t-110 -18.5zM223 881h255v-33h-255v33z" />
    <glyph glyph-name="umacron" unicode="&#x16b;" horiz-adv-x="584" 
d="M450 213v297h46v-510h-45v95h-1q-24 -55 -71 -82t-105 -27q-38 0 -73 12.5t-61.5 38.5t-42 65t-15.5 91v317h46v-317q0 -84 45 -125t108 -41q34 0 64.5 11.5t53.5 34.5t37 58t14 82zM156 686h255v-33h-255v33z" />
    <glyph glyph-name="Ubreve" unicode="&#x16c;" horiz-adv-x="699" 
d="M349 -15q-62 0 -110 18.5t-80 51.5t-49 79.5t-17 102.5v467h48v-466q0 -93 53.5 -152t154.5 -59q102 0 155.5 59t53.5 152v466h47v-467q0 -56 -17 -102.5t-49 -79.5t-80 -51.5t-110 -18.5zM349 799q-65 0 -100 40.5t-35 97.5h41q0 -51 26 -78.5t70 -27.5q47 0 74 28.5
t27 77.5h38q0 -56 -36 -97t-102 -41h-3z" />
    <glyph glyph-name="ubreve" unicode="&#x16d;" horiz-adv-x="584" 
d="M450 213v297h46v-510h-45v95h-1q-24 -55 -71 -82t-105 -27q-38 0 -73 12.5t-61.5 38.5t-42 65t-15.5 91v317h46v-317q0 -84 45 -125t108 -41q34 0 64.5 11.5t53.5 34.5t37 58t14 82zM282 604q-65 0 -100 40.5t-35 97.5h41q0 -51 26 -78.5t70 -27.5q47 0 74 28.5t27 77.5
h38q0 -56 -36 -97t-102 -41h-3z" />
    <glyph glyph-name="Uring" unicode="&#x16e;" horiz-adv-x="699" 
d="M349 -15q-62 0 -110 18.5t-80 51.5t-49 79.5t-17 102.5v467h48v-466q0 -93 53.5 -152t154.5 -59q102 0 155.5 59t53.5 152v466h47v-467q0 -56 -17 -102.5t-49 -79.5t-80 -51.5t-110 -18.5zM351 771q-41 0 -71.5 25.5t-30.5 69.5t30.5 69.5t71.5 25.5q42 0 72 -25.5
t30 -69.5t-30 -69.5t-72 -25.5zM351 801q28 0 49 17t21 48t-21 48t-49 17t-48.5 -17t-20.5 -48t20.5 -48t48.5 -17z" />
    <glyph glyph-name="uring" unicode="&#x16f;" horiz-adv-x="584" 
d="M450 213v297h46v-510h-45v95h-1q-24 -55 -71 -82t-105 -27q-38 0 -73 12.5t-61.5 38.5t-42 65t-15.5 91v317h46v-317q0 -84 45 -125t108 -41q34 0 64.5 11.5t53.5 34.5t37 58t14 82zM284 576q-41 0 -71.5 25.5t-30.5 69.5t30.5 69.5t71.5 25.5q42 0 72 -25.5t30 -69.5
t-30 -69.5t-72 -25.5zM284 606q28 0 49 17t21 48t-21 48t-49 17t-48.5 -17t-20.5 -48t20.5 -48t48.5 -17z" />
    <glyph glyph-name="Uhungarumlaut" unicode="&#x170;" horiz-adv-x="699" 
d="M349 -15q-62 0 -110 18.5t-80 51.5t-49 79.5t-17 102.5v467h48v-466q0 -93 53.5 -152t154.5 -59q102 0 155.5 59t53.5 152v466h47v-467q0 -56 -17 -102.5t-49 -79.5t-80 -51.5t-110 -18.5zM347 937h55l-105 -138h-38zM495 937h55l-105 -138h-38z" />
    <glyph glyph-name="uhungarumlaut" unicode="&#x171;" horiz-adv-x="584" 
d="M450 213v297h46v-510h-45v95h-1q-24 -55 -71 -82t-105 -27q-38 0 -73 12.5t-61.5 38.5t-42 65t-15.5 91v317h46v-317q0 -84 45 -125t108 -41q34 0 64.5 11.5t53.5 34.5t37 58t14 82zM280 742h55l-105 -138h-38zM428 742h55l-105 -138h-38z" />
    <glyph glyph-name="Uogonek" unicode="&#x172;" horiz-adv-x="699" 
d="M349 -15q-62 0 -110 18.5t-80 51.5t-49 79.5t-17 102.5v467h48v-466q0 -93 53.5 -152t154.5 -59q102 0 155.5 59t53.5 152v466h47v-467q0 -56 -17 -102.5t-49 -79.5t-80 -51.5t-110 -18.5zM395 23v-23q-50 -29 -74.5 -56t-24.5 -55q0 -23 18 -39t55 -16h58v-38h-58
q-55 0 -82.5 26t-27.5 60q0 40 35.5 75.5t100.5 65.5z" />
    <glyph glyph-name="uogonek" unicode="&#x173;" horiz-adv-x="584" 
d="M450 213v297h46v-510h-45v95h-1q-24 -55 -71 -82t-105 -27q-38 0 -73 12.5t-61.5 38.5t-42 65t-15.5 91v317h46v-317q0 -84 45 -125t108 -41q34 0 64.5 11.5t53.5 34.5t37 58t14 82zM479 23v-23q-50 -29 -74.5 -56t-24.5 -55q0 -23 18 -39t55 -16h58v-38h-58
q-55 0 -82.5 26t-27.5 60q0 40 35.5 75.5t100.5 65.5z" />
    <glyph glyph-name="Wcircumflex" unicode="&#x174;" horiz-adv-x="924" 
d="M24 704h50l183 -644h2l175 644h60l180 -644h2l177 644h47l-195 -704h-59l-182 649h-2l-176 -649h-59zM610 798h-52l-93 112h-3l-93 -112h-47l119 138h51z" />
    <glyph glyph-name="wcircumflex" unicode="&#x175;" horiz-adv-x="793" 
d="M24 510h49l150 -457h1l145 457h55l151 -456h1l145 456h48l-169 -510h-53l-150 453h-1l-147 -453h-53zM544 604h-52l-93 112h-3l-93 -112h-47l119 138h51z" />
    <glyph glyph-name="Ycircumflex" unicode="&#x176;" horiz-adv-x="590" 
d="M272 0v290l-254 414h55l222 -365h2l221 365h54l-253 -414v-290h-47zM443 798h-52l-93 112h-3l-93 -112h-47l119 138h51z" />
    <glyph glyph-name="ycircumflex" unicode="&#x177;" horiz-adv-x="504" 
d="M243 -78q-12 -29 -23.5 -50.5t-28.5 -35.5t-42 -21t-63 -7h-63v41h63q26 0 43 3.5t29 13t21 27t21 44.5l31 74l-209 499h51l182 -441h1l177 441h49zM404 604h-52l-93 112h-3l-93 -112h-47l119 138h51z" />
    <glyph glyph-name="Ydieresis" unicode="&#x178;" horiz-adv-x="590" 
d="M272 0v290l-254 414h55l222 -365h2l221 365h54l-253 -414v-290h-47zM215 837h-2q-16 0 -27 11t-11 27t11 27t27 11h2q16 0 27 -11t11 -27t-11 -27t-27 -11zM381 837h-2q-16 0 -27 11t-11 27t11 27t27 11h2q16 0 27 -11t11 -27t-11 -27t-27 -11z" />
    <glyph glyph-name="Zacute" unicode="&#x179;" horiz-adv-x="565" 
d="M88 42h443v-42h-497v42l434 620h-424v42h478v-42zM356 936h57l-104 -138h-40z" />
    <glyph glyph-name="zacute" unicode="&#x17a;" horiz-adv-x="456" 
d="M38 0v41l314 428h-305v41h358v-41l-314 -428h335v-41h-388zM294 742h57l-104 -138h-40z" />
    <glyph glyph-name="Zdotaccent" unicode="&#x17b;" horiz-adv-x="565" 
d="M88 42h443v-42h-497v42l434 620h-424v42h478v-42zM291 837h-2q-16 0 -27 11t-11 27t11 27t27 11h2q16 0 27 -11t11 -27t-11 -27t-27 -11z" />
    <glyph glyph-name="zdotaccent" unicode="&#x17c;" horiz-adv-x="456" 
d="M38 0v41l314 428h-305v41h358v-41l-314 -428h335v-41h-388zM229 643h-2q-16 0 -27 11t-11 27t11 27t27 11h2q16 0 27 -11t11 -27t-11 -27t-27 -11z" />
    <glyph glyph-name="Zcaron" unicode="&#x17d;" horiz-adv-x="565" 
d="M88 42h443v-42h-497v42l434 620h-424v42h478v-42zM143 936h52l93 -112h3l93 112h47l-119 -138h-51z" />
    <glyph glyph-name="zcaron" unicode="&#x17e;" horiz-adv-x="456" 
d="M38 0v41l314 428h-305v41h358v-41l-314 -428h335v-41h-388zM81 742h52l93 -112h3l93 112h47l-119 -138h-51z" />
    <glyph glyph-name="uni018F" unicode="&#x18f;" horiz-adv-x="735" 
d="M362 -14q-72 0 -130 26.5t-98 73.5t-62 112t-22 141v24h579q-1 63 -18.5 120.5t-51 100t-83 68t-115.5 25.5q-47 0 -85.5 -12.5t-68 -33.5t-50 -48.5t-31.5 -56.5h-53q13 38 38 73t60.5 61.5t83 42.5t106.5 16q74 0 133 -27t99.5 -75.5t62 -116t21.5 -147.5
q0 -78 -21 -145t-61.5 -116.5t-99 -77.5t-133.5 -28zM362 27q63 0 112 24.5t82 65.5t51 94t21 110h-529q2 -59 20 -112.5t51.5 -93.5t81.5 -64t110 -24z" />
    <glyph glyph-name="florin" unicode="&#x192;" horiz-adv-x="554" 
d="M481 449h-184l-85 -483q-10 -54 -39 -80t-86 -26h-87v41h92q34 0 51 15t23 49l85 484h-114v41h122l19 108q10 54 39 80t86 26h117v-41h-122q-34 0 -51 -15t-23 -49l-19 -109h176v-41z" />
    <glyph glyph-name="Nhookleft" unicode="&#x19d;" horiz-adv-x="729" 
d="M104 0v704h67l405 -648h1v648h48v-704h-66l-406 652h-1v-652h-48zM103 -86v596h46v-595q0 -54 -25 -80t-82 -26h-88v41h86q34 0 48.5 15t14.5 49z" />
    <glyph glyph-name="uni01B5" unicode="&#x1b5;" horiz-adv-x="565" 
d="M88 42h443v-42h-497v42l207 295h-176v42h205l198 283h-424v42h478v-42l-198 -283h189v-42h-218z" />
    <glyph glyph-name="uni01B6" unicode="&#x1b6;" horiz-adv-x="482" 
d="M38 0v41l145 198h-111v41h141l139 189h-305v41h358v-41l-139 -189h161v-41h-191l-145 -198h335v-41h-388z" />
    <glyph glyph-name="Acaron" unicode="&#x1cd;" horiz-adv-x="638" 
d="M574 0l-83 210h-348l-81 -210h-51l279 704h52l285 -704h-53zM314 651l-155 -400h316l-159 400h-2zM169 936h52l93 -112h3l93 112h47l-119 -138h-51z" />
    <glyph glyph-name="acaron" unicode="&#x1ce;" horiz-adv-x="538" 
d="M71 374q5 64 53.5 107t138.5 43q88 0 135.5 -43t47.5 -115v-278q0 -28 11 -37.5t32 -9.5h33v-41h-43q-43 0 -61 20t-17 63v16h-1q-19 -49 -67 -81t-114 -32q-71 0 -120 38.5t-49 107.5q0 65 45.5 102t115.5 50l94 17q44 8 67.5 25t23.5 53q0 37 -29 70.5t-104 33.5
q-66 0 -102.5 -29t-42.5 -80h-47zM400 220v87q-7 -14 -26.5 -26t-50.5 -18l-103 -19q-56 -10 -89.5 -36t-33.5 -72v-6q0 -51 36.5 -77.5t90.5 -26.5q75 0 125.5 53.5t50.5 140.5zM116 742h52l93 -112h3l93 112h47l-119 -138h-51z" />
    <glyph glyph-name="Icaron" unicode="&#x1cf;" horiz-adv-x="256" 
d="M104 704h48v-704h-48v704zM-19 936h52l93 -112h3l93 112h47l-119 -138h-51z" />
    <glyph glyph-name="icaron" unicode="&#x1d0;" horiz-adv-x="222" 
d="M88 510h46v-510h-46v510zM-36 742h52l93 -112h3l93 112h47l-119 -138h-51z" />
    <glyph glyph-name="Ocaron" unicode="&#x1d1;" horiz-adv-x="734" 
d="M367 -14q-79 0 -137 30t-96 80t-56.5 116.5t-18.5 139.5t18.5 139.5t56.5 117t96 80.5t137 30t137 -30t96 -80.5t56.5 -117t18.5 -139.5t-18.5 -139.5t-56.5 -116.5t-96 -80t-137 -30zM367 28q53 0 100.5 20.5t82.5 59.5t55.5 96t20.5 131v35q0 74 -20.5 131t-55.5 96
t-82.5 59.5t-100.5 20.5t-100.5 -20.5t-82.5 -59.5t-55.5 -96t-20.5 -131v-35q0 -74 20.5 -131t55.5 -96t82.5 -59.5t100.5 -20.5zM220 936h52l93 -112h3l93 112h47l-119 -138h-51z" />
    <glyph glyph-name="ocaron" unicode="&#x1d2;" horiz-adv-x="582" 
d="M291 -14q-53 0 -97 20t-75 55t-48 85t-17 109q0 60 17.5 110t49 85t75.5 54.5t95 19.5t95 -19.5t75.5 -54.5t49 -85t17.5 -110q0 -59 -17 -109t-48 -85t-75 -55t-97 -20zM481 240v30q0 49 -15.5 89t-41 67t-60.5 42t-73 15t-73 -15t-60.5 -42.5t-41 -67t-15.5 -88.5v-30
q0 -48 15.5 -87.5t41 -67t60.5 -43t73 -15.5t73 14.5t60.5 42t41 67t15.5 89.5zM144 742h52l93 -112h3l93 112h47l-119 -138h-51z" />
    <glyph glyph-name="Ucaron" unicode="&#x1d3;" horiz-adv-x="699" 
d="M349 -15q-62 0 -110 18.5t-80 51.5t-49 79.5t-17 102.5v467h48v-466q0 -93 53.5 -152t154.5 -59q102 0 155.5 59t53.5 152v466h47v-467q0 -56 -17 -102.5t-49 -79.5t-80 -51.5t-110 -18.5zM204 937h52l93 -112h3l93 112h47l-119 -138h-51z" />
    <glyph glyph-name="ucaron" unicode="&#x1d4;" horiz-adv-x="584" 
d="M450 213v297h46v-510h-45v95h-1q-24 -55 -71 -82t-105 -27q-38 0 -73 12.5t-61.5 38.5t-42 65t-15.5 91v317h46v-317q0 -84 45 -125t108 -41q34 0 64.5 11.5t53.5 34.5t37 58t14 82zM137 742h52l93 -112h3l93 112h47l-119 -138h-51z" />
    <glyph glyph-name="AEmacron" unicode="&#x1e2;" horiz-adv-x="930" 
d="M574 0l-83 210h-348l-81 -210h-51l279 704h584v-42h-515l111 -274h375v-42h-358l123 -304h264v-42h-300zM314 651l-155 -400h316l-159 400h-2zM217 880h255v-33h-255v33z" />
    <glyph glyph-name="aemacron" unicode="&#x1e3;" horiz-adv-x="920" 
d="M435 387h1q29 63 81.5 100t121.5 37q107 0 169 -71.5t62 -187.5v-19h-421v-6q0 -96 55 -154.5t138 -58.5q38 0 67.5 11t50.5 28t34 38.5t17 42.5h50q-16 -68 -72.5 -114.5t-146.5 -46.5q-85 0 -141.5 49.5t-75.5 131.5h-1q-3 -39 -20 -72t-44 -57.5t-63 -38t-76 -13.5
q-71 0 -120 38.5t-49 107.5q0 65 45.5 102t115.5 50l94 17q44 8 67.5 25t23.5 53q0 18 -7 36.5t-22 33.5t-41 24.5t-63 9.5q-66 0 -102.5 -29t-42.5 -80h-47q5 64 53.5 107t138.5 43q79 0 121 -36.5t49 -100.5zM639 483q-37 0 -70 -14t-58.5 -39t-41.5 -61.5t-19 -81.5h373
q-2 91 -53 143.5t-131 52.5zM402 220v87q-7 -14 -26.5 -26t-50.5 -18l-103 -19q-56 -10 -89.5 -36t-33.5 -72v-6q0 -51 36.5 -77.5t90.5 -26.5q75 0 125.5 53.5t50.5 140.5zM323 685h255v-33h-255v33z" />
    <glyph glyph-name="Gcaron" unicode="&#x1e6;" horiz-adv-x="712" 
d="M602 0v164h-1q-18 -76 -80 -127t-156 -51q-78 0 -136 30t-95.5 80t-56 116.5t-18.5 139.5t19.5 139.5t58.5 117t97.5 80.5t136.5 30q107 0 176 -52.5t91 -140.5h-52q-17 68 -71.5 109.5t-142.5 41.5q-54 0 -102.5 -20.5t-84 -59.5t-56.5 -96t-21 -131v-35
q0 -74 20.5 -131t55.5 -96t82 -59.5t100 -20.5q62 0 106 22.5t72 60.5t41 89t13 107h-254v42h299v-349h-41zM225 936h52l93 -112h3l93 112h47l-119 -138h-51z" />
    <glyph glyph-name="gcaron" unicode="&#x1e7;" horiz-adv-x="599" 
d="M73 -56h50q4 -18 15 -37t30 -35t47 -26.5t68 -10.5q96 0 139 53t43 141v99h-1q-25 -57 -72.5 -89.5t-113.5 -32.5q-49 0 -90 18.5t-70.5 52.5t-46.5 82t-17 106q0 57 16 105t45.5 82t71 53t91.5 19q68 0 115 -32t71 -89h1v107h46v-482q0 -115 -60.5 -174.5t-167.5 -59.5
q-90 0 -142.5 45t-67.5 105zM101 280v-30q0 -47 14.5 -85t39.5 -64t58 -40t70 -14t70 14t58 40.5t39.5 64t14.5 84.5v30q0 46 -14.5 83.5t-39.5 64t-58 41t-70 14.5t-70 -14t-58 -39.5t-39.5 -63.5t-14.5 -86zM131 742h52l93 -112h3l93 112h47l-119 -138h-51z" />
    <glyph glyph-name="Oogonek" unicode="&#x1ea;" horiz-adv-x="734" 
d="M367 -14q-79 0 -137 30t-96 80t-56.5 116.5t-18.5 139.5t18.5 139.5t56.5 117t96 80.5t137 30t137 -30t96 -80.5t56.5 -117t18.5 -139.5t-18.5 -139.5t-56.5 -116.5t-96 -80t-137 -30zM367 28q53 0 100.5 20.5t82.5 59.5t55.5 96t20.5 131v35q0 74 -20.5 131t-55.5 96
t-82.5 59.5t-100.5 20.5t-100.5 -20.5t-82.5 -59.5t-55.5 -96t-20.5 -131v-35q0 -74 20.5 -131t55.5 -96t82.5 -59.5t100.5 -20.5zM414 23v-23q-50 -29 -74.5 -56t-24.5 -55q0 -23 18 -39t55 -16h58v-38h-58q-55 0 -82.5 26t-27.5 60q0 40 35.5 75.5t100.5 65.5z" />
    <glyph glyph-name="oogonek" unicode="&#x1eb;" horiz-adv-x="582" 
d="M291 -14q-53 0 -97 20t-75 55t-48 85t-17 109q0 60 17.5 110t49 85t75.5 54.5t95 19.5t95 -19.5t75.5 -54.5t49 -85t17.5 -110q0 -59 -17 -109t-48 -85t-75 -55t-97 -20zM481 240v30q0 49 -15.5 89t-41 67t-60.5 42t-73 15t-73 -15t-60.5 -42.5t-41 -67t-15.5 -88.5v-30
q0 -48 15.5 -87.5t41 -67t60.5 -43t73 -15.5t73 14.5t60.5 42t41 67t15.5 89.5zM330 23v-23q-50 -29 -74.5 -56t-24.5 -55q0 -23 18 -39t55 -16h58v-38h-58q-55 0 -82.5 26t-27.5 60q0 40 35.5 75.5t100.5 65.5z" />
    <glyph glyph-name="uni01F9" unicode="&#x1f9;" horiz-adv-x="584" 
d="M134 297v-297h-46v510h45v-95h1q24 55 71 82t105 27q38 0 73 -12.5t61.5 -38.5t42 -65t15.5 -91v-317h-46v317q0 84 -45 125t-108 41q-34 0 -64.5 -11.5t-53.5 -34.5t-37 -58t-14 -82zM276 -62h57l-104 -138h-40z" />
    <glyph glyph-name="Aringacute" unicode="&#x1fa;" horiz-adv-x="638" 
d="M574 0l-83 210h-348l-81 -210h-51l279 704h52l285 -704h-53zM314 651l-155 -400h316l-159 400h-2zM317 674q-41 0 -71.5 25.5t-30.5 69.5q0 39 24.5 63.5t58.5 30.5l85 134h57l-102 -135q34 -6 57.5 -30.5t23.5 -62.5q0 -44 -30 -69.5t-72 -25.5zM317 704q28 0 49 17
t21 48t-21 48t-49 17t-48.5 -17t-20.5 -48t20.5 -48t48.5 -17z" />
    <glyph glyph-name="aringacute" unicode="&#x1fb;" horiz-adv-x="538" 
d="M71 374q5 64 53.5 107t138.5 43q88 0 135.5 -43t47.5 -115v-278q0 -28 11 -37.5t32 -9.5h33v-41h-43q-43 0 -61 20t-17 63v16h-1q-19 -49 -67 -81t-114 -32q-71 0 -120 38.5t-49 107.5q0 65 45.5 102t115.5 50l94 17q44 8 67.5 25t23.5 53q0 37 -29 70.5t-104 33.5
q-66 0 -102.5 -29t-42.5 -80h-47zM400 220v87q-7 -14 -26.5 -26t-50.5 -18l-103 -19q-56 -10 -89.5 -36t-33.5 -72v-6q0 -51 36.5 -77.5t90.5 -26.5q75 0 125.5 53.5t50.5 140.5zM263 480q-41 0 -71.5 25.5t-30.5 69.5q0 39 24.5 63.5t58.5 30.5l85 134h57l-102 -135
q34 -6 57.5 -30.5t23.5 -62.5q0 -44 -30 -69.5t-72 -25.5zM263 510q28 0 49 17t21 48t-21 48t-49 17t-48.5 -17t-20.5 -48t20.5 -48t48.5 -17z" />
    <glyph glyph-name="AEacute" unicode="&#x1fc;" horiz-adv-x="930" 
d="M574 0l-83 210h-348l-81 -210h-51l279 704h584v-42h-515l111 -274h375v-42h-358l123 -304h264v-42h-300zM314 651l-155 -400h316l-159 400h-2zM411 936h57l-104 -138h-40z" />
    <glyph glyph-name="aeacute" unicode="&#x1fd;" horiz-adv-x="920" 
d="M435 387h1q29 63 81.5 100t121.5 37q107 0 169 -71.5t62 -187.5v-19h-421v-6q0 -96 55 -154.5t138 -58.5q38 0 67.5 11t50.5 28t34 38.5t17 42.5h50q-16 -68 -72.5 -114.5t-146.5 -46.5q-85 0 -141.5 49.5t-75.5 131.5h-1q-3 -39 -20 -72t-44 -57.5t-63 -38t-76 -13.5
q-71 0 -120 38.5t-49 107.5q0 65 45.5 102t115.5 50l94 17q44 8 67.5 25t23.5 53q0 18 -7 36.5t-22 33.5t-41 24.5t-63 9.5q-66 0 -102.5 -29t-42.5 -80h-47q5 64 53.5 107t138.5 43q79 0 121 -36.5t49 -100.5zM639 483q-37 0 -70 -14t-58.5 -39t-41.5 -61.5t-19 -81.5h373
q-2 91 -53 143.5t-131 52.5zM402 220v87q-7 -14 -26.5 -26t-50.5 -18l-103 -19q-56 -10 -89.5 -36t-33.5 -72v-6q0 -51 36.5 -77.5t90.5 -26.5q75 0 125.5 53.5t50.5 140.5zM517 741h57l-104 -138h-40z" />
    <glyph glyph-name="Oslashacute" unicode="&#x1fe;" horiz-adv-x="734" 
d="M43 -7l89 106q-37 50 -55 115.5t-18 137.5q0 73 18.5 139.5t56.5 117t96 80.5t137 30q68 0 121.5 -22.5t90.5 -62.5l83 100l29 -23l-88 -106q37 -50 54.5 -115.5t17.5 -137.5q0 -73 -18.5 -139.5t-56.5 -116.5t-96 -80t-137 -30q-68 0 -121 22.5t-90 61.5l-84 -100z
M108 335q0 -61 14.5 -111.5t39.5 -87.5l387 462q-35 39 -82 59t-100 20t-100.5 -20.5t-82.5 -59.5t-55.5 -96t-20.5 -131v-35zM367 28q53 0 100.5 20.5t82.5 59.5t55.5 96t20.5 131v35q0 61 -14.5 111.5t-39.5 87.5l-386 -463q35 -38 82 -58t99 -20zM435 936h57l-104 -138
h-40z" />
    <glyph glyph-name="oslashacute" unicode="&#x1ff;" horiz-adv-x="588" 
d="M27 -12l80 88q-25 34 -39 80t-14 99q0 60 17.5 110t49 85t75.5 54.5t95 19.5q49 0 90.5 -17.5t72.5 -49.5l81 89l26 -24l-84 -92q24 -34 37.5 -78.5t13.5 -96.5q0 -59 -17 -109t-48 -85t-75 -55t-97 -20q-49 0 -89.5 16.5t-71.5 46.5l-77 -85zM101 240q0 -38 10 -71
t27 -59l287 315q-25 28 -60 43t-74 15q-38 0 -73 -15t-60.5 -42.5t-41 -67t-15.5 -88.5v-30zM481 240v30q0 37 -9 69.5t-25 57.5l-286 -315q25 -26 59 -40.5t71 -14.5q38 0 73 14.5t60.5 42t41 67t15.5 89.5zM360 742h57l-104 -138h-40z" />
    <glyph glyph-name="uni0218" unicode="&#x218;" horiz-adv-x="621" 
d="M312 -14q-63 0 -112 15.5t-82 43t-51 64.5t-21 80h48q6 -75 64 -118t154 -43q93 0 151 43.5t58 116.5q0 60 -41 93.5t-114 45.5l-110 18q-82 13 -136 55t-54 126q0 40 16 75t47 61t77.5 41.5t106.5 15.5q61 0 106 -15.5t75 -41.5t45.5 -60t18.5 -70h-49q-6 63 -56 104
t-141 41q-94 0 -146 -43t-52 -108q0 -61 42.5 -93t108.5 -43l110 -18q90 -15 142 -59t52 -125q0 -90 -70.5 -146t-186.5 -56zM291 -62h57l-104 -138h-40z" />
    <glyph glyph-name="uni0219" unicode="&#x219;" horiz-adv-x="496" 
d="M44 144h47q3 -60 48.5 -89.5t113.5 -29.5q67 0 108.5 29.5t41.5 79.5q0 43 -30 66.5t-84 31.5l-82 12q-72 10 -108.5 45t-36.5 91q0 63 51 104t135 41q47 0 82 -12.5t58 -32.5t35.5 -47t13.5 -55h-47q-4 47 -40.5 77t-101.5 30q-63 0 -101.5 -28.5t-38.5 -73.5
q0 -40 26.5 -63t83.5 -31l82 -12q82 -12 115.5 -50.5t33.5 -89.5q0 -70 -54 -111t-143 -41q-98 0 -151.5 44.5t-56.5 114.5zM230 -62h57l-104 -138h-40z" />
    <glyph glyph-name="uni021A" unicode="&#x21a;" horiz-adv-x="578" 
d="M265 662h-249v42h546v-42h-249v-662h-48v662zM263 -62h57l-104 -138h-40z" />
    <glyph glyph-name="uni021B" unicode="&#x21b;" horiz-adv-x="402" 
d="M19 510h124v162h46v-162h178v-41h-178v-364q0 -34 14.5 -49t48.5 -15h116v-41h-118q-57 0 -82 26t-25 80v363h-124v41zM254 -62h57l-104 -138h-40z" />
    <glyph glyph-name="Ymacron" unicode="&#x232;" horiz-adv-x="590" 
d="M272 0v290l-254 414h55l222 -365h2l221 365h54l-253 -414v-290h-47zM168 880h255v-33h-255v33z" />
    <glyph glyph-name="ymacron" unicode="&#x233;" horiz-adv-x="504" 
d="M243 -78q-12 -29 -23.5 -50.5t-28.5 -35.5t-42 -21t-63 -7h-63v41h63q26 0 43 3.5t29 13t21 27t21 44.5l31 74l-209 499h51l182 -441h1l177 441h49zM129 686h255v-33h-255v33z" />
    <glyph glyph-name="dotlessj" unicode="&#x237;" horiz-adv-x="222" 
d="M88 -86v596h46v-595q0 -54 -25 -80t-82 -26h-88v41h86q34 0 48.5 15t14.5 49z" />
    <glyph glyph-name="uni0259" unicode="&#x259;" horiz-adv-x="572" 
d="M283 524q54 0 98 -20t74 -55t46.5 -85t16.5 -109q0 -60 -17.5 -110t-48.5 -85t-73.5 -54.5t-92.5 -19.5q-104 0 -165 71.5t-61 187.5v17h411v8q0 96 -54 154.5t-134 58.5q-36 0 -65 -10.5t-49.5 -26.5t-33 -37t-16.5 -42h-50q16 67 71.5 112t142.5 45zM286 27
q35 0 67 13.5t57 38.5t41 61t19 81h-363q3 -91 53 -142.5t126 -51.5z" />
    <glyph glyph-name="nhookleft" unicode="&#x272;" horiz-adv-x="594" 
d="M134 297v-297h-46v510h45v-95h1q24 55 71 82t105 27q38 0 73 -12.5t61.5 -38.5t42 -65t15.5 -91v-317h-46v317q0 84 -45 125t-108 41q-34 0 -64.5 -11.5t-53.5 -34.5t-37 -58t-14 -82zM88 -86v596h46v-595q0 -54 -25 -80t-82 -26h-88v41h86q34 0 48.5 15t14.5 49z" />
    <glyph glyph-name="circumflex" unicode="&#x2c6;" horiz-adv-x="498" 
d="M396 604h-52l-93 112h-3l-93 -112h-47l119 138h51z" />
    <glyph glyph-name="caron" unicode="&#x2c7;" horiz-adv-x="498" 
d="M108 742h52l93 -112h3l93 112h47l-119 -138h-51z" />
    <glyph glyph-name="breve" unicode="&#x2d8;" horiz-adv-x="499" 
d="M247 604q-65 0 -100 40.5t-35 97.5h41q0 -51 26 -78.5t70 -27.5q47 0 74 28.5t27 77.5h38q0 -56 -36 -97t-102 -41h-3z" />
    <glyph glyph-name="dotaccent" unicode="&#x2d9;" horiz-adv-x="499" 
d="M250 643h-2q-16 0 -27 11t-11 27t11 27t27 11h2q16 0 27 -11t11 -27t-11 -27t-27 -11z" />
    <glyph glyph-name="ring" unicode="&#x2da;" horiz-adv-x="498" 
d="M249 576q-41 0 -71.5 25.5t-30.5 69.5t30.5 69.5t71.5 25.5q42 0 72 -25.5t30 -69.5t-30 -69.5t-72 -25.5zM249 606q28 0 49 17t21 48t-21 48t-49 17t-48.5 -17t-20.5 -48t20.5 -48t48.5 -17z" />
    <glyph glyph-name="ogonek" unicode="&#x2db;" horiz-adv-x="498" 
d="M290 23v-23q-50 -29 -74.5 -56t-24.5 -55q0 -23 18 -39t55 -16h58v-38h-58q-55 0 -82.5 26t-27.5 60q0 40 35.5 75.5t100.5 65.5z" />
    <glyph glyph-name="tilde" unicode="&#x2dc;" horiz-adv-x="498" 
d="M321 605q-31 0 -49 16t-32 34.5t-28.5 34.5t-38.5 16q-25 0 -41 -22.5t-16 -73.5h-31v2q0 59 24 93.5t65 34.5h2q31 0 49 -16t32 -34.5t28.5 -34.5t39.5 -16t41 21.5t16 72.5h31v-2q0 -60 -24 -93t-66 -33h-2z" />
    <glyph glyph-name="hungarumlaut" unicode="&#x2dd;" horiz-adv-x="499" 
d="M245 742h55l-105 -138h-38zM393 742h55l-105 -138h-38z" />
    <glyph glyph-name="uni0394" unicode="&#x394;" horiz-adv-x="593" 
d="M27 0v41l247 663h46l246 -663v-41h-539zM77 41h438l-218 599z" />
    <glyph glyph-name="uni03A9" unicode="&#x3a9;" horiz-adv-x="699" 
d="M76 0v41h169v3q-86 36 -133.5 121t-47.5 209q0 75 19.5 139t55.5 109.5t89.5 71t120.5 25.5q66 0 119.5 -25.5t90 -71t56 -109t19.5 -139.5q0 -124 -47.5 -209t-133.5 -121v-3h169v-41h-216v66q89 28 134.5 109.5t45.5 196.5q0 60 -14 115.5t-43 97.5t-74 67t-106 25
t-106 -25t-74 -66.5t-43 -97t-14 -116.5q0 -115 46 -196.5t134 -109.5v-66h-216z" />
    <glyph glyph-name="uni0E3F" unicode="&#xe3f;" horiz-adv-x="680" 
d="M116 0v704h196v130h42v-130h39q84 0 138 -48.5t54 -131.5q0 -60 -31 -100t-86 -57q66 -16 103 -60.5t37 -113.5q0 -89 -58.5 -141t-148.5 -52h-47v-129h-42v129h-196zM539 519v10q0 62 -42 98.5t-114 36.5h-221v-280h221q72 0 114 36.5t42 98.5zM562 188v10
q0 68 -46.5 108t-124.5 40h-229v-306h229q78 0 124.5 40t46.5 108z" />
    <glyph glyph-name="Wgrave" unicode="&#x1e80;" horiz-adv-x="924" 
d="M24 704h50l183 -644h2l175 644h60l180 -644h2l177 644h47l-195 -704h-59l-182 649h-2l-176 -649h-59zM394 936l87 -138h-40l-104 138h57z" />
    <glyph glyph-name="wgrave" unicode="&#x1e81;" horiz-adv-x="793" 
d="M24 510h49l150 -457h1l145 457h55l151 -456h1l145 456h48l-169 -510h-53l-150 453h-1l-147 -453h-53zM328 742l87 -138h-40l-104 138h57z" />
    <glyph glyph-name="Wacute" unicode="&#x1e82;" horiz-adv-x="924" 
d="M24 704h50l183 -644h2l175 644h60l180 -644h2l177 644h47l-195 -704h-59l-182 649h-2l-176 -649h-59zM529 936h57l-104 -138h-40z" />
    <glyph glyph-name="wacute" unicode="&#x1e83;" horiz-adv-x="793" 
d="M24 510h49l150 -457h1l145 457h55l151 -456h1l145 456h48l-169 -510h-53l-150 453h-1l-147 -453h-53zM463 742h57l-104 -138h-40z" />
    <glyph glyph-name="Wdieresis" unicode="&#x1e84;" horiz-adv-x="924" 
d="M24 704h50l183 -644h2l175 644h60l180 -644h2l177 644h47l-195 -704h-59l-182 649h-2l-176 -649h-59zM382 837h-2q-16 0 -27 11t-11 27t11 27t27 11h2q16 0 27 -11t11 -27t-11 -27t-27 -11zM548 837h-2q-16 0 -27 11t-11 27t11 27t27 11h2q16 0 27 -11t11 -27t-11 -27
t-27 -11z" />
    <glyph glyph-name="wdieresis" unicode="&#x1e85;" horiz-adv-x="793" 
d="M24 510h49l150 -457h1l145 457h55l151 -456h1l145 456h48l-169 -510h-53l-150 453h-1l-147 -453h-53zM316 643h-2q-16 0 -27 11t-11 27t11 27t27 11h2q16 0 27 -11t11 -27t-11 -27t-27 -11zM482 643h-2q-16 0 -27 11t-11 27t11 27t27 11h2q16 0 27 -11t11 -27t-11 -27
t-27 -11z" />
    <glyph glyph-name="uni1E9E" unicode="&#x1e9e;" horiz-adv-x="681" 
d="M104 0v704h485v-42l-226 -262h50q105 0 161.5 -53.5t56.5 -140.5q0 -43 -14.5 -80.5t-42.5 -65.5t-70 -44t-97 -16h-150v42h148q45 0 78.5 13t55.5 35t33 51.5t11 61.5q0 73 -43.5 114.5t-126.5 41.5h-104v41l225 262h-382v-662h-48z" />
    <glyph glyph-name="Adotbelow" unicode="&#x1ea0;" horiz-adv-x="638" 
d="M574 0l-83 210h-348l-81 -210h-51l279 704h52l285 -704h-53zM314 651l-155 -400h316l-159 400h-2zM316 -175h-2q-16 0 -27 11t-11 27t11 27t27 11h2q16 0 27 -11t11 -27t-11 -27t-27 -11z" />
    <glyph glyph-name="adotbelow" unicode="&#x1ea1;" horiz-adv-x="538" 
d="M71 374q5 64 53.5 107t138.5 43q88 0 135.5 -43t47.5 -115v-278q0 -28 11 -37.5t32 -9.5h33v-41h-43q-43 0 -61 20t-17 63v16h-1q-19 -49 -67 -81t-114 -32q-71 0 -120 38.5t-49 107.5q0 65 45.5 102t115.5 50l94 17q44 8 67.5 25t23.5 53q0 37 -29 70.5t-104 33.5
q-66 0 -102.5 -29t-42.5 -80h-47zM400 220v87q-7 -14 -26.5 -26t-50.5 -18l-103 -19q-56 -10 -89.5 -36t-33.5 -72v-6q0 -51 36.5 -77.5t90.5 -26.5q75 0 125.5 53.5t50.5 140.5zM226 -175h-2q-16 0 -27 11t-11 27t11 27t27 11h2q16 0 27 -11t11 -27t-11 -27t-27 -11z" />
    <glyph glyph-name="Edotbelow" unicode="&#x1eb8;" horiz-adv-x="612" 
d="M104 704h452v-42h-404v-274h375v-42h-375v-304h404v-42h-452v704zM344 -175h-2q-16 0 -27 11t-11 27t11 27t27 11h2q16 0 27 -11t11 -27t-11 -27t-27 -11z" />
    <glyph glyph-name="edotbelow" unicode="&#x1eb9;" horiz-adv-x="566" 
d="M289 -14q-54 0 -98 20t-74 55t-46.5 85t-16.5 109q0 60 17.5 110t48.5 85t73.5 54.5t92.5 19.5q104 0 165 -71.5t61 -187.5v-17h-411v-8q0 -96 54 -154.5t134 -58.5q36 0 65 10.5t49.5 26.5t33 37t16.5 42h50q-16 -67 -71.5 -112t-142.5 -45zM286 483q-35 0 -67 -13.5
t-57 -38.5t-41 -61t-19 -81h363q-3 91 -53 142.5t-126 51.5zM289 -175h-2q-16 0 -27 11t-11 27t11 27t27 11h2q16 0 27 -11t11 -27t-11 -27t-27 -11z" />
    <glyph glyph-name="Etilde" unicode="&#x1ebc;" horiz-adv-x="612" 
d="M104 704h452v-42h-404v-274h375v-42h-375v-304h404v-42h-452v704zM415 799q-31 0 -49 16t-32 34.5t-28.5 34.5t-38.5 16q-25 0 -41 -22.5t-16 -73.5h-31v2q0 59 24 93.5t65 34.5h2q31 0 49 -16t32 -34.5t28.5 -34.5t39.5 -16t41 21.5t16 72.5h31v-2q0 -60 -24 -93
t-66 -33h-2z" />
    <glyph glyph-name="etilde" unicode="&#x1ebd;" horiz-adv-x="566" 
d="M289 -14q-54 0 -98 20t-74 55t-46.5 85t-16.5 109q0 60 17.5 110t48.5 85t73.5 54.5t92.5 19.5q104 0 165 -71.5t61 -187.5v-17h-411v-8q0 -96 54 -154.5t134 -58.5q36 0 65 10.5t49.5 26.5t33 37t16.5 42h50q-16 -67 -71.5 -112t-142.5 -45zM286 483q-35 0 -67 -13.5
t-57 -38.5t-41 -61t-19 -81h363q-3 91 -53 142.5t-126 51.5zM357 605q-31 0 -49 16t-32 34.5t-28.5 34.5t-38.5 16q-25 0 -41 -22.5t-16 -73.5h-31v2q0 59 24 93.5t65 34.5h2q31 0 49 -16t32 -34.5t28.5 -34.5t39.5 -16t41 21.5t16 72.5h31v-2q0 -60 -24 -93t-66 -33h-2z
" />
    <glyph glyph-name="Idotbelow" unicode="&#x1eca;" horiz-adv-x="256" 
d="M104 704h48v-704h-48v704zM129 -175h-2q-16 0 -27 11t-11 27t11 27t27 11h2q16 0 27 -11t11 -27t-11 -27t-27 -11z" />
    <glyph glyph-name="idotbelow" unicode="&#x1ecb;" horiz-adv-x="222" 
d="M112 630h-2q-19 0 -31 12t-12 31t12 31t31 12h2q19 0 31 -12t12 -31t-12 -31t-31 -12zM88 510h46v-510h-46v510zM115 -175h-2q-16 0 -27 11t-11 27t11 27t27 11h2q16 0 27 -11t11 -27t-11 -27t-27 -11z" />
    <glyph glyph-name="Odotbelow" unicode="&#x1ecc;" horiz-adv-x="734" 
d="M367 -14q-79 0 -137 30t-96 80t-56.5 116.5t-18.5 139.5t18.5 139.5t56.5 117t96 80.5t137 30t137 -30t96 -80.5t56.5 -117t18.5 -139.5t-18.5 -139.5t-56.5 -116.5t-96 -80t-137 -30zM367 28q53 0 100.5 20.5t82.5 59.5t55.5 96t20.5 131v35q0 74 -20.5 131t-55.5 96
t-82.5 59.5t-100.5 20.5t-100.5 -20.5t-82.5 -59.5t-55.5 -96t-20.5 -131v-35q0 -74 20.5 -131t55.5 -96t82.5 -59.5t100.5 -20.5zM368 -175h-2q-16 0 -27 11t-11 27t11 27t27 11h2q16 0 27 -11t11 -27t-11 -27t-27 -11z" />
    <glyph glyph-name="odotbelow" unicode="&#x1ecd;" horiz-adv-x="582" 
d="M291 -14q-53 0 -97 20t-75 55t-48 85t-17 109q0 60 17.5 110t49 85t75.5 54.5t95 19.5t95 -19.5t75.5 -54.5t49 -85t17.5 -110q0 -59 -17 -109t-48 -85t-75 -55t-97 -20zM481 240v30q0 49 -15.5 89t-41 67t-60.5 42t-73 15t-73 -15t-60.5 -42.5t-41 -67t-15.5 -88.5v-30
q0 -48 15.5 -87.5t41 -67t60.5 -43t73 -15.5t73 14.5t60.5 42t41 67t15.5 89.5zM293 -175h-2q-16 0 -27 11t-11 27t11 27t27 11h2q16 0 27 -11t11 -27t-11 -27t-27 -11z" />
    <glyph glyph-name="Udotbelow" unicode="&#x1ee4;" horiz-adv-x="699" 
d="M349 -15q-62 0 -110 18.5t-80 51.5t-49 79.5t-17 102.5v467h48v-466q0 -93 53.5 -152t154.5 -59q102 0 155.5 59t53.5 152v466h47v-467q0 -56 -17 -102.5t-49 -79.5t-80 -51.5t-110 -18.5zM350 -175h-2q-16 0 -27 11t-11 27t11 27t27 11h2q16 0 27 -11t11 -27t-11 -27
t-27 -11z" />
    <glyph glyph-name="udotbelow" unicode="&#x1ee5;" horiz-adv-x="584" 
d="M450 213v297h46v-510h-45v95h-1q-24 -55 -71 -82t-105 -27q-38 0 -73 12.5t-61.5 38.5t-42 65t-15.5 91v317h46v-317q0 -84 45 -125t108 -41q34 0 64.5 11.5t53.5 34.5t37 58t14 82zM304 -175h-2q-16 0 -27 11t-11 27t11 27t27 11h2q16 0 27 -11t11 -27t-11 -27t-27 -11z
" />
    <glyph glyph-name="Ygrave" unicode="&#x1ef2;" horiz-adv-x="590" 
d="M272 0v290l-254 414h55l222 -365h2l221 365h54l-253 -414v-290h-47zM227 936l87 -138h-40l-104 138h57z" />
    <glyph glyph-name="ygrave" unicode="&#x1ef3;" horiz-adv-x="504" 
d="M243 -78q-12 -29 -23.5 -50.5t-28.5 -35.5t-42 -21t-63 -7h-63v41h63q26 0 43 3.5t29 13t21 27t21 44.5l31 74l-209 499h51l182 -441h1l177 441h49zM188 742l87 -138h-40l-104 138h57z" />
    <glyph glyph-name="Ytilde" unicode="&#x1ef8;" horiz-adv-x="590" 
d="M272 0v290l-254 414h55l222 -365h2l221 365h54l-253 -414v-290h-47zM368 799q-31 0 -49 16t-32 34.5t-28.5 34.5t-38.5 16q-25 0 -41 -22.5t-16 -73.5h-31v2q0 59 24 93.5t65 34.5h2q31 0 49 -16t32 -34.5t28.5 -34.5t39.5 -16t41 21.5t16 72.5h31v-2q0 -60 -24 -93
t-66 -33h-2z" />
    <glyph glyph-name="ytilde" unicode="&#x1ef9;" horiz-adv-x="504" 
d="M243 -78q-12 -29 -23.5 -50.5t-28.5 -35.5t-42 -21t-63 -7h-63v41h63q26 0 43 3.5t29 13t21 27t21 44.5l31 74l-209 499h51l182 -441h1l177 441h49zM329 605q-31 0 -49 16t-32 34.5t-28.5 34.5t-38.5 16q-25 0 -41 -22.5t-16 -73.5h-31v2q0 59 24 93.5t65 34.5h2
q31 0 49 -16t32 -34.5t28.5 -34.5t39.5 -16t41 21.5t16 72.5h31v-2q0 -60 -24 -93t-66 -33h-2z" />
    <glyph glyph-name="uni2007" unicode="&#x2007;" horiz-adv-x="627" 
 />
    <glyph glyph-name="uni2008" unicode="&#x2008;" horiz-adv-x="211" 
 />
    <glyph glyph-name="thinspace" unicode="&#x2009;" horiz-adv-x="70" 
 />
    <glyph glyph-name="endash" unicode="&#x2013;" horiz-adv-x="592" 
d="M68 301h455v-40h-455v40z" />
    <glyph glyph-name="emdash" unicode="&#x2014;" horiz-adv-x="1001" 
d="M68 301h865v-40h-865v40z" />
    <glyph glyph-name="uni2015" unicode="&#x2015;" horiz-adv-x="1001" 
d="M68 301h865v-40h-865v40z" />
    <glyph glyph-name="quoteleft" unicode="&#x2018;" horiz-adv-x="224" 
d="M131 704h43l-74 -215h-50z" />
    <glyph glyph-name="quoteright" unicode="&#x2019;" horiz-adv-x="224" 
d="M93 489h-43l74 215h50z" />
    <glyph glyph-name="quotesinglbase" unicode="&#x201a;" horiz-adv-x="232" 
d="M81 -144h-43l74 215h50z" />
    <glyph glyph-name="quotedblleft" unicode="&#x201c;" horiz-adv-x="374" 
d="M131 704h43l-74 -215h-50zM281 704h43l-74 -215h-50z" />
    <glyph glyph-name="quotedblright" unicode="&#x201d;" horiz-adv-x="374" 
d="M243 489h-43l74 215h50zM93 489h-43l74 215h50z" />
    <glyph glyph-name="quotedblbase" unicode="&#x201e;" horiz-adv-x="382" 
d="M231 -144h-43l74 215h50zM81 -144h-43l74 215h50z" />
    <glyph glyph-name="dagger" unicode="&#x2020;" horiz-adv-x="493" 
d="M442 570v-38h-174v-367h-43v367h-174v38h174v134h43v-134h174z" />
    <glyph glyph-name="daggerdbl" unicode="&#x2021;" horiz-adv-x="493" 
d="M225 165v124h-174v38h174v215h-174v38h174v124h43v-124h174v-38h-174v-215h174v-38h-174v-124h-43z" />
    <glyph glyph-name="bullet" unicode="&#x2022;" horiz-adv-x="424" 
d="M215 200h-6q-53 0 -88 35t-35 89q0 53 35 88t88 35h6q54 0 88.5 -35t34.5 -88q0 -54 -34.5 -89t-88.5 -35z" />
    <glyph glyph-name="ellipsis" unicode="&#x2026;" horiz-adv-x="672" 
d="M116 -8q-19 0 -31.5 12.5t-12.5 31.5t12.5 31.5t31.5 12.5t31.5 -12.5t12.5 -31.5t-12.5 -31.5t-31.5 -12.5zM336 -8q-19 0 -31.5 12.5t-12.5 31.5t12.5 31.5t31.5 12.5t31.5 -12.5t12.5 -31.5t-12.5 -31.5t-31.5 -12.5zM556 -8q-19 0 -31.5 12.5t-12.5 31.5t12.5 31.5
t31.5 12.5t31.5 -12.5t12.5 -31.5t-12.5 -31.5t-31.5 -12.5z" />
    <glyph glyph-name="perthousand" unicode="&#x2030;" horiz-adv-x="1342" 
d="M227 318q-80 0 -123.5 55t-43.5 141q0 43 12 80t34 64t54 42.5t72 15.5t72 -15.5t54 -42.5t34 -64t12 -80q0 -86 -48.5 -141t-128.5 -55zM190 0l256 351l253 353h55l-257 -353l-252 -351h-55zM227 358q60 0 95.5 43.5t35.5 112.5t-33 115.5t-93 46.5t-93 -46.5
t-33 -115.5t30.5 -112.5t90.5 -43.5zM1110 -14q-80 0 -126 57.5t-46 143.5q0 43 12 80t34 64t54 42.5t72 15.5t72 -15.5t54 -42.5t34 -64t12 -80q0 -86 -46 -143.5t-126 -57.5zM710 -14q-80 0 -126 57.5t-46 143.5q0 43 12 80t34 64t54 42.5t72 15.5t72 -15.5t54 -42.5
t34 -64t12 -80q0 -86 -46 -143.5t-126 -57.5zM1110 26q60 0 93 46t33 115t-33 115.5t-93 46.5t-93 -46.5t-33 -115.5t33 -115t93 -46zM710 26q60 0 93 46t33 115t-33 115.5t-93 46.5t-93 -46.5t-33 -115.5t33 -115t93 -46z" />
    <glyph glyph-name="guilsinglleft" unicode="&#x2039;" horiz-adv-x="329" 
d="M210 68l-170 198l170 198h59l-172 -198l172 -198h-59z" />
    <glyph glyph-name="guilsinglright" unicode="&#x203a;" horiz-adv-x="329" 
d="M119 464l170 -198l-170 -198h-59l172 198l-172 198h59z" />
    <glyph glyph-name="uni2042" unicode="&#x2042;" horiz-adv-x="1077" 
d="M556 349h-36l3 152l-129 -79l-18 32l133 73l-133 73l18 31l129 -78l-3 151h36l-3 -152l130 79l18 -31l-133 -73l133 -73l-18 -32l-130 79zM256 0h-36l3 152l-129 -79l-18 32l133 73l-133 73l18 31l129 -78l-3 151h36l-3 -152l130 79l18 -31l-133 -73l133 -73l-18 -32
l-130 79zM856 0h-36l3 152l-129 -79l-18 32l133 73l-133 73l18 31l129 -78l-3 151h36l-3 -152l130 79l18 -31l-133 -73l133 -73l-18 -32l-130 79z" />
    <glyph glyph-name="fraction" unicode="&#x2044;" horiz-adv-x="206" 
d="M-150 0l459 704h47l-459 -704h-47z" />
    <glyph glyph-name="uni2051" unicode="&#x2051;" horiz-adv-x="477" 
d="M256 389h-36l3 152l-129 -79l-18 32l133 73l-133 73l18 31l129 -78l-3 151h36l-3 -152l130 79l18 -31l-133 -73l133 -73l-18 -32l-130 79zM256 -40h-36l3 152l-129 -79l-18 32l133 73l-133 73l18 31l129 -78l-3 151h36l-3 -152l130 79l18 -31l-133 -73l133 -73l-18 -32
l-130 79z" />
    <glyph glyph-name="uni20A6" unicode="&#x20a6;" horiz-adv-x="693" 
d="M138 0v330h-88v40h88v334h64l160 -334h147v334h46v-334h88v-40h-88v-330h-63l-159 330h-149v-330h-46zM183 370h133l-132 274zM379 330l130 -267l1 267h-131z" />
    <glyph glyph-name="uni20A9" unicode="&#x20a9;" horiz-adv-x="1038" 
d="M978 260h-149l-70 -260h-59l-72 260h-213l-69 -260h-59l-73 260h-154v40h143l-34 120h-109v40h98l-68 244h49l67 -244h220l66 244h58l67 -244h220l65 244h46l-66 -244h96v-40h-106l-32 -120h138v-40zM519 649l-50 -189h104l-52 189h-2zM251 300h132l33 120h-199zM426 300
h191l-33 120h-126zM662 300h132l32 120h-198zM317 60h2l54 200h-111zM728 60h2l53 200h-110z" />
    <glyph glyph-name="uni20AA" unicode="&#x20aa;" horiz-adv-x="753" 
d="M104 0v704h200q85 0 132 -43t47 -127v-370h-46v371q0 65 -34.5 97t-97.5 32h-155v-664h-46zM649 704v-704h-200q-85 0 -132 43t-47 127v370h46v-371q0 -65 34.5 -97t97.5 -32h155v664h46z" />
    <glyph glyph-name="Euro" unicode="&#x20ac;" horiz-adv-x="714" 
d="M420 28q81 0 130 46.5t65 116.5h51q-21 -91 -84.5 -148t-161.5 -57q-59 0 -106.5 20.5t-82 55.5t-57.5 83.5t-34 103.5h-100v40h94q-1 16 -2 31.5t-1 31.5q0 14 1 28.5t2 28.5h-94v40h99q10 57 32.5 106.5t57.5 85.5t83 57t108 21q98 0 160 -54t84 -144h-52
q-18 69 -65 112.5t-126 43.5q-85 0 -150.5 -59t-84.5 -169h281v-40h-286q0 -9 -0.5 -19t-0.5 -20v-35q0 -12 0.5 -23.5t1.5 -22.5h285v-40h-279q19 -107 84 -164t148 -57z" />
    <glyph glyph-name="uni20B4" unicode="&#x20b4;" horiz-adv-x="602" 
d="M558 420h-514v40h380q13 15 20 36t7 48q0 57 -42 96t-112 39t-109 -36.5t-44 -93.5h-47q2 33 15 64t37 54.5t60.5 37.5t86.5 14q47 0 84.5 -14t63.5 -37.5t39.5 -55.5t13.5 -68q0 -25 -6 -46t-17 -38h84v-40zM558 260h-391q-17 -16 -26 -39.5t-9 -51.5q0 -65 46.5 -104
t118.5 -39q76 0 122 38t51 106h46q-5 -78 -60 -131t-159 -53q-95 0 -153 50.5t-58 132.5q0 27 6.5 49.5t18.5 41.5h-67v40h514v-40z" />
    <glyph glyph-name="uni20B8" unicode="&#x20b8;" horiz-adv-x="606" 
d="M556 704v-42h-506v42h506zM279 522h-229v42h506v-42h-229v-522h-48v522z" />
    <glyph glyph-name="uni20B9" unicode="&#x20b9;" horiz-adv-x="634" 
d="M70 320v40h178q83 0 126 36.5t47 95.5h-351v40h351q-4 59 -47 95.5t-126 36.5h-178v40h514v-36h-207q40 -20 62.5 -55t26.5 -81h118v-40h-118q-6 -81 -63 -126.5t-154 -45.5h-118l342 -320h-67z" />
    <glyph glyph-name="uni20BA" unicode="&#x20ba;" horiz-adv-x="564" 
d="M401 389l-215 -117v-230q58 1 104.5 19t81.5 49t58 73.5t35 91.5h51q-14 -61 -43 -112t-71.5 -87t-98.5 -56t-123 -20h-40v247l-84 -46v41l84 46v120l-84 -46v41l84 46v255h46v-230l215 117v-41l-215 -117v-120l215 117v-41z" />
    <glyph glyph-name="uni20BD" unicode="&#x20bd;" horiz-adv-x="646" 
d="M142 0v160h-90v40h90v120h-90v40h90v344h236q103 0 160.5 -51t57.5 -141t-57.5 -141t-160.5 -51h-190v-120h304v-40h-304v-160h-46zM550 505v14q0 64 -43 104.5t-130 40.5h-189v-304h189q87 0 130 40.5t43 104.5z" />
    <glyph glyph-name="uni20BF" unicode="&#x20bf;" horiz-adv-x="670" 
d="M104 0v704h98v130h42v-130h108v130h42v-130q84 0 138.5 -48.5t54.5 -131.5q0 -60 -31.5 -100.5t-87.5 -55.5v-1q66 -14 104 -59.5t38 -114.5q0 -89 -59 -141t-150 -52h-7v-129h-42v129h-108v-129h-42v129h-98zM538 519v10q0 61 -42 97t-113 36h-231v-276h231q71 0 113 36
t42 97zM561 188v10q0 67 -46 106.5t-124 39.5h-239v-302h239q78 0 124 39.5t46 106.5z" />
    <glyph glyph-name="uni2116" unicode="&#x2116;" horiz-adv-x="1231" 
d="M956 206q-50 0 -91.5 18.5t-70.5 51t-45 78.5t-16 101q0 111 62.5 180t160.5 69t160.5 -69t62.5 -180q0 -55 -16 -101t-45 -78.5t-70.5 -51t-91.5 -18.5zM105 0v704h67l405 -648h1v648h48v-704h-66l-406 652h-1v-652h-48zM1132 440v30q0 45 -14 81t-37.5 60.5t-56 38
t-68.5 13.5t-68.5 -13.5t-56 -38.5t-37.5 -61t-14 -80v-30q0 -43 14 -79t37.5 -61t56 -39t68.5 -14t68.5 13t56 38t37.5 61t14 81zM793 0v39h326v-39h-326z" />
    <glyph glyph-name="trademark" unicode="&#x2122;" horiz-adv-x="917" 
d="M178 314v354h-144v36h327v-36h-143v-354h-40zM439 314v390h62l140 -340h4l144 340h62v-390h-40v347h-4l-148 -347h-37l-141 344h-4v-344h-38z" />
    <glyph glyph-name="onethird" unicode="&#x2153;" horiz-adv-x="926" 
d="M152 290v308h-102v35h102v71h41v-414h-41zM178 0l459 704h47l-459 -704h-47zM834 114v8q0 39 -27 63t-74 24h-37v30l119 139h-197v36h243v-36l-117 -136v-1q60 -2 96 -35.5t36 -87.5t-38 -90t-100 -36q-65 0 -100 34.5t-38 83.5h41q2 -33 25.5 -58.5t72.5 -25.5
q46 0 70.5 26t24.5 62z" />
    <glyph glyph-name="twothirds" unicode="&#x2154;" horiz-adv-x="955" 
d="M50 290v40q0 39 20 67t61 57l78 55q33 24 44 44.5t11 41.5v8q0 31 -20.5 53.5t-62.5 22.5q-41 0 -65 -24t-24 -66h-41q1 57 38 90.5t92 33.5q57 0 91 -31.5t34 -80.5q0 -33 -16 -61.5t-59 -59.5l-80 -57q-31 -22 -45.5 -43t-14.5 -49v-6h224v-35h-265zM207 0l459 704h47
l-459 -704h-47zM863 114v8q0 39 -27 63t-74 24h-37v30l119 139h-197v36h243v-36l-117 -136v-1q60 -2 96 -35.5t36 -87.5t-38 -90t-100 -36q-65 0 -100 34.5t-38 83.5h41q2 -33 25.5 -58.5t72.5 -25.5q46 0 70.5 26t24.5 62z" />
    <glyph glyph-name="uni215A" unicode="&#x215a;" horiz-adv-x="929" 
d="M65 477v227h242v-35h-204v-153q15 29 41 42t57 13q62 0 95 -41.5t33 -101.5q0 -61 -37.5 -103.5t-104.5 -42.5q-60 0 -96.5 33.5t-40.5 84.5h42q1 -34 26 -59t69 -25q51 0 75.5 33t24.5 76v6q0 43 -22.5 74t-71.5 31q-33 0 -55.5 -15.5t-34.5 -43.5h-38zM204 0l459 704
h47l-459 -704h-47zM871 136q0 -61 -40 -102.5t-103 -41.5q-62 0 -101.5 42.5t-39.5 103.5q0 31 11 61.5t35 64.5l108 150h47l-120 -163q14 12 31.5 18.5t40.5 6.5q57 0 94 -39.5t37 -100.5zM627 139v-7q0 -39 27 -72.5t76 -33.5t75 32.5t26 73.5v7q0 42 -25 73t-76 31
q-46 0 -74.5 -31t-28.5 -73z" />
    <glyph glyph-name="oneeighth" unicode="&#x215b;" horiz-adv-x="936" 
d="M152 290v308h-102v35h102v71h41v-414h-41zM178 0l459 704h47l-459 -704h-47zM799 219v-1q37 -7 62 -35.5t25 -71.5q0 -53 -41 -86t-103 -33t-103 33t-41 86q0 43 25 71.5t62 35.5v1q-34 8 -54.5 34t-20.5 59q0 49 37.5 80t94.5 31t94.5 -31t37.5 -80q0 -33 -20.5 -59
t-54.5 -34zM650 313v-5q0 -31 26 -53t66 -22t66 22t26 53v5q0 32 -25 54t-67 22t-67 -22t-25 -54zM639 117v-7q0 -36 28.5 -60.5t74.5 -24.5t74.5 24.5t28.5 60.5v7q0 36 -28 60t-75 24t-75 -24t-28 -60z" />
    <glyph glyph-name="threeeighths" unicode="&#x215c;" horiz-adv-x="949" 
d="M284 404v8q0 39 -27 63t-74 24h-37v30l119 139h-197v36h243v-36l-117 -136v-1q60 -2 96 -35.5t36 -87.5t-38 -90t-100 -36q-65 0 -100 34.5t-38 83.5h41q2 -33 25.5 -58.5t72.5 -25.5q46 0 70.5 26t24.5 62zM211 0l459 704h47l-459 -704h-47zM812 219v-1q37 -7 62 -35.5
t25 -71.5q0 -53 -41 -86t-103 -33t-103 33t-41 86q0 43 25 71.5t62 35.5v1q-34 8 -54.5 34t-20.5 59q0 49 37.5 80t94.5 31t94.5 -31t37.5 -80q0 -33 -20.5 -59t-54.5 -34zM663 313v-5q0 -31 26 -53t66 -22t66 22t26 53v5q0 32 -25 54t-67 22t-67 -22t-25 -54zM652 117v-7
q0 -36 28.5 -60.5t74.5 -24.5t74.5 24.5t28.5 60.5v7q0 36 -28 60t-75 24t-75 -24t-28 -60z" />
    <glyph glyph-name="fiveeighths" unicode="&#x215d;" horiz-adv-x="942" 
d="M65 477v227h242v-35h-204v-153q15 29 41 42t57 13q62 0 95 -41.5t33 -101.5q0 -61 -37.5 -103.5t-104.5 -42.5q-60 0 -96.5 33.5t-40.5 84.5h42q1 -34 26 -59t69 -25q51 0 75.5 33t24.5 76v6q0 43 -22.5 74t-71.5 31q-33 0 -55.5 -15.5t-34.5 -43.5h-38zM204 0l459 704
h47l-459 -704h-47zM805 219v-1q37 -7 62 -35.5t25 -71.5q0 -53 -41 -86t-103 -33t-103 33t-41 86q0 43 25 71.5t62 35.5v1q-34 8 -54.5 34t-20.5 59q0 49 37.5 80t94.5 31t94.5 -31t37.5 -80q0 -33 -20.5 -59t-54.5 -34zM656 313v-5q0 -31 26 -53t66 -22t66 22t26 53v5
q0 32 -25 54t-67 22t-67 -22t-25 -54zM645 117v-7q0 -36 28.5 -60.5t74.5 -24.5t74.5 24.5t28.5 60.5v7q0 36 -28 60t-75 24t-75 -24t-28 -60z" />
    <glyph glyph-name="seveneighths" unicode="&#x215e;" horiz-adv-x="902" 
d="M78 290l198 379h-226v35h268v-35l-196 -379h-44zM144 0l459 704h47l-459 -704h-47zM765 219v-1q37 -7 62 -35.5t25 -71.5q0 -53 -41 -86t-103 -33t-103 33t-41 86q0 43 25 71.5t62 35.5v1q-34 8 -54.5 34t-20.5 59q0 49 37.5 80t94.5 31t94.5 -31t37.5 -80
q0 -33 -20.5 -59t-54.5 -34zM616 313v-5q0 -31 26 -53t66 -22t66 22t26 53v5q0 32 -25 54t-67 22t-67 -22t-25 -54zM605 117v-7q0 -36 28.5 -60.5t74.5 -24.5t74.5 24.5t28.5 60.5v7q0 36 -28 60t-75 24t-75 -24t-28 -60z" />
    <glyph glyph-name="arrowleft" unicode="&#x2190;" horiz-adv-x="832" 
d="M760 302v-40h-644l245 -245h-56l-265 265l265 265h56l-245 -245h644z" />
    <glyph glyph-name="arrowup" unicode="&#x2191;" horiz-adv-x="666" 
d="M353 0h-40v644l-245 -245v56l265 265l265 -265v-56l-245 245v-644z" />
    <glyph glyph-name="arrowright" unicode="&#x2192;" horiz-adv-x="832" 
d="M72 262v40h644l-245 245h56l265 -265l-265 -265h-56l245 245h-644z" />
    <glyph glyph-name="arrowdown" unicode="&#x2193;" horiz-adv-x="666" 
d="M313 704h40v-644l245 245v-56l-265 -265l-265 265v56l245 -245v644z" />
    <glyph glyph-name="uni2196" unicode="&#x2196;" horiz-adv-x="782" 
d="M651 52l-28 -28l-456 455v-346l-39 39v375h374l40 -39h-346z" />
    <glyph glyph-name="uni2197" unicode="&#x2197;" horiz-adv-x="782" 
d="M128 52l455 456h-346l40 39h374v-375l-39 -39v346l-456 -455z" />
    <glyph glyph-name="uni2198" unicode="&#x2198;" horiz-adv-x="782" 
d="M128 519l28 28l456 -455v346l39 -39v-375h-374l-40 39h346z" />
    <glyph glyph-name="uni2199" unicode="&#x2199;" horiz-adv-x="782" 
d="M654 519l-455 -456h346l-40 -39h-374v375l39 39v-346l456 455z" />
    <glyph glyph-name="minus" unicode="&#x2212;" horiz-adv-x="590" 
d="M40 300v40h510v-40h-510z" />
    <glyph glyph-name="approxequal" unicode="&#x2248;" horiz-adv-x="590" 
d="M50 355q0 22 7 44t22 40t37.5 29t53.5 11q35 0 66.5 -16.5t60.5 -35.5t58.5 -35.5t61.5 -16.5q34 0 57 27t24 64h42q0 -54 -36 -92.5t-90 -38.5q-43 0 -76 16.5t-61 35.5t-54.5 35.5t-56.5 16.5q-35 0 -54 -26.5t-20 -57.5h-42zM50 136q0 22 7 44t22 40t37.5 29t53.5 11
q35 0 66.5 -16.5t60.5 -35.5t58.5 -35.5t61.5 -16.5q34 0 57 27t24 64h42q0 -54 -36 -92.5t-90 -38.5q-43 0 -76 16.5t-61 35.5t-54.5 35.5t-56.5 16.5q-35 0 -54 -26.5t-20 -57.5h-42z" />
    <glyph glyph-name="notequal" unicode="&#x2260;" horiz-adv-x="590" 
d="M128 29l86 171h-169v40h189l81 160h-270v40h290l87 172h40l-87 -172h170v-40h-190l-81 -160h271v-40h-291l-86 -171h-40z" />
    <glyph glyph-name="lessequal" unicode="&#x2264;" horiz-adv-x="590" 
d="M520 193l-480 161v44l480 162v-46l-420 -138l420 -137v-46zM40 44v40h480v-40h-480z" />
    <glyph glyph-name="greaterequal" unicode="&#x2265;" horiz-adv-x="590" 
d="M70 193v46l420 137l-420 138v46l480 -162v-44zM550 44h-480v40h480v-40z" />
    <glyph glyph-name="uni2460" unicode="&#x2460;" 
d="M762 353q0 -84 -29.5 -152.5t-79.5 -116t-116.5 -73t-140.5 -25.5t-140.5 25.5t-116.5 73t-79.5 116t-29.5 152.5t29.5 152.5t79.5 115.5t116.5 72.5t140.5 25.5t140.5 -25.5t116.5 -72.5t79.5 -115.5t29.5 -152.5zM73 353q0 -75 26 -136t70 -103t103 -65t124 -23t124 23
t103 65t70 103t26 136t-26 135.5t-70 102.5t-103 65t-124 23t-124 -23t-103 -65t-70 -102.5t-26 -135.5zM383 148v308h-102v35h102v71h41v-414h-41z" />
    <glyph glyph-name="uni2461" unicode="&#x2461;" 
d="M762 353q0 -84 -29.5 -152.5t-79.5 -116t-116.5 -73t-140.5 -25.5t-140.5 25.5t-116.5 73t-79.5 116t-29.5 152.5t29.5 152.5t79.5 115.5t116.5 72.5t140.5 25.5t140.5 -25.5t116.5 -72.5t79.5 -115.5t29.5 -152.5zM73 353q0 -75 26 -136t70 -103t103 -65t124 -23t124 23
t103 65t70 103t26 136t-26 135.5t-70 102.5t-103 65t-124 23t-124 -23t-103 -65t-70 -102.5t-26 -135.5zM264 148v40q0 39 20 67t61 57l78 55q33 24 44 44.5t11 41.5v8q0 31 -20.5 53.5t-62.5 22.5q-41 0 -65 -24t-24 -66h-41q1 57 38 90.5t92 33.5q57 0 91 -31.5t34 -80.5
q0 -33 -16 -61.5t-59 -59.5l-80 -57q-31 -22 -45.5 -43t-14.5 -49v-6h224v-35h-265z" />
    <glyph glyph-name="uni2462" unicode="&#x2462;" 
d="M762 353q0 -84 -29.5 -152.5t-79.5 -116t-116.5 -73t-140.5 -25.5t-140.5 25.5t-116.5 73t-79.5 116t-29.5 152.5t29.5 152.5t79.5 115.5t116.5 72.5t140.5 25.5t140.5 -25.5t116.5 -72.5t79.5 -115.5t29.5 -152.5zM73 353q0 -75 26 -136t70 -103t103 -65t124 -23t124 23
t103 65t70 103t26 136t-26 135.5t-70 102.5t-103 65t-124 23t-124 -23t-103 -65t-70 -102.5t-26 -135.5zM492 262v8q0 39 -27 63t-74 24h-37v30l119 139h-197v36h243v-36l-117 -136v-1q60 -2 96 -35.5t36 -87.5t-38 -90t-100 -36q-65 0 -100 34.5t-38 83.5h41
q2 -33 25.5 -58.5t72.5 -25.5q46 0 70.5 26t24.5 62z" />
    <glyph glyph-name="uni2463" unicode="&#x2463;" 
d="M762 353q0 -84 -29.5 -152.5t-79.5 -116t-116.5 -73t-140.5 -25.5t-140.5 25.5t-116.5 73t-79.5 116t-29.5 152.5t29.5 152.5t79.5 115.5t116.5 72.5t140.5 25.5t140.5 -25.5t116.5 -72.5t79.5 -115.5t29.5 -152.5zM73 353q0 -75 26 -136t70 -103t103 -65t124 -23t124 23
t103 65t70 103t26 136t-26 135.5t-70 102.5t-103 65t-124 23t-124 -23t-103 -65t-70 -102.5t-26 -135.5zM214 258v33l199 271h47v-269h69v-35h-69v-110h-41v110h-205zM256 294v-1h163v221z" />
    <glyph glyph-name="uni2464" unicode="&#x2464;" 
d="M762 353q0 -84 -29.5 -152.5t-79.5 -116t-116.5 -73t-140.5 -25.5t-140.5 25.5t-116.5 73t-79.5 116t-29.5 152.5t29.5 152.5t79.5 115.5t116.5 72.5t140.5 25.5t140.5 -25.5t116.5 -72.5t79.5 -115.5t29.5 -152.5zM73 353q0 -75 26 -136t70 -103t103 -65t124 -23t124 23
t103 65t70 103t26 136t-26 135.5t-70 102.5t-103 65t-124 23t-124 -23t-103 -65t-70 -102.5t-26 -135.5zM272 335v227h242v-35h-204v-153q15 29 41 42t57 13q62 0 95 -41.5t33 -101.5q0 -61 -37.5 -103.5t-104.5 -42.5q-60 0 -96.5 33.5t-40.5 84.5h42q1 -34 26 -59t69 -25
q51 0 75.5 33t24.5 76v6q0 43 -22.5 74t-71.5 31q-33 0 -55.5 -15.5t-34.5 -43.5h-38z" />
    <glyph glyph-name="uni2465" unicode="&#x2465;" 
d="M762 353q0 -84 -29.5 -152.5t-79.5 -116t-116.5 -73t-140.5 -25.5t-140.5 25.5t-116.5 73t-79.5 116t-29.5 152.5t29.5 152.5t79.5 115.5t116.5 72.5t140.5 25.5t140.5 -25.5t116.5 -72.5t79.5 -115.5t29.5 -152.5zM73 353q0 -75 26 -136t70 -103t103 -65t124 -23t124 23
t103 65t70 103t26 136t-26 135.5t-70 102.5t-103 65t-124 23t-124 -23t-103 -65t-70 -102.5t-26 -135.5zM539 283q0 -61 -40 -102.5t-103 -41.5q-62 0 -101.5 42.5t-39.5 103.5q0 31 11 61.5t35 64.5l108 150h47l-120 -163q14 12 31.5 18.5t40.5 6.5q57 0 94 -39.5
t37 -100.5zM295 286v-7q0 -39 27 -72.5t76 -33.5t75 32.5t26 73.5v7q0 42 -25 73t-76 31q-46 0 -74.5 -31t-28.5 -73z" />
    <glyph glyph-name="uni2466" unicode="&#x2466;" 
d="M762 353q0 -84 -29.5 -152.5t-79.5 -116t-116.5 -73t-140.5 -25.5t-140.5 25.5t-116.5 73t-79.5 116t-29.5 152.5t29.5 152.5t79.5 115.5t116.5 72.5t140.5 25.5t140.5 -25.5t116.5 -72.5t79.5 -115.5t29.5 -152.5zM73 353q0 -75 26 -136t70 -103t103 -65t124 -23t124 23
t103 65t70 103t26 136t-26 135.5t-70 102.5t-103 65t-124 23t-124 -23t-103 -65t-70 -102.5t-26 -135.5zM290 148l198 379h-226v35h268v-35l-196 -379h-44z" />
    <glyph glyph-name="uni2467" unicode="&#x2467;" 
d="M762 353q0 -84 -29.5 -152.5t-79.5 -116t-116.5 -73t-140.5 -25.5t-140.5 25.5t-116.5 73t-79.5 116t-29.5 152.5t29.5 152.5t79.5 115.5t116.5 72.5t140.5 25.5t140.5 -25.5t116.5 -72.5t79.5 -115.5t29.5 -152.5zM73 353q0 -75 26 -136t70 -103t103 -65t124 -23t124 23
t103 65t70 103t26 136t-26 135.5t-70 102.5t-103 65t-124 23t-124 -23t-103 -65t-70 -102.5t-26 -135.5zM453 366v-1q37 -7 62 -35.5t25 -71.5q0 -53 -41 -86t-103 -33t-103 33t-41 86q0 43 25 71.5t62 35.5v1q-34 8 -54.5 34t-20.5 59q0 49 37.5 80t94.5 31t94.5 -31
t37.5 -80q0 -33 -20.5 -59t-54.5 -34zM304 460v-5q0 -31 26 -53t66 -22t66 22t26 53v5q0 32 -25 54t-67 22t-67 -22t-25 -54zM293 264v-7q0 -36 28.5 -60.5t74.5 -24.5t74.5 24.5t28.5 60.5v7q0 36 -28 60t-75 24t-75 -24t-28 -60z" />
    <glyph glyph-name="uni2468" unicode="&#x2468;" 
d="M762 353q0 -84 -29.5 -152.5t-79.5 -116t-116.5 -73t-140.5 -25.5t-140.5 25.5t-116.5 73t-79.5 116t-29.5 152.5t29.5 152.5t79.5 115.5t116.5 72.5t140.5 25.5t140.5 -25.5t116.5 -72.5t79.5 -115.5t29.5 -152.5zM73 353q0 -75 26 -136t70 -103t103 -65t124 -23t124 23
t103 65t70 103t26 136t-26 135.5t-70 102.5t-103 65t-124 23t-124 -23t-103 -65t-70 -102.5t-26 -135.5zM254 427q0 61 40 102.5t103 41.5q62 0 101.5 -42.5t39.5 -103.5q0 -31 -11 -61.5t-35 -64.5l-108 -150h-47l120 162q-14 -11 -31.5 -17.5t-40.5 -6.5q-57 0 -94 39.5
t-37 100.5zM498 424v7q0 39 -27 72.5t-76 33.5t-74.5 -32.5t-25.5 -73.5v-7q0 -42 24.5 -73t75.5 -31q46 0 74.5 31t28.5 73z" />
    <glyph glyph-name="uni24EA" unicode="&#x24ea;" 
d="M762 353q0 -85 -29.5 -153.5t-79.5 -116t-116.5 -73t-140.5 -25.5t-140.5 25.5t-116.5 73t-79.5 116t-29.5 153.5q0 84 29.5 152.5t79.5 115.5t116.5 72.5t140.5 25.5t140.5 -25.5t116.5 -72.5t79.5 -115.5t29.5 -152.5zM75 353q0 -75 26 -136t69.5 -103t102 -64.5
t123.5 -22.5t123.5 22.5t102 64.5t69.5 103t26 136q0 74 -26 134.5t-69.5 102.5t-102 64.5t-123.5 22.5t-123.5 -22.5t-102 -64.5t-69.5 -102.5t-26 -134.5zM396 570q64 0 101.5 -40t37.5 -109v-132q0 -70 -38 -110t-101 -40q-64 0 -101.5 40t-37.5 110v132q0 69 37.5 109
t101.5 40zM396 175q46 0 71.5 30.5t25.5 83.5v132q0 51 -25.5 82t-71.5 31t-72 -31t-26 -82v-132q0 -53 26 -83.5t72 -30.5z" />
    <glyph glyph-name="uni24FF" unicode="&#x24ff;" 
d="M762 353q0 -85 -29.5 -153.5t-79.5 -116t-116.5 -73t-140.5 -25.5t-140.5 25.5t-116.5 73t-79.5 116t-29.5 153.5q0 84 29.5 152.5t79.5 115.5t116.5 72.5t140.5 25.5t140.5 -25.5t116.5 -72.5t79.5 -115.5t29.5 -152.5zM396 570q-64 0 -101.5 -40t-37.5 -109v-132
q0 -70 37.5 -110t101.5 -40q63 0 101 40t38 110v132q0 69 -37.5 109t-101.5 40zM396 175q-46 0 -72 30.5t-26 83.5v132q0 51 26 82t72 31t71.5 -31t25.5 -82v-132q0 -53 -25.5 -83.5t-71.5 -30.5z" />
    <glyph glyph-name="uni25B4" unicode="&#x25b4;" horiz-adv-x="566" 
d="M60 182l223 363l223 -363h-446z" />
    <glyph glyph-name="uni25B5" unicode="&#x25b5;" horiz-adv-x="566" 
d="M60 182l223 363l223 -363h-446zM283 482l-167 -270h334z" />
    <glyph glyph-name="uni25B8" unicode="&#x25b8;" horiz-adv-x="566" 
d="M102 586l363 -223l-363 -223v446z" />
    <glyph glyph-name="uni25B9" unicode="&#x25b9;" horiz-adv-x="566" 
d="M102 586l363 -223l-363 -223v446zM402 363l-270 167v-334z" />
    <glyph glyph-name="uni25BE" unicode="&#x25be;" horiz-adv-x="566" 
d="M506 544l-223 -363l-223 363h446z" />
    <glyph glyph-name="uni25BF" unicode="&#x25bf;" horiz-adv-x="566" 
d="M506 544l-223 -363l-223 363h446zM283 244l167 270h-334z" />
    <glyph glyph-name="uni25C2" unicode="&#x25c2;" horiz-adv-x="566" 
d="M464 140l-363 223l363 223v-446z" />
    <glyph glyph-name="uni25C3" unicode="&#x25c3;" horiz-adv-x="566" 
d="M464 140l-363 223l363 223v-446zM164 363l270 -167v334z" />
    <glyph glyph-name="uni2776" unicode="&#x2776;" 
d="M762 353q0 -85 -29.5 -153.5t-79.5 -116t-116.5 -73t-140.5 -25.5t-140.5 25.5t-116.5 73t-79.5 116t-29.5 153.5q0 84 29.5 152.5t79.5 115.5t116.5 72.5t140.5 25.5t140.5 -25.5t116.5 -72.5t79.5 -115.5t29.5 -152.5zM383 148h41v414h-41v-71h-102v-35h102v-308z" />
    <glyph glyph-name="uni2777" unicode="&#x2777;" 
d="M762 353q0 -85 -29.5 -153.5t-79.5 -116t-116.5 -73t-140.5 -25.5t-140.5 25.5t-116.5 73t-79.5 116t-29.5 153.5q0 84 29.5 152.5t79.5 115.5t116.5 72.5t140.5 25.5t140.5 -25.5t116.5 -72.5t79.5 -115.5t29.5 -152.5zM264 148h265v35h-224v6q0 28 14.5 49t45.5 43
l80 57q43 31 59 59.5t16 61.5q0 49 -34 80.5t-91 31.5q-55 0 -92 -33.5t-38 -90.5h41q0 42 24 66t65 24q42 0 62.5 -22.5t20.5 -53.5v-8q0 -21 -11 -41.5t-44 -44.5l-78 -55q-41 -29 -61 -57t-20 -67v-40z" />
    <glyph glyph-name="uni2778" unicode="&#x2778;" 
d="M762 353q0 -85 -29.5 -153.5t-79.5 -116t-116.5 -73t-140.5 -25.5t-140.5 25.5t-116.5 73t-79.5 116t-29.5 153.5q0 84 29.5 152.5t79.5 115.5t116.5 72.5t140.5 25.5t140.5 -25.5t116.5 -72.5t79.5 -115.5t29.5 -152.5zM492 262q0 -36 -24.5 -62t-70.5 -26
q-49 0 -72.5 25.5t-25.5 58.5h-41q3 -49 38 -83.5t100 -34.5q62 0 100 36t38 90t-36 87.5t-96 35.5v1l117 136v36h-243v-36h197l-119 -139v-30h37q47 0 74 -24t27 -63v-8z" />
    <glyph glyph-name="uni2779" unicode="&#x2779;" 
d="M762 353q0 -85 -29.5 -153.5t-79.5 -116t-116.5 -73t-140.5 -25.5t-140.5 25.5t-116.5 73t-79.5 116t-29.5 153.5q0 84 29.5 152.5t79.5 115.5t116.5 72.5t140.5 25.5t140.5 -25.5t116.5 -72.5t79.5 -115.5t29.5 -152.5zM214 258h205v-110h41v110h69v35h-69v269h-47
l-199 -271v-33zM256 294l163 220v-221h-163v1z" />
    <glyph glyph-name="uni277A" unicode="&#x277a;" 
d="M762 353q0 -85 -29.5 -153.5t-79.5 -116t-116.5 -73t-140.5 -25.5t-140.5 25.5t-116.5 73t-79.5 116t-29.5 153.5q0 84 29.5 152.5t79.5 115.5t116.5 72.5t140.5 25.5t140.5 -25.5t116.5 -72.5t79.5 -115.5t29.5 -152.5zM272 335h38q12 28 34.5 43.5t55.5 15.5
q49 0 71.5 -31t22.5 -74v-6q0 -43 -24.5 -76t-75.5 -33q-44 0 -69 25t-26 59h-42q4 -51 40.5 -84.5t96.5 -33.5q67 0 104.5 42.5t37.5 103.5q0 60 -33 101.5t-95 41.5q-31 0 -57 -13t-41 -42v153h204v35h-242v-227z" />
    <glyph glyph-name="uni277B" unicode="&#x277b;" 
d="M762 353q0 -85 -29.5 -153.5t-79.5 -116t-116.5 -73t-140.5 -25.5t-140.5 25.5t-116.5 73t-79.5 116t-29.5 153.5q0 84 29.5 152.5t79.5 115.5t116.5 72.5t140.5 25.5t140.5 -25.5t116.5 -72.5t79.5 -115.5t29.5 -152.5zM539 283q0 61 -37 100.5t-94 39.5
q-23 0 -40.5 -6.5t-31.5 -18.5l120 163h-47l-108 -150q-24 -34 -35 -64.5t-11 -61.5q0 -61 39.5 -103.5t101.5 -42.5q63 0 103 41.5t40 102.5zM295 286q0 42 28.5 73t74.5 31q51 0 76 -31t25 -73v-7q0 -41 -26 -73.5t-75 -32.5t-76 33.5t-27 72.5v7z" />
    <glyph glyph-name="uni277C" unicode="&#x277c;" 
d="M762 353q0 -85 -29.5 -153.5t-79.5 -116t-116.5 -73t-140.5 -25.5t-140.5 25.5t-116.5 73t-79.5 116t-29.5 153.5q0 84 29.5 152.5t79.5 115.5t116.5 72.5t140.5 25.5t140.5 -25.5t116.5 -72.5t79.5 -115.5t29.5 -152.5zM290 148h44l196 379v35h-268v-35h226z" />
    <glyph glyph-name="uni277D" unicode="&#x277d;" 
d="M762 353q0 -85 -29.5 -153.5t-79.5 -116t-116.5 -73t-140.5 -25.5t-140.5 25.5t-116.5 73t-79.5 116t-29.5 153.5q0 84 29.5 152.5t79.5 115.5t116.5 72.5t140.5 25.5t140.5 -25.5t116.5 -72.5t79.5 -115.5t29.5 -152.5zM453 366q34 8 54.5 34t20.5 59q0 49 -37.5 80
t-94.5 31t-94.5 -31t-37.5 -80q0 -33 20.5 -59t54.5 -34v-1q-37 -7 -62 -35.5t-25 -71.5q0 -53 41 -86t103 -33t103 33t41 86q0 43 -25 71.5t-62 35.5v1zM304 460q0 32 25 54t67 22t67 -22t25 -54v-5q0 -31 -26 -53t-66 -22t-66 22t-26 53v5zM293 264q0 36 28 60t75 24
t75 -24t28 -60v-7q0 -36 -28.5 -60.5t-74.5 -24.5t-74.5 24.5t-28.5 60.5v7z" />
    <glyph glyph-name="uni277E" unicode="&#x277e;" 
d="M762 353q0 -85 -29.5 -153.5t-79.5 -116t-116.5 -73t-140.5 -25.5t-140.5 25.5t-116.5 73t-79.5 116t-29.5 153.5q0 84 29.5 152.5t79.5 115.5t116.5 72.5t140.5 25.5t140.5 -25.5t116.5 -72.5t79.5 -115.5t29.5 -152.5zM252 427q0 -61 37 -100.5t94 -39.5q23 0 40.5 6.5
t31.5 17.5l-120 -162h47l108 150q24 34 35 64.5t11 61.5q0 61 -39.5 103.5t-101.5 42.5q-63 0 -103 -41.5t-40 -102.5zM496 424q0 -42 -28.5 -73t-74.5 -31q-51 0 -75.5 31t-24.5 73v7q0 41 25.5 73.5t74.5 32.5t76 -33.5t27 -72.5v-7z" />
    <glyph glyph-name="commaaccent" unicode="&#xf6c3;" horiz-adv-x="232" 
d="M82 -209h-44l38 115h50z" />
    <glyph glyph-name="IJacute" horiz-adv-x="814" 
d="M104 704h48v-704h-48v704zM194 936h57l-104 -138h-40zM516 -15q-101 0 -155.5 64t-54.5 166v54h47v-53q0 -84 42.5 -136.5t120.5 -52.5q81 0 121.5 52.5t40.5 136.5v488h48v-489q0 -102 -55 -166t-155 -64zM762 938h57l-104 -138h-40z" />
    <glyph glyph-name="Jacute" horiz-adv-x="558" 
d="M260 -15q-101 0 -155.5 64t-54.5 166v54h47v-53q0 -84 42.5 -136.5t120.5 -52.5q81 0 121.5 52.5t40.5 136.5v488h48v-489q0 -102 -55 -166t-155 -64zM506 938h57l-104 -138h-40z" />
    <glyph glyph-name="blackcircle" horiz-adv-x="570" 
d="M285 122q-34 0 -64 13t-52.5 35.5t-35.5 52.5t-13 64q0 68 48.5 116.5t116.5 48.5t116.5 -48.5t48.5 -116.5q0 -34 -13 -64t-35.5 -52.5t-52.5 -35.5t-64 -13z" />
    <glyph glyph-name="blackdiamond" horiz-adv-x="570" 
d="M285 74l-223 223l223 223l223 -223z" />
    <glyph glyph-name="blackdownpointingtriangle" horiz-adv-x="740" 
d="M376 -2l-326 668h640z" />
    <glyph glyph-name="blackleftpointingtriangle" horiz-adv-x="740" 
d="M30 326l603 326v-640z" />
    <glyph glyph-name="blackrightpointingtriangle" horiz-adv-x="740" 
d="M709 338l-603 -326v640z" />
    <glyph glyph-name="blacksquare" horiz-adv-x="570" 
d="M127 132v316h316v-316h-316z" />
    <glyph glyph-name="blacktriangle" horiz-adv-x="570" 
d="M141 74v446l363 -223z" />
    <glyph glyph-name="blackuppointingtriangle" horiz-adv-x="740" 
d="M364 668l326 -668h-640z" />
    <glyph glyph-name="commatest" horiz-adv-x="500" 
d="M73 -62h57l-104 -138h-40z" />
    <glyph glyph-name="dotbelow" horiz-adv-x="499" 
d="M250 -175h-2q-16 0 -27 11t-11 27t11 27t27 11h2q16 0 27 -11t11 -27t-11 -27t-27 -11z" />
    <glyph glyph-name="idotaccent" horiz-adv-x="222" 
d="M88 510h46v-510h-46v510zM112 643h-2q-16 0 -27 11t-11 27t11 27t27 11h2q16 0 27 -11t11 -27t-11 -27t-27 -11z" />
    <glyph glyph-name="ijacute" horiz-adv-x="448" 
d="M87 510h46v-510h-46v510zM176 742h57l-104 -138h-40zM312 -86v596h46v-595q0 -54 -25 -80t-82 -26h-88v41h86q34 0 48.5 15t14.5 49zM402 743h57l-104 -138h-40z" />
    <glyph glyph-name="jacute" horiz-adv-x="232" 
d="M88 -86v596h46v-595q0 -54 -25 -80t-82 -26h-88v41h86q34 0 48.5 15t14.5 49zM178 743h57l-104 -138h-40z" />
    <glyph glyph-name="ringacute" horiz-adv-x="498" 
d="M249 576q-41 0 -71.5 25.5t-30.5 69.5q0 39 24.5 63.5t58.5 30.5l85 134h57l-102 -135q34 -6 57.5 -30.5t23.5 -62.5q0 -44 -30 -69.5t-72 -25.5zM249 606q28 0 49 17t21 48t-21 48t-49 17t-48.5 -17t-20.5 -48t20.5 -48t48.5 -17z" />
    <glyph glyph-name="whitediamond" horiz-adv-x="570" 
d="M285 74l-223 223l223 223l223 -223zM108 297l177 -177l177 177l-177 177z" />
    <glyph glyph-name="whitedownpointingtriangle" horiz-adv-x="740" 
d="M376 -2l-326 668h640zM375 89l257 541h-521z" />
    <glyph glyph-name="whiteleftpointingtriangle" horiz-adv-x="740" 
d="M30 326l603 326v-640zM597 593l-491 -265l491 -259v524z" />
    <glyph glyph-name="whiterightpointingtriangle" horiz-adv-x="740" 
d="M709 338l-603 -326v640zM142 71l491 265l-491 259v-524z" />
    <glyph glyph-name="whitesquare" horiz-adv-x="570" 
d="M127 132v316h316v-316h-316zM161 414v-248h248v248h-248z" />
    <glyph glyph-name="whitetriangle" horiz-adv-x="570" 
d="M141 74v446l363 -223zM175 460v-326l266 163z" />
    <glyph glyph-name="whiteuppointingtriangle" horiz-adv-x="740" 
d="M364 668l326 -668h-640zM365 577l-257 -541h521z" />
    <glyph glyph-name="www" horiz-adv-x="2198" 
d="M24 510h49l150 -457h1l146 457h54l151 -456h1l145 456h54l150 -457h1l146 457h54l151 -456h1l146 456h54l150 -457h1l146 457h54l151 -456h1l145 456h48l-169 -510h-53l-150 453h-1l-147 -453h-53l-152 455h-1l-146 -455h-53l-150 453h-1l-147 -453h-53l-149 454h-1
l-148 -454h-53l-150 453h-1l-147 -453h-53z" />
    <glyph glyph-name="f_b" horiz-adv-x="995" 
d="M140 0v469h-122v41h122v120q0 54 25 80t82 26h119v-41h-117q-34 0 -48.5 -15t-14.5 -49v-121h290v232h46v-344h1q25 59 74.5 92.5t115.5 33.5q50 0 92 -19.5t72 -54.5t47 -85t17 -110t-16.5 -109.5t-46 -85t-72 -55t-93.5 -19.5q-67 0 -116.5 33.5t-73.5 91.5h-1v-111
h-46v469h-290v-469h-46zM894 240v30q0 50 -15 89.5t-40 67t-59 42t-72 14.5t-72 -15t-59 -42.5t-40 -67t-15 -88.5v-30q0 -48 15 -87.5t40 -67.5t59 -43t72 -15t72 14.5t59 41.5t40 67t15 90z" />
    <glyph glyph-name="f_f_b" horiz-adv-x="1331" 
d="M140 0v469h-122v41h122v120q0 54 25 80t82 26h119v-41h-117q-34 0 -48.5 -15t-14.5 -49v-121h290v120q0 54 25 80t82 26h119v-41h-117q-34 0 -48.5 -15t-14.5 -49v-121h290v232h46v-344h1q25 59 74.5 92.5t115.5 33.5q50 0 92 -19.5t72 -54.5t47 -85t17 -110
t-16.5 -109.5t-46 -85t-72 -55t-93.5 -19.5q-67 0 -116.5 33.5t-73.5 91.5h-1v-111h-46v469h-290v-469h-46v469h-290v-469h-46zM1230 240v30q0 50 -15 89.5t-40 67t-59 42t-72 14.5t-72 -15t-59 -42.5t-40 -67t-15 -88.5v-30q0 -48 15 -87.5t40 -67.5t59 -43t72 -15t72 14.5
t59 41.5t40 67t15 90z" />
    <glyph glyph-name="f_f_h" horiz-adv-x="1308" 
d="M140 0v469h-122v41h122v120q0 54 25 80t82 26h119v-41h-117q-34 0 -48.5 -15t-14.5 -49v-121h290v120q0 54 25 80t82 26h119v-41h-117q-34 0 -48.5 -15t-14.5 -49v-121h290v232h45v-327h1q23 55 70 82t106 27q38 0 73 -12.5t61.5 -38.5t42 -65t15.5 -91v-317h-46v317
q0 84 -45 125t-108 41q-34 0 -64.5 -11.5t-53.5 -34.5t-37 -58t-14 -82v-297h-46v469h-290v-469h-46v469h-290v-469h-46z" />
    <glyph glyph-name="f_f_k" horiz-adv-x="1216" 
d="M140 0v469h-122v41h122v120q0 54 25 80t82 26h119v-41h-117q-34 0 -48.5 -15t-14.5 -49v-121h290v120q0 54 25 80t82 26h119v-41h-117q-34 0 -48.5 -15t-14.5 -49v-121h290v232h46v-742h-46v469h-290v-469h-46v469h-290v-469h-46zM1191 510l-269 -239l288 -271h-66
l-286 269l271 241h62z" />
    <glyph glyph-name="f_f_t" horiz-adv-x="1071" 
d="M140 0v469h-122v41h122v120q0 54 25 80t82 26h119v-41h-117q-34 0 -48.5 -15t-14.5 -49v-121h290v120q0 54 25 80t82 26h119v-41h-117q-34 0 -48.5 -15t-14.5 -49v-121h290v162h46v-162h178v-41h-178v-364q0 -34 14.5 -49t48.5 -15h116v-41h-118q-57 0 -82 26t-25 80v363
h-290v-469h-46v469h-290v-469h-46z" />
    <glyph glyph-name="f_h" horiz-adv-x="972" 
d="M140 0v469h-122v41h122v120q0 54 25 80t82 26h119v-41h-117q-34 0 -48.5 -15t-14.5 -49v-121h290v232h45v-327h1q23 55 70 82t106 27q38 0 73 -12.5t61.5 -38.5t42 -65t15.5 -91v-317h-46v317q0 84 -45 125t-108 41q-34 0 -64.5 -11.5t-53.5 -34.5t-37 -58t-14 -82v-297
h-46v469h-290v-469h-46z" />
    <glyph glyph-name="f_k" horiz-adv-x="880" 
d="M140 0v469h-122v41h122v120q0 54 25 80t82 26h119v-41h-117q-34 0 -48.5 -15t-14.5 -49v-121h290v232h46v-742h-46v469h-290v-469h-46zM855 510l-269 -239l288 -271h-66l-286 269l271 241h62z" />
    <glyph glyph-name="f_t" horiz-adv-x="735" 
d="M140 0v469h-122v41h122v120q0 54 25 80t82 26h119v-41h-117q-34 0 -48.5 -15t-14.5 -49v-121h290v162h46v-162h178v-41h-178v-364q0 -34 14.5 -49t48.5 -15h116v-41h-118q-57 0 -82 26t-25 80v363h-290v-469h-46z" />
    <glyph glyph-name="r_y" horiz-adv-x="862" 
d="M88 0v510h45v-87h1q13 37 46.5 62t94.5 25h156l182 -441h1l177 441h49l-239 -588q-12 -29 -23.5 -50.5t-28.5 -35.5t-42 -21t-63 -7h-63v41h63q26 0 43 3.5t29 13t21 27t21 44.5l31 74l-191 455h-132q-40 0 -66 -13.5t-40.5 -36t-20 -52t-5.5 -60.5v-304h-46z" />
    <glyph glyph-name="t_t" horiz-adv-x="726" 
d="M19 510h124v162h46v-162h278v162h46v-162h178v-41h-178v-364q0 -34 14.5 -49t48.5 -15h116v-41h-118q-57 0 -82 26t-25 80v363h-278v-364q0 -34 14.5 -49t48.5 -15h116v-41h-118q-57 0 -82 26t-25 80v363h-124v41z" />
    <glyph glyph-name="black_circle_downwards_arrow" 
d="M762 353q0 -84 -29.5 -152.5t-79.5 -116t-116.5 -73t-140.5 -25.5t-140.5 25.5t-116.5 73t-79.5 116t-29.5 152.5t29.5 152.5t79.5 115.5t116.5 72.5t140.5 25.5t140.5 -25.5t116.5 -72.5t79.5 -115.5t29.5 -152.5zM376 582v-358l-201 201v-56l221 -221l221 221v56
l-201 -201v358h-40z" />
    <glyph glyph-name="black_circle_leftwards_arrow" 
d="M762 353q0 -84 -29.5 -152.5t-79.5 -116t-116.5 -73t-140.5 -25.5t-140.5 25.5t-116.5 73t-79.5 116t-29.5 152.5t29.5 152.5t79.5 115.5t116.5 72.5t140.5 25.5t140.5 -25.5t116.5 -72.5t79.5 -115.5t29.5 -152.5zM614 373h-358l201 201h-56l-221 -221l221 -221h56
l-201 201h358v40z" />
    <glyph glyph-name="black_circle_north_east_arrow" 
d="M762 353q0 -84 -29.5 -152.5t-79.5 -116t-116.5 -73t-140.5 -25.5t-140.5 25.5t-116.5 73t-79.5 116t-29.5 152.5t29.5 152.5t79.5 115.5t116.5 72.5t140.5 25.5t140.5 -25.5t116.5 -72.5t79.5 -115.5t29.5 -152.5zM257 197l253 254v-285l39 40v312h-312l-40 -39h285
l-254 -253z" />
    <glyph glyph-name="black_circle_north_west_arrow" 
d="M762 353q0 -84 -29.5 -152.5t-79.5 -116t-116.5 -73t-140.5 -25.5t-140.5 25.5t-116.5 73t-79.5 116t-29.5 152.5t29.5 152.5t79.5 115.5t116.5 72.5t140.5 25.5t140.5 -25.5t116.5 -72.5t79.5 -115.5t29.5 -152.5zM564 226l-254 253h285l-40 39h-312v-312l39 -40v285
l253 -254z" />
    <glyph glyph-name="black_circle_rightwards_arrow" 
d="M762 353q0 -84 -29.5 -152.5t-79.5 -116t-116.5 -73t-140.5 -25.5t-140.5 25.5t-116.5 73t-79.5 116t-29.5 152.5t29.5 152.5t79.5 115.5t116.5 72.5t140.5 25.5t140.5 -25.5t116.5 -72.5t79.5 -115.5t29.5 -152.5zM180 333h358l-201 -201h56l221 221l-221 221h-56
l201 -201h-358v-40z" />
    <glyph glyph-name="black_circle_south_east_arrow" 
d="M762 353q0 -84 -29.5 -152.5t-79.5 -116t-116.5 -73t-140.5 -25.5t-140.5 25.5t-116.5 73t-79.5 116t-29.5 152.5t29.5 152.5t79.5 115.5t116.5 72.5t140.5 25.5t140.5 -25.5t116.5 -72.5t79.5 -115.5t29.5 -152.5zM257 497l-29 -29l254 -253h-285l40 -39h312v312l-39 40
v-285z" />
    <glyph glyph-name="black_circle_south_west_arrow" 
d="M762 353q0 -84 -29.5 -152.5t-79.5 -116t-116.5 -73t-140.5 -25.5t-140.5 25.5t-116.5 73t-79.5 116t-29.5 152.5t29.5 152.5t79.5 115.5t116.5 72.5t140.5 25.5t140.5 -25.5t116.5 -72.5t79.5 -115.5t29.5 -152.5zM564 468l-29 29l-253 -254v285l-39 -40v-312h312l40 39
h-285z" />
    <glyph glyph-name="black_circle_upwards_arrow" 
d="M762 353q0 -84 -29.5 -152.5t-79.5 -116t-116.5 -73t-140.5 -25.5t-140.5 25.5t-116.5 73t-79.5 116t-29.5 152.5t29.5 152.5t79.5 115.5t116.5 72.5t140.5 25.5t140.5 -25.5t116.5 -72.5t79.5 -115.5t29.5 -152.5zM416 148v358l201 -201v56l-221 221l-221 -221v-56
l201 201v-358h40z" />
    <glyph glyph-name="white_circle_downwards_arrow" 
d="M762 353q0 -84 -29.5 -152.5t-79.5 -116t-116.5 -73t-140.5 -25.5t-140.5 25.5t-116.5 73t-79.5 116t-29.5 152.5t29.5 152.5t79.5 115.5t116.5 72.5t140.5 25.5t140.5 -25.5t116.5 -72.5t79.5 -115.5t29.5 -152.5zM73 353q0 -75 26 -136t70 -103t103 -65t124 -23t124 23
t103 65t70 103t26 136t-26 135.5t-70 102.5t-103 65t-124 23t-124 -23t-103 -65t-70 -102.5t-26 -135.5zM376 582h40v-358l201 201v-56l-221 -221l-221 221v56l201 -201v358z" />
    <glyph glyph-name="white_circle_leftwards_arrow" 
d="M762 353q0 -84 -29.5 -152.5t-79.5 -116t-116.5 -73t-140.5 -25.5t-140.5 25.5t-116.5 73t-79.5 116t-29.5 152.5t29.5 152.5t79.5 115.5t116.5 72.5t140.5 25.5t140.5 -25.5t116.5 -72.5t79.5 -115.5t29.5 -152.5zM73 353q0 -75 26 -136t70 -103t103 -65t124 -23t124 23
t103 65t70 103t26 136t-26 135.5t-70 102.5t-103 65t-124 23t-124 -23t-103 -65t-70 -102.5t-26 -135.5zM614 373v-40h-358l201 -201h-56l-221 221l221 221h56l-201 -201h358z" />
    <glyph glyph-name="white_circle_north_east_arrow" 
d="M762 353q0 -84 -29.5 -152.5t-79.5 -116t-116.5 -73t-140.5 -25.5t-140.5 25.5t-116.5 73t-79.5 116t-29.5 152.5t29.5 152.5t79.5 115.5t116.5 72.5t140.5 25.5t140.5 -25.5t116.5 -72.5t79.5 -115.5t29.5 -152.5zM73 353q0 -75 26 -136t70 -103t103 -65t124 -23t124 23
t103 65t70 103t26 136t-26 135.5t-70 102.5t-103 65t-124 23t-124 -23t-103 -65t-70 -102.5t-26 -135.5zM257 197l-29 29l254 253h-285l40 39h312v-312l-39 -40v285z" />
    <glyph glyph-name="white_circle_north_west_arrow" 
d="M762 353q0 -84 -29.5 -152.5t-79.5 -116t-116.5 -73t-140.5 -25.5t-140.5 25.5t-116.5 73t-79.5 116t-29.5 152.5t29.5 152.5t79.5 115.5t116.5 72.5t140.5 25.5t140.5 -25.5t116.5 -72.5t79.5 -115.5t29.5 -152.5zM73 353q0 -75 26 -136t70 -103t103 -65t124 -23t124 23
t103 65t70 103t26 136t-26 135.5t-70 102.5t-103 65t-124 23t-124 -23t-103 -65t-70 -102.5t-26 -135.5zM564 226l-29 -29l-253 254v-285l-39 40v312h312l40 -39h-285z" />
    <glyph glyph-name="white_circle_rightwards_arrow" 
d="M762 353q0 -84 -29.5 -152.5t-79.5 -116t-116.5 -73t-140.5 -25.5t-140.5 25.5t-116.5 73t-79.5 116t-29.5 152.5t29.5 152.5t79.5 115.5t116.5 72.5t140.5 25.5t140.5 -25.5t116.5 -72.5t79.5 -115.5t29.5 -152.5zM73 353q0 -75 26 -136t70 -103t103 -65t124 -23t124 23
t103 65t70 103t26 136t-26 135.5t-70 102.5t-103 65t-124 23t-124 -23t-103 -65t-70 -102.5t-26 -135.5zM180 333v40h358l-201 201h56l221 -221l-221 -221h-56l201 201h-358z" />
    <glyph glyph-name="white_circle_south_east_arrow" 
d="M762 353q0 -84 -29.5 -152.5t-79.5 -116t-116.5 -73t-140.5 -25.5t-140.5 25.5t-116.5 73t-79.5 116t-29.5 152.5t29.5 152.5t79.5 115.5t116.5 72.5t140.5 25.5t140.5 -25.5t116.5 -72.5t79.5 -115.5t29.5 -152.5zM73 353q0 -75 26 -136t70 -103t103 -65t124 -23t124 23
t103 65t70 103t26 136t-26 135.5t-70 102.5t-103 65t-124 23t-124 -23t-103 -65t-70 -102.5t-26 -135.5zM257 497l253 -254v285l39 -40v-312h-312l-40 39h285l-254 253z" />
    <glyph glyph-name="white_circle_south_west_arrow" 
d="M762 353q0 -84 -29.5 -152.5t-79.5 -116t-116.5 -73t-140.5 -25.5t-140.5 25.5t-116.5 73t-79.5 116t-29.5 152.5t29.5 152.5t79.5 115.5t116.5 72.5t140.5 25.5t140.5 -25.5t116.5 -72.5t79.5 -115.5t29.5 -152.5zM73 353q0 -75 26 -136t70 -103t103 -65t124 -23t124 23
t103 65t70 103t26 136t-26 135.5t-70 102.5t-103 65t-124 23t-124 -23t-103 -65t-70 -102.5t-26 -135.5zM564 468l-254 -253h285l-40 -39h-312v312l39 40v-285l253 254z" />
    <glyph glyph-name="white_circle_upwards_arrow" 
d="M762 353q0 -84 -29.5 -152.5t-79.5 -116t-116.5 -73t-140.5 -25.5t-140.5 25.5t-116.5 73t-79.5 116t-29.5 152.5t29.5 152.5t79.5 115.5t116.5 72.5t140.5 25.5t140.5 -25.5t116.5 -72.5t79.5 -115.5t29.5 -152.5zM73 353q0 -75 26 -136t70 -103t103 -65t124 -23t124 23
t103 65t70 103t26 136t-26 135.5t-70 102.5t-103 65t-124 23t-124 -23t-103 -65t-70 -102.5t-26 -135.5zM416 148h-40v358l-201 -201v56l221 221l221 -221v-56l-201 201v-358z" />
    <glyph glyph-name="zero.zero" horiz-adv-x="578" 
d="M289 719q105 0 166 -67.5t61 -182.5v-231q0 -118 -61.5 -185t-165.5 -67t-165.5 67t-61.5 185v231q0 115 61.5 182.5t165.5 67.5zM110 238q0 -10 0.5 -19t1.5 -17l346 347q-17 60 -61 94t-108 34q-82 0 -130.5 -56t-48.5 -152v-231zM289 28q82 0 130.5 55.5t48.5 154.5
v231v15t-1 15l-346 -346q18 -60 61.5 -92.5t106.5 -32.5z" />
    <glyph glyph-name="zero.tf.zero" horiz-adv-x="640" 
d="M320 719q114 0 180.5 -78t66.5 -212v-151q0 -137 -67 -214.5t-180 -77.5t-180 77.5t-67 214.5v151q0 134 66.5 212t180.5 78zM121 278q0 -24 2.5 -46.5t6.5 -42.5l367 368q-23 57 -68.5 88.5t-108.5 31.5q-91 0 -145 -67t-54 -181v-151zM320 28q91 0 145 66.5t54 183.5
v151q0 22 -2 43t-6 40l-366 -366q23 -57 68.5 -87.5t106.5 -30.5z" />
    <glyph glyph-name="zero.tf" horiz-adv-x="640" 
d="M320 719q114 0 180.5 -78t66.5 -212v-151q0 -137 -67 -214.5t-180 -77.5t-180 77.5t-67 214.5v151q0 134 66.5 212t180.5 78zM320 28q91 0 145 66.5t54 183.5v151q0 114 -53.5 181t-145.5 67q-91 0 -145 -67t-54 -181v-151q0 -117 54 -183.5t145 -66.5z" />
    <glyph glyph-name="one.tf" horiz-adv-x="640" 
d="M116 0v41h193v502h-173v41h173v120h47v-663h194v-41h-434z" />
    <glyph glyph-name="two.tf" horiz-adv-x="640" 
d="M84 0v56q0 65 37 114t115 97l155 95q68 42 89.5 81.5t21.5 79.5v14q0 59 -43 100.5t-127 41.5t-132.5 -49t-48.5 -131h-48q0 52 17.5 93.5t48 69t72.5 42.5t91 15q98 0 158.5 -51t60.5 -135q0 -53 -26 -104.5t-106 -100.5l-155 -95q-68 -42 -100.5 -82.5t-32.5 -94.5v-15
h439v-41h-486z" />
    <glyph glyph-name="three.tf" horiz-adv-x="640" 
d="M513 192v14q0 72 -50.5 116.5t-136.5 44.5h-52v36l213 258h-372v43h423v-43l-209 -252v-1q105 -1 169 -58.5t64 -150.5q0 -46 -17.5 -85t-48.5 -67.5t-74.5 -44.5t-96.5 -16q-57 0 -101 15.5t-74 41.5t-46.5 61t-19.5 74h48q2 -29 14.5 -56.5t36.5 -48.5t59.5 -33.5
t82.5 -12.5q46 0 81 13.5t58.5 36t36 52.5t12.5 63z" />
    <glyph glyph-name="four.tf" horiz-adv-x="640" 
d="M62 195v41l338 468h56v-468h122v-41h-122v-195h-47v195h-347zM113 240v-4h296v409h-4z" />
    <glyph glyph-name="five.tf" horiz-adv-x="640" 
d="M95 316v388h427v-41h-382v-291h3q25 54 74.5 79t111.5 25q57 0 100 -19t72 -51.5t43.5 -77t14.5 -94.5q0 -52 -16.5 -97.5t-48.5 -78.5t-79 -52.5t-107 -19.5q-106 0 -169.5 54t-68.5 135h49q1 -29 14 -56t37 -47.5t59 -32.5t79 -12q52 0 90 16.5t63 44.5t37 64.5
t12 75.5v12q0 38 -10.5 73.5t-33 62t-58 42.5t-84.5 16q-66 0 -112.5 -31.5t-69.5 -86.5h-47z" />
    <glyph glyph-name="six.tf" horiz-adv-x="640" 
d="M560 234q0 -52 -18 -97.5t-49.5 -79t-76.5 -52.5t-98 -19t-97 19.5t-75 53.5t-48.5 80t-17.5 99q0 51 18 103t62 111l190 252h55l-221 -284h5q27 25 61.5 40t83.5 15q50 0 91.5 -18t71.5 -49.5t46.5 -76t16.5 -97.5zM126 239v-12q0 -35 13 -71t38 -64t61.5 -46t82.5 -18
q48 0 84.5 17t60 44.5t35.5 63.5t12 74v12q0 38 -11 73.5t-34.5 62t-60 42.5t-86.5 16q-44 0 -80.5 -16t-61.5 -42.5t-39 -62t-14 -73.5z" />
    <glyph glyph-name="seven.tf" horiz-adv-x="640" 
d="M157 0l355 663h-434v41h482v-44l-352 -660h-51z" />
    <glyph glyph-name="eight.tf" horiz-adv-x="640" 
d="M409 373v-3q60 -12 104.5 -59.5t44.5 -124.5q0 -45 -18.5 -82t-50.5 -63t-75.5 -40.5t-93.5 -14.5t-93.5 14.5t-75.5 40.5t-50.5 63t-18.5 82q0 77 44.5 124.5t104.5 59.5v3q-60 14 -95.5 58t-35.5 101q0 42 17 76.5t46.5 59t69.5 38t87 13.5t87 -13.5t69.5 -38t46.5 -59
t17 -76.5q0 -57 -35.5 -101t-95.5 -58zM147 536v-8q0 -57 48.5 -98t124.5 -41t124.5 41t48.5 98v8q0 60 -47.5 101t-125.5 41t-125.5 -41t-47.5 -101zM131 195v-12q0 -66 52.5 -111t136.5 -45t136.5 45t52.5 111v12q0 66 -51.5 110.5t-137.5 44.5t-137.5 -44.5t-51.5 -110.5
z" />
    <glyph glyph-name="nine.tf" horiz-adv-x="640" 
d="M80 470q0 52 18 97.5t49.5 79t76.5 52.5t98 19t97 -19.5t75 -53.5t48.5 -80t17.5 -99q0 -51 -18 -103t-62 -111l-190 -252h-55l221 284h-5q-27 -25 -61.5 -40t-83.5 -15q-50 0 -91.5 18t-71.5 49.5t-46.5 76t-16.5 97.5zM514 465v12q0 35 -13 71t-38 64t-61.5 46
t-82.5 18q-48 0 -84.5 -17t-60 -44.5t-35.5 -63.5t-12 -74v-12q0 -38 11 -73.5t34.5 -62t60 -42.5t86.5 -16q44 0 80.5 16t61.5 42.5t39 62t14 73.5z" />
    <glyph glyph-name="parenleft.tf" horiz-adv-x="640" 
d="M438 726q-81 -78 -133.5 -186t-52.5 -238q0 -129 52.5 -237.5t133.5 -186.5h-51q-81 78 -131 186.5t-50 237.5t50 237t131 187h51z" />
    <glyph glyph-name="parenright.tf" horiz-adv-x="640" 
d="M202 -122q81 78 133.5 186t52.5 238q0 129 -52.5 237.5t-133.5 186.5h51q81 -78 131 -186.5t50 -237.5t-50 -237t-131 -187h-51z" />
    <glyph glyph-name="bracketleft.tf" horiz-adv-x="640" 
d="M226 726h304v-40h-258v-768h258v-40h-304v848z" />
    <glyph glyph-name="bracketright.tf" horiz-adv-x="640" 
d="M414 -122h-304v40h258v768h-258v40h304v-848z" />
    <glyph glyph-name="braceleft.tf" horiz-adv-x="640" 
d="M148 276v52q34 0 63 20.5t29 66.5v168q0 73 36 108t102 35h152v-40h-148q-49 0 -72.5 -23t-23.5 -74v-172q0 -51 -30 -81t-67 -30v-8q37 0 67 -30t30 -81v-172q0 -51 23.5 -74t72.5 -23h148v-40h-152q-66 0 -102 35t-36 108v168q0 46 -29 66.5t-63 20.5z" />
    <glyph glyph-name="braceright.tf" horiz-adv-x="640" 
d="M492 328v-52q-34 0 -63 -20.5t-29 -66.5v-168q0 -73 -36 -108t-102 -35h-152v40h148q49 0 72.5 23t23.5 74v172q0 51 30 81t67 30v8q-37 0 -67 30t-30 81v172q0 51 -23.5 74t-72.5 23h-148v40h152q66 0 102 -35t36 -108v-168q0 -46 29 -66.5t63 -20.5z" />
    <glyph glyph-name="period.tf" horiz-adv-x="640" 
d="M320 -8q-20 0 -32.5 12.5t-12.5 32.5t12.5 32.5t32.5 12.5t32.5 -12.5t12.5 -32.5t-12.5 -32.5t-32.5 -12.5z" />
    <glyph glyph-name="comma.tf" horiz-adv-x="640" 
d="M285 -154h-48l79 225h50z" />
    <glyph glyph-name="colon.tf" horiz-adv-x="640" 
d="M320 -8q-20 0 -32.5 12.5t-12.5 32.5t12.5 32.5t32.5 12.5t32.5 -12.5t12.5 -32.5t-12.5 -32.5t-32.5 -12.5zM320 412q-20 0 -32.5 12.5t-12.5 32.5t12.5 32.5t32.5 12.5t32.5 -12.5t12.5 -32.5t-12.5 -32.5t-32.5 -12.5z" />
    <glyph glyph-name="semicolon.tf" horiz-adv-x="640" 
d="M285 -154h-48l79 225h50zM320 412q-20 0 -32.5 12.5t-12.5 32.5t12.5 32.5t32.5 12.5t32.5 -12.5t12.5 -32.5t-12.5 -32.5t-32.5 -12.5z" />
    <glyph glyph-name="plus.tf" horiz-adv-x="640" 
d="M65 300v40h235v235h40v-235h235v-40h-235v-235h-40v235h-235z" />
    <glyph glyph-name="minus.tf" horiz-adv-x="640" 
d="M65 300v40h510v-40h-510z" />
    <glyph glyph-name="plusminus.tf" horiz-adv-x="640" 
d="M65 380v40h235v175h40v-175h235v-40h-235v-175h-40v175h-235zM65 44v40h510v-40h-510z" />
    <glyph glyph-name="divide.tf" horiz-adv-x="640" 
d="M320 467q-20 0 -32.5 12.5t-12.5 32.5t12.5 32.5t32.5 12.5t32.5 -12.5t12.5 -32.5t-12.5 -32.5t-32.5 -12.5zM65 298v40h510v-40h-510zM320 79q-20 0 -32.5 12.5t-12.5 32.5t12.5 32.5t32.5 12.5t32.5 -12.5t12.5 -32.5t-12.5 -32.5t-32.5 -12.5z" />
    <glyph glyph-name="multiply.tf" horiz-adv-x="640" 
d="M143 115l-28 28l177 177l-177 177l28 28l177 -177l177 177l28 -28l-177 -177l177 -177l-28 -28l-177 177z" />
    <glyph glyph-name="equal.tf" horiz-adv-x="640" 
d="M70 400v40h500v-40h-500zM70 200v40h500v-40h-500z" />
    <glyph glyph-name="less.tf" horiz-adv-x="640" 
d="M545 93l-484 211v44l484 212v-44l-442 -190l442 -189v-44z" />
    <glyph glyph-name="greater.tf" horiz-adv-x="640" 
d="M95 560l484 -211v-44l-484 -212v44l442 190l-442 189v44z" />
    <glyph glyph-name="lessequal.tf" horiz-adv-x="640" 
d="M555 193l-480 161v44l480 162v-46l-420 -138l420 -137v-46zM75 44v40h480v-40h-480z" />
    <glyph glyph-name="greaterequal.tf" horiz-adv-x="640" 
d="M85 193v46l420 137l-420 138v46l480 -162v-44zM565 44h-480v40h480v-40z" />
    <glyph glyph-name="approxequal.tf" horiz-adv-x="640" 
d="M75 355q0 22 7 44t22 40t37.5 29t53.5 11q35 0 66.5 -16.5t60.5 -35.5t58.5 -35.5t61.5 -16.5q34 0 57 27t24 64h42q0 -54 -36 -92.5t-90 -38.5q-43 0 -76 16.5t-61 35.5t-54.5 35.5t-56.5 16.5q-35 0 -54 -26.5t-20 -57.5h-42zM75 136q0 22 7 44t22 40t37.5 29t53.5 11
q35 0 66.5 -16.5t60.5 -35.5t58.5 -35.5t61.5 -16.5q34 0 57 27t24 64h42q0 -54 -36 -92.5t-90 -38.5q-43 0 -76 16.5t-61 35.5t-54.5 35.5t-56.5 16.5q-35 0 -54 -26.5t-20 -57.5h-42z" />
    <glyph glyph-name="notequal.tf" horiz-adv-x="640" 
d="M153 29l86 171h-169v40h189l81 160h-270v40h290l87 172h40l-87 -172h170v-40h-190l-81 -160h271v-40h-291l-86 -171h-40z" />
    <glyph glyph-name="logicalnot.tf" horiz-adv-x="640" 
d="M55 300v40h500v-275h-40v235h-460z" />
    <glyph glyph-name="f.short" horiz-adv-x="396" 
d="M140 0v469h-122v41h122v120q0 54 25 80t82 26h119v-41h-117q-34 0 -48.5 -15t-14.5 -49v-121h189v-41h-189v-469h-46z" />
    <glyph glyph-name="A.sc" horiz-adv-x="550" 
d="M485 0l-68 172h-288l-66 -172h-48l233 590h50l238 -590h-51zM271 540l-127 -329h258l-129 329h-2z" />
    <glyph glyph-name="Agrave.sc" horiz-adv-x="550" 
d="M485 0l-68 172h-288l-66 -172h-48l233 590h50l238 -590h-51zM271 540l-127 -329h258l-129 329h-2zM204 822l87 -138h-40l-104 138h57z" />
    <glyph glyph-name="Aacute.sc" horiz-adv-x="550" 
d="M485 0l-68 172h-288l-66 -172h-48l233 590h50l238 -590h-51zM271 540l-127 -329h258l-129 329h-2zM339 822h57l-104 -138h-40z" />
    <glyph glyph-name="Acircumflex.sc" horiz-adv-x="550" 
d="M485 0l-68 172h-288l-66 -172h-48l233 590h50l238 -590h-51zM271 540l-127 -329h258l-129 329h-2zM420 684h-52l-93 112h-3l-93 -112h-47l119 138h51z" />
    <glyph glyph-name="Atilde.sc" horiz-adv-x="550" 
d="M485 0l-68 172h-288l-66 -172h-48l233 590h50l238 -590h-51zM271 540l-127 -329h258l-129 329h-2zM345 685q-31 0 -49 16t-32 34.5t-28.5 34.5t-38.5 16q-25 0 -41 -22.5t-16 -73.5h-31v2q0 59 24 93.5t65 34.5h2q31 0 49 -16t32 -34.5t28.5 -34.5t39.5 -16t41 21.5
t16 72.5h31v-2q0 -60 -24 -93t-66 -33h-2z" />
    <glyph glyph-name="Adieresis.sc" horiz-adv-x="550" 
d="M485 0l-68 172h-288l-66 -172h-48l233 590h50l238 -590h-51zM271 540l-127 -329h258l-129 329h-2zM192 723h-2q-16 0 -27 11t-11 27t11 27t27 11h2q16 0 27 -11t11 -27t-11 -27t-27 -11zM358 723h-2q-16 0 -27 11t-11 27t11 27t27 11h2q16 0 27 -11t11 -27t-11 -27
t-27 -11z" />
    <glyph glyph-name="Aring.sc" horiz-adv-x="550" 
d="M485 0l-68 172h-288l-66 -172h-48l233 590h50l238 -590h-51zM271 540l-127 -329h258l-129 329h-2zM273 656q-41 0 -71.5 25.5t-30.5 69.5t30.5 69.5t71.5 25.5q42 0 72 -25.5t30 -69.5t-30 -69.5t-72 -25.5zM273 686q28 0 49 17t21 48t-21 48t-49 17t-48.5 -17t-20.5 -48
t20.5 -48t48.5 -17z" />
    <glyph glyph-name="Amacron.sc" horiz-adv-x="550" 
d="M485 0l-68 172h-288l-66 -172h-48l233 590h50l238 -590h-51zM271 540l-127 -329h258l-129 329h-2zM145 766h255v-33h-255v33z" />
    <glyph glyph-name="Abreve.sc" horiz-adv-x="550" 
d="M485 0l-68 172h-288l-66 -172h-48l233 590h50l238 -590h-51zM271 540l-127 -329h258l-129 329h-2zM271 684q-65 0 -100 40.5t-35 97.5h41q0 -51 26 -78.5t70 -27.5q47 0 74 28.5t27 77.5h38q0 -56 -36 -97t-102 -41h-3z" />
    <glyph glyph-name="Aogonek.sc" horiz-adv-x="550" 
d="M485 0l-68 172h-288l-66 -172h-48l233 590h50l238 -590h-51zM271 540l-127 -329h258l-129 329h-2zM527 23v-23q-50 -29 -74.5 -56t-24.5 -55q0 -23 18 -39t55 -16h58v-38h-58q-55 0 -82.5 26t-27.5 60q0 40 35.5 75.5t100.5 65.5z" />
    <glyph glyph-name="Acaron.sc" horiz-adv-x="550" 
d="M485 0l-68 172h-288l-66 -172h-48l233 590h50l238 -590h-51zM271 540l-127 -329h258l-129 329h-2zM126 822h52l93 -112h3l93 112h47l-119 -138h-51z" />
    <glyph glyph-name="Aringacute.sc" horiz-adv-x="550" 
d="M485 0l-68 172h-288l-66 -172h-48l233 590h50l238 -590h-51zM271 540l-127 -329h258l-129 329h-2zM249 576q-41 0 -71.5 25.5t-30.5 69.5q0 39 24.5 63.5t58.5 30.5l85 134h57l-102 -135q34 -6 57.5 -30.5t23.5 -62.5q0 -44 -30 -69.5t-72 -25.5zM249 606q28 0 49 17
t21 48t-21 48t-49 17t-48.5 -17t-20.5 -48t20.5 -48t48.5 -17z" />
    <glyph glyph-name="Adotbelow.sc" horiz-adv-x="550" 
d="M485 0l-68 172h-288l-66 -172h-48l233 590h50l238 -590h-51zM271 540l-127 -329h258l-129 329h-2zM273 -175h-2q-16 0 -27 11t-11 27t11 27t27 11h2q16 0 27 -11t11 -27t-11 -27t-27 -11z" />
    <glyph glyph-name="B.sc" horiz-adv-x="575" 
d="M92 0v590h245q72 0 118 -41t46 -110q0 -50 -26.5 -84t-72.5 -47q54 -12 86 -50t32 -96q0 -75 -50 -118.5t-126 -43.5h-252zM454 434v8q0 50 -34 79t-92 29h-190v-225h190q58 0 92 29.5t34 79.5zM473 159v8q0 54 -37.5 86.5t-100.5 32.5h-197v-246h197q63 0 100.5 32.5
t37.5 86.5z" />
    <glyph glyph-name="C.sc" horiz-adv-x="581" 
d="M314 28q74 0 119 38.5t58 95.5h49q-18 -77 -76.5 -125.5t-148.5 -48.5q-65 0 -114 25t-81.5 67t-49 98t-16.5 117t16.5 117t49 98.5t81.5 67.5t114 25q89 0 146.5 -46t76.5 -122h-50q-14 57 -57.5 92t-115.5 35q-44 0 -83 -16.5t-68 -48.5t-46 -79t-17 -107v-31
q0 -60 17 -107t46 -79t68 -49t82 -17z" />
    <glyph glyph-name="Ccedilla.sc" horiz-adv-x="581" 
d="M314 28q74 0 119 38.5t58 95.5h49q-18 -77 -76.5 -125.5t-148.5 -48.5q-65 0 -114 25t-81.5 67t-49 98t-16.5 117t16.5 117t49 98.5t81.5 67.5t114 25q89 0 146.5 -46t76.5 -122h-50q-14 57 -57.5 92t-115.5 35q-44 0 -83 -16.5t-68 -48.5t-46 -79t-17 -107v-31
q0 -60 17 -107t46 -79t68 -49t82 -17zM233 -213v33h61q28 0 53 11t25 37q0 25 -20.5 37t-57.5 12h-25v23l32 74h32l-27 -68q40 0 72 -17.5t32 -57.5q0 -43 -35.5 -63.5t-77.5 -20.5h-64z" />
    <glyph glyph-name="Cacute.sc" horiz-adv-x="581" 
d="M314 28q74 0 119 38.5t58 95.5h49q-18 -77 -76.5 -125.5t-148.5 -48.5q-65 0 -114 25t-81.5 67t-49 98t-16.5 117t16.5 117t49 98.5t81.5 67.5t114 25q89 0 146.5 -46t76.5 -122h-50q-14 57 -57.5 92t-115.5 35q-44 0 -83 -16.5t-68 -48.5t-46 -79t-17 -107v-31
q0 -60 17 -107t46 -79t68 -49t82 -17zM382 822h57l-104 -138h-40z" />
    <glyph glyph-name="Ccircumflex.sc" horiz-adv-x="581" 
d="M314 28q74 0 119 38.5t58 95.5h49q-18 -77 -76.5 -125.5t-148.5 -48.5q-65 0 -114 25t-81.5 67t-49 98t-16.5 117t16.5 117t49 98.5t81.5 67.5t114 25q89 0 146.5 -46t76.5 -122h-50q-14 57 -57.5 92t-115.5 35q-44 0 -83 -16.5t-68 -48.5t-46 -79t-17 -107v-31
q0 -60 17 -107t46 -79t68 -49t82 -17zM463 684h-52l-93 112h-3l-93 -112h-47l119 138h51z" />
    <glyph glyph-name="Cdotaccent.sc" horiz-adv-x="581" 
d="M314 28q74 0 119 38.5t58 95.5h49q-18 -77 -76.5 -125.5t-148.5 -48.5q-65 0 -114 25t-81.5 67t-49 98t-16.5 117t16.5 117t49 98.5t81.5 67.5t114 25q89 0 146.5 -46t76.5 -122h-50q-14 57 -57.5 92t-115.5 35q-44 0 -83 -16.5t-68 -48.5t-46 -79t-17 -107v-31
q0 -60 17 -107t46 -79t68 -49t82 -17zM317 723h-2q-16 0 -27 11t-11 27t11 27t27 11h2q16 0 27 -11t11 -27t-11 -27t-27 -11z" />
    <glyph glyph-name="Ccaron.sc" horiz-adv-x="581" 
d="M314 28q74 0 119 38.5t58 95.5h49q-18 -77 -76.5 -125.5t-148.5 -48.5q-65 0 -114 25t-81.5 67t-49 98t-16.5 117t16.5 117t49 98.5t81.5 67.5t114 25q89 0 146.5 -46t76.5 -122h-50q-14 57 -57.5 92t-115.5 35q-44 0 -83 -16.5t-68 -48.5t-46 -79t-17 -107v-31
q0 -60 17 -107t46 -79t68 -49t82 -17zM169 822h52l93 -112h3l93 112h47l-119 -138h-51z" />
    <glyph glyph-name="D.sc" horiz-adv-x="599" 
d="M285 590q66 0 115 -24t81 -64.5t47.5 -94t15.5 -112.5t-15.5 -112.5t-47.5 -94t-81 -64.5t-115 -24h-193v590h193zM286 550h-148v-510h148q43 0 81.5 16t67.5 46.5t46 75.5t17 102v30q0 57 -17 102t-46 75.5t-67.5 46.5t-81.5 16z" />
    <glyph glyph-name="Dcaron.sc" horiz-adv-x="599" 
d="M285 590q66 0 115 -24t81 -64.5t47.5 -94t15.5 -112.5t-15.5 -112.5t-47.5 -94t-81 -64.5t-115 -24h-193v590h193zM286 550h-148v-510h148q43 0 81.5 16t67.5 46.5t46 75.5t17 102v30q0 57 -17 102t-46 75.5t-67.5 46.5t-81.5 16zM137 819h52l93 -112h3l93 112h47
l-119 -138h-51z" />
    <glyph glyph-name="E.sc" horiz-adv-x="526" 
d="M92 590h382v-40h-336v-223h311v-40h-311v-247h336v-40h-382v590z" />
    <glyph glyph-name="Egrave.sc" horiz-adv-x="526" 
d="M92 590h382v-40h-336v-223h311v-40h-311v-247h336v-40h-382v590zM224 822l87 -138h-40l-104 138h57z" />
    <glyph glyph-name="Eacute.sc" horiz-adv-x="526" 
d="M92 590h382v-40h-336v-223h311v-40h-311v-247h336v-40h-382v590zM359 822h57l-104 -138h-40z" />
    <glyph glyph-name="Ecircumflex.sc" horiz-adv-x="526" 
d="M92 590h382v-40h-336v-223h311v-40h-311v-247h336v-40h-382v590zM440 684h-52l-93 112h-3l-93 -112h-47l119 138h51z" />
    <glyph glyph-name="Edieresis.sc" horiz-adv-x="526" 
d="M92 590h382v-40h-336v-223h311v-40h-311v-247h336v-40h-382v590zM212 723h-2q-16 0 -27 11t-11 27t11 27t27 11h2q16 0 27 -11t11 -27t-11 -27t-27 -11zM378 723h-2q-16 0 -27 11t-11 27t11 27t27 11h2q16 0 27 -11t11 -27t-11 -27t-27 -11z" />
    <glyph glyph-name="Emacron.sc" horiz-adv-x="526" 
d="M92 590h382v-40h-336v-223h311v-40h-311v-247h336v-40h-382v590zM165 766h255v-33h-255v33z" />
    <glyph glyph-name="Ebreve.sc" horiz-adv-x="526" 
d="M92 590h382v-40h-336v-223h311v-40h-311v-247h336v-40h-382v590zM291 684q-65 0 -100 40.5t-35 97.5h41q0 -51 26 -78.5t70 -27.5q47 0 74 28.5t27 77.5h38q0 -56 -36 -97t-102 -41h-3z" />
    <glyph glyph-name="Edotaccent.sc" horiz-adv-x="526" 
d="M92 590h382v-40h-336v-223h311v-40h-311v-247h336v-40h-382v590zM294 723h-2q-16 0 -27 11t-11 27t11 27t27 11h2q16 0 27 -11t11 -27t-11 -27t-27 -11z" />
    <glyph glyph-name="Eogonek.sc" horiz-adv-x="526" 
d="M92 590h382v-40h-336v-223h311v-40h-311v-247h336v-40h-382v590zM474 23v-23q-50 -29 -74.5 -56t-24.5 -55q0 -23 18 -39t55 -16h58v-38h-58q-55 0 -82.5 26t-27.5 60q0 40 35.5 75.5t100.5 65.5z" />
    <glyph glyph-name="Ecaron.sc" horiz-adv-x="526" 
d="M92 590h382v-40h-336v-223h311v-40h-311v-247h336v-40h-382v590zM146 822h52l93 -112h3l93 112h47l-119 -138h-51z" />
    <glyph glyph-name="Edotbelow.sc" horiz-adv-x="526" 
d="M92 590h382v-40h-336v-223h311v-40h-311v-247h336v-40h-382v590zM294 -175h-2q-16 0 -27 11t-11 27t11 27t27 11h2q16 0 27 -11t11 -27t-11 -27t-27 -11z" />
    <glyph glyph-name="Etilde.sc" horiz-adv-x="526" 
d="M92 590h382v-40h-336v-223h311v-40h-311v-247h336v-40h-382v590zM365 685q-31 0 -49 16t-32 34.5t-28.5 34.5t-38.5 16q-25 0 -41 -22.5t-16 -73.5h-31v2q0 59 24 93.5t65 34.5h2q31 0 49 -16t32 -34.5t28.5 -34.5t39.5 -16t41 21.5t16 72.5h31v-2q0 -60 -24 -93t-66 -33
h-2z" />
    <glyph glyph-name="F.sc" horiz-adv-x="501" 
d="M92 590h375v-40h-329v-231h305v-40h-305v-279h-46v590z" />
    <glyph glyph-name="G.sc" horiz-adv-x="610" 
d="M508 0v135q-15 -63 -66.5 -105t-129.5 -42q-65 0 -114 25t-80.5 67t-47.5 98t-16 117t16.5 117t49.5 98.5t82.5 67.5t114.5 25q91 0 149.5 -44.5t76.5 -119.5h-50q-13 55 -57.5 89t-117.5 34q-44 0 -84 -16.5t-69.5 -48.5t-46.5 -79t-17 -107v-31q0 -60 17 -107.5
t45.5 -79.5t67.5 -48.5t82 -16.5q51 0 87.5 18.5t59 49.5t33.5 72t11 87h-208v39h251v-294h-39z" />
    <glyph glyph-name="Gcircumflex.sc" horiz-adv-x="610" 
d="M508 0v135q-15 -63 -66.5 -105t-129.5 -42q-65 0 -114 25t-80.5 67t-47.5 98t-16 117t16.5 117t49.5 98.5t82.5 67.5t114.5 25q91 0 149.5 -44.5t76.5 -119.5h-50q-13 55 -57.5 89t-117.5 34q-44 0 -84 -16.5t-69.5 -48.5t-46.5 -79t-17 -107v-31q0 -60 17 -107.5
t45.5 -79.5t67.5 -48.5t82 -16.5q51 0 87.5 18.5t59 49.5t33.5 72t11 87h-208v39h251v-294h-39zM465 684h-52l-93 112h-3l-93 -112h-47l119 138h51z" />
    <glyph glyph-name="Gbreve.sc" horiz-adv-x="610" 
d="M508 0v135q-15 -63 -66.5 -105t-129.5 -42q-65 0 -114 25t-80.5 67t-47.5 98t-16 117t16.5 117t49.5 98.5t82.5 67.5t114.5 25q91 0 149.5 -44.5t76.5 -119.5h-50q-13 55 -57.5 89t-117.5 34q-44 0 -84 -16.5t-69.5 -48.5t-46.5 -79t-17 -107v-31q0 -60 17 -107.5
t45.5 -79.5t67.5 -48.5t82 -16.5q51 0 87.5 18.5t59 49.5t33.5 72t11 87h-208v39h251v-294h-39zM316 684q-65 0 -100 40.5t-35 97.5h41q0 -51 26 -78.5t70 -27.5q47 0 74 28.5t27 77.5h38q0 -56 -36 -97t-102 -41h-3z" />
    <glyph glyph-name="Gdotaccent.sc" horiz-adv-x="610" 
d="M508 0v135q-15 -63 -66.5 -105t-129.5 -42q-65 0 -114 25t-80.5 67t-47.5 98t-16 117t16.5 117t49.5 98.5t82.5 67.5t114.5 25q91 0 149.5 -44.5t76.5 -119.5h-50q-13 55 -57.5 89t-117.5 34q-44 0 -84 -16.5t-69.5 -48.5t-46.5 -79t-17 -107v-31q0 -60 17 -107.5
t45.5 -79.5t67.5 -48.5t82 -16.5q51 0 87.5 18.5t59 49.5t33.5 72t11 87h-208v39h251v-294h-39zM319 723h-2q-16 0 -27 11t-11 27t11 27t27 11h2q16 0 27 -11t11 -27t-11 -27t-27 -11z" />
    <glyph glyph-name="uni0122.sc" horiz-adv-x="610" 
d="M508 0v135q-15 -63 -66.5 -105t-129.5 -42q-65 0 -114 25t-80.5 67t-47.5 98t-16 117t16.5 117t49.5 98.5t82.5 67.5t114.5 25q91 0 149.5 -44.5t76.5 -119.5h-50q-13 55 -57.5 89t-117.5 34q-44 0 -84 -16.5t-69.5 -48.5t-46.5 -79t-17 -107v-31q0 -60 17 -107.5
t45.5 -79.5t67.5 -48.5t82 -16.5q51 0 87.5 18.5t59 49.5t33.5 72t11 87h-208v39h251v-294h-39zM280 -48h57l-104 -138h-40z" />
    <glyph glyph-name="Gcaron.sc" horiz-adv-x="610" 
d="M508 0v135q-15 -63 -66.5 -105t-129.5 -42q-65 0 -114 25t-80.5 67t-47.5 98t-16 117t16.5 117t49.5 98.5t82.5 67.5t114.5 25q91 0 149.5 -44.5t76.5 -119.5h-50q-13 55 -57.5 89t-117.5 34q-44 0 -84 -16.5t-69.5 -48.5t-46.5 -79t-17 -107v-31q0 -60 17 -107.5
t45.5 -79.5t67.5 -48.5t82 -16.5q51 0 87.5 18.5t59 49.5t33.5 72t11 87h-208v39h251v-294h-39zM171 822h52l93 -112h3l93 112h47l-119 -138h-51z" />
    <glyph glyph-name="H.sc" horiz-adv-x="623" 
d="M92 590h46v-262h347v262h46v-590h-46v288h-347v-288h-46v590z" />
    <glyph glyph-name="Hcircumflex.sc" horiz-adv-x="623" 
d="M92 590h46v-262h347v262h46v-590h-46v288h-347v-288h-46v590zM458 684h-52l-93 112h-3l-93 -112h-47l119 138h51z" />
    <glyph glyph-name="I.sc" horiz-adv-x="229" 
d="M92 590h46v-590h-46v590z" />
    <glyph glyph-name="Igrave.sc" horiz-adv-x="229" 
d="M92 590h46v-590h-46v590zM46 822l87 -138h-40l-104 138h57z" />
    <glyph glyph-name="Iacute.sc" horiz-adv-x="229" 
d="M92 590h46v-590h-46v590zM181 822h57l-104 -138h-40z" />
    <glyph glyph-name="Icircumflex.sc" horiz-adv-x="229" 
d="M92 590h46v-590h-46v590zM262 684h-52l-93 112h-3l-93 -112h-47l119 138h51z" />
    <glyph glyph-name="Idieresis.sc" horiz-adv-x="229" 
d="M92 590h46v-590h-46v590zM34 723h-2q-16 0 -27 11t-11 27t11 27t27 11h2q16 0 27 -11t11 -27t-11 -27t-27 -11zM200 723h-2q-16 0 -27 11t-11 27t11 27t27 11h2q16 0 27 -11t11 -27t-11 -27t-27 -11z" />
    <glyph glyph-name="Itilde.sc" horiz-adv-x="229" 
d="M92 590h46v-590h-46v590zM187 685q-31 0 -49 16t-32 34.5t-28.5 34.5t-38.5 16q-25 0 -41 -22.5t-16 -73.5h-31v2q0 59 24 93.5t65 34.5h2q31 0 49 -16t32 -34.5t28.5 -34.5t39.5 -16t41 21.5t16 72.5h31v-2q0 -60 -24 -93t-66 -33h-2z" />
    <glyph glyph-name="Imacron.sc" horiz-adv-x="229" 
d="M92 590h46v-590h-46v590zM-13 766h255v-33h-255v33z" />
    <glyph glyph-name="Ibreve.sc" horiz-adv-x="229" 
d="M92 590h46v-590h-46v590zM113 684q-65 0 -100 40.5t-35 97.5h41q0 -51 26 -78.5t70 -27.5q47 0 74 28.5t27 77.5h38q0 -56 -36 -97t-102 -41h-3z" />
    <glyph glyph-name="Iogonek.sc" horiz-adv-x="229" 
d="M92 590h46v-590h-46v590zM133 23v-23q-50 -29 -74.5 -56t-24.5 -55q0 -23 18 -39t55 -16h58v-38h-58q-55 0 -82.5 26t-27.5 60q0 40 35.5 75.5t100.5 65.5z" />
    <glyph glyph-name="Idotaccent.sc" horiz-adv-x="229" 
d="M92 590h46v-590h-46v590zM116 723h-2q-16 0 -27 11t-11 27t11 27t27 11h2q16 0 27 -11t11 -27t-11 -27t-27 -11z" />
    <glyph glyph-name="Icaron.sc" horiz-adv-x="229" 
d="M92 590h46v-590h-46v590zM-32 822h52l93 -112h3l93 112h47l-119 -138h-51z" />
    <glyph glyph-name="Idotbelow.sc" horiz-adv-x="229" 
d="M92 590h46v-590h-46v590zM116 -175h-2q-16 0 -27 11t-11 27t11 27t27 11h2q16 0 27 -11t11 -27t-11 -27t-27 -11z" />
    <glyph glyph-name="J.sc" horiz-adv-x="489" 
d="M226 -13q-85 0 -132 54t-47 140v46h46v-45q0 -69 35 -111.5t98 -42.5q67 0 100.5 42.5t33.5 111.5v408h45v-409q0 -86 -47 -140t-132 -54z" />
    <glyph glyph-name="Jcircumflex.sc" horiz-adv-x="489" 
d="M226 -13q-85 0 -132 54t-47 140v46h46v-45q0 -69 35 -111.5t98 -42.5q67 0 100.5 42.5t33.5 111.5v408h45v-409q0 -86 -47 -140t-132 -54zM529 685h-52l-93 112h-3l-93 -112h-47l119 138h51z" />
    <glyph glyph-name="K.sc" horiz-adv-x="525" 
d="M138 590v-590h-46v590h46zM447 0l-309 297l301 293h59l-301 -289l315 -301h-65z" />
    <glyph glyph-name="uni0136.sc" horiz-adv-x="525" 
d="M138 590v-590h-46v590h46zM447 0l-309 297l301 293h59l-301 -289l315 -301h-65zM229 -48h57l-104 -138h-40z" />
    <glyph glyph-name="L.sc" horiz-adv-x="476" 
d="M92 590h46v-550h314v-40h-360v590z" />
    <glyph glyph-name="Lacute.sc" horiz-adv-x="476" 
d="M92 590h46v-550h314v-40h-360v590zM181 822h57l-104 -138h-40z" />
    <glyph glyph-name="uni013B.sc" horiz-adv-x="476" 
d="M92 590h46v-550h314v-40h-360v590zM225 -48h57l-104 -138h-40z" />
    <glyph glyph-name="Lcaron.sc" horiz-adv-x="477" 
d="M92 590h46v-550h314v-40h-360v590z" />
    <glyph glyph-name="M.sc" horiz-adv-x="746" 
d="M92 0v590h67l215 -537h1l212 537h67v-590h-46v535h-1l-210 -535h-46l-214 534h-1v-534h-44z" />
    <glyph glyph-name="N.sc" horiz-adv-x="625" 
d="M92 0v590h62l333 -534h1v534h45v-590h-60l-335 538h-1v-538h-45z" />
    <glyph glyph-name="Ntilde.sc" horiz-adv-x="625" 
d="M92 0v590h62l333 -534h1v534h45v-590h-60l-335 538h-1v-538h-45zM397 685q-31 0 -49 16t-32 34.5t-28.5 34.5t-38.5 16q-25 0 -41 -22.5t-16 -73.5h-31v2q0 59 24 93.5t65 34.5h2q31 0 49 -16t32 -34.5t28.5 -34.5t39.5 -16t41 21.5t16 72.5h31v-2q0 -60 -24 -93t-66 -33
h-2z" />
    <glyph glyph-name="Nacute.sc" horiz-adv-x="625" 
d="M92 0v590h62l333 -534h1v534h45v-590h-60l-335 538h-1v-538h-45zM391 822h57l-104 -138h-40z" />
    <glyph glyph-name="uni0145.sc" horiz-adv-x="625" 
d="M92 0v590h62l333 -534h1v534h45v-590h-60l-335 538h-1v-538h-45zM259 -48h57l-104 -138h-40z" />
    <glyph glyph-name="Ncaron.sc" horiz-adv-x="625" 
d="M92 0v590h62l333 -534h1v534h45v-590h-60l-335 538h-1v-538h-45zM178 822h52l93 -112h3l93 112h47l-119 -138h-51z" />
    <glyph glyph-name="O.sc" horiz-adv-x="628" 
d="M314 -12q-66 0 -115 25t-81 67t-48 98t-16 117t16 117t48 98.5t81 67.5t115 25t115 -25t81 -67.5t48 -98.5t16 -117t-16 -117t-48 -98t-81 -67t-115 -25zM314 28q44 0 83 17t67.5 49t45.5 79t17 107v31q0 60 -17 107t-45.5 79t-67.5 48.5t-83 16.5t-83 -16.5t-67.5 -48.5
t-45.5 -79t-17 -107v-31q0 -60 17 -107t45.5 -79t67.5 -49t83 -17z" />
    <glyph glyph-name="Ograve.sc" horiz-adv-x="628" 
d="M314 -12q-66 0 -115 25t-81 67t-48 98t-16 117t16 117t48 98.5t81 67.5t115 25t115 -25t81 -67.5t48 -98.5t16 -117t-16 -117t-48 -98t-81 -67t-115 -25zM314 28q44 0 83 17t67.5 49t45.5 79t17 107v31q0 60 -17 107t-45.5 79t-67.5 48.5t-83 16.5t-83 -16.5t-67.5 -48.5
t-45.5 -79t-17 -107v-31q0 -60 17 -107t45.5 -79t67.5 -49t83 -17zM245 822l87 -138h-40l-104 138h57z" />
    <glyph glyph-name="Oacute.sc" horiz-adv-x="628" 
d="M314 -12q-66 0 -115 25t-81 67t-48 98t-16 117t16 117t48 98.5t81 67.5t115 25t115 -25t81 -67.5t48 -98.5t16 -117t-16 -117t-48 -98t-81 -67t-115 -25zM314 28q44 0 83 17t67.5 49t45.5 79t17 107v31q0 60 -17 107t-45.5 79t-67.5 48.5t-83 16.5t-83 -16.5t-67.5 -48.5
t-45.5 -79t-17 -107v-31q0 -60 17 -107t45.5 -79t67.5 -49t83 -17zM380 822h57l-104 -138h-40z" />
    <glyph glyph-name="Ocircumflex.sc" horiz-adv-x="628" 
d="M314 -12q-66 0 -115 25t-81 67t-48 98t-16 117t16 117t48 98.5t81 67.5t115 25t115 -25t81 -67.5t48 -98.5t16 -117t-16 -117t-48 -98t-81 -67t-115 -25zM314 28q44 0 83 17t67.5 49t45.5 79t17 107v31q0 60 -17 107t-45.5 79t-67.5 48.5t-83 16.5t-83 -16.5t-67.5 -48.5
t-45.5 -79t-17 -107v-31q0 -60 17 -107t45.5 -79t67.5 -49t83 -17zM461 684h-52l-93 112h-3l-93 -112h-47l119 138h51z" />
    <glyph glyph-name="Otilde.sc" horiz-adv-x="628" 
d="M314 -12q-66 0 -115 25t-81 67t-48 98t-16 117t16 117t48 98.5t81 67.5t115 25t115 -25t81 -67.5t48 -98.5t16 -117t-16 -117t-48 -98t-81 -67t-115 -25zM314 28q44 0 83 17t67.5 49t45.5 79t17 107v31q0 60 -17 107t-45.5 79t-67.5 48.5t-83 16.5t-83 -16.5t-67.5 -48.5
t-45.5 -79t-17 -107v-31q0 -60 17 -107t45.5 -79t67.5 -49t83 -17zM386 685q-31 0 -49 16t-32 34.5t-28.5 34.5t-38.5 16q-25 0 -41 -22.5t-16 -73.5h-31v2q0 59 24 93.5t65 34.5h2q31 0 49 -16t32 -34.5t28.5 -34.5t39.5 -16t41 21.5t16 72.5h31v-2q0 -60 -24 -93t-66 -33
h-2z" />
    <glyph glyph-name="Odieresis.sc" horiz-adv-x="628" 
d="M314 -12q-66 0 -115 25t-81 67t-48 98t-16 117t16 117t48 98.5t81 67.5t115 25t115 -25t81 -67.5t48 -98.5t16 -117t-16 -117t-48 -98t-81 -67t-115 -25zM314 28q44 0 83 17t67.5 49t45.5 79t17 107v31q0 60 -17 107t-45.5 79t-67.5 48.5t-83 16.5t-83 -16.5t-67.5 -48.5
t-45.5 -79t-17 -107v-31q0 -60 17 -107t45.5 -79t67.5 -49t83 -17zM233 723h-2q-16 0 -27 11t-11 27t11 27t27 11h2q16 0 27 -11t11 -27t-11 -27t-27 -11zM399 723h-2q-16 0 -27 11t-11 27t11 27t27 11h2q16 0 27 -11t11 -27t-11 -27t-27 -11z" />
    <glyph glyph-name="Omacron.sc" horiz-adv-x="628" 
d="M314 -12q-66 0 -115 25t-81 67t-48 98t-16 117t16 117t48 98.5t81 67.5t115 25t115 -25t81 -67.5t48 -98.5t16 -117t-16 -117t-48 -98t-81 -67t-115 -25zM314 28q44 0 83 17t67.5 49t45.5 79t17 107v31q0 60 -17 107t-45.5 79t-67.5 48.5t-83 16.5t-83 -16.5t-67.5 -48.5
t-45.5 -79t-17 -107v-31q0 -60 17 -107t45.5 -79t67.5 -49t83 -17zM186 766h255v-33h-255v33z" />
    <glyph glyph-name="Obreve.sc" horiz-adv-x="628" 
d="M314 -12q-66 0 -115 25t-81 67t-48 98t-16 117t16 117t48 98.5t81 67.5t115 25t115 -25t81 -67.5t48 -98.5t16 -117t-16 -117t-48 -98t-81 -67t-115 -25zM314 28q44 0 83 17t67.5 49t45.5 79t17 107v31q0 60 -17 107t-45.5 79t-67.5 48.5t-83 16.5t-83 -16.5t-67.5 -48.5
t-45.5 -79t-17 -107v-31q0 -60 17 -107t45.5 -79t67.5 -49t83 -17zM312 684q-65 0 -100 40.5t-35 97.5h41q0 -51 26 -78.5t70 -27.5q47 0 74 28.5t27 77.5h38q0 -56 -36 -97t-102 -41h-3z" />
    <glyph glyph-name="Ohungarumlaut.sc" horiz-adv-x="628" 
d="M314 -12q-66 0 -115 25t-81 67t-48 98t-16 117t16 117t48 98.5t81 67.5t115 25t115 -25t81 -67.5t48 -98.5t16 -117t-16 -117t-48 -98t-81 -67t-115 -25zM314 28q44 0 83 17t67.5 49t45.5 79t17 107v31q0 60 -17 107t-45.5 79t-67.5 48.5t-83 16.5t-83 -16.5t-67.5 -48.5
t-45.5 -79t-17 -107v-31q0 -60 17 -107t45.5 -79t67.5 -49t83 -17zM310 822h55l-105 -138h-38zM458 822h55l-105 -138h-38z" />
    <glyph glyph-name="Ocaron.sc" horiz-adv-x="628" 
d="M314 -12q-66 0 -115 25t-81 67t-48 98t-16 117t16 117t48 98.5t81 67.5t115 25t115 -25t81 -67.5t48 -98.5t16 -117t-16 -117t-48 -98t-81 -67t-115 -25zM314 28q44 0 83 17t67.5 49t45.5 79t17 107v31q0 60 -17 107t-45.5 79t-67.5 48.5t-83 16.5t-83 -16.5t-67.5 -48.5
t-45.5 -79t-17 -107v-31q0 -60 17 -107t45.5 -79t67.5 -49t83 -17zM167 822h52l93 -112h3l93 112h47l-119 -138h-51z" />
    <glyph glyph-name="Oogonek.sc" horiz-adv-x="628" 
d="M314 -12q-66 0 -115 25t-81 67t-48 98t-16 117t16 117t48 98.5t81 67.5t115 25t115 -25t81 -67.5t48 -98.5t16 -117t-16 -117t-48 -98t-81 -67t-115 -25zM314 28q44 0 83 17t67.5 49t45.5 79t17 107v31q0 60 -17 107t-45.5 79t-67.5 48.5t-83 16.5t-83 -16.5t-67.5 -48.5
t-45.5 -79t-17 -107v-31q0 -60 17 -107t45.5 -79t67.5 -49t83 -17zM354 23v-23q-50 -29 -74.5 -56t-24.5 -55q0 -23 18 -39t55 -16h58v-38h-58q-55 0 -82.5 26t-27.5 60q0 40 35.5 75.5t100.5 65.5z" />
    <glyph glyph-name="Odotbelow.sc" horiz-adv-x="628" 
d="M314 -12q-66 0 -115 25t-81 67t-48 98t-16 117t16 117t48 98.5t81 67.5t115 25t115 -25t81 -67.5t48 -98.5t16 -117t-16 -117t-48 -98t-81 -67t-115 -25zM314 28q44 0 83 17t67.5 49t45.5 79t17 107v31q0 60 -17 107t-45.5 79t-67.5 48.5t-83 16.5t-83 -16.5t-67.5 -48.5
t-45.5 -79t-17 -107v-31q0 -60 17 -107t45.5 -79t67.5 -49t83 -17zM315 -175h-2q-16 0 -27 11t-11 27t11 27t27 11h2q16 0 27 -11t11 -27t-11 -27t-27 -11z" />
    <glyph glyph-name="P.sc" horiz-adv-x="545" 
d="M92 0v590h234q87 0 135.5 -44t48.5 -119t-48.5 -118.5t-135.5 -43.5h-188v-265h-46zM463 422v11q0 52 -34 84.5t-104 32.5h-187v-245h187q70 0 104 32.5t34 84.5z" />
    <glyph glyph-name="Q.sc" horiz-adv-x="628" 
d="M314 -12q-66 0 -115 25t-81 67t-48 98t-16 117t16 117t48 98.5t81 67.5t115 25t115 -25t81 -67.5t48 -98.5t16 -117q0 -93 -36.5 -170.5t-111.5 -113.5l164 -165h-60l-148 150q-16 -4 -33 -6t-35 -2zM314 28q44 0 83 17t67.5 49t45.5 79t17 107v31q0 60 -17 107t-45.5 79
t-67.5 48.5t-83 16.5t-83 -16.5t-67.5 -48.5t-45.5 -79t-17 -107v-31q0 -60 17 -107t45.5 -79t67.5 -49t83 -17z" />
    <glyph glyph-name="R.sc" horiz-adv-x="559" 
d="M92 0v590h234q87 0 135.5 -44t48.5 -119t-48.5 -118.5t-135.5 -43.5h-121l321 -265h-72l-316 265v-265h-46zM464 422v11q0 52 -34.5 84.5t-104.5 32.5h-187v-245h187q70 0 104.5 32.5t34.5 84.5z" />
    <glyph glyph-name="Racute.sc" horiz-adv-x="559" 
d="M92 0v590h234q87 0 135.5 -44t48.5 -119t-48.5 -118.5t-135.5 -43.5h-121l321 -265h-72l-316 265v-265h-46zM464 422v11q0 52 -34.5 84.5t-104.5 32.5h-187v-245h187q70 0 104.5 32.5t34.5 84.5zM340 822h57l-104 -138h-40z" />
    <glyph glyph-name="uni0156.sc" horiz-adv-x="559" 
d="M92 0v590h234q87 0 135.5 -44t48.5 -119t-48.5 -118.5t-135.5 -43.5h-121l321 -265h-72l-316 265v-265h-46zM464 422v11q0 52 -34.5 84.5t-104.5 32.5h-187v-245h187q70 0 104.5 32.5t34.5 84.5zM244 -48h57l-104 -138h-40z" />
    <glyph glyph-name="Rcaron.sc" horiz-adv-x="559" 
d="M92 0v590h234q87 0 135.5 -44t48.5 -119t-48.5 -118.5t-135.5 -43.5h-121l321 -265h-72l-316 265v-265h-46zM464 422v11q0 52 -34.5 84.5t-104.5 32.5h-187v-245h187q70 0 104.5 32.5t34.5 84.5zM127 822h52l93 -112h3l93 112h47l-119 -138h-51z" />
    <glyph glyph-name="S.sc" horiz-adv-x="534" 
d="M268 -12q-106 0 -163 49.5t-61 122.5h46q4 -62 51.5 -97t126.5 -35q76 0 123.5 35t47.5 95q0 50 -33.5 76.5t-93.5 36.5l-91 15q-69 11 -115 46.5t-46 106.5q0 67 54 115.5t155 48.5q51 0 89.5 -13t64 -35t38.5 -51t15 -60h-47q-4 52 -45 85.5t-116 33.5q-78 0 -120 -35
t-42 -88q0 -50 35 -76t89 -35l91 -15q75 -12 119.5 -49t44.5 -106q0 -76 -59.5 -123.5t-157.5 -47.5z" />
    <glyph glyph-name="Sacute.sc" horiz-adv-x="534" 
d="M268 -12q-106 0 -163 49.5t-61 122.5h46q4 -62 51.5 -97t126.5 -35q76 0 123.5 35t47.5 95q0 50 -33.5 76.5t-93.5 36.5l-91 15q-69 11 -115 46.5t-46 106.5q0 67 54 115.5t155 48.5q51 0 89.5 -13t64 -35t38.5 -51t15 -60h-47q-4 52 -45 85.5t-116 33.5q-78 0 -120 -35
t-42 -88q0 -50 35 -76t89 -35l91 -15q75 -12 119.5 -49t44.5 -106q0 -76 -59.5 -123.5t-157.5 -47.5zM335 822h57l-104 -138h-40z" />
    <glyph glyph-name="Scircumflex.sc" horiz-adv-x="534" 
d="M268 -12q-106 0 -163 49.5t-61 122.5h46q4 -62 51.5 -97t126.5 -35q76 0 123.5 35t47.5 95q0 50 -33.5 76.5t-93.5 36.5l-91 15q-69 11 -115 46.5t-46 106.5q0 67 54 115.5t155 48.5q51 0 89.5 -13t64 -35t38.5 -51t15 -60h-47q-4 52 -45 85.5t-116 33.5q-78 0 -120 -35
t-42 -88q0 -50 35 -76t89 -35l91 -15q75 -12 119.5 -49t44.5 -106q0 -76 -59.5 -123.5t-157.5 -47.5zM416 684h-52l-93 112h-3l-93 -112h-47l119 138h51z" />
    <glyph glyph-name="Scedilla.sc" horiz-adv-x="534" 
d="M268 -12q-106 0 -163 49.5t-61 122.5h46q4 -62 51.5 -97t126.5 -35q76 0 123.5 35t47.5 95q0 50 -33.5 76.5t-93.5 36.5l-91 15q-69 11 -115 46.5t-46 106.5q0 67 54 115.5t155 48.5q51 0 89.5 -13t64 -35t38.5 -51t15 -60h-47q-4 52 -45 85.5t-116 33.5q-78 0 -120 -35
t-42 -88q0 -50 35 -76t89 -35l91 -15q75 -12 119.5 -49t44.5 -106q0 -76 -59.5 -123.5t-157.5 -47.5zM187 -213v33h61q28 0 53 11t25 37q0 25 -20.5 37t-57.5 12h-25v23l32 74h32l-27 -68q40 0 72 -17.5t32 -57.5q0 -43 -35.5 -63.5t-77.5 -20.5h-64z" />
    <glyph glyph-name="Scaron.sc" horiz-adv-x="534" 
d="M268 -12q-106 0 -163 49.5t-61 122.5h46q4 -62 51.5 -97t126.5 -35q76 0 123.5 35t47.5 95q0 50 -33.5 76.5t-93.5 36.5l-91 15q-69 11 -115 46.5t-46 106.5q0 67 54 115.5t155 48.5q51 0 89.5 -13t64 -35t38.5 -51t15 -60h-47q-4 52 -45 85.5t-116 33.5q-78 0 -120 -35
t-42 -88q0 -50 35 -76t89 -35l91 -15q75 -12 119.5 -49t44.5 -106q0 -76 -59.5 -123.5t-157.5 -47.5zM122 822h52l93 -112h3l93 112h47l-119 -138h-51z" />
    <glyph glyph-name="uni0218.sc" horiz-adv-x="534" 
d="M268 -12q-106 0 -163 49.5t-61 122.5h46q4 -62 51.5 -97t126.5 -35q76 0 123.5 35t47.5 95q0 50 -33.5 76.5t-93.5 36.5l-91 15q-69 11 -115 46.5t-46 106.5q0 67 54 115.5t155 48.5q51 0 89.5 -13t64 -35t38.5 -51t15 -60h-47q-4 52 -45 85.5t-116 33.5q-78 0 -120 -35
t-42 -88q0 -50 35 -76t89 -35l91 -15q75 -12 119.5 -49t44.5 -106q0 -76 -59.5 -123.5t-157.5 -47.5zM236 -48h57l-104 -138h-40z" />
    <glyph glyph-name="T.sc" horiz-adv-x="498" 
d="M226 550h-207v40h460v-40h-207v-550h-46v550z" />
    <glyph glyph-name="Tcedilla.sc" horiz-adv-x="498" 
d="M226 550h-207v40h460v-40h-207v-550h-46v550zM166 -213v33h61q28 0 53 11t25 37q0 25 -20.5 37t-57.5 12h-25v23l32 74h32l-27 -68q40 0 72 -17.5t32 -57.5q0 -43 -35.5 -63.5t-77.5 -20.5h-64z" />
    <glyph glyph-name="Tcaron.sc" horiz-adv-x="498" 
d="M226 550h-207v40h460v-40h-207v-550h-46v550zM102 822h52l93 -112h3l93 112h47l-119 -138h-51z" />
    <glyph glyph-name="uni021A.sc" horiz-adv-x="498" 
d="M226 550h-207v40h460v-40h-207v-550h-46v550zM215 -48h57l-104 -138h-40z" />
    <glyph glyph-name="U.sc" horiz-adv-x="599" 
d="M299 -13q-104 0 -160 59.5t-56 153.5v390h46v-389q0 -77 43.5 -125t126.5 -48q84 0 127.5 48t43.5 125v389h46v-390q0 -94 -56.5 -153.5t-160.5 -59.5z" />
    <glyph glyph-name="Ugrave.sc" horiz-adv-x="599" 
d="M299 -13q-104 0 -160 59.5t-56 153.5v390h46v-389q0 -77 43.5 -125t126.5 -48q84 0 127.5 48t43.5 125v389h46v-390q0 -94 -56.5 -153.5t-160.5 -59.5zM232 823l87 -138h-40l-104 138h57z" />
    <glyph glyph-name="Uacute.sc" horiz-adv-x="599" 
d="M299 -13q-104 0 -160 59.5t-56 153.5v390h46v-389q0 -77 43.5 -125t126.5 -48q84 0 127.5 48t43.5 125v389h46v-390q0 -94 -56.5 -153.5t-160.5 -59.5zM367 823h57l-104 -138h-40z" />
    <glyph glyph-name="Ucircumflex.sc" horiz-adv-x="599" 
d="M299 -13q-104 0 -160 59.5t-56 153.5v390h46v-389q0 -77 43.5 -125t126.5 -48q84 0 127.5 48t43.5 125v389h46v-390q0 -94 -56.5 -153.5t-160.5 -59.5zM448 685h-52l-93 112h-3l-93 -112h-47l119 138h51z" />
    <glyph glyph-name="Udieresis.sc" horiz-adv-x="599" 
d="M299 -13q-104 0 -160 59.5t-56 153.5v390h46v-389q0 -77 43.5 -125t126.5 -48q84 0 127.5 48t43.5 125v389h46v-390q0 -94 -56.5 -153.5t-160.5 -59.5zM220 724h-2q-16 0 -27 11t-11 27t11 27t27 11h2q16 0 27 -11t11 -27t-11 -27t-27 -11zM386 724h-2q-16 0 -27 11
t-11 27t11 27t27 11h2q16 0 27 -11t11 -27t-11 -27t-27 -11z" />
    <glyph glyph-name="Utilde.sc" horiz-adv-x="599" 
d="M299 -13q-104 0 -160 59.5t-56 153.5v390h46v-389q0 -77 43.5 -125t126.5 -48q84 0 127.5 48t43.5 125v389h46v-390q0 -94 -56.5 -153.5t-160.5 -59.5zM373 686q-31 0 -49 16t-32 34.5t-28.5 34.5t-38.5 16q-25 0 -41 -22.5t-16 -73.5h-31v2q0 59 24 93.5t65 34.5h2
q31 0 49 -16t32 -34.5t28.5 -34.5t39.5 -16t41 21.5t16 72.5h31v-2q0 -60 -24 -93t-66 -33h-2z" />
    <glyph glyph-name="Umacron.sc" horiz-adv-x="599" 
d="M299 -13q-104 0 -160 59.5t-56 153.5v390h46v-389q0 -77 43.5 -125t126.5 -48q84 0 127.5 48t43.5 125v389h46v-390q0 -94 -56.5 -153.5t-160.5 -59.5zM173 767h255v-33h-255v33z" />
    <glyph glyph-name="Ubreve.sc" horiz-adv-x="599" 
d="M299 -13q-104 0 -160 59.5t-56 153.5v390h46v-389q0 -77 43.5 -125t126.5 -48q84 0 127.5 48t43.5 125v389h46v-390q0 -94 -56.5 -153.5t-160.5 -59.5zM299 685q-65 0 -100 40.5t-35 97.5h41q0 -51 26 -78.5t70 -27.5q47 0 74 28.5t27 77.5h38q0 -56 -36 -97t-102 -41h-3
z" />
    <glyph glyph-name="Uring.sc" horiz-adv-x="599" 
d="M299 -13q-104 0 -160 59.5t-56 153.5v390h46v-389q0 -77 43.5 -125t126.5 -48q84 0 127.5 48t43.5 125v389h46v-390q0 -94 -56.5 -153.5t-160.5 -59.5zM301 657q-41 0 -71.5 25.5t-30.5 69.5t30.5 69.5t71.5 25.5q42 0 72 -25.5t30 -69.5t-30 -69.5t-72 -25.5zM301 687
q28 0 49 17t21 48t-21 48t-49 17t-48.5 -17t-20.5 -48t20.5 -48t48.5 -17z" />
    </font>
</defs>
</svg>
