<svg width="19" height="19" viewBox="0 0 19 19" fill="none" xmlns="http://www.w3.org/2000/svg">
<path d="M17.1021 0.575537L0.575533 17.1021C0.257675 17.42 0.257675 17.9353 0.575533 18.2532C0.893391 18.5711 1.40874 18.5711 1.7266 18.2532L18.2532 1.7266C18.5711 1.40875 18.5711 0.893395 18.2532 0.575537C17.9353 0.257679 17.42 0.25768 17.1021 0.575537Z" fill="#1F1B20"/>
<path d="M0.5756 1.72666L17.1022 18.2533C17.4201 18.5711 17.9354 18.5711 18.2533 18.2533C18.5711 17.9354 18.5711 17.4201 18.2533 17.1022L1.72667 0.575591C1.40881 0.257734 0.893458 0.257733 0.5756 0.575591C0.257742 0.893449 0.257742 1.4088 0.5756 1.72666Z" fill="#1F1B20"/>
</svg>
