<svg width="67" height="73" viewBox="0 0 67 73" fill="none" xmlns="http://www.w3.org/2000/svg">
<path d="M59.5815 64.2824V1.21459C59.5815 0.543531 59.0379 0 58.3669 0H18.2189C17.897 0 17.5873 0.12753 17.3595 0.355267L0.355267 17.3595C0.12753 17.5873 0 17.897 0 18.2189V64.2824C0 64.9535 0.543531 65.497 1.21459 65.497H58.3669C59.0379 65.497 59.5815 64.9535 59.5815 64.2824ZM17.0043 4.14827V13.3613C17.0043 15.3714 15.3707 17.0051 13.3605 17.0051H4.14751L17.0043 4.14827ZM57.1523 63.0682H2.42921V19.4339H13.3601C16.7094 19.4339 19.4331 16.7101 19.4331 13.3609V2.42996H57.1496L57.1523 63.0682Z" fill="#0074BA"/>
<path d="M65.7457 7.37881C65.0747 7.37881 64.5311 7.92234 64.5311 8.5934V70.4462H8.59307C7.92201 70.4462 7.37848 70.9898 7.37848 71.6608C7.37848 72.3319 7.92201 72.8754 8.59307 72.8754H65.7453C66.4164 72.8754 66.9599 72.3319 66.9599 71.6608V8.59301C66.9599 7.92195 66.4168 7.37881 65.7457 7.37881Z" fill="#0074BA"/>
<path d="M19.6122 26.5092L14.4259 29.6216C13.6698 28.9323 12.6739 28.4981 11.5716 28.4981C9.22746 28.4981 7.3205 30.405 7.3205 32.7492C7.3205 35.0934 9.22738 37.0003 11.5716 37.0003C13.9158 37.0003 15.8227 35.0934 15.8227 32.7492C15.8227 32.3848 15.762 32.0387 15.677 31.7016L20.8633 28.5892C21.6194 29.2785 22.6153 29.7127 23.7176 29.7127C24.8199 29.7127 25.8158 29.2815 26.5719 28.5892L31.7582 31.7016C31.6732 32.0386 31.6125 32.3848 31.6125 32.7492C31.6125 35.0933 33.5194 37.0003 35.8636 37.0003C38.2078 37.0003 40.1147 35.0934 40.1147 32.7492C40.1147 32.0204 39.9143 31.3433 39.5864 30.7421L45.9994 24.326C46.6006 24.6509 47.2777 24.8544 48.0065 24.8544C50.3506 24.8544 52.2576 22.9475 52.2576 20.6033C52.2576 18.2591 50.3507 16.3522 48.0065 16.3522C45.6623 16.3522 43.7554 18.2591 43.7554 20.6033C43.7554 21.332 43.9558 22.0092 44.2807 22.6104L37.8646 29.0264C37.2634 28.7015 36.5863 28.4981 35.8575 28.4981C34.7553 28.4981 33.7593 28.9293 33.0032 29.6216L27.8169 26.5092C27.9019 26.1722 27.9626 25.826 27.9626 25.4616C27.9626 23.1174 26.0557 21.2105 23.7115 21.2105C21.3673 21.2105 19.4604 23.1174 19.4604 25.4616C19.4604 25.826 19.5211 26.1721 19.6062 26.5092H19.6122ZM11.5714 34.571C10.5664 34.571 9.74952 33.7541 9.74952 32.749C9.74952 31.744 10.5664 30.9271 11.5714 30.9271C12.5765 30.9271 13.3934 31.744 13.3934 32.749C13.3934 33.7541 12.5765 34.571 11.5714 34.571ZM48.0092 18.7817C49.0143 18.7817 49.8311 19.5985 49.8311 20.6036C49.8311 21.6087 49.0143 22.4255 48.0092 22.4255C47.0041 22.4255 46.1873 21.6087 46.1873 20.6036C46.1873 19.5985 47.0041 18.7817 48.0092 18.7817ZM35.8633 30.9276C36.8684 30.9276 37.6852 31.7444 37.6852 32.7495C37.6852 33.7546 36.8684 34.5714 35.8633 34.5714C34.8582 34.5714 34.0414 33.7546 34.0414 32.7495C34.0414 31.7444 34.8582 30.9276 35.8633 30.9276ZM23.7174 23.64C24.7225 23.64 25.5393 24.4569 25.5393 25.462C25.5393 26.4671 24.7225 27.2839 23.7174 27.2839C22.7123 27.2839 21.8954 26.4671 21.8954 25.462C21.8954 24.4569 22.7123 23.64 23.7174 23.64Z" fill="#0074BA"/>
<path d="M51.0463 42.0194H16.391C15.7199 42.0194 15.1764 42.5629 15.1764 43.234C15.1764 43.9051 15.7199 44.4486 16.391 44.4486H51.0463C51.7174 44.4486 52.2609 43.9051 52.2609 43.234C52.2609 42.5629 51.7174 42.0194 51.0463 42.0194Z" fill="#0074BA"/>
<path d="M9.71679 44.4486H11.5721C12.2431 44.4486 12.7867 43.9051 12.7867 43.234C12.7867 42.5629 12.2431 42.0194 11.5721 42.0194H9.71679C9.04573 42.0194 8.5022 42.5629 8.5022 43.234C8.5022 43.9051 9.04573 44.4486 9.71679 44.4486Z" fill="#0074BA"/>
<path d="M51.0463 48.6571H16.391C15.7199 48.6571 15.1764 49.2006 15.1764 49.8717C15.1764 50.5428 15.7199 51.0863 16.391 51.0863H51.0463C51.7174 51.0863 52.2609 50.5428 52.2609 49.8717C52.2609 49.2006 51.7174 48.6571 51.0463 48.6571Z" fill="#0074BA"/>
<path d="M9.71679 51.0863H11.5721C12.2431 51.0863 12.7867 50.5428 12.7867 49.8717C12.7867 49.2006 12.2431 48.6571 11.5721 48.6571H9.71679C9.04573 48.6571 8.5022 49.2006 8.5022 49.8717C8.5022 50.5428 9.04573 51.0863 9.71679 51.0863Z" fill="#0074BA"/>
<path d="M51.0463 55.2948H9.71679C9.04573 55.2948 8.5022 55.8383 8.5022 56.5094C8.5022 57.1805 9.04573 57.724 9.71679 57.724H51.0463C51.7174 57.724 52.2609 57.1805 52.2609 56.5094C52.2609 55.8383 51.7174 55.2948 51.0463 55.2948Z" fill="#0074BA"/>
</svg>
