<svg width="94" height="92" viewBox="0 0 94 92" fill="none" xmlns="http://www.w3.org/2000/svg">
<path d="M11.848 38.492V24.672C11.848 20.6173 14.8675 17.3204 18.5785 17.3204H31.3835L28.6374 14.5704C28.1257 14.0587 28.1296 13.2345 28.6374 12.7227C29.1491 12.2149 29.9733 12.2149 30.4851 12.7227L35.4578 17.6993C35.489 17.7305 35.5164 17.7618 35.5476 17.7969C35.5594 17.8087 35.5672 17.8243 35.575 17.836C35.5906 17.8555 35.6062 17.879 35.6219 17.8985C35.6336 17.9141 35.6414 17.9337 35.6531 17.9493C35.6648 17.9688 35.6765 17.9883 35.6883 18.0079C35.7 18.0274 35.7078 18.043 35.7156 18.0626C35.7273 18.0821 35.7351 18.1016 35.743 18.1251C35.7508 18.1446 35.7547 18.1602 35.7625 18.1798C35.7703 18.2032 35.7781 18.2227 35.7859 18.2462C35.7898 18.2657 35.7937 18.2813 35.8015 18.3008C35.8094 18.3243 35.8133 18.3477 35.8172 18.3712C35.8211 18.3907 35.825 18.4141 35.8289 18.4376C35.8328 18.4571 35.8367 18.4766 35.8367 18.5001C35.8406 18.5391 35.8406 18.5743 35.8445 18.6133V18.6251V18.629C35.8445 18.6719 35.8406 18.7149 35.8367 18.7579C35.8328 18.7774 35.8289 18.7969 35.8289 18.8165C35.825 18.8399 35.8211 18.8634 35.8172 18.8829C35.8133 18.9063 35.8055 18.9258 35.8015 18.9493C35.7976 18.9688 35.7937 18.9884 35.7859 19.0079C35.7781 19.0274 35.7703 19.0469 35.7625 19.0704C35.7547 19.0899 35.7508 19.1094 35.743 19.129C35.7351 19.1485 35.7273 19.1641 35.7156 19.1837C35.7078 19.2032 35.6961 19.2227 35.6883 19.2423C35.6765 19.2618 35.6687 19.2774 35.657 19.293C35.6453 19.3126 35.6336 19.3321 35.6219 19.3516C35.6101 19.3712 35.5945 19.3907 35.5828 19.4063C35.5711 19.4219 35.5594 19.4376 35.5476 19.4532C35.5203 19.4844 35.493 19.5196 35.4617 19.5508L30.489 24.5236C30.2351 24.7775 29.8992 24.9064 29.5671 24.9064C29.2312 24.9064 28.8992 24.7775 28.6452 24.5236C28.1335 24.0118 28.1335 23.1876 28.6452 22.6758L31.3874 19.9336H18.5864C16.313 19.9336 14.4653 22.0586 14.4653 24.6719V38.492C14.4653 39.2146 13.8794 39.7966 13.1606 39.7966C12.438 39.7966 11.8559 39.2107 11.8559 38.492L11.848 38.492ZM93.043 27.972V32.6634C93.043 34.4017 91.7774 35.765 89.7422 36.2181L85.3789 37.2142C84.9648 38.5345 84.4336 39.8158 83.7891 41.0384L86.1758 44.8353C87.2891 46.597 87.2188 48.4525 85.9961 49.683L82.6797 52.9994C81.4453 54.226 79.5859 54.2924 77.8242 53.1791L74.0312 50.7924C72.8046 51.4369 71.5273 51.9682 70.207 52.3783L69.2109 56.7494C68.7539 58.7806 67.3945 60.0463 65.6562 60.0463H60.9648C59.2265 60.0463 57.8632 58.7807 57.4101 56.7455L56.4179 52.3822C55.0937 51.9681 53.8124 51.4369 52.5898 50.7924L48.7929 53.1791C47.0312 54.2924 45.1718 54.2221 43.9452 52.9955L40.6288 49.683C39.4022 48.4486 39.3358 46.5892 40.4491 44.8275L42.8358 41.0345C42.1913 39.8079 41.66 38.5267 41.2499 37.2103L36.8788 36.2142C34.8476 35.7611 33.5819 34.3978 33.5819 32.6595V27.9681C33.5819 26.2298 34.8475 24.8665 36.8827 24.4134L41.2499 23.4173C41.6601 22.1009 42.1913 20.8196 42.8358 19.5931L40.4491 15.7962C39.3358 14.0345 39.4061 12.179 40.6288 10.9485L43.9491 7.63209C45.1757 6.40549 47.0311 6.3352 48.7968 7.45241L52.5898 9.83911C53.8164 9.19458 55.0937 8.6633 56.414 8.2532L57.4101 3.88211C57.8632 1.85091 59.2265 0.585205 60.9648 0.585205H65.6562C67.3945 0.585205 68.7539 1.85081 69.2109 3.88601L70.207 8.2532C71.5234 8.66336 72.8047 9.19462 74.0312 9.83911L77.8281 7.45241C79.5859 6.34301 81.4453 6.4094 82.6758 7.63209L85.9922 10.9485C87.2188 12.1829 87.2852 14.0423 86.1719 15.8001L83.7852 19.5931C84.4297 20.8158 84.961 22.097 85.3711 23.4173L89.7422 24.4134C91.7734 24.8665 93.0391 26.2298 93.0391 27.9681L93.043 27.972ZM90.4336 27.972C90.4336 27.3157 89.5508 27.0462 89.1719 26.9642L84.0469 25.7962C83.5781 25.6907 83.2071 25.3313 83.0781 24.8704C82.6328 23.2415 81.9804 21.6712 81.1406 20.1985C80.9024 19.7805 80.9141 19.2649 81.168 18.8587L83.9649 14.4134C84.1758 14.0814 84.6094 13.265 84.1446 12.7962L80.836 9.48761C80.3711 9.02277 79.5508 9.46026 79.2227 9.6673L74.7774 12.4642C74.3711 12.722 73.8555 12.7298 73.4376 12.4915C71.9649 11.6517 70.3946 11.0032 68.7657 10.554C68.3008 10.4251 67.9454 10.054 67.8399 9.58529L66.6719 4.46419C66.586 4.08138 66.3164 3.19469 65.6602 3.19469H60.9688C60.3125 3.19469 60.043 4.0775 59.961 4.45639L58.793 9.58139C58.6875 10.0501 58.3282 10.4212 57.8672 10.5501C56.2383 10.9954 54.668 11.6478 53.1953 12.4876C52.7774 12.7259 52.2617 12.7142 51.8555 12.4603L47.4102 9.6634C47.1524 9.49934 46.2735 9.00715 45.8008 9.47981L42.4805 12.7923C42.0196 13.2571 42.4532 14.0735 42.6602 14.4056L45.4571 18.8509C45.7149 19.2572 45.7227 19.7728 45.4845 20.1907C44.6446 21.6634 43.9962 23.2337 43.547 24.8626C43.418 25.3274 43.047 25.6829 42.5782 25.7884L37.4571 26.9564C37.0743 27.0423 36.1876 27.3119 36.1876 27.9681V32.6595C36.1876 33.3157 37.0704 33.5853 37.4493 33.6673L42.5743 34.8353C43.0431 34.9408 43.4141 35.3001 43.5431 35.7611C43.9884 37.39 44.6408 38.9603 45.4806 40.433C45.7188 40.8509 45.7071 41.3666 45.4532 41.7728L42.6563 46.2181C42.4454 46.5501 42.0118 47.3665 42.4766 47.8353L45.793 51.1439C46.2696 51.6204 47.1446 51.1282 47.4024 50.9642L51.8477 48.1673C52.0587 48.0345 52.3008 47.9681 52.543 47.9681C52.7657 47.9681 52.9883 48.0266 53.1876 48.1399C54.6564 48.9759 56.2267 49.6282 57.8673 50.0813C58.3321 50.2102 58.6876 50.5813 58.793 51.0501L59.9532 56.1634C60.0392 56.5462 60.3087 57.429 60.9649 57.429H65.6563C66.3126 57.429 66.5821 56.5462 66.6641 56.1673L67.8321 51.0423C67.9376 50.5735 68.297 50.2024 68.7579 50.0735C70.3868 49.6282 71.9571 48.9758 73.4298 48.136C73.8478 47.8978 74.3634 47.9095 74.7696 48.1634L79.2149 50.9603C79.547 51.1712 80.3633 51.6048 80.8321 51.14L84.1407 47.8314C84.6056 47.3665 84.1681 46.5462 83.961 46.2181L81.1641 41.7728C80.9063 41.3665 80.8985 40.8509 81.1368 40.433C81.9727 38.9682 82.6251 37.3939 83.0782 35.7572C83.2071 35.2962 83.5782 34.9408 84.0469 34.8314L89.1602 33.6634C89.547 33.5775 90.4297 33.3079 90.4297 32.6517V27.9603L90.4336 27.972ZM76.7696 30.3197C76.7696 37.7416 70.7344 43.7767 63.3126 43.7767C55.8908 43.7767 49.8556 37.7415 49.8556 30.3197C49.8556 22.8978 55.8908 16.8627 63.3126 16.8627C70.7344 16.8627 76.7696 22.8979 76.7696 30.3197ZM74.1602 30.3197C74.1602 24.3392 69.293 19.4717 63.3122 19.4717C57.3314 19.4717 52.4642 24.3389 52.4642 30.3197C52.4642 36.3002 57.3314 41.1677 63.3122 41.1677C69.293 41.1677 74.1602 36.3005 74.1602 30.3197ZM46.6252 64.2887C47.0041 65.7145 46.2814 67.109 44.7346 67.9293L41.8479 69.4527C41.7971 70.4097 41.6721 71.3668 41.4729 72.3082L43.8674 74.523C45.1486 75.7183 45.4846 77.2496 44.7502 78.5269L42.9533 81.6441C42.2072 82.9253 40.7111 83.398 39.0431 82.8785L35.9259 81.9136C35.215 82.5543 34.4493 83.1441 33.6407 83.6675L33.7657 86.9292C33.8321 88.6792 32.9884 90.0034 31.5626 90.3862L28.086 91.3159C27.8321 91.3823 27.5821 91.4175 27.336 91.4175C26.1837 91.4175 25.1212 90.7027 24.4493 89.4292L22.9298 86.5425C21.9689 86.4956 21.0118 86.3706 20.0704 86.1675L17.8516 88.562C16.6641 89.8432 15.1289 90.1831 13.8477 89.4448L10.7344 87.6479C9.45321 86.9096 8.97661 85.4096 9.49611 83.7377L10.4609 80.6205C9.81251 79.9018 9.22655 79.14 8.71095 78.3353L5.45315 78.4603C3.70705 78.5267 2.38285 77.6869 1.99225 76.265L1.05866 72.7806C0.675847 71.3509 1.40241 69.9564 2.95316 69.1439L5.83206 67.6244C5.88284 66.6635 6.00784 65.7103 6.20706 64.7689L3.81646 62.5501C2.53126 61.3626 2.19146 59.8274 2.92974 58.5501L4.73444 55.4368C5.46882 54.1595 6.96884 53.6868 8.64064 54.2024L11.7578 55.1672C12.4766 54.5188 13.2383 53.9289 14.039 53.4133L13.914 50.1555C13.8476 48.4055 14.6914 47.0813 16.1249 46.6985L19.5937 45.765C21.0234 45.3821 22.414 46.1087 23.2343 47.6595L24.7577 50.5462C25.7187 50.593 26.6718 50.718 27.6132 50.9212L29.832 48.5267C31.0234 47.2376 32.5586 46.9017 33.8398 47.6477L36.9531 49.4407C38.2343 50.179 38.707 51.6751 38.1875 53.3509L37.2227 56.4681C37.8672 57.1791 38.4532 57.9447 38.9766 58.7493L42.2383 58.6243C43.9844 58.5579 45.3125 59.4017 45.6953 60.8352L46.625 64.3079L46.6252 64.2887ZM44.1018 64.9606L43.1721 61.4918C43.1096 61.2496 42.5979 61.2066 42.3362 61.2183L38.3167 61.3707C37.8401 61.3902 37.387 61.1402 37.1409 60.7261C36.4963 59.6284 35.7151 58.6167 34.8245 57.7105C34.4846 57.3668 34.3635 56.8668 34.5042 56.4058L35.6917 52.5581C35.7698 52.3081 35.8596 51.8042 35.6487 51.6792L32.5315 49.8823C32.262 49.7261 31.7698 50.2534 31.7463 50.2769L29.008 53.23C28.6799 53.5854 28.1838 53.726 27.7189 53.605C26.4923 53.2807 25.2267 53.1128 23.9572 53.1089C23.4768 53.105 23.0314 52.8393 22.8088 52.4136L20.926 48.8511C20.8049 48.6206 20.512 48.1987 20.2737 48.2612L16.8049 49.1948C16.5627 49.2612 16.5197 49.769 16.5275 50.0307L16.6799 54.0541C16.6994 54.5346 16.4494 54.9877 16.0354 55.2299C14.9534 55.8628 13.9377 56.6401 13.0237 57.5463C12.6799 57.8862 12.1799 58.0073 11.719 57.8667L7.87126 56.6792C7.84391 56.6713 7.1447 56.4604 6.99235 56.7221L5.18765 59.8354C5.03531 60.101 5.56656 60.5971 5.58999 60.6167L8.53919 63.355C8.89075 63.6831 9.03528 64.1753 8.91419 64.6402C8.59388 65.8707 8.42591 67.1441 8.4181 68.4175C8.41419 68.8979 8.14857 69.3394 7.72279 69.562L4.16809 71.437C4.13684 71.4526 3.49621 71.7924 3.57825 72.0893L4.50794 75.5659C4.58997 75.8628 5.31653 75.8354 5.34778 75.8354L9.36728 75.6831C9.84775 75.6636 10.3009 75.9136 10.5431 76.3315C11.1798 77.4213 11.9572 78.4331 12.8556 79.351C13.1915 79.6948 13.3126 80.1948 13.172 80.6518L11.9845 84.4995C11.9728 84.5308 11.7657 85.2222 12.0353 85.3785L15.1486 87.1754C15.4181 87.3316 15.9103 86.8043 15.9298 86.7808L18.6681 83.8277C18.9181 83.5582 19.2658 83.4098 19.6251 83.4098C19.7345 83.4098 19.8478 83.4254 19.9572 83.4527C21.1838 83.7769 22.4533 83.9449 23.7228 83.9488C24.2072 83.9527 24.6486 84.2183 24.8712 84.6441L26.7462 88.2066C26.7618 88.234 27.1016 88.8707 27.3985 88.7926L30.8751 87.8629C31.1095 87.8004 31.1564 87.2887 31.1446 87.0269L30.9923 83.0074C30.9728 82.527 31.2228 82.0777 31.6368 81.8316C32.7423 81.1832 33.7579 80.4019 34.6563 79.5152C35.0001 79.1754 35.5001 79.0543 35.961 79.1949L39.8087 80.3824C39.84 80.3941 40.5314 80.6051 40.6876 80.3316L42.4806 77.2183C42.633 76.9527 42.1057 76.4527 42.0822 76.4332L39.133 73.7066C38.7815 73.3824 38.6369 72.8863 38.7541 72.4214C39.0744 71.1831 39.2424 69.9136 39.2502 68.6441C39.2541 68.1636 39.5197 67.7222 39.9455 67.4996L43.5002 65.6246C43.5666 65.5894 44.1682 65.2613 44.09 64.9644L44.1018 64.9606ZM34.1057 65.7809C35.6213 71.4411 32.2502 77.2769 26.594 78.7929C25.6799 79.039 24.7502 79.1601 23.8245 79.1601C21.9847 79.1601 20.1683 78.6757 18.5276 77.7343C16.0706 76.3163 14.3128 74.0234 13.5784 71.2851C12.844 68.5429 13.2229 65.6796 14.6409 63.2226C16.0589 60.7656 18.3518 59.0078 21.0901 58.2734C26.7424 56.7578 32.5781 60.1289 34.1021 65.7851L34.1057 65.7809ZM31.5862 66.4567C30.6253 62.8825 27.3792 60.5153 23.844 60.5153C23.1604 60.5153 22.4651 60.6051 21.7737 60.7887C19.7073 61.3434 17.9768 62.6676 16.9065 64.5231C15.8362 66.3786 15.551 68.5348 16.1057 70.6051C16.6604 72.6715 17.9846 74.402 19.8401 75.4723C21.6917 76.5426 23.8557 76.8278 25.9221 76.2731C30.1877 75.1286 32.7307 70.7262 31.5862 66.4567ZM74.4412 57.695C73.7185 57.695 73.1365 58.2809 73.1365 58.9997V72.8197C73.1365 75.433 71.2888 77.558 69.0154 77.558H56.2144L58.9605 74.8158C59.4722 74.3079 59.4722 73.4799 58.9605 72.9681C58.4527 72.4563 57.6246 72.4563 57.1128 72.9681L52.1362 77.9408C52.1049 77.972 52.0776 78.0033 52.0503 78.0345C52.0464 78.0423 52.0424 78.0462 52.0346 78.054C52.0112 78.0814 51.9917 78.1087 51.9721 78.14C51.9682 78.1478 51.9643 78.1517 51.9604 78.1595C51.9409 78.1908 51.9214 78.2181 51.9057 78.2533C51.9018 78.2572 51.9018 78.2611 51.9018 78.265C51.8823 78.3001 51.8667 78.3353 51.851 78.3704V78.3744C51.8198 78.4525 51.7924 78.5306 51.7768 78.6165C51.7768 78.6204 51.7768 78.6283 51.7729 78.6322C51.7651 78.6673 51.7612 78.7064 51.7573 78.7415C51.7534 78.7845 51.7495 78.8275 51.7495 78.8705V78.89C51.7495 78.929 51.7534 78.9642 51.7573 79.0033C51.7612 79.0384 51.7651 79.0736 51.7729 79.1087C51.7729 79.1165 51.7768 79.1244 51.7768 79.1322C51.7846 79.1712 51.7964 79.2103 51.8042 79.2494C51.8042 79.2533 51.8042 79.2533 51.8081 79.2572C51.8198 79.2962 51.8315 79.3314 51.8471 79.3705C51.8471 79.3744 51.851 79.3744 51.851 79.3783C51.8667 79.4134 51.8823 79.4447 51.8979 79.4798C51.9018 79.4837 51.9018 79.4915 51.9057 79.4955C51.9214 79.5267 51.9409 79.554 51.9604 79.5853C51.9643 79.5931 51.9682 79.6009 51.9721 79.6087C51.9917 79.6361 52.0112 79.6634 52.0307 79.6869C52.0385 79.6947 52.0424 79.7025 52.0464 79.7103C52.0737 79.7415 52.101 79.7767 52.1323 79.804L57.1089 84.7806C57.3628 85.0346 57.6987 85.1635 58.0308 85.1635C58.3667 85.1635 58.6987 85.0345 58.9526 84.7806C59.4644 84.2689 59.4644 83.4447 58.9526 82.9329L56.2026 80.1829H69.0037C72.7146 80.1829 75.7342 76.886 75.7342 72.8313V59.0113C75.7342 58.2887 75.1482 57.7066 74.4295 57.7066L74.4412 57.695Z" fill="#0074BA"/>
</svg>
