<svg width="72" height="72" viewBox="0 0 72 72" fill="none" xmlns="http://www.w3.org/2000/svg">
<path d="M62.7059 0.6875H8.60724C3.86135 0.6875 0.000244141 4.54814 0.000244141 9.2945V51.098C0.000244141 55.8439 3.86088 59.705 8.60724 59.705H31.3161L22.6052 67.3894C22.095 67.8382 22.0489 68.6159 22.4976 69.1261C22.7405 69.4027 23.0786 69.5411 23.4198 69.5411C23.7087 69.5411 23.9977 69.4396 24.2312 69.2337L34.4238 60.2395V70.7705C34.4238 71.4498 34.974 72 35.6533 72C36.3326 72 36.8828 71.4498 36.8828 70.7705V60.2395L47.0754 69.2337C47.309 69.4396 47.601 69.5411 47.8869 69.5411C48.228 69.5411 48.5662 69.3997 48.809 69.1261C49.2578 68.6159 49.2086 67.8413 48.7014 67.3894L39.9906 59.705H62.6994C67.4453 59.705 71.3064 55.8444 71.3064 51.098L71.3126 9.2945C71.3126 4.54861 67.4523 0.6875 62.7059 0.6875ZM68.8535 51.0972C68.8535 54.4876 66.0963 57.2448 62.7059 57.2448H8.60724C5.21685 57.2448 2.45967 54.4876 2.45967 51.0972V9.29371C2.45967 5.90332 5.21685 3.14614 8.60724 3.14614H62.7059C66.0963 3.14614 68.8535 5.90332 68.8535 9.29371V51.0972Z" fill="#0074BA"/>
<path d="M61.4759 46.1796H57.1942V29.1694C57.1942 28.4901 56.644 27.9399 55.9647 27.9399C55.2853 27.9399 54.7351 28.4901 54.7351 29.1694V46.1796H44.899V36.4143C44.899 35.735 44.3488 35.1848 43.6695 35.1848C42.9902 35.1848 42.44 35.735 42.44 36.4143V46.1796H32.6039V42.5833C32.6039 41.904 32.0537 41.3538 31.3744 41.3538C30.6951 41.3538 30.1448 41.904 30.1448 42.5833V46.1796H20.3087V41.3507C20.3087 40.6714 19.7585 40.1212 19.0792 40.1212C18.3999 40.1212 17.8497 40.6714 17.8497 41.3507V46.1796H11.0658V43.0935L23.4688 30.6481L30.5692 37.7731C31.0303 38.2342 31.8479 38.2342 32.312 37.7731L44.2444 25.7975L47.5733 29.1387C48.0344 29.6028 48.852 29.6028 49.3161 29.1387L59.0201 19.4009V22.57C59.0201 23.2493 59.5703 23.7995 60.2496 23.7995C60.9289 23.7995 61.4791 23.2493 61.4791 22.57V16.6744C61.4791 15.9951 60.9289 15.4449 60.2496 15.4449H54.102C53.4227 15.4449 52.8725 15.9951 52.8725 16.6744C52.8725 17.3537 53.4227 17.9039 54.102 17.9039H57.0406L48.4462 26.5322L45.1172 23.191C44.8867 22.9604 44.5732 22.8283 44.2473 22.8283C43.9215 22.8283 43.608 22.9574 43.3774 23.191L31.445 35.1666L24.3446 28.0416C23.8835 27.5805 23.0659 27.5805 22.6018 28.0416L11.0723 39.6144L11.0661 14.2128C11.0661 13.5335 10.5159 12.9833 9.83663 12.9833C9.15732 12.9833 8.60712 13.5335 8.60712 14.2128V47.4101C8.60712 48.0894 9.15732 48.6396 9.83663 48.6396H61.4763C62.1556 48.6396 62.7058 48.0894 62.7058 47.4101C62.7058 46.7308 62.1556 46.1806 61.4763 46.1806L61.4759 46.1796Z" fill="#0074BA"/>
</svg>
