<svg width="58" height="60" viewBox="0 0 58 60" fill="none" xmlns="http://www.w3.org/2000/svg">
<path d="M57.1532 44.2854C55.9977 42.2135 53.3329 41.3909 51.2118 42.4549L43.2756 46.4393C43.3225 46.1862 43.3459 45.9166 43.3459 45.626C43.3459 43.3338 41.4826 41.4682 39.1928 41.4682H30.2678C26.0959 38.1893 18.9218 36.7572 13.196 36.4853V35.433C13.196 34.915 12.7765 34.4955 12.2585 34.4955H1.24969C0.731727 34.4955 0.312195 34.915 0.312195 35.433V55.6644C0.312195 56.1824 0.731727 56.6019 1.24969 56.6019H12.2585C12.7765 56.6019 13.196 56.1824 13.196 55.6644V55.2753L25.7984 59.2457C27.3969 59.7496 28.9695 60.0003 30.5374 60.0003C32.3023 60.0003 34.0624 59.6792 35.839 59.0394L41.8226 56.8831C41.8577 56.8714 41.8929 56.855 41.9257 56.8386L55.3717 50.0886C56.41 49.5683 57.1694 48.6753 57.5069 47.5761C57.8444 46.4745 57.7204 45.3049 57.1532 44.2854ZM11.3162 54.7224H2.1848V36.3708H11.3162V54.7224ZM55.7114 47.0232C55.5239 47.6279 55.1044 48.1224 54.5278 48.4107L41.131 55.1349L35.2013 57.2724C32.206 58.3529 29.3958 58.4091 26.3609 57.4529L13.1939 53.3067V38.3631C19.9463 38.6913 26.2067 40.5264 29.3327 43.1303C29.5015 43.271 29.7147 43.3483 29.9327 43.3483H39.1907C40.447 43.3483 41.4688 44.3702 41.4688 45.6288C41.4688 46.5569 41.1009 47.1147 40.0368 47.7593L24.2964 47.7124H24.2941C23.7761 47.7124 23.3566 48.1296 23.3566 48.6475C23.3542 49.1655 23.7738 49.5874 24.2917 49.5897L40.2529 49.6366H40.2553H40.2717C40.3959 49.6389 40.5248 49.6178 40.6467 49.5663L43.8482 48.2514C43.8693 48.2421 43.8904 48.2327 43.9139 48.2233L52.0511 44.1382C53.2862 43.5194 54.8378 43.9975 55.5104 45.2045C55.8292 45.767 55.8989 46.4138 55.7114 47.0232ZM18.0452 24.4482H20.2272C20.5788 25.6552 21.0616 26.8224 21.6709 27.9334L20.1264 29.4779C19.7608 29.8435 19.7608 30.4388 20.1264 30.8044L25.5921 36.2701C25.9577 36.6357 26.553 36.6357 26.9186 36.2701L28.4631 34.7255C29.5717 35.3349 30.7413 35.8201 31.9506 36.1693V38.3513C31.9506 38.8692 32.3702 39.2888 32.8881 39.2888H40.6155C41.1335 39.2888 41.553 38.8692 41.553 38.3513V36.1693C42.76 35.8177 43.9272 35.3349 45.0382 34.7255L46.5827 36.2701C46.9483 36.6357 47.5437 36.6357 47.9092 36.2701L53.3749 30.8044C53.7405 30.4388 53.7405 29.8435 53.3749 29.4779L51.8327 27.9357C52.4421 26.8294 52.9249 25.6622 53.2764 24.4505H55.4584C55.9764 24.4505 56.3959 24.031 56.3959 23.513V15.7856C56.3959 15.2677 55.9764 14.8481 55.4584 14.8481H53.2788C52.9249 13.6318 52.4397 12.4622 51.8326 11.3583L53.3748 9.81612C53.7404 9.45049 53.7404 8.85516 53.3748 8.48958L47.9092 3.02394C47.7334 2.84816 47.4943 2.74972 47.2459 2.74972C46.9974 2.74972 46.7584 2.84816 46.5826 3.02629L45.0404 4.57081C43.9318 3.95911 42.7646 3.47395 41.5552 3.12469V0.937988C41.5552 0.42002 41.1357 0.000488281 40.6177 0.000488281H32.8903C32.3724 0.000488281 31.9528 0.42002 31.9528 0.937988V3.12001C30.7411 3.47157 29.5716 3.95671 28.4653 4.56613L26.9232 3.02161C26.7474 2.84583 26.5083 2.74739 26.2599 2.74504C26.0114 2.74504 25.7724 2.84348 25.5966 3.01926L20.1309 8.4849C19.7653 8.85053 19.7653 9.44586 20.1309 9.81144L21.6754 11.356C21.0661 12.4646 20.5809 13.6341 20.2317 14.8435H18.0497C17.5317 14.8435 17.1122 15.263 17.1122 15.781V23.5084C17.1075 24.0287 17.5272 24.4482 18.0452 24.4482ZM18.985 16.7208H20.9491C21.3827 16.7208 21.7577 16.4255 21.8608 16.0036C22.2311 14.4849 22.8311 13.0341 23.6491 11.6864C23.8741 11.3161 23.8155 10.8427 23.5108 10.5356L22.121 9.1458L26.2577 5.0091L27.6475 6.40128C27.9545 6.70831 28.4303 6.76456 28.8006 6.53956C30.1436 5.72158 31.5944 5.11924 33.1155 4.74892C33.535 4.6458 33.8327 4.2708 33.8327 3.83722L33.8303 1.87552H39.6803V3.83956C39.6803 4.27316 39.9756 4.64818 40.3975 4.75126C41.9139 5.12158 43.3647 5.72158 44.71 6.5419C45.0803 6.7669 45.5561 6.71065 45.8631 6.40362L47.253 5.01144L51.3897 9.14814L49.9998 10.538C49.6928 10.845 49.6366 11.3208 49.8616 11.6888C50.6749 13.0224 51.2772 14.4755 51.6522 16.006C51.7553 16.4255 52.1303 16.7208 52.5639 16.7208H54.5256L54.5209 22.5708H52.5569C52.1233 22.5708 51.7482 22.8661 51.6452 23.288C51.2749 24.8114 50.6725 26.2622 49.8592 27.6005C49.6342 27.9708 49.6905 28.4466 49.9975 28.7513L51.3873 30.1411L47.2506 34.2778L45.8608 32.888C45.5561 32.5833 45.0803 32.5247 44.71 32.7497C43.3623 33.5677 41.9115 34.1677 40.3975 34.538C39.978 34.6411 39.6803 35.0161 39.6803 35.4497V37.4137H33.8303V35.4497C33.8303 35.0161 33.535 34.6411 33.1131 34.538C31.5944 34.1677 30.1436 33.5677 28.7959 32.7497C28.4256 32.5247 27.9522 32.5833 27.6451 32.888L26.2553 34.2778L22.1186 30.1411L23.5084 28.7513C23.8131 28.4466 23.8717 27.9708 23.6467 27.6005C22.8287 26.2528 22.2287 24.802 21.8584 23.288C21.7553 22.8685 21.3803 22.5708 20.9467 22.5708H18.9827L18.985 16.7208ZM36.7552 32.22C43.6882 32.22 49.3294 26.5786 49.3294 19.6458C49.3294 12.7128 43.6881 7.0716 36.7552 7.0716C29.8198 7.0716 24.1762 12.713 24.1762 19.6458C24.1762 26.5788 29.8176 32.22 36.7552 32.22ZM36.7552 8.949C42.6544 8.949 47.452 13.749 47.452 19.6458C47.452 25.545 42.652 30.3426 36.7552 30.3426C30.8537 30.3426 26.0536 25.5426 26.0536 19.6458C26.0536 13.7466 30.8536 8.949 36.7552 8.949ZM30.4366 20.1918C30.0734 19.8238 30.0757 19.2285 30.446 18.8653C30.814 18.502 31.4093 18.5043 31.7726 18.8746L34.871 22.0176L41.7338 15.0588C42.0971 14.6908 42.6924 14.6862 43.0604 15.0494C43.4283 15.4127 43.433 16.0081 43.0697 16.376L35.5391 24.0122C35.3633 24.1903 35.1219 24.2911 34.8712 24.2911C34.6204 24.2911 34.379 24.1903 34.2032 24.0122L30.4366 20.1918Z" fill="#0074BA"/>
</svg>
