<svg width="90" height="92" viewBox="0 0 90 92" fill="none" xmlns="http://www.w3.org/2000/svg">
<path d="M52.631 90.8039L70.938 90.9999C70.958 90.9999 70.979 90.9999 70.999 90.9999C72.439 90.9999 73.8 90.4429 74.837 89.4279C75.888 88.3989 76.476 87.0269 76.491 85.5639L76.609 74.5299C76.636 71.9989 74.936 69.8489 72.611 69.1899L72.711 68.5009C73.007 66.5159 73.912 64.7169 75.329 63.2999L83.918 54.7119C86.028 52.6019 87.36 49.8149 87.669 46.8639L88.581 38.2119C88.646 37.8979 88.681 37.5729 88.684 37.2359L88.686 37.2179C88.686 37.2149 88.685 37.2129 88.685 37.2099C88.685 37.1659 88.692 37.1249 88.691 37.0809L88.246 23.1419C88.214 22.2409 87.845 21.3919 87.206 20.7539C86.524 20.0719 85.57 19.7089 84.591 19.7149C80.905 19.8369 77.998 22.9359 78.111 26.6259L78.329 33.3369L77.085 38.3739C75.731 38.2519 74.337 38.6869 73.303 39.7209L65.804 47.2249L63.086 47.6949C61.538 47.9579 60.073 48.7139 58.962 49.8249L53.877 54.9099C52.474 56.3129 51.676 58.1749 51.63 60.1549L51.433 68.9839C50.516 69.2219 49.666 69.6689 48.969 70.3519C47.918 71.3809 47.33 72.7529 47.315 74.2159L47.197 85.2499C47.181 86.7119 47.739 88.0969 48.769 89.1479C49.796 90.2009 51.168 90.7879 52.631 90.8039ZM55.291 56.3249L60.376 51.2399C61.196 50.4199 62.277 49.8619 63.423 49.6669L66.458 49.1429C66.493 49.1369 66.52 49.1149 66.554 49.1059C66.62 49.0879 66.681 49.0649 66.743 49.0329C66.804 49.0009 66.857 48.9649 66.909 48.9229C66.937 48.9009 66.97 48.8909 66.996 48.8649L74.718 41.1369C75.788 40.0669 77.531 40.0669 78.601 41.1369C79.671 42.2069 79.671 43.9499 78.601 45.0199L69.729 53.8919C69.338 54.2829 69.338 54.9149 69.729 55.3059C69.924 55.5009 70.18 55.5989 70.436 55.5989C70.692 55.5989 70.948 55.5009 71.143 55.3059L80.015 46.4339C81.865 44.5839 81.865 41.5729 80.015 39.7229C79.707 39.4149 79.36 39.1779 78.999 38.9719L80.306 33.6829C80.317 33.6369 80.307 33.5929 80.312 33.5479C80.317 33.5009 80.337 33.4589 80.335 33.4109L80.113 26.5639C80.034 23.9759 82.074 21.7999 84.649 21.7149C85.081 21.6919 85.493 21.8659 85.795 22.1689C86.078 22.4519 86.235 22.8139 86.25 23.2099L86.693 37.0769L85.683 46.6549C85.422 49.1519 84.293 51.5109 82.507 53.2979L73.918 61.8859C72.196 63.6089 71.096 65.7939 70.735 68.2089L70.624 68.9709L53.44 68.7869L53.632 60.2009C53.663 58.7399 54.253 57.3629 55.291 56.3249ZM49.313 74.2379C49.323 73.3099 49.697 72.4369 50.367 71.7819C51.027 71.1359 51.892 70.7809 52.806 70.7809C52.819 70.7809 52.832 70.7809 52.845 70.7809L71.152 70.9769C73.079 70.9979 74.629 72.5819 74.609 74.5089L74.49 85.5429C74.48 86.4709 74.106 87.3439 73.436 87.9989C72.767 88.6549 71.85 89.0249 70.958 88.9989L52.651 88.8029C51.722 88.7929 50.85 88.4189 50.195 87.7489C49.54 87.0799 49.184 86.1999 49.194 85.2709L49.313 74.2379Z" fill="#0074BA" stroke="#0074BA" stroke-width="0.8"/>
<path d="M70.46 78.4899C71.8937 78.4899 73.056 77.3276 73.056 75.8939C73.056 74.4601 71.8937 73.2979 70.46 73.2979C69.0263 73.2979 67.864 74.4601 67.864 75.8939C67.864 77.3276 69.0263 78.4899 70.46 78.4899Z" fill="#0074BA" stroke="#0074BA" stroke-width="0.8"/>
<path d="M1.315 37.2169V37.2189V37.2239C1.317 37.5629 1.353 37.8939 1.419 38.2149L2.331 46.8639C2.64 49.8159 3.972 52.6029 6.082 54.7129L14.671 63.3009C16.088 64.7179 16.993 66.5169 17.288 68.4979L17.389 69.1909C15.063 69.8509 13.364 71.9999 13.391 74.5309L13.509 85.5649C13.525 87.0269 14.112 88.3989 15.163 89.4289C16.201 90.4429 17.562 90.9999 19.001 90.9999C19.022 90.9999 19.042 90.9999 19.062 90.9999L37.369 90.8039C38.831 90.7879 40.204 90.2009 41.233 89.1499C42.262 88.0989 42.82 86.7139 42.805 85.2519L42.687 74.2179C42.671 72.7559 42.084 71.3839 41.033 70.3539C40.333 69.6689 39.488 69.2259 38.569 68.9889L38.372 60.1559C38.326 58.1769 37.528 56.3149 36.125 54.9119L31.04 49.8269C29.929 48.7159 28.465 47.9599 26.92 47.6979L24.198 47.2279L16.699 39.7239C15.665 38.6899 14.271 38.2549 12.917 38.3769L11.673 33.3399L11.891 26.6269C12.004 22.9389 9.097 19.8389 5.4 19.7169C4.4 19.6989 3.477 20.0739 2.796 20.7569C2.158 21.3949 1.789 22.2429 1.756 23.1489L1.309 37.0929C1.308 37.1349 1.315 37.1749 1.315 37.2169ZM40.687 74.2379L40.805 85.2719C40.815 86.1999 40.459 87.0799 39.804 87.7499C39.149 88.4199 38.277 88.7939 37.348 88.8039L19.041 88.9999C18.098 88.9979 17.233 88.6549 16.563 87.9999C15.893 87.3449 15.519 86.4719 15.509 85.5439L15.391 74.5099C15.37 72.5829 16.921 70.9989 18.848 70.9779L37.155 70.7819C38.13 70.7829 38.964 71.1279 39.633 71.7819C40.303 72.4379 40.677 73.3099 40.687 74.2379ZM4.208 22.1689C4.511 21.8669 4.947 21.6999 5.343 21.7149C7.929 21.7999 9.969 23.9759 9.89 26.5629L9.668 33.4119C9.666 33.4599 9.686 33.5019 9.691 33.5489C9.696 33.5949 9.686 33.6389 9.697 33.6839L11.004 38.9729C10.643 39.1779 10.295 39.4159 9.988 39.7239C8.138 41.5739 8.138 44.5849 9.988 46.4349L18.86 55.3069C19.055 55.5019 19.311 55.5999 19.567 55.5999C19.823 55.5999 20.079 55.5019 20.274 55.3069C20.665 54.9159 20.665 54.2839 20.274 53.8929L11.402 45.0209C10.332 43.9509 10.332 42.2079 11.402 41.1379C12.472 40.0679 14.215 40.0679 15.284 41.1379L23.007 48.8659C23.033 48.8919 23.066 48.9009 23.094 48.9239C23.146 48.9659 23.199 49.0029 23.26 49.0339C23.322 49.0659 23.383 49.0889 23.449 49.1069C23.483 49.1169 23.509 49.1379 23.545 49.1439L26.583 49.6689C27.726 49.8629 28.806 50.4209 29.626 51.2409L34.711 56.3259C35.749 57.3639 36.338 58.7409 36.373 60.2019L36.565 68.7889L19.381 68.9729L19.27 68.2079C18.91 65.7959 17.81 63.6109 16.088 61.8879L7.499 53.2999C5.712 51.5129 4.584 49.1539 4.323 46.6559L3.313 37.0779L3.756 23.2159C3.768 22.8129 3.925 22.4519 4.208 22.1689Z" fill="#0074BA" stroke="#0074BA" stroke-width="0.8"/>
<path d="M19.54 78.4899C20.9737 78.4899 22.136 77.3276 22.136 75.8939C22.136 74.4601 20.9737 73.2979 19.54 73.2979C18.1062 73.2979 16.944 74.4601 16.944 75.8939C16.944 77.3276 18.1062 78.4899 19.54 78.4899Z" fill="#0074BA" stroke="#0074BA" stroke-width="0.8"/>
<path d="M45 32.6769C49.734 32.6769 53.586 28.8249 53.586 24.0909C53.586 19.3569 49.734 15.5039 45 15.5039C40.266 15.5039 36.414 19.3559 36.414 24.0899C36.414 28.8239 40.266 32.6769 45 32.6769ZM45 17.5039C48.631 17.5039 51.586 20.4589 51.586 24.0899C51.586 27.7219 48.631 30.6759 45 30.6759C41.369 30.6759 38.414 27.7209 38.414 24.0899C38.414 20.4589 41.369 17.5039 45 17.5039Z" fill="#0074BA" stroke="#0074BA" stroke-width="0.8"/>
<path d="M42.603 47.181H47.397C48.99 47.181 50.286 45.885 50.286 44.292V40.708C52.674 39.952 54.882 38.677 56.748 36.977L59.852 38.768C60.297 39.025 60.791 39.157 61.292 39.157C61.543 39.157 61.795 39.124 62.044 39.057C62.79 38.857 63.413 38.379 63.799 37.711L66.195 33.56C66.581 32.892 66.684 32.113 66.484 31.368C66.284 30.623 65.806 29.999 65.138 29.614L62.034 27.822C62.301 26.604 62.444 25.354 62.444 24.091C62.444 22.827 62.309 21.574 62.043 20.356L65.139 18.569C65.807 18.183 66.285 17.56 66.485 16.815C66.685 16.07 66.582 15.291 66.196 14.623L63.799 10.471C63.002 9.092 61.232 8.617 59.852 9.413L56.749 11.205C54.887 9.506 52.679 8.231 50.287 7.474V3.889C50.286 2.296 48.99 1 47.397 1H42.603C41.01 1 39.714 2.296 39.714 3.889V7.473C37.322 8.23 35.114 9.505 33.252 11.204L30.148 9.412C28.768 8.615 26.998 9.09 26.201 10.47L23.805 14.621C23.419 15.289 23.316 16.068 23.516 16.814C23.716 17.56 24.194 18.183 24.862 18.568L27.965 20.359C27.699 21.577 27.556 22.827 27.556 24.09C27.556 25.352 27.699 26.602 27.966 27.821L24.862 29.613C24.194 29.999 23.716 30.622 23.516 31.367C23.316 32.112 23.419 32.891 23.805 33.559L26.202 37.71C26.588 38.378 27.211 38.856 27.956 39.056C28.205 39.123 28.457 39.156 28.708 39.156C29.209 39.156 29.703 39.025 30.148 38.768L33.251 36.976C35.116 38.676 37.324 39.951 39.713 40.707V44.291C39.714 45.885 41.01 47.181 42.603 47.181ZM29.148 37.037C28.942 37.156 28.703 37.187 28.473 37.126C28.244 37.064 28.052 36.918 27.933 36.711L25.536 32.56C25.417 32.354 25.386 32.115 25.447 31.885C25.508 31.655 25.655 31.464 25.862 31.345L29.274 29.374C29.423 29.288 29.566 29.191 29.699 29.091C29.702 29.089 29.704 29.085 29.707 29.082C29.756 29.044 29.788 28.992 29.828 28.946C29.963 28.795 30.063 28.621 30.09 28.428C30.09 28.425 30.089 28.422 30.09 28.419C30.107 28.293 30.1 28.164 30.067 28.039C30.066 28.036 30.067 28.034 30.067 28.031C29.728 26.755 29.557 25.428 29.557 24.088C29.557 22.745 29.728 21.416 30.067 20.14V20.138C30.103 20 30.106 19.859 30.083 19.721C30.041 19.468 29.904 19.24 29.698 19.085C29.566 18.987 29.425 18.89 29.276 18.804L25.863 16.834C25.657 16.715 25.51 16.524 25.448 16.294C25.386 16.064 25.418 15.825 25.537 15.619L27.933 11.468C28.179 11.043 28.724 10.897 29.148 11.142L32.562 13.113C32.703 13.195 32.851 13.265 32.996 13.328C33.127 13.388 33.266 13.424 33.407 13.424C33.535 13.424 33.664 13.399 33.784 13.35C33.907 13.301 34.018 13.226 34.113 13.132C36.013 11.242 38.377 9.877 40.948 9.185C40.952 9.184 40.955 9.18 40.96 9.179C41.008 9.165 41.047 9.134 41.092 9.113C41.287 9.024 41.454 8.893 41.556 8.715C41.561 8.706 41.562 8.694 41.567 8.684C41.623 8.579 41.663 8.466 41.679 8.346C41.679 8.343 41.681 8.341 41.682 8.338C41.702 8.173 41.714 8.001 41.714 7.829V3.889C41.714 3.399 42.113 3 42.603 3H47.397C47.887 3 48.286 3.399 48.286 3.889V7.83C48.286 8.002 48.299 8.174 48.318 8.339C48.318 8.342 48.32 8.344 48.321 8.348C48.327 8.395 48.35 8.436 48.363 8.482C48.384 8.559 48.402 8.638 48.44 8.706C48.461 8.745 48.495 8.773 48.521 8.809C48.569 8.873 48.615 8.937 48.676 8.988C48.712 9.018 48.756 9.036 48.797 9.061C48.865 9.103 48.931 9.141 49.008 9.166C49.024 9.171 49.036 9.184 49.052 9.188C51.624 9.88 53.988 11.245 55.889 13.136C55.968 13.213 56.062 13.268 56.16 13.315C56.298 13.382 56.444 13.427 56.594 13.427C56.735 13.427 56.874 13.391 57.005 13.331C57.15 13.268 57.297 13.198 57.439 13.116L60.852 11.145C61.276 10.899 61.821 11.046 62.066 11.47L64.463 15.622C64.582 15.828 64.613 16.067 64.552 16.296C64.491 16.525 64.344 16.717 64.137 16.836L60.725 18.806C60.589 18.885 60.458 18.973 60.335 19.063C60.138 19.198 59.989 19.403 59.928 19.647C59.881 19.835 59.89 20.028 59.949 20.204C60.277 21.462 60.443 22.769 60.443 24.091C60.443 25.431 60.272 26.758 59.933 28.034C59.932 28.037 59.933 28.039 59.933 28.042C59.901 28.167 59.894 28.296 59.91 28.422C59.91 28.425 59.909 28.428 59.91 28.431C59.937 28.624 60.036 28.798 60.172 28.949C60.213 28.994 60.244 29.047 60.293 29.085C60.296 29.088 60.298 29.091 60.301 29.094C60.434 29.194 60.577 29.291 60.726 29.377L64.139 31.348C64.345 31.467 64.492 31.658 64.554 31.888C64.616 32.118 64.584 32.357 64.465 32.563L62.069 36.714C61.95 36.92 61.758 37.067 61.528 37.129C61.299 37.19 61.06 37.159 60.854 37.04L57.44 35.07C57.292 34.984 57.136 34.909 56.984 34.844C56.981 34.843 56.978 34.843 56.975 34.842C56.896 34.809 56.812 34.802 56.728 34.791C56.419 34.748 56.11 34.836 55.89 35.051C55.89 35.051 55.887 35.053 55.885 35.054C53.981 36.944 51.618 38.308 49.053 38.998C49.049 38.999 49.047 39.002 49.043 39.003C48.963 39.026 48.895 39.072 48.823 39.112C48.781 39.136 48.731 39.149 48.694 39.178C48.677 39.191 48.668 39.212 48.652 39.226C48.573 39.297 48.498 39.374 48.445 39.465C48.431 39.49 48.429 39.521 48.417 39.547C48.374 39.639 48.335 39.733 48.322 39.835C48.322 39.838 48.32 39.84 48.319 39.843C48.299 40.008 48.287 40.18 48.287 40.352V44.293C48.287 44.783 47.888 45.182 47.398 45.182H42.604C42.114 45.182 41.715 44.783 41.715 44.293V40.352C41.715 40.18 41.702 40.008 41.683 39.843C41.683 39.84 41.681 39.838 41.68 39.835C41.666 39.725 41.626 39.622 41.577 39.524C41.568 39.505 41.567 39.482 41.557 39.465C41.46 39.296 41.303 39.171 41.121 39.081C41.067 39.054 41.019 39.018 40.96 39.001C40.956 39 40.953 38.997 40.949 38.995C38.383 38.305 36.02 36.941 34.117 35.052L34.113 35.05C33.893 34.833 33.584 34.744 33.274 34.788C33.19 34.8 33.105 34.807 33.026 34.84C33.023 34.841 33.021 34.841 33.018 34.842C32.866 34.907 32.71 34.982 32.561 35.068L29.148 37.037Z" fill="#0074BA" stroke="#0074BA" stroke-width="0.8"/>
</svg>
