<svg width="77" height="82" viewBox="0 0 77 82" fill="none" xmlns="http://www.w3.org/2000/svg">
<path d="M38.4028 81.9999C28.213 81.9999 18.6364 78.0309 11.4301 70.8282C4.2276 63.6257 0.258484 54.0453 0.258484 43.8591C0.258484 33.6694 4.22751 24.0928 11.4301 16.8865C18.6361 9.68396 28.213 5.71484 38.4028 5.71484C39.1076 5.71484 39.6756 6.28625 39.6756 6.98766C39.6756 7.69252 39.1042 8.26048 38.4028 8.26048C18.7766 8.26048 2.80745 24.2287 2.80745 43.8558C2.80745 63.4828 18.7757 79.4511 38.4028 79.4511C58.0298 79.4511 73.9981 63.4828 73.9981 43.8558C73.9981 30.6415 66.7408 18.5834 55.056 12.387C54.4333 12.0585 54.1972 11.2853 54.5291 10.666C54.8576 10.0432 55.6308 9.80714 56.2501 10.139C68.7698 16.777 76.5472 29.6969 76.5472 43.859C76.5472 54.0487 72.5782 63.6253 65.3756 70.8316C58.1696 78.0341 48.5925 81.9999 38.4028 81.9999Z" fill="#0074BA"/>
<path d="M33.1331 14.8474C32.8526 14.8474 32.572 14.755 32.3393 14.5669C31.7884 14.1289 31.6995 13.3248 32.1409 12.7773L36.6369 7.15559L31.4121 2.69034C30.8783 2.23184 30.8133 1.42777 31.2718 0.893979C31.7303 0.360185 32.5344 0.295199 33.0682 0.753689L39.2305 6.01954C39.7541 6.46777 39.8259 7.24786 39.3982 7.78507L34.1324 14.3682C33.8792 14.683 33.5095 14.8474 33.1331 14.8474Z" fill="#0074BA"/>
<path d="M24.3878 60.3338C23.6829 60.3338 23.115 59.7624 23.115 59.061V47.595C23.115 46.8902 23.6864 46.3222 24.3878 46.3222H25.8283L20.5658 38.4251L15.3 46.3188H16.7439C17.4487 46.3188 18.0167 46.8902 18.0167 47.5916V59.0576C18.0167 59.7624 17.4453 60.3304 16.7439 60.3304C16.039 60.3304 15.4711 59.759 15.4711 59.0576V48.8643H12.9219C12.4532 48.8643 12.0221 48.6043 11.7997 48.1903C11.5773 47.7763 11.6012 47.2733 11.8613 46.8832L19.5052 35.4172C19.7413 35.0614 20.1382 34.8492 20.5659 34.8492C20.9935 34.8492 21.3905 35.0614 21.6265 35.4172L29.2704 46.8832C29.5305 47.2733 29.5544 47.7762 29.332 48.1903C29.113 48.6111 28.6785 48.8678 28.2098 48.8678H25.6606V59.061C25.6606 59.7658 25.0926 60.3338 24.3878 60.3338Z" fill="#0074BA"/>
<path d="M42.2245 60.3339C41.5196 60.3339 40.9517 59.7625 40.9517 59.061V41.2244C40.9517 40.5196 41.5231 39.9516 42.2245 39.9516H43.6649L38.4025 32.0545L33.1401 39.9516H34.5806C35.2854 39.9516 35.8534 40.523 35.8534 41.2244V59.061C35.8534 59.7659 35.282 60.3339 34.5806 60.3339C33.8757 60.3339 33.3077 59.7625 33.3077 59.061V42.4971H30.7586C30.2898 42.4971 29.8587 42.2371 29.6363 41.8231C29.4139 41.4091 29.4379 40.9061 29.6979 40.516L37.3419 29.05C37.5779 28.6942 37.9749 28.4821 38.4025 28.4821C38.8302 28.4821 39.2271 28.6942 39.4632 29.05L47.1071 40.516C47.3672 40.9061 47.3911 41.409 47.1687 41.8231C46.9497 42.2405 46.5152 42.4971 46.0465 42.4971H43.4973V59.061C43.4973 59.7659 42.9293 60.3339 42.2245 60.3339Z" fill="#0074BA"/>
<path d="M60.062 60.3338C59.3571 60.3338 58.7892 59.7624 58.7892 59.0609V33.58C58.7892 32.8752 59.3606 32.3072 60.062 32.3072H61.5025L56.24 24.4101L50.9776 32.3038H52.4181C53.1229 32.3038 53.6909 32.8752 53.6909 33.5766V59.0575C53.6909 59.7624 53.1195 60.3303 52.4181 60.3303C51.7132 60.3303 51.1453 59.7589 51.1453 59.0575V34.8529H48.5961C48.1274 34.8529 47.6963 34.5928 47.4739 34.1788C47.2515 33.7648 47.2754 33.2618 47.5355 32.8717L55.1794 21.4058C55.4155 21.0499 55.8124 20.8378 56.24 20.8378C56.6677 20.8378 57.0647 21.0499 57.3007 21.4058L64.9446 32.8717C65.2047 33.2618 65.2286 33.7647 65.0062 34.1788C64.7872 34.5962 64.3561 34.8529 63.884 34.8529H61.3348V59.061C61.3383 59.7659 60.7668 60.3338 60.062 60.3338Z" fill="#0074BA"/>
<path d="M62.6109 65.4327H14.1954C13.4906 65.4327 12.9226 64.8612 12.9226 64.1598V59.0651C12.9226 58.3602 13.494 57.7922 14.1954 57.7922H62.6109C63.3158 57.7922 63.8837 58.3636 63.8837 59.0651V64.1598C63.8837 64.8613 63.3157 65.4327 62.6109 65.4327ZM15.4682 62.8835H61.3347V60.3344H15.4682V62.8835Z" fill="#0074BA"/>
</svg>
