<svg width="72" height="81" viewBox="0 0 72 81" fill="none" xmlns="http://www.w3.org/2000/svg">
<path fill-rule="evenodd" clip-rule="evenodd" d="M58.571 60.2781C57.8813 55.5115 55.68 51.087 52.2865 47.6467C48.893 44.2065 44.4837 41.9294 39.6987 41.1459C42.3231 40.2743 44.5497 38.5041 45.9803 36.1518C47.411 33.7996 47.9523 31.0188 47.5076 28.3066C47.0629 25.5944 45.6612 23.1277 43.553 21.3476C41.4448 19.5675 38.7677 18.5901 36.0003 18.5901C33.233 18.5901 30.5559 19.5675 28.4477 21.3476C26.3395 23.1277 24.9377 25.5944 24.493 28.3066C24.0483 31.0188 24.5897 33.7996 26.0203 36.1518C27.451 38.5041 29.6776 40.2743 32.302 41.1459C27.5169 41.9294 23.1077 44.2065 19.7142 47.6467C16.3206 51.087 14.1193 55.5115 13.4296 60.2781C8.45436 55.7596 4.97047 49.8536 3.43485 43.3345C1.89924 36.8154 2.38359 29.9877 4.82438 23.7467C7.26517 17.5057 11.5484 12.1429 17.1125 8.36159C22.6765 4.58024 29.2615 2.55689 36.004 2.55689C42.7464 2.55689 49.3314 4.58024 54.8954 8.36159C60.4595 12.1429 64.7427 17.5057 67.1835 23.7467C69.6243 29.9877 70.1087 36.8154 68.573 43.3345C67.0374 49.8536 63.5535 55.7596 58.5783 60.2781H58.571ZM26.8896 30.173C26.8894 31.9623 27.4236 33.7115 28.4246 35.1994C29.4256 36.6872 30.8484 37.8469 32.5132 38.5318C34.1779 39.2166 36.0098 39.3959 37.7772 39.0469C39.5446 38.698 41.168 37.8364 42.4423 36.5712C43.7165 35.3061 44.5844 33.6941 44.936 31.9392C45.2876 30.1843 45.1072 28.3652 44.4177 26.7121C43.7281 25.0589 42.5604 23.646 41.0621 22.6519C39.5638 21.6578 37.8023 21.1272 36.0003 21.1272C33.585 21.1298 31.2693 22.0836 29.5613 23.7795C27.8533 25.4753 26.8924 27.7746 26.8896 30.173ZM50.4129 60.388C50.8185 62.2928 50.5862 64.2771 49.7512 66.0387C52.0425 65.0131 54.211 63.736 56.2161 62.2313C55.8929 57.1259 53.6226 52.3346 49.8673 48.8326C46.112 45.3307 41.1539 43.3813 36.0021 43.3813C30.8504 43.3813 25.8923 45.3307 22.137 48.8326C18.3816 52.3346 16.1114 57.1259 15.7882 62.2313C17.7924 63.7374 19.961 65.0145 22.253 66.0387C21.4458 64.2247 21.2769 62.1936 21.7736 60.2727C22.2703 58.3517 23.4037 56.6527 24.9913 55.4492C26.5789 54.2458 28.5281 53.608 30.5252 53.6385C32.5222 53.669 34.4508 54.3661 36.0003 55.6175C37.1796 54.68 38.5766 54.0507 40.0637 53.7871C41.5509 53.5234 43.0809 53.6338 44.514 54.1082C45.9472 54.5825 47.2378 55.4058 48.2683 56.5027C49.2987 57.5996 50.036 58.9354 50.4129 60.388ZM36.0003 78.0953C44.5772 71.0009 48.9227 64.8029 47.9374 61.018C47.6482 59.901 47.0624 58.8815 46.2413 58.0658C45.4202 57.2501 44.3937 56.668 43.269 56.3803C42.1442 56.0925 40.9623 56.1097 39.8465 56.4299C38.7306 56.7501 37.7217 57.3616 36.9249 58.2008C36.8062 58.3261 36.663 58.426 36.504 58.4942C36.345 58.5625 36.1736 58.5977 36.0003 58.5977C35.8271 58.5977 35.6557 58.5625 35.4967 58.4942C35.3377 58.426 35.1944 58.3261 35.0757 58.2008C34.2782 57.3617 33.2688 56.7503 32.1525 56.4301C31.0362 56.11 29.8539 56.0929 28.7287 56.3806C27.6034 56.6682 26.5765 57.2502 25.7547 58.0658C24.9328 58.8814 24.3463 59.9009 24.056 61.018C23.0779 64.7984 27.4235 70.9991 36.0003 78.0953ZM61.4536 10.4629C57.6256 6.6643 52.9844 3.77143 47.8752 1.99947C42.7661 0.227501 37.3203 -0.377966 31.943 0.228092C26.5657 0.834151 21.3951 2.63614 16.8159 5.50005C12.2366 8.36397 8.36645 12.2161 5.49322 16.77C2.61999 21.3239 0.817606 26.4625 0.220108 31.8034C-0.377391 37.1444 0.245369 42.5504 2.04207 47.6194C3.83878 52.6885 6.7632 57.2901 10.5979 61.0821C14.4325 64.8741 19.0788 67.7589 24.191 69.522C26.9195 73.5193 31.2197 77.4986 35.1963 80.7164C35.4235 80.8998 35.7075 81 36.0003 81C36.2932 81 36.5771 80.8998 36.8044 80.7164C40.781 77.4986 45.0812 73.5157 47.8096 69.522C53.5711 67.5341 58.7296 64.1256 62.8013 59.6162C66.8731 55.1068 69.7246 49.6443 71.0883 43.7411C72.4521 37.8379 72.2835 31.6875 70.5982 25.8667C68.913 20.046 65.7664 14.7457 61.4536 10.4629Z" fill="#0074BA"/>
</svg>
