<svg width="52" height="82" viewBox="0 0 52 82" fill="none" xmlns="http://www.w3.org/2000/svg">
<path d="M21.7507 19.0767C18.7639 19.0767 16.3132 21.5326 16.3132 24.5265V62.6756H19.032V24.5265C19.032 23.0053 20.2331 21.8016 21.7507 21.8016C23.2685 21.8016 24.4695 23.0053 24.4695 24.5265V51.7759H27.1882V24.5265C27.1882 21.5328 24.7377 19.0767 21.7507 19.0767Z" fill="#0074BA"/>
<path d="M29.9069 38.1509C26.9201 38.1509 24.4694 40.6069 24.4694 43.6007H27.1882C27.1882 42.0796 28.3893 40.8758 29.9069 40.8758C31.4247 40.8758 32.6257 42.0796 32.6257 43.6007V54.5005H35.3444V43.6007C35.3444 40.607 32.8939 38.1509 29.9069 38.1509Z" fill="#0074BA"/>
<path d="M38.0632 40.876C35.0764 40.876 32.6257 43.332 32.6257 46.3258H35.3444C35.3444 44.8047 36.5456 43.6009 38.0632 43.6009C39.5809 43.6009 40.7819 44.8047 40.7819 46.3258V57.2256H43.5007V46.3258C43.5007 43.3321 41.0501 40.876 38.0632 40.876Z" fill="#0074BA"/>
<path d="M46.2194 43.601C43.2325 43.601 40.7819 46.0569 40.7819 49.0508H43.5006C43.5006 47.5296 44.7018 46.3259 46.2194 46.3259C47.7371 46.3259 48.9381 47.5296 48.9381 49.0508V59.9506V76.3002C48.9381 77.8214 47.7371 79.0251 46.2194 79.0251V81.75C49.2063 81.75 51.6569 79.2939 51.6569 76.3002V59.9506V49.0508C51.6569 46.0571 49.2063 43.601 46.2194 43.601Z" fill="#0074BA"/>
<path d="M8.15691 46.3257C7.94144 46.3256 7.72904 46.377 7.53721 46.4754C7.34538 46.5737 7.1796 46.7163 7.05358 46.8915C6.92756 47.0667 6.8449 47.2691 6.81239 47.4826C6.77988 47.6961 6.79842 47.9144 6.86657 48.1192C6.86657 48.1192 8.15691 52.0783 8.15691 55.863V68.1252V70.8501C8.15691 76.865 13.0307 81.7498 19.0319 81.7498H24.4694V79.0249H19.0319C14.4898 79.0249 10.8757 75.4025 10.8757 70.8501V68.1252V55.863C10.8757 53.0281 10.3767 50.7397 9.95445 49.1384C13.5061 49.375 16.3132 52.2403 16.3132 55.863H19.0319C19.0319 50.6117 14.7555 46.3257 9.51629 46.3257H8.15691Z" fill="#0074BA"/>
<path d="M22.0641 8.17941C15.558 8.02953 9.84234 12.542 8.46502 18.9168C7.08757 25.2915 10.429 31.7684 16.4141 34.3297C16.5795 34.4085 16.759 34.4529 16.9419 34.4605C17.1249 34.468 17.3075 34.4386 17.4788 34.3736C17.65 34.3087 17.8064 34.2096 17.9386 34.0826C18.0708 33.9556 18.176 33.8033 18.2479 33.6345C18.3198 33.4658 18.3571 33.2842 18.3572 33.1007C18.3574 32.9171 18.3206 32.7354 18.2491 32.5665C18.1775 32.3975 18.0726 32.2447 17.9407 32.1174C17.8088 31.9901 17.6525 31.891 17.4814 31.8257C12.6793 29.7707 10.0175 24.6091 11.1225 19.4943C12.2277 14.3794 16.7801 10.7842 22.0003 10.9043C27.2204 11.0242 31.6049 14.8262 32.4744 19.9866C33.3438 25.1471 30.4493 30.1802 25.558 32.012C25.3858 32.0707 25.2272 32.1634 25.0914 32.2847C24.9556 32.406 24.8456 32.5534 24.7677 32.7181C24.6897 32.8828 24.6456 33.0616 24.6378 33.2437C24.63 33.4258 24.6588 33.6075 24.7224 33.7782C24.786 33.949 24.8832 34.1055 25.0081 34.2379C25.133 34.3704 25.2832 34.4764 25.4497 34.5496C25.6163 34.6229 25.7958 34.6619 25.9777 34.6644C26.1595 34.6668 26.3401 34.6326 26.5085 34.5639C32.6046 32.281 36.2396 25.9629 35.156 19.5315C34.0724 13.1 28.5701 8.32941 22.0641 8.17941Z" fill="#0074BA"/>
<path d="M22.494 0.0125562C21.2159 -0.0310427 19.9202 0.0384474 18.6176 0.228103C8.19693 1.74807 0.347262 10.555 0.0111836 21.1042C-0.324895 31.6532 6.94753 40.9465 17.2504 43.1299C17.6032 43.2047 17.9712 43.1361 18.2734 42.9389C18.5756 42.7418 18.7873 42.4323 18.862 42.0787C18.9366 41.7252 18.868 41.3562 18.6713 41.0532C18.4746 40.7503 18.166 40.5383 17.8132 40.4635C8.78188 38.5498 2.43534 30.4394 2.72993 21.192C3.02451 11.9448 9.87585 4.25626 19.0106 2.92377C28.1453 1.59127 36.8979 7.00259 39.8101 15.7821C42.7223 24.5615 38.9431 34.1489 30.8308 38.5635C30.6738 38.6489 30.5353 38.7643 30.4229 38.9034C30.3105 39.0425 30.2266 39.2025 30.1759 39.3741C30.1252 39.5457 30.1087 39.726 30.1274 39.904C30.1461 40.082 30.1996 40.2543 30.2849 40.4116C30.3702 40.5689 30.4855 40.7078 30.6243 40.8204C30.7632 40.933 30.9228 41.0171 31.094 41.0679C31.2653 41.1186 31.4449 41.1352 31.6225 41.1164C31.8001 41.0976 31.9723 41.0439 32.1292 40.9584C41.3835 35.9225 45.7129 24.9379 42.3908 14.9225C39.4839 6.159 31.44 0.317749 22.494 0.0125562Z" fill="#0074BA"/>
</svg>
