<svg width="78" height="76" viewBox="0 0 78 76" fill="none" xmlns="http://www.w3.org/2000/svg">
<path d="M43.8439 61.907H49.7874C50.2541 61.907 50.6318 61.5274 50.6318 61.0583V55.0843C50.6318 54.6152 50.2541 54.2356 49.7874 54.2356H43.8439C43.3772 54.2356 42.9996 54.6152 42.9996 55.0843V61.0583C42.9996 61.5274 43.3772 61.907 43.8439 61.907ZM44.6883 55.933H48.9431V60.2096H44.6883V55.933ZM53.2218 56.0408C53.2218 55.5717 53.5994 55.1921 54.0661 55.1921H62.8626C63.3293 55.1921 63.707 55.5717 63.707 56.0408C63.707 56.5099 63.3293 56.8894 62.8626 56.8894H54.0661C53.5994 56.8894 53.2218 56.5099 53.2218 56.0408ZM53.2218 60.1019C53.2218 59.6328 53.5994 59.2532 54.0661 59.2532H68.4499C68.9166 59.2532 69.2943 59.6328 69.2943 60.1019C69.2943 60.571 68.9166 60.9506 68.4499 60.9506H54.0661C53.5994 60.9506 53.2218 60.571 53.2218 60.1019ZM16.1046 53.9298C12.8715 53.9298 10.2411 56.5737 10.2411 59.8242C10.5167 67.6198 21.6913 67.6203 21.9657 59.8241C21.9657 56.5737 19.3361 53.9298 16.1046 53.9298ZM16.1046 64.0179C10.5858 63.8418 10.5903 55.8027 16.1047 55.6272C21.6169 55.8037 21.6188 63.8425 16.1046 64.0179ZM26.8496 57.2027H24.7865C24.6101 56.6143 24.3759 56.0474 24.0856 55.507L25.5468 54.0384C25.8766 53.7069 25.8766 53.1698 25.5476 52.8383L23.0558 50.3303C22.7415 50.0019 22.1751 50.0013 21.861 50.3303L20.399 51.799C19.8597 51.5072 19.2957 51.2719 18.7128 51.097V49.0209C18.7128 48.5518 18.3351 48.1722 17.8684 48.1722H14.3417C13.875 48.1722 13.4974 48.5518 13.4974 49.0209V51.097C12.9152 51.2719 12.3512 51.5064 11.8111 51.799L10.3492 50.3303C10.0193 49.9988 9.48501 49.9988 9.15518 50.3303L6.66004 52.8383C6.33021 53.1698 6.33021 53.7069 6.66004 54.0384L8.12117 55.507C7.8301 56.049 7.59675 56.6159 7.42194 57.2027H5.35722C4.89052 57.2027 4.51286 57.5823 4.51286 58.0514V61.5929C4.51286 62.062 4.89052 62.4416 5.35722 62.4416H7.42194C7.59675 63.0292 7.8301 63.5961 8.12117 64.1373L6.66004 65.6067C6.33021 65.9383 6.33021 66.4753 6.66004 66.8068L9.15518 69.3148C9.47182 69.633 10.0325 69.633 10.3492 69.3148L11.8103 67.8453C12.3504 68.1379 12.9144 68.3733 13.4974 68.5481V70.6243C13.4974 71.0934 13.875 71.473 14.3417 71.473H17.8684C18.3351 71.473 18.7128 71.0934 18.7128 70.6243V68.5481C19.2957 68.3724 19.8597 68.1379 20.3998 67.8453L21.861 69.3148C22.1776 69.633 22.7391 69.633 23.0558 69.3148L25.5476 66.8068C25.8766 66.4753 25.8766 65.9383 25.5468 65.6067L24.0856 64.1381C24.3759 63.5977 24.6101 63.0308 24.7865 62.4416H26.8496C27.3163 62.4416 27.694 62.062 27.694 61.5929V58.0514C27.694 57.5823 27.3163 57.2027 26.8496 57.2027ZM26.0052 60.7442H24.1343C23.7377 60.7442 23.3955 61.021 23.3097 61.4097C23.1217 62.2683 22.7869 63.0773 22.3161 63.8149C22.1017 64.1505 22.1487 64.5906 22.4299 64.8733L23.7558 66.2068L22.4579 67.5138L21.132 66.1811C20.8525 65.8985 20.4147 65.8529 20.0799 66.0659C19.3394 66.5425 18.5346 66.8773 17.6895 67.0613C17.3011 67.1458 17.024 67.4914 17.024 67.8909V69.7756H15.1861V67.8909C15.1861 67.4914 14.909 67.1458 14.5206 67.0613C13.6763 66.8781 12.8715 66.5433 12.1302 66.0659C11.7963 65.8521 11.3576 65.8976 11.0781 66.1811L9.75217 67.5146L8.451 66.2068L9.77691 64.8733C10.0573 64.5915 10.1051 64.1505 9.8907 63.8149C9.41822 63.0739 9.08509 62.2658 8.90122 61.413C8.81628 61.0227 8.47326 60.7442 8.07582 60.7442H6.20158V58.9001H8.07582C8.47326 58.9001 8.81628 58.6216 8.90122 58.2313C9.08509 57.3793 9.41822 56.5712 9.8907 55.8286C10.1051 55.4929 10.0573 55.0528 9.77691 54.771L8.451 53.4383L9.75217 52.1305L11.0781 53.4632C11.3584 53.745 11.7963 53.7922 12.1294 53.5784C12.8723 53.1018 13.6763 52.767 14.5206 52.5838C14.909 52.4993 15.1861 52.1537 15.1861 51.7542V49.8695H17.024V51.7542C17.024 52.1537 17.3011 52.4993 17.6895 52.5838C18.5346 52.7678 19.3394 53.1027 20.0807 53.5784C20.4138 53.7922 20.8509 53.745 21.132 53.4632L22.4579 52.1313L23.7558 53.4383L22.4299 54.771C22.1496 55.0528 22.1017 55.4938 22.3161 55.8294C22.7869 56.567 23.1217 57.3768 23.3097 58.2346C23.3955 58.6233 23.7377 58.9001 24.1343 58.9001H26.0052V60.7442ZM74.9063 28.5753C76.1819 28.5753 77.22 27.5359 77.22 26.2584V15.3443C77.22 14.0622 76.1819 13.0192 74.9063 13.0192H57.8847V3.92933C57.8847 1.76285 56.1308 0 53.9746 0H7.00306C4.85176 0 3.10203 1.76285 3.10203 3.92933V43.8189C1.31771 44.3307 0 45.9661 0 47.921V71.7241C0 74.0862 1.91217 76.0081 4.26302 76.0081H27.9446C30.2946 76.0081 32.2068 74.0862 32.2068 71.7241V55.0628H38.4389V63.5331C38.4389 64.8103 39.477 65.8496 40.7526 65.8496H74.9063C76.1819 65.8496 77.22 64.8103 77.22 63.5331V52.6187C77.22 51.3365 76.1819 50.2931 74.9063 50.2931H57.8847V47.2124H74.9063C76.1819 47.2124 77.22 46.1731 77.22 44.8959V33.9815C77.22 32.6994 76.1819 31.6563 74.9063 31.6563H57.8847V28.5753H74.9063ZM4.79074 3.92933C4.79074 2.69856 5.78352 1.69738 7.00306 1.69738H53.9746C55.1991 1.69738 56.196 2.69856 56.196 3.92933V7.01038H4.79074V3.92933ZM30.5181 71.7241C30.5181 73.1504 29.3637 74.3108 27.9446 74.3108H4.26302C2.84394 74.3108 1.68872 73.1504 1.68872 71.7241V47.921C1.68743 46.4928 2.84739 45.3454 4.2589 45.3368H27.9438C28.6589 45.3368 29.3059 45.6312 29.773 46.1044C30.2328 46.5719 30.5181 47.2132 30.5181 47.921V71.7241ZM38.4389 52.6187V53.3654H32.2076V47.9169C32.2076 46.7462 31.7347 45.6854 30.9726 44.9123C30.1995 44.1263 29.1284 43.637 27.9446 43.637H4.79074V8.70775H56.196V13.0192H40.7526C39.477 13.0192 38.4389 14.0622 38.4389 15.3443V26.2584C38.4389 27.5359 39.477 28.5753 40.7526 28.5753H56.196V31.6563H40.7526C39.477 31.6563 38.4389 32.6994 38.4389 33.9815V44.8959C38.4389 46.1731 39.477 47.2124 40.7526 47.2124H56.196V50.2931H40.7526C39.477 50.2931 38.4389 51.3365 38.4389 52.6187ZM74.9063 51.9904C75.2509 51.9904 75.5313 52.2722 75.5313 52.6187V63.5331C75.5313 63.8745 75.2509 64.1522 74.9063 64.1522H40.7526C40.408 64.1522 40.1276 63.8745 40.1276 63.5331V52.6187C40.1276 52.2722 40.408 51.9904 40.7526 51.9904H74.9063ZM74.9063 33.3537C75.2509 33.3537 75.5313 33.6355 75.5313 33.9815V44.8959C75.5313 45.2374 75.2509 45.515 74.9063 45.515H40.7526C40.408 45.515 40.1276 45.2374 40.1276 44.8959V33.9815C40.1276 33.6355 40.408 33.3537 40.7526 33.3537H74.9063ZM40.7526 26.8779C40.408 26.8779 40.1276 26.5998 40.1276 26.2584V15.3443C40.1276 14.9983 40.408 14.7165 40.7526 14.7165H74.9063C75.2509 14.7165 75.5313 14.9983 75.5313 15.3443V26.2584C75.5313 26.5998 75.2509 26.8779 74.9063 26.8779H40.7526ZM49.7874 17.0832H43.8439C43.3772 17.0832 42.9996 17.4632 42.9996 17.9319V23.9058C42.9996 24.3745 43.3772 24.7545 43.8439 24.7545H49.7874C50.2541 24.7545 50.6318 24.3745 50.6318 23.9058V17.9319C50.6318 17.4632 50.2541 17.0832 49.7874 17.0832ZM48.9431 23.0571H44.6883V18.7805H48.9431V23.0571ZM43.8439 43.2698H49.7874C50.2541 43.2698 50.6318 42.8902 50.6318 42.4211V36.4476C50.6318 35.9789 50.2541 35.5989 49.7874 35.5989H43.8439C43.3772 35.5989 42.9996 35.9789 42.9996 36.4476V42.4211C42.9996 42.8902 43.3772 43.2698 43.8439 43.2698ZM44.6883 37.2963H48.9431V41.5725H44.6883V37.2963ZM54.0661 18.0396C54.0661 18.0396 62.8626 18.0396 62.8626 18.0396C63.969 18.0443 63.9642 19.7327 62.8626 19.737H54.0661C52.9598 19.7323 52.9646 18.0438 54.0661 18.0396ZM68.4499 23.7981C68.4499 23.7981 54.0661 23.7981 54.0662 23.7981C52.9583 23.7933 52.9664 22.1045 54.0661 22.1007H68.4499C69.5577 22.1054 69.5496 23.7942 68.4499 23.7981ZM53.2218 37.404C53.2218 36.9353 53.5994 36.5553 54.0661 36.5553H62.8626C63.3293 36.5553 63.707 36.9353 63.707 37.404C63.707 37.8727 63.3293 38.2523 62.8626 38.2523H54.0661C53.5994 38.2523 53.2218 37.8727 53.2218 37.404ZM53.2218 41.4647C53.2218 40.9956 53.5994 40.616 54.0661 40.616H68.4499C68.9166 40.616 69.2943 40.9956 69.2943 41.4647C69.2943 41.9338 68.9166 42.3134 68.4499 42.3134H54.0661C53.5994 42.3134 53.2218 41.9338 53.2218 41.4647ZM34.3738 13.0192H9.61529C9.14859 13.0192 8.77093 13.3992 8.77093 13.8678V32.505C8.77093 32.9737 9.14859 33.3537 9.61529 33.3537H34.3738C34.8405 33.3537 35.2181 32.9737 35.2181 32.505V13.8678C35.2181 13.3992 34.8405 13.0192 34.3738 13.0192ZM33.5294 31.6563H10.4597V14.7165H33.5294V31.6563ZM9.61529 36.2052C9.61529 36.2052 21.9945 36.2052 21.9945 36.2052C23.1018 36.2099 23.0949 37.8986 21.9945 37.9025H9.61529C8.50805 37.8978 8.51491 36.2092 9.61529 36.2052ZM28.8269 42.3134C28.8269 42.3134 9.61529 42.3134 9.61534 42.3134C8.50614 42.3089 8.51717 40.6192 9.61529 40.616H28.8269C29.9361 40.6205 29.925 42.3101 28.8269 42.3134Z" fill="#0074BA"/>
</svg>
