<svg width="253" height="72" viewBox="0 0 253 72" fill="none" xmlns="http://www.w3.org/2000/svg">
<path d="M100.141 46.4816C99.628 46.4816 99.2598 46.2696 99.0367 45.8456C98.8135 45.4217 98.7912 45.0088 98.9697 44.6071L108.811 21.2431C109.056 20.6406 109.48 20.3394 110.083 20.3394C110.663 20.3394 111.076 20.6406 111.321 21.2431L121.196 44.6406C121.397 45.0646 121.363 45.4774 121.095 45.8791C120.85 46.2808 120.493 46.4816 120.024 46.4816C119.756 46.4816 119.511 46.4147 119.288 46.2808C119.087 46.1469 118.92 45.9461 118.786 45.6783L109.581 23.3519H110.618L101.346 45.6783C101.235 45.9461 101.067 46.1469 100.844 46.2808C100.643 46.4147 100.409 46.4816 100.141 46.4816ZM102.35 40.2557L103.355 38.013H116.945L117.949 40.2557H102.35Z" fill="#0074BA"/>
<path d="M126.083 54.3145C125.681 54.3145 125.357 54.1918 125.112 53.9463C124.889 53.7232 124.777 53.4108 124.777 53.0091V37.2099C124.8 35.4693 125.212 33.9073 126.016 32.5237C126.841 31.1179 127.946 30.0133 129.33 29.2099C130.735 28.4066 132.309 28.0049 134.049 28.0049C135.834 28.0049 137.43 28.4177 138.836 29.2434C140.242 30.0467 141.346 31.1513 142.15 32.5572C142.975 33.963 143.388 35.5586 143.388 37.3438C143.388 39.1067 142.986 40.6911 142.183 42.0969C141.402 43.5028 140.331 44.6186 138.97 45.4442C137.608 46.2476 136.069 46.6492 134.35 46.6492C132.855 46.6492 131.494 46.3368 130.267 45.712C129.062 45.0649 128.091 44.2169 127.355 43.1681V53.0091C127.355 53.4108 127.232 53.7232 126.986 53.9463C126.763 54.1918 126.462 54.3145 126.083 54.3145ZM134.049 44.3061C135.343 44.3061 136.504 44.0049 137.53 43.4024C138.557 42.7999 139.36 41.9742 139.94 40.9254C140.543 39.8543 140.844 38.6604 140.844 37.3438C140.844 36.0049 140.543 34.811 139.94 33.7622C139.36 32.7134 138.557 31.8877 137.53 31.2852C136.504 30.6604 135.343 30.348 134.049 30.348C132.777 30.348 131.628 30.6604 130.602 31.2852C129.575 31.8877 128.772 32.7134 128.191 33.7622C127.611 34.811 127.321 36.0049 127.321 37.3438C127.321 38.6604 127.611 39.8543 128.191 40.9254C128.772 41.9742 129.575 42.7999 130.602 43.4024C131.628 44.0049 132.777 44.3061 134.049 44.3061Z" fill="#0074BA"/>
<path d="M149.748 54.3145C149.346 54.3145 149.023 54.1918 148.777 53.9463C148.554 53.7232 148.442 53.4108 148.442 53.0091V37.2099C148.465 35.4693 148.878 33.9073 149.681 32.5237C150.507 31.1179 151.611 30.0133 152.995 29.2099C154.401 28.4066 155.974 28.0049 157.714 28.0049C159.5 28.0049 161.095 28.4177 162.501 29.2434C163.907 30.0467 165.012 31.1513 165.815 32.5572C166.641 33.963 167.053 35.5586 167.053 37.3438C167.053 39.1067 166.652 40.6911 165.848 42.0969C165.067 43.5028 163.996 44.6186 162.635 45.4442C161.274 46.2476 159.734 46.6492 158.016 46.6492C156.521 46.6492 155.159 46.3368 153.932 45.712C152.727 45.0649 151.756 44.2169 151.02 43.1681V53.0091C151.02 53.4108 150.897 53.7232 150.652 53.9463C150.429 54.1918 150.127 54.3145 149.748 54.3145ZM157.714 44.3061C159.009 44.3061 160.169 44.0049 161.196 43.4024C162.222 42.7999 163.025 41.9742 163.606 40.9254C164.208 39.8543 164.509 38.6604 164.509 37.3438C164.509 36.0049 164.208 34.811 163.606 33.7622C163.025 32.7134 162.222 31.8877 161.196 31.2852C160.169 30.6604 159.009 30.348 157.714 30.348C156.442 30.348 155.293 30.6604 154.267 31.2852C153.24 31.8877 152.437 32.7134 151.857 33.7622C151.277 34.811 150.986 36.0049 150.986 37.3438C150.986 38.6604 151.277 39.8543 151.857 40.9254C152.437 41.9742 153.24 42.7999 154.267 43.4024C155.293 44.0049 156.442 44.3061 157.714 44.3061Z" fill="#0074BA"/>
<path d="M176.058 46.4816C175.165 46.4816 174.362 46.2362 173.647 45.7452C172.956 45.2543 172.409 44.5737 172.007 43.7034C171.628 42.8331 171.438 41.8289 171.438 40.6908V21.6113C171.438 21.232 171.55 20.9307 171.773 20.7076C172.018 20.4621 172.331 20.3394 172.71 20.3394C173.09 20.3394 173.391 20.4621 173.614 20.7076C173.859 20.9307 173.982 21.232 173.982 21.6113V40.6908C173.982 41.6504 174.172 42.4314 174.551 43.0339C174.953 43.6364 175.455 43.9377 176.058 43.9377H176.894C177.229 43.9377 177.497 44.0604 177.698 44.3059C177.899 44.529 177.999 44.8303 177.999 45.2097C177.999 45.589 177.854 45.9014 177.564 46.1469C177.296 46.37 176.939 46.4816 176.493 46.4816H176.058Z" fill="#0074BA"/>
<path d="M188.844 46.6492C187.037 46.6492 185.43 46.2587 184.024 45.4777C182.64 44.6743 181.547 43.5697 180.744 42.1639C179.963 40.758 179.572 39.1513 179.572 37.3438C179.572 35.514 179.94 33.9073 180.677 32.5237C181.435 31.1179 182.473 30.0133 183.79 29.2099C185.106 28.4066 186.624 28.0049 188.342 28.0049C190.038 28.0049 191.511 28.3954 192.76 29.1764C194.032 29.9351 195.014 30.9951 195.706 32.3563C196.398 33.7176 196.744 35.2685 196.744 37.0091C196.744 37.3661 196.632 37.6562 196.409 37.8794C196.186 38.0802 195.896 38.1806 195.539 38.1806H181.313V36.0384H195.806L194.367 37.076C194.389 35.7817 194.155 34.6213 193.664 33.5948C193.173 32.5683 192.47 31.765 191.555 31.1848C190.663 30.6046 189.592 30.3145 188.342 30.3145C187.07 30.3145 185.954 30.6158 184.995 31.2183C184.035 31.8208 183.288 32.6576 182.752 33.7287C182.239 34.7775 181.982 35.9826 181.982 37.3438C181.982 38.705 182.272 39.91 182.852 40.9589C183.455 42.0077 184.269 42.8333 185.296 43.4359C186.322 44.0384 187.505 44.3396 188.844 44.3396C189.647 44.3396 190.451 44.2057 191.254 43.9379C192.08 43.6478 192.738 43.2908 193.229 42.8668C193.474 42.666 193.753 42.5656 194.066 42.5656C194.378 42.5432 194.646 42.6213 194.869 42.7999C195.159 43.0677 195.304 43.3577 195.304 43.6702C195.327 43.9826 195.204 44.2504 194.936 44.4735C194.2 45.0983 193.262 45.6227 192.124 46.0467C190.986 46.4484 189.893 46.6492 188.844 46.6492Z" fill="#0074BA"/>
<path d="M204.007 46.4816C203.65 46.4816 203.338 46.3589 203.07 46.1134C202.824 45.8456 202.702 45.5332 202.702 45.1762V20.3394H205.313V45.1762C205.313 45.5332 205.19 45.8456 204.944 46.1134C204.699 46.3589 204.387 46.4816 204.007 46.4816ZM194.769 22.7159C194.412 22.7159 194.122 22.6043 193.898 22.3812C193.675 22.158 193.564 21.8791 193.564 21.5444C193.564 21.1873 193.675 20.8972 193.898 20.6741C194.122 20.4509 194.412 20.3394 194.769 20.3394H213.279C213.636 20.3394 213.926 20.4509 214.149 20.6741C214.373 20.8972 214.484 21.1873 214.484 21.5444C214.484 21.8791 214.373 22.158 214.149 22.3812C213.926 22.6043 213.636 22.7159 213.279 22.7159H194.769Z" fill="#0074BA"/>
<path d="M220.944 46.6828C219.36 46.6828 217.943 46.3593 216.693 45.7121C215.444 45.0427 214.451 44.072 213.714 42.8C213 41.528 212.643 39.9771 212.643 38.1473V29.4443C212.643 29.0873 212.766 28.786 213.011 28.5406C213.257 28.2951 213.558 28.1724 213.915 28.1724C214.294 28.1724 214.607 28.2951 214.852 28.5406C215.098 28.786 215.22 29.0873 215.22 29.4443V38.1473C215.22 39.5308 215.477 40.6689 215.99 41.5615C216.526 42.4541 217.24 43.1236 218.133 43.5699C219.048 44.0162 220.074 44.2393 221.212 44.2393C222.306 44.2393 223.287 44.0273 224.158 43.6033C225.05 43.1793 225.753 42.5991 226.266 41.8627C226.78 41.1263 227.036 40.2895 227.036 39.3523H228.877C228.81 40.7581 228.42 42.019 227.706 43.1347C227.014 44.2282 226.077 45.0985 224.894 45.7456C223.711 46.3704 222.395 46.6828 220.944 46.6828ZM228.308 46.482C227.929 46.482 227.617 46.3704 227.371 46.1473C227.148 45.9018 227.036 45.5782 227.036 45.1766V29.4443C227.036 29.065 227.148 28.7637 227.371 28.5406C227.617 28.2951 227.929 28.1724 228.308 28.1724C228.688 28.1724 229 28.2951 229.246 28.5406C229.491 28.7637 229.614 29.065 229.614 29.4443V45.1766C229.614 45.5782 229.491 45.9018 229.246 46.1473C229 46.3704 228.688 46.482 228.308 46.482Z" fill="#0074BA"/>
<path d="M251.338 46.4817C250.958 46.4817 250.646 46.3589 250.4 46.1135C250.155 45.868 250.032 45.5667 250.032 45.2097V36.5068C250.032 35.1232 249.764 33.9851 249.229 33.0925C248.716 32.1999 248.001 31.5305 247.087 31.0842C246.194 30.6379 245.179 30.4147 244.04 30.4147C242.947 30.4147 241.954 30.6267 241.061 31.0507C240.191 31.4747 239.499 32.0549 238.986 32.7913C238.473 33.5277 238.216 34.3645 238.216 35.3017H236.375C236.42 33.8959 236.799 32.6462 237.513 31.5528C238.227 30.437 239.176 29.5667 240.358 28.9419C241.541 28.2948 242.858 27.9712 244.308 27.9712C245.893 27.9712 247.31 28.3059 248.559 28.9754C249.809 29.6225 250.791 30.5821 251.505 31.854C252.241 33.126 252.61 34.6769 252.61 36.5068V45.2097C252.61 45.5667 252.487 45.868 252.241 46.1135C251.996 46.3589 251.695 46.4817 251.338 46.4817ZM236.944 46.4817C236.543 46.4817 236.219 46.3701 235.974 46.1469C235.75 45.9015 235.639 45.5891 235.639 45.2097V29.4775C235.639 29.0758 235.75 28.7634 235.974 28.5402C236.219 28.2948 236.543 28.172 236.944 28.172C237.324 28.172 237.625 28.2948 237.848 28.5402C238.093 28.7634 238.216 29.0758 238.216 29.4775V45.2097C238.216 45.5891 238.093 45.9015 237.848 46.1469C237.625 46.3701 237.324 46.4817 236.944 46.4817Z" fill="#0074BA"/>
<path d="M81.4812 17.0537H82.8759V54.878H81.4812V17.0537Z" fill="#0074BA"/>
<path d="M62.9754 26.5362C62.3283 25.1203 61.4522 23.8092 60.6858 22.45L60.5292 22.5343C60.5702 22.9308 60.6425 23.3272 60.6497 23.7237C60.6919 27.4942 60.7606 31.2647 60.7437 35.0352C60.7304 37.8188 60.0604 40.4771 58.906 43.0076C58.6566 43.5571 58.3397 44.0765 58.0541 44.6103C57.8384 42.4413 57.2009 40.4626 56.2923 38.5502C56.1923 38.3394 56.2574 37.9694 56.3803 37.7465C60.8027 29.703 60.9739 21.6462 56.3357 13.6461C50.6668 3.80007 39.4811 -1.4921 28.2732 0.369143C21.3094 1.51753 15.4397 4.69397 10.9655 10.2395C8.03847 13.8654 6.06947 17.942 5.49106 22.6162C4.82588 28.0039 5.94173 33.0252 8.64701 37.7091C8.8133 37.9947 8.81691 38.1911 8.68316 38.5177C8.19288 39.6759 7.76449 40.8593 7.39981 42.0629C7.16724 42.8666 7.12868 43.727 6.9901 44.6549C6.89009 44.5067 6.8455 44.4464 6.80814 44.3825C5.25005 41.7195 4.3246 38.8298 4.20771 35.7703C4.07154 32.2058 4.18361 28.6317 4.21494 25.0612C4.22217 24.2527 4.33544 23.4441 4.421 22.4584C4.15589 22.8103 3.98478 23.0235 3.82933 23.2465C1.69644 26.2904 0.522754 29.6982 0.134737 33.3687C-0.361732 38.0682 0.456478 42.4389 3.54977 46.2021C4.94036 47.8964 6.66716 49.1508 8.62893 50.2076C9.05792 47.2216 10.5883 45.026 13.0477 43.4848L18.1956 47.8783C15.9964 48.1567 13.7949 48.0326 13.0887 47.5783C12.291 48.57 11.9656 49.7172 11.8777 50.9608C11.8512 51.3223 11.9451 51.5271 12.3416 51.5633C13.778 51.6777 15.2156 51.9344 16.6471 51.9055C22.1529 51.797 27.1381 49.8196 31.9871 47.4252C32.3136 47.2638 32.5281 47.2565 32.8523 47.4168C36.9493 49.4436 41.1934 51.0632 45.7532 51.7103C48.0536 52.0368 50.3528 52.0284 52.6327 51.5295C52.7978 51.4934 53.0569 51.2958 53.0544 51.1777C53.0219 49.8521 52.6713 48.6218 51.9121 47.6048C50.1516 48.1784 48.4573 48.0868 46.7811 47.9205C48.4187 46.4998 50.0154 45.1044 51.6289 43.7294C51.7814 43.6409 51.9674 43.6319 52.1278 43.7053C53.8763 44.7826 55.1548 46.2588 55.8272 48.2157C56.0453 48.8496 56.1887 49.5099 56.3658 50.1703C56.4284 50.1521 56.4896 50.1295 56.549 50.1028C56.8683 49.9341 57.1937 49.775 57.5022 49.5882C62.4066 46.6179 64.6118 42.0918 64.9613 36.5306C65.1818 33.0252 64.4214 29.697 62.9754 26.5362ZM17.6642 11.4192C20.8466 8.68379 24.5027 8.06923 28.4612 9.56707C29.0046 9.77193 29.5264 10.0334 30.0506 10.2901C31.7183 11.0974 33.3524 11.0131 35.0406 10.2744C36.301 9.72734 37.6061 9.11278 38.9437 8.9489C43.5914 8.36807 47.1944 10.2178 49.7587 14.0955C53.1593 19.2362 52.3037 28.4184 45.0591 32.2709C43.6414 33.0384 42.0584 33.4499 40.4463 33.4699C37.8182 33.4964 35.19 33.4771 32.5619 33.4771V33.4904C30.0313 33.4904 27.5008 33.5434 24.9799 33.4795C19.9513 33.3506 15.6663 30.1549 14.0286 25.3914C12.2729 20.2821 13.5912 14.9282 17.6642 11.4192ZM23.911 46.4455C23.7777 46.469 23.6405 46.4392 23.529 46.3624C18.0751 42.6859 13.2924 38.3454 10.2051 32.4227C7.69866 27.6123 7.28172 22.6078 9.11094 17.4612C9.16517 17.3081 9.23144 17.1599 9.2929 17.0105C9.2929 18.2336 9.25434 19.4579 9.30013 20.6786C9.45076 24.625 10.8992 28.1497 12.9947 31.4165C16.3688 36.6776 20.7298 40.9663 25.9403 44.403C26.3693 44.6862 26.7934 44.9802 27.2851 45.3152C26.1005 45.7141 25.0088 46.0901 23.911 46.4455ZM32.2257 43.2547C28.2508 41.1653 24.5345 38.6174 21.1527 35.663C21.1049 35.5867 21.0645 35.506 21.0322 35.422C24.058 36.4945 26.9814 37.5019 29.8807 38.5792C30.6796 38.8768 31.393 39.3986 32.163 39.7842C32.3413 39.8746 32.645 39.9216 32.7944 39.8312C35.6106 38.1442 38.6785 37.1163 41.8237 36.2752C42.4382 36.1101 43.0359 35.8847 43.642 35.6883L43.7625 35.8088C42.1755 37.0295 40.6463 38.3273 38.9943 39.4444C37.0228 40.7783 34.9526 41.9665 32.9125 43.1956C32.7306 43.3041 32.398 43.3474 32.2245 43.2547H32.2257ZM53.8088 34.2098C51.4265 38.0188 48.3235 41.1447 44.8001 43.8801C43.7565 44.691 42.672 45.4466 41.5826 46.1985C41.3587 46.3366 41.0891 46.38 40.8331 46.319C39.8245 46.0069 38.8328 45.6394 37.7302 45.2562C38.6556 44.6163 39.4907 44.0439 40.3222 43.4643C45.0121 40.1963 49.02 36.2571 52.0712 31.3984C54.5487 27.4532 55.9754 23.2043 55.6862 18.4746C55.6657 18.1541 55.6428 17.8347 55.6079 17.5106C55.5766 17.2153 55.5284 16.9213 55.4874 16.6273L55.6332 16.5851C55.9393 17.607 56.3213 18.612 56.5406 19.6519C57.6396 24.8757 56.6237 29.7066 53.8076 34.2098H53.8088Z" fill="#0074BA"/>
<path d="M57.0169 53.3317C56.3926 53.586 56.1902 53.9415 56.0528 54.5645C55.2744 58.0084 53.2572 60.4691 49.9675 61.7946C47.9997 62.5899 45.9355 62.5622 43.8592 62.3128C43.5603 62.2877 43.2627 62.3735 43.0229 62.5538C41.7504 63.6118 40.3984 64.5348 38.8584 65.1566C36.2543 66.2062 33.5418 66.458 30.7679 66.223C27.4541 65.9423 24.4897 64.7999 21.9712 62.5923C21.6097 62.2754 21.2904 62.2224 20.8361 62.285C18.9514 62.5477 17.0632 62.5489 15.2508 61.8886C11.5972 60.5631 9.51732 57.8614 8.71116 54.1222C8.62802 53.7378 8.45329 53.5619 8.10865 53.4233C5.39374 52.3388 3.21868 50.5493 1.41115 48.2803C1.32559 48.1718 1.22437 48.0742 1.05807 47.8947C5.80586 63.2551 19.3804 72.1879 34.3335 71.436C50.6688 70.6214 60.7331 58.9773 63.8083 47.8682C61.9382 50.3626 59.7559 52.2159 57.0169 53.3317Z" fill="#0074BA"/>
<path d="M52.0299 56.1849C52.3155 55.7475 52.4987 55.2426 52.7759 54.6726C52.5288 54.6919 52.4324 54.6895 52.3384 54.7076C49.8248 55.198 47.3051 55.0811 44.795 54.7148C40.5678 54.0991 36.6009 52.6663 32.8038 50.7479C32.5644 50.6472 32.2953 50.6433 32.0531 50.737C31.2795 51.0636 30.5396 51.4721 29.772 51.8131C24.2024 54.287 18.4532 55.7041 12.1594 54.6751C13.1463 56.9947 14.655 58.5311 17.0084 59.1336C18.2556 59.4566 19.5124 59.3999 20.7669 59.1638C24.206 58.5143 27.415 57.2285 30.5131 55.6379C31.1879 55.2908 31.8495 54.6305 32.5146 54.6341C33.1798 54.6377 33.8402 55.3101 34.5138 55.6523C37.7818 57.3008 41.1064 58.8083 44.7854 59.2746C47.7798 59.6542 50.3068 58.8239 52.0299 56.1849Z" fill="#0074BA"/>
<path d="M30.9494 58.801C29.2817 59.7554 27.444 60.4145 25.6943 61.1918C27.9236 63.8621 36.7239 63.9091 39.4545 61.1918C39.2388 61.111 39.0351 61.0423 38.8375 60.958C37.2216 60.2615 35.5382 59.6819 34.0174 58.8215C32.898 58.1937 32.0906 58.1479 30.9494 58.801Z" fill="#0074BA"/>
<path d="M25.6134 30.9219C27.9029 30.8472 30.1925 30.9099 32.4748 30.9099V30.8978C34.9222 30.8978 37.3696 30.9038 39.8182 30.8978C41.7019 30.9146 43.5368 30.2985 45.0287 29.1481C48.4942 26.4481 49.8782 21.8547 48.4811 17.6896C47.3809 14.471 45.2191 12.3537 41.8426 11.6199C39.8941 11.1969 38.048 11.5837 36.3369 12.5682C35.0165 13.3481 33.4916 13.7113 31.9614 13.6106C30.7022 13.5347 29.6008 13.0502 28.5054 12.4839C25.2784 10.8173 21.8573 11.2307 19.1737 13.6154C17.306 15.2759 16.36 17.4004 16.0262 19.8634C15.2695 25.4475 19.857 31.1111 25.6134 30.9219ZM20.4932 15.7145C22.3116 13.7419 24.8867 13.319 27.3149 14.4649C28.0379 14.8047 28.7368 15.2241 29.4839 15.4928C31.8879 16.3544 34.2498 16.1821 36.5465 15.0711C37.2129 14.7493 37.8636 14.3721 38.5601 14.1348C41.0786 13.2744 43.6778 14.295 45.3203 16.7352C47.8834 20.5443 46.2361 26.4236 42.0667 28.1214C41.1847 28.4829 40.1592 28.5866 39.194 28.6179C36.99 28.6878 34.7812 28.6396 32.576 28.6396V28.6336C30.3093 28.6336 28.0427 28.6516 25.7773 28.6336C22.5731 28.6034 20.2703 27.0815 19.0544 24.1629C17.7819 21.0998 18.2121 18.1909 20.4932 15.7145Z" fill="#0074BA"/>
<path d="M24.889 21.9856C26.3953 21.9856 27.8618 20.5962 27.8871 19.1562C27.901 18.3542 27.5922 17.5801 27.0301 17.0078C26.468 16.4355 25.6996 16.1129 24.8975 16.1124C23.2345 16.1027 21.9355 17.4029 21.9223 19.0912C21.909 20.5999 23.337 21.9929 24.889 21.9856Z" fill="#0074BA"/>
<path d="M39.9966 21.9755C41.533 21.9755 42.9586 20.6247 42.9718 19.1521C42.9851 17.4651 41.7017 16.1263 40.0533 16.1179C39.2816 16.1008 38.5349 16.3918 37.9783 16.9267C37.4218 17.4615 37.1013 18.196 37.0877 18.9678C37.054 20.5572 38.4217 21.9731 39.9966 21.9755Z" fill="#0074BA"/>
<path d="M27.1306 24.1136C25.9521 24.0871 24.7688 24.1028 23.5915 24.1763C22.9154 24.2172 22.5575 24.8439 22.76 25.491C22.948 26.0935 23.389 26.414 24.006 26.455C24.5049 26.4851 25.0061 26.461 25.5062 26.461V26.473C26.0268 26.473 26.5486 26.4971 27.0728 26.4658C27.7018 26.4285 28.2296 25.885 28.2525 25.3066C28.2687 24.6686 27.7683 24.1365 27.1306 24.1136Z" fill="#0074BA"/>
<path d="M37.828 26.4472C38.9262 26.4954 40.0262 26.4882 41.1237 26.4255C41.7792 26.387 42.2974 25.7363 42.2745 25.1663C42.2516 24.5963 41.6925 24.1119 40.9731 24.089C40.4911 24.0733 40.0091 24.089 39.5343 24.089V24.0998C38.9932 24.0998 38.4498 24.0769 37.9147 24.0998C37.2472 24.136 36.7953 24.5927 36.7784 25.1904C36.7615 25.8266 37.1965 26.4207 37.828 26.4472Z" fill="#0074BA"/>
<path d="M31.2706 25.1084C32.0492 25.1634 32.8307 25.1654 33.6096 25.1144C34.2175 25.0545 34.6754 24.5345 34.6579 23.9239C34.6302 23.2924 34.1566 22.849 33.4686 22.8237C33.148 22.8128 32.8275 22.8237 32.5045 22.8237V22.8381C32.125 22.8381 31.743 22.8188 31.3646 22.8381C30.7729 22.8755 30.3777 23.2936 30.3331 23.8877C30.2933 24.4516 30.7163 25.071 31.2706 25.1084Z" fill="#0074BA"/>
</svg>
