<?xml version="1.0" encoding="UTF-8" standalone="no"?>
<svg
   xmlns:dc="http://purl.org/dc/elements/1.1/"
   xmlns:cc="http://creativecommons.org/ns#"
   xmlns:rdf="http://www.w3.org/1999/02/22-rdf-syntax-ns#"
   xmlns:svg="http://www.w3.org/2000/svg"
   xmlns="http://www.w3.org/2000/svg"
   xmlns:sodipodi="http://sodipodi.sourceforge.net/DTD/sodipodi-0.dtd"
   xmlns:inkscape="http://www.inkscape.org/namespaces/inkscape"
   version="1.1"
   width="955"
   height="322"
   viewBox="158.08 95.14 955 322"
   xml:space="preserve"
   id="svg59"
   sodipodi:docname="built.svg"><metadata
   id="metadata63"><rdf:RDF><cc:Work
       rdf:about=""><dc:format>image/svg+xml</dc:format><dc:type
         rdf:resource="http://purl.org/dc/dcmitype/StillImage" /></cc:Work></rdf:RDF></metadata><sodipodi:namedview
   pagecolor="#ffffff"
   bordercolor="#666666"
   borderopacity="1"
   objecttolerance="10"
   gridtolerance="10"
   guidetolerance="10"
   inkscape:pageopacity="0"
   inkscape:pageshadow="2"
   inkscape:window-width="640"
   inkscape:window-height="480"
   id="namedview61"
   fit-margin-top="51"
   fit-margin-left="51"
   fit-margin-right="51"
   fit-margin-bottom="51" />
<desc
   id="desc2">Created with Fabric.js 5.3.0</desc>
<defs
   id="defs4">
</defs>
<rect
   width="955.40002"
   height="322.39999"
   fill="#ffffff"
   x="157.98001"
   y="95.040001"
   id="rect6" /><g
   transform="matrix(0.86,0,0,0.86,790.37,256.28)"
   id="base_text">
		<g
   aria-label="AlertMend"
   id="text10"
   style="font-style:normal;font-weight:normal;font-size:120px;font-family:f3;white-space:pre;opacity:1;fill:#0074ba;fill-rule:nonzero;stroke:none;stroke-width:1;stroke-linecap:butt;stroke-linejoin:miter;stroke-miterlimit:4;stroke-dasharray:none;stroke-dashoffset:0"><path
     d="m -317.64001,37.700001 q -2.76,0 -3.96,-2.28 -1.2,-2.28 -0.24,-4.44 l 35.28,-83.76 q 1.32,-3.24 4.56,-3.24 3.12,0 4.44,3.24 l 35.4,83.88 q 1.08,2.28 -0.36,4.44 -1.32,2.16 -3.84,2.16 -1.44,0 -2.64,-0.72 -1.08,-0.72 -1.8,-2.16 l -33,-80.04 h 3.72 l -33.24,80.04 q -0.6,1.44 -1.8,2.16 -1.08,0.72 -2.52,0.72 z m 7.92,-22.32 3.6,-8.0400002 h 48.72 l 3.6,8.0400002 z"
     id="path65" /><path
     d="m -215.16012,37.700001 q -4.8,0 -8.64,-2.64 -3.72,-2.64 -5.88,-7.32 -2.04,-4.68 -2.04,-10.8 v -68.4 q 0,-2.04 1.2,-3.24 1.32,-1.32 3.36,-1.32 2.04,0 3.24,1.32 1.32,1.2 1.32,3.24 v 68.4 q 0,5.16 2.04,8.4 2.16,3.24 5.4,3.24 h 3 q 1.8,0 2.88,1.32 1.08,1.2 1.08,3.24 0,2.04 -1.56,3.36 -1.44,1.2 -3.84,1.2 z"
     id="path67" /><path
     d="m -169.32025,38.300001 q -9.72,0 -17.28,-4.2 -7.44,-4.32 -11.76,-11.88 -4.2,-7.56 -4.2,-17.2800002 0,-9.84 3.96,-17.2799998 4.08,-7.56 11.16,-11.88 7.08,-4.32 16.32,-4.32 9.12,0 15.84,4.2 6.84,4.08 10.56,11.4 3.72,7.3199998 3.72,16.6799998 0,1.92 -1.2,3.12 -1.2,1.08 -3.12,1.08 h -51 V 0.26000076 h 51.96 l -5.16,3.72000004 q 0.12,-6.96 -2.52,-12.48 -2.64,-5.5199998 -7.56,-8.6399998 -4.8,-3.12 -11.52,-3.12 -6.84,0 -12,3.24 -5.16,3.24 -8.04,8.9999998 -2.76,5.64 -2.76,12.96 0,7.3200002 3.12,12.9600002 3.24,5.64 8.76,8.88 5.52,3.24 12.72,3.24 4.32,0 8.64,-1.44 4.44,-1.56 7.08,-3.84 1.32,-1.08 3,-1.08 1.68,-0.12 2.88,0.84 1.56,1.44 1.56,3.12 0.12,1.68 -1.32,2.88 -3.96,3.36 -10.08,5.64 -6.12,2.16 -11.76,2.16 z"
     id="path69" /><path
     d="m -121.56044,-2.7399992 q 0.36,-7.4399998 3.84,-13.3199998 3.6,-5.88 9.24,-9.24 5.76,-3.36 12.720001,-3.36 5.52,0 8.52,1.56 3,1.56 2.28,4.56 -0.48,1.8 -1.68,2.4 -1.08,0.6 -2.76,0.48 -1.56,-0.12 -3.6,-0.24 -6.72,-0.6 -12.000001,1.44 -5.16,1.92 -8.28,6 -3,4.0799998 -3,9.7199998 z m 0.72,40.4400002 q -2.16,0 -3.36,-1.2 -1.2,-1.2 -1.2,-3.36 v -56.52 q 0,-2.16 1.2,-3.36 1.2,-1.2 3.36,-1.2 2.16,0 3.36,1.2 1.2,1.2 1.2,3.36 v 56.52 q 0,2.16 -1.2,3.36 -1.2,1.2 -3.36,1.2 z"
     id="path71" /><path
     d="m -44.760646,37.700001 q -6.36,0 -11.4,-3 -4.92,-3 -7.8,-8.16 -2.88,-5.28 -2.88,-12 v -58.68 q 0,-2.04 1.2,-3.36 1.32,-1.32 3.36,-1.32 2.04,0 3.36,1.32 1.32,1.32 1.32,3.36 v 58.68 q 0,6.12 3.6,10.08 3.6,3.84 9.24,3.84 h 3.24 q 1.92,0 3.12,1.32 1.2,1.32 1.2,3.36 0,2.04 -1.44,3.36 -1.44,1.2 -3.6,1.2 z m -29.88,-55.2 q -1.8,0 -3,-1.08 -1.2,-1.2 -1.2,-2.88 0,-1.8 1.2,-2.88 1.2,-1.2 3,-1.2 h 30.6 q 1.8,0 3,1.2 1.2,1.08 1.2,2.88 0,1.68 -1.2,2.88 -1.2,1.08 -3,1.08 z"
     id="path73" /><path
     d="m -16.320824,37.700001 q -1.92,0 -3.36,-1.32 -1.32,-1.44 -1.32,-3.36 v -84.36 q 0,-2.04 1.32,-3.36 1.44,-1.32 3.36,-1.32 2.88,0 4.2,2.4 l 40.44,80.4 h -4.08 l 39.72,-80.4 q 1.44,-2.4 4.2,-2.4 1.92,0 3.24,1.32 1.32,1.32 1.32,3.36 v 84.36 q 0,1.92 -1.32,3.36 -1.32,1.32 -3.24,1.32 -2.04,0 -3.48,-1.32 -1.32,-1.44 -1.32,-3.36 v -72.24 l 2.04,0.12 -35.4,72.36 q -1.32,2.28 -4.08,2.28 -3,0 -4.32,-2.88 l -35.64,-71.28 2.4,-0.6 v 72.24 q 0,1.92 -1.44,3.36 -1.32,1.32 -3.24,1.32 z"
     id="path75" /><path
     d="m 125.27906,38.300001 q -9.72,0 -17.28,-4.2 -7.44,-4.32 -11.760005,-11.88 -4.2,-7.56 -4.2,-17.2800002 0,-9.84 3.96,-17.2799998 4.080005,-7.56 11.160005,-11.88 7.08,-4.32 16.32,-4.32 9.12,0 15.84,4.2 6.84,4.08 10.56,11.4 3.72,7.3199998 3.72,16.6799998 0,1.92 -1.2,3.12 -1.2,1.08 -3.12,1.08 H 98.279055 V 0.26000076 h 51.960005 l -5.16,3.72000004 q 0.12,-6.96 -2.52,-12.48 -2.64,-5.5199998 -7.56,-8.6399998 -4.8,-3.12 -11.52,-3.12 -6.84,0 -12,3.24 -5.16,3.24 -8.04,8.9999998 -2.76,5.64 -2.76,12.96 0,7.3200002 3.12,12.9600002 3.24,5.64 8.76,8.88 5.52,3.24 12.72,3.24 4.32,0 8.64,-1.44 4.44,-1.56 7.08,-3.84 1.32,-1.08 3,-1.08 1.68,-0.12 2.88,0.84 1.56,1.44 1.56,3.12 0.12,1.68 -1.32,2.88 -3.96,3.36 -10.08,5.64 -6.12,2.16 -11.76,2.16 z"
     id="path77" /><path
     d="m 225.47886,37.700001 q -2.04,0 -3.36,-1.32 -1.32,-1.32 -1.32,-3.24 V 1.9400008 q 0,-7.44 -2.88,-12.2399998 -2.76,-4.8 -7.68,-7.2 -4.8,-2.4 -10.92,-2.4 -5.88,0 -10.68,2.28 -4.68,2.28 -7.44,6.24 -2.76,3.9599998 -2.76,8.9999998 h -6.6 q 0.24,-7.56 4.08,-13.4399998 3.84,-6 10.2,-9.36 6.36,-3.48 14.16,-3.48 8.52,0 15.24,3.6 6.72,3.48 10.56,10.32 3.96,6.8399998 3.96,16.6799998 V 33.140001 q 0,1.92 -1.32,3.24 -1.32,1.32 -3.24,1.32 z m -51.6,0 q -2.16,0 -3.48,-1.2 -1.2,-1.32 -1.2,-3.36 v -56.4 q 0,-2.16 1.2,-3.36 1.32,-1.32 3.48,-1.32 2.04,0 3.24,1.32 1.32,1.2 1.32,3.36 v 56.4 q 0,2.04 -1.32,3.36 -1.2,1.2 -3.24,1.2 z"
     id="path79" /><path
     d="m 280.31864,38.300001 q -9.48,0 -17.04,-4.32 -7.56,-4.44 -12,-12 -4.32,-7.56 -4.32,-17.1600002 0,-9.48 4.2,-17.0399998 4.32,-7.56 11.64,-11.88 7.32,-4.44 16.56,-4.44 8.04,0 14.52,3.48 6.48,3.36 10.44,9 v -35.28 q 0,-2.16 1.32,-3.36 1.32,-1.32 3.36,-1.32 2.04,0 3.36,1.32 1.32,1.2 1.32,3.36 V 5.3000008 q -0.24,9.3600002 -4.68,16.9200002 -4.32,7.44 -11.88,11.76 -7.44,4.32 -16.8,4.32 z m 0,-8.4 q 6.96,0 12.36,-3.24 5.52,-3.36 8.64,-9 3.24,-5.64 3.24,-12.8400002 0,-7.08 -3.24,-12.72 -3.12,-5.7599998 -8.64,-8.9999998 -5.4,-3.24 -12.36,-3.24 -6.84,0 -12.36,3.24 -5.52,3.24 -8.76,8.9999998 -3.24,5.64 -3.24,12.72 0,7.2000002 3.24,12.8400002 3.24,5.64 8.76,9 5.52,3.24 12.36,3.24 z"
     id="path81" /></g>
</g><g
   transform="matrix(0.86,0,0,0.86,462.48,256.28)"
   id="separator_line">
<path
   id="rect13"
   style="opacity:1;fill:#0074ba;fill-rule:nonzero;stroke:none;stroke-width:1;stroke-linecap:butt;stroke-linejoin:miter;stroke-miterlimit:4;stroke-dasharray:none;stroke-dashoffset:0"
   d="m -2.5,-67.800003 h 5 V 67.800003 h -5 z" />
</g><g
   transform="matrix(0.44,0,0,0.44,308.86,256.5)"
   id="main_icon">
<g
   id="g56">
		<g
   transform="matrix(0.84,0,0,0.84,-0.14,-68.15)"
   id="g18">
<path
   style="opacity:1;fill:#0074ba;fill-rule:nonzero;stroke:none;stroke-width:1;stroke-linecap:butt;stroke-linejoin:miter;stroke-miterlimit:4;stroke-dasharray:none;stroke-dashoffset:0"
   transform="translate(-269.7,-215.42)"
   d="m 522.61,220.15 c -5.37,-11.75 -12.64,-22.63 -19,-33.91 l -1.3,0.7 c 0.34,3.29 0.94,6.58 1,9.87 0.35,31.29 0.92,62.58 0.78,93.87 -0.11,23.1 -5.67,45.16 -15.25,66.16 -2.07,4.56 -4.7,8.87 -7.07,13.3 -1.79,-18 -7.08,-34.42 -14.62,-50.29 -0.83,-1.75 -0.29,-4.82 0.73,-6.67 36.7,-66.75 38.12,-133.61 -0.37,-200 C 420.46555,31.471947 327.63976,-12.445714 234.63,3 176.84,12.53 128.13,38.89 91,84.91 66.71,115 50.37,148.83 45.57,187.62 c -5.52,44.71 3.74,86.38 26.19,125.25 1.38,2.37 1.41,4 0.3,6.71 -4.06866,9.61108 -7.623674,19.4316 -10.65,29.42 -1.93,6.67 -2.25,13.81 -3.4,21.51 -0.83,-1.23 -1.2,-1.73 -1.51,-2.26 -12.93,-22.1 -20.61,-46.08 -21.58,-71.47 -1.13,-29.58 -0.2,-59.24 0.06,-88.87 0.06,-6.71 1,-13.42 1.71,-21.6 -2.2,2.92 -3.62,4.69 -4.91,6.54 -17.7,25.26 -27.44,53.54 -30.66,84 -4.12,39 2.67,75.27 28.34,106.5 11.54,14.06 25.87,24.47 42.15,33.24 3.56,-24.78 16.26,-43 36.67,-55.79 L 151,397.26 c -18.25,2.31 -36.52,1.28 -42.38,-2.49 -6.62,8.23 -9.32,17.75 -10.05,28.07 -0.22,3 0.56,4.7 3.85,5 11.92,0.95 23.85,3.08 35.73,2.84 45.69,-0.9 87.06,-17.31 127.3,-37.18 2.71,-1.34 4.49,-1.4 7.18,-0.07 34,16.82 69.22,30.26 107.06,35.63 19.09,2.71 38.17,2.64 57.09,-1.5 1.37,-0.3 3.52,-1.94 3.5,-2.92 -0.27,-11 -3.18,-21.21 -9.48,-29.65 -14.61,4.76 -28.67,4 -42.58,2.62 13.59,-11.79 26.84,-23.37 40.23,-34.78 1.26582,-0.73441 2.80928,-0.80897 4.14,-0.2 14.51,8.94 25.12,21.19 30.7,37.43 1.81,5.26 3,10.74 4.47,16.22 0.51911,-0.15099 1.02701,-0.33811 1.52,-0.56 2.65,-1.4 5.35,-2.72 7.91,-4.27 40.7,-24.65 59,-62.21 61.9,-108.36 1.83,-29.09 -4.48,-56.71 -16.48,-82.94 z M 146.59,94.7 C 173,72 203.34,66.9 236.19,79.33 c 4.51,1.7 8.84,3.87 13.19,6 13.84,6.7 27.4,6 41.41,-0.13 10.46,-4.54 21.29,-9.64 32.39,-11 38.57,-4.82 68.47,10.53 89.75,42.71 28.22,42.66 21.12,118.86 -39,150.83 -11.76518,6.36966 -24.90223,9.78434 -38.28,9.95 -21.81,0.22 -43.62,0.06 -65.43,0.06 v 0.11 c -21,0 -42,0.44 -62.92,-0.09 -41.73,-1.07 -77.29,-27.59 -90.88,-67.12 -14.57,-42.4 -3.63,-86.83 30.17,-115.95 z m 51.84,290.67 c -1.10627,0.1949 -2.24482,-0.0529 -3.17,-0.69 C 150,354.17 110.31,318.15 84.69,269 63.89,229.08 60.43,187.55 75.61,144.84 c 0.45,-1.27 1,-2.5 1.51,-3.74 0,10.15 -0.32,20.31 0.06,30.44 1.25,32.75 13.27,62 30.66,89.11 28,43.66 64.19,79.25 107.43,107.77 3.56,2.35 7.08,4.79 11.16,7.57 -9.83,3.31 -18.89,6.43 -28,9.38 z m 69,-26.48 c -32.9855,-17.3389 -63.82577,-38.48306 -91.89,-63 -0.39696,-0.63291 -0.73185,-1.30269 -1,-2 25.11,8.9 49.37,17.26 73.43,26.2 6.63,2.47 12.55,6.8 18.94,10 1.48,0.75 4,1.14 5.24,0.39 23.37,-14 48.83,-22.53 74.93,-29.51 5.1,-1.37 10.06,-3.24 15.09,-4.87 l 1,1 C 350,307.23 337.31,318 323.6,327.27 c -16.36,11.07 -33.54,20.93 -50.47,31.13 -1.51,0.9 -4.27,1.26 -5.71,0.49 z m 179.11,-75.06 c -19.77,31.61 -45.52,57.55 -74.76,80.25 -8.66,6.73 -17.66,13 -26.7,19.24 -1.85825,1.14614 -4.09614,1.50593 -6.22,1 -8.37,-2.59 -16.6,-5.64 -25.75,-8.82 7.68,-5.31 14.61,-10.06 21.51,-14.87 38.92,-27.12 72.18,-59.81 97.5,-100.13 20.56,-32.74 32.4,-68 30,-107.25 -0.17,-2.66 -0.36,-5.31 -0.65,-8 -0.26,-2.45 -0.66,-4.89 -1,-7.33 l 1.21,-0.35 c 2.54,8.48 5.71,16.82 7.53,25.45 9.12,43.35 0.69,83.44 -22.68,120.81 z"
   stroke-linecap="round"
   id="path16" />
</g>
		<g
   transform="matrix(0.84,0,0,0.84,-0.6,166.82)"
   id="g22">
<path
   style="opacity:1;fill:#0074ba;fill-rule:nonzero;stroke:none;stroke-width:1;stroke-linecap:butt;stroke-linejoin:miter;stroke-miterlimit:4;stroke-dasharray:none;stroke-dashoffset:0"
   transform="translate(-269.15,-495.15)"
   d="m 473.16,442.52 c -5.18,2.11 -6.86,5.06 -8,10.23 -6.46,28.58 -23.2,49 -50.5,60 -16.33,6.6 -33.46,6.37 -50.69,4.3 -2.4804,-0.20771 -4.95055,0.50414 -6.94,2 -10.56,8.78 -21.78,16.44 -34.56,21.6 -21.61,8.71 -44.12,10.8 -67.14,8.85 -27.5,-2.33 -52.1,-11.81 -73,-30.13 -3,-2.63 -5.65,-3.07 -9.42,-2.55 -15.64,2.18 -31.31,2.19 -46.35,-3.29 -30.32,-11 -47.58,-33.42 -54.27,-64.45 -0.69,-3.19 -2.14,-4.65 -5,-5.8 C 44.76,434.28 26.71,419.43 11.71,400.6 11,399.7 10.16,398.89 8.78,397.4 48.18,524.87 160.83,599 284.92,592.76 420.48,586 504,489.37 529.52,397.18 514,417.88 495.89,433.26 473.16,442.52 Z"
   stroke-linecap="round"
   id="path20" />
</g>
		<g
   transform="matrix(0.84,0,0,0.84,-0.36,134.35)"
   id="g26">
<path
   style="opacity:1;fill:#0074ba;fill-rule:nonzero;stroke:none;stroke-width:1;stroke-linecap:butt;stroke-linejoin:miter;stroke-miterlimit:4;stroke-dasharray:none;stroke-dashoffset:0"
   transform="translate(-269.44,-456.51)"
   d="m 431.78,466.21 c 2.37,-3.63 3.89,-7.82 6.19,-12.55 -2.05,0.16 -2.85,0.14 -3.63,0.29 -20.86,4.07 -41.77,3.1 -62.6,0.06 -35.08,-5.11 -68,-17 -99.51,-32.92 -1.98662,-0.8358 -4.22006,-0.86807 -6.23,-0.09 -6.42,2.71 -12.56,6.1 -18.93,8.93 -46.22,20.53 -93.93,32.29 -146.16,23.75 8.19,19.25 20.71,32 40.24,37 10.35,2.68 20.78,2.21 31.19,0.25 28.54,-5.39 55.17,-16.06 80.88,-29.26 5.6,-2.88 11.09,-8.36 16.61,-8.33 5.52,0.03 11,5.61 16.59,8.45 27.12,13.68 54.71,26.19 85.24,30.06 24.85,3.15 45.82,-3.74 60.12,-25.64 z"
   stroke-linecap="round"
   id="path24" />
</g>
		<g
   transform="matrix(0.84,0,0,0.84,0.38,174.47)"
   id="g30">
<path
   style="opacity:1;fill:#0074ba;fill-rule:nonzero;stroke:none;stroke-width:1;stroke-linecap:butt;stroke-linejoin:miter;stroke-miterlimit:4;stroke-dasharray:none;stroke-dashoffset:0"
   transform="translate(-270.31,-504.25)"
   d="m 256.83,487.9 c -13.84,7.92 -29.09,13.39 -43.61,19.84 18.5,22.16 91.53,22.55 114.19,0 -1.79,-0.67 -3.48,-1.24 -5.12,-1.94 -13.41,-5.78 -27.38,-10.59 -40,-17.73 -9.29,-5.21 -15.99,-5.59 -25.46,-0.17 z"
   stroke-linecap="round"
   id="path28" />
</g>
		<g
   transform="matrix(0.84,0,0,0.84,-0.26,-101.45)"
   id="g34">
<path
   style="opacity:1;fill:#0074ba;fill-rule:nonzero;stroke:none;stroke-width:1;stroke-linecap:butt;stroke-linejoin:miter;stroke-miterlimit:4;stroke-dasharray:none;stroke-dashoffset:0"
   transform="translate(-269.56,-175.8)"
   d="m 212.56,256.57 c 19,-0.62 38,-0.1 56.94,-0.1 v -0.1 c 20.31,0 40.62,0.05 60.94,0 15.6328,0.13963 30.85978,-4.97359 43.24,-14.52 28.75921,-22.4067 40.24404,-60.52512 28.65,-95.09 -9.13,-26.71 -27.07,-44.28 -55.09,-50.37 -16.17,-3.51 -31.49,-0.3 -45.69,7.87 -10.95713,6.47147 -23.61199,9.48619 -36.31,8.65 -10.45,-0.63 -19.59,-4.65 -28.68,-9.35 -26.78,-13.83 -55.17,-10.4 -77.44,9.39 -15.5,13.78 -23.35,31.41 -26.12,51.85 -6.28,46.34 31.79,93.34 79.56,91.77 z M 170.07,130.37 C 185.16,114 206.53,110.49 226.68,120 c 6,2.82 11.8,6.3 18,8.53 19.95,7.15 39.55,5.72 58.61,-3.5 5.53,-2.67 10.93,-5.8 16.71,-7.77 20.9,-7.14 42.47,1.33 56.1,21.58 21.27,31.61 7.6,80.4 -27,94.49 -7.32,3 -15.83,3.86 -23.84,4.12 -18.29,0.58 -36.62,0.18 -54.92,0.18 v -0.05 c -18.81,0 -37.62,0.15 -56.42,0 -26.59,-0.25 -45.7,-12.88 -55.79,-37.1 -10.56,-25.42 -6.99,-49.56 11.94,-70.11 z"
   stroke-linecap="round"
   id="path32" />
</g>
		<g
   transform="matrix(0.84,0,0,0.84,-53.08,-116.37)"
   id="g38">
<path
   style="opacity:1;fill:#0074ba;fill-rule:nonzero;stroke:none;stroke-width:1;stroke-linecap:butt;stroke-linejoin:miter;stroke-miterlimit:4;stroke-dasharray:none;stroke-dashoffset:0"
   transform="translate(-206.68,-158.02)"
   d="m 206.55,182.39 c 12.5,0 24.67,-11.53 24.88,-23.48 0.11529,-6.65604 -2.44699,-13.07961 -7.11173,-17.82897 -4.66475,-4.74935 -11.04123,-7.42667 -17.69827,-7.43103 -13.8,-0.08 -24.58,10.71 -24.69,24.72 -0.11,12.52 11.74,24.08 24.62,24.02 z"
   stroke-linecap="round"
   id="path36" />
</g>
		<g
   transform="matrix(0.84,0,0,0.84,52.35,-116.39)"
   id="g42">
<path
   style="opacity:1;fill:#0074ba;fill-rule:nonzero;stroke:none;stroke-width:1;stroke-linecap:butt;stroke-linejoin:miter;stroke-miterlimit:4;stroke-dasharray:none;stroke-dashoffset:0"
   transform="translate(-332.19,-158)"
   d="m 331.92,182.31 c 12.75,0 24.58,-11.21 24.69,-23.43 0.11,-14 -10.54,-25.11 -24.22,-25.18 -6.40384,-0.14198 -12.60036,2.27334 -17.21886,6.71168 -4.6185,4.43834 -7.27833,10.5339 -7.39114,16.93832 -0.28,13.19 11.07,24.94 24.14,24.96 z"
   stroke-linecap="round"
   id="path40" />
</g>
		<g
   transform="matrix(0.84,0,0,0.84,-49.08,-72.85)"
   id="g46">
<path
   style="opacity:1;fill:#0074ba;fill-rule:nonzero;stroke:none;stroke-width:1;stroke-linecap:butt;stroke-linejoin:miter;stroke-miterlimit:4;stroke-dasharray:none;stroke-dashoffset:0"
   transform="translate(-211.44,-209.84)"
   d="m 225.15,200.06 c -9.78,-0.22 -19.6,-0.09 -29.37,0.52 -5.61,0.34 -8.58,5.54 -6.9,10.91 1.56,5 5.22,7.66 10.34,8 4.14,0.25 8.3,0.05 12.45,0.05 v 0.1 c 4.32,0 8.65,0.2 13,-0.06 5.22,-0.31 9.6,-4.82 9.79,-9.62 0.13499,-5.29407 -4.01762,-9.70984 -9.31,-9.9 z"
   stroke-linecap="round"
   id="path44" />
</g>
		<g
   transform="matrix(0.84,0,0,0.84,48.85,-72.93)"
   id="g50">
<path
   style="opacity:1;fill:#0074ba;fill-rule:nonzero;stroke:none;stroke-width:1;stroke-linecap:butt;stroke-linejoin:miter;stroke-miterlimit:4;stroke-dasharray:none;stroke-dashoffset:0"
   transform="translate(-328.03,-209.75)"
   d="m 313.93,219.43 c 9.11389,0.40006 18.24216,0.33998 27.35,-0.18 5.44,-0.32 9.74,-5.72 9.55,-10.45 -0.19,-4.73 -4.83,-8.75 -10.8,-8.94 -4,-0.13 -8,0 -11.94,0 v 0.09 c -4.49,0 -9,-0.19 -13.44,0 -5.54,0.3 -9.29,4.09 -9.43,9.05 -0.14,5.28 3.47,10.21 8.71,10.43 z"
   stroke-linecap="round"
   id="path48" />
</g>
		<g
   transform="matrix(0.84,0,0,0.84,-0.17,-81.96)"
   id="g54">
<path
   style="opacity:1;fill:#0074ba;fill-rule:nonzero;stroke:none;stroke-width:1;stroke-linecap:butt;stroke-linejoin:miter;stroke-miterlimit:4;stroke-dasharray:none;stroke-dashoffset:0"
   transform="translate(-269.67,-198.99)"
   d="m 259.51,208.31 c 6.46139,0.45666 12.94635,0.47336 19.41,0.05 5.04492,-0.49697 8.84524,-4.81274 8.7,-9.88 -0.23,-5.24 -4.16,-8.92 -9.87,-9.13 -2.66,-0.09 -5.32,0 -8,0 v 0.12 c -3.15,0 -6.32,-0.16 -9.46,0 -4.91,0.31 -8.19,3.78 -8.56,8.71 -0.33,4.68 3.18,9.82 7.78,10.13 z"
   stroke-linecap="round"
   id="path52" />
</g>
</g>
</g></svg>
