<svg width="65" height="72" viewBox="0 0 65 72" fill="none" xmlns="http://www.w3.org/2000/svg">
<path d="M62.9765 26.5366C62.3294 25.1207 61.4533 23.8096 60.6869 22.4503L60.5302 22.5347C60.5712 22.9312 60.6435 23.3276 60.6507 23.7241C60.6929 27.4946 60.7616 31.2652 60.7447 35.0358C60.7315 37.8194 60.0615 40.4778 58.907 43.0084C58.6576 43.5579 58.3407 44.0772 58.0551 44.6111C57.8394 42.442 57.2019 40.4633 56.2933 38.5509C56.1933 38.34 56.2584 37.9701 56.3813 37.7471C60.8038 29.7035 60.9749 21.6466 56.3367 13.6463C50.6676 3.80014 39.4817 -1.49212 28.2737 0.36915C21.3097 1.51755 15.44 4.69405 10.9657 10.2396C8.03861 13.8656 6.06957 17.9423 5.49115 22.6166C4.82597 28.0044 5.94184 33.0258 8.64716 37.7098C8.81345 37.9954 8.81707 38.1918 8.68331 38.5184C8.19302 39.6765 7.76462 40.86 7.39994 42.0636C7.16736 42.8674 7.1288 43.7278 6.99022 44.6557C6.8902 44.5074 6.84562 44.4472 6.80826 44.3833C5.25014 41.7202 4.32467 38.8305 4.20778 35.7709C4.07161 32.2064 4.18368 28.6322 4.21501 25.0617C4.22224 24.2531 4.33552 23.4445 4.42107 22.4588C4.15596 22.8106 3.98485 23.0239 3.8294 23.2469C1.69647 26.2908 0.522763 29.6987 0.134739 33.3692C-0.361738 38.0689 0.456486 42.4396 3.54983 46.2029C4.94045 47.8972 6.66727 49.1517 8.62908 50.2085C9.05808 47.2224 10.5885 45.0268 13.048 43.4856L18.1959 47.8791C15.9967 48.1575 13.7951 48.0334 13.0889 47.5791C12.2912 48.5708 11.9658 49.718 11.8779 50.9616C11.8514 51.3232 11.9454 51.528 12.3418 51.5642C13.7782 51.6786 15.2158 51.9353 16.6474 51.9064C22.1533 51.7979 27.1385 49.8205 31.9876 47.426C32.3142 47.2646 32.5287 47.2573 32.8528 47.4176C36.95 49.4445 41.1941 51.0641 45.754 51.7112C48.0544 52.0377 50.3537 52.0293 52.6336 51.5304C52.7987 51.4943 53.0578 51.2966 53.0554 51.1785C53.0228 49.853 52.6722 48.6227 51.913 47.6056C50.1524 48.1792 48.4581 48.0876 46.7819 47.9213C48.4196 46.5006 50.0163 45.1051 51.6298 43.7302C51.7823 43.6417 51.9683 43.6327 52.1287 43.7061C53.8772 44.7834 55.1558 46.2596 55.8282 48.2166C56.0463 48.8504 56.1897 49.5108 56.3668 50.1711C56.4294 50.1529 56.4906 50.1304 56.55 50.1036C56.8693 49.9349 57.1947 49.7759 57.5032 49.5891C62.4077 46.6187 64.6129 42.0925 64.9624 36.5313C65.1829 33.0258 64.4225 29.6975 62.9765 26.5366ZM17.6645 11.4194C20.847 8.68394 24.5031 8.06937 28.4617 9.56724C29.0051 9.77209 29.5269 10.0336 30.0511 10.2903C31.7189 11.0976 33.3529 11.0133 35.0412 10.2746C36.3017 9.72751 37.6067 9.11294 38.9443 8.94905C43.5922 8.36822 47.1952 10.218 49.7596 14.0958C53.1602 19.2365 52.3046 28.4189 45.0599 32.2714C43.6422 33.039 42.0591 33.4505 40.447 33.4705C37.8188 33.497 35.1906 33.4777 32.5624 33.4777V33.4909C30.0318 33.4909 27.5012 33.544 24.9803 33.4801C19.9517 33.3512 15.6665 30.1554 14.0289 25.3918C12.2731 20.2825 13.5914 14.9285 17.6645 11.4194ZM23.9114 46.4463C23.7781 46.4698 23.6409 46.44 23.5294 46.3632C18.0754 42.6866 13.2926 38.3461 10.2053 32.4233C7.69879 27.6127 7.28184 22.6082 9.1111 17.4615C9.16532 17.3084 9.2316 17.1602 9.29306 17.0108C9.29306 18.2339 9.2545 19.4582 9.30029 20.6789C9.45092 24.6254 10.8994 28.1502 12.9949 31.4171C16.3691 36.6783 20.7301 40.967 25.9407 44.4038C26.3697 44.687 26.7939 44.981 27.2855 45.316C26.101 45.7149 25.0092 46.0909 23.9114 46.4463ZM32.2262 43.2554C28.2513 41.166 24.5349 38.618 21.1531 35.6636C21.1052 35.5874 21.0649 35.5066 21.0326 35.4226C24.0584 36.4951 26.9819 37.5025 29.8812 38.5798C30.6801 38.8775 31.3935 39.3993 32.1636 39.7849C32.3419 39.8753 32.6456 39.9222 32.795 39.8319C35.6112 38.1448 38.6792 37.1169 41.8244 36.2758C42.4389 36.1107 43.0366 35.8854 43.6428 35.6889L43.7633 35.8094C42.1762 37.0301 40.647 38.328 38.9949 39.445C37.0235 40.779 34.9532 41.9672 32.9131 43.1963C32.7311 43.3048 32.3985 43.3482 32.225 43.2554H32.2262ZM53.8097 34.2103C51.4274 38.0195 48.3244 41.1454 44.8008 43.8808C43.7573 44.6918 42.6727 45.4474 41.5834 46.1993C41.3594 46.3374 41.0898 46.3808 40.8338 46.3198C39.8252 46.0077 38.8335 45.6402 37.7308 45.257C38.6563 44.6171 39.4914 44.0447 40.3229 43.4651C45.0129 40.197 49.0209 36.2577 52.0721 31.399C54.5496 27.4537 55.9764 23.2047 55.6872 18.4749C55.6667 18.1544 55.6438 17.835 55.6088 17.5109C55.5775 17.2156 55.5293 16.9216 55.4883 16.6276L55.6342 16.5854C55.9402 17.6073 56.3222 18.6123 56.5415 19.6522C57.6405 24.8761 56.6247 29.7071 53.8085 34.2103H53.8097Z" fill="#0074BA"/>
<path d="M57.0178 53.3323C56.3936 53.5866 56.1912 53.9421 56.0538 54.5651C55.2753 58.0091 53.2581 60.4698 49.9683 61.7953C48.0005 62.5907 45.9362 62.5629 43.86 62.3135C43.5611 62.2885 43.2634 62.3742 43.0237 62.5545C41.7511 63.6125 40.3991 64.5356 38.859 65.1574C36.2549 66.207 33.5424 66.4588 30.7684 66.2239C27.4545 65.9431 24.4901 64.8007 21.9716 62.5931C21.6101 62.2761 21.2907 62.2231 20.8364 62.2858C18.9517 62.5485 17.0634 62.5497 15.2511 61.8893C11.5974 60.5638 9.51747 57.8621 8.7113 54.1228C8.62815 53.7384 8.45342 53.5625 8.10878 53.4239C5.39382 52.3394 3.21872 50.5499 1.41115 48.2808C1.32559 48.1723 1.22437 48.0747 1.05807 47.8952C5.80594 63.2558 19.3807 72.1888 34.3341 71.4369C50.6697 70.6223 60.7342 58.9779 63.8094 47.8687C61.9392 50.3631 59.7569 52.2164 57.0178 53.3323Z" fill="#0074BA"/>
<path d="M52.0308 56.1853C52.3164 55.7479 52.4996 55.2429 52.7768 54.673C52.5297 54.6922 52.4333 54.6898 52.3393 54.7079C49.8256 55.1984 47.3059 55.0815 44.7958 54.7151C40.5685 54.0994 36.6015 52.6666 32.8044 50.7481C32.565 50.6474 32.2959 50.6435 32.0536 50.7373C31.28 51.0639 30.5401 51.4724 29.7725 51.8134C24.2028 54.2873 18.4535 55.7045 12.1596 54.6754C13.1465 56.9951 14.6552 58.5315 17.0087 59.134C18.2559 59.457 19.5128 59.4003 20.7672 59.1641C24.2064 58.5146 27.4154 57.2289 30.5136 55.6382C31.1884 55.2911 31.85 54.6308 32.5152 54.6344C33.1804 54.638 33.8407 55.3104 34.5143 55.6527C37.7824 57.3012 41.1071 58.8087 44.7861 59.275C47.7806 59.6546 50.3076 58.8243 52.0308 56.1853Z" fill="#0074BA"/>
<path d="M30.9499 58.8017C29.2822 59.7561 27.4445 60.4153 25.6948 61.1925C27.9241 63.8629 36.7245 63.9099 39.4551 61.1925C39.2394 61.1118 39.0358 61.0431 38.8382 60.9588C37.2222 60.2622 35.5388 59.6826 34.018 58.8222C32.8985 58.1944 32.0911 58.1486 30.9499 58.8017Z" fill="#0074BA"/>
<path d="M25.6138 30.9222C27.9034 30.8475 30.1929 30.9102 32.4753 30.9102V30.8981C34.9227 30.8981 37.3702 30.9042 39.8188 30.8981C41.7026 30.915 43.5375 30.2988 45.0294 29.1484C48.495 26.4483 49.879 21.8549 48.4819 17.6897C47.3817 14.471 45.2198 12.3537 41.8433 11.6199C39.8947 11.1969 38.0486 11.5837 36.3374 12.5682C35.0171 13.3481 33.4921 13.7114 31.9619 13.6106C30.7027 13.5347 29.6013 13.0503 28.5059 12.4839C25.2788 10.8173 21.8577 11.2306 19.174 13.6154C17.3062 15.276 16.3603 17.4005 16.0265 19.8636C15.2697 25.4477 19.8573 31.1114 25.6138 30.9222ZM20.4936 15.7146C22.312 13.742 24.8871 13.319 27.3153 14.465C28.0383 14.8048 28.7372 15.2242 29.4844 15.4929C31.8884 16.3545 34.2503 16.1822 36.5471 15.0711C37.2135 14.7494 37.8642 14.3722 38.5608 14.1348C41.0793 13.2744 43.6786 14.2951 45.321 16.7353C47.8842 20.5444 46.2369 26.4238 42.0674 28.1217C41.1853 28.4832 40.1598 28.5869 39.1946 28.6182C36.9906 28.6881 34.7817 28.6399 32.5765 28.6399V28.6339C30.3098 28.6339 28.0431 28.6519 25.7777 28.6339C22.5735 28.6037 20.2706 27.0818 19.0547 24.1632C17.7822 21.0999 18.2124 18.191 20.4936 15.7146Z" fill="#0074BA"/>
<path d="M24.8895 21.9857C26.3958 21.9857 27.8623 20.5963 27.8876 19.1563C27.9015 18.3542 27.5927 17.5801 27.0306 17.0078C26.4685 16.4355 25.7001 16.1129 24.8979 16.1124C23.2349 16.1027 21.9359 17.403 21.9226 19.0912C21.9094 20.5999 23.3374 21.993 24.8895 21.9857Z" fill="#0074BA"/>
<path d="M39.9973 21.9756C41.5337 21.9756 42.9593 20.6248 42.9725 19.1522C42.9858 17.4651 41.7024 16.1263 40.0539 16.1179C39.2822 16.1008 38.5355 16.3918 37.979 16.9267C37.4224 17.4615 37.1019 18.1961 37.0883 18.9678C37.0546 20.5573 38.4223 21.9732 39.9973 21.9756Z" fill="#0074BA"/>
<path d="M27.131 24.1136C25.9525 24.0871 24.7692 24.1028 23.5918 24.1763C22.9158 24.2172 22.5579 24.8439 22.7604 25.491C22.9483 26.0935 23.3894 26.414 24.0064 26.455C24.5053 26.4851 25.0066 26.461 25.5066 26.461V26.4731C26.0272 26.4731 26.549 26.4972 27.0732 26.4659C27.7022 26.4285 28.23 25.885 28.2529 25.3066C28.2692 24.6686 27.7688 24.1365 27.131 24.1136Z" fill="#0074BA"/>
<path d="M37.8286 26.4468C38.9269 26.495 40.0269 26.4877 41.1244 26.4251C41.7799 26.3865 42.2981 25.7358 42.2752 25.1658C42.2523 24.5958 41.6932 24.1114 40.9738 24.0885C40.4917 24.0728 40.0097 24.0885 39.5349 24.0885V24.0994C38.9939 24.0994 38.4504 24.0765 37.9154 24.0994C37.2478 24.1355 36.7959 24.5922 36.779 25.1899C36.7621 25.8262 37.1972 26.4203 37.8286 26.4468Z" fill="#0074BA"/>
<path d="M31.2711 25.1084C32.0497 25.1635 32.8312 25.1655 33.6101 25.1145C34.218 25.0546 34.676 24.5345 34.6585 23.9239C34.6308 23.2924 34.1572 22.849 33.4691 22.8237C33.1486 22.8128 32.828 22.8237 32.5051 22.8237V22.8381C32.1255 22.8381 31.7435 22.8188 31.3651 22.8381C30.7734 22.8755 30.3782 23.2936 30.3336 23.8877C30.2938 24.4517 30.7168 25.0711 31.2711 25.1084Z" fill="#0074BA"/>
</svg>
