<svg width="378" height="342" viewBox="0 0 378 342" fill="none" xmlns="http://www.w3.org/2000/svg">
<path d="M365.412 177.692C361.666 168.222 356.595 159.453 352.159 150.361L351.252 150.925C351.489 153.577 351.908 156.229 351.95 158.88C352.194 184.1 352.591 209.32 352.494 234.54C352.417 253.158 348.539 270.939 341.856 287.865C340.412 291.54 338.578 295.014 336.925 298.584C335.676 284.076 331.986 270.842 326.727 258.051C326.148 256.64 326.524 254.166 327.236 252.675C352.835 198.874 353.826 144.985 326.978 91.4746C294.163 25.6179 229.414 -9.77973 164.536 2.66952C124.226 10.3507 90.2487 31.5969 64.3493 68.689C47.4062 92.9416 36.0085 120.209 32.6603 151.473C28.8099 187.51 35.2691 221.096 50.9287 252.425C51.8913 254.335 51.9123 255.649 51.138 257.833C48.3 265.58 45.8202 273.495 43.7093 281.546C42.363 286.922 42.1398 292.676 41.3376 298.883C40.7587 297.891 40.5006 297.488 40.2844 297.061C31.2653 279.249 25.9082 259.921 25.2316 239.456C24.4434 215.615 25.0921 191.709 25.2734 167.827C25.3153 162.419 25.971 157.01 26.4662 150.417C24.9316 152.771 23.9411 154.198 23.0413 155.689C10.695 176.048 3.90099 198.842 1.65493 223.393C-1.21891 254.827 3.51735 284.06 21.423 309.232C29.4726 320.564 39.4683 328.955 50.8241 336.023C53.3073 316.05 62.166 301.365 76.4027 291.056L106.201 320.443C93.4713 322.305 80.7274 321.475 76.6398 318.436C72.0222 325.07 70.1388 332.743 69.6296 341.061C69.4762 343.479 70.0202 344.849 72.3151 345.091C80.6297 345.856 88.9513 347.573 97.238 347.38C129.108 346.654 157.965 333.428 186.034 317.413C187.924 316.333 189.166 316.284 191.042 317.356C214.759 330.913 239.326 341.746 265.72 346.074C279.036 348.258 292.345 348.202 305.543 344.865C306.498 344.623 307.998 343.301 307.984 342.511C307.796 333.645 305.766 325.416 301.371 318.614C291.18 322.45 281.373 321.838 271.67 320.725C281.15 311.223 290.392 301.889 299.732 292.693C300.615 292.101 301.692 292.041 302.62 292.531C312.741 299.737 320.142 309.611 324.034 322.7C325.297 326.94 326.127 331.356 327.152 335.773C327.514 335.652 327.869 335.501 328.212 335.322C330.061 334.194 331.944 333.13 333.73 331.88C362.12 312.012 374.884 281.739 376.907 244.542C378.184 221.096 373.782 198.834 365.412 177.692ZM103.125 76.5797C121.547 58.2835 142.71 54.1729 165.624 64.1915C168.77 65.5617 171.79 67.3107 174.825 69.0275C184.479 74.4277 193.937 73.8635 203.71 68.9227C211.006 65.2635 218.56 61.1529 226.303 60.0567C253.207 56.1718 274.063 68.5439 288.906 94.481C308.591 128.865 303.638 190.282 261.703 216.05C253.496 221.184 244.332 223.936 235.001 224.07C219.788 224.247 204.575 224.118 189.361 224.118V224.207C174.713 224.207 160.065 224.561 145.472 224.134C116.364 223.272 91.5601 201.897 82.0806 170.035C71.9175 135.861 79.5485 100.05 103.125 76.5797ZM139.285 310.86C138.514 311.017 137.72 310.817 137.074 310.304C105.504 285.713 77.8187 256.681 59.9478 217.066C45.4391 184.89 43.0257 151.417 53.6142 116.993C53.9281 115.969 54.3118 114.978 54.6675 113.978C54.6675 122.159 54.4443 130.348 54.7094 138.513C55.5813 164.909 63.9656 188.485 76.0958 210.335C95.6267 245.525 120.87 274.211 151.032 297.198C153.515 299.092 155.97 301.059 158.816 303.3C151.96 305.967 145.64 308.482 139.285 310.86ZM187.415 289.517C164.407 275.542 142.895 258.5 123.319 238.739C123.042 238.229 122.808 237.689 122.621 237.127C140.136 244.3 157.059 251.038 173.841 258.244C178.466 260.235 182.595 263.725 187.052 266.304C188.085 266.909 189.843 267.223 190.708 266.618C207.009 255.334 224.768 248.459 242.974 242.833C246.531 241.729 249.991 240.222 253.5 238.908L254.197 239.714C245.011 247.879 236.159 256.56 226.596 264.031C215.184 272.954 203.2 280.901 191.391 289.122C190.338 289.847 188.413 290.138 187.408 289.517H187.415ZM312.351 229.019C298.56 254.496 280.599 275.404 260.203 293.7C254.162 299.124 247.884 304.178 241.579 309.208C240.283 310.131 238.722 310.421 237.24 310.014C231.402 307.926 225.661 305.468 219.279 302.905C224.636 298.625 229.47 294.796 234.283 290.919C261.431 269.061 284.631 242.713 302.292 210.215C316.633 183.826 324.892 155.407 323.218 123.771C323.1 121.627 322.967 119.491 322.765 117.323C322.583 115.348 322.304 113.382 322.067 111.415L322.911 111.133C324.683 117.968 326.894 124.69 328.164 131.646C334.525 166.586 328.645 198.898 312.344 229.019H312.351Z" fill="#0084D3" fill-opacity="0.3"/>
<path d="M330.92 356.918C327.307 358.619 326.135 360.996 325.34 365.163C320.834 388.199 309.157 404.657 290.115 413.523C278.724 418.843 266.775 418.658 254.757 416.989C253.026 416.822 251.303 417.396 249.916 418.601C242.55 425.678 234.723 431.852 225.809 436.011C210.735 443.031 195.034 444.716 178.976 443.144C159.794 441.266 142.635 433.625 128.056 418.859C125.964 416.739 124.115 416.385 121.486 416.804C110.576 418.561 99.6459 418.569 89.155 414.152C68.0058 405.286 55.9663 387.216 51.2998 362.205C50.8185 359.634 49.8071 358.457 47.8122 357.531C32.0967 350.277 19.5062 338.307 9.04323 323.13C8.54798 322.405 7.96205 321.752 6.99945 320.551C34.4823 423.292 113.06 483.041 199.616 478.012C294.174 472.563 352.432 394.679 370.233 320.374C359.408 337.058 346.775 349.454 330.92 356.918Z" fill="#0084D3" fill-opacity="0.3"/>
<path d="M302.053 376C303.707 373.074 304.767 369.697 306.371 365.885C304.941 366.014 304.383 365.998 303.839 366.119C289.289 369.399 274.703 368.617 260.174 366.167C235.704 362.048 212.741 352.465 190.762 339.633C189.376 338.96 187.818 338.934 186.416 339.561C181.938 341.745 177.655 344.477 173.212 346.758C140.972 363.306 107.693 372.784 71.2604 365.901C76.9732 381.416 85.7063 391.693 99.3292 395.723C106.549 397.883 113.824 397.504 121.085 395.924C140.993 391.58 159.568 382.98 177.502 372.341C181.408 370.02 185.237 365.603 189.088 365.627C192.938 365.651 196.761 370.149 200.66 372.438C219.577 383.464 238.822 393.547 260.118 396.666C277.451 399.205 292.079 393.652 302.053 376Z" fill="#0084D3" fill-opacity="0.3"/>
<path d="M149.14 207.026C162.393 206.526 175.646 206.945 188.857 206.945V206.864C203.024 206.864 217.191 206.905 231.365 206.864C242.269 206.977 252.891 202.856 261.526 195.161C281.587 177.101 289.598 146.378 281.511 118.519C275.142 96.9903 262.628 82.8289 243.083 77.9204C231.804 75.0913 221.118 77.6786 211.213 84.2636C203.57 89.4796 194.743 91.9095 185.886 91.2355C178.596 90.7277 172.221 87.4876 165.88 83.6994C147.2 72.5524 127.397 75.317 111.863 91.2677C101.052 102.374 95.5759 116.584 93.6438 133.059C89.2632 170.409 115.818 208.291 149.14 207.026ZM119.501 105.308C130.027 92.114 144.933 89.285 158.989 96.95C163.174 99.223 167.22 102.028 171.544 103.825C185.46 109.588 199.132 108.436 212.427 101.004C216.284 98.8522 220.051 96.3294 224.083 94.7416C238.661 88.9868 253.707 95.8136 263.214 112.135C278.051 137.613 268.516 176.938 244.381 188.294C239.275 190.712 233.339 191.405 227.752 191.615C214.994 192.082 202.208 191.76 189.443 191.76V191.72C176.322 191.72 163.202 191.84 150.088 191.72C131.541 191.518 118.211 181.338 111.173 161.817C103.807 141.328 106.297 121.872 119.501 105.308Z" fill="#0084D3" fill-opacity="0.3"/>
<path d="M144.947 147.252C153.666 147.252 162.155 137.959 162.301 128.327C162.382 122.962 160.594 117.785 157.341 113.957C154.087 110.129 149.639 107.971 144.995 107.967C135.369 107.903 127.85 116.6 127.773 127.892C127.697 137.983 135.962 147.3 144.947 147.252Z" fill="#0084D3" fill-opacity="0.3"/>
<path d="M232.398 147.184C241.291 147.184 249.543 138.149 249.62 128.3C249.697 117.016 242.268 108.061 232.726 108.005C228.259 107.89 223.936 109.837 220.715 113.414C217.493 116.992 215.638 121.905 215.559 127.067C215.364 137.698 223.281 147.168 232.398 147.184Z" fill="#0084D3" fill-opacity="0.3"/>
<path d="M157.922 161.485C151.1 161.307 144.25 161.412 137.435 161.904C133.522 162.178 131.451 166.369 132.622 170.697C133.711 174.727 136.264 176.871 139.835 177.145C142.723 177.347 145.624 177.186 148.519 177.186V177.266C151.533 177.266 154.553 177.427 157.587 177.218C161.228 176.968 164.284 173.333 164.416 169.464C164.51 165.197 161.614 161.638 157.922 161.485Z" fill="#0084D3" fill-opacity="0.3"/>
<path d="M219.845 177.093C226.202 177.415 232.569 177.367 238.922 176.948C242.717 176.69 245.716 172.337 245.584 168.525C245.451 164.713 242.214 161.472 238.05 161.319C235.26 161.214 232.47 161.319 229.722 161.319V161.392C226.59 161.392 223.444 161.239 220.347 161.392C216.482 161.634 213.867 164.688 213.769 168.686C213.671 172.942 216.189 176.915 219.845 177.093Z" fill="#0084D3" fill-opacity="0.3"/>
<path d="M181.887 168.139C186.394 168.508 190.917 168.521 195.426 168.18C198.945 167.779 201.596 164.301 201.494 160.216C201.334 155.993 198.593 153.027 194.61 152.858C192.754 152.785 190.899 152.858 189.029 152.858V152.954C186.832 152.954 184.621 152.825 182.431 152.954C179.006 153.204 176.718 156.001 176.46 159.975C176.23 163.747 178.678 167.89 181.887 168.139Z" fill="#0084D3" fill-opacity="0.3"/>
</svg>
