<svg width="28" height="20" viewBox="0 0 28 20" fill="none" xmlns="http://www.w3.org/2000/svg">
<path d="M0.911598 19.8212L27.0884 19.8212C27.5919 19.8212 28 19.413 28 18.9096C28 18.4061 27.5919 17.998 27.0884 17.998L0.911598 17.998C0.408137 17.998 1.18742e-07 18.4061 7.64949e-08 18.9096C3.42479e-08 19.413 0.408136 19.8212 0.911598 19.8212Z" fill="#1F1B20"/>
<path d="M0.911594 11.3129L27.0884 11.3129C27.5919 11.3129 28 10.9048 28 10.4013C28 9.89787 27.5919 9.48973 27.0884 9.48973L0.911595 9.48973C0.408133 9.48973 -3.69596e-06 9.89787 -3.7382e-06 10.4013C-3.78045e-06 10.9048 0.408133 11.3129 0.911594 11.3129Z" fill="#1F1B20"/>
<path d="M0.911598 2.80469L27.0884 2.80469C27.5919 2.80469 28 2.39655 28 1.89309C28 1.38963 27.5919 0.981492 27.0884 0.981491L0.911598 0.981489C0.408137 0.981489 1.18742e-07 1.38963 7.64949e-08 1.89309C3.42479e-08 2.39655 0.408136 2.80468 0.911598 2.80469Z" fill="#1F1B20"/>
</svg>
