<svg width="79" height="79" viewBox="0 0 79 79" fill="none" xmlns="http://www.w3.org/2000/svg">
<path d="M74.7284 50.2222H67.6841V45.5316C67.6841 43.592 66.1054 42.0119 64.1602 42.0119H40.676V36.147H57.1159C60.3524 36.147 62.9878 33.5147 62.9878 30.2821V12.6906C62.9878 9.458 60.3524 6.8257 57.1159 6.8257H39.1001C38.172 6.8257 37.2638 6.44966 36.61 5.7932L33.4891 2.67931C32.3794 1.57097 30.9064 0.960693 29.3377 0.960693H21.8904C18.654 0.960693 16.0185 3.593 16.0185 6.82561V30.2817C16.0185 33.5144 18.654 36.1467 21.8904 36.1467H38.3303V42.0116H14.8393C12.8974 42.0116 11.3155 43.5883 11.3155 45.5312V50.2219H4.27117C2.32924 50.2219 0.747314 51.7986 0.747314 53.7415V74.8526C0.747314 76.7922 2.32595 78.3723 4.27117 78.3723H20.711C22.653 78.3723 24.2349 76.7955 24.2349 74.8526V53.7415C24.2349 51.8019 22.6563 50.2219 20.711 50.2219H13.6667V45.5312C13.6667 44.8847 14.1951 44.3569 14.8424 44.3569H38.3266V50.2219H31.2823C29.3403 50.2219 27.7584 51.7986 27.7584 53.7415V74.8526C27.7584 76.7922 29.337 78.3723 31.2823 78.3723H47.7221C49.664 78.3723 51.246 76.7955 51.246 74.8526V53.7415C51.246 51.8019 49.6673 50.2219 47.7221 50.2219H40.6778V44.3569H64.162C64.8093 44.3569 65.3377 44.8814 65.3377 45.5312V50.2219H58.2933C56.3514 50.2219 54.7695 51.7986 54.7695 53.7415V74.8526C54.7695 76.7922 56.3481 78.3723 58.2933 78.3723H74.7332C76.6751 78.3723 78.2571 76.7955 78.2571 74.8526V53.7415C78.2571 51.8019 76.6784 50.2219 74.7332 50.2219L74.7284 50.2222ZM21.8875 33.802C19.9456 33.802 18.3636 32.2252 18.3636 30.2823V6.8262C18.3636 4.8866 19.9423 3.30656 21.8875 3.30656H29.3348C30.2628 3.30656 31.171 3.6826 31.8249 4.33906L34.9458 7.45295C36.0554 8.56128 37.5284 9.17156 39.0971 9.17156H57.1129C59.0548 9.17156 60.6368 10.7483 60.6368 12.6912V30.2827C60.6368 32.2223 59.0581 33.8023 57.1129 33.8023H21.8845L21.8875 33.802ZM20.7118 52.5681C21.3591 52.5681 21.8875 53.0925 21.8875 53.7424V74.8535C21.8875 75.5 21.3591 76.0277 20.7118 76.0277L4.27193 76.0244C3.62463 76.0244 3.09624 75.5 3.09624 74.8502V53.7391C3.09624 53.0925 3.62465 52.5648 4.27193 52.5648H20.7118V52.5681ZM47.7198 52.5681C48.3671 52.5681 48.8955 53.0925 48.8955 53.7424V74.8535C48.8955 75.5 48.3671 76.0277 47.7198 76.0277H31.28C30.6327 76.0277 30.1043 75.5033 30.1043 74.8535V53.7424C30.1043 53.0958 30.6327 52.5681 31.28 52.5681H47.7198ZM75.9005 74.8538C75.9005 75.5003 75.3721 76.0281 74.7248 76.0281H58.285C57.6377 76.0281 57.1093 75.5036 57.1093 74.8538V53.7427C57.1093 53.0962 57.6377 52.5684 58.285 52.5684H74.7248C75.3721 52.5684 75.9005 53.0929 75.9005 53.7427V74.8538Z" fill="#0074BA"/>
<path d="M6.61941 58.4328H12.4914C13.1386 58.4328 13.667 57.9083 13.667 57.2585C13.667 56.6087 13.1419 56.0842 12.4914 56.0842H6.61941C5.97212 56.0842 5.44373 56.6087 5.44373 57.2585C5.44373 57.9083 5.96883 58.4328 6.61941 58.4328Z" fill="#0074BA"/>
<path d="M7.79547 61.9524C7.79547 62.6022 8.32057 63.1266 8.97116 63.1266H18.3633C19.0106 63.1266 19.539 62.6022 19.539 61.9524C19.539 61.3026 19.0139 60.7781 18.3633 60.7781H8.97116C8.32386 60.7781 7.79547 61.3026 7.79547 61.9524Z" fill="#0074BA"/>
<path d="M18.3636 65.4686H8.97147C8.32417 65.4686 7.79578 65.9931 7.79578 66.6429C7.79578 67.2927 8.32088 67.8172 8.97147 67.8172H18.3636C19.0109 67.8172 19.5393 67.2927 19.5393 66.6429C19.5393 65.9931 19.0142 65.4686 18.3636 65.4686Z" fill="#0074BA"/>
<path d="M6.61941 72.508H12.4914C13.1386 72.508 13.667 71.9835 13.667 71.3337C13.667 70.6839 13.1419 70.1594 12.4914 70.1594H6.61941C5.97212 70.1594 5.44373 70.6839 5.44373 71.3337C5.44373 71.9835 5.96883 72.508 6.61941 72.508Z" fill="#0074BA"/>
<path d="M33.6283 58.4328H39.5003C40.1476 58.4328 40.676 57.9083 40.676 57.2585C40.676 56.6087 40.1508 56.0842 39.5003 56.0842H33.6283C32.981 56.0842 32.4526 56.6087 32.4526 57.2585C32.4526 57.9083 32.9777 58.4328 33.6283 58.4328Z" fill="#0074BA"/>
<path d="M34.8035 61.9524C34.8035 62.6022 35.3286 63.1266 35.9792 63.1266H45.3713C46.0186 63.1266 46.547 62.6022 46.547 61.9524C46.547 61.3026 46.0219 60.7781 45.3713 60.7781H35.9792C35.3319 60.7781 34.8035 61.3026 34.8035 61.9524Z" fill="#0074BA"/>
<path d="M45.3717 65.4686H35.9795C35.3322 65.4686 34.8038 65.9931 34.8038 66.6429C34.8038 67.2927 35.3289 67.8172 35.9795 67.8172H45.3717C46.019 67.8172 46.5474 67.2927 46.5474 66.6429C46.5474 65.9931 46.0223 65.4686 45.3717 65.4686Z" fill="#0074BA"/>
<path d="M33.6283 72.508H39.5003C40.1476 72.508 40.676 71.9835 40.676 71.3337C40.676 70.6839 40.1508 70.1594 39.5003 70.1594H33.6283C32.981 70.1594 32.4526 70.6839 32.4526 71.3337C32.4526 71.9835 32.9777 72.508 33.6283 72.508Z" fill="#0074BA"/>
<path d="M60.6364 58.4328H66.5083C67.1556 58.4328 67.684 57.9083 67.684 57.2585C67.684 56.6087 67.1589 56.0842 66.5083 56.0842H60.6364C59.9891 56.0842 59.4607 56.6087 59.4607 57.2585C59.4607 57.9083 59.9858 58.4328 60.6364 58.4328Z" fill="#0074BA"/>
<path d="M72.3806 60.7777H62.9884C62.3411 60.7777 61.8127 61.3022 61.8127 61.952C61.8127 62.6018 62.3378 63.1263 62.9884 63.1263H72.3806C73.0279 63.1263 73.5563 62.6018 73.5563 61.952C73.5563 61.3022 73.0312 60.7777 72.3806 60.7777Z" fill="#0074BA"/>
<path d="M72.3806 65.4686H62.9884C62.3411 65.4686 61.8127 65.9931 61.8127 66.6429C61.8127 67.2927 62.3378 67.8172 62.9884 67.8172H72.3806C73.0279 67.8172 73.5563 67.2927 73.5563 66.6429C73.5563 65.9931 73.0312 65.4686 72.3806 65.4686Z" fill="#0074BA"/>
<path d="M66.508 70.1587H60.6361C59.9888 70.1587 59.4604 70.6832 59.4604 71.333C59.4604 71.9828 59.9855 72.5073 60.6361 72.5073H66.508C67.1553 72.5073 67.6837 71.9828 67.6837 71.333C67.6837 70.6832 67.1586 70.1587 66.508 70.1587Z" fill="#0074BA"/>
<path d="M40.676 11.5197C40.0287 11.5197 39.5003 12.0441 39.5003 12.6939V13.8682C39.5003 14.518 40.0254 15.0425 40.676 15.0425C41.3233 15.0425 41.8517 14.518 41.8517 13.8682V12.6939C41.8517 12.0441 41.3266 11.5197 40.676 11.5197Z" fill="#0074BA"/>
<path d="M45.3717 11.5197C44.7244 11.5197 44.196 12.0441 44.196 12.6939V13.8682C44.196 14.518 44.7211 15.0425 45.3717 15.0425C46.019 15.0425 46.5474 14.518 46.5474 13.8682V12.6939C46.5474 12.0441 46.0223 11.5197 45.3717 11.5197Z" fill="#0074BA"/>
<path d="M50.0681 11.5197C49.4208 11.5197 48.8925 12.0441 48.8925 12.6939V13.8682C48.8925 14.518 49.4176 15.0425 50.0681 15.0425C50.7154 15.0425 51.2438 14.518 51.2438 13.8682V12.6939C51.2438 12.0441 50.7187 11.5197 50.0681 11.5197Z" fill="#0074BA"/>
<path d="M54.7647 11.5197C54.1174 11.5197 53.589 12.0441 53.589 12.6939V13.8682C53.589 14.518 54.1141 15.0425 54.7647 15.0425C55.412 15.0425 55.9404 14.518 55.9404 13.8682V12.6939C55.9404 12.0441 55.4153 11.5197 54.7647 11.5197Z" fill="#0074BA"/>
</svg>
