<svg width="59" height="61" viewBox="0 0 59 61" fill="none" xmlns="http://www.w3.org/2000/svg">
<path d="M25.49 54.44L23.88 53.94C9.50001 49.54 2.21001 41.15 2.21001 29V10.49L25.2 2.45997L48.2 10.49V29C48.2 30.49 48.09 31.97 47.86 33.4C47.86 33.45 47.85 33.5 47.85 33.56C47.85 34.12 48.3 34.56 48.85 34.56C49.36 34.56 49.77 34.18 49.84 33.69C50.08 32.17 50.2 30.59 50.2 29V9.77997C50.2 9.35997 49.93 8.97997 49.53 8.83997L25.53 0.459971C25.32 0.389971 25.08 0.389971 24.87 0.459971L0.870012 8.83997C0.470012 8.97997 0.200012 9.35997 0.200012 9.77997V29C0.200012 42.14 7.97001 51.17 23.28 55.86L24.89 56.36C24.99 56.39 25.09 56.4 25.19 56.4C25.62 56.4 26.01 56.13 26.14 55.7C26.3 55.17 26.01 54.61 25.48 54.45L25.49 54.44Z" fill="#0074BA"/>
<path d="M42.09 31.3002C42.03 31.8502 42.43 32.3402 42.98 32.4002C43.54 32.4502 44.02 32.0602 44.08 31.5102C44.16 30.7002 44.21 29.8402 44.21 28.9702V13.8002C44.21 13.3802 43.94 13.0002 43.54 12.8602L25.54 6.47016C25.32 6.39016 25.09 6.39016 24.87 6.47016L6.87001 12.8602C6.47001 13.0002 6.20001 13.3802 6.20001 13.8002V28.9702C6.20001 39.6002 12.14 46.3902 24.9 50.3702C25 50.4002 25.1 50.4102 25.2 50.4102C25.3 50.4102 25.4 50.4002 25.5 50.3702C26.49 50.0602 27.45 49.7302 28.45 49.3602C28.97 49.1702 29.23 48.5902 29.04 48.0702C28.85 47.5502 28.27 47.2902 27.75 47.4802C26.89 47.8002 26.05 48.0902 25.2 48.3602C13.6 44.6802 8.20001 38.5102 8.20001 28.9702V14.5102L25.2 8.48016L42.2 14.5102V28.9702C42.2 29.7802 42.16 30.5702 42.09 31.3102V31.3002Z" fill="#0074BA"/>
<path d="M35.45 18.7401L22.11 33.9901L14.86 27.6501C14.44 27.2901 13.81 27.3301 13.45 27.7401C13.09 28.1601 13.13 28.7901 13.54 29.1501L21.54 36.1501C21.73 36.3201 21.96 36.4001 22.2 36.4001C22.48 36.4001 22.76 36.2801 22.95 36.0601L36.95 20.0601C37.31 19.6401 37.27 19.0101 36.86 18.6501C36.44 18.2901 35.81 18.3301 35.45 18.7401Z" fill="#0074BA"/>
<path d="M57.47 52.8102L47.76 36.9102C46.8 35.3402 45.1 34.4102 43.2 34.4102C41.3 34.4102 39.6 35.3502 38.64 36.9102L28.93 52.8102C28 54.3402 27.96 56.1802 28.84 57.7402C29.76 59.3802 31.55 60.4102 33.5 60.4102H52.92C54.87 60.4102 56.65 59.3902 57.58 57.7402C58.45 56.1802 58.42 54.3402 57.49 52.8102H57.47ZM55.82 56.7602C55.24 57.7902 54.15 58.4002 52.91 58.4002H33.49C32.24 58.4002 31.16 57.7902 30.58 56.7602C30.06 55.8302 30.08 54.7702 30.64 53.8502L40.35 37.9502C40.94 36.9802 42.01 36.4002 43.2 36.4002C44.39 36.4002 45.46 36.9802 46.05 37.9502L55.76 53.8502C56.32 54.7702 56.34 55.8302 55.82 56.7602Z" fill="#0074BA"/>
<path d="M43.2 40.3999C42.65 40.3999 42.2 40.8499 42.2 41.3999V49.3999C42.2 49.9499 42.65 50.3999 43.2 50.3999C43.75 50.3999 44.2 49.9499 44.2 49.3999V41.3999C44.2 40.8499 43.75 40.3999 43.2 40.3999Z" fill="#0074BA"/>
<path d="M43.2 52.3999C42.65 52.3999 42.2 52.8499 42.2 53.3999V54.3999C42.2 54.9499 42.65 55.3999 43.2 55.3999C43.75 55.3999 44.2 54.9499 44.2 54.3999V53.3999C44.2 52.8499 43.75 52.3999 43.2 52.3999Z" fill="#0074BA"/>
</svg>
