<svg width="67" height="70" viewBox="0 0 67 70" fill="none" xmlns="http://www.w3.org/2000/svg">
<path fill-rule="evenodd" clip-rule="evenodd" d="M11.8846 39.1103H6.92576V44.441H11.8846V39.1103ZM28.89 39.1103H23.9312V44.441H28.89V39.1103ZM23.1381 37.5274H29.6831C29.8935 37.5274 30.0953 37.6108 30.2442 37.7591C30.3931 37.9074 30.4768 38.1086 30.477 38.3185V45.2305C30.4768 45.4404 30.3931 45.6416 30.2442 45.7899C30.0953 45.9382 29.8935 46.0215 29.6831 46.0215H23.1381C22.9277 46.0215 22.7259 45.9382 22.577 45.7899C22.4282 45.6416 22.3444 45.4404 22.3442 45.2305V38.3185C22.3444 38.1086 22.4282 37.9074 22.577 37.7591C22.7259 37.6108 22.9277 37.5274 23.1381 37.5274ZM45.897 39.1103H40.9382V44.441H45.897V39.1103ZM28.8916 21.5231H23.9328V26.8538H28.8916V21.5269V21.5231ZM23.1397 19.9402H29.6847C29.8951 19.9405 30.0969 20.0239 30.2458 20.1724C30.3946 20.3208 30.4783 20.5221 30.4785 20.7321V27.6441C30.4783 27.854 30.3946 28.0553 30.2458 28.2037C30.0969 28.3522 29.8951 28.4357 29.6847 28.4359H23.1397C22.9292 28.4357 22.7274 28.3522 22.5785 28.2037C22.4297 28.0553 22.346 27.854 22.3458 27.6441V20.7321C22.346 20.5221 22.4297 20.3208 22.5785 20.1724C22.7274 20.0239 22.9292 19.9405 23.1397 19.9402ZM28.8916 52.5726H23.9328V57.9033H28.8916V52.5764V52.5726ZM23.1381 50.9905H29.6831C29.8937 50.9905 30.0956 51.0739 30.2445 51.2224C30.3933 51.3709 30.477 51.5723 30.477 51.7823V58.6943C30.4768 58.9042 30.3931 59.1054 30.2442 59.2537C30.0953 59.402 29.8935 59.4853 29.6831 59.4853H23.1381C22.9277 59.4853 22.7259 59.402 22.577 59.2537C22.4282 59.1054 22.3444 58.9042 22.3442 58.6943V51.7823C22.3442 51.5723 22.4279 51.3709 22.5768 51.2224C22.7256 51.0739 22.9276 50.9905 23.1381 50.9905ZM14.3455 52.8452C14.2004 52.6975 14.1192 52.4989 14.1193 52.292C14.1195 52.0852 14.201 51.8867 14.3464 51.7392C14.4917 51.5917 14.6893 51.507 14.8966 51.5033C15.104 51.4996 15.3045 51.5771 15.4551 51.7193L18.4211 54.6377C18.5082 54.7114 18.5784 54.8029 18.6267 54.9061C18.6751 55.0093 18.7006 55.1217 18.7014 55.2356C18.7022 55.3495 18.6783 55.4622 18.6314 55.5661C18.5845 55.6699 18.5156 55.7625 18.4296 55.8373L15.5036 58.7949C15.4307 58.8688 15.344 58.9276 15.2483 58.9681C15.1527 59.0085 15.05 59.0298 14.9461 59.0306C14.8422 59.0315 14.7391 59.0119 14.6428 58.973C14.5465 58.9342 14.4588 58.8768 14.3848 58.8041C14.3107 58.7314 14.2517 58.6449 14.2111 58.5495C14.1706 58.4541 14.1493 58.3517 14.1484 58.2481C14.1476 58.1445 14.1672 58.0417 14.2061 57.9456C14.2451 57.8496 14.3027 57.7621 14.3755 57.6882L16.0125 56.0324H9.40516C9.30101 56.0324 9.19788 56.0119 9.10166 55.9722C9.00543 55.9324 8.918 55.8742 8.84436 55.8007C8.77071 55.7273 8.71229 55.6401 8.67244 55.5441C8.63258 55.4481 8.61206 55.3452 8.61206 55.2414V46.0254H6.13266C5.92225 46.0254 5.72044 45.942 5.57159 45.7937C5.42273 45.6454 5.339 45.4442 5.33879 45.2343V38.3223C5.339 38.1125 5.42273 37.9113 5.57159 37.7629C5.72044 37.6146 5.92225 37.5313 6.13266 37.5313H8.61206V33.0193C8.61196 32.9153 8.6324 32.8124 8.67221 32.7163C8.71203 32.6203 8.77043 32.533 8.84409 32.4594C8.91774 32.3859 9.00521 32.3276 9.10148 32.2878C9.19775 32.248 9.30095 32.2275 9.40516 32.2275H25.6175V30.3351C25.6239 30.1295 25.7104 29.9344 25.8585 29.7912C26.0066 29.648 26.2047 29.568 26.411 29.568C26.6173 29.568 26.8154 29.648 26.9635 29.7912C27.1116 29.9344 27.1981 30.1295 27.2045 30.3351V32.2298H43.4161C43.6262 32.2298 43.8278 32.3129 43.9766 32.4609C44.1254 32.6089 44.2093 32.8097 44.2099 33.0193V37.5274H46.6886C46.899 37.5274 47.1008 37.6108 47.2496 37.7591C47.3985 37.9074 47.4822 38.1086 47.4824 38.3185V45.2305C47.4822 45.4404 47.3985 45.6416 47.2496 45.7899C47.1008 45.9382 46.899 46.0215 46.6886 46.0215H40.1436C39.9335 46.0209 39.7323 45.9373 39.584 45.7891C39.4356 45.6408 39.3522 45.44 39.352 45.2305V38.3185C39.3522 38.1086 39.4359 37.9074 39.5848 37.7591C39.7337 37.6108 39.9355 37.5274 40.1459 37.5274H42.6245V33.8126H27.2045V35.2465C27.2078 35.3525 27.1897 35.4581 27.1513 35.557C27.1129 35.6559 27.055 35.7461 26.981 35.8222C26.907 35.8984 26.8184 35.9589 26.7205 36.0003C26.6226 36.0416 26.5173 36.063 26.411 36.063C26.3047 36.063 26.1994 36.0416 26.1015 36.0003C26.0036 35.9589 25.915 35.8984 25.841 35.8222C25.767 35.7461 25.709 35.6559 25.6707 35.557C25.6323 35.4581 25.6142 35.3525 25.6175 35.2465V33.8126H10.199V37.5274H12.6777C12.7819 37.5273 12.8851 37.5477 12.9814 37.5874C13.0777 37.6271 13.1652 37.6854 13.239 37.7589C13.3127 37.8323 13.3712 37.9196 13.4111 38.0156C13.451 38.1116 13.4715 38.2145 13.4715 38.3185V45.2305C13.4715 45.3344 13.451 45.4374 13.4111 45.5334C13.3712 45.6294 13.3127 45.7166 13.239 45.7901C13.1652 45.8636 13.0777 45.9218 12.9814 45.9615C12.8851 46.0012 12.7819 46.0216 12.6777 46.0215H10.199V54.4503H15.974L14.3424 52.8452H14.3455ZM53.2836 47.5053H50.7572V48.7894C50.7571 48.9613 50.7009 49.1286 50.5969 49.2658C50.493 49.403 50.3471 49.5026 50.1813 49.5497C49.9391 49.6187 49.701 49.7016 49.4683 49.7978C49.2533 49.8864 49.043 49.9861 48.8384 50.0965C48.6855 50.1975 48.5023 50.2427 48.3199 50.2244C48.1375 50.206 47.967 50.1253 47.8374 49.9959L46.9257 49.0874L45.1393 50.8691L46.051 51.7777C46.1724 51.8991 46.2509 52.0567 46.2747 52.2265C46.2984 52.3964 46.2661 52.5693 46.1827 52.7193C46.06 52.9402 45.9499 53.1679 45.8531 53.4012C45.7612 53.6228 45.6816 53.8492 45.6144 54.0794C45.573 54.2521 45.4745 54.4059 45.3349 54.5161C45.1952 54.6263 45.0225 54.6864 44.8444 54.6869H43.5547V57.2113H44.8429C45.0152 57.2115 45.1828 57.2677 45.3204 57.3713C45.4579 57.475 45.5579 57.6204 45.6052 57.7857C45.6745 58.0272 45.7572 58.2647 45.8531 58.4969C45.9421 58.7117 46.0423 58.9216 46.1534 59.1259C46.2547 59.2784 46.2999 59.4611 46.2816 59.6431C46.2632 59.825 46.1823 59.9951 46.0525 60.1243L45.1409 61.0282L46.9273 62.81L47.8389 61.9015C47.9606 61.7802 48.1185 61.7017 48.2889 61.678C48.4592 61.6543 48.6327 61.6866 48.783 61.7701C49.0045 61.8922 49.2328 62.0017 49.4667 62.0981C49.6887 62.1902 49.9157 62.2696 50.1466 62.3361C50.3197 62.3776 50.4739 62.4759 50.5843 62.6151C50.6947 62.7544 50.7551 62.9266 50.7557 63.1041V64.3921H53.2821V63.108C53.2819 62.936 53.3381 62.7686 53.4421 62.6314C53.546 62.4941 53.6921 62.3945 53.858 62.3477C54.1003 62.2786 54.3383 62.1958 54.5711 62.0996C54.7861 62.011 54.9963 61.9113 55.2009 61.8009C55.3537 61.6996 55.5369 61.6542 55.7195 61.6726C55.902 61.6909 56.0725 61.7718 56.2019 61.9015L57.1136 62.81L58.9 61.0282L57.986 60.1197C57.8647 59.9984 57.7862 59.841 57.7624 59.6713C57.7387 59.5015 57.7709 59.3287 57.8543 59.1789C58.0939 58.748 58.2845 58.2918 58.4226 57.8188C58.4639 57.6459 58.5623 57.4919 58.702 57.3816C58.8416 57.2713 59.0144 57.211 59.1926 57.2105H60.4808V54.6884H59.198C59.0256 54.6882 58.858 54.632 58.7205 54.5284C58.583 54.4247 58.483 54.2793 58.4357 54.1139C58.3665 53.8724 58.2837 53.635 58.1877 53.4028C58.0985 53.1881 57.9982 52.9782 57.8874 52.7738C57.7862 52.6213 57.7409 52.4386 57.7593 52.2566C57.7777 52.0747 57.8586 51.9046 57.9883 51.7754L58.9 50.8668L57.1136 49.0851L56.2019 49.9936C56.0803 50.1149 55.9223 50.1934 55.752 50.2171C55.5816 50.2408 55.4082 50.2084 55.2579 50.1249C55.0363 50.003 54.808 49.8935 54.5741 49.797C54.3521 49.705 54.1251 49.6256 53.8942 49.5589C53.7211 49.5175 53.567 49.4192 53.4566 49.28C53.3461 49.1407 53.2858 48.9685 53.2852 48.7909V47.5053H53.2836ZM53.8473 54.127C54.2698 54.5486 54.5327 55.1033 54.5912 55.6965C54.6497 56.2898 54.5002 56.8849 54.168 57.3805C53.8359 57.8761 53.3417 58.2416 52.7698 58.4145C52.1978 58.5875 51.5834 58.5572 51.0313 58.329C50.4791 58.1008 50.0234 57.6887 49.7418 57.1629C49.4601 56.6371 49.37 56.0302 49.4867 55.4455C49.6034 54.8609 49.9197 54.3347 50.3818 53.9566C50.8439 53.5785 51.4231 53.3719 52.0208 53.3721C52.3601 53.3716 52.6961 53.4381 53.0096 53.5677C53.323 53.6972 53.6077 53.8873 53.8473 54.127ZM52.0208 51.7892C52.9858 51.7892 53.921 52.123 54.6669 52.7337C55.4129 53.3443 55.9235 54.1941 56.1117 55.1381C56.2999 56.0821 56.154 57.0621 55.6991 57.9109C55.2441 58.7597 54.5081 59.4249 53.6165 59.7932C52.7249 60.1614 51.7328 60.2099 50.8094 59.9304C49.886 59.6509 49.0883 59.0607 48.5522 58.2603C48.0162 57.46 47.775 56.499 47.8697 55.5411C47.9644 54.5832 48.3892 53.6878 49.0717 53.0073C49.4586 52.6205 49.9183 52.3138 50.4244 52.1047C50.9305 51.8957 51.473 51.7885 52.0208 51.7892ZM50.1112 11.6635L41.9916 3.54268V11.2995C41.9913 11.3471 42.0005 11.3942 42.0186 11.4382C42.0367 11.4823 42.0634 11.5223 42.0971 11.556C42.1302 11.589 42.1696 11.6152 42.213 11.633C42.2563 11.6508 42.3027 11.6598 42.3496 11.6597L50.1112 11.6635ZM51.2269 13.2464V45.9217H50.4569C50.1147 45.9217 49.7864 46.0573 49.5444 46.2987C49.3024 46.5401 49.1664 46.8675 49.1664 47.2089V48.2165C49.0625 48.2549 48.9593 48.2933 48.8584 48.3378C48.7576 48.3824 48.6551 48.4246 48.5504 48.4714L47.8351 47.758C47.5929 47.517 47.2647 47.3817 46.9226 47.3817C46.5805 47.3817 46.2524 47.517 46.0102 47.758L43.8049 49.9583C43.6851 50.0772 43.5901 50.2185 43.5252 50.3742C43.4603 50.5298 43.4269 50.6967 43.4268 50.8653C43.4267 51.1739 43.5377 51.4723 43.7395 51.7063C43.759 51.7304 43.7798 51.7535 43.8018 51.7754L44.5172 52.4889C44.4694 52.5902 44.4248 52.6916 44.3824 52.7961C44.3401 52.9005 44.2993 53.0019 44.2608 53.1033H43.2582C42.9162 53.1047 42.5887 53.2411 42.3473 53.4828C42.1058 53.7244 41.9702 54.0516 41.97 54.3927V57.5047C41.9708 57.8458 42.107 58.1727 42.3489 58.4139C42.5907 58.6551 42.9185 58.791 43.2605 58.7918H44.2715C44.3093 58.8955 44.3485 58.9984 44.3924 59.099C44.4363 59.1996 44.4794 59.3026 44.5272 59.4062L43.8118 60.1197C43.6919 60.2392 43.5968 60.381 43.5319 60.5372C43.467 60.6934 43.4336 60.8607 43.4336 61.0298C43.4336 61.1988 43.467 61.3662 43.5319 61.5224C43.5968 61.6785 43.6919 61.8204 43.8118 61.9399L46.0171 64.1402C46.1365 64.2594 46.2782 64.354 46.4343 64.4186C46.5903 64.4832 46.7576 64.5164 46.9265 64.5165C47.0957 64.5173 47.2635 64.4848 47.4201 64.4207C47.5767 64.3567 47.719 64.2624 47.8389 64.1433L48.5543 63.4298C48.6559 63.4766 48.7576 63.5212 48.8623 63.5634C48.967 63.6056 49.0679 63.6464 49.1703 63.6848V64.6924C49.1703 64.8614 49.2037 65.0288 49.2685 65.185C49.3334 65.3411 49.4284 65.483 49.5483 65.6025C49.6681 65.7221 49.8104 65.8169 49.9669 65.8816C50.1235 65.9462 50.2913 65.9795 50.4608 65.9795H51.2308V67.1492C51.231 67.2401 51.2132 67.3302 51.1785 67.4143C51.1437 67.4984 51.0927 67.5748 51.0283 67.6392C50.8995 67.7672 50.725 67.839 50.5432 67.8389H2.28189C2.10007 67.839 1.92562 67.7672 1.79679 67.6392C1.73238 67.5748 1.68134 67.4984 1.64658 67.4143C1.61183 67.3302 1.59406 67.2401 1.59428 67.1492V3.11337C1.59406 3.02242 1.61183 2.93233 1.64658 2.84825C1.68134 2.76417 1.73238 2.68775 1.79679 2.62338C1.86048 2.55988 1.93613 2.50954 2.01937 2.47528C2.10262 2.44101 2.19184 2.42348 2.28189 2.4237H40.4046V11.3033C40.4066 11.8175 40.6121 12.3101 40.9763 12.6739C41.3406 13.0378 41.8341 13.2435 42.3496 13.2464H51.2269ZM41.8006 1.11657L52.5806 11.8985C52.7285 12.046 52.8116 12.246 52.8116 12.4546V45.9217H53.5816C53.9239 45.9217 54.2521 46.0573 54.4941 46.2987C54.7362 46.5401 54.8721 46.8675 54.8721 47.2089V48.2165C54.9761 48.2549 55.0793 48.2933 55.1801 48.337C55.281 48.3808 55.3842 48.4246 55.4881 48.4714L56.2035 47.758C56.2258 47.7354 56.2498 47.7143 56.2751 47.695C56.5206 47.4825 56.8378 47.3708 57.1626 47.3825C57.4875 47.3942 57.7958 47.5284 58.0253 47.758L60.2306 49.9583C60.2525 49.98 60.2731 50.0031 60.2922 50.0274C60.4947 50.2609 60.6058 50.5596 60.6048 50.8684C60.605 51.0374 60.5718 51.2048 60.5071 51.3609C60.4423 51.5171 60.3473 51.659 60.2275 51.7784L59.5121 52.4919C59.5599 52.5925 59.6045 52.6939 59.6469 52.7991C59.6892 52.9043 59.7301 53.0042 59.7678 53.1063H60.7788C61.1208 53.1071 61.4486 53.243 61.6904 53.4842C61.9323 53.7254 62.0685 54.0524 62.0693 54.3935V57.5054C62.0685 57.8466 61.9323 58.1735 61.6904 58.4147C61.4486 58.6559 61.1208 58.7918 60.7788 58.7926H59.7724C59.7339 58.8955 59.6954 58.9984 59.6507 59.0998C59.6061 59.2012 59.5637 59.3025 59.516 59.407L60.2313 60.1205C60.3509 60.2398 60.4458 60.3814 60.5106 60.5373C60.5753 60.6932 60.6086 60.8603 60.6086 61.029C60.6086 61.1977 60.5753 61.3648 60.5106 61.5207C60.4458 61.6766 60.3509 61.8182 60.2313 61.9376L58.026 64.1386C57.7838 64.3796 57.4557 64.5149 57.1136 64.5149C56.7715 64.5149 56.4434 64.3796 56.2011 64.1386L55.4858 63.4252C55.3831 63.4723 55.2805 63.5168 55.1778 63.5588C55.0746 63.6018 54.9715 63.6417 54.8698 63.6801V64.6878C54.8698 65.0291 54.7338 65.3565 54.4918 65.5979C54.2498 65.8393 53.9216 65.9749 53.5793 65.9749H52.8093V67.1492C52.8075 67.75 52.568 68.3257 52.143 68.7514C51.7179 69.1771 51.1416 69.4182 50.5393 69.4225H2.28189C1.67838 69.4201 1.10031 69.1797 0.673767 68.7538C0.247228 68.328 0.00682944 67.7512 0.00500488 67.1492V3.11337C0.00703097 2.51148 0.247494 1.93478 0.67399 1.50896C1.10049 1.08314 1.67844 0.842719 2.28189 0.840088H41.2C41.3145 0.840062 41.4277 0.864759 41.5318 0.912483C41.6359 0.960207 41.7284 1.02983 41.8029 1.11657H41.8006ZM57.8805 44.8304C57.952 45.0271 57.9422 45.2441 57.8532 45.4337C57.7643 45.6232 57.6035 45.7698 57.4062 45.841C57.2089 45.9123 56.9913 45.9025 56.8013 45.8138C56.6113 45.7251 56.4644 45.5647 56.3929 45.368L55.4165 42.6884C55.3811 42.5909 55.3652 42.4874 55.3699 42.3839C55.3745 42.2803 55.3996 42.1786 55.4436 42.0847C55.4877 41.9908 55.5498 41.9064 55.6266 41.8365C55.7033 41.7665 55.7931 41.7123 55.8908 41.6769L58.5781 40.7031C58.7748 40.6348 58.9905 40.6466 59.1785 40.7358C59.3666 40.8251 59.5118 40.9846 59.5827 41.1799C59.6536 41.3752 59.6445 41.5905 59.5573 41.7791C59.4702 41.9677 59.312 42.1145 59.1171 42.1877L58.4103 42.4434C61.0651 43.6946 63.2927 45.6965 64.816 48.2002C66.3393 50.704 67.0911 53.5991 66.978 56.5256C66.8648 59.4521 65.8917 62.2808 64.1796 64.6601C62.4675 67.0395 60.092 68.8643 57.3484 69.9079C57.2512 69.9448 57.1475 69.9623 57.0435 69.9593C56.9394 69.9564 56.837 69.933 56.742 69.8905C56.647 69.848 56.5613 69.7873 56.4899 69.7118C56.4184 69.6363 56.3626 69.5475 56.3255 69.4505C56.2884 69.3535 56.2709 69.2501 56.2739 69.1464C56.2769 69.0426 56.3003 68.9404 56.3429 68.8457C56.3855 68.7509 56.4464 68.6655 56.522 68.5942C56.5977 68.5229 56.6868 68.4672 56.784 68.4302C59.2578 67.4876 61.396 65.8349 62.9286 63.6808C64.4612 61.5268 65.3194 58.9681 65.3949 56.3279C65.4704 53.6877 64.7597 51.0844 63.3526 48.8468C61.9456 46.6092 59.9053 44.8376 57.4894 43.7559L57.8805 44.8304ZM7.87363 11.0422H16.1504C16.3565 11.0358 16.5521 10.9496 16.6957 10.8019C16.8392 10.6542 16.9195 10.4565 16.9195 10.2508C16.9195 10.045 16.8392 9.84739 16.6957 9.69967C16.5521 9.55195 16.3565 9.46576 16.1504 9.45935H7.87363C7.66747 9.46576 7.4719 9.55195 7.32833 9.69967C7.18477 9.84739 7.10449 10.045 7.10449 10.2508C7.10449 10.4565 7.18477 10.6542 7.32833 10.8019C7.4719 10.9496 7.66747 11.0358 7.87363 11.0422ZM7.87363 15.3868H16.1504C16.3565 15.3804 16.5521 15.2942 16.6957 15.1465C16.8392 14.9987 16.9195 14.8011 16.9195 14.5954C16.9195 14.3896 16.8392 14.192 16.6957 14.0442C16.5521 13.8965 16.3565 13.8103 16.1504 13.8039H7.87363C7.66747 13.8103 7.4719 13.8965 7.32833 14.0442C7.18477 14.192 7.10449 14.3896 7.10449 14.5954C7.10449 14.8011 7.18477 14.9987 7.32833 15.1465C7.4719 15.2942 7.66747 15.3804 7.87363 15.3868Z" fill="#0074BA"/>
</svg>
