<svg width="80" height="80" viewBox="0 0 80 80" fill="none" xmlns="http://www.w3.org/2000/svg">
<path d="M40.1788 12.6729C43.6729 12.6729 46.5255 9.85254 46.544 6.36914C46.5528 4.67578 45.8985 3.08105 44.7013 1.87695C43.505 0.675781 41.9112 0.008789 40.212 0C38.5509 0.0136719 36.9102 0.639648 35.7013 1.8291C34.4913 3.02051 33.8194 4.6084 33.8106 6.30273C33.8018 7.99609 34.4561 9.5918 35.6544 10.7949C36.8497 11.9971 38.4444 12.6641 40.1446 12.6729C40.1554 12.6729 40.1671 12.6729 40.1788 12.6729ZM35.8106 6.3125C35.8165 5.15527 36.2765 4.06934 37.1036 3.25488C37.9278 2.44531 39.0177 2 40.1759 2C40.1837 2 40.1925 2 40.2013 2C41.3683 2.00586 42.463 2.46387 43.2833 3.28809C44.1026 4.11133 44.5499 5.20215 44.544 6.35938C44.5313 8.74219 42.5753 10.6729 40.1788 10.6729C40.171 10.6729 40.1622 10.6729 40.1544 10.6729C38.9874 10.667 37.8927 10.209 37.0714 9.38379C36.252 8.56055 35.8048 7.46973 35.8106 6.3125Z" fill="#0074BA"/>
<path d="M16.2765 22.4209C16.2814 22.4209 16.2872 22.4209 16.2921 22.4209C17.9816 22.4209 19.5743 21.7656 20.7784 20.5742C21.9874 19.3789 22.6603 17.7861 22.6739 16.0908C22.6876 14.3936 22.0392 12.7949 20.8478 11.5918C19.6564 10.3877 18.0656 9.72266 16.3673 9.71875C16.3624 9.71777 16.3566 9.71777 16.3517 9.71777C14.6613 9.71777 13.0685 10.374 11.8654 11.5654C10.6573 12.7607 9.9845 14.3525 9.97082 16.0479C9.95618 17.7461 10.6046 19.3438 11.796 20.5469C12.9874 21.751 14.5782 22.417 16.2765 22.4209ZM13.2716 12.9873C14.0988 12.1689 15.1925 11.7178 16.3517 11.7178C16.3556 11.7178 16.3585 11.7178 16.3624 11.7178C17.5236 11.7207 18.6124 12.1758 19.4259 12.998C20.2404 13.8213 20.6837 14.9131 20.6739 16.0742C20.6642 17.2383 20.2023 18.3311 19.3722 19.1523C18.545 19.9707 17.4513 20.4209 16.2921 20.4209C16.2882 20.4209 16.2853 20.4209 16.2814 20.4209C15.1202 20.418 14.0314 19.9629 13.2179 19.1406C12.4034 18.3184 11.9611 17.2256 11.9698 16.0645C11.9796 14.9014 12.4425 13.8086 13.2716 12.9873Z" fill="#0074BA"/>
<path d="M6.30284 46.1875C6.31358 46.1875 6.3253 46.1875 6.33702 46.1875C8.01769 46.1875 9.59972 45.5342 10.795 44.3438C11.9972 43.1484 12.6642 41.5537 12.673 39.8535C12.6915 36.3438 9.86339 33.4727 6.36925 33.4541C6.35851 33.4541 6.34679 33.4541 6.33507 33.4541C4.65441 33.4541 3.07237 34.1074 1.87706 35.2969C0.67589 36.4932 0.0088974 38.0869 0.000108395 39.7861C-0.0096572 41.4863 0.640733 43.0879 1.82921 44.2969C3.02062 45.5068 4.60851 46.1787 6.30284 46.1875ZM3.28819 36.7148C4.10558 35.9014 5.18663 35.4541 6.33605 35.4541C6.34288 35.4541 6.35167 35.4541 6.35948 35.4541C8.75011 35.4668 10.6857 37.4355 10.673 39.8438C10.6671 41.0107 10.2091 42.1055 9.3839 42.9268C8.56651 43.7402 7.48546 44.1875 6.33605 44.1875C6.32921 44.1875 6.32042 44.1875 6.31261 44.1875C5.15538 44.1816 4.06944 43.7217 3.25499 42.8945C2.43956 42.0645 1.99327 40.9648 2.00011 39.7969C2.00597 38.6299 2.46398 37.5352 3.28819 36.7148Z" fill="#0074BA"/>
<path d="M16.048 70.0273C16.0656 70.0283 16.0832 70.0283 16.1017 70.0283C17.7794 70.0283 19.3566 69.3809 20.547 68.2021C21.7511 67.0107 22.4171 65.4199 22.421 63.7217C22.425 62.0264 21.7697 60.4277 20.5744 59.2197C19.3791 58.0107 17.7863 57.3379 16.091 57.3242C16.0734 57.3242 16.0558 57.3242 16.0382 57.3242C14.3605 57.3242 12.7824 57.9717 11.5919 59.1504C10.3878 60.3418 9.72281 61.9326 9.7189 63.6309C9.71402 65.3262 10.3703 66.9258 11.5656 68.1328C12.7609 69.3408 14.3527 70.0137 16.048 70.0273ZM12.9982 60.5723C13.8126 59.7666 14.8908 59.3242 16.0382 59.3242C16.0509 59.3242 16.0626 59.3242 16.0744 59.3242C17.2384 59.334 18.3312 59.7959 19.1525 60.626C19.9738 61.4561 20.424 62.5537 20.421 63.7168C20.4181 64.8779 19.963 65.9668 19.1408 66.7803C18.3263 67.5859 17.2482 68.0283 16.1007 68.0283C16.089 68.0283 16.0763 68.0283 16.0646 68.0283C14.9015 68.0186 13.8087 67.5557 12.9875 66.7266C12.1662 65.8965 11.716 64.7988 11.7179 63.6357C11.7209 62.4746 12.1759 61.3857 12.9982 60.5723Z" fill="#0074BA"/>
<path d="M39.8194 67.3252C36.3253 67.3252 33.4727 70.1455 33.4542 73.6289C33.4454 75.3223 34.0997 76.917 35.297 78.1211C36.4933 79.3223 38.087 79.9893 39.7862 79.998C39.7989 79.998 39.8106 79.998 39.8233 79.998C41.5089 79.998 43.0968 79.3496 44.297 78.1689C45.5069 76.9775 46.1788 75.3896 46.1876 73.6953C46.1964 72.002 45.5421 70.4062 44.3438 69.2031C43.1485 68.001 41.5538 67.334 39.8536 67.3252C39.8429 67.3252 39.8311 67.3252 39.8194 67.3252ZM44.1876 73.6855C44.1817 74.8428 43.7218 75.9287 42.8946 76.7432C42.0704 77.5527 40.9806 77.998 39.8224 77.998C39.8145 77.998 39.8058 77.998 39.797 77.998C38.63 77.9922 37.5352 77.5342 36.7149 76.71C35.8956 75.8867 35.4483 74.7959 35.4542 73.6387C35.4669 71.2559 37.4229 69.3252 39.8194 69.3252C39.8272 69.3252 39.836 69.3252 39.8438 69.3252C41.0108 69.3311 42.1056 69.7891 42.9268 70.6143C43.7462 71.4375 44.1934 72.5283 44.1876 73.6855Z" fill="#0074BA"/>
<path d="M70.0274 63.9502C70.0421 62.252 69.3936 60.6543 68.2022 59.4512C67.0108 58.2471 65.42 57.5811 63.7218 57.5771C62.0079 57.6025 60.4268 58.2295 59.2198 59.4238C58.0108 60.6191 57.338 62.2119 57.3243 63.9072C57.3106 65.6045 57.9591 67.2031 59.1505 68.4062C60.3419 69.6104 61.9327 70.2754 63.6309 70.2793C63.6358 70.2803 63.6417 70.2803 63.6466 70.2803C65.337 70.2803 66.9298 69.624 68.1329 68.4326C69.3409 67.2373 70.0138 65.6455 70.0274 63.9502ZM66.7267 67.0107C65.8995 67.8291 64.8058 68.2803 63.6466 68.2803C63.6427 68.2803 63.6397 68.2803 63.6358 68.2803C62.4747 68.2773 61.3858 67.8223 60.5724 67C59.7579 66.1768 59.3145 65.085 59.3243 63.9238C59.3341 62.7598 59.796 61.667 60.6261 60.8457C61.4532 60.0273 62.547 59.5771 63.7061 59.5771C63.7101 59.5771 63.713 59.5771 63.7169 59.5771C64.878 59.5801 65.9669 60.0352 66.7804 60.8574C67.5948 61.6797 68.0372 62.7725 68.0284 63.9336C68.0186 65.0967 67.5558 66.1895 66.7267 67.0107Z" fill="#0074BA"/>
<path d="M73.6632 46.5439C75.3438 46.5439 76.9259 45.8906 78.1212 44.7012C79.3224 43.5049 79.9893 41.9111 79.9981 40.2119C80.0079 38.5117 79.3575 36.9102 78.169 35.7012C76.9776 34.4912 75.3897 33.8193 73.6954 33.8105C73.6847 33.8105 73.6729 33.8105 73.6612 33.8105C71.9806 33.8105 70.3985 34.4639 69.2032 35.6543C68.0011 36.8496 67.3341 38.4443 67.3253 40.1445C67.3067 43.6543 70.1349 46.5254 73.629 46.5439C73.6397 46.5439 73.6515 46.5439 73.6632 46.5439ZM69.3253 40.1543C69.3311 38.9873 69.7892 37.8926 70.6143 37.0713C71.4317 36.2578 72.5128 35.8105 73.6622 35.8105C73.669 35.8105 73.6778 35.8105 73.6856 35.8105C74.8429 35.8164 75.9288 36.2764 76.7433 37.1035C77.5587 37.9336 78.005 39.0332 77.9981 40.2012C77.9923 41.3682 77.5343 42.4629 76.7101 43.2832C75.8927 44.0967 74.8116 44.5439 73.6622 44.5439C73.6554 44.5439 73.6466 44.5439 73.6388 44.5439C71.2481 44.5313 69.3126 42.5625 69.3253 40.1543Z" fill="#0074BA"/>
<path d="M63.9503 9.9707C63.9328 9.96973 63.9152 9.96973 63.8966 9.96973C62.2189 9.96973 60.6417 10.6172 59.4513 11.7959C58.2472 12.9873 57.5812 14.5781 57.5773 16.2764C57.5734 17.9717 58.2287 19.5703 59.424 20.7783C60.6193 21.9873 62.2121 22.6602 63.9074 22.6738C63.9249 22.6738 63.9425 22.6738 63.9601 22.6738C65.6378 22.6738 67.216 22.0264 68.4064 20.8477C69.6105 19.6562 70.2755 18.0654 70.2794 16.3672C70.2843 14.6719 69.6281 13.0723 68.4328 11.8652C67.2374 10.6572 65.6456 9.98438 63.9503 9.9707ZM67.0001 19.4258C66.1857 20.2314 65.1076 20.6738 63.9601 20.6738C63.9474 20.6738 63.9357 20.6738 63.924 20.6738C62.7599 20.6641 61.6671 20.2021 60.8458 19.3721C60.0246 18.542 59.5744 17.4443 59.5773 16.2812C59.5802 15.1201 60.0353 14.0313 60.8576 13.2178C61.6808 12.4043 62.7628 11.9521 63.9337 11.9697C65.0968 11.9795 66.1896 12.4424 67.0109 13.2715C67.8322 14.1016 68.2824 15.1992 68.2804 16.3623C68.2775 17.5234 67.8224 18.6123 67.0001 19.4258Z" fill="#0074BA"/>
<path d="M56.0392 11.5391C56.1954 11.626 56.3634 11.668 56.5304 11.668C56.879 11.668 57.2179 11.4854 57.4025 11.1602C57.674 10.6788 57.504 10.0694 57.0236 9.79692C54.8253 8.5557 52.4884 7.5557 50.0783 6.82426C49.547 6.66313 48.9913 6.96391 48.8312 7.49125C48.671 8.01957 48.9699 8.57817 49.4982 8.73832C51.7677 9.4268 53.9689 10.3692 56.0392 11.5391Z" fill="#0074BA"/>
<path d="M24.2296 11.2598C24.3888 11.2598 24.5499 11.2217 24.7003 11.1416C26.7911 10.0234 29.0138 9.13378 31.3058 8.49609C31.837 8.34765 32.1485 7.79589 32.0011 7.26367C31.8517 6.73144 31.2999 6.42382 30.7687 6.56835C28.336 7.24609 25.9777 8.19043 23.7569 9.37793C23.2696 9.63867 23.086 10.2441 23.3468 10.7314C23.5265 11.0684 23.8722 11.2598 24.2296 11.2598Z" fill="#0074BA"/>
<path d="M9.922 22.8517C8.68177 25.048 7.68177 27.3849 6.95032 29.796C6.79017 30.3243 7.089 30.8829 7.61732 31.0431C7.714 31.0724 7.81165 31.086 7.90736 31.086C8.33704 31.086 8.73353 30.8077 8.86439 30.3761C9.55286 28.1056 10.4952 25.9044 11.6642 23.8341C11.9357 23.3536 11.7658 22.7433 11.2843 22.4718C10.8038 22.2003 10.1945 22.3692 9.922 22.8517Z" fill="#0074BA"/>
<path d="M11.2667 55.174C10.1495 53.0841 9.25986 50.8615 8.62216 48.5685C8.47275 48.0363 7.92197 47.7296 7.38974 47.8732C6.85849 48.0216 6.54697 48.5734 6.69443 49.1056C7.37216 51.5382 8.3165 53.8976 9.50302 56.1173C9.68271 56.4542 10.0284 56.6457 10.3858 56.6457C10.545 56.6457 10.7061 56.6076 10.8565 56.5275C11.3429 56.2677 11.5274 55.6613 11.2667 55.174Z" fill="#0074BA"/>
<path d="M29.921 72.9239C30.0177 72.9532 30.1153 72.9669 30.211 72.9669C30.6407 72.9669 31.0372 72.6885 31.1681 72.2569C31.3282 71.7286 31.0294 71.17 30.5011 71.0098C28.2306 70.3213 26.0304 69.379 23.961 68.209C23.4825 67.9405 22.8702 68.1065 22.5978 68.5879C22.3263 69.0694 22.4962 69.6788 22.9767 69.9512C25.1739 71.1924 27.5099 72.1924 29.921 72.9239Z" fill="#0074BA"/>
<path d="M55.2999 68.6064C53.2071 69.7245 50.9845 70.6152 48.6944 71.2519C48.1632 71.4003 47.8517 71.9521 47.9991 72.4843C48.1231 72.9267 48.5245 73.2157 48.962 73.2157C49.0509 73.2157 49.1417 73.204 49.2315 73.1796C51.6622 72.5029 54.0206 71.5575 56.2433 70.37C56.7296 70.1103 56.9142 69.5038 56.6534 69.0165C56.3936 68.5292 55.7872 68.3456 55.2999 68.6064Z" fill="#0074BA"/>
<path d="M73.0499 49.9522C73.2101 49.4239 72.9112 48.8653 72.3829 48.7051C71.8517 48.544 71.296 48.8448 71.1359 49.3721C70.4464 51.6436 69.504 53.8448 68.3351 55.9131C68.0636 56.3946 68.2335 57.0039 68.714 57.2764C68.8693 57.3633 69.0382 57.4053 69.2052 57.4053C69.5538 57.4053 69.8927 57.2227 70.0773 56.8975C71.3175 54.7012 72.3175 52.3643 73.0499 49.9522Z" fill="#0074BA"/>
<path d="M69.1427 23.2207C68.6564 23.4805 68.4718 24.0869 68.7325 24.5743C69.8517 26.668 70.7413 28.8907 71.3771 31.1787C71.5001 31.6211 71.9024 31.9112 72.3399 31.9112C72.4288 31.9112 72.5187 31.8995 72.6085 31.875C73.1407 31.7266 73.4522 31.1758 73.3048 30.6436C72.629 28.2139 71.6847 25.8545 70.4962 23.6309C70.2364 23.1446 69.631 22.961 69.1427 23.2207Z" fill="#0074BA"/>
<path d="M62.5616 39.999C62.5616 27.5576 52.4406 17.4365 39.9991 17.4365C27.5577 17.4365 17.4366 27.5576 17.4366 39.999C17.4366 52.4404 27.5577 62.5615 39.9991 62.5615C52.4406 62.5615 62.5616 52.4404 62.5616 39.999ZM39.9991 60.5615C28.6613 60.5615 19.4366 51.3369 19.4366 39.999C19.4366 28.6611 28.6613 19.4365 39.9991 19.4365C51.337 19.4365 60.5616 28.6611 60.5616 39.999C60.5616 51.3369 51.337 60.5615 39.9991 60.5615Z" fill="#0074BA"/>
<path d="M45.9572 34.8184L37.1544 43.6211L33.3302 39.7979C32.9396 39.4072 32.3068 39.4072 31.9161 39.7979C31.5255 40.1885 31.5255 40.8213 31.9161 41.2119L36.4474 45.7422C36.6427 45.9375 36.8986 46.0352 37.1544 46.0352C37.4103 46.0352 37.6661 45.9375 37.8615 45.7422L47.3712 36.2324C47.7618 35.8418 47.7618 35.209 47.3712 34.8184C46.9806 34.4277 46.3478 34.4277 45.9572 34.8184Z" fill="#0074BA"/>
<path d="M39.9991 26.0381C32.3009 26.0381 26.0382 32.3008 26.0382 39.999C26.0382 47.6973 32.3009 53.96 39.9991 53.96C47.6974 53.96 53.9601 47.6973 53.9601 39.999C53.9601 32.3008 47.6974 26.0381 39.9991 26.0381ZM39.9991 51.96C33.4034 51.96 28.0382 46.5947 28.0382 39.999C28.0382 33.4033 33.4034 28.0381 39.9991 28.0381C46.5948 28.0381 51.9601 33.4033 51.9601 39.999C51.9601 46.5947 46.5948 51.96 39.9991 51.96Z" fill="#0074BA"/>
</svg>
