<svg width="72" height="71" viewBox="0 0 72 71" fill="none" xmlns="http://www.w3.org/2000/svg">
<path d="M69.392 10.2158H42.2309C41.0958 10.2158 40.1228 11.1077 40.1228 12.3238V20.2695C40.1228 21.5667 41.339 22.3775 42.393 22.2964C44.8254 22.1343 46.2848 23.1883 46.7712 24.7288C47.8253 27.7287 44.9875 30.2421 42.5552 29.5935C41.2579 29.2691 40.0418 30.161 40.0418 31.4583V39.1607H32.3394C31.0421 39.1607 30.0692 40.3768 30.4746 41.6741C31.1232 44.1064 28.6098 46.8631 25.6099 45.8901C24.2316 45.4037 23.1775 44.1064 23.1775 42.3227C23.1775 41.5119 23.3397 40.9444 22.8532 40.2958C22.4478 39.6471 21.8803 39.2417 21.1506 39.2417H13.205C12.0699 39.2417 11.0969 40.1336 11.0969 41.3498V68.592C11.0969 69.7271 11.9888 70.7 13.205 70.7C14.7454 70.7 70.2028 70.7 69.392 70.7C70.5271 70.7 71.5 69.8081 71.5 68.592V12.4049C71.5 11.1077 70.6082 10.2158 69.392 10.2158ZM49.4468 25.945C49.4468 22.7829 47.0145 19.7019 42.5552 19.783V12.5671H69.0677V39.0796H62.1761C61.6085 36.1608 59.014 33.9717 55.852 33.9717C52.6899 33.9717 50.0954 36.1608 49.5279 39.0796H42.5552V32.0258C45.7983 32.5933 49.4468 29.8367 49.4468 25.945ZM40.6904 58.8626C38.8256 58.5383 37.4473 56.9167 37.4473 54.8898C37.4473 52.8628 38.8256 51.2413 40.6904 50.917C41.7444 50.7548 42.5552 49.7819 42.5552 48.7279V41.593H49.6901C50.8251 41.593 51.717 40.7822 51.8792 39.7282C52.2035 37.8634 53.825 36.4851 55.852 36.4851C57.8789 36.4851 59.5005 37.8634 59.8248 39.7282C59.987 40.7822 60.8788 41.593 62.0139 41.593H69.0677V68.1055H42.5552V61.0517C42.5552 59.9977 41.7444 59.0248 40.6904 58.8626ZM26.9071 48.4846C30.7989 48.4846 33.5555 44.8361 32.988 41.593H40.1228V48.5657C37.204 49.1333 35.0149 51.7278 35.0149 54.8898C35.0149 58.0518 37.204 60.6463 40.1228 61.2139V68.1055H13.6103V41.593H20.8263C20.6641 45.9712 23.664 48.4846 26.9071 48.4846Z" fill="#0074BA"/>
<path d="M10.2861 31.3772C10.8537 34.296 13.4482 36.4851 16.6102 36.4851C19.7723 36.4851 22.3667 34.296 22.9343 31.3772H30.3124C31.4475 31.3772 32.4204 30.4853 32.4204 29.2692V21.8911C35.3392 21.3235 37.5283 18.729 37.5283 15.567C37.5283 12.4049 35.3392 9.81044 32.4204 9.24289V2.10803C32.4204 0.972936 31.5286 0 30.3124 0H3.07019C1.93509 0 0.962158 0.891858 0.962158 2.10803V29.3502C0.962158 30.4853 1.85402 31.4583 3.07019 31.4583L10.2861 31.3772ZM35.0149 15.6481C35.0149 17.675 33.6366 19.2966 31.7718 19.6209C30.7178 19.783 29.907 20.756 29.907 21.81V28.9448H22.7721C21.637 28.9448 20.7452 29.7556 20.583 30.8096C20.2587 32.6744 18.6372 34.0528 16.6102 34.0528C14.5833 34.0528 12.9617 32.6744 12.6374 30.8096C12.4752 29.7556 11.5834 28.9448 10.4483 28.9448H3.3945V2.43234H29.907V9.48613C29.907 10.6212 30.7178 11.5131 31.7718 11.6752C33.6366 11.9185 35.0149 13.6211 35.0149 15.6481Z" fill="#0074BA"/>
</svg>
