<svg width="74" height="75" viewBox="0 0 74 75" fill="none" xmlns="http://www.w3.org/2000/svg">
<path fill-rule="evenodd" clip-rule="evenodd" d="M10.8018 13.951L10.6996 12.6438H9.40201L10.1243 13.3183L10.1403 13.3343L10.8018 13.951ZM37.7887 51.5808C37.7887 52.0497 37.4084 52.4287 36.945 52.4287C36.4784 52.4287 36.1013 52.0497 36.1013 51.5808V49.5702C36.1013 49.1013 36.4785 48.7223 36.945 48.7223C37.4085 48.7223 37.7887 49.1013 37.7887 49.5702V51.5808ZM36.098 23.0859C36.098 22.6169 36.4784 22.238 36.9418 22.238C37.4084 22.238 37.7855 22.617 37.7855 23.0859V25.0964C37.7855 25.5654 37.4083 25.9443 36.9418 25.9443C36.4783 25.9443 36.098 25.5653 36.098 25.0964V23.0859ZM38.8818 37.3333C38.8818 36.5689 38.4215 35.8816 37.7184 35.5861C37.0152 35.2938 36.2066 35.4576 35.6697 35.9972L35.6314 36.0325C34.9346 36.7777 34.9506 37.9436 35.6665 38.6694C36.4016 39.4049 37.5906 39.4049 38.3256 38.6694L38.364 38.6341C38.6964 38.284 38.8818 37.8183 38.8818 37.3333ZM39.5242 34.7992C40.0004 35.2778 40.3327 35.8816 40.4798 36.54H40.9975C40.9784 36.2221 41.1414 35.9202 41.4194 35.7596C41.6943 35.6022 42.0363 35.6118 42.3015 35.7885L43.5895 36.6525H43.6087L43.6182 36.6589H43.6438L43.6534 36.6653H43.6438C43.6822 36.6942 43.7205 36.7231 43.7525 36.7585C43.7717 36.7777 43.7908 36.797 43.8068 36.8195L43.8164 36.8291V36.8355L43.8196 36.842V36.8837L43.8292 36.8998L43.8579 36.9576L43.8707 36.9769L43.8739 36.9865L43.8803 36.9961V37.0058L43.8867 37.0154V37.0443L43.8931 37.0572V37.0636L43.8995 37.0764V37.1214L43.9059 37.1407V37.2049L43.9123 37.2467V37.4972L43.9059 37.4811C43.8931 37.5486 43.8739 37.6128 43.8484 37.6738V37.6835L43.842 37.6931V37.7027L43.8356 37.7124L43.8324 37.722L43.826 37.7316L43.8228 37.7381L43.8036 37.7702L43.7972 37.7798L43.7908 37.7862L43.794 37.7895C43.7461 37.8633 43.6886 37.9308 43.6214 37.9854L43.5735 38.0239L43.5575 38.0335L43.5447 38.0432L42.2248 38.9296V38.9264C41.9595 39.1063 41.6143 39.1159 41.3395 38.9585C41.0614 38.7979 40.8984 38.496 40.9144 38.1749H40.451C40.2976 38.769 39.994 39.3118 39.5721 39.7519L39.5242 39.8065H39.521C38.853 40.4777 37.9485 40.8567 37.0025 40.8567C36.0565 40.8567 35.1488 40.4777 34.4809 39.8065L34.4745 39.8001H34.4777C33.1002 38.4222 33.0779 36.19 34.4265 34.7864L34.4745 34.735V34.7318C34.9315 34.3046 35.4908 34.0059 36.0981 33.8614V29.8498C35.7753 29.8691 35.4685 29.6989 35.3119 29.413C35.1585 29.124 35.1808 28.7739 35.3726 28.5105L36.2355 27.3189V27.3157C36.3889 27.0748 36.6574 26.9303 36.9418 26.9303C37.2295 26.9303 37.4948 27.0748 37.6514 27.3157L38.5175 28.5105H38.5143C38.7061 28.7738 38.7284 29.1271 38.5718 29.413C38.4184 29.6989 38.1116 29.8723 37.7856 29.8531V33.8357C38.444 33.9835 39.0449 34.3175 39.521 34.7993L39.5242 34.7992ZM17.5036 25.2598C17.6826 24.9643 17.6666 24.5853 17.4557 24.3059L14.8157 20.8178L20.3704 15.2357L24.0746 17.7248L24.0778 17.7216C24.3527 17.9047 24.7074 17.9111 24.9855 17.7377C27.0661 16.4529 29.3353 15.5087 31.71 14.9434C32.0423 14.8631 32.298 14.5869 32.3492 14.2465L32.998 9.96514H40.8122L41.6528 14.2562V14.2529C41.7071 14.5902 41.9596 14.8632 42.292 14.9435C44.6506 15.5055 46.9038 16.4402 48.9717 17.7121C49.2593 17.9144 49.6397 17.9176 49.9305 17.7185L53.5228 15.2422L58.9848 20.8276L56.5303 24.3316H56.5271C56.3353 24.6078 56.3225 24.974 56.5015 25.2598C57.7799 27.3475 58.7195 29.6279 59.282 32.0142C59.3587 32.3386 59.6144 32.5859 59.9372 32.6502L64.2359 33.5013V41.3542L59.9979 42.003V42.0062C59.6464 42.0479 59.3587 42.3049 59.2788 42.6518C58.7195 45.0285 57.7863 47.2992 56.5143 49.3805C56.3225 49.6631 56.3225 50.0357 56.5143 50.3215L58.9943 54.0505L53.5355 59.6294L49.956 56.9668C49.6779 56.7613 49.304 56.7452 49.0132 56.9283C46.9357 58.213 44.6666 59.1572 42.292 59.7225C41.9692 59.7996 41.7199 60.0598 41.6592 60.3874L40.809 64.8132H32.9979L32.3523 60.4548C32.3171 60.0983 32.0583 59.7996 31.7067 59.7161C29.3385 59.154 27.0724 58.213 24.9983 56.9314C24.7074 56.7419 24.3303 56.7516 24.049 56.9539L20.3512 59.6326L14.7997 54.0536L17.4588 50.344C17.6633 50.0678 17.6793 49.692 17.4972 49.3998C16.2187 47.3121 15.2791 45.0317 14.7166 42.6454C14.6367 42.3081 14.3587 42.0512 14.0167 42.003L9.64779 41.3446V33.5045L14.0103 32.6599C14.3555 32.6117 14.6368 32.3548 14.7167 32.0143C15.2792 29.628 16.2188 27.3475 17.4972 25.2599L17.5036 25.2598ZM14.2884 27.8774C14.7135 26.84 15.212 25.8347 15.7745 24.8679L13.0835 21.3093C12.7766 20.9753 12.7862 20.4581 13.1058 20.137L19.6672 13.5432V13.5399C19.9517 13.2541 20.3959 13.2123 20.7315 13.4372L24.57 16.0162L24.5668 16.013C26.5068 14.8728 28.5906 14.0024 30.7638 13.4275L31.435 9.0145C31.4829 8.58412 31.8441 8.26294 32.2723 8.26294H41.499C41.9017 8.26294 42.25 8.5488 42.3267 8.94706L43.2056 13.4211C45.3853 13.996 47.4755 14.8664 49.4219 16.0098L53.1485 13.4403C53.4841 13.2091 53.9379 13.2541 54.2223 13.5463L60.6464 20.1145H60.6496C60.9564 20.4035 61.0043 20.8725 60.7614 21.2194L58.2142 24.8552C59.352 26.808 60.2181 28.9053 60.787 31.0925L65.2038 31.9661V31.9693C65.6161 32.0303 65.9229 32.3868 65.9229 32.8075V42.083C65.9229 42.5006 65.6161 42.8571 65.2038 42.9213L60.7806 43.599H60.7838C60.2117 45.783 59.3456 47.8771 58.2078 49.8235L60.7582 53.6584C60.998 53.9924 60.9628 54.4517 60.6783 54.744L54.2288 61.3378C53.9347 61.6365 53.4649 61.675 53.1293 61.4245L49.4123 58.6591H49.4091C47.4723 59.7993 45.3853 60.6665 43.2152 61.2382L42.3395 65.7732C42.2852 66.1972 41.9272 66.5119 41.5022 66.5119H32.2723C31.8568 66.5119 31.5021 66.2036 31.4382 65.7893L30.7638 61.2349C28.5969 60.6632 26.5195 59.796 24.5859 58.6591L20.8114 61.3923C20.479 61.6781 19.9804 61.6621 19.6672 61.3473L13.109 54.7503C12.8182 54.458 12.7798 53.9955 13.0195 53.6615L15.7809 49.8106V49.8073C14.6527 47.8642 13.7897 45.7766 13.2177 43.6021L8.72723 42.9276C8.29577 42.8859 7.96658 42.5197 7.96658 42.083V32.8108C7.96658 32.4061 8.25422 32.056 8.65053 31.9789L13.2112 31.0957C13.4989 30.0005 13.8569 28.9245 14.2884 27.8774ZM9.64456 15.1782C4.06751 22.1285 1.31875 30.9452 1.95177 39.8515C2.58778 48.7578 6.55405 57.0926 13.0578 63.1754C19.5585 69.2586 28.114 72.6409 36.9994 72.6376C37.2263 72.6312 37.45 72.7179 37.613 72.8785C37.776 73.0358 37.8687 73.2575 37.8687 73.4855C37.8687 73.7167 37.776 73.9351 37.613 74.0957C37.45 74.2531 37.2263 74.3398 36.9994 74.3334C27.6762 74.3334 18.7024 70.778 11.8853 64.3862C5.06823 57.9915 0.920046 49.2392 0.274501 39.893C-0.371093 30.5468 2.53727 21.3034 8.40837 14.0251L6.72087 12.4544C6.44282 12.2296 6.33735 11.8506 6.4588 11.5134C6.57705 11.1762 6.89666 10.9481 7.25462 10.9481H11.4798C11.9176 10.9513 12.2852 11.2918 12.3203 11.7318L12.6527 15.9778C12.6783 16.3247 12.4897 16.6555 12.1797 16.8065C11.8665 16.9574 11.4925 16.8996 11.2401 16.662L9.64847 15.1813L9.64456 15.1782ZM64.223 59.6522L62.5259 58.1073C62.2703 57.8729 61.8931 57.8247 61.5832 57.9821C61.2731 58.1395 61.0942 58.4735 61.1293 58.8203L61.5736 63.0664C61.6183 63.5 61.9795 63.8276 62.4109 63.8276H66.6361C67.0004 63.8276 67.32 63.5931 67.4351 63.2462C67.5501 62.8994 67.4319 62.5172 67.141 62.2988L65.4727 60.7861C71.3949 53.5242 74.3483 44.2676 73.7347 34.8992C73.1178 25.5275 68.9822 16.7429 62.159 10.3255C55.3388 3.90507 46.3452 0.333829 36.9999 0.333829C36.773 0.327406 36.5493 0.414124 36.3863 0.571501C36.2233 0.732089 36.1306 0.950496 36.1306 1.18175C36.1306 1.40978 36.2233 1.6314 36.3863 1.78878C36.5493 1.94936 36.773 2.03608 36.9999 2.02966C45.9075 2.02966 54.482 5.42774 60.9923 11.5428C67.4994 17.6548 71.4528 26.0246 72.0541 34.9572C72.6518 43.8857 69.8553 52.7156 64.2239 59.6526L64.223 59.6522ZM47.5207 46.8239L46.0761 45.4814C45.7341 45.1666 45.2004 45.1891 44.8872 45.5328C44.5708 45.8764 44.5931 46.4128 44.9351 46.7275L46.3797 48.0701H46.3829C46.7249 48.372 47.2458 48.3431 47.5558 48.0058C47.8659 47.6654 47.8498 47.1419 47.5207 46.8239ZM51.065 36.5396H49.0643C48.5977 36.5396 48.2206 36.9218 48.2206 37.3874C48.2206 37.8564 48.5977 38.2353 49.0643 38.2353H51.065C51.5316 38.2353 51.9087 37.8563 51.9087 37.3874C51.9087 36.9217 51.5316 36.5396 51.065 36.5396ZM22.7101 38.2386H24.7108C25.1774 38.2386 25.5545 37.8564 25.5545 37.3907C25.5545 36.9218 25.1774 36.5428 24.7108 36.5428H22.7101C22.2435 36.5428 21.8664 36.9218 21.8664 37.3907C21.8664 37.8564 22.2435 38.2386 22.7101 38.2386ZM46.3539 26.7341L44.9062 28.1858H44.9093C44.7432 28.3432 44.6473 28.5616 44.6441 28.7896C44.6409 29.0176 44.7304 29.2393 44.8934 29.3998C45.0532 29.5636 45.2737 29.6536 45.5006 29.6504C45.7275 29.6472 45.9449 29.5508 46.1015 29.3838L47.5461 27.9321C47.8752 27.6013 47.8752 27.0649 47.5461 26.7341C47.2169 26.4033 46.6831 26.4032 46.3539 26.7341ZM27.5325 48.0444L28.8652 46.7051C29.1976 46.3743 29.1944 45.8379 28.8652 45.5071C28.536 45.1763 28.0023 45.1763 27.6731 45.5071L26.3372 46.8496V46.8464C26.024 47.1805 26.0304 47.704 26.3532 48.0284C26.676 48.356 27.2002 48.3624 27.5293 48.0444L27.5325 48.0444ZM26.318 27.9L27.6507 29.3581C27.8009 29.5283 28.0119 29.6343 28.2388 29.644C28.4657 29.6568 28.6862 29.5765 28.8556 29.4223C29.0218 29.2682 29.1209 29.053 29.1273 28.8249C29.1337 28.5969 29.0474 28.3753 28.8908 28.2115L27.5548 26.7598C27.4046 26.5863 27.1937 26.4836 26.9668 26.4707C26.7399 26.4579 26.5193 26.5382 26.3499 26.6923C26.1837 26.8465 26.0847 27.0649 26.0783 27.2929C26.0719 27.521 26.1582 27.7394 26.3148 27.9032L26.318 27.9ZM52.5571 37.3333C52.5571 32.4706 50.3071 27.8876 46.4718 24.9293C42.6334 21.968 37.6445 20.9723 32.9718 22.2314C28.2993 23.4872 24.4734 26.8596 22.6235 31.3499C20.773 35.8399 21.1053 40.9403 23.5248 45.1509C25.9441 49.3615 30.1725 52.2007 34.9695 52.8367C39.7636 53.4695 44.5799 51.8282 47.9999 48.3884C50.9242 45.4592 52.5634 41.4795 52.5571 37.3333ZM49.1884 25.0839C45.398 21.2747 40.0575 19.4535 34.7426 20.1601C29.4276 20.8635 24.7387 24.0143 22.0608 28.6808C19.3826 33.3476 19.015 39.0005 21.0701 43.9783C23.1219 48.9566 27.363 52.6889 32.541 54.0826C37.7217 55.4733 43.251 54.3684 47.5047 51.086C51.7554 47.8035 54.2483 42.7223 54.2451 37.3327C54.2483 32.7366 52.4297 28.3269 49.189 25.0832L49.1884 25.0839ZM63.0239 60.8505L63.1581 62.1417H64.4429L63.0239 60.8505Z" fill="#0074BA"/>
</svg>
